<svg width="196" height="25" viewBox="0 0 196 25" fill="none" xmlns="http://www.w3.org/2000/svg">
<g clip-path="url(#clip0)">
<path d="M23.1389 7.2242L26.306 5.53506C26.306 5.53506 21.9962 -0.766668 12.4624 0.0778948C2.96137 0.954941 0.512635 8.78339 0.512635 8.78339C0.512635 8.78339 -2.55644 18.1061 6.32429 23.141C6.32429 23.141 15.3683 27.9485 23.5307 22.1015C23.5307 22.1015 28.3955 18.6583 28.2323 11.9992H18.6007L18.6659 15.1501H24.0531C24.0531 15.1501 22.3226 21.8091 14.1276 21.7441C5.93249 21.6793 4.10411 15.7348 4.10411 15.7348C4.10411 15.7348 1.13298 7.09426 10.177 3.91091C10.177 3.91091 17.6212 1.31225 23.1389 7.2242Z" fill="#020202"/>
<path d="M44.3932 24.7651C56.8655 24.895 56.441 17.1316 56.441 17.1316V1.99438H53.274V15.9946C53.274 15.9946 53.8616 22.0365 44.3932 21.7766C34.8922 22.0365 35.5125 15.9946 35.5125 15.9946V1.99438H32.3455V17.1316C32.3455 17.0991 31.9211 24.895 44.3932 24.7651Z" fill="#020202"/>
<path d="M61.4707 2.31921H80.8647V5.2427H64.7031V11.3171H77.4039V14.338H64.7031V21.2894H80.8647V24.3429H61.4707V2.31921Z" fill="#020202"/>
<path d="M102.543 15.5398C108.127 14.403 107.8 9.0432 107.8 9.0432C107.8 2.05932 101.694 2.0918 101.694 2.0918L85.4349 2.12429L85.4023 24.3752H88.3407L88.3734 15.7672H98.8867L104.339 24.3752H107.767L102.543 15.5398ZM100.584 12.6163H88.406V5.08026L100.878 5.04777C100.878 5.04777 104.698 4.65799 104.698 8.84831C104.698 13.0386 100.584 12.6163 100.584 12.6163Z" fill="#020202"/>
<path d="M112.076 2.09186H115.276V21.2569H131.797V24.3428H112.076V2.09186Z" fill="#020202"/>
<path d="M149.756 2.09186H145.641L134.998 24.3428H138.295L140.646 19.2105L154.685 19.243L157.037 24.3428H160.399L149.756 2.09186ZM142.214 16.1247L147.665 4.82045L153.118 16.1247H142.214Z" fill="#020202"/>
<path d="M166.895 2.09186H163.893V24.3428H166.895V2.09186Z" fill="#020202"/>
<path d="M172.055 2.09186H176.267L192.657 20.7697V2.09186H195.921V24.3428H191.775L175.287 5.60005V24.3428H172.055V2.09186Z" fill="#020202"/>
</g>
<defs>
<clipPath id="clip0">
<rect width="196" height="25" fill="white"/>
</clipPath>
</defs>
</svg>
