<svg width="50" height="38" viewBox="0 0 50 38" fill="none" xmlns="http://www.w3.org/2000/svg">
<path d="M27.0787 37.7719C26.1943 37.7719 25.3778 37.3969 24.7995 36.7492L24.5614 36.4765L24.3232 36.7492C23.7449 37.3969 22.9285 37.7719 22.044 37.7719C21.8059 37.7719 21.6018 37.7378 21.3636 37.7037C16.2949 36.5446 11.056 35.931 5.85119 35.931H0.544308C0.238142 35.931 0 35.6924 0 35.3856V4.70444C0 4.39763 0.238142 4.159 0.544308 4.159C0.850475 4.159 1.0886 4.39763 1.0886 4.70444V34.8742H5.91923C11.2261 34.8742 16.533 35.4878 21.6698 36.681C21.8059 36.7151 21.9419 36.7151 22.112 36.7151C22.7584 36.7151 23.3707 36.4083 23.7449 35.8628L23.915 35.6242L23.6429 35.4538C20.6492 33.6129 17.1793 32.6243 13.6754 32.6243H3.91213C3.60596 32.6243 3.36784 32.3856 3.36784 32.0788V0.545443C3.36784 0.238631 3.60596 0 3.91213 0H17.4855C20.4111 0 23.0305 1.63633 24.3573 4.26127L24.6294 4.80671L24.9015 4.26127C26.1942 1.63633 28.8477 0 31.7733 0H45.3467C45.6528 0 45.891 0.238631 45.891 0.545443V32.0788C45.891 32.3856 45.6528 32.6243 45.3467 32.6243H35.5834C32.0454 32.6243 28.6096 33.6129 25.6159 35.4538L25.3438 35.6242L25.5139 35.8628C25.8881 36.4083 26.4664 36.7151 27.1127 36.7151C27.2488 36.7151 27.4189 36.7151 27.555 36.681C32.7258 35.4878 38.0327 34.8742 43.3056 34.8742H48.1022V4.70444C48.1022 4.39763 48.3403 4.159 48.6465 4.159C48.9526 4.159 49.1908 4.39763 49.1908 4.70444V35.3856C49.1908 35.6924 48.9526 35.931 48.6465 35.931H43.3396C38.1347 35.931 32.8959 36.5446 27.8271 37.7037C27.555 37.7378 27.3169 37.7719 27.0787 37.7719ZM24.5954 10.8066C24.9016 10.8066 25.1397 11.0452 25.1397 11.352V34.4311L25.5819 34.1924C28.6096 32.4879 32.0454 31.5675 35.5153 31.5675H44.7684V1.09089H31.7393C28.0993 1.09089 25.1397 4.05673 25.1397 7.70438C25.1397 8.01119 24.9016 8.24982 24.5954 8.24982C24.2892 8.24982 24.0511 8.01119 24.0511 7.70438C24.0511 4.05673 21.0915 1.09089 17.4515 1.09089H4.4224V31.5334H13.6414C17.1453 31.5334 20.5812 32.4538 23.6088 34.1583L24.0511 34.397V11.3179C24.0511 11.0452 24.2892 10.8066 24.5954 10.8066Z" fill="#F5D7AC"/>
<path d="M21.4317 8.07936C21.3296 8.07936 21.2276 8.04527 21.1255 7.97709C20.0369 7.2612 18.7783 6.85211 17.4856 6.85211H8.02844C7.72227 6.85211 7.48413 6.61348 7.48413 6.30667C7.48413 5.99986 7.72227 5.76123 8.02844 5.76123H17.4856C19.0164 5.76123 20.4792 6.2044 21.7379 7.05665L21.7719 7.09074C21.8739 7.15892 21.942 7.2612 21.976 7.39756C22.01 7.53392 21.976 7.67028 21.908 7.80664C21.8399 7.90891 21.7038 8.01118 21.5678 8.04527C21.4997 8.07936 21.4657 8.07936 21.4317 8.07936Z" fill="#F5D7AC"/>
<path d="M27.759 8.07945C27.5889 8.07945 27.4188 7.97718 27.3167 7.84082C27.2487 7.73855 27.2147 7.5681 27.2487 7.43174C27.2827 7.29538 27.3508 7.15902 27.4868 7.09084C28.7455 6.23858 30.2083 5.79541 31.7391 5.79541H41.1963C41.5024 5.79541 41.7406 6.03404 41.7406 6.34085C41.7406 6.64766 41.5024 6.8863 41.1963 6.8863H31.7732C30.4464 6.8863 29.1877 7.26129 28.1332 8.01127C27.9631 8.04536 27.861 8.07945 27.759 8.07945Z" fill="#F5D7AC"/>
<path d="M21.4317 12.2383C21.3296 12.2383 21.2276 12.2042 21.1255 12.136C20.0369 11.4201 18.7783 11.011 17.4856 11.011H8.02844C7.72227 11.011 7.48413 10.7724 7.48413 10.4656C7.48413 10.1588 7.72227 9.92017 8.02844 9.92017H17.4856C19.0164 9.92017 20.4792 10.3633 21.7379 11.2156L21.7719 11.2497C21.8739 11.3179 21.942 11.4201 21.976 11.5565C22.01 11.6929 21.976 11.8292 21.908 11.9656C21.8399 12.0678 21.7038 12.1701 21.5678 12.2042C21.4997 12.2383 21.4657 12.2383 21.4317 12.2383Z" fill="#F5D7AC"/>
<path d="M27.759 12.2384C27.5889 12.2384 27.4188 12.1361 27.3167 11.9998C27.2487 11.8975 27.2147 11.727 27.2487 11.5907C27.2827 11.4543 27.3508 11.3179 27.4868 11.2498C28.7455 10.3975 30.2083 9.95435 31.7391 9.95435H41.1963C41.5024 9.95435 41.7406 10.193 41.7406 10.4998C41.7406 10.8066 41.5024 11.0452 41.1963 11.0452H31.7732C30.4464 11.0452 29.1877 11.4202 28.1332 12.1702C27.9631 12.2043 27.861 12.2384 27.759 12.2384Z" fill="#F5D7AC"/>
<path d="M21.4317 16.3972C21.3296 16.3972 21.2276 16.3631 21.1255 16.295C20.0369 15.5791 18.7783 15.17 17.4856 15.17H8.02844C7.72227 15.17 7.48413 14.9314 7.48413 14.6245C7.48413 14.3177 7.72227 14.0791 8.02844 14.0791H17.4856C19.0164 14.0791 20.4792 14.5223 21.7379 15.3745L21.7719 15.4086C21.8739 15.4768 21.942 15.5791 21.976 15.7154C22.01 15.8518 21.976 15.9882 21.908 16.1245C21.8399 16.2268 21.7038 16.3291 21.5678 16.3631C21.4997 16.3972 21.4657 16.3972 21.4317 16.3972Z" fill="#F5D7AC"/>
<path d="M27.759 16.3973C27.5889 16.3973 27.4188 16.2951 27.3167 16.1587C27.2487 16.0564 27.2147 15.886 27.2487 15.7496C27.2827 15.6133 27.3508 15.4769 27.4868 15.4087C28.7455 14.5565 30.2083 14.1133 31.7391 14.1133H41.1963C41.5024 14.1133 41.7406 14.3519 41.7406 14.6587C41.7406 14.9655 41.5024 15.2042 41.1963 15.2042H31.7732C30.4464 15.2042 29.1877 15.5792 28.1332 16.3291C27.9631 16.3632 27.861 16.3973 27.759 16.3973Z" fill="#F5D7AC"/>
<path d="M21.4317 20.5222C21.3296 20.5222 21.2276 20.4881 21.1255 20.42C20.0369 19.7041 18.7783 19.295 17.4856 19.295H8.02844C7.72227 19.295 7.48413 19.0564 7.48413 18.7495C7.48413 18.4427 7.72227 18.2041 8.02844 18.2041H17.4856C19.0164 18.2041 20.4792 18.6473 21.7379 19.4995L21.7719 19.5336C21.8739 19.6018 21.942 19.7382 21.976 19.8404C22.01 19.9768 21.976 20.1132 21.908 20.2495C21.8399 20.3518 21.7038 20.4541 21.5678 20.4881C21.4997 20.5222 21.4657 20.5222 21.4317 20.5222Z" fill="#F5D7AC"/>
<path d="M27.7591 20.5223C27.589 20.5223 27.419 20.4201 27.3169 20.2837C27.1468 20.0451 27.2148 19.7042 27.453 19.5337C28.7116 18.6815 30.1744 18.2383 31.7053 18.2383H41.1624C41.4686 18.2383 41.7067 18.4769 41.7067 18.7837C41.7067 19.0905 41.4686 19.3292 41.1624 19.3292H31.7393C30.4126 19.3292 29.1539 19.7042 28.0993 20.4541C27.9632 20.4882 27.8612 20.5223 27.7591 20.5223Z" fill="#F5D7AC"/>
<path d="M21.4317 24.6812C21.3296 24.6812 21.2276 24.6471 21.1255 24.5789C20.0369 23.863 18.7783 23.4539 17.4856 23.4539H8.02844C7.72227 23.4539 7.48413 23.2153 7.48413 22.9085C7.48413 22.6017 7.72227 22.363 8.02844 22.363H17.4856C19.0164 22.363 20.4792 22.8062 21.7379 23.6585L21.7719 23.6926C21.8739 23.7607 21.942 23.863 21.976 23.9994C22.01 24.1357 21.976 24.2721 21.908 24.4084C21.8399 24.5107 21.7038 24.613 21.5678 24.6471C21.4997 24.6812 21.4657 24.6812 21.4317 24.6812Z" fill="#F5D7AC"/>
<path d="M27.759 24.6813C27.5889 24.6813 27.4188 24.579 27.3167 24.4426C27.2487 24.3404 27.2147 24.1699 27.2487 24.0335C27.2827 23.8972 27.3508 23.7608 27.4868 23.6926C28.7455 22.8404 30.2083 22.3972 31.7391 22.3972H41.1963C41.5024 22.3972 41.7406 22.6358 41.7406 22.9427C41.7406 23.2495 41.5024 23.4881 41.1963 23.4881H31.7732C30.4464 23.4881 29.1877 23.8631 28.1332 24.6131C27.9631 24.6472 27.861 24.6813 27.759 24.6813Z" fill="#F5D7AC"/>
<path d="M21.4317 28.8403C21.3296 28.8403 21.2276 28.8063 21.1255 28.7381C20.0369 28.0222 18.7783 27.6131 17.4856 27.6131H8.02844C7.72227 27.6131 7.48413 27.3745 7.48413 27.0677C7.48413 26.7608 7.72227 26.5222 8.02844 26.5222H17.4856C19.0164 26.5222 20.4792 26.9654 21.7379 27.8176C21.8739 27.8858 21.942 28.0222 21.976 28.1585C22.01 28.2949 21.976 28.4313 21.908 28.5676C21.8399 28.6699 21.7038 28.7722 21.5678 28.8063C21.4997 28.8403 21.4657 28.8403 21.4317 28.8403Z" fill="#F5D7AC"/>
<path d="M27.7591 28.8402C27.589 28.8402 27.419 28.7379 27.3169 28.6016C27.1468 28.3629 27.2148 28.022 27.453 27.8516C28.7116 26.9993 30.1744 26.5562 31.7053 26.5562H41.1624C41.4686 26.5562 41.7067 26.7948 41.7067 27.1016C41.7067 27.4084 41.4686 27.647 41.1624 27.647H31.7393C30.4126 27.647 29.1539 28.022 28.0993 28.772C27.9632 28.8061 27.8612 28.8402 27.7591 28.8402Z" fill="#F5D7AC"/>
</svg>
