<svg width="40" height="45" viewBox="0 0 40 45" fill="none" xmlns="http://www.w3.org/2000/svg">
<path d="M25.9901 44.3513C23.5748 44.3513 21.2956 42.9536 20.1049 40.6695L19.8668 40.2264L19.6287 40.6695C18.404 42.9536 16.1588 44.3513 13.7435 44.3513C11.3622 44.3513 9.11696 43.0559 7.92631 40.9764L7.85827 40.84H7.68818H7.62014C5.98726 40.84 4.38839 40.09 3.23176 38.7264C2.04111 37.3287 1.53083 35.5219 1.80298 33.8174L1.837 33.7151L1.73494 33.6129C0.612333 32.4879 0 31.022 0 29.4539C0 28.2607 0.374204 27.1017 1.08859 26.079L1.19065 25.9426L1.08859 25.8062C0.408222 24.7835 0 23.4199 0 22.1927C0 20.4541 0.782425 18.7837 2.10915 17.6928L2.24522 17.5564L2.17718 17.386C1.87102 16.6701 1.73494 15.9201 1.73494 15.1701C1.73494 12.852 3.06166 10.6702 5.13679 9.61342L5.30689 9.54524L5.27287 9.37479C4.9667 6.85212 6.59959 4.53399 9.04892 3.92037L9.15098 3.88628L9.21901 3.74992C10.2055 1.49997 12.3487 0 14.5939 0C16.601 0 18.5401 1.15907 19.6287 3.03402L19.8668 3.40901L20.1049 3.03402C21.1935 1.15907 23.0986 0 25.1397 0C27.3849 0 29.5281 1.49997 30.5146 3.74992L30.5486 3.85219L30.6847 3.88628C33.134 4.4999 34.7669 6.81803 34.4607 9.3407L34.4267 9.51115L34.5968 9.57933C36.6719 10.602 37.9987 12.7838 37.9987 15.136C37.9987 15.886 37.8626 16.636 37.5564 17.3519L37.4884 17.5223L37.6245 17.6587C38.9852 18.7837 39.7336 20.42 39.7336 22.1586C39.7336 23.3858 39.3254 24.7494 38.645 25.7722L38.543 25.9085L38.645 26.0449C39.3594 27.0335 39.7336 28.1925 39.7336 29.4198C39.7336 30.9879 39.1213 32.4538 37.9987 33.5788L37.9306 33.647V33.7833C37.9646 34.0901 37.9987 34.3629 37.9987 34.6697C37.9987 38.0105 35.3112 40.8059 32.1475 40.8059H31.9093L31.8413 40.9423C30.6166 43.0558 28.3714 44.3513 25.9901 44.3513ZM25.9901 30.5789C26.3303 30.5789 26.6025 30.8516 26.6025 31.1925C26.6025 31.5334 26.3303 31.8061 25.9901 31.8061C22.9625 31.8061 20.4791 34.2947 20.4791 37.3287C20.4791 40.465 22.9965 43.124 25.9901 43.124C28.1333 43.124 30.0723 41.8627 30.9908 39.9196C31.0929 39.715 31.297 39.5787 31.5351 39.5787C31.5692 39.5787 31.5692 39.5787 31.6032 39.5787C31.6712 39.5787 31.7393 39.5787 31.7733 39.6127C31.9093 39.6468 32.0794 39.6468 32.2155 39.6468C34.3587 39.6468 36.74 37.5332 36.74 34.7379C36.74 34.397 36.706 34.0561 36.6039 33.647C36.5359 33.4083 36.6379 33.1697 36.808 33.0333C37.8966 32.147 38.5089 30.8516 38.5089 29.488C38.5089 28.6357 38.2708 27.8176 37.8286 27.1017L37.6585 26.863L37.4203 27.0676C36.3998 27.9198 35.1071 28.3971 33.8484 28.3971C33.5082 28.3971 33.2361 28.1244 33.2361 27.7835C33.2361 27.4426 33.5082 27.1698 33.8484 27.1698C36.3658 27.1698 38.4749 24.9199 38.4749 22.2609C38.4749 20.6586 37.6585 19.1928 36.2977 18.3405C36.0256 18.17 35.9235 17.7951 36.0936 17.5223C36.5018 16.8064 36.706 16.0224 36.706 15.2383C36.706 12.6134 34.5288 10.3293 32.0794 10.3293C29.5961 10.3293 27.4529 12.6134 27.4529 15.2383C27.4529 15.5792 27.1808 15.8519 26.8406 15.8519C26.5004 15.8519 26.2283 15.5792 26.2283 15.2383C26.2283 11.8975 28.9157 9.10207 32.0794 9.10207C32.3516 9.10207 32.6237 9.13616 32.8959 9.17025L33.2021 9.20434V8.82935C33.2021 6.74985 31.5011 5.04534 29.426 5.04534C28.4054 5.04534 27.4869 5.42033 26.7726 6.13623C26.6705 6.2385 26.5004 6.30668 26.3303 6.30668C26.1602 6.30668 26.0241 6.2385 25.8881 6.13623C25.6499 5.89759 25.6499 5.5226 25.8881 5.24988C26.6365 4.4999 27.589 4.02264 28.6436 3.85219L29.0518 3.78401L28.8137 3.4431C27.8952 2.0795 26.4664 1.26134 25.0376 1.26134C22.5543 1.26134 20.4111 3.54538 20.4111 6.17032V13.4997L20.8193 13.2611C21.2956 12.9883 21.8739 12.8179 22.4522 12.8179C22.7924 12.8179 23.0645 13.0906 23.0645 13.4315C23.0645 13.7724 22.7924 14.0451 22.4522 14.0451C21.3296 14.0451 20.4451 14.9656 20.4451 16.0565V33.4083L20.8874 32.897C22.2141 31.397 24.0511 30.5789 25.9901 30.5789ZM8.19846 39.5446C8.43659 39.5446 8.6407 39.6809 8.74275 39.8855C9.66125 41.8286 11.6003 43.0899 13.7435 43.0899C16.7371 43.0899 19.2545 40.4309 19.2545 37.2946C19.2545 34.2606 16.7711 31.772 13.7435 31.772C13.4033 31.772 13.1311 31.4993 13.1311 31.1584C13.1311 30.8175 13.4033 30.5448 13.7435 30.5448C15.6825 30.5448 17.5195 31.397 18.8122 32.8288L19.2545 33.3402V16.0224C19.2545 14.8974 18.336 14.011 17.2474 14.011C16.9072 14.011 16.635 13.7383 16.635 13.3974C16.635 13.0565 16.9072 12.7838 17.2474 12.7838C17.8257 12.7838 18.37 12.9202 18.8803 13.227L19.2885 13.4656V6.10214C19.2885 3.4772 17.1113 1.19316 14.662 1.19316C13.2332 1.19316 11.8044 2.01132 10.8859 3.37492L10.6478 3.71583L11.056 3.78401C12.1106 3.95446 13.0631 4.43172 13.8115 5.1817C13.9136 5.28397 13.9816 5.45442 13.9816 5.62487C13.9816 5.79532 13.9136 5.93168 13.8115 6.06805C13.7095 6.17032 13.5394 6.2385 13.3693 6.2385C13.1992 6.2385 13.0631 6.17032 12.927 6.06805C12.2126 5.35215 11.2601 4.97716 10.2736 4.97716C8.19846 4.97716 6.49753 6.68167 6.49753 8.76117V9.10207H6.76968C7.04183 9.06798 7.31398 9.03389 7.62014 9.03389C10.7839 9.03389 13.4713 11.8293 13.4713 15.1701C13.4713 15.511 13.1992 15.7837 12.859 15.7837C12.5188 15.7837 12.2467 15.4769 12.2467 15.136C12.2467 12.5111 10.0695 10.227 7.62014 10.227C5.17081 10.227 2.99363 12.5111 2.99363 15.136C2.99363 15.9201 3.19774 16.6701 3.60596 17.4201C3.77605 17.6928 3.674 18.0678 3.40185 18.2382C2.04111 19.0905 1.22467 20.5564 1.22467 22.1586C1.22467 24.8176 3.33381 27.0676 5.85118 27.0676C6.19137 27.0676 6.46351 27.3403 6.46351 27.6812C6.46351 28.0221 6.19137 28.2948 5.85118 28.2948C4.5925 28.2948 3.33381 27.8176 2.27924 26.9653L2.04111 26.7608L1.87102 26.9994C1.42878 27.7153 1.19065 28.5675 1.19065 29.3857C1.19065 30.7493 1.80298 32.0447 2.89157 32.9311C3.06166 33.0674 3.16372 33.3061 3.09568 33.5447C2.7555 34.9765 3.09568 36.5105 4.0482 37.7378C4.93268 38.8628 6.22538 39.5446 7.48407 39.5446C7.62014 39.5446 7.79024 39.5446 7.92631 39.5105C7.99435 39.5105 8.06238 39.5105 8.0964 39.4764C8.16444 39.5446 8.16444 39.5446 8.19846 39.5446Z" fill="#F5D7AC"/>
<path d="M9.35509 24.5109C9.0149 24.5109 8.74276 24.2382 8.74276 23.8973C8.74276 23.5564 9.0149 23.2836 9.35509 23.2836C10.6138 23.2836 11.7364 22.4655 12.1106 21.2723L12.2126 20.9996L11.9065 20.9314C9.04892 20.4541 7.00781 18.0337 7.00781 15.1361C7.00781 14.7952 7.27996 14.5225 7.62015 14.5225C7.96033 14.5225 8.23248 14.7952 8.23248 15.1361C8.23248 16.4315 8.74276 17.6247 9.66125 18.511C10.5457 19.3292 11.7024 19.8064 12.893 19.8064C14.0156 19.8064 15.0702 19.3974 15.9547 18.6133C16.0567 18.511 16.2268 18.4428 16.3629 18.4428C16.533 18.4428 16.7031 18.511 16.8051 18.6474C16.9072 18.7837 16.9752 18.9201 16.9752 19.0905C16.9752 19.261 16.9072 19.3974 16.7711 19.4996C15.8866 20.2837 14.798 20.795 13.6414 20.9314L13.4373 20.9655L13.4033 21.136C13.0291 23.1132 11.3282 24.5109 9.35509 24.5109Z" fill="#F5D7AC"/>
<path d="M12.859 40.8399C12.5188 40.8399 12.2467 40.5672 12.2467 40.2263C12.2467 37.6014 10.0695 35.3173 7.62015 35.3173C7.27996 35.3173 7.00781 35.0446 7.00781 34.7037C7.00781 34.3628 7.27996 34.0901 7.62015 34.0901C10.7839 34.0901 13.4713 36.8855 13.4713 40.2263C13.4713 40.5672 13.1992 40.8399 12.859 40.8399Z" fill="#F5D7AC"/>
<path d="M8.53859 31.8402C8.43653 31.8402 8.33448 31.8062 8.23242 31.7721C7.92626 31.6016 7.8242 31.2266 7.99429 30.9198C9.35503 28.5335 11.8724 27.0676 14.6279 27.0676C14.9681 27.0676 15.2402 27.3403 15.2402 27.6813C15.2402 28.0222 14.9681 28.2949 14.6279 28.2949C12.3487 28.2949 10.2055 29.5221 9.08288 31.5334C8.94681 31.738 8.7427 31.8402 8.53859 31.8402Z" fill="#F5D7AC"/>
<path d="M30.3784 24.5108C28.4054 24.5108 26.7044 23.1131 26.3302 21.17L26.2962 20.9995L26.0921 20.9654C24.9015 20.795 23.8129 20.3177 22.9624 19.5336C22.8263 19.4314 22.7583 19.2609 22.7583 19.1246C22.7583 18.9541 22.7923 18.8178 22.9284 18.6814C23.0304 18.545 23.2005 18.4769 23.3706 18.4769C23.5067 18.4769 23.6768 18.545 23.7789 18.6473C24.6293 19.3973 25.7179 19.8405 26.8745 19.8405C29.4259 19.8405 31.5011 17.761 31.5011 15.2042C31.5011 14.8633 31.7732 14.5906 32.1134 14.5906C32.4536 14.5906 32.7257 14.8633 32.7257 15.2042C32.7257 18.1019 30.6506 20.5223 27.8271 20.9995L27.5209 21.0336L27.6229 21.3063C27.9971 22.4995 29.1198 23.3177 30.3784 23.3177C30.7186 23.3177 30.9908 23.5904 30.9908 23.9313C30.9908 24.2381 30.7186 24.5108 30.3784 24.5108Z" fill="#F5D7AC"/>
<path d="M26.8745 40.8399C26.5344 40.8399 26.2622 40.5672 26.2622 40.2263C26.2622 36.8855 28.9497 34.0901 32.1134 34.0901C32.4536 34.0901 32.7257 34.3628 32.7257 34.7037C32.7257 35.0446 32.4536 35.3173 32.1134 35.3173C29.63 35.3173 27.4869 37.6014 27.4869 40.2263C27.4869 40.5672 27.2147 40.8399 26.8745 40.8399Z" fill="#F5D7AC"/>
<path d="M31.195 31.8402C30.9569 31.8402 30.7528 31.7039 30.6508 31.5334C29.5281 29.5221 27.385 28.2949 25.1057 28.2949C24.7656 28.2949 24.4934 28.0222 24.4934 27.6813C24.4934 27.3403 24.7656 27.0676 25.1057 27.0676C27.8272 27.0676 30.3786 28.5335 31.7393 30.9198C31.9094 31.2266 31.8074 31.6016 31.5012 31.7721C31.4332 31.8062 31.2971 31.8402 31.195 31.8402Z" fill="#F5D7AC"/>
</svg>
