<svg width="46" height="46" viewBox="0 0 46 46" fill="none" xmlns="http://www.w3.org/2000/svg">
<path d="M32.8279 45.5103C32.1475 45.5103 31.4331 45.4422 30.7527 45.2717L30.6507 45.2376L30.5486 45.2717C30.2764 45.4081 29.9703 45.4763 29.6301 45.4763H2.04111C0.9185 45.4763 0 44.5558 0 43.4309V6.64758C0 5.5226 0.9185 4.60217 2.04111 4.60217H5.44296L5.51098 4.43172C5.78313 3.61356 6.56557 3.06811 7.41603 3.06811H11.7024L11.7704 2.89766C12.3827 1.15907 14.0156 0 15.8526 0C17.6896 0 19.3225 1.15907 19.9348 2.89766L20.0029 3.06811H24.2892C25.1397 3.06811 25.9221 3.61356 26.1942 4.43172L26.2623 4.60217H29.6641C30.7867 4.60217 31.7052 5.5226 31.7052 6.64758V19.7382L31.8073 19.8064C32.5897 20.4882 33.202 21.3404 33.5762 22.295C33.6103 22.3972 33.6783 22.5336 33.7123 22.6699L33.9504 23.4199L34.2226 22.704C35.0731 20.5905 36.6379 18.8178 38.645 17.761C38.713 17.7269 38.8151 17.6928 38.8831 17.6928C39.0532 17.6928 39.2233 17.7951 39.3254 17.9314C39.4615 18.17 39.3934 18.4428 39.1553 18.6132C35.7875 20.6245 34.869 23.2495 34.6649 25.0903V25.4653L35.1071 25.329C37.5904 24.4085 38.8151 24.579 38.8151 24.579C42.4891 24.579 45.4827 27.7835 45.4827 31.7379V35.0788C45.4827 40.84 41.0944 45.5444 35.6854 45.5444H32.8279V45.5103ZM29.6981 25.5676C26.5344 25.7381 24.0511 28.4312 24.0511 31.7379V35.0788C24.0511 40.2946 27.9972 44.5558 32.8619 44.5558H35.7194C40.5841 44.5558 44.5302 40.2946 44.5302 35.0788V31.7379C44.5302 28.3289 42.319 25.9085 38.8491 25.5676C38.8491 25.5676 36.9781 25.2949 35.0391 26.0108H33.2361C31.7733 25.1244 29.8002 25.5335 29.6981 25.5676ZM2.10913 5.59078C1.53082 5.59078 1.05457 6.06805 1.05457 6.64758V43.499C1.05457 44.0786 1.53082 44.5558 2.10913 44.5558H28.6096L27.8271 44.0445C27.1808 43.6354 26.5344 43.124 25.9901 42.5445L25.9221 42.4763H4.38837C3.708 42.4763 3.12969 41.8968 3.12969 41.215V8.93162C3.12969 8.24982 3.708 7.67028 4.38837 7.67028H5.44296V5.59078H2.10913ZM4.11623 41.4536H25.1056L24.8335 41.0445C23.6769 39.2719 23.0645 37.1924 23.0645 35.0447V31.7038C23.0305 28.9766 24.5954 26.4199 27.0107 25.1926L27.3849 24.9881L27.0447 24.7154C25.2757 23.2836 25.2077 20.5223 25.4458 19.1246C25.4798 18.92 25.5819 18.4769 27.3509 18.4087H27.623V8.6589H26.2623L26.1942 8.82935C25.9221 9.64751 25.1397 10.193 24.2892 10.193H7.45004C6.59958 10.193 5.81716 9.64751 5.54501 8.82935L5.47697 8.6589H4.11623V41.4536ZM31.3991 24.5449C31.7733 24.5449 32.1475 24.6131 32.4877 24.7494C32.5217 24.7494 32.5557 24.7835 32.5897 24.7835C32.6237 24.8176 32.6578 24.8176 32.6918 24.8176L33.134 25.0222L33.066 24.5449C32.9639 23.8972 32.8279 23.2495 32.6238 22.6359C31.9774 20.7268 30.1744 19.3973 28.1333 19.3973H28.0653C27.589 19.3973 27.0787 19.4314 26.6025 19.4655L26.3983 19.4996L26.3643 19.7041C26.2623 20.6927 26.1942 23.9654 28.9497 24.5108C28.9497 24.5108 28.9837 24.5108 29.0178 24.5449H29.0518H29.0858C29.3239 24.5108 29.494 24.5108 29.6981 24.5108H31.3991V24.5449ZM26.3303 7.67028H27.3849C28.0653 7.67028 28.6436 8.24982 28.6436 8.93162V18.4428L28.8817 18.4769C29.392 18.545 29.8682 18.6814 30.3445 18.8859L30.7187 19.0564V6.64758C30.7187 6.06805 30.2424 5.59078 29.6641 5.59078H26.3303V7.67028ZM7.45004 4.05673C6.87173 4.05673 6.39547 4.53399 6.39547 5.11352V8.18164C6.39547 8.76117 6.87173 9.23843 7.45004 9.23843H24.2892C24.8675 9.23843 25.3438 8.76117 25.3438 8.18164V5.11352C25.3438 4.53399 24.8675 4.05673 24.2892 4.05673C24.2892 4.05673 19.6287 4.05673 19.5946 4.05673C19.4926 4.05673 19.4246 4.02264 19.3905 3.98855C19.3225 3.95446 19.2885 3.92037 19.2545 3.92037L19.2205 3.88628C19.1864 3.85219 19.1524 3.8181 19.1524 3.78401C19.1524 3.78401 19.1184 3.74992 19.1184 3.71583C19.0844 3.68174 19.0844 3.64765 19.0844 3.64765C18.7782 2.11359 17.4175 0.988614 15.8186 0.988614C14.2538 0.988614 12.893 2.11359 12.5528 3.64765L12.5188 3.68174V3.71583C12.5188 3.74992 12.4848 3.78401 12.4848 3.8181C12.4508 3.88628 12.3827 3.95446 12.2807 4.02264C12.2467 4.02264 12.2126 4.05673 12.1786 4.05673C12.1446 4.05673 12.1106 4.05673 12.0766 4.09082H12.0425H12.0085H7.45004V4.05673Z" fill="#F5D7AC"/>
<path d="M7.45009 17.8633C6.76972 17.8633 6.19141 17.2837 6.19141 16.6019V14.2838C6.19141 13.602 6.76972 13.0225 7.45009 13.0225H9.76333C10.4437 13.0225 11.022 13.602 11.022 14.2838V16.6019C11.022 17.2837 10.4437 17.8633 9.76333 17.8633H7.45009ZM7.17795 16.8746H10.0355V14.0111H7.17795V16.8746Z" fill="#F5D7AC"/>
<path d="M7.45009 24.7834C6.76972 24.7834 6.19141 24.2039 6.19141 23.5221V21.204C6.19141 20.5222 6.76972 19.9426 7.45009 19.9426H9.76333C10.4437 19.9426 11.022 20.5222 11.022 21.204V23.5221C11.022 24.2039 10.4437 24.7834 9.76333 24.7834H7.45009ZM7.17795 23.7948H10.0355V20.9312H7.17795V23.7948Z" fill="#F5D7AC"/>
<path d="M7.45009 31.7038C6.76972 31.7038 6.19141 31.1243 6.19141 30.4425V28.1244C6.19141 27.4426 6.76972 26.863 7.45009 26.863H9.76333C10.4437 26.863 11.022 27.4426 11.022 28.1244V30.4425C11.022 31.1243 10.4437 31.7038 9.76333 31.7038H7.45009ZM7.17795 30.7152H10.0355V27.8517H7.17795V30.7152Z" fill="#F5D7AC"/>
<path d="M7.45009 38.5901C6.76972 38.5901 6.19141 38.0105 6.19141 37.3287V35.0106C6.19141 34.3288 6.76972 33.7493 7.45009 33.7493H9.76333C10.4437 33.7493 11.022 34.3288 11.022 35.0106V37.3287C11.022 38.0105 10.4437 38.5901 9.76333 38.5901H7.45009ZM7.17795 37.6014H10.0355V34.7379H7.17795V37.6014Z" fill="#F5D7AC"/>
<path d="M13.5735 16.3293C13.3014 16.3293 13.0632 16.0907 13.0632 15.818C13.0632 15.5453 13.3014 15.3066 13.5735 15.3066H24.2894C24.5615 15.3066 24.7996 15.5453 24.7996 15.818C24.7996 16.0907 24.5615 16.3293 24.2894 16.3293H13.5735Z" fill="#F5D7AC"/>
<path d="M13.5735 23.2495C13.3014 23.2495 13.0632 23.0109 13.0632 22.7382C13.0632 22.4654 13.3014 22.2268 13.5735 22.2268H22.0101C22.2822 22.2268 22.5203 22.4654 22.5203 22.7382C22.5203 23.0109 22.2822 23.2495 22.0101 23.2495H13.5735Z" fill="#F5D7AC"/>
<path d="M13.5735 30.1697C13.3014 30.1697 13.0632 29.931 13.0632 29.6583C13.0632 29.3856 13.3014 29.147 13.5735 29.147H20.4792C20.7514 29.147 20.9895 29.3856 20.9895 29.6583C20.9895 29.931 20.7514 30.1697 20.4792 30.1697H13.5735Z" fill="#F5D7AC"/>
<path d="M13.5735 37.0559C13.3014 37.0559 13.0632 36.8173 13.0632 36.5446C13.0632 36.2718 13.3014 36.0332 13.5735 36.0332H20.4792C20.7514 36.0332 20.9895 36.2718 20.9895 36.5446C20.9895 36.8173 20.7514 37.0559 20.4792 37.0559H13.5735Z" fill="#F5D7AC"/>
</svg>
