<svg width="53" height="37" viewBox="0 0 53 37" fill="none" xmlns="http://www.w3.org/2000/svg">
<path d="M35.3926 36.7833C32.331 36.7492 29.3033 36.2719 26.4118 35.2833L26.3097 35.2492L26.2077 35.2833C23.3161 36.2378 20.2884 36.7492 17.2268 36.7833C11.5117 36.7833 3.89151 34.7379 0.0474211 25.0563C-0.0206159 24.9199 -0.0206242 24.7494 0.0814313 24.579C0.149468 24.4426 0.285555 24.3404 0.455647 24.3063C2.87096 23.829 5.3543 23.5563 7.80363 23.5563C8.07578 23.5563 8.38195 23.5563 8.6541 23.5563H9.16437L8.99428 23.079C7.42943 19.0564 7.08925 14.2156 8.04177 8.69299C8.07579 8.55663 8.14383 8.42027 8.2799 8.318C8.38196 8.24982 8.484 8.21573 8.58606 8.21573C8.62007 8.21573 8.68812 8.21573 8.72214 8.21573C11.9199 9.13616 14.9815 10.5339 17.737 12.4429L18.0772 12.7497L18.2133 12.3406C19.506 8.24982 22.1254 4.159 26.0035 0.170451C26.1056 0.0681803 26.2417 0 26.4118 0C26.5478 0 26.6499 0.0340899 26.7519 0.10227C30.494 3.23856 33.3855 7.29529 35.0865 11.8975L35.2226 12.2725L35.5627 12.0338C38.1481 10.3634 40.9717 9.06798 43.9653 8.24982C43.9993 8.24982 44.0333 8.24982 44.1014 8.24982C44.2034 8.24982 44.3055 8.28391 44.4076 8.35209C44.5436 8.45436 44.6116 8.59072 44.6457 8.72708C45.5982 14.2838 45.292 19.1246 43.6931 23.1131L43.5231 23.5904H44.0333C44.3055 23.5904 44.6116 23.5904 44.8838 23.5904C47.3331 23.5904 49.8165 23.829 52.2318 24.3404C52.3679 24.3745 52.5039 24.4767 52.606 24.6131C52.674 24.7495 52.674 24.9199 52.64 25.0903C48.7279 34.7379 41.1078 36.7833 35.3926 36.7833ZM15.6619 35.6583H15.9681C16.3423 35.6583 16.6825 35.6924 17.0567 35.6924C19.8462 35.6924 22.5677 35.2833 25.2211 34.4311L25.5613 34.3288L25.4252 33.9879C22.0574 26.3176 14.029 24.6813 7.87168 24.6813C5.1502 24.6813 2.87096 24.9881 1.74835 25.1926L1.34012 25.2608L1.51021 25.6358C4.29973 31.8402 9.06233 35.181 15.6619 35.6583ZM44.7477 24.6813C38.5904 24.6813 30.562 26.2835 27.1942 33.9879L27.0581 34.3288L27.3983 34.4311C30.0517 35.2492 32.8072 35.6924 35.5627 35.6924C35.8009 35.6924 36.039 35.6924 36.3111 35.6924H36.6513C43.421 35.3174 48.3197 31.9425 51.1432 25.704L51.3133 25.329L50.9051 25.2608C49.5103 24.954 47.3331 24.6813 44.7477 24.6813ZM43.2509 9.64751C40.3934 10.5679 37.6719 11.9316 35.1885 13.6361C30.7661 16.7724 27.9766 20.6586 26.888 25.2949V25.3631V25.4313C27.2282 26.9994 27.3643 28.6357 27.3303 30.238L27.2962 31.2607L27.9086 30.4425C29.1332 28.8062 30.6641 27.4426 32.433 26.4199L32.467 26.3858L32.5011 26.3517C32.5691 26.2835 32.6712 26.2153 32.7732 26.2153H32.8072L32.8413 26.1812C35.6988 24.6813 38.7945 23.829 42.0263 23.6245H42.2304L42.2984 23.454C43.9653 19.7382 44.4416 15.1701 43.6591 9.88614L43.5911 9.51115L43.2509 9.64751ZM8.92624 9.95432C8.17783 15.2383 8.62007 19.7723 10.287 23.4881L10.355 23.6586H10.5591C16.9546 24.1699 21.7172 26.454 24.6768 30.4425L25.2891 31.2607L25.2551 30.238C25.2211 28.6357 25.3572 26.9994 25.6974 25.4313V25.3631L25.6633 25.2949C24.5407 20.7609 21.8193 16.8064 17.9752 14.1133C15.3217 12.1702 12.3961 10.6702 9.30046 9.64751L8.85822 9.51115V9.95432H8.92624ZM26.2077 1.53406C22.5677 5.38624 20.1864 9.3407 19.0978 13.2611L19.0297 13.4656L19.1998 13.602C22.2275 15.886 24.5748 18.9541 26.0035 22.4995L26.3097 23.2495L26.6159 22.4995C28.1467 18.7155 30.7321 15.4769 34.0319 13.1247L34.236 12.9883L34.168 12.7497C32.467 7.12484 28.3508 2.99993 26.6499 1.49997L26.4118 1.29543L26.2077 1.53406Z" fill="#F5D7AC"/>
<path d="M12.3621 19.5337C11.3415 17.727 10.7632 15.6815 10.6611 13.6021H11.7837C11.8858 15.4429 12.3961 17.2838 13.2806 18.9201L12.3621 19.5337Z" fill="#F5D7AC"/>
<path d="M39.3389 18.9201C40.2234 17.2838 40.7677 15.477 40.8357 13.6021H41.9583C41.8563 15.6815 41.2779 17.727 40.2574 19.5337L39.3389 18.9201Z" fill="#F5D7AC"/>
<path d="M26.6158 7.49992C26.1396 7.49992 25.7654 7.12493 25.7654 6.64766C25.7654 6.1704 26.1396 5.79541 26.6158 5.79541C27.0921 5.79541 27.4663 6.1704 27.4663 6.64766C27.4663 7.12493 27.0921 7.49992 26.6158 7.49992Z" fill="#F5D7AC"/>
<path d="M26.6158 10.4657C26.1396 10.4657 25.7654 10.0907 25.7654 9.61348C25.7654 9.13622 26.1396 8.76123 26.6158 8.76123C27.0921 8.76123 27.4663 9.13622 27.4663 9.61348C27.4663 10.0907 27.0921 10.4657 26.6158 10.4657Z" fill="#F5D7AC"/>
<path d="M26.6158 13.6362C26.1396 13.6362 25.7654 13.2612 25.7654 12.7839C25.7654 12.3066 26.1396 11.9316 26.6158 11.9316C27.0921 11.9316 27.4663 12.3066 27.4663 12.7839C27.4663 13.2612 27.0921 13.6362 26.6158 13.6362Z" fill="#F5D7AC"/>
</svg>
