<svg width="45" height="36" viewBox="0 0 45 36" fill="none" xmlns="http://www.w3.org/2000/svg">
<path d="M0.612334 35.931C0.272149 35.931 0 35.6583 0 35.3174V0.613623C0 0.272722 0.272149 0 0.612334 0H44.054C44.3941 0 44.6663 0.272722 44.6663 0.613623V35.3174C44.6663 35.6583 44.3941 35.931 44.054 35.931H0.612334ZM1.22467 34.6697H43.4076V28.9084H1.22467V34.6697ZM1.22467 27.6471H43.4076V1.22725H1.22467V27.6471Z" fill="#F5D7AC"/>
<path d="M17.1454 21.8177C16.431 21.8177 15.6826 21.2381 15.6826 20.3859V8.48843C15.6826 7.63617 16.431 7.05664 17.1454 7.05664C17.3835 7.05664 17.6217 7.12482 17.8258 7.22709L28.1334 13.1929C28.5756 13.4315 28.8478 13.9088 28.8478 14.4542C28.8478 14.9996 28.5756 15.4428 28.1334 15.7155L17.8598 21.6472C17.6217 21.7495 17.4176 21.8177 17.1454 21.8177ZM17.1114 8.31798C17.0434 8.31798 16.9753 8.35207 16.9413 8.48843V20.3859C16.9753 20.5563 17.0434 20.5904 17.1114 20.5904C17.1454 20.5904 17.1794 20.5904 17.2134 20.5563L27.487 14.6247C27.5551 14.5565 27.5891 14.5224 27.5891 14.4542C27.5891 14.386 27.5551 14.3519 27.487 14.2838L17.2134 8.35207C17.1794 8.31798 17.1454 8.31798 17.1114 8.31798Z" fill="#F5D7AC"/>
<path d="M8.57261 33.6471C7.79019 33.6471 7.10982 33.1698 6.83767 32.4539V32.4198H5.13675C4.72853 32.4198 4.52441 32.0789 4.52441 31.8062C4.52441 31.4994 4.72853 31.1926 5.13675 31.1926H6.83767V31.1585C7.10982 30.4426 7.79019 29.9653 8.57261 29.9653C9.35504 29.9653 10.0354 30.4426 10.3076 31.1585V31.1926H39.5634C39.9717 31.1926 40.1758 31.5335 40.1758 31.8062C40.1758 32.113 39.9717 32.4198 39.5634 32.4198H10.3076V32.4539C10.0354 33.1698 9.32102 33.6471 8.57261 33.6471ZM8.57261 31.1926C8.23243 31.1926 7.96028 31.4653 7.96028 31.8062C7.96028 32.1471 8.23243 32.4198 8.57261 32.4198C8.9128 32.4198 9.18495 32.1471 9.18495 31.8062C9.15093 31.4653 8.87878 31.1926 8.57261 31.1926Z" fill="#F5D7AC"/>
</svg>
