<svg width="54" height="57" viewBox="0 0 54 57" fill="none" xmlns="http://www.w3.org/2000/svg">
<path d="M25.8833 56.4153C13.3839 56.4153 3.2146 46.2451 3.2146 33.7446C3.2146 23.6471 11.4288 15.4321 21.5254 15.4321C29.6997 15.4321 36.3502 22.0833 36.3502 30.2584C36.3502 36.8955 30.9515 42.2947 24.315 42.2947C18.9092 42.2947 14.5103 37.8966 14.5103 32.4891C14.5103 28.0663 18.1075 24.4688 22.5299 24.4688C26.1646 24.4688 29.1207 27.4263 29.1207 31.0602C29.1207 34.0646 26.6768 36.5098 23.6715 36.5098C21.1714 36.5098 19.1366 34.4749 19.1366 31.9745C19.1366 29.8774 20.8432 28.1706 22.9401 28.1706C24.7147 28.1706 26.1587 29.6148 26.1587 31.3896C26.1587 31.8749 25.7649 32.2687 25.2796 32.2687C24.7944 32.2687 24.4006 31.8749 24.4006 31.3896C24.4006 30.5843 23.7453 29.929 22.9401 29.929C21.8125 29.929 20.8948 30.8468 20.8948 31.9745C20.8948 33.5054 22.1407 34.7515 23.6715 34.7515C25.7063 34.7515 27.3625 33.0963 27.3625 31.0602C27.3625 28.3945 25.1941 26.2271 22.5299 26.2271C19.078 26.2271 16.2684 29.0357 16.2684 32.4891C16.2684 36.926 19.8774 40.5364 24.315 40.5364C29.9822 40.5364 34.5921 35.9261 34.5921 30.2584C34.5921 23.0527 28.7303 17.1905 21.5254 17.1905C12.3981 17.1905 4.97277 24.6165 4.97277 33.7446C4.97277 45.2757 14.3532 54.657 25.8833 54.657C32.9242 54.657 39.5431 51.9151 44.521 46.9356C49.499 41.9571 52.2418 35.3364 52.2418 28.2961C52.2418 27.8108 52.6356 27.4169 53.1208 27.4169C53.6061 27.4169 53.9999 27.8108 53.9999 28.2961C53.9999 35.8065 51.0755 42.8679 45.7647 48.1793C40.4538 53.4906 33.393 56.4153 25.8833 56.4153Z" fill="#706F98"/>
<path d="M52.0755 21.8276C51.6945 21.8276 51.3441 21.578 51.2315 21.1946C51.0311 20.5077 50.7978 19.8196 50.5388 19.1515C50.363 18.699 50.588 18.1891 51.0405 18.0144C51.4929 17.8386 52.0028 18.0636 52.1774 18.5161C52.454 19.2312 52.7037 19.9662 52.9182 20.7023C53.0542 21.1688 52.7869 21.6565 52.3204 21.7925C52.2395 21.8171 52.1575 21.8276 52.0755 21.8276Z" fill="#706F98"/>
<path d="M48.1441 13.8122C47.8722 13.8122 47.6038 13.6868 47.4315 13.4488C46.0953 11.6073 44.5176 9.95329 42.7407 8.53021C42.3621 8.22661 42.3 7.67332 42.6036 7.29469C42.9071 6.91607 43.4604 6.85394 43.839 7.15754C45.7378 8.67791 47.4256 10.448 48.8533 12.4161C49.1381 12.8088 49.0514 13.3586 48.6575 13.6446C48.504 13.7583 48.3223 13.8122 48.1441 13.8122Z" fill="#706F98"/>
<path d="M38.6525 5.75095C38.5201 5.75095 38.3853 5.72047 38.2599 5.65717C37.7793 5.41687 37.2858 5.18829 36.7924 4.97963C36.3458 4.7909 36.136 4.27395 36.3259 3.82734C36.5146 3.38072 37.0303 3.17089 37.4781 3.36079C38.0055 3.58469 38.5341 3.82851 39.0475 4.08523C39.4812 4.30326 39.657 4.83076 39.439 5.26565C39.2855 5.57395 38.9749 5.75095 38.6525 5.75095Z" fill="#706F98"/>
<path d="M29.0306 3.07232C29.0071 3.07232 28.9837 3.07115 28.9603 3.06998C28.2922 3.01723 27.6112 2.99026 26.9372 2.99026C26.4519 2.99026 26.0581 2.5964 26.0581 2.1111C26.0581 1.6258 26.4519 1.23193 26.9372 1.23193C27.6569 1.23193 28.3848 1.26007 29.0986 1.31751C29.5827 1.35619 29.9437 1.77936 29.9062 2.26349C29.8698 2.723 29.4854 3.07232 29.0306 3.07232Z" fill="#706F98"/>
<path d="M44.1447 37.7045C42.5589 37.7045 41.2695 36.4139 41.2695 34.8291C41.2695 33.2442 42.56 31.9536 44.1447 31.9536C45.7306 31.9536 47.0199 33.2442 47.0199 34.8291C47.0199 36.4139 45.7306 37.7045 44.1447 37.7045ZM44.1447 33.7119C43.5282 33.7119 43.0277 34.2137 43.0277 34.8291C43.0277 35.4457 43.5294 35.9462 44.1447 35.9462C44.7613 35.9462 45.2617 35.4445 45.2617 34.8291C45.2629 34.2125 44.7613 33.7119 44.1447 33.7119Z" fill="#706F98"/>
<path d="M30.6035 52.4699C29.0176 52.4699 27.7283 51.1793 27.7283 49.5944C27.7283 48.0084 29.0188 46.719 30.6035 46.719C32.1893 46.719 33.4787 48.0096 33.4787 49.5944C33.4787 51.1805 32.1893 52.4699 30.6035 52.4699ZM30.6035 48.4773C29.9869 48.4773 29.4864 48.979 29.4864 49.5944C29.4864 50.211 29.9881 50.7116 30.6035 50.7116C31.22 50.7116 31.7205 50.2099 31.7205 49.5944C31.7205 48.9779 31.22 48.4773 30.6035 48.4773Z" fill="#706F98"/>
<path d="M38.1552 15.2612C36.5694 15.2612 35.28 13.9706 35.28 12.3857C35.28 10.7997 36.5705 9.51025 38.1552 9.51025C39.7411 9.51025 41.0304 10.8009 41.0304 12.3857C41.0316 13.9717 39.7411 15.2612 38.1552 15.2612ZM38.1552 11.2686C37.5387 11.2686 37.0382 11.7703 37.0382 12.3857C37.0382 13.0023 37.5399 13.5028 38.1552 13.5028C38.7718 13.5028 39.2723 13.0011 39.2723 12.3857C39.2734 11.7691 38.7718 11.2686 38.1552 11.2686Z" fill="#706F98"/>
<path d="M17.8461 5.75091C16.2603 5.75091 14.9709 4.46147 14.9709 2.87546C14.9709 1.28944 16.2603 0 17.8461 0C19.432 0 20.7213 1.29061 20.7213 2.87546C20.7225 4.46147 19.432 5.75091 17.8461 5.75091ZM17.8461 1.75833C17.2296 1.75833 16.7291 2.26004 16.7291 2.87546C16.7291 3.49204 17.2308 3.99258 17.8461 3.99258C18.4627 3.99258 18.9632 3.49087 18.9632 2.87546C18.9643 2.25887 18.4627 1.75833 17.8461 1.75833Z" fill="#706F98"/>
<path d="M15.85 12.1674C14.611 12.1674 13.603 11.1593 13.603 9.92024C13.603 8.68121 14.611 7.6731 15.85 7.6731C17.0889 7.6731 18.0969 8.68121 18.0969 9.92024C18.0969 11.1605 17.0889 12.1674 15.85 12.1674ZM15.85 9.4326C15.5804 9.4326 15.3612 9.6518 15.3612 9.92142C15.3612 10.191 15.5804 10.4102 15.85 10.4102C16.1196 10.4102 16.3387 10.191 16.3387 9.92142C16.3387 9.6518 16.1196 9.4326 15.85 9.4326Z" fill="#706F98"/>
<path d="M41.5192 28.5634C40.2802 28.5634 39.2722 27.5553 39.2722 26.3162C39.2722 25.0772 40.2802 24.0691 41.5192 24.0691C42.7581 24.0691 43.7661 25.0772 43.7661 26.3162C43.7661 27.5553 42.7581 28.5634 41.5192 28.5634ZM41.5192 25.8274C41.2496 25.8274 41.0304 26.0466 41.0304 26.3162C41.0304 26.5858 41.2496 26.8051 41.5192 26.8051C41.7887 26.8051 42.0079 26.5858 42.0079 26.3162C42.0079 26.0466 41.7887 25.8274 41.5192 25.8274Z" fill="#706F98"/>
<path d="M17.1075 48.2345C15.8686 48.2345 14.8606 47.2264 14.8606 45.9874C14.8606 44.7483 15.8686 43.7402 17.1075 43.7402C18.3465 43.7402 19.3545 44.7483 19.3545 45.9874C19.3533 47.2276 18.3453 48.2345 17.1075 48.2345ZM17.1075 45.4997C16.838 45.4997 16.6188 45.7189 16.6188 45.9886C16.6188 46.2582 16.838 46.4774 17.1075 46.4774C17.3771 46.4774 17.5963 46.2582 17.5963 45.9886C17.5951 45.7189 17.376 45.4997 17.1075 45.4997Z" fill="#706F98"/>
<path d="M22.4279 51.5917C23.1834 51.5917 23.7958 50.9792 23.7958 50.2237C23.7958 49.4682 23.1834 48.8557 22.4279 48.8557C21.6725 48.8557 21.0601 49.4682 21.0601 50.2237C21.0601 50.9792 21.6725 51.5917 22.4279 51.5917Z" fill="#706F98"/>
<path d="M13.5849 41.7449C13.9414 41.0787 13.6904 40.2497 13.0244 39.8932C12.3583 39.5366 11.5293 39.7876 11.1728 40.4538C10.8163 41.1199 11.0673 41.9489 11.7334 42.3055C12.3995 42.662 13.2284 42.411 13.5849 41.7449Z" fill="#706F98"/>
<path d="M35.7316 43.2901C35.9052 42.5548 35.4499 41.818 34.7147 41.6444C33.9795 41.4708 33.2428 41.9261 33.0692 42.6614C32.8956 43.3966 33.3509 44.1334 34.0861 44.307C34.8213 44.4807 35.558 44.0254 35.7316 43.2901Z" fill="#706F98"/>
<path d="M42.9648 43.2541C43.1224 42.675 42.7808 42.0778 42.2018 41.9201C41.6228 41.7625 41.0256 42.1041 40.868 42.6832C40.7103 43.2623 41.0519 43.8595 41.6309 44.0172C42.2099 44.1748 42.8071 43.8332 42.9648 43.2541Z" fill="#706F98"/>
<path d="M39.6522 39.6477C40.2066 39.418 40.4699 38.7824 40.2402 38.2279C40.0106 37.6734 39.3749 37.4101 38.8205 37.6398C38.2661 37.8695 38.0028 38.5051 38.2325 39.0596C38.4621 39.6141 39.0977 39.8774 39.6522 39.6477Z" fill="#706F98"/>
<path d="M27.3628 45.1545C27.5007 44.5705 27.1391 43.9852 26.5551 43.8473C25.9711 43.7094 25.3859 44.0711 25.248 44.6551C25.1101 45.2392 25.4717 45.8244 26.0557 45.9624C26.6397 46.1003 27.2249 45.7386 27.3628 45.1545Z" fill="#706F98"/>
<path d="M50.009 28.8624C50.4333 28.438 50.4333 27.75 50.009 27.3256C49.5847 26.9013 48.8967 26.9013 48.4724 27.3256C48.0481 27.75 48.0481 28.438 48.4724 28.8624C48.8967 29.2867 49.5847 29.2867 50.009 28.8624Z" fill="#706F98"/>
<path d="M48.8365 20.3825C48.9738 19.7983 48.6116 19.2133 48.0274 19.076C47.4432 18.9387 46.8583 19.301 46.721 19.8853C46.5837 20.4695 46.946 21.0544 47.5302 21.1917C48.1144 21.3291 48.6992 20.9667 48.8365 20.3825Z" fill="#706F98"/>
<path d="M43.3735 17.8773C43.7978 17.4529 43.7978 16.7649 43.3735 16.3405C42.9492 15.9162 42.2612 15.9162 41.8369 16.3405C41.4126 16.7649 41.4126 17.4529 41.8369 17.8773C42.2612 18.3016 42.9492 18.3016 43.3735 17.8773Z" fill="#706F98"/>
<path d="M31.1735 14.2765C31.3153 13.6933 30.9576 13.1056 30.3745 12.9638C29.7914 12.822 29.2037 13.1798 29.0619 13.763C28.9201 14.3461 29.2779 14.9338 29.861 15.0756C30.4441 15.2174 31.0317 14.8597 31.1735 14.2765Z" fill="#706F98"/>
<path d="M32.609 7.74995C32.7463 7.16571 32.384 6.58078 31.7998 6.44347C31.2156 6.30616 30.6308 6.66846 30.4935 7.2527C30.3562 7.83693 30.7184 8.42186 31.3026 8.55917C31.8868 8.69648 32.4717 8.33418 32.609 7.74995Z" fill="#706F98"/>
<path d="M25.2787 8.37055C25.416 7.78632 25.0537 7.20139 24.4695 7.06407C23.8853 6.92676 23.3005 7.28907 23.1632 7.8733C23.0259 8.45754 23.3881 9.04247 23.9723 9.17978C24.5565 9.31709 25.1414 8.95479 25.2787 8.37055Z" fill="#706F98"/>
<path d="M11.0282 5.12031C11.1655 4.53607 10.8032 3.95114 10.219 3.81383C9.63484 3.67652 9.04996 4.03882 8.91266 4.62306C8.77537 5.20729 9.13764 5.79222 9.72182 5.92953C10.306 6.06685 10.8909 5.70454 11.0282 5.12031Z" fill="#706F98"/>
<path d="M9.58113 12.968C9.59997 12.3681 9.12903 11.8666 8.52924 11.8477C7.92946 11.8289 7.42796 12.2999 7.40912 12.8997C7.39027 13.4996 7.86122 14.0011 8.46101 14.02C9.06079 14.0388 9.56229 13.5678 9.58113 12.968Z" fill="#706F98"/>
<path d="M3.89976 10.1733C4.0382 9.58938 3.6771 9.00377 3.09321 8.86532C2.50933 8.72687 1.92377 9.088 1.78533 9.67194C1.6469 10.2559 2.008 10.8415 2.59188 10.9799C3.17576 11.1184 3.76132 10.7573 3.89976 10.1733Z" fill="#706F98"/>
<path d="M2.36412 17.1474C2.50141 16.5632 2.13914 15.9782 1.55496 15.8409C0.970779 15.7036 0.385902 16.0659 0.248603 16.6502C0.111303 17.2344 0.473574 17.8193 1.05776 17.9566C1.64194 18.0939 2.22682 17.7316 2.36412 17.1474Z" fill="#706F98"/>
<path d="M3.12341 5.24576C1.88448 5.24576 0.876465 4.23765 0.876465 2.99861C0.876465 1.75957 1.88448 0.751465 3.12341 0.751465C4.36233 0.751465 5.37035 1.75957 5.37035 2.99861C5.37035 4.23765 4.36233 5.24576 3.12341 5.24576ZM3.12341 2.51097C2.85382 2.51097 2.63464 2.73017 2.63464 2.99978C2.63464 3.26939 2.85382 3.4886 3.12341 3.4886C3.39299 3.4886 3.61218 3.26939 3.61218 2.99978C3.61218 2.729 3.39299 2.51097 3.12341 2.51097Z" fill="#706F98"/>
</svg>
