<svg width="88" height="26" viewBox="0 0 88 26" fill="none" xmlns="http://www.w3.org/2000/svg">
<rect y="13" width="35" height="2" fill="#A50034"/>
<path d="M61.1238 13.5775C61.1238 14.5225 61.0213 15.345 60.8163 16.045C60.6163 16.74 60.3363 17.315 59.9763 17.77C59.6213 18.225 59.1988 18.565 58.7088 18.79C58.2238 19.01 57.6988 19.12 57.1338 19.12C56.5688 19.12 56.0438 19.01 55.5588 18.79C55.0788 18.565 54.6613 18.225 54.3063 17.77C53.9513 17.315 53.6738 16.74 53.4738 16.045C53.2738 15.345 53.1738 14.5225 53.1738 13.5775C53.1738 12.6275 53.2738 11.805 53.4738 11.11C53.6738 10.415 53.9513 9.84 54.3063 9.385C54.6613 8.93 55.0788 8.5925 55.5588 8.3725C56.0438 8.1475 56.5688 8.035 57.1338 8.035C57.6988 8.035 58.2238 8.1475 58.7088 8.3725C59.1988 8.5925 59.6213 8.93 59.9763 9.385C60.3363 9.84 60.6163 10.415 60.8163 11.11C61.0213 11.805 61.1238 12.6275 61.1238 13.5775ZM59.2113 13.5775C59.2113 12.7925 59.1538 12.1425 59.0388 11.6275C58.9238 11.1125 58.7688 10.7025 58.5738 10.3975C58.3838 10.0925 58.1638 9.88 57.9138 9.76C57.6638 9.635 57.4038 9.5725 57.1338 9.5725C56.8688 9.5725 56.6113 9.635 56.3613 9.76C56.1163 9.88 55.8988 10.0925 55.7088 10.3975C55.5188 10.7025 55.3663 11.1125 55.2513 11.6275C55.1413 12.1425 55.0863 12.7925 55.0863 13.5775C55.0863 14.3625 55.1413 15.0125 55.2513 15.5275C55.3663 16.0425 55.5188 16.4525 55.7088 16.7575C55.8988 17.0625 56.1163 17.2775 56.3613 17.4025C56.6113 17.5225 56.8688 17.5825 57.1338 17.5825C57.4038 17.5825 57.6638 17.5225 57.9138 17.4025C58.1638 17.2775 58.3838 17.0625 58.5738 16.7575C58.7688 16.4525 58.9238 16.0425 59.0388 15.5275C59.1538 15.0125 59.2113 14.3625 59.2113 13.5775ZM64.545 12.0925C64.785 12.0425 65.015 12.0075 65.235 11.9875C65.455 11.9625 65.6675 11.95 65.8725 11.95C66.4425 11.95 66.945 12.035 67.38 12.205C67.815 12.375 68.18 12.61 68.475 12.91C68.77 13.21 68.9925 13.5625 69.1425 13.9675C69.2925 14.3675 69.3675 14.8 69.3675 15.265C69.3675 15.84 69.265 16.365 69.06 16.84C68.86 17.315 68.58 17.7225 68.22 18.0625C67.86 18.3975 67.4325 18.6575 66.9375 18.8425C66.4475 19.0275 65.9125 19.12 65.3325 19.12C64.9925 19.12 64.67 19.085 64.365 19.015C64.06 18.945 63.7725 18.8525 63.5025 18.7375C63.2375 18.6175 62.99 18.4825 62.76 18.3325C62.535 18.1775 62.3325 18.015 62.1525 17.845L62.7225 17.0575C62.8425 16.8875 63 16.8025 63.195 16.8025C63.32 16.8025 63.4475 16.8425 63.5775 16.9225C63.7075 17.0025 63.855 17.09 64.02 17.185C64.19 17.28 64.3875 17.3675 64.6125 17.4475C64.8425 17.5275 65.1175 17.5675 65.4375 17.5675C65.7775 17.5675 66.0775 17.5125 66.3375 17.4025C66.5975 17.2925 66.8125 17.14 66.9825 16.945C67.1575 16.745 67.2875 16.51 67.3725 16.24C67.4625 15.965 67.5075 15.6675 67.5075 15.3475C67.5075 14.7575 67.335 14.2975 66.99 13.9675C66.65 13.6325 66.145 13.465 65.475 13.465C64.96 13.465 64.4325 13.56 63.8925 13.75L62.7375 13.42L63.6375 8.155H68.9925V8.9425C68.9925 9.2075 68.91 9.4225 68.745 9.5875C68.58 9.7525 68.3 9.835 67.905 9.835H64.9275L64.545 12.0925Z" fill="white"/>
</svg>
