<svg width="37" height="47" viewBox="0 0 37 47" fill="none" xmlns="http://www.w3.org/2000/svg">
<path d="M33.7948 46.6789H3.0547C1.3701 46.6789 0 45.3086 0 43.6239V3.05498C0 1.37022 1.3701 0 3.0547 0H33.7957C35.4803 0 36.8504 1.37022 36.8504 3.05498V43.6239C36.8504 45.3086 35.4794 46.6789 33.7948 46.6789ZM3.0547 1.4126C2.14884 1.4126 1.41247 2.14997 1.41247 3.05498V43.6239C1.41247 44.5298 2.14978 45.2663 3.0547 45.2663H33.7957C34.7016 45.2663 35.4379 44.5289 35.4379 43.6239V3.05498C35.4379 2.14903 34.7006 1.4126 33.7957 1.4126H3.0547Z" fill="#706F98"/>
<path d="M18.4243 37.8945C11.6529 37.8945 6.14429 32.3854 6.14429 25.6134C6.14429 18.8414 11.6529 13.3323 18.4243 13.3323C25.1957 13.3323 30.7043 18.8414 30.7043 25.6134C30.7053 32.3854 25.1957 37.8945 18.4243 37.8945ZM18.4243 14.7449C12.4317 14.7449 7.55676 19.6202 7.55676 25.6134C7.55676 31.6066 12.4317 36.4819 18.4243 36.4819C24.417 36.4819 29.2919 31.6066 29.2919 25.6134C29.2928 19.6202 24.417 14.7449 18.4243 14.7449Z" fill="#706F98"/>
<path d="M33.1413 7.57715H3.70819C3.31835 7.57715 3.00195 7.26073 3.00195 6.87085C3.00195 6.48097 3.31835 6.16455 3.70819 6.16455H33.1413C33.5311 6.16455 33.8475 6.48097 33.8475 6.87085C33.8475 7.26073 33.5311 7.57715 33.1413 7.57715Z" fill="#706F98"/>
<path d="M5.58207 4.64818H3.70819C3.31835 4.64818 3.00195 4.33176 3.00195 3.94189C3.00195 3.55201 3.31835 3.2356 3.70819 3.2356H5.58207C5.97191 3.2356 6.2883 3.55201 6.2883 3.94189C6.2883 4.33176 5.97285 4.64818 5.58207 4.64818Z" fill="#706F98"/>
<path d="M10.1453 4.64818H8.27142C7.88158 4.64818 7.56519 4.33176 7.56519 3.94189C7.56519 3.55201 7.88158 3.2356 8.27142 3.2356H10.1453C10.5352 3.2356 10.8515 3.55201 10.8515 3.94189C10.8515 4.33176 10.5361 4.64818 10.1453 4.64818Z" fill="#706F98"/>
<path d="M32.7118 4.10062C32.7999 3.72862 32.5698 3.35563 32.1979 3.26751C31.8259 3.1794 31.453 3.40953 31.3649 3.78152C31.2767 4.15352 31.5069 4.52651 31.8788 4.61463C32.2508 4.70274 32.6237 4.47261 32.7118 4.10062Z" fill="#706F98"/>
<path d="M29.9848 4.10062C30.0729 3.72863 29.8428 3.35564 29.4708 3.26752C29.0989 3.17941 28.7259 3.40953 28.6378 3.78153C28.5497 4.15352 28.7798 4.52651 29.1518 4.61462C29.5237 4.70274 29.8967 4.47261 29.9848 4.10062Z" fill="#706F98"/>
<path d="M27.257 4.06936C27.3308 3.69427 27.0866 3.33035 26.7115 3.25653C26.3365 3.18271 25.9726 3.42695 25.8988 3.80204C25.825 4.17713 26.0692 4.54104 26.4442 4.61486C26.8193 4.68868 27.1832 4.44445 27.257 4.06936Z" fill="#706F98"/>
<path d="M12.4306 31.4758C12.0408 31.4758 11.7244 31.1594 11.7244 30.7695C11.7244 29.598 12.4014 28.9802 12.8958 28.5291C13.3628 28.1025 13.6077 27.8558 13.6077 27.3322C13.6077 26.8086 13.3638 26.5618 12.8958 26.1352C12.4014 25.6841 11.7244 25.0654 11.7244 23.8948C11.7244 22.7243 12.4014 22.1055 12.8958 21.6545C13.3628 21.2279 13.6077 20.9811 13.6077 20.4575C13.6077 20.0676 13.9241 19.7512 14.3139 19.7512C14.7037 19.7512 15.0201 20.0676 15.0201 20.4575C15.0201 21.6281 14.3431 22.2468 13.8487 22.6979C13.3817 23.1245 13.1368 23.3712 13.1368 23.8948C13.1368 24.4184 13.3807 24.6652 13.8487 25.0918C14.3431 25.5429 15.0201 26.1616 15.0201 27.3322C15.0201 28.5027 14.3431 29.1215 13.8487 29.5725C13.3817 29.9991 13.1368 30.2459 13.1368 30.7695C13.1368 31.1594 12.8204 31.4758 12.4306 31.4758Z" fill="#706F98"/>
<path d="M17.4826 31.4755C17.0928 31.4755 16.7764 31.1591 16.7764 30.7692C16.7764 29.5977 17.4534 28.9799 17.9478 28.5289C18.4148 28.1023 18.6597 27.8555 18.6597 27.3319C18.6597 26.8083 18.4158 26.5616 17.9478 26.135C17.4534 25.6839 16.7764 25.0652 16.7764 23.8946C16.7764 22.724 17.4534 22.1053 17.9478 21.6542C18.4148 21.2276 18.6597 20.9809 18.6597 20.4573C18.6597 20.0674 18.9761 19.751 19.3659 19.751C19.7557 19.751 20.0721 20.0674 20.0721 20.4573C20.0721 21.6278 19.3951 22.2466 18.9007 22.6977C18.4337 23.1243 18.1888 23.371 18.1888 23.8946C18.1888 24.4182 18.4327 24.6649 18.9007 25.0915C19.3951 25.5426 20.0721 26.1613 20.0721 27.3319C20.0721 28.5025 19.3951 29.1212 18.9007 29.5723C18.4337 29.9989 18.1888 30.2456 18.1888 30.7692C18.1888 31.1591 17.8734 31.4755 17.4826 31.4755Z" fill="#706F98"/>
<path d="M22.5356 31.4755C22.1457 31.4755 21.8293 31.1591 21.8293 30.7692C21.8293 29.5977 22.5064 28.9799 23.0008 28.5289C23.4678 28.1023 23.7126 27.8555 23.7126 27.3319C23.7126 26.8083 23.4688 26.5616 23.0008 26.135C22.5064 25.6839 21.8293 25.0652 21.8293 23.8946C21.8293 22.724 22.5064 22.1053 23.0008 21.6542C23.4678 21.2276 23.7126 20.9809 23.7126 20.4573C23.7126 20.0674 24.029 19.751 24.4189 19.751C24.8087 19.751 25.1251 20.0674 25.1251 20.4573C25.1251 21.6278 24.4481 22.2466 23.9537 22.6977C23.4867 23.1243 23.2418 23.371 23.2418 23.8946C23.2418 24.4182 23.4857 24.6649 23.9537 25.0915C24.4481 25.5426 25.1251 26.1613 25.1251 27.3319C25.1251 28.5025 24.4481 29.1212 23.9537 29.5723C23.4867 29.9989 23.2418 30.2456 23.2418 30.7692C23.2418 31.1591 22.9254 31.4755 22.5356 31.4755Z" fill="#706F98"/>
</svg>
