<svg width="23" height="30" viewBox="0 0 23 30" fill="none" xmlns="http://www.w3.org/2000/svg">
<path d="M14.9961 8.45312C14.9961 7.55469 14.6445 6.83203 13.9414 6.28516C13.2513 5.73828 12.3138 5.46484 11.1289 5.46484C10.0221 5.46484 9.13021 5.73177 8.45312 6.26562C7.78906 6.78646 7.45703 7.47656 7.45703 8.33594H0.621094C0.621094 6.77344 1.0638 5.3737 1.94922 4.13672C2.84766 2.89974 4.11068 1.9362 5.73828 1.24609C7.36589 0.542969 9.16276 0.191406 11.1289 0.191406C14.5143 0.191406 17.1445 0.901042 19.0195 2.32031C20.9076 3.73958 21.8516 5.72526 21.8516 8.27734C21.8516 9.57943 21.4674 10.7708 20.6992 11.8516C19.944 12.9193 18.8958 13.7656 17.5547 14.3906C19.0911 14.9375 20.263 15.7708 21.0703 16.8906C21.8906 17.9974 22.3008 19.3776 22.3008 21.0312C22.3008 23.5833 21.2852 25.6146 19.2539 27.125C17.2227 28.6224 14.5143 29.3711 11.1289 29.3711C7.99089 29.3711 5.38672 28.6354 3.31641 27.1641C1.24609 25.6797 0.210938 23.6615 0.210938 21.1094H7.08594C7.08594 21.9557 7.46354 22.6719 8.21875 23.2578C8.97396 23.8307 9.94401 24.1172 11.1289 24.1172C12.4049 24.1172 13.4401 23.8177 14.2344 23.2188C15.0286 22.6198 15.4258 21.8385 15.4258 20.875C15.4258 19.4688 15.0872 18.4792 14.4102 17.9062C13.7331 17.3203 12.7435 17.0273 11.4414 17.0273H7.78906V11.9492H11.6758C13.8893 11.8841 14.9961 10.7188 14.9961 8.45312Z" fill="#F4C8C2"/>
</svg>
