<svg width="95" height="39" viewBox="0 0 95 39" fill="none" xmlns="http://www.w3.org/2000/svg">
<path fill-rule="evenodd" clip-rule="evenodd" d="M3.49002 37.7661H0.632812V38.3222H16.454V28.3124H15.985C15.985 28.3124 15.985 34.0873 14.0659 35.9695C12.4454 37.595 10.7396 37.7234 7.96773 37.7234V19.2864C7.96773 19.2864 9.88674 19.1581 10.8249 20.0992C12.2749 21.5536 12.4454 23.4358 12.4454 26.0452H12.9572V11.9288H12.4454C12.4454 14.5382 12.3175 16.4204 10.8249 17.8748C9.88674 18.8159 7.96773 18.6876 7.96773 18.6876V1.19172C10.7396 1.19172 12.0616 1.36283 13.6821 2.94558C15.5585 4.82778 15.6011 10.6027 15.6011 10.6027H16.0702V0.63562H0.632812V1.19172H3.49002V37.7661Z" fill="#DDDDDD"/>
<path fill-rule="evenodd" clip-rule="evenodd" d="M34.4072 1.19172V37.7661C37.1791 37.7661 38.8849 37.595 40.5054 36.0123C42.3818 34.1301 42.4244 28.3552 42.4244 28.3552H42.8935V38.365H27.0723V37.8089H29.9295V1.14895H27.0723V0.63562H37.0085V1.19172H34.4072Z" fill="#DDDDDD"/>
<path fill-rule="evenodd" clip-rule="evenodd" d="M59.8232 1.19172V37.7661C62.5951 37.7661 64.3009 37.595 65.9214 36.0123C67.7978 34.1301 67.8405 28.3552 67.8405 28.3552H68.3096V38.365H52.4883V37.8089H55.3455V1.14895H52.4883V0.63562H62.4246V1.19172H59.8232Z" fill="#DDDDDD"/>
<path fill-rule="evenodd" clip-rule="evenodd" d="M81.4021 37.7661H78.5449V38.3222H94.3662V28.3124H93.8971C93.8971 28.3124 93.8971 34.0873 91.978 35.9695C90.3575 37.595 88.6517 37.7234 85.8798 37.7234V19.2864C85.8798 19.2864 87.7989 19.1581 88.737 20.0992C90.187 21.5536 90.3575 23.4358 90.3575 26.0452H90.8693V11.9288H90.3575C90.3575 14.5382 90.2296 16.4204 88.737 17.8748C87.7989 18.8159 85.8798 18.6876 85.8798 18.6876V1.19172C88.6517 1.19172 89.9737 1.36283 91.5942 2.94558C93.4706 4.82778 93.5133 10.6027 93.5133 10.6027H93.9824V0.63562H78.5449V1.19172H81.4021V37.7661Z" fill="#DDDDDD"/>
</svg>
