<svg width="523" height="240" viewBox="0 0 523 240" fill="none" xmlns="http://www.w3.org/2000/svg">
<path opacity="0.7" d="M522.999 232.785C518.226 233.81 513.25 235.892 507.879 239.64H509.086C514.029 236.298 518.587 234.408 522.988 233.436V232.785H522.999Z" fill="white"/>
<path opacity="0.7" d="M522.999 228.781C514.48 229.005 505.543 231.247 494.778 239.405C494.688 239.48 494.598 239.554 494.496 239.629H495.636C506.118 231.792 514.626 229.635 522.988 229.443V228.781H522.999Z" fill="white"/>
<path opacity="0.7" d="M522.999 225.3C511.794 225.214 500.86 225.791 485.988 235.892C484.205 237.098 482.502 238.358 480.82 239.629H481.971C483.416 238.54 484.894 237.472 486.406 236.436C501.097 226.453 511.918 225.887 522.999 225.972V225.3Z" fill="white"/>
<path opacity="0.7" d="M522.999 220.377C520.246 220.697 517.594 220.932 514.976 221.146C503.591 222.096 492.826 223.004 477.187 232.368C473.237 234.739 469.548 237.216 465.971 239.629H467.212C470.529 237.397 473.948 235.123 477.582 232.945C493.074 223.666 503.749 222.769 515.055 221.819C517.651 221.605 520.28 221.381 523.01 221.06V220.377H522.999Z" fill="white"/>
<path opacity="0.7" d="M523 212.636C515.981 214.739 510.057 215.892 504.336 216.992C493.696 219.042 483.619 220.975 468.397 228.855C465.475 230.372 462.677 231.888 459.968 233.361C455.861 235.593 451.923 237.739 447.951 239.64H449.52C453.085 237.889 456.64 235.967 460.33 233.959C463.038 232.486 465.836 230.97 468.747 229.464C483.867 221.637 493.876 219.715 504.483 217.676C510.17 216.576 516.049 215.444 523.011 213.362V212.636H523Z" fill="white"/>
<path opacity="0.7" d="M522.999 201.51C520.562 203.026 518.012 204.35 515.417 205.386L515.033 205.546C514.187 205.887 513.352 206.218 512.539 206.517C504.99 209.315 498.841 211.258 492.894 213.127C483.168 216.202 473.983 219.096 459.607 225.342L458.625 225.769C442.219 232.891 429.265 238.519 410.635 237.622C404.26 237.301 397.67 235.86 390.708 234.344C386.398 233.404 381.941 232.422 377.529 231.738C368.095 230.297 359.181 230.681 350.29 232.924C343.937 234.515 339.141 236.874 335.102 239.651H336.354C340.157 237.152 344.648 235.048 350.47 233.586C359.271 231.375 368.084 231.002 377.416 232.422C381.794 233.105 386.24 234.077 390.539 235.016C397.546 236.543 404.158 237.995 410.59 238.316C429.4 239.223 442.433 233.564 458.919 226.399L459.9 225.972C474.242 219.747 483.416 216.853 493.12 213.789C499.078 211.91 505.227 209.966 512.799 207.169C513.623 206.859 514.458 206.528 515.315 206.186L515.699 206.026C518.193 205.033 520.641 203.773 522.999 202.332V201.51Z" fill="white"/>
<path opacity="0.7" d="M523 185.802C517.911 191.227 510.791 196.224 503.423 199.555L502.497 199.972C501.888 200.25 501.29 200.527 500.692 200.783C495.321 203.122 490.796 205.204 486.429 207.211C475.946 212.038 466.886 216.202 450.806 221.808C434.524 227.488 420.712 230.532 402.162 228.129C396.723 227.414 391.137 226.004 385.236 224.52C380.395 223.303 375.396 222.043 370.42 221.178C361.213 219.608 352.603 219.843 344.084 221.893C330.803 225.097 325.15 231.77 319.158 238.828C318.932 239.095 318.707 239.351 318.492 239.618H319.417C319.519 239.501 319.621 239.373 319.722 239.255C325.635 232.283 331.209 225.705 344.264 222.555C352.682 220.527 361.19 220.292 370.285 221.84C375.227 222.694 380.215 223.954 385.033 225.171C390.968 226.666 396.576 228.076 402.049 228.802C420.746 231.226 434.648 228.161 451.032 222.438C467.134 216.811 476.206 212.646 486.711 207.809C491.078 205.802 495.592 203.73 500.963 201.381C501.561 201.125 502.17 200.847 502.779 200.57L503.693 200.153C510.892 196.897 517.843 192.06 522.955 186.785V185.802H523Z" fill="white"/>
<path opacity="0.7" d="M522.999 168.675C520.923 170.512 519.174 172.348 517.369 174.27C515.45 176.299 513.476 178.403 510.948 180.645C505.622 185.375 498.683 190.031 491.427 193.747C490.976 193.982 490.536 194.206 490.096 194.43C489.678 194.644 489.272 194.857 488.854 195.071C483.28 197.922 478.71 200.773 474.287 203.538C465.339 209.123 456.899 214.397 442.027 218.295C425.879 222.534 411.888 222.641 393.709 218.669C389.399 217.718 385.021 216.437 380.372 215.07C374.82 213.436 369.077 211.76 363.333 210.65C354.363 208.941 346.047 209.037 337.911 210.906C324.415 214.034 319.597 220.911 314.497 228.204C311.8 232.059 309.002 236.031 304.793 239.629H305.865C309.814 236.116 312.5 232.293 315.095 228.588C320.116 221.413 324.856 214.643 338.08 211.579C346.103 209.721 354.318 209.635 363.187 211.322C368.896 212.422 374.617 214.098 380.157 215.722C384.818 217.088 389.218 218.38 393.551 219.331C411.854 223.324 425.947 223.217 442.218 218.946C457.192 215.017 465.689 209.71 474.682 204.104C479.094 201.349 483.653 198.498 489.193 195.669C489.599 195.455 490.017 195.242 490.434 195.028C490.874 194.804 491.314 194.569 491.754 194.345C499.066 190.607 506.051 185.92 511.422 181.147C513.972 178.883 515.958 176.769 517.888 174.729C519.546 172.968 521.137 171.281 522.988 169.604V168.675H522.999Z" fill="white"/>
<path opacity="0.7" d="M5.62634 239.629C4.00148 236.394 2.51202 233.073 1 229.613V231.375C2.2525 234.205 3.49371 236.938 4.83648 239.618H5.62634V239.629Z" fill="white"/>
<path opacity="0.7" d="M523 159.546C522.109 159.962 521.217 160.389 520.36 160.838C518.351 161.884 516.399 163.016 514.221 164.383C510.599 166.657 507.586 168.964 504.404 171.398C502.622 172.765 500.771 174.185 498.729 175.659C493.617 179.353 487.298 183.368 479.433 187.927C478.79 188.301 478.17 188.675 477.549 189.049L477.03 189.358C471.839 192.465 467.619 195.914 463.546 199.256C455.354 205.962 447.613 212.305 433.26 214.782C416.921 217.612 402.782 214.75 385.27 209.208C382.415 208.301 379.549 207.307 376.514 206.25C369.935 203.965 363.142 201.595 356.259 200.121C347.526 198.263 339.48 198.21 331.751 199.918C318.064 202.951 314.092 210.041 309.894 217.537C307.446 221.904 304.918 226.41 300.337 230.414C299.31 231.311 298.193 232.112 297.008 232.795C292.788 235.251 288.083 236.671 283.535 238.038C281.809 238.561 280.105 239.074 278.469 239.64H280.658C281.673 239.319 282.7 239.01 283.75 238.689C288.342 237.312 293.093 235.881 297.38 233.383C298.599 232.678 299.75 231.845 300.811 230.927C305.493 226.848 308.044 222.288 310.515 217.868C314.633 210.511 318.538 203.56 331.898 200.591C339.571 198.893 347.458 198.957 356.09 200.794C362.928 202.257 369.71 204.617 376.254 206.902C379.29 207.959 382.167 208.963 385.022 209.87C402.647 215.444 416.876 218.327 433.373 215.465C447.94 212.945 455.737 206.549 463.997 199.78C468.048 196.459 472.246 193.021 477.391 189.945L477.91 189.636C478.519 189.262 479.151 188.888 479.783 188.525C487.671 183.955 494.001 179.93 499.146 176.214C501.2 174.73 503.05 173.31 504.833 171.943C508.004 169.508 510.994 167.213 514.594 164.97C516.76 163.614 518.69 162.493 520.687 161.457C521.432 161.073 522.21 160.699 522.978 160.336V159.546H523Z" fill="white"/>
<path opacity="0.7" d="M11.7309 239.629C7.96211 234.322 4.78007 228.813 1.57547 223.036C1.38365 222.694 1.19182 222.331 1 221.99V223.452C4.11433 229.08 7.21737 234.45 10.862 239.629H11.7309Z" fill="white"/>
<path opacity="0.7" d="M523 153.748C518.836 155.211 514.559 156.727 510.497 158.435C508.477 159.279 506.367 160.229 504.031 161.318C497.848 164.223 492.443 167.277 486.519 170.672C480.042 174.399 473.34 178.243 467.438 182.119C466.671 182.621 465.926 183.144 465.193 183.656C460.442 186.988 456.639 190.992 452.961 194.857C445.502 202.716 438.439 210.137 424.481 211.28C407.273 212.689 392.48 206.411 376.818 199.758L374.493 198.765C366.335 195.274 357.906 191.675 349.173 189.593C340.653 187.575 332.958 187.362 325.567 188.931C311.699 191.846 308.596 199.128 305.301 206.838C303.383 211.322 301.408 215.957 297.211 220.078C296.297 220.975 295.259 221.797 294.13 222.523C290.553 224.819 286.344 226.239 282.271 227.617C276.2 229.667 270.468 231.599 266.925 236.17C266.045 237.291 265.221 238.455 264.42 239.629H265.278C266 238.593 266.733 237.568 267.512 236.565C270.919 232.155 276.55 230.254 282.519 228.247C286.638 226.859 290.892 225.417 294.548 223.079C295.721 222.331 296.793 221.477 297.741 220.537C302.029 216.32 304.037 211.621 305.978 207.073C309.194 199.534 312.241 192.412 325.736 189.582C333.003 188.045 340.597 188.248 349.003 190.245C357.681 192.305 366.076 195.904 374.211 199.374L376.536 200.367C392.288 207.062 407.16 213.383 424.56 211.952C438.811 210.789 445.942 203.271 453.503 195.316C457.159 191.472 460.939 187.49 465.633 184.212C466.355 183.699 467.1 183.197 467.867 182.695C473.746 178.841 480.437 174.997 486.914 171.281C492.827 167.885 498.22 164.842 504.37 161.948C506.694 160.859 508.793 159.92 510.813 159.076C514.774 157.41 518.949 155.926 523.022 154.495V153.748H523Z" fill="white"/>
<path opacity="0.7" d="M17.4066 239.629H18.377C12.7238 233.703 8.40216 227.798 4.7575 222.363C3.47115 220.441 2.21865 218.508 1 216.554V217.878C2.02682 219.501 3.07621 221.124 4.14817 222.726C7.72513 228.065 11.934 233.831 17.4066 239.629Z" fill="white"/>
<path opacity="0.7" d="M522.999 148.964C519.129 150.224 515.089 151.495 510.948 152.787C490.558 159.151 467.46 166.358 453.356 177.944C449.056 181.478 445.683 185.995 442.41 190.373C435.674 199.395 429.31 207.916 415.701 207.756C399.848 207.574 385.506 199.694 371.627 192.07C370.532 191.472 369.449 190.874 368.355 190.276C353.674 182.268 336.41 174.548 319.518 177.89C319.473 177.901 319.428 177.912 319.383 177.922C305.368 180.741 303.112 188.205 300.731 196.096C299.343 200.709 297.899 205.471 294.085 209.731C290.756 213.447 285.689 215.348 280.792 217.195C274.959 219.384 268.933 221.658 265.661 226.987C263.291 230.831 261.362 235.016 259.5 239.074C259.409 239.255 259.331 239.448 259.24 239.629H260.019C260.064 239.533 260.109 239.437 260.154 239.341C262.016 235.305 263.934 231.13 266.281 227.318C269.441 222.192 275.342 219.971 281.063 217.825C286.039 215.957 291.196 214.013 294.638 210.169C298.553 205.802 300.009 200.965 301.419 196.277C303.845 188.248 305.933 181.318 319.53 178.584C319.575 178.574 319.62 178.563 319.665 178.552C336.32 175.263 353.437 182.93 367.994 190.864C369.077 191.451 370.171 192.06 371.266 192.658C385.224 200.324 399.645 208.247 415.69 208.429C429.671 208.578 436.148 199.929 442.986 190.757C446.224 186.411 449.587 181.916 453.818 178.445C467.81 166.945 490.852 159.759 511.174 153.417C515.236 152.146 519.197 150.907 522.999 149.669V148.964Z" fill="white"/>
<path opacity="0.7" d="M24.6847 239.629H25.6777C15.3868 231.333 7.4769 222.043 1 212.219V213.287C7.29636 222.662 14.9468 231.61 24.6847 239.629Z" fill="white"/>
<path opacity="0.7" d="M523 139.931C517.347 141.895 511.208 143.807 504.777 145.803C484.985 151.954 462.564 158.916 448.549 169.967C444.408 173.245 441.091 177.399 437.886 181.425C431.206 189.796 424.899 197.697 411.945 197.762C396.926 197.836 383.295 191.205 371.255 185.343L368.547 184.019C366.81 183.165 365.083 182.321 363.368 181.51C350.019 175.157 334.222 169.038 318.301 171.889C316.89 172.146 315.502 172.444 314.159 172.786C300.574 176.246 297.583 183.016 294.684 189.561C293.002 193.373 291.265 197.302 287.439 200.602C284.314 203.293 279.868 204.521 275.151 205.823C268.934 207.542 262.502 209.315 258.722 214.718C255.461 219.352 253.17 224.755 250.959 229.976C249.785 232.753 248.567 235.625 247.235 238.284C247.01 238.743 246.773 239.17 246.547 239.608H247.348C247.529 239.266 247.709 238.935 247.89 238.572C249.232 235.892 250.451 233.009 251.625 230.222C253.825 225.033 256.093 219.662 259.32 215.081C262.954 209.891 269.261 208.151 275.354 206.464C280.139 205.14 284.664 203.891 287.925 201.093C291.863 197.697 293.634 193.693 295.349 189.807C298.306 183.112 301.104 176.79 314.351 173.427C315.671 173.085 317.048 172.797 318.447 172.541C334.154 169.732 349.816 175.797 363.063 182.097C364.779 182.909 366.494 183.752 368.231 184.606L370.939 185.931C383.047 191.825 396.757 198.498 411.956 198.424C425.271 198.349 431.68 190.319 438.473 181.809C441.655 177.815 444.95 173.694 449.023 170.458C462.925 159.492 485.29 152.541 505.014 146.423C511.355 144.458 517.414 142.568 523.011 140.625V139.931H523Z" fill="white"/>
<path opacity="0.7" d="M30.7667 239.629H32.0079C21.356 232.56 12.1484 223.367 4.10304 211.771C3.0198 210.223 1.99297 208.653 1 207.073V208.386C1.81243 209.646 2.63615 210.895 3.505 212.145C11.3924 223.516 20.3968 232.593 30.7667 239.629Z" fill="white"/>
<path opacity="0.7" d="M522.999 130.769C521.803 131.218 520.64 131.645 519.512 132.061C513.216 134.336 506.186 136.503 498.75 138.788C479.511 144.714 457.699 151.431 443.764 162.002C439.769 165.034 436.508 168.835 433.349 172.519C426.737 180.229 420.497 187.511 408.209 187.778C393.777 188.087 380.541 182.332 367.745 176.758L364.924 175.53C362.678 174.559 360.568 173.64 358.413 172.754C345.087 167.276 329.245 162.247 313.018 166.508C311.619 166.871 310.254 167.266 308.956 167.672C296.048 171.665 292.245 177.548 288.894 182.738C286.784 185.995 284.798 189.08 280.826 191.504C277.971 193.245 274.022 193.917 269.835 194.633C263.449 195.733 256.204 196.971 251.815 202.492C247.708 207.66 245.282 214.13 242.946 220.377C242.156 222.502 241.4 224.499 240.588 226.463C238.726 230.948 236.796 234.322 234.54 237.066C233.772 237.985 232.982 238.839 232.17 239.64H233.152C233.817 238.956 234.472 238.252 235.104 237.483C237.406 234.685 239.358 231.258 241.253 226.709C242.077 224.744 242.822 222.726 243.623 220.601C245.947 214.397 248.351 207.991 252.391 202.897C256.611 197.591 263.404 196.427 269.971 195.295C274.225 194.569 278.242 193.875 281.221 192.07C285.339 189.572 287.37 186.422 289.514 183.09C292.967 177.751 296.533 172.231 309.182 168.312C310.468 167.917 311.822 167.522 313.21 167.159C329.233 162.952 344.906 167.938 358.12 173.373C360.264 174.249 362.374 175.167 364.608 176.15L367.429 177.378C380.304 182.983 393.619 188.771 408.209 188.45C420.846 188.184 427.177 180.773 433.891 172.936C437.027 169.284 440.266 165.504 444.204 162.525C458.038 152.039 479.782 145.334 498.964 139.429C506.412 137.133 513.441 134.966 519.76 132.691C520.81 132.307 521.893 131.912 522.999 131.495V130.769Z" fill="white"/>
<path opacity="0.7" d="M39.568 239.629H41.2493C26.6255 233.073 14.4954 222.427 4.23845 207.083C3.09879 205.396 2.02683 203.698 1 201.979V203.335C1.84629 204.713 2.71514 206.08 3.62913 207.446C13.6379 222.427 25.4294 232.977 39.568 239.629Z" fill="white"/>
<path opacity="0.7" d="M40.8314 234.632C44.8372 236.159 47.8161 237.376 50.2082 238.348C51.3705 238.828 52.4199 239.245 53.4016 239.629H55.2972C53.8529 239.085 52.3296 238.465 50.4903 237.718C48.0982 236.746 45.108 235.529 41.0909 233.991C26.4897 228.417 14.4724 218.081 4.35086 202.396C3.15477 200.548 2.03768 198.691 0.988281 196.811V198.221C1.86842 199.737 2.77112 201.243 3.74153 202.748C13.9534 218.573 26.0835 228.994 40.8314 234.632Z" fill="white"/>
<path opacity="0.7" d="M522.998 121.287C519.139 123.145 515.032 124.576 511.376 125.857C505.61 127.865 499.291 129.797 492.589 131.848C473.948 137.55 452.824 143.999 438.968 154.025C435.131 156.802 431.927 160.25 428.835 163.593C422.279 170.661 416.084 177.335 404.451 177.783C390.527 178.317 378.284 173.544 365.33 168.494C364.168 168.035 362.994 167.586 361.832 167.138L361.2 166.892C358.514 165.856 355.987 164.885 353.437 163.998C340.923 159.61 324.415 155.317 307.726 161.137C306.395 161.596 305.074 162.076 303.743 162.557C292.042 166.86 287.438 171.654 283.737 175.52C281.017 178.36 278.659 180.816 274.213 182.407C271.742 183.293 268.413 183.485 264.881 183.688C257.908 184.094 250.009 184.542 244.887 190.266C239.888 195.85 237.507 203.367 235.194 210.639C234.765 211.995 234.336 213.33 233.907 214.622C232.824 217.857 231.267 222.032 228.785 225.652C226.099 229.571 222.962 232.443 219.182 234.45C213.642 237.387 206.725 238.241 200.124 238.86C197.291 239.127 194.741 239.213 192.485 239.298C191.706 239.32 190.973 239.352 190.284 239.384C189.393 239.426 188.58 239.437 187.802 239.458C186.47 239.49 185.263 239.522 184.078 239.651H198.894C199.323 239.619 199.74 239.586 200.191 239.544C206.871 238.914 213.867 238.049 219.532 235.048C223.413 232.988 226.629 230.041 229.383 226.026C231.91 222.331 233.49 218.103 234.584 214.825C235.013 213.522 235.442 212.187 235.871 210.831C238.15 203.624 240.52 196.171 245.417 190.693C250.337 185.194 258.077 184.745 264.915 184.35C268.504 184.147 271.877 183.944 274.45 183.026C279.054 181.382 281.469 178.873 284.256 175.958C288.092 171.953 292.436 167.426 303.991 163.176C305.311 162.685 306.643 162.215 307.963 161.756C324.426 156.022 340.776 160.272 353.177 164.618C355.705 165.504 358.244 166.476 360.918 167.511L361.55 167.757C362.723 168.205 363.886 168.665 365.048 169.113C377.505 173.971 390.391 179.001 404.473 178.456C416.423 177.997 422.708 171.217 429.365 164.03C432.435 160.72 435.617 157.293 439.397 154.559C453.152 144.597 474.219 138.158 492.803 132.488C499.506 130.438 505.836 128.505 511.613 126.487C515.19 125.238 519.185 123.839 522.987 122.045V121.287H522.998Z" fill="white"/>
<path opacity="0.7" d="M522.998 110.375C517.65 114.838 510.033 117.379 503.24 119.643C498.197 121.319 492.769 122.964 487.037 124.704C468.802 130.214 448.13 136.471 434.184 146.049C430.505 148.569 427.379 151.676 424.355 154.666C417.856 161.105 411.706 167.181 400.716 167.789C387.198 168.537 375.305 164.372 362.712 159.962C360.85 159.311 358.988 158.66 357.115 158.019C353.888 156.93 351.203 156.033 348.472 155.221C329.921 149.776 315.726 149.925 302.445 155.734C301.148 156.3 299.839 156.866 298.541 157.421C289.153 161.436 284.233 164.927 280.273 167.725C276.052 170.704 273.277 172.68 267.635 173.288C265.66 173.502 263.099 173.32 260.39 173.139C253.101 172.626 244.018 171.996 237.981 178.008C232.034 183.923 229.766 192.914 227.758 200.837L227.272 202.759C226.291 206.56 225.106 210.586 223.075 214.227C220.694 218.498 217.884 221.53 214.262 223.783C208.981 227.051 202.132 228.183 195.509 229.282L195.305 229.314C194.234 229.496 193.195 229.656 192.214 229.806C189.686 230.201 187.508 230.542 185.692 230.98L185.285 231.076C180.659 232.187 178.549 232.699 174.115 236.469C173.72 236.81 173.302 237.173 172.862 237.547C172.185 238.145 171.452 238.786 170.639 239.448C170.571 239.501 170.504 239.565 170.447 239.618H171.519C172.174 239.074 172.783 238.54 173.347 238.049C173.776 237.675 174.193 237.312 174.588 236.97C178.888 233.308 180.806 232.849 185.455 231.728L185.861 231.632C187.655 231.194 189.822 230.863 192.327 230.468C193.308 230.307 194.346 230.147 195.43 229.976L195.633 229.944C202.324 228.834 209.252 227.681 214.646 224.339C218.381 222.032 221.258 218.914 223.707 214.536C225.772 210.831 226.979 206.763 227.961 202.908L228.446 200.986C230.432 193.138 232.689 184.254 238.5 178.467C244.3 172.69 253.191 173.31 260.334 173.801C263.087 173.993 265.683 174.174 267.714 173.95C273.547 173.31 276.391 171.302 280.701 168.248C284.628 165.472 289.514 162.012 298.834 158.03C300.143 157.474 301.441 156.908 302.75 156.343C315.862 150.619 329.899 150.47 348.269 155.862C350.988 156.663 353.674 157.56 356.89 158.649C358.763 159.29 360.624 159.941 362.475 160.592C375.135 165.024 387.096 169.22 400.772 168.462C412.045 167.843 418.285 161.671 424.897 155.136C427.899 152.157 431.013 149.092 434.635 146.594C448.491 137.069 469.096 130.844 487.285 125.345C493.029 123.605 498.456 121.971 503.511 120.284C510.169 118.063 517.605 115.575 523.021 111.261V110.375H522.998Z" fill="white"/>
<path opacity="0.7" d="M39.1265 228.289C49.7219 231.941 52.6557 232.048 57.1128 232.197C58.6474 232.251 60.3964 232.304 62.6983 232.528C64.8197 232.731 67.178 233.137 69.6717 233.553C70.8791 233.756 72.1203 233.97 73.4066 234.173C75.9229 234.568 78.4392 234.931 80.9104 235.294C87.6694 236.287 94.056 237.216 99.3594 238.444C100.725 238.754 102.068 239.17 103.399 239.629H105.385C103.455 238.882 101.515 238.241 99.5399 237.782C94.2027 236.543 87.8048 235.614 81.0345 234.621C78.5633 234.258 76.0583 233.895 73.5421 233.5C72.267 233.297 71.0258 233.084 69.8184 232.881C67.3134 232.454 64.9438 232.048 62.7886 231.845C60.4641 231.621 58.7039 231.567 57.158 231.514C52.7686 231.364 49.8686 231.268 39.386 227.649C25.5746 222.886 13.8394 212.817 4.50774 197.719C3.25524 195.679 2.09301 193.629 1.00977 191.568V193.063C1.91247 194.74 2.86031 196.395 3.88714 198.05C13.2865 213.298 25.1458 223.474 39.1265 228.289Z" fill="white"/>
<path opacity="0.7" d="M522.999 94.625C521.216 97.807 519.253 100.818 516.195 103.584C515.913 103.84 515.62 104.096 515.315 104.352C510 108.72 502.44 111.122 495.117 113.429C490.998 114.731 486.677 116.013 482.107 117.379C464.075 122.75 443.629 128.837 429.4 138.062C425.902 140.337 422.844 143.081 419.899 145.729C413.434 151.538 407.329 157.026 396.97 157.784C383.78 158.745 372.18 155.083 359.903 151.217C357.455 150.448 354.927 149.648 352.411 148.9C349.059 147.907 346.261 147.117 343.508 146.455C324.991 142.002 310.695 143.198 297.165 150.342C295.935 150.993 294.683 151.634 293.34 152.296C288.082 154.88 284.087 157.079 280.871 158.852C272.33 163.561 269.136 165.323 261.068 164.212C259.726 164.031 258.067 163.668 256.329 163.294C248.701 161.639 238.264 159.375 231.076 165.771C224.103 171.975 222.173 182.482 220.616 190.917C219.928 194.665 219.047 198.979 217.344 202.812C215.313 207.382 212.762 210.66 209.31 213.127C204.638 216.448 198.387 217.921 192.339 219.341L190.466 219.779C186.731 220.676 183.447 221.498 181.066 222.62C176.823 224.627 175.605 226.026 172.355 229.763L171.622 230.607C170.708 231.653 169.703 232.774 168.507 233.927L167.052 235.337C165.585 236.768 164.084 238.22 162.516 239.64H163.554C164.93 238.369 166.262 237.077 167.571 235.817L169.026 234.408C170.245 233.233 171.272 232.101 172.186 231.044L172.919 230.201C176.192 226.442 177.286 225.172 181.393 223.239C183.707 222.15 186.956 221.328 190.646 220.441L192.508 220.003C198.624 218.562 204.943 217.078 209.738 213.672C213.304 211.141 215.933 207.767 218.009 203.079C219.736 199.182 220.627 194.815 221.327 191.035C222.861 182.695 224.78 172.317 231.572 166.262C238.489 160.112 248.713 162.333 256.182 163.956C257.943 164.34 259.613 164.703 260.989 164.885C269.306 166.027 272.803 164.105 281.255 159.45C284.46 157.688 288.443 155.488 293.69 152.915C295.044 152.253 296.296 151.612 297.538 150.961C310.898 143.914 325.036 142.739 343.361 147.138C346.103 147.8 348.89 148.591 352.23 149.573C354.746 150.32 357.274 151.121 359.711 151.89C372.067 155.787 383.723 159.46 397.061 158.489C407.667 157.709 413.874 152.146 420.429 146.252C423.363 143.615 426.387 140.892 429.84 138.649C443.979 129.477 464.369 123.402 482.355 118.052C486.936 116.685 491.258 115.404 495.376 114.101C502.418 111.87 510.395 109.35 515.811 104.886C516.127 104.63 516.432 104.363 516.725 104.096C519.467 101.608 521.386 98.8534 523.033 96.0558V94.625H522.999Z" fill="white"/>
<path opacity="0.7" d="M37.4113 221.957C47.7134 225.15 50.6923 224.232 54.1565 223.164C55.9055 222.619 57.7221 222.064 60.7123 221.989C63.9169 221.904 67.6632 222.545 71.5335 223.271C80.0979 224.862 89.7456 227.307 97.3508 229.838C103.06 231.738 108.443 235.027 114.119 238.508C114.728 238.882 115.349 239.255 115.969 239.64H117.301C116.364 239.074 115.439 238.508 114.513 237.942C108.793 234.429 103.388 231.119 97.5878 229.197C89.9487 226.666 80.2559 224.2 71.6689 222.609C67.7534 221.872 63.9621 221.231 60.6898 221.317C57.598 221.402 55.6459 222 53.9308 222.534C50.5908 223.559 47.7134 224.456 37.637 221.327C24.3447 217.206 13.2414 207.692 4.63187 193.053C3.30038 190.778 2.10429 188.493 1.00977 186.208V187.831C1.93504 189.7 2.92801 191.558 3.99997 193.394C12.6998 208.162 23.9384 217.772 37.4113 221.957Z" fill="white"/>
<path opacity="0.7" d="M522.999 81.0748C521.916 82.1319 520.889 83.2424 519.93 84.417C518.779 85.8264 517.718 87.2466 516.692 88.624C514.006 92.2438 511.456 95.6607 507.326 98.7572C507.033 98.9708 506.739 99.1843 506.435 99.3979C501.222 102.986 494.158 105.089 487.32 107.129L486.993 107.225C484.217 108.047 481.351 108.89 478.406 109.745C460.171 115.041 439.51 121.052 424.616 130.097C421.31 132.104 418.342 134.496 415.487 136.802C409.044 142.002 402.962 146.914 393.224 147.79C380.316 148.964 368.964 145.739 356.936 142.333C353.923 141.479 350.808 140.593 347.683 139.792C344.952 139.098 341.736 138.297 338.52 137.688C320.015 134.175 305.628 136.407 291.862 144.949C290.632 145.707 289.368 146.455 288.104 147.16C269.746 157.4 265.92 159.535 254.456 155.136C253.903 154.922 253.294 154.677 252.651 154.431C245.237 151.495 232.825 146.572 224.125 153.513C217.095 159.119 215.064 169.102 213.925 179.054C213.406 183.549 212.875 187.575 211.589 191.387C209.942 196.267 207.628 199.78 204.333 202.46C200.125 205.866 194.313 207.617 188.683 209.304C187.645 209.614 186.607 209.924 185.602 210.244C182.217 211.312 178.753 212.529 176.429 214.269C173.687 216.32 172.761 218.092 171.486 220.548C170.866 221.744 170.155 223.111 169.105 224.744C168.214 226.122 167.311 227.318 166.33 228.407C162.843 232.283 158.363 236.682 152.992 239.651H154.38C159.379 236.661 163.565 232.518 166.871 228.845C167.876 227.723 168.812 226.506 169.715 225.097C170.787 223.431 171.498 222.064 172.13 220.847C173.359 218.476 174.251 216.768 176.869 214.803C179.103 213.127 182.488 211.931 185.817 210.895C186.821 210.575 187.848 210.276 188.886 209.966C194.573 208.258 200.463 206.496 204.785 202.994C208.193 200.228 210.562 196.619 212.255 191.611C213.564 187.746 214.105 183.678 214.624 179.14C215.753 169.327 217.739 159.503 224.577 154.047C232.938 147.373 245.102 152.189 252.357 155.072C253.001 155.328 253.61 155.563 254.174 155.787C265.966 160.315 269.847 158.158 288.454 147.768C289.729 147.063 291.004 146.305 292.234 145.537C305.831 137.101 320.049 134.891 338.362 138.372C341.556 138.98 344.76 139.771 347.48 140.465C350.594 141.265 353.708 142.152 356.71 143.006C368.795 146.434 380.214 149.68 393.269 148.494C403.222 147.597 409.394 142.611 415.927 137.347C418.771 135.051 421.716 132.681 424.977 130.694C439.793 121.704 460.408 115.703 478.586 110.417C481.531 109.563 484.409 108.73 487.173 107.897L487.5 107.801C494.384 105.751 501.515 103.626 506.818 99.9745C507.134 99.7609 507.439 99.5367 507.732 99.3125C511.952 96.1519 514.525 92.7029 517.245 89.0405C518.26 87.6737 519.321 86.2536 520.46 84.8548C521.25 83.8938 522.085 82.9755 522.965 82.0785V81.0748H522.999Z" fill="white"/>
<path opacity="0.7" d="M35.6962 215.615C46.5286 218.615 49.3383 216.522 52.3059 214.323C53.9195 213.127 55.5782 211.878 58.7264 211.429C62.2582 210.917 66.4333 211.653 69.6717 212.358C76.9723 213.928 85.6157 216.907 95.3649 221.21C100.522 223.495 105.351 226.848 110.474 230.404C115.202 233.692 120.031 237.045 125.301 239.629H126.903C121.182 237.002 115.969 233.383 110.891 229.848C105.746 226.271 100.894 222.897 95.6696 220.58C85.8752 216.256 77.1867 213.255 69.8297 211.685C66.5348 210.97 62.2695 210.223 58.6249 210.746C55.3074 211.226 53.5584 212.529 51.8771 213.778C49.0562 215.871 46.3932 217.857 35.9106 214.953C19.9553 210.543 10.1609 198.05 4.76727 188.344C3.34551 185.781 2.11558 183.186 1.00977 180.581V182.407C1.94632 184.51 2.97315 186.593 4.12409 188.664C9.57417 198.488 19.4926 211.141 35.6962 215.615Z" fill="white"/>
<path opacity="0.7" d="M522.999 75.0099C518.881 77.2202 515.337 79.6868 512.223 82.5057C511.185 83.4453 510.192 84.385 509.222 85.3033C505.983 88.3678 502.925 91.2721 498.457 93.9309C498.164 94.1017 497.87 94.2833 497.554 94.4541C492.522 97.2517 486.112 99.0242 479.906 100.743L477.729 101.352C459.28 106.467 436.328 112.841 419.82 122.142C416.717 123.882 413.874 125.922 411.132 127.886C404.689 132.488 398.607 136.824 389.467 137.827C376.784 139.215 365.635 136.364 353.832 133.353C350.301 132.456 346.656 131.517 342.966 130.705C339.22 129.894 336.23 129.328 333.555 128.954C315.027 126.317 300.539 129.595 286.581 139.6C285.362 140.475 284.121 141.308 282.902 142.077C264.589 153.577 259.263 153.299 247.855 146.124C234.472 137.699 224.452 136.129 217.208 141.308C209.151 147.074 207.673 158.862 207.267 167.234L207.256 167.383C207.053 171.601 206.838 175.968 205.857 179.994C204.593 185.172 202.539 188.931 199.38 191.825C195.532 195.348 190.048 197.324 184.745 199.246C183.391 199.737 182.048 200.217 180.761 200.719C177.579 201.958 174.025 203.549 171.825 205.93C169.636 208.311 169.105 210.511 168.496 213.073C168.09 214.761 167.638 216.672 166.612 218.882C165.935 220.345 165.133 221.648 164.163 222.876C157.099 231.909 144.71 240.099 131.101 235.967C121.939 233.18 114.446 227.296 107.202 221.594C102.655 218.017 98.3558 214.643 93.7181 212.027C86.5191 207.97 77.0858 203.036 67.9572 200.815C63.1616 199.641 59.5169 199.459 56.5154 200.249C53.0852 201.146 51.528 203.165 50.0273 205.108C47.5561 208.311 45.2204 211.344 34.1397 208.653C17.9248 204.713 8.84137 191.334 4.85819 183.699C3.31231 180.741 2.03724 177.751 0.976562 174.74V176.769C1.91312 179.193 2.96251 181.606 4.21501 183.998C8.24333 191.729 17.4735 205.3 33.9591 209.304C45.5025 212.112 48.0977 208.749 50.6027 205.503C52.0358 203.645 53.514 201.734 56.696 200.901C59.5846 200.153 63.0939 200.324 67.7654 201.477C76.8037 203.677 86.1806 208.589 93.3345 212.614C97.9157 215.198 102.192 218.562 106.728 222.118C114.029 227.852 121.578 233.788 130.864 236.607C144.834 240.857 157.517 232.507 164.727 223.281C165.72 222.011 166.555 220.665 167.255 219.16C168.315 216.896 168.778 214.942 169.184 213.234C169.771 210.767 170.279 208.632 172.344 206.389C174.442 204.115 177.895 202.567 181.01 201.36C182.296 200.858 183.628 200.378 184.982 199.886C190.353 197.943 195.904 195.936 199.854 192.316C203.115 189.326 205.247 185.461 206.534 180.154C207.527 176.064 207.741 171.665 207.955 167.415L207.967 167.266C208.373 159.033 209.806 147.437 217.626 141.853C224.588 136.866 234.337 138.457 247.437 146.69C259.646 154.378 265.683 153.694 283.286 142.643C284.527 141.863 285.78 141.031 287.01 140.144C300.799 130.257 315.118 127.021 333.443 129.627C336.094 130 339.073 130.556 342.797 131.367C346.475 132.179 350.12 133.108 353.641 134.005C365.511 137.037 376.716 139.899 389.546 138.5C398.889 137.475 405.038 133.076 411.56 128.42C414.291 126.466 417.123 124.448 420.192 122.718C436.622 113.461 459.528 107.107 477.932 101.993L480.109 101.384C486.349 99.6542 492.804 97.871 497.915 95.0307C498.231 94.8599 498.536 94.6783 498.829 94.4968C503.377 91.7953 506.457 88.8696 509.729 85.7731C510.7 84.8548 511.682 83.9258 512.72 82.9862C515.699 80.2847 519.095 77.9142 522.999 75.7787V75.0099Z" fill="white"/>
<path opacity="0.7" d="M523 71.7318C521.352 72.3832 519.739 73.0131 518.17 73.6538C512.878 75.8428 508.421 78.1064 504.528 80.5837L503.039 81.534C498.672 84.3316 494.892 86.7448 489.6 89.0939C489.306 89.222 489.001 89.3608 488.697 89.489C484.014 91.4643 478.429 92.8738 473.035 94.2299L470.733 94.8172C455.24 98.7679 432.616 105.078 415.036 114.155C412.193 115.617 409.518 117.283 406.923 118.896C400.435 122.91 394.308 126.712 385.721 127.833C373.218 129.456 362.239 126.925 350.617 124.256C346.611 123.337 342.47 122.376 338.261 121.608C334.583 120.935 331.423 120.476 328.591 120.198C309.758 118.362 295.62 122.547 281.301 134.218C280.104 135.19 278.886 136.108 277.69 136.952C260.448 149.039 253.147 147.491 241.22 137.069C236.91 133.3 221.936 121.576 210.28 129.061C203.679 133.3 200.418 142.152 200.599 155.371L200.61 156.278C200.666 160.368 200.734 164.607 200.125 168.569C199.256 174.046 197.439 178.05 194.415 181.158C190.872 184.799 185.636 187.009 180.581 189.145C179.024 189.796 177.411 190.479 175.91 191.184C171.408 193.277 168.812 195.199 167.233 197.58C165.371 200.378 165.258 203.111 165.145 205.994C165.055 208.183 164.965 210.447 164.13 213.009C163.633 214.547 162.911 216.01 162.008 217.345C155.667 226.73 141.652 234.237 128.179 229.656C118.475 226.357 110.836 219.587 103.457 213.041C99.5185 209.55 95.7948 206.24 91.7778 203.442C84.6238 198.445 75.247 192.401 66.1071 189.913C61.3566 188.611 57.5314 188.547 54.4509 189.711C50.9642 191.024 49.6215 193.736 48.3238 196.352C46.1799 200.677 44.1714 204.777 32.4137 202.31C21.1637 199.961 10.918 191.248 5.00531 179.022C3.25633 175.402 1.96997 171.75 0.988281 168.099V170.704C1.8797 173.587 2.97423 176.459 4.35085 179.31C10.3538 191.739 20.7914 200.58 32.267 202.983C44.5889 205.556 46.8231 201.029 48.9896 196.651C50.2759 194.035 51.4946 191.568 54.7217 190.351C57.6555 189.241 61.3228 189.315 65.9153 190.575C74.9423 193.031 84.2515 199.043 91.3603 203.997C95.3322 206.774 99.0445 210.062 102.971 213.543C110.407 220.131 118.103 226.955 127.942 230.307C141.912 235.059 155.96 227.574 162.617 217.718C163.554 216.33 164.299 214.814 164.818 213.212C165.675 210.564 165.766 208.258 165.867 206.026C165.991 203.111 166.093 200.602 167.853 197.954C169.354 195.679 171.87 193.843 176.237 191.803C177.726 191.109 179.261 190.458 180.886 189.775C186.009 187.618 191.312 185.375 194.957 181.627C198.082 178.413 199.956 174.302 200.847 168.675C201.468 164.65 201.4 160.389 201.343 156.268L201.332 155.36C201.152 142.387 204.3 133.727 210.698 129.616C221.914 122.419 236.526 133.876 240.747 137.56C252.448 147.79 260.222 150.043 278.13 137.486C279.348 136.631 280.567 135.702 281.786 134.72C295.936 123.188 309.916 119.045 328.523 120.86C331.333 121.138 334.47 121.586 338.126 122.259C342.323 123.028 346.453 123.978 350.459 124.907C362.149 127.598 373.196 130.139 385.834 128.506C394.601 127.363 401.067 123.348 407.329 119.472C409.913 117.87 412.576 116.215 415.397 114.763C432.91 105.73 455.477 99.43 470.936 95.4899L473.227 94.9133C478.643 93.5465 484.251 92.1264 488.99 90.1403C489.306 90.0122 489.611 89.8733 489.915 89.7452C495.264 87.3748 499.247 84.8334 503.456 82.132L504.945 81.1816C508.805 78.7258 513.228 76.4834 518.475 74.3052C519.953 73.6965 521.465 73.0986 523.011 72.4899V71.7318H523Z" fill="white"/>
<path opacity="0.7" d="M523 69.009C519.051 70.7388 514.842 72.2551 510.656 73.6859C505.871 75.3196 501.211 76.9319 496.844 78.6831C491.281 80.9041 486.463 82.5805 480.742 84.2783L479.828 84.5452C475.992 85.645 471.76 86.574 467.664 87.4816C465.972 87.8553 464.279 88.229 462.609 88.6134C443.934 92.9166 425.339 99.1524 410.264 106.178C407.781 107.332 405.355 108.602 403.019 109.83C396.396 113.311 390.145 116.589 381.975 117.828C369.619 119.707 358.764 117.454 347.277 115.062C342.843 114.144 338.25 113.183 333.534 112.478C329.855 111.934 326.605 111.581 323.615 111.421C304.692 110.375 290.463 115.575 276.02 128.815C274.847 129.894 273.662 130.897 272.477 131.816C255.371 145.131 245.96 140.742 234.575 128.004C226.631 119.12 213.7 110.855 203.364 116.813C194.337 122.014 193.265 134.208 193.942 143.508L194.066 145.206C194.371 149.167 194.686 153.257 194.393 157.143C193.953 162.899 192.385 167.138 189.462 170.491C186.167 174.271 181.135 176.694 176.271 179.033C174.534 179.866 172.728 180.731 171.069 181.638C168.079 183.272 164.412 185.6 162.652 189.209C161.049 192.487 161.365 195.68 161.715 199.054C161.975 201.616 162.246 204.275 161.659 207.115C161.32 208.771 160.711 210.34 159.865 211.792C154.2 221.53 138.944 228.492 125.269 223.324C114.955 219.438 107.169 211.654 99.643 204.126C96.4723 200.965 93.2 197.687 89.8487 194.847C79.9753 186.454 71.3658 181.126 64.2683 178.99C59.4614 177.549 55.5798 177.602 52.3977 179.161C48.8772 180.891 47.7601 184.254 46.6768 187.522C44.8714 192.967 43.1789 198.125 30.6877 195.957C17.9257 193.726 9.12434 183.315 5.14116 174.313C2.8844 169.199 1.60933 164.052 1 158.916V163.443C1.73345 167.159 2.85054 170.875 4.47541 174.58C8.5263 183.752 17.5082 194.356 30.5523 196.609C43.6641 198.883 45.5485 193.202 47.3651 187.703C48.4484 184.436 49.4639 181.339 52.725 179.748C55.7264 178.275 59.4388 178.232 64.0539 179.62C71.0611 181.724 79.5804 187.009 89.3747 195.327C92.7035 198.157 95.8178 201.275 99.1239 204.574C106.707 212.155 114.549 219.993 125.009 223.944C139.035 229.229 154.674 222.096 160.497 212.102C161.377 210.586 162.009 208.952 162.37 207.233C162.979 204.297 162.708 201.595 162.437 198.979C162.11 195.701 161.794 192.594 163.318 189.486C164.626 186.806 167.131 184.564 171.442 182.215C173.089 181.318 174.883 180.453 176.61 179.62C181.541 177.25 186.641 174.805 190.038 170.907C193.05 167.448 194.675 163.08 195.127 157.175C195.42 153.235 195.104 149.114 194.799 145.131L194.675 143.444C194.009 134.325 195.036 122.398 203.747 117.369C213.7 111.624 226.281 119.739 234.044 128.42C245.723 141.5 255.382 145.985 272.951 132.318C274.147 131.389 275.343 130.364 276.539 129.285C290.824 116.194 304.895 111.047 323.593 112.083C326.572 112.243 329.787 112.596 333.443 113.14C338.137 113.845 342.707 114.795 347.142 115.714C358.697 118.116 369.619 120.38 382.099 118.49C390.381 117.23 396.983 113.77 403.38 110.417C405.705 109.2 408.12 107.93 410.591 106.787C425.632 99.7824 444.16 93.5679 462.79 89.2755C464.46 88.8911 466.152 88.5173 467.833 88.1436C471.941 87.236 476.195 86.307 480.043 85.1965L480.968 84.9296C486.723 83.2212 491.552 81.5448 497.138 79.3131C501.482 77.5726 506.131 75.9709 510.915 74.3372C515.011 72.9385 519.13 71.4542 523.011 69.7778V69.009H523Z" fill="white"/>
<path opacity="0.7" d="M14.1213 97.2518C13.8618 100.359 13.1283 103.392 12.3498 106.477C11.2665 110.706 9.86732 115.02 8.38914 119.59C3.37913 135.008 -2.28534 152.488 4.59778 169.882C8.95333 180.869 18.4656 188.878 28.8467 190.277C42.7709 192.156 44.2829 185.354 45.7385 178.766C46.6074 174.858 47.4198 171.163 50.7147 169.188C53.7839 167.341 57.5301 167.191 62.179 168.718C72.2329 172.007 83.1556 182.396 87.3871 186.71C90.0387 189.412 92.6453 192.369 95.1729 195.22C102.902 203.955 110.903 212.999 122.062 217.633C135.163 223.068 152.799 217.676 158.362 206.539C159.186 204.894 159.694 203.133 159.897 201.296C160.247 198.114 159.603 195.06 158.994 192.102C158.204 188.29 157.459 184.692 158.768 181.072C159.897 177.965 162.323 175.381 166.633 172.68C168.382 171.59 170.312 170.555 172.174 169.551C176.969 166.967 181.923 164.298 185.105 160.24C188.016 156.513 189.381 151.901 189.404 145.729C189.404 141.885 188.874 137.923 188.343 134.079C188.23 133.236 188.118 132.403 188.005 131.57C187.192 125.42 186.425 110.524 196.795 105.164C207.571 99.5689 219.983 109.296 227.34 119.333C234.742 129.424 241.4 134.464 248.317 135.211C254.365 135.863 260.729 133.236 267.759 127.192C268.898 126.221 270.072 125.099 271.268 123.882C285.598 109.2 299.771 103.06 318.637 103.338C321.774 103.381 325.08 103.616 328.736 104.043C333.882 104.651 338.869 105.591 343.699 106.499C355.152 108.656 365.984 110.684 378.351 108.506C386.509 107.065 393.584 104.032 400.422 101.085C402.194 100.327 403.965 99.5582 405.76 98.8214C417.799 93.8776 435.955 86.8516 454.63 83.0717C460.069 81.9719 465.733 81.0856 471.082 80.2741L472.007 80.1353C473.925 79.847 475.787 79.5801 477.615 79.3131C481.609 78.7472 485.378 78.2026 489.316 77.4552C493.525 76.6544 498.422 75.6827 503.342 74.38C509.661 72.6929 517.131 69.9487 523.01 65.5708V64.6846C517.165 69.1906 509.559 72.0095 503.15 73.718C498.264 75.0207 493.367 75.9817 489.181 76.7825C485.254 77.5299 481.496 78.0638 477.513 78.6297C475.685 78.886 473.824 79.153 471.894 79.4519L470.969 79.5907C465.62 80.4023 459.944 81.2885 454.483 82.399C435.752 86.2003 417.54 93.2369 405.477 98.1914C403.672 98.9282 401.901 99.697 400.129 100.455C393.02 103.509 386.306 106.403 378.227 107.823C365.995 109.98 355.231 107.962 343.845 105.815C339.005 104.908 334.006 103.968 328.827 103.359C325.137 102.922 321.808 102.697 318.649 102.644C299.556 102.356 285.226 108.57 270.749 123.412C269.564 124.619 268.402 125.719 267.273 126.68C260.402 132.585 254.229 135.158 248.396 134.517C241.704 133.802 235.205 128.847 227.927 118.928C220.401 108.666 207.65 98.736 196.445 104.555C185.692 110.108 186.459 125.345 187.294 131.634C187.407 132.467 187.52 133.3 187.632 134.144C188.151 137.966 188.693 141.906 188.682 145.708C188.67 151.73 187.35 156.214 184.529 159.813C181.426 163.753 176.54 166.39 171.812 168.932C169.939 169.946 167.999 170.982 166.238 172.082C163.237 173.961 159.603 176.652 158.091 180.827C156.715 184.617 157.482 188.312 158.294 192.209C158.904 195.124 159.524 198.125 159.186 201.211C158.994 202.972 158.498 204.66 157.719 206.229C152.314 217.067 135.14 222.289 122.367 216.992C111.354 212.422 103.41 203.442 95.7371 194.772C93.2095 191.91 90.5804 188.953 87.9287 186.23C82.6253 180.827 72.2668 171.281 62.4273 168.056C57.6317 166.486 53.5582 166.668 50.3423 168.601C46.7992 170.736 45.9078 174.74 45.0502 178.616C43.5946 185.183 42.218 191.376 28.9595 189.593C18.8379 188.226 9.54008 180.389 5.28609 169.626C-1.51804 152.456 4.12386 135.094 9.08873 119.771C10.5782 115.201 11.9774 110.877 13.0606 106.627C13.8166 103.637 14.5839 100.455 14.8548 97.2945" fill="white"/>
<path opacity="0.7" d="M19.0862 105.562C17.6419 108.829 16.0734 112.065 14.4034 115.492C6.68532 131.381 -1.28105 147.803 4.71065 165.176C8.26505 175.48 17.2808 183.018 27.1316 183.937C41.8569 185.303 42.9966 177.413 44.1024 169.778C44.7569 165.261 45.3775 160.99 48.6949 158.63C58.997 151.327 76.611 167.418 85.3898 178.085C87.3307 180.445 89.2602 182.922 91.1333 185.325C99.0094 195.437 107.145 205.89 119.117 211.325C127.783 215.255 139.642 214.625 147.97 209.798C153.916 206.349 157.279 201.224 157.426 195.362C157.516 191.956 156.523 188.571 155.575 185.293C154.311 180.926 153.104 176.804 154.21 172.64C155.857 166.457 161.623 163.019 167.739 159.378C172.388 156.612 177.195 153.751 180.174 149.533C185.635 141.813 183.739 132.064 181.911 122.646C181.72 121.643 181.528 120.649 181.336 119.667C180.422 114.745 178.346 98.2689 189.833 92.93C201.32 87.6018 213.608 98.9095 220.637 110.217C228.536 122.902 236.345 129.384 244.537 130.025C251.51 130.569 258.732 126.682 266.01 118.471C282.947 99.358 299.207 92.7591 324.042 94.9374C329.605 95.4286 334.976 96.3362 340.167 97.2224C351.462 99.1444 362.136 100.97 374.266 98.5678C374.379 98.5465 374.503 98.5251 374.616 98.4931C386.78 96.0159 398.166 91.8836 409.179 87.8901C425.912 81.8251 443.211 75.5466 463.047 75.3116C466.263 75.2689 469.547 75.3544 472.729 75.4398C480.323 75.632 488.188 75.8242 495.759 74.404C505.497 72.5675 517.21 66.8121 520.663 56.1237C523.055 48.7133 520.866 40.8758 518.744 33.2839C516.567 25.4571 514.298 17.374 517.244 9.96366C518.496 6.82439 520.584 4.12292 522.987 1.63499V0.620605C520.301 3.32208 517.954 6.24779 516.578 9.72875C513.554 17.342 515.844 25.5425 518.056 33.4654C520.143 40.9612 522.31 48.7026 519.974 55.9315C516.668 66.1821 505.52 71.788 496.03 73.6566C495.895 73.6886 495.759 73.71 495.624 73.7313C488.12 75.1408 480.312 74.9379 472.751 74.7564C469.569 74.6817 466.275 74.5962 463.047 74.6283C443.086 74.8738 425.732 81.1737 408.942 87.2601C397.951 91.2429 386.6 95.3645 374.481 97.8418C374.368 97.8631 374.244 97.8845 374.131 97.9165C362.136 100.287 351.53 98.4824 340.302 96.5604C335.1 95.6742 329.718 94.7559 324.121 94.2647C299.353 92.0971 282.36 98.9843 265.479 118.044C258.359 126.084 251.341 129.886 244.616 129.363C236.683 128.743 229.044 122.369 221.281 109.886C214.093 98.3329 201.466 86.8009 189.539 92.332C177.601 97.8738 179.722 114.755 180.648 119.795C180.828 120.778 181.02 121.781 181.223 122.785C183.029 132.075 184.89 141.674 179.598 149.17C176.698 153.259 171.959 156.089 167.378 158.812C161.138 162.528 155.248 166.03 153.533 172.479C152.382 176.815 153.657 181.214 154.898 185.474C155.835 188.699 156.805 192.041 156.726 195.341C156.579 200.957 153.352 205.89 147.62 209.211C139.484 213.92 127.907 214.539 119.456 210.706C107.653 205.346 99.5623 194.967 91.7426 184.919C89.8695 182.516 87.94 180.029 85.9879 177.669C83.765 174.978 65.7222 153.665 52.4863 156.281C51.0194 156.57 49.6089 157.157 48.2887 158.096C44.723 160.627 44.0573 165.24 43.4141 169.692C42.3083 177.348 41.2702 184.577 27.2218 183.275C17.6532 182.388 8.88566 175.031 5.41025 164.973C-0.502466 147.856 7.41876 131.551 15.0692 115.78C16.6602 112.502 18.3076 109.107 19.7632 105.829" fill="white"/>
</svg>
