<svg width="13" height="9" viewBox="0 0 13 9" fill="none" xmlns="http://www.w3.org/2000/svg">
<path d="M0.702637 8L0.208496 8L0.208496 0.297852L5.56885 0.297852L5.56885 0.759766L0.702637 0.759766L0.702637 4.24023L4.79541 4.24023L4.79541 4.70215L0.702637 4.70215L0.702637 8ZM10.0428 8.10742C9.73481 8.10742 9.44119 8.06803 9.16189 7.98926C8.8826 7.9069 8.65701 7.80306 8.48514 7.67773C8.13423 7.43066 7.90864 7.21582 7.80838 7.0332L7.73318 6.89893H7.68484L7.68484 8H7.21219L7.21219 0.297852L7.68484 0.297852L7.68484 3.82129H7.73318C7.73676 3.81413 7.74214 3.80518 7.7493 3.79443C7.75646 3.78011 7.76541 3.764 7.77615 3.74609C7.78689 3.72461 7.79585 3.70671 7.80301 3.69238C7.83881 3.63509 7.92117 3.53841 8.05008 3.40234C8.18615 3.2627 8.33117 3.13916 8.48514 3.03174C8.63911 2.93148 8.85753 2.8348 9.14041 2.7417C9.41255 2.65218 9.71333 2.60742 10.0428 2.60742C10.8627 2.60742 11.5395 2.86344 12.073 3.37549C12.603 3.89111 12.8679 4.55176 12.8679 5.35742C12.8679 6.17025 12.603 6.83089 12.073 7.33936C11.5395 7.8514 10.8627 8.10742 10.0428 8.10742ZM11.7508 7.01172C12.1804 6.57129 12.3953 6.01986 12.3953 5.35742C12.3953 4.69499 12.1787 4.14535 11.7454 3.7085C11.3085 3.26807 10.741 3.04785 10.0428 3.04785C9.35525 3.04785 8.7895 3.26628 8.34549 3.70313C7.90506 4.13997 7.68484 4.69141 7.68484 5.35742C7.68484 6.0306 7.90506 6.58382 8.34549 7.01709C8.7895 7.45394 9.35525 7.67236 10.0428 7.67236C10.7482 7.67236 11.3175 7.45215 11.7508 7.01172Z" fill="black"/>
</svg>
