<svg width="24" height="9" viewBox="0 0 24 9" fill="none" xmlns="http://www.w3.org/2000/svg">
<path d="M2.73926 0.759766L0.606934 0.759766L0.606934 0.297852L5.36572 0.297852L5.36572 0.759766L3.2334 0.759766L3.2334 7.53809L5.36572 7.53809L5.36572 8L0.606934 8L0.606934 7.53809L2.73926 7.53809L2.73926 0.759766ZM12.1868 8L11.7141 8L11.7141 5.16406C11.7141 4.43717 11.5262 3.90186 11.1502 3.55811C10.767 3.21794 10.2765 3.04785 9.6785 3.04785C9.03038 3.04785 8.53087 3.25016 8.17996 3.65479C7.82905 4.05941 7.65359 4.57324 7.65359 5.19629L7.65359 8H7.18094L7.18094 2.72021L7.65359 2.72021L7.65359 3.65479H7.69119C7.74132 3.54736 7.82905 3.42562 7.95437 3.28955C8.07254 3.16423 8.19786 3.06038 8.33035 2.97803C8.4879 2.87419 8.69559 2.78646 8.9534 2.71484C9.21479 2.64323 9.49051 2.60742 9.78055 2.60742C10.4895 2.60742 11.0678 2.81331 11.5154 3.2251C11.963 3.64046 12.1868 4.25993 12.1868 5.0835L12.1868 8ZM14.002 6.28662V6.06641H14.4747V6.28662C14.4747 6.74495 14.6591 7.0887 15.0279 7.31787C15.3931 7.5542 15.8765 7.67236 16.4781 7.67236C17.1477 7.67236 17.649 7.57926 17.982 7.39307C18.315 7.20329 18.4797 6.9222 18.4761 6.5498C18.4761 6.24544 18.3293 6.02165 18.0357 5.87842C17.7313 5.72803 17.3679 5.62956 16.9454 5.58301C16.5049 5.53288 16.077 5.47917 15.6617 5.42188C15.2284 5.361 14.8668 5.22852 14.5767 5.02441C14.2795 4.81315 14.1309 4.51058 14.1309 4.1167C14.1309 3.63688 14.3422 3.26628 14.7647 3.00488C15.1908 2.73991 15.7476 2.60742 16.4351 2.60742C17.1226 2.60742 17.6794 2.75244 18.1055 3.04248C18.5316 3.33252 18.7447 3.74967 18.7447 4.29395L18.272 4.29395C18.272 3.8929 18.1091 3.58496 17.7833 3.37012C17.461 3.15527 17.0116 3.04785 16.4351 3.04785C15.8622 3.04785 15.4146 3.14274 15.0923 3.33252C14.7701 3.51872 14.6089 3.78011 14.6089 4.1167C14.6089 4.40316 14.7575 4.61979 15.0547 4.7666C15.3519 4.90983 15.7118 5.00651 16.1343 5.05664C16.5676 5.10677 16.9955 5.16048 17.418 5.21777C17.8513 5.28223 18.2147 5.42188 18.5084 5.63672C18.802 5.85514 18.9488 6.15951 18.9488 6.5498C18.9488 7.08691 18.7178 7.48079 18.2559 7.73145C17.7976 7.9821 17.205 8.10742 16.4781 8.10742C15.7619 8.10742 15.1693 7.95345 14.7003 7.64551C14.2348 7.34115 14.002 6.88818 14.002 6.28662ZM20.909 6.20605L20.909 3.16064L19.9369 3.16064V2.72021L20.909 2.72021V1.39893L21.3817 1.39893V2.72021L23.6268 2.72021V3.16064L21.3817 3.16064L21.3817 6.15234C21.3817 6.69661 21.516 7.08512 21.7845 7.31787C22.0459 7.5542 22.3914 7.67236 22.8211 7.67236C22.9787 7.67236 23.138 7.64909 23.2992 7.60254C23.4603 7.55599 23.5874 7.50586 23.6805 7.45215L23.7879 7.37158V7.8335C23.5158 8.01611 23.172 8.10742 22.7567 8.10742C22.2303 8.10742 21.7917 7.95345 21.4408 7.64551C21.0863 7.33757 20.909 6.85775 20.909 6.20605Z" fill="black"/>
</svg>
