<svg width="142" height="25" viewBox="0 0 142 25" fill="none" xmlns="http://www.w3.org/2000/svg">
<path fill-rule="evenodd" clip-rule="evenodd" d="M1.91931 20.5511H0.348145V20.8537H9.04821V15.4067H8.79025C8.79025 15.4067 8.79025 18.5492 7.73499 19.5734C6.84388 20.458 5.90587 20.5278 4.3816 20.5278V10.495C4.3816 10.495 5.43686 10.4252 5.95277 10.9373C6.75008 11.7288 6.84388 12.753 6.84388 14.173H7.12528V6.49122H6.84388C6.84388 7.91117 6.77353 8.9354 5.95277 9.72686C5.43686 10.239 4.3816 10.1691 4.3816 10.1691V0.648439C5.90587 0.648439 6.63283 0.741551 7.52394 1.60284C8.55575 2.62707 8.5792 5.7696 8.5792 5.7696H8.83715V0.345825H0.348145V0.648439H1.91931V20.5511Z" fill="#282828"/>
<path fill-rule="evenodd" clip-rule="evenodd" d="M18.9209 0.648439V20.5511C20.4452 20.5511 21.3832 20.458 22.2743 19.5967C23.3061 18.5725 23.3296 15.43 23.3296 15.43H23.5875V20.877H14.8875V20.5744H16.4586V0.625161H14.8875V0.345825H20.3514V0.648439H18.9209Z" fill="#282828"/>
<path fill-rule="evenodd" clip-rule="evenodd" d="M32.897 0.648439V20.5511C34.4213 20.5511 35.3593 20.458 36.2504 19.5967C37.2822 18.5725 37.3057 15.43 37.3057 15.43H37.5636V20.877H28.8635V20.5744H30.4347V0.625161H28.8635V0.345825H34.3275V0.648439H32.897Z" fill="#282828"/>
<path fill-rule="evenodd" clip-rule="evenodd" d="M44.7631 20.5511H43.1919V20.8537H51.892V15.4067H51.634C51.634 15.4067 51.634 18.5492 50.5787 19.5734C49.6876 20.458 48.7496 20.5278 47.2253 20.5278V10.495C47.2253 10.495 48.2806 10.4252 48.7965 10.9373C49.5938 11.7288 49.6876 12.753 49.6876 14.173H49.969V6.49122H49.6876C49.6876 7.91117 49.6173 8.9354 48.7965 9.72686C48.2806 10.239 47.2253 10.1691 47.2253 10.1691V0.648439C48.7496 0.648439 49.4766 0.741551 50.3677 1.60284C51.3995 2.62707 51.4229 5.7696 51.4229 5.7696H51.6809V0.345825H43.1919V0.648439H44.7631V20.5511Z" fill="#282828"/>
<g clip-path="url(#clip0)">
<path d="M130.736 3.76519C131.225 3.76519 131.688 3.58088 132.014 3.23858C132.368 2.89628 132.559 2.47498 132.559 1.9747C132.559 1.50074 132.395 1.07945 132.014 0.71082C131.661 0.36852 131.225 0.184204 130.736 0.184204C130.246 0.184204 129.81 0.36852 129.457 0.71082C129.103 1.05312 128.913 1.47441 128.913 1.9747C128.913 2.44865 129.103 2.89628 129.457 3.23858C129.783 3.60721 130.219 3.76519 130.736 3.76519Z" fill="#282828"/>
<path d="M140.068 11.8487C139.551 11.8487 139.143 12.033 138.789 12.3753C138.436 12.7176 138.245 13.1389 138.245 13.6392C138.245 14.0868 138.381 14.4818 138.708 14.8241C139.007 15.1664 139.388 15.3507 139.85 15.4297H140.095H140.286C140.313 15.4297 140.34 15.4297 140.34 15.456V15.4823C140.34 15.4823 140.34 15.4823 140.34 15.5087C139.905 15.7456 139.442 15.9036 139.007 15.9826C138.572 16.0616 138.164 16.0879 137.783 16.0879H137.755C137.347 16.0879 137.021 15.9826 136.721 15.7456C136.368 15.4033 136.177 14.8767 136.096 14.1131C136.041 13.3495 136.014 12.507 136.041 11.559V10.2688C136.014 9.32093 136.041 8.47835 136.096 7.71475C136.15 6.95116 136.368 6.42454 136.721 6.08224C137.021 5.84527 137.347 5.73994 137.755 5.73994H137.783C138.164 5.73994 138.572 5.7926 139.007 5.84527C139.442 5.92426 139.905 6.08224 140.34 6.31922V6.34555C140.34 6.34555 140.34 6.34555 140.34 6.37188C140.313 6.37188 140.313 6.39821 140.286 6.39821H140.095H139.85C139.388 6.45087 139.007 6.63519 138.708 6.97749C138.408 7.31979 138.245 7.71475 138.245 8.16238C138.245 8.63633 138.436 9.08395 138.789 9.42625C139.143 9.76855 139.578 9.95287 140.068 9.95287C140.558 9.95287 141.02 9.76855 141.347 9.42625C141.701 9.08395 141.891 8.66266 141.891 8.16238C141.891 7.79374 141.782 7.45144 141.537 7.13547C141.293 6.81951 140.993 6.52987 140.612 6.29289C140.231 6.05591 139.769 5.8716 139.279 5.73994C138.762 5.60829 138.245 5.55563 137.701 5.55563C136.966 5.55563 136.232 5.68728 135.552 5.95059C134.871 6.2139 134.273 6.60886 133.756 7.10914C133.239 7.60943 132.858 8.16238 132.586 8.79432V6.95116V6.24023C132.586 6.02958 132.504 5.8716 132.368 5.73994C132.232 5.60829 132.069 5.5293 131.878 5.5293H131.47H128.858H127.852H127.416C127.171 5.5293 127.062 5.42397 127.062 5.187V4.63405H127.09V4.60772V3.60715V3.50182C127.09 3.29118 127.008 3.13319 126.872 3.00154C126.736 2.86989 126.573 2.79089 126.382 2.79089H125.974H122.954V2.89622H123.117C123.335 2.89622 123.471 3.00154 123.471 3.23852V3.58082V4.55506V8.13604C123.226 7.76741 122.954 7.39878 122.627 7.08281C122.111 6.58253 121.512 6.18757 120.832 5.92426C120.152 5.66095 119.444 5.5293 118.709 5.5293H118.682C117.948 5.5293 117.24 5.66095 116.587 5.92426C115.907 6.18757 115.308 6.58253 114.791 7.08281C114.438 7.42511 114.166 7.79375 113.921 8.21504C113.921 7.76741 113.839 7.37245 113.703 7.03015C113.567 6.66152 113.349 6.37188 113.105 6.16124C112.86 5.92426 112.56 5.76627 112.207 5.66095C111.853 5.55563 111.499 5.50297 111.146 5.50297C110.601 5.50297 110.03 5.60829 109.404 5.7926C108.942 5.89793 108.452 6.10857 107.989 6.37188L107.962 6.39821C107.908 6.39821 107.881 6.37188 107.881 6.31922V6.2139C107.881 6.00325 107.799 5.84527 107.663 5.71361C107.527 5.58196 107.364 5.50297 107.173 5.50297H106.765H103.636V5.68728H103.799C104.017 5.68728 104.153 5.7926 104.153 6.02958V6.31922V8.16238V14.1395V14.4291V15.7456C104.153 15.9563 104.044 16.0879 103.799 16.0879H103.636V16.2723H108.316V16.0616H108.153C107.908 16.0616 107.799 15.9563 107.799 15.7193V14.4028V14.1131V6.84584C107.799 6.63519 107.908 6.50354 108.098 6.42454L108.479 6.26656C108.778 6.18757 109.05 6.16124 109.268 6.2139C109.54 6.31922 109.731 6.45087 109.894 6.68785C110.057 6.8985 110.139 7.26713 110.139 7.79374V13.7445V14.0341V15.5877C110.139 15.7456 110.084 15.8773 109.948 15.9826C109.84 16.0879 109.703 16.1406 109.54 16.1406V16.2723H112.152H114.03H114.329V16.1406C114.166 16.1406 114.03 16.0879 113.921 15.9826C113.812 15.8773 113.758 15.7456 113.758 15.5877V14.3764V14.0868V13.5865C114.002 13.9815 114.274 14.3501 114.628 14.6924C115.145 15.1927 115.744 15.5877 116.424 15.851C117.104 16.1143 117.812 16.2459 118.546 16.2459C119.308 16.2459 120.015 16.1143 120.668 15.851C121.349 15.5877 121.947 15.1927 122.464 14.6924L122.328 14.5608C121.811 15.061 121.213 15.456 120.56 15.693C119.907 15.9563 119.226 16.0879 118.546 16.0879C118.356 16.0879 118.165 16.0616 117.975 15.9826C117.784 15.93 117.621 15.8246 117.512 15.693C117.213 15.4033 117.023 14.9821 116.941 14.4028C116.859 13.8235 116.832 13.1652 116.805 12.4016V11.0851C116.832 10.9271 116.914 10.8481 117.05 10.8481H118.519H120.995H123.281V13.3495C123.281 13.8762 123.362 14.3238 123.525 14.6661C123.689 15.061 123.879 15.3507 124.151 15.5877C124.423 15.8246 124.75 15.9826 125.076 16.0879C125.43 16.1933 125.811 16.2459 126.192 16.2459C126.682 16.2459 127.199 16.1406 127.715 15.9563C127.96 15.851 128.178 15.7456 128.368 15.6403C128.532 15.5613 128.695 15.456 128.831 15.377V15.7456C128.831 15.9563 128.722 16.0879 128.477 16.0879H128.396V16.2723H133.076V16.0616H132.912C132.667 16.0616 132.559 15.9563 132.559 15.7193V14.4028V14.1131V12.9546C132.831 13.5865 133.239 14.1395 133.729 14.6398C134.246 15.14 134.844 15.535 135.524 15.7983C136.205 16.0616 136.912 16.1933 137.674 16.1933C138.218 16.1933 138.735 16.1143 139.252 15.9826C139.769 15.851 140.204 15.6667 140.585 15.4297C140.966 15.1927 141.265 14.9294 141.51 14.6134C141.755 14.2975 141.864 13.9552 141.864 13.5865C141.864 13.1126 141.673 12.6913 141.32 12.3226C140.993 12.033 140.558 11.8487 140.068 11.8487ZM120.315 10.2425V10.3215V10.4795C120.315 10.6111 120.233 10.6901 120.097 10.6901H118.301H117.131C116.995 10.6901 116.914 10.6111 116.914 10.4795C116.914 10.3742 116.887 10.2952 116.914 10.2688C116.914 10.2425 116.914 10.2162 116.914 10.1898C116.887 9.26827 116.914 8.39935 116.968 7.66209C117.023 6.8985 117.24 6.37188 117.594 6.02958C117.73 5.89793 117.866 5.7926 118.056 5.73994C118.247 5.68728 118.437 5.63462 118.628 5.63462C118.818 5.63462 119.009 5.66095 119.172 5.73994C119.335 5.7926 119.499 5.89793 119.635 6.02958C119.934 6.31922 120.124 6.74051 120.206 7.29346C120.288 7.84641 120.315 8.47835 120.315 9.18928V10.2425ZM128.314 15.4033C128.096 15.4823 127.906 15.5087 127.688 15.456C127.498 15.3507 127.335 15.219 127.226 14.9821C127.09 14.7187 127.008 14.3238 127.008 13.8235V5.97692C127.008 5.76627 127.117 5.63462 127.362 5.63462H127.797H128.559C128.777 5.63462 128.913 5.73994 128.913 5.97692V6.31922V8.16238V14.1395V14.4291V15.1664C128.722 15.219 128.532 15.3244 128.314 15.4033Z" fill="#282828"/>
<path d="M105.051 17.5364C104.779 16.9571 104.371 16.4305 103.854 16.0092C103.337 15.5615 102.684 15.2192 101.949 14.9559C101.215 14.6926 100.371 14.5346 99.4188 14.4557C99.0106 14.4557 98.6025 14.4293 98.2216 14.403C97.8135 14.3767 97.4053 14.3503 97.0244 14.2977C96.6435 14.245 96.317 14.166 96.0449 14.087C95.7728 14.008 95.5824 13.9027 95.4735 13.7447C95.3375 13.5341 95.2831 13.3234 95.3647 13.1128C95.4191 12.9021 95.6096 12.7178 95.8817 12.5862C96.317 12.9021 96.8612 13.1654 97.4598 13.3498C98.0583 13.5341 98.7385 13.6394 99.4732 13.6921C100.262 13.6921 100.997 13.5604 101.65 13.3498C102.303 13.1391 102.847 12.8231 103.282 12.4545C103.745 12.0859 104.071 11.6646 104.316 11.1643C104.561 10.6904 104.67 10.1637 104.67 9.61079C104.67 9.05784 104.561 8.53123 104.316 8.05727C104.071 7.58332 103.718 7.1357 103.282 6.76706C102.847 6.39843 102.276 6.08246 101.65 5.87182C100.997 5.66117 100.289 5.52952 99.4732 5.52952C98.6569 5.52952 97.9223 5.66117 97.2965 5.87182C96.6435 6.08246 96.0993 6.39843 95.664 6.76706C95.2014 7.1357 94.8749 7.55699 94.6301 8.05727C94.3852 8.53123 94.2764 9.05784 94.2764 9.61079C94.2764 10.1637 94.4124 10.6904 94.6573 11.1906C94.9022 11.6646 95.2559 12.1122 95.7184 12.4808C95.1198 12.6125 94.6301 12.8758 94.1947 13.2971V6.55642V5.95081C94.1947 5.74016 94.3036 5.60851 94.5484 5.60851H94.7117V5.42419H91.9636H91.6643H91.2562C91.0658 5.42419 90.9025 5.50319 90.7665 5.63484C90.6304 5.76649 90.5488 5.92448 90.5488 6.10879V6.24045C90.5488 6.29311 90.5216 6.31944 90.4672 6.31944H90.4128C90.3311 6.26678 90.1951 6.18779 90.0046 6.10879C89.8142 6.00347 89.5965 5.92448 89.3516 5.81916C89.0795 5.71383 88.7802 5.63484 88.4265 5.55585C88.0728 5.47686 87.7191 5.45053 87.3382 5.45053C86.6308 5.45053 86.005 5.58218 85.4336 5.84549C84.8622 6.08246 84.3453 6.45109 83.9099 6.92505C83.665 7.21469 83.4474 7.53066 83.2569 7.87296C83.2297 7.53066 83.1753 7.24102 83.0665 7.00404C82.9304 6.68807 82.74 6.39843 82.4679 6.13513C82.1958 5.89815 81.8965 5.74016 81.57 5.63484C81.2163 5.52952 80.8354 5.47686 80.4817 5.47686C79.8014 5.47686 79.1212 5.58218 78.4954 5.81916C77.8696 6.05613 77.3255 6.31944 76.8357 6.63541L76.8629 6.7144C76.7269 6.47743 76.5908 6.29311 76.4004 6.16146C76.1555 5.92448 75.8562 5.76649 75.5025 5.66117C75.1488 5.55585 74.7951 5.50319 74.4414 5.50319C73.8972 5.50319 73.3258 5.60851 72.7 5.79283C72.2375 5.89815 71.7477 6.10879 71.2852 6.3721L71.258 6.39843C71.2036 6.39843 71.1764 6.3721 71.1764 6.31944V6.21412C71.1764 6.00347 71.0947 5.84549 70.9587 5.71383C70.8226 5.58218 70.6594 5.50319 70.4689 5.50319H70.0608H67.0679V5.6875H67.2311C67.4488 5.6875 67.5848 5.79283 67.5848 6.0298V6.31944V8.1626V14.1397V14.4293V15.7459C67.5576 15.9565 67.4488 16.0618 67.2311 16.0618H67.0679V16.2461H71.7749V16.0618H71.6117C71.3668 16.0618 71.258 15.9565 71.258 15.7195V14.403V14.1134V6.84606C71.258 6.63541 71.3668 6.50376 71.5573 6.42476L71.9654 6.26678C72.2647 6.18779 72.5368 6.16146 72.7544 6.21412C73.0265 6.31944 73.217 6.45109 73.3802 6.68807C73.5435 6.89872 73.6251 7.26735 73.6251 7.79397V13.7447V14.0344V15.5879C73.6251 15.7459 73.5707 15.8775 73.4347 15.9828C73.3258 16.0882 73.1898 16.1408 73.0265 16.1408V16.2725H75.6385H77.5159H77.788V16.1408C77.6248 16.1408 77.4887 16.0882 77.3799 15.9828C77.2711 15.8775 77.2166 15.7459 77.2166 15.5879V14.3767V14.087V8.29425C77.2166 7.79397 77.135 7.34634 76.9718 7.00404C76.9446 6.92505 76.9173 6.87239 76.8901 6.81973C77.135 6.58275 77.4071 6.42476 77.7064 6.31944C78.0057 6.24045 78.2234 6.18779 78.3866 6.18779C78.441 6.18779 78.4954 6.18779 78.5499 6.18779C78.6043 6.18779 78.6587 6.18779 78.7131 6.18779C78.958 6.29311 79.1756 6.42476 79.3389 6.66174C79.5021 6.89872 79.5838 7.26735 79.5838 7.76763V13.7184V14.008V15.5615C79.5838 15.7195 79.5294 15.8512 79.4205 15.9565C79.3117 16.0618 79.1756 16.1145 79.0124 16.1145V16.2461H81.6244H83.529H83.8283V16.1145C83.665 16.1145 83.529 16.0618 83.4202 15.9565C83.3113 15.8512 83.2569 15.7195 83.2569 15.5615V14.3503V14.0607V13.7711C83.4746 14.166 83.7195 14.5083 84.0188 14.8243C84.4813 15.2982 85.0527 15.6669 85.7057 15.8775C86.3315 16.1408 87.0389 16.2461 87.8824 16.2198C88.1817 16.2198 88.4537 16.1672 88.6986 16.0882C88.9435 16.0092 89.1884 15.9302 89.406 15.7985C89.787 15.6142 90.0863 15.3772 90.3855 15.1139C90.3855 15.1139 90.44 15.0876 90.4672 15.0876C90.5216 15.0876 90.5488 15.1139 90.5488 15.1666V15.5352C90.5488 15.7195 90.6304 15.8775 90.7665 16.0092C90.9025 16.1408 91.0658 16.2198 91.2562 16.2198H91.882H93.6778C93.7594 16.3778 93.841 16.5095 93.9499 16.6674C94.2764 17.1151 94.7117 17.4574 95.2287 17.668C95.6368 17.8523 96.1265 17.9576 96.6707 18.063C97.2149 18.142 97.7863 18.221 98.3576 18.2736C98.929 18.3263 99.5276 18.3789 100.126 18.4579C100.725 18.5106 101.269 18.6159 101.759 18.7476C102.276 18.8792 102.738 19.1425 103.092 19.5375C103.446 19.9325 103.636 20.4064 103.636 20.9594C103.636 21.3543 103.554 21.723 103.418 22.1179C103.282 22.5129 103.037 22.8552 102.711 23.1711C102.384 23.4871 101.976 23.7504 101.432 23.9347C100.888 24.1191 100.235 24.2244 99.4732 24.2244C98.8202 24.2244 98.1672 24.1454 97.5686 24.0137C96.97 23.8821 96.4258 23.6714 95.9361 23.4345C95.4463 23.1711 95.011 22.8815 94.6573 22.5392C94.3036 22.1969 94.0315 21.8283 93.8682 21.4333C94.2219 21.8809 94.7117 22.0916 95.2831 22.0916C95.7728 22.0916 96.2082 21.9073 96.5619 21.565C96.9156 21.2227 97.106 20.8014 97.106 20.3011C97.106 19.8008 96.9156 19.3795 96.5619 19.0372C96.2082 18.6949 95.7728 18.5106 95.2831 18.5106C94.7933 18.5106 94.3308 18.6949 94.0043 19.0372C93.6506 19.3795 93.4601 19.8008 93.4601 20.3011V20.3274C93.4601 20.8804 93.6234 21.407 93.9226 21.9073C94.2219 22.3812 94.6573 22.8288 95.2014 23.1975C95.7456 23.5661 96.3986 23.8821 97.1332 24.0664C97.8679 24.277 98.6569 24.3824 99.4732 24.3824C100.317 24.3824 101.078 24.277 101.813 24.0401C102.548 23.8031 103.201 23.4871 103.745 23.0395C104.289 22.6182 104.724 22.0916 105.024 21.4596C105.323 20.8277 105.486 20.1431 105.486 19.3795C105.459 18.7739 105.323 18.1156 105.051 17.5364ZM97.9767 9.55813V8.5049C97.9767 6.58275 98.4665 5.63484 99.446 5.63484C100.425 5.63484 100.942 6.58275 100.942 8.5049V9.55813V10.6114C100.942 12.5072 100.453 13.4551 99.446 13.4551C98.4665 13.4551 97.9767 12.5072 97.9767 10.6114V9.55813ZM90.5488 7.34634V14.3503C90.5488 14.5873 90.44 14.8506 90.2495 15.0876C90.059 15.2719 89.8958 15.3772 89.7597 15.4826C89.5149 15.6405 89.2156 15.7459 88.9163 15.7722C88.2361 15.8512 87.6919 15.4826 87.2838 14.64C87.0661 14.2187 86.9301 13.7184 86.8212 13.1128C86.7124 12.5072 86.6852 11.7699 86.7124 10.8747C86.7124 10.4534 86.7668 10.0584 86.7668 9.74244C86.794 9.42647 86.8212 9.1105 86.9029 8.79454C87.0389 8.1626 87.2022 7.68864 87.3926 7.32001C87.5559 6.95138 87.8007 6.66174 88.1 6.47743C88.3721 6.34577 88.6442 6.24045 88.9707 6.18779C89.2972 6.18779 89.5693 6.21412 89.8142 6.29311C90.059 6.3721 90.1951 6.42476 90.2495 6.47743C90.3855 6.53009 90.4672 6.60908 90.4944 6.7144C90.5216 6.81973 90.5488 6.92505 90.5488 7.0567V7.34634Z" fill="#C4C4C4"/>
</g>
<defs>
<clipPath id="clip0">
<rect x="66.9045" width="75.0954" height="24.4876" fill="white"/>
</clipPath>
</defs>
</svg>
