<svg width="219" height="162" viewBox="0 0 219 162" fill="none" xmlns="http://www.w3.org/2000/svg">
<g clip-path="url(#clip0)">
<path d="M41.5046 80.6777C56.7142 65.9826 70.8013 50.2893 83.5894 33.4461C85.0272 31.5382 81.7986 29.6681 80.3735 31.5634C67.9133 48.2423 54.2549 63.9988 39.3102 78.4918C37.8977 79.869 40.0795 82.055 41.5046 80.6777Z" fill="#6A80BE"/>
<path d="M58.6312 72.591C48.5167 83.2175 39.5372 95.1328 30.0281 106.315C28.7796 107.781 30.8731 109.916 32.1595 108.451C41.8073 97.4198 52.2623 86.7934 61.2796 75.2445C62.7173 73.3997 60.3463 70.7842 58.6312 72.591Z" fill="#6A80BE"/>
<path d="M74.0425 67.3727C82.7949 57.0621 92.3671 47.497 102.86 38.9554C104.739 37.4265 102.028 34.6466 100.174 36.264C89.9835 45.1847 80.5375 54.7877 71.9742 65.3004C70.8013 66.7409 72.8066 68.8257 74.0425 67.3727Z" fill="#6A80BE"/>
<path d="M76.7161 83.2428C68.2033 93.0227 59.7031 103.207 52.0352 113.656C51.2911 114.68 52.9054 115.855 53.763 114.983C62.7551 105.848 71.3562 95.9288 79.5537 86.0731C81.1932 84.1273 78.4313 81.2843 76.7161 83.2428Z" fill="#6A80BE"/>
<path d="M113.971 68.232C122.761 56.6705 131.791 45.2985 140.518 33.6991C142.195 31.4626 138.45 29.3398 136.785 31.5132C127.995 43.0241 119.495 54.7878 110.767 66.3493C109.317 68.2572 112.546 70.1147 113.971 68.232Z" fill="#6A80BE"/>
<path d="M100.653 95.8912C89.6053 105.393 80.6511 117.751 73.4751 130.361C72.5923 131.915 74.9507 133.305 75.8713 131.763C83.3878 119.103 92.9222 108.817 103.667 98.8984C105.672 97.0284 102.696 94.1348 100.653 95.8912Z" fill="#6A80BE"/>
<path d="M84.2199 98.9487C89.479 92.4793 94.8011 86.0605 100.224 79.7301C102.002 77.6578 98.925 75.2318 97.2477 77.4304C92.2787 83.9503 87.1837 90.3818 82.0507 96.7754C80.8022 98.2916 82.9588 100.503 84.2199 98.9487Z" fill="#6A80BE"/>
<path d="M140.468 50.3401C131.211 63.2662 122.37 76.3945 114.223 90.0409C113.012 92.0626 116.153 93.8947 117.363 91.8857C125.435 78.4415 134.212 65.3258 143.936 53.0314C145.928 50.5296 142.347 47.7119 140.468 50.3401Z" fill="#6A80BE"/>
<path d="M64.1173 118.458C56.0837 130.702 47.9618 142.883 39.7895 155.025C38.7806 156.516 41.1768 157.881 42.1857 156.428C50.522 144.361 58.9213 132.345 67.3963 120.379C68.7962 118.382 65.4667 116.399 64.1173 118.458Z" fill="#6A80BE"/>
<path d="M97.5253 124.232C89.0125 134.985 80.2726 145.523 71.4698 156.036C70.3473 157.375 72.2643 159.309 73.3867 157.957C82.2022 147.507 91.0681 137.108 100.186 126.899C101.838 125.066 99.0134 122.362 97.5253 124.232Z" fill="#6A80BE"/>
<path d="M135.322 89.0931C126.645 99.2141 119.066 110.384 112.054 121.718C111.032 123.373 113.63 124.889 114.652 123.234C121.575 112.039 129.521 101.817 137.945 91.7212C139.471 89.9017 136.886 87.2609 135.322 89.0931Z" fill="#6A80BE"/>
<path d="M122.08 130.563C115.055 138.195 108.762 146.648 102.141 154.647C100.817 156.251 103.074 158.576 104.449 156.959C111.209 149.1 118.473 141.493 124.817 133.305C126.305 131.397 123.82 128.681 122.08 130.563Z" fill="#6A80BE"/>
<path d="M159.877 94.1852C154.744 99.1636 150.355 105.57 146.597 111.635C145.575 113.29 148.161 114.794 149.195 113.151C153.041 107.048 157.619 102.045 162.487 96.7882C164.102 95.0571 161.592 92.5174 159.877 94.1852Z" fill="#6A80BE"/>
<path d="M153.42 77.0134C158.074 72.452 162.715 67.8653 167.52 63.4555C169.487 61.6486 166.397 58.5529 164.594 60.524C160.205 65.3382 155.614 69.9881 151.062 74.6632C149.573 76.1921 151.894 78.517 153.42 77.0134Z" fill="#6A80BE"/>
<path d="M48.2266 53.461C52.111 47.2317 56.752 41.5204 62.0867 36.4789C64.0289 34.6341 60.9391 31.5636 59.1609 33.5474C54.0279 39.246 49.4373 45.2858 45.3764 51.8057C44.254 53.6 47.1042 55.2679 48.2266 53.461Z" fill="#6A80BE"/>
<path d="M7.79387 78.378C4.55269 81.221 1.92949 85.0243 0.163865 88.9413C-0.693722 90.8366 2.08082 92.5171 2.98886 90.5965C4.80493 86.768 7.26418 83.7987 10.4297 81.0188C12.2331 79.4268 9.59732 76.7986 7.79387 78.378Z" fill="#6A80BE"/>
<path d="M42.8794 20.4065C47.7348 14.7837 52.6912 9.26195 57.5719 3.66442C59.3501 1.6301 56.3233 -1.37716 54.6081 0.695069C49.8662 6.4316 45.1999 12.2313 40.4201 17.9426C38.995 19.6483 41.4164 22.1123 42.8794 20.4065Z" fill="#6A80BE"/>
<path d="M193.89 21.973C196.627 16.7419 200.07 11.9277 204.509 8.02334C206.313 6.43127 203.513 3.58828 201.861 5.36989C197.636 9.94394 193.941 14.7833 191.128 20.3682C190.22 22.1878 192.932 23.8051 193.89 21.973Z" fill="#6A80BE"/>
<path d="M208.457 51.5149C200.436 57.1504 193.07 63.8725 186.222 70.8725C184.608 72.5278 187.13 75.0549 188.757 73.4123C195.492 66.5891 202.794 60.7009 210.487 55.0023C212.543 53.4861 210.613 49.9986 208.457 51.5149Z" fill="#6A80BE"/>
<path d="M182.187 108.982C175.856 114.996 169.827 121.364 163.585 127.467C161.996 129.022 164.43 131.473 166.031 129.919C172.299 123.828 178.819 117.953 184.987 111.787C186.79 109.967 184.028 107.225 182.187 108.982Z" fill="#6A80BE"/>
<path d="M147.202 150.073C143.759 152.878 140.531 155.986 137.214 158.943C135.461 160.522 138.021 163.037 139.787 161.52C143.166 158.627 146.672 155.834 149.901 152.777C151.73 151.058 149.069 148.556 147.202 150.073Z" fill="#6A80BE"/>
<path d="M153.041 21.9606C154.984 18.6501 157.115 15.4028 158.944 12.0418C160.091 9.94427 156.938 8.08685 155.728 10.1591C153.798 13.4822 152.146 16.9949 150.33 20.3686C149.384 22.1502 152.02 23.7043 153.041 21.9606Z" fill="#6A80BE"/>
<path d="M116.279 29.0996C118.183 27.4444 120.075 25.7512 122.017 24.1465C123.543 22.883 121.285 20.5328 119.81 21.9353C117.994 23.679 116.102 25.3595 114.236 27.0527C112.861 28.3289 114.891 30.3126 116.279 29.0996Z" fill="#6A80BE"/>
<path d="M215.305 8.21328C207.574 19.7242 198.052 29.8453 187.685 38.9681C186.26 40.2191 188.341 42.2786 189.754 41.0404C200.335 31.8417 209.655 21.5311 218.47 10.6519C220.311 8.40282 216.944 5.77463 215.305 8.21328Z" fill="#6A80BE"/>
</g>
<defs>
<clipPath id="clip0">
<rect width="219" height="162" fill="white"/>
</clipPath>
</defs>
</svg>
