<svg width="82" height="34" viewBox="0 0 82 34" fill="none" xmlns="http://www.w3.org/2000/svg">
<path fill-rule="evenodd" clip-rule="evenodd" d="M3.01482 32.5067H0.546875V32.9853H14.2127V24.3694H13.8075C13.8075 24.3694 13.8075 29.3401 12.1499 30.9602C10.7502 32.3594 9.27677 32.4699 6.8825 32.4699V16.6004C6.8825 16.6004 8.54007 16.49 9.35044 17.3C10.6028 18.5519 10.7502 20.172 10.7502 22.418H11.1922V10.2674H10.7502C10.7502 12.5134 10.6397 14.1335 9.35044 15.3854C8.54007 16.1954 6.8825 16.0849 6.8825 16.0849V1.02554C9.27677 1.02554 10.4187 1.17282 11.8184 2.53516C13.4391 4.15524 13.476 9.12595 13.476 9.12595H13.8811V0.546875H0.546875V1.02554H3.01482V32.5067Z" fill="black"/>
<path fill-rule="evenodd" clip-rule="evenodd" d="M29.7204 1.02554V32.5067C32.1147 32.5067 33.5881 32.3594 34.9878 30.997C36.6085 29.377 36.6454 24.4063 36.6454 24.4063H37.0506V33.0221H23.3848V32.5435H25.8527V0.988715H23.3848V0.546875H31.9673V1.02554H29.7204Z" fill="black"/>
<path fill-rule="evenodd" clip-rule="evenodd" d="M51.6735 1.02554V32.5067C54.0678 32.5067 55.5412 32.3594 56.9409 30.997C58.5617 29.377 58.5985 24.4063 58.5985 24.4063H59.0037V33.0221H45.3379V32.5435H47.8058V0.988715H45.3379V0.546875H53.9205V1.02554H51.6735Z" fill="black"/>
<path fill-rule="evenodd" clip-rule="evenodd" d="M70.3117 32.5067H67.8438V32.9853H81.5095V24.3694H81.1043C81.1043 24.3694 81.1043 29.3401 79.4468 30.9602C78.047 32.3594 76.5736 32.4699 74.1794 32.4699V16.6004C74.1794 16.6004 75.8369 16.49 76.6473 17.3C77.8997 18.5519 78.047 20.172 78.047 22.418H78.4891V10.2674H78.047C78.047 12.5134 77.9365 14.1335 76.6473 15.3854C75.8369 16.1954 74.1794 16.0849 74.1794 16.0849V1.02554C76.5736 1.02554 77.7155 1.17282 79.1153 2.53516C80.736 4.15524 80.7728 9.12595 80.7728 9.12595H81.178V0.546875H67.8438V1.02554H70.3117V32.5067Z" fill="black"/>
</svg>
