<svg width="836" height="321" viewBox="0 0 836 321" fill="none" xmlns="http://www.w3.org/2000/svg">
<g opacity="0.5">
<path opacity="0.7" d="M0.0536499 126.643C2.90552 130.907 6.04608 134.943 10.9376 138.649C11.3889 138.993 11.8582 139.336 12.3455 139.679C20.847 145.532 32.9402 148.752 44.6545 151.843C51.2427 153.589 58.1558 155.306 65.466 157.137C94.3095 164.335 127.016 172.492 149.776 184.856C155.372 187.904 160.263 191.581 164.974 195.13C175.317 202.915 185.082 210.27 201.651 211.286C222.752 212.574 241.307 207.666 260.945 202.486C264.862 201.455 268.905 200.382 272.93 199.38C278.291 198.05 282.767 196.991 287.171 196.103C316.791 190.136 339.66 191.739 361.302 201.312C363.269 202.185 365.273 203.044 367.42 203.931C375.832 207.394 382.221 210.342 387.365 212.717C401.029 219.028 406.137 221.389 419.043 219.901C421.191 219.658 423.844 219.171 426.624 218.67C438.825 216.452 455.521 213.418 467.019 221.99C478.174 230.304 481.26 244.385 483.751 255.69C484.852 260.713 486.26 266.494 488.986 271.631C492.235 277.756 496.314 282.149 501.837 285.454C509.31 289.905 519.309 291.88 528.984 293.783L531.98 294.37C537.955 295.572 543.207 296.673 547.016 298.176C553.802 300.866 555.752 302.741 560.95 307.749L562.123 308.88C563.585 310.282 565.192 311.785 567.105 313.33L569.433 315.219C571.78 317.137 574.181 319.083 576.689 320.986H575.029C572.827 319.283 570.697 317.552 568.603 315.863L566.275 313.974C564.325 312.4 562.683 310.883 561.221 309.467L560.048 308.336C554.813 303.299 553.062 301.596 546.492 299.006C542.792 297.546 537.594 296.445 531.691 295.257L528.713 294.67C518.93 292.738 508.822 290.749 501.151 286.184C495.447 282.793 491.242 278.271 487.921 271.989C485.159 266.766 483.733 260.913 482.614 255.847C480.159 244.671 477.091 230.762 466.225 222.648C455.16 214.406 438.807 217.382 426.858 219.557C424.043 220.072 421.371 220.559 419.169 220.802C405.866 222.333 400.271 219.758 386.752 213.519C381.626 211.157 375.254 208.21 366.861 204.761C364.695 203.874 362.691 203.015 360.706 202.142C339.335 192.698 316.719 191.124 287.406 197.019C283.02 197.906 278.561 198.965 273.219 200.282C269.194 201.284 265.151 202.357 261.252 203.387C241.487 208.61 222.842 213.533 201.507 212.231C184.54 211.186 174.613 203.731 164.126 195.832C159.433 192.297 154.596 188.648 149.072 185.643C126.456 173.351 93.8401 165.208 65.0688 158.039C57.7406 156.207 50.8276 154.49 44.2394 152.744C32.9764 149.754 20.2152 146.376 11.5513 140.395C11.046 140.051 10.5586 139.694 10.0893 139.336C5.70319 136.002 2.6347 132.31 -0.000549316 128.561V126.643H0.0536499Z" fill="url(#paint0_linear)"/>
<path opacity="0.7" d="M0.0541992 108.483C1.78699 109.9 3.42944 111.388 4.96368 112.962C6.80475 114.851 8.5014 116.755 10.144 118.601C14.4398 123.452 18.519 128.031 25.1252 132.181C25.5945 132.467 26.0639 132.753 26.5512 133.039C34.8902 137.847 46.1894 140.666 57.1275 143.4L57.6509 143.528C62.0912 144.63 66.6758 145.761 71.3868 146.906C100.555 154.003 133.604 162.06 157.43 174.18C162.719 176.87 167.466 180.076 172.032 183.167C182.339 190.136 192.067 196.718 207.644 197.892C228.293 199.466 246.451 195.144 265.692 190.579C270.512 189.435 275.493 188.247 280.493 187.174C284.861 186.243 290.005 185.17 295.15 184.355C324.751 179.647 347.765 182.637 369.785 194.085C371.753 195.101 373.774 196.103 375.796 197.047C405.163 210.771 411.282 213.633 429.62 207.737C430.505 207.451 431.479 207.122 432.508 206.793C444.367 202.857 464.222 196.26 478.138 205.562C489.383 213.075 492.632 226.454 494.455 239.791C495.285 245.816 496.134 251.21 498.191 256.319C500.827 262.859 504.527 267.567 509.797 271.159C516.53 275.723 525.826 278.07 534.832 280.331C536.493 280.746 538.154 281.161 539.76 281.59C545.175 283.021 550.716 284.653 554.434 286.985C558.821 289.733 560.301 292.108 562.34 295.399C563.333 297.002 564.47 298.834 566.149 301.023C567.575 302.869 569.019 304.472 570.589 305.932C576.166 311.126 583.332 317.022 591.924 321H589.704C581.708 316.993 575.011 311.441 569.723 306.518C568.116 305.016 566.618 303.384 565.174 301.496C563.459 299.263 562.322 297.432 561.311 295.8C559.344 292.623 557.918 290.334 553.731 287.701C550.157 285.454 544.742 283.851 539.417 282.463C537.811 282.034 536.168 281.633 534.508 281.218C525.41 278.929 515.988 276.568 509.075 271.874C503.624 268.168 499.834 263.331 497.126 256.62C495.033 251.439 494.166 245.987 493.336 239.906C491.531 226.755 488.354 213.59 477.416 206.277C464.041 197.334 444.584 203.787 432.978 207.651C431.949 207.995 430.974 208.309 430.072 208.61C411.21 214.677 405.001 211.787 375.236 197.863C373.197 196.919 371.157 195.903 369.19 194.872C347.44 183.568 324.697 180.605 295.402 185.27C290.294 186.086 285.168 187.145 280.818 188.075C275.836 189.148 270.855 190.336 266.053 191.481C246.722 196.074 228.456 200.425 207.572 198.836C191.652 197.634 181.779 190.951 171.328 183.897C166.78 180.82 162.069 177.643 156.852 174.982C133.153 162.933 100.176 154.89 71.098 147.807C66.387 146.662 61.7844 145.546 57.3622 144.43L56.8387 144.301C45.8283 141.554 34.4209 138.706 25.9375 133.812C25.4321 133.526 24.9448 133.225 24.4755 132.925C17.7249 128.689 13.6095 124.067 9.25952 119.159C7.63507 117.327 5.93842 115.424 4.11542 113.549C2.85193 112.261 1.51617 111.031 0.108276 109.829V108.483H0.0541992Z" fill="url(#paint1_linear)"/>
<path opacity="0.7" d="M0.053772 100.355C6.64197 103.318 12.3096 106.623 17.2913 110.401C18.9518 111.66 20.5403 112.92 22.0925 114.15C27.2728 118.257 32.1643 122.149 39.312 125.713C39.7813 125.942 40.2506 126.185 40.756 126.414C48.8062 130.163 59.0584 132.538 68.9858 134.842L72.4694 135.658C101.981 142.512 138.694 151.055 165.101 163.519C170.064 165.852 174.613 168.585 178.999 171.218C189.305 177.386 199.034 183.196 213.655 184.541C233.943 186.401 251.776 182.58 270.656 178.545C276.305 177.343 282.135 176.084 288.038 174.996C294.03 173.908 298.813 173.15 303.091 172.649C332.729 169.115 355.905 173.508 378.232 186.916C380.182 188.09 382.167 189.206 384.117 190.236C413.411 205.648 421.931 205.276 440.179 195.659C461.586 184.369 477.614 182.265 489.202 189.206C502.09 196.933 504.454 212.731 505.104 223.95L505.122 224.151C505.447 229.803 505.79 235.656 507.36 241.051C509.382 247.991 512.667 253.028 517.721 256.906C523.876 261.628 532.648 264.276 541.131 266.851C543.297 267.51 545.445 268.154 547.503 268.826C552.593 270.486 558.279 272.618 561.798 275.809C565.3 279 566.148 281.948 567.123 285.383C567.773 287.644 568.495 290.205 570.137 293.167C571.22 295.128 572.502 296.874 574.054 298.519C585.353 310.625 605.172 321.601 626.94 316.063C641.596 312.328 653.581 304.443 665.169 296.802C672.443 292.008 679.32 287.486 686.739 283.98C698.255 278.543 713.344 271.931 727.946 268.955C735.618 267.381 741.448 267.138 746.249 268.196C751.736 269.398 754.227 272.103 756.628 274.707C760.58 279 764.317 283.064 782.042 279.458C807.979 274.178 822.509 256.248 828.881 246.016C831.354 242.052 833.393 238.045 835.09 234.01V236.729C833.592 239.977 831.913 243.211 829.91 246.417C823.466 256.777 808.701 274.965 782.33 280.331C763.865 284.095 759.714 279.587 755.707 275.237C753.415 272.747 751.05 270.186 745.96 269.069C741.339 268.068 735.726 268.297 728.253 269.842C713.795 272.79 698.796 279.372 687.353 284.767C680.024 288.23 673.184 292.738 665.927 297.503C654.249 305.188 642.174 313.144 627.319 316.922C604.973 322.617 584.685 311.427 573.152 299.063C571.563 297.36 570.228 295.557 569.109 293.539C567.412 290.506 566.672 287.887 566.022 285.597C565.083 282.292 564.271 279.43 560.968 276.425C557.611 273.377 552.088 271.302 547.106 269.685C545.048 269.012 542.918 268.368 540.752 267.71C532.161 265.106 523.28 262.415 516.963 257.564C511.746 253.557 508.335 248.377 506.277 241.265C504.689 235.785 504.346 229.889 504.003 224.193L503.985 223.993C503.335 212.96 501.043 197.42 488.534 189.936C477.398 183.253 461.803 185.385 440.847 196.418C421.317 206.721 411.66 205.805 383.503 190.994C381.517 189.95 379.514 188.834 377.546 187.646C355.49 174.395 332.585 170.059 303.272 173.551C299.03 174.052 294.265 174.796 288.308 175.883C282.424 176.971 276.594 178.216 270.963 179.418C251.974 183.482 234.051 187.317 213.528 185.442C198.583 184.068 188.746 178.173 178.313 171.934C173.945 169.315 169.415 166.61 164.505 164.292C138.225 151.885 101.584 143.371 72.1445 136.517L68.6609 135.701C58.6794 133.383 48.3549 130.993 40.1784 127.187C39.673 126.958 39.1857 126.714 38.7164 126.471C31.4423 122.851 26.5147 118.93 21.2803 114.78C19.728 113.549 18.1577 112.304 16.4971 111.045C11.7319 107.425 6.29901 104.248 0.053772 101.386V100.355Z" fill="url(#paint2_linear)"/>
<path opacity="0.7" d="M0.0521851 95.9624C2.68744 96.8353 5.26855 97.6796 7.77747 98.5382C16.2428 101.472 23.3724 104.505 29.5996 107.825L31.9821 109.099C38.9674 112.848 45.0141 116.082 53.4794 119.23C53.9487 119.402 54.4361 119.588 54.9235 119.76C62.4141 122.407 71.3488 124.296 79.9765 126.113L83.6586 126.9C108.441 132.195 144.631 140.652 172.752 152.816C177.301 154.776 181.579 157.008 185.73 159.169C196.109 164.55 205.91 169.644 219.646 171.147C239.645 173.322 257.207 169.93 275.798 166.353C282.206 165.122 288.83 163.834 295.563 162.804C301.447 161.902 306.501 161.287 311.031 160.915C341.157 158.454 363.773 164.063 386.678 179.704C388.591 181.006 390.541 182.237 392.454 183.367C420.034 199.566 431.712 197.491 450.791 183.525C457.686 178.473 481.638 162.761 500.283 172.792C510.842 178.473 516.059 190.336 515.77 208.052L515.752 209.268C515.662 214.749 515.553 220.43 516.528 225.739C517.918 233.08 520.824 238.446 525.661 242.61C531.329 247.49 539.704 250.452 547.79 253.314C550.281 254.187 552.862 255.103 555.263 256.047C562.465 258.852 566.616 261.428 569.143 264.619C572.121 268.368 572.302 272.032 572.482 275.895C572.627 278.829 572.771 281.862 574.107 285.297C574.901 287.357 576.056 289.318 577.5 291.107C587.644 303.685 610.062 313.745 631.613 307.606C647.136 303.184 659.356 294.112 671.16 285.34C677.46 280.66 683.416 276.224 689.842 272.475C701.285 265.778 716.285 257.679 730.905 254.345C738.504 252.599 744.623 252.513 749.551 254.073C755.128 255.833 757.276 259.467 759.352 262.973C762.781 268.769 765.994 274.264 784.802 270.958C802.797 267.81 819.187 256.133 828.645 239.748C831.442 234.897 833.5 230.003 835.07 225.109V228.601C833.644 232.465 831.894 236.314 829.691 240.135C820.089 256.792 803.393 268.64 785.036 271.86C765.326 275.309 761.752 269.241 758.287 263.374C756.229 259.868 754.28 256.563 749.117 254.931C744.424 253.443 738.558 253.543 731.212 255.232C716.772 258.523 701.881 266.579 690.51 273.219C684.156 276.94 678.218 281.347 671.937 286.012C660.042 294.842 647.732 303.986 631.992 308.479C609.647 314.847 587.175 304.816 576.526 291.608C575.027 289.747 573.836 287.715 573.006 285.569C571.634 282.02 571.49 278.929 571.327 275.938C571.129 272.032 570.966 268.669 568.15 265.12C565.75 262.072 561.725 259.611 554.739 256.877C552.357 255.947 549.902 255.074 547.303 254.158C539.108 251.268 530.625 248.263 524.795 243.24C519.795 238.933 516.799 233.423 515.373 225.882C514.38 220.487 514.488 214.778 514.579 209.254L514.597 208.038C514.886 190.651 509.85 179.046 499.615 173.536C481.674 163.892 458.3 179.246 451.549 184.183C432.831 197.892 420.395 200.911 391.75 184.083C389.801 182.938 387.851 181.693 385.902 180.377C363.268 164.922 340.904 159.37 311.14 161.802C306.645 162.174 301.628 162.775 295.779 163.677C289.065 164.707 282.459 165.981 276.051 167.226C257.352 170.832 239.681 174.238 219.465 172.048C205.44 170.517 195.098 165.137 185.08 159.942C180.947 157.796 176.687 155.578 172.175 153.631C144.161 141.525 108.062 133.082 83.3337 127.802L79.6696 127.029C71.0057 125.198 62.035 123.294 54.4541 120.633C53.9487 120.461 53.4614 120.275 52.9741 120.103C44.4185 116.926 38.0469 113.521 31.3143 109.9L28.9318 108.627C22.7588 105.335 15.6832 102.33 7.2901 99.4111C4.92554 98.5954 2.5069 97.7941 0.0341187 96.9784V95.9624H0.0521851Z" fill="url(#paint3_linear)"/>
<path opacity="0.7" d="M0.0526733 92.3135C6.37006 94.6317 13.1026 96.6637 19.7991 98.5812C27.4521 100.771 34.9067 102.931 41.892 105.278C50.7905 108.255 58.4977 110.501 67.649 112.777L69.111 113.134C75.2479 114.608 82.0166 115.853 88.5687 117.07C91.2761 117.57 93.9836 118.071 96.655 118.586C126.527 124.353 156.273 132.71 180.388 142.126C184.359 143.672 188.239 145.375 191.976 147.02C202.571 151.685 212.571 156.078 225.639 157.738C245.403 160.257 262.767 157.238 281.142 154.032C288.235 152.801 295.581 151.514 303.126 150.569C309.01 149.839 314.209 149.367 318.992 149.152C349.261 147.75 372.022 154.719 395.126 172.463C397.003 173.909 398.898 175.254 400.793 176.484C428.157 194.329 443.21 188.448 461.423 171.376C474.13 159.47 494.815 148.394 511.348 156.379C525.788 163.348 527.503 179.69 526.42 192.154L526.221 194.429C525.734 199.738 525.229 205.219 525.698 210.428C526.402 218.141 528.911 223.822 533.586 228.315C538.856 233.381 546.906 236.629 554.686 239.763C557.465 240.879 560.353 242.038 563.007 243.254C567.79 245.444 573.656 248.563 576.472 253.4C579.035 257.793 578.53 262.072 577.97 266.594C577.555 270.028 577.122 273.592 578.06 277.398C578.602 279.616 579.576 281.72 580.93 283.666C589.991 296.716 614.394 306.046 636.271 299.12C652.768 293.912 665.223 283.48 677.262 273.391C682.334 269.155 687.568 264.762 692.929 260.956C708.722 249.708 722.494 242.568 733.848 239.706C741.537 237.774 747.746 237.845 752.836 239.935C758.468 242.253 760.255 246.76 761.987 251.139C764.875 258.437 767.583 265.349 787.564 262.444C807.978 259.453 822.057 245.501 828.428 233.438C832.038 226.583 834.078 219.686 835.053 212.803V218.87C833.879 223.85 832.093 228.83 829.493 233.796C823.014 246.088 808.646 260.298 787.78 263.317C766.807 266.365 763.792 258.752 760.886 251.383C759.153 247.004 757.529 242.854 752.313 240.722C747.511 238.747 741.573 238.69 734.191 240.55C722.982 243.369 709.354 250.452 693.687 261.6C688.362 265.392 683.381 269.57 678.092 273.992C665.963 284.152 653.418 294.656 636.686 299.95C614.25 307.034 589.233 297.475 579.919 284.081C578.511 282.049 577.501 279.859 576.923 277.555C575.948 273.62 576.382 270 576.815 266.494C577.338 262.101 577.844 257.936 575.407 253.772C573.313 250.18 569.306 247.175 562.411 244.027C559.776 242.825 556.906 241.666 554.144 240.55C546.257 237.373 538.098 234.096 532.665 228.873C527.846 224.237 525.247 218.384 524.525 210.47C524.055 205.19 524.561 199.666 525.048 194.329L525.247 192.068C526.312 179.847 524.669 163.863 510.735 157.123C494.815 149.424 474.689 160.3 462.271 171.934C443.589 189.464 428.139 195.474 400.035 177.157C398.122 175.912 396.209 174.538 394.296 173.093C371.445 155.549 348.936 148.652 319.028 150.04C314.263 150.254 309.119 150.727 303.271 151.456C295.762 152.401 288.452 153.674 281.358 154.905C262.875 158.125 245.403 161.158 225.44 158.626C212.192 156.937 201.632 152.301 191.398 147.807C187.68 146.176 183.817 144.473 179.864 142.942C155.804 133.555 126.166 125.226 96.3661 119.474C93.6948 118.959 90.9873 118.458 88.2979 117.957C81.7278 116.741 74.923 115.496 68.7681 114.007L67.288 113.65C58.0826 111.36 50.3573 109.113 41.4227 106.123C34.4735 103.79 27.037 101.644 19.3839 99.4541C12.8318 97.5795 6.24371 95.5904 0.0346069 93.3438V92.3135H0.0526733Z" fill="url(#paint4_linear)"/>
<path opacity="0.7" d="M814.064 130.163C814.479 134.327 815.653 138.392 816.898 142.527C818.631 148.194 820.869 153.975 823.234 160.1C831.248 180.763 840.309 204.188 829.298 227.499C822.331 242.224 807.115 252.957 790.509 254.831C768.236 257.35 765.817 248.234 763.489 239.405C762.099 234.168 760.799 229.217 755.529 226.569C750.619 224.094 744.627 223.893 737.19 225.94C721.108 230.347 703.636 244.271 696.867 250.052C692.625 253.672 688.456 257.636 684.413 261.457C672.049 273.162 659.251 285.283 641.4 291.493C620.444 298.777 592.233 291.551 583.334 276.625C582.017 274.422 581.204 272.06 580.879 269.599C580.32 265.335 581.349 261.242 582.323 257.278C583.587 252.17 584.778 247.347 582.684 242.496C580.879 238.332 576.999 234.869 570.104 231.249C567.306 229.789 564.219 228.401 561.241 227.056C553.57 223.593 545.646 220.015 540.556 214.577C535.899 209.583 533.715 203.401 533.679 195.13C533.679 189.979 534.528 184.67 535.376 179.518C535.556 178.388 535.737 177.272 535.917 176.155C537.217 167.913 538.444 147.951 521.857 140.767C504.619 133.269 484.764 146.305 472.996 159.756C461.155 173.279 450.506 180.033 439.441 181.035C429.767 181.908 419.587 178.388 408.342 170.288C406.519 168.986 404.642 167.484 402.728 165.852C379.805 146.176 357.135 137.948 326.955 138.32C321.938 138.377 316.649 138.692 310.801 139.264C302.57 140.08 294.592 141.339 286.867 142.556C268.546 145.446 251.219 148.165 231.436 145.246C218.386 143.314 207.069 139.25 196.131 135.301C193.297 134.285 190.463 133.254 187.593 132.267C168.334 125.641 139.292 116.225 109.42 111.16C100.72 109.686 91.6586 108.498 83.103 107.411L81.623 107.225C78.5545 106.838 75.5763 106.48 72.6522 106.123C66.2626 105.364 60.234 104.634 53.9346 103.633C47.2021 102.559 39.3685 101.257 31.4988 99.5115C21.3909 97.2505 9.44202 93.5729 0.0380859 87.7058V86.5181C9.38782 92.5568 21.5534 96.3347 31.8057 98.6243C39.6212 100.37 47.4548 101.658 54.1512 102.731C60.4326 103.733 66.4432 104.448 72.8147 105.207C75.7388 105.55 78.717 105.908 81.8035 106.309L83.2836 106.495C91.8392 107.582 100.918 108.77 109.654 110.258C139.617 115.353 168.749 124.783 188.044 131.423C190.932 132.41 193.766 133.44 196.6 134.456C207.971 138.549 218.711 142.427 231.635 144.33C251.201 147.221 268.42 144.516 286.632 141.64C294.376 140.424 302.372 139.164 310.656 138.349C316.559 137.762 321.883 137.461 326.937 137.39C357.477 137.003 380.401 145.332 403.559 165.223C405.454 166.84 407.313 168.314 409.118 169.601C420.11 177.515 429.983 180.964 439.315 180.105C450.019 179.146 460.415 172.506 472.057 159.212C484.097 145.461 504.493 132.152 522.416 139.951C539.618 147.392 538.39 167.813 537.055 176.241C536.874 177.357 536.694 178.474 536.513 179.604C535.683 184.727 534.816 190.007 534.834 195.102C534.853 203.172 536.964 209.183 541.477 214.005C546.44 219.285 554.256 222.82 561.819 226.226C564.815 227.585 567.92 228.973 570.735 230.447C575.537 232.966 581.349 236.572 583.767 242.167C585.969 247.247 584.742 252.198 583.442 257.421C582.468 261.328 581.475 265.349 582.017 269.485C582.323 271.846 583.118 274.107 584.363 276.21C593.009 290.735 620.481 297.732 640.913 290.635C658.529 284.51 671.237 272.475 683.51 260.856C687.553 257.021 691.759 253.057 696.001 249.408C704.484 242.167 721.054 229.374 736.793 225.052C744.464 222.949 750.98 223.192 756.125 225.782C761.792 228.644 763.218 234.01 764.59 239.205C766.918 248.005 769.12 256.305 790.329 253.915C806.519 252.084 821.392 241.58 828.197 227.156C839.081 204.146 830.056 180.878 822.114 160.343C819.732 154.218 817.494 148.423 815.761 142.727C814.552 138.721 813.324 134.456 812.891 130.221" fill="url(#paint5_linear)"/>
<path opacity="0.7" d="M806.121 141.297C808.431 145.675 810.94 150.011 813.612 154.605C825.958 175.898 838.701 197.907 829.116 221.189C823.431 234.998 809.009 245.101 793.252 246.331C769.697 248.163 767.874 237.588 766.105 227.356C765.058 221.303 764.065 215.579 758.759 212.417C742.279 202.629 714.103 224.194 700.061 238.489C696.956 241.652 693.87 244.972 690.873 248.192C678.275 261.743 665.261 275.752 646.11 283.036C632.248 288.302 613.277 287.458 599.957 280.99C590.445 276.368 585.066 269.499 584.831 261.643C584.687 257.078 586.275 252.542 587.791 248.149C589.813 242.296 591.744 236.772 589.975 231.191C587.34 222.906 578.117 218.298 568.334 213.418C560.897 209.712 553.208 205.877 548.443 200.225C539.707 189.879 542.739 176.814 545.663 164.192C545.97 162.847 546.277 161.516 546.584 160.2C548.046 153.603 551.367 131.523 532.992 124.368C514.617 117.227 494.961 132.381 483.716 147.536C471.081 164.536 458.591 173.222 445.487 174.081C434.332 174.81 422.78 169.602 411.138 158.597C384.045 132.982 358.036 124.139 318.308 127.058C309.41 127.716 300.818 128.933 292.515 130.12C274.447 132.696 257.372 135.143 237.969 131.924C237.788 131.895 237.59 131.866 237.409 131.823C217.952 128.503 199.739 122.966 182.123 117.614C155.355 109.486 127.685 101.071 95.9532 100.757C90.8091 100.699 85.5566 100.814 80.4666 100.928C68.3191 101.186 55.7384 101.443 43.627 99.5402C28.05 97.0789 9.31439 89.3658 3.7912 75.0416C-0.0354004 65.1105 3.46631 54.6071 6.85968 44.4327C10.3433 33.9436 13.9713 23.1109 9.26025 13.1799C7.25671 8.97275 3.91754 5.35234 0.072937 2.01813V0.658691C4.36877 4.2791 8.12311 8.20002 10.3252 12.865C15.1625 23.068 11.4984 34.058 7.96069 44.676C4.62146 54.7215 1.15594 65.0962 4.89221 74.784C10.1808 88.5216 28.014 96.0343 43.1938 98.5385C43.4105 98.5814 43.627 98.61 43.8436 98.6387C55.8467 100.528 68.3372 100.256 80.4305 100.012C85.5205 99.9122 90.791 99.7978 95.9532 99.8407C127.883 100.17 155.644 108.613 182.502 116.769C200.082 122.107 218.24 127.631 237.626 130.95C237.806 130.979 238.005 131.008 238.185 131.051C257.372 134.227 274.339 131.809 292.299 129.233C300.62 128.046 309.229 126.815 318.182 126.157C357.801 123.252 384.984 132.482 411.987 158.025C423.376 168.8 434.603 173.895 445.361 173.193C458.049 172.363 470.269 163.82 482.687 147.092C494.185 131.609 514.383 116.154 533.461 123.567C552.558 130.993 549.165 153.617 547.685 160.372C547.396 161.688 547.089 163.033 546.764 164.378C543.876 176.828 540.898 189.693 549.363 199.738C554.002 205.219 561.583 209.011 568.911 212.66C578.893 217.64 588.315 222.334 591.058 230.977C592.899 236.787 590.86 242.682 588.874 248.392C587.376 252.713 585.824 257.193 585.95 261.614C586.185 269.141 591.347 275.752 600.516 280.203C613.53 286.513 632.049 287.343 645.568 282.206C664.449 275.023 677.39 261.113 689.899 247.648C692.895 244.428 695.981 241.094 699.104 237.931C702.66 234.325 731.521 205.763 752.694 209.269C755.04 209.655 757.297 210.442 759.408 211.701C765.112 215.093 766.177 221.275 767.206 227.242C768.975 237.502 770.635 247.19 793.107 245.444C808.413 244.256 822.438 234.397 827.997 220.917C837.455 197.978 824.785 176.127 812.547 154.991C810.002 150.598 807.367 146.047 805.038 141.654" fill="url(#paint6_linear)"/>
<path d="M806.643 141.124C808.953 145.489 811.462 149.825 814.116 154.418C826.516 175.783 839.313 197.878 829.638 221.317C823.881 235.298 809.26 245.53 793.286 246.774C769.19 248.649 767.222 237.359 765.508 227.399C764.479 221.432 763.504 215.808 758.378 212.76C742.26 203.172 714.391 224.58 700.474 238.747C697.37 241.895 694.283 245.215 691.305 248.434C678.67 262.029 665.602 276.081 646.325 283.408C632.3 288.745 613.096 287.887 599.63 281.347C589.938 276.639 584.487 269.642 584.234 261.628C584.09 257.006 585.678 252.427 587.212 248.005C589.216 242.21 591.111 236.743 589.378 231.291C586.797 223.177 577.664 218.627 567.989 213.804C560.498 210.07 552.773 206.206 547.936 200.482C539.073 189.978 542.124 176.828 545.066 164.12C545.373 162.775 545.68 161.444 545.986 160.128C547.43 153.603 550.734 131.794 532.702 124.782C514.67 117.785 495.303 132.782 484.166 147.764C471.441 164.907 458.788 173.651 445.503 174.524C434.15 175.268 422.436 170.002 410.667 158.883C383.719 133.411 357.836 124.611 318.343 127.501C309.462 128.145 300.889 129.376 292.604 130.564C274.301 133.182 257.046 135.601 237.263 132.267C217.752 128.932 199.521 123.394 181.887 118.028C153.946 109.528 127.539 101.515 95.9157 101.2C90.7715 101.142 85.537 101.257 80.447 101.371C68.2634 101.629 55.6647 101.887 43.4811 99.9834C27.6515 97.4935 8.78955 89.6802 3.21216 75.17C-0.668579 65.1101 2.86914 54.5351 6.26251 44.3178C9.8905 33.428 13.32 23.1391 8.68121 13.3368C6.76794 9.30145 3.6814 5.88138 0.0354004 2.67595V0C4.54779 3.7492 8.51874 7.82752 10.8291 12.7072C15.7386 23.0533 12.0385 34.1005 8.48267 44.79C5.1615 54.764 1.71399 65.0815 5.39618 74.6405C10.6848 88.378 28.7886 95.8192 43.9143 98.1946C55.8452 100.069 68.3176 99.8117 80.3749 99.5541C85.483 99.4539 90.7535 99.3394 95.9338 99.3824C127.954 99.6972 155.787 108.154 182.699 116.325C200.261 121.663 218.401 127.172 237.733 130.478C256.938 133.769 274.121 131.336 292.189 128.761C300.528 127.573 309.137 126.342 318.126 125.684C357.962 122.765 385.271 132.038 412.436 157.71C423.699 168.356 434.764 173.408 445.323 172.706C457.651 171.891 470.051 163.19 482.199 146.834C493.823 131.179 514.291 115.581 533.731 123.137C553.188 130.707 549.777 153.588 548.261 160.428C547.972 161.745 547.665 163.09 547.34 164.435C544.47 176.799 541.51 189.578 549.867 199.466C554.434 204.875 561.961 208.624 569.235 212.259C578.873 217.067 588.819 222.033 591.616 230.848C593.493 236.772 591.436 242.739 589.432 248.492C587.934 252.785 586.4 257.235 586.526 261.585C586.743 268.955 591.833 275.423 600.822 279.787C613.673 286.027 631.976 286.842 645.332 281.762C664.086 274.636 676.992 260.755 689.464 247.347C692.46 244.127 695.547 240.793 698.669 237.616C702.243 233.981 731.321 205.219 752.855 208.796C755.273 209.197 757.584 209.998 759.768 211.3C765.67 214.806 766.753 221.074 767.8 227.156C769.533 237.187 771.157 246.66 793.07 244.957C808.159 243.784 821.985 234.053 827.454 220.745C836.84 197.978 824.224 176.212 812.022 155.162C809.477 150.769 806.842 146.219 804.513 141.811" fill="url(#paint7_linear)"/>
</g>
<defs>
<linearGradient id="paint0_linear" x1="288.344" y1="126.643" x2="288.344" y2="320.986" gradientUnits="userSpaceOnUse">
<stop stop-color="#B98787" stop-opacity="0"/>
<stop offset="0.84375" stop-color="#CCA1A1" stop-opacity="0.53"/>
</linearGradient>
<linearGradient id="paint1_linear" x1="295.989" y1="108.483" x2="295.989" y2="321" gradientUnits="userSpaceOnUse">
<stop stop-color="#B98787" stop-opacity="0"/>
<stop offset="0.84375" stop-color="#CCA1A1" stop-opacity="0.53"/>
</linearGradient>
<linearGradient id="paint2_linear" x1="417.572" y1="100.355" x2="417.572" y2="318.448" gradientUnits="userSpaceOnUse">
<stop stop-color="#B98787" stop-opacity="0"/>
<stop offset="0.84375" stop-color="#CCA1A1" stop-opacity="0.53"/>
</linearGradient>
<linearGradient id="paint3_linear" x1="417.552" y1="95.9624" x2="417.552" y2="310.444" gradientUnits="userSpaceOnUse">
<stop stop-color="#B98787" stop-opacity="0"/>
<stop offset="0.84375" stop-color="#CCA1A1" stop-opacity="0.53"/>
</linearGradient>
<linearGradient id="paint4_linear" x1="417.544" y1="92.3135" x2="417.544" y2="302.353" gradientUnits="userSpaceOnUse">
<stop stop-color="#B98787" stop-opacity="0"/>
<stop offset="0.84375" stop-color="#CCA1A1" stop-opacity="0.53"/>
</linearGradient>
<linearGradient id="paint5_linear" x1="417.219" y1="86.5181" x2="417.219" y2="294.354" gradientUnits="userSpaceOnUse">
<stop stop-color="#B98787" stop-opacity="0"/>
<stop offset="0.84375" stop-color="#CCA1A1" stop-opacity="0.53"/>
</linearGradient>
<linearGradient id="paint6_linear" x1="416.274" y1="0.658691" x2="416.274" y2="286.48" gradientUnits="userSpaceOnUse">
<stop stop-color="#B98787" stop-opacity="0"/>
<stop offset="0.84375" stop-color="#CCA1A1" stop-opacity="0.53"/>
</linearGradient>
<linearGradient id="paint7_linear" x1="416.537" y1="0" x2="416.537" y2="286.899" gradientUnits="userSpaceOnUse">
<stop stop-color="#B98787" stop-opacity="0"/>
<stop offset="0.84375" stop-color="#CCA1A1" stop-opacity="0.53"/>
</linearGradient>
</defs>
</svg>
