<svg width="575" height="372" viewBox="0 0 575 372" fill="none" xmlns="http://www.w3.org/2000/svg">
<g opacity="0.5">
<path opacity="0.7" d="M67.4067 359.399C72.2784 359.284 77.6547 360.166 83.8979 362.604L82.7416 362.889C77.0281 360.752 72.108 359.961 67.6086 360.041L67.4175 359.396L67.4067 359.399Z" fill="url(#paint0_linear)"/>
<path opacity="0.7" d="M66.3048 355.407C74.537 353.608 83.762 353.711 96.4763 359.25C96.5847 359.302 96.6932 359.355 96.8125 359.405L95.7201 359.676C83.3703 354.388 74.5814 354.268 66.51 356.061L66.3156 355.404L66.3048 355.407Z" fill="url(#paint1_linear)"/>
<path opacity="0.7" d="M65.3421 351.927C76.0649 349.178 86.7224 347.151 103.956 353.655C106.021 354.43 108.025 355.277 110.011 356.14L108.907 356.414C107.202 355.675 105.47 354.965 103.716 354.295C86.6896 347.865 76.1435 349.876 65.5398 352.595L65.3421 351.927Z" fill="url(#paint2_linear)"/>
<path opacity="0.7" d="M63.9827 347.032C66.7179 346.696 69.3306 346.299 71.9045 345.889C83.1052 344.126 93.6981 342.468 111.452 348.058C115.937 349.475 120.204 351.06 124.345 352.608L123.154 352.903C119.316 351.474 115.368 350.026 111.243 348.725C93.6545 343.185 83.1514 344.832 72.0264 346.576C69.4741 346.981 66.8862 347.383 64.1727 347.714L63.9719 347.035L63.9827 347.032Z" fill="url(#paint3_linear)"/>
<path opacity="0.7" d="M61.8443 339.365C69.1923 339.787 75.2116 339.525 81.0204 339.258C91.8259 338.766 102.056 338.292 118.967 342.501C122.215 343.312 125.344 344.153 128.373 344.973C132.967 346.213 137.374 347.409 141.741 348.353L140.237 348.725C136.303 347.833 132.33 346.769 128.203 345.652C125.173 344.833 122.044 343.992 118.81 343.188C102.012 339.008 91.8504 339.477 81.0805 339.972C75.3041 340.23 69.3344 340.503 62.0468 340.089L61.8335 339.368L61.8443 339.365Z" fill="url(#paint4_linear)"/>
<path opacity="0.7" d="M58.7715 327.946C61.5616 328.881 64.4035 329.597 67.204 330.013L67.6201 330.082C68.5344 330.221 69.4347 330.353 70.3039 330.458C78.3861 331.452 84.8714 331.925 91.1394 332.372C101.397 333.122 111.081 333.82 126.743 336.634L127.813 336.827C145.685 340.032 159.798 342.567 177.446 337.198C183.481 335.347 189.392 332.321 195.64 329.13C199.507 327.154 203.503 325.099 207.544 323.356C216.189 319.647 224.873 317.894 234.083 318.009C240.66 318.08 245.966 319.296 250.667 321.11L249.463 321.411C245.071 319.818 240.133 318.786 234.104 318.716C224.991 318.611 216.408 320.351 207.854 324.014C203.845 325.749 199.857 327.79 196 329.764C189.713 332.976 183.783 336.019 177.693 337.883C159.875 343.306 145.677 340.758 127.716 337.529L126.646 337.336C111.023 334.535 101.35 333.835 91.1174 333.09C84.8355 332.635 78.3502 332.162 70.2463 331.173C69.3631 331.06 68.4627 330.929 67.5375 330.792L67.1215 330.723C64.4313 330.326 61.7058 329.65 59.0137 328.77L58.7715 327.946Z" fill="url(#paint5_linear)"/>
<path opacity="0.7" d="M54.4334 312.437C60.9173 316.636 69.2263 319.924 77.2836 321.49L78.2948 321.685C78.9617 321.817 79.6178 321.951 80.2676 322.064C86.1144 323.115 91.073 324.113 95.8579 325.074C107.346 327.389 117.274 329.382 134.367 331.138C151.678 332.919 165.838 332.659 182.949 325.83C187.962 323.817 192.912 321.076 198.143 318.185C202.434 315.814 206.865 313.362 211.39 311.31C219.771 307.544 228.11 305.723 236.895 305.735C250.594 305.76 257.987 311.072 265.819 316.687C266.114 316.9 266.406 317.101 266.691 317.317L265.802 317.538C265.67 317.445 265.535 317.341 265.403 317.248C257.672 311.7 250.383 306.465 236.917 306.439C228.235 306.424 219.994 308.221 211.715 311.939C207.219 313.972 202.799 316.421 198.53 318.787C193.269 321.696 188.298 324.443 183.255 326.475C166.01 333.36 151.756 333.621 134.336 331.82C117.215 330.049 107.276 328.058 95.7629 325.739C90.978 324.778 86.0334 323.788 80.1835 322.725C79.5337 322.612 78.8667 322.481 78.1998 322.349L77.1994 322.152C69.3267 320.62 61.2274 317.452 54.7658 313.407L54.4767 312.426L54.4334 312.437Z" fill="url(#paint6_linear)"/>
<path opacity="0.7" d="M49.7023 295.595C52.2341 296.928 54.452 298.338 56.7491 299.82C59.1858 301.382 61.6987 303.004 64.7828 304.633C71.2832 308.071 79.3097 311.05 87.3631 313.02C87.8652 313.146 88.3533 313.264 88.8415 313.383C89.3048 313.496 89.7573 313.611 90.2207 313.724C96.4068 315.234 101.629 316.982 106.686 318.68C116.913 322.106 126.561 325.344 141.976 325.682C158.714 326.056 172.17 322.833 188.444 314.556C192.3 312.585 196.124 310.269 200.183 307.804C205.029 304.858 210.047 301.823 215.231 299.352C223.336 295.518 231.343 293.635 239.698 293.558C253.566 293.459 260.21 299.152 267.247 305.192C270.967 308.384 274.819 311.669 279.915 314.247L278.887 314.502C274.065 311.948 270.365 308.785 266.786 305.717C259.859 299.774 253.322 294.169 239.733 294.267C231.49 294.328 223.583 296.198 215.569 299.986C210.415 302.439 205.418 305.468 200.58 308.4C196.51 310.869 192.668 313.201 188.79 315.177C172.403 323.504 158.85 326.752 141.983 326.375C126.462 326.03 116.75 322.773 106.474 319.337C101.431 317.647 96.219 315.896 90.0716 314.4C89.6191 314.284 89.1558 314.171 88.6924 314.058C88.2043 313.94 87.713 313.811 87.2249 313.692C79.111 311.715 71.0318 308.714 64.4756 305.245C61.3636 303.6 58.8368 301.97 56.386 300.401C54.2767 299.043 52.2543 297.743 49.9861 296.516L49.7131 295.592L49.7023 295.595Z" fill="url(#paint7_linear)"/>
<path opacity="0.7" d="M568.793 238.107C569.389 234.584 569.833 231.01 570.258 227.295L570.765 229.008C570.403 232.05 570.023 234.996 569.532 237.913L568.79 238.097L568.793 238.107Z" fill="url(#paint8_linear)"/>
<path opacity="0.7" d="M47.1803 286.524C48.1579 286.726 49.1387 286.938 50.0933 287.18C52.3278 287.743 54.5333 288.404 57.0244 289.246C61.168 290.646 64.7363 292.223 68.5047 293.887C70.6169 294.822 72.8097 295.794 75.2023 296.774C81.1923 299.232 88.4347 301.721 97.3204 304.385C98.0473 304.603 98.7526 304.827 99.4578 305.051L100.047 305.236C105.94 307.091 111.002 309.517 115.893 311.872C125.723 316.592 135.014 321.058 149.513 320.107C166.02 319.033 178.744 312.824 193.917 303.146C196.389 301.564 198.847 299.894 201.448 298.121C207.088 294.283 212.909 290.309 219.079 287.206C226.912 283.281 234.615 281.313 242.533 281.173C256.556 280.933 262.451 287.039 268.681 293.495C272.314 297.256 276.063 301.136 281.635 304.028C282.884 304.676 284.191 305.207 285.529 305.604C290.3 307.043 295.231 307.336 299.996 307.613C301.806 307.723 303.591 307.827 305.327 308.001L303.227 308.521C302.159 308.444 301.082 308.381 299.982 308.312C295.171 308.035 290.192 307.742 285.344 306.277C283.968 305.866 282.619 305.312 281.331 304.651C275.64 301.708 271.853 297.781 268.183 293.972C262.069 287.635 256.281 281.651 242.59 281.877C234.73 282.014 227.181 283.955 219.439 287.835C213.309 290.917 207.496 294.877 201.889 298.707C199.287 300.48 196.822 302.163 194.349 303.745C179.078 313.482 166.274 319.734 149.605 320.813C134.888 321.773 125.528 317.267 115.614 312.499C110.751 310.161 105.713 307.74 99.873 305.906L99.284 305.721C98.5896 305.495 97.8735 305.273 97.1605 305.062C88.2501 302.394 80.9937 299.897 74.9649 297.425C72.5584 296.438 70.3656 295.466 68.2534 294.53C64.4958 292.864 60.9522 291.292 56.8398 289.918C54.3626 289.085 52.1819 288.429 49.9613 287.874C49.1338 287.669 48.277 287.483 47.4341 287.304L47.2019 286.518L47.1803 286.524Z" fill="url(#paint9_linear)"/>
<path opacity="0.7" d="M563.012 239.619C565.035 233.571 566.446 227.463 567.8 221.09C567.883 220.712 567.959 220.314 568.041 219.936L568.464 221.361C567.151 227.568 565.775 233.523 563.832 239.416L563.012 239.619Z" fill="url(#paint10_linear)"/>
<path opacity="0.7" d="M45.5785 280.778C50.0028 281.242 54.5511 281.732 58.9502 282.465C61.1358 282.823 63.4393 283.266 66.0002 283.794C72.7859 285.211 78.8685 286.961 85.5495 288.928C92.8582 291.093 100.418 293.321 107.219 295.771C108.102 296.088 108.97 296.431 109.825 296.766C115.361 298.948 120.186 302.025 124.851 304.993C134.316 311.033 143.273 316.732 156.999 314.548C173.922 311.856 186.268 302.095 199.338 291.755L201.276 290.215C208.077 284.802 215.106 279.219 222.872 275.072C230.452 271.039 237.772 268.996 245.324 268.799C259.484 268.398 264.601 274.901 270.028 281.783C273.186 285.785 276.442 289.923 281.68 293.023C282.821 293.698 284.058 294.268 285.354 294.722C289.46 296.153 293.916 296.564 298.228 296.965C304.655 297.559 310.722 298.118 315.464 301.819C316.638 302.724 317.77 303.686 318.884 304.663L318.061 304.867C317.064 304.009 316.059 303.164 315.017 302.351C310.452 298.777 304.492 298.227 298.175 297.65C293.816 297.25 289.311 296.829 285.117 295.373C283.771 294.909 282.492 294.315 281.307 293.606C275.954 290.432 272.646 286.238 269.447 282.177C264.147 275.447 259.131 269.09 245.353 269.486C237.929 269.686 230.704 271.694 223.226 275.679C215.507 279.792 208.511 285.367 201.726 290.753L199.788 292.293C186.644 302.697 174.234 312.519 157.121 315.235C143.107 317.468 134.057 311.69 124.466 305.579C119.829 302.626 115.032 299.565 109.566 297.422C108.722 297.085 107.86 296.763 106.977 296.446C100.204 294.012 92.6551 291.782 85.3495 289.627C78.6793 287.658 72.6106 285.915 65.8606 284.5C63.3106 283.97 61.0209 283.535 58.8354 283.177C54.5463 282.463 50.1048 281.98 45.7765 281.527L45.5568 280.783L45.5785 280.778Z" fill="url(#paint11_linear)"/>
<path opacity="0.7" d="M557.606 241.037L556.688 241.264C560.322 234.161 562.701 227.39 564.576 221.236C565.237 219.06 565.862 216.882 566.449 214.691L566.833 215.983C566.332 217.806 565.809 219.635 565.258 221.448C563.42 227.493 561.107 234.102 557.606 241.037Z" fill="url(#paint12_linear)"/>
<path opacity="0.7" d="M44.2583 276.074C48.3407 276.406 52.5887 276.708 56.9403 277.007C78.3672 278.484 102.639 280.156 119.572 288.315C124.734 290.805 129.297 294.492 133.722 298.064C142.835 305.429 151.443 312.383 164.448 308.989C179.601 305.04 191.041 293.8 202.113 282.924C202.988 282.07 203.851 281.218 204.725 280.364C216.453 268.916 230.743 257.14 247.927 256.446C247.974 256.446 248.02 256.446 248.067 256.446C262.337 255.915 266.695 262.796 271.297 270.071C273.983 274.325 276.768 278.714 281.678 282.041C285.962 284.942 291.38 285.626 296.62 286.298C302.859 287.086 309.307 287.914 314.011 292.431C317.413 295.687 320.494 299.388 323.472 302.978C323.612 303.136 323.744 303.309 323.884 303.468L323.137 303.653C323.065 303.568 322.994 303.483 322.922 303.398C319.951 299.83 316.884 296.137 313.513 292.907C308.976 288.565 302.663 287.761 296.546 286.988C291.224 286.314 285.707 285.609 281.276 282.607C276.237 279.198 273.42 274.738 270.69 270.415C266.004 263.013 261.965 256.622 248.12 257.138C248.074 257.139 248.028 257.139 247.981 257.139C231.04 257.83 216.874 269.518 205.244 280.862C204.377 281.703 203.506 282.568 202.632 283.422C191.497 294.359 179.993 305.66 164.656 309.655C151.291 313.127 142.537 306.072 133.283 298.583C128.9 295.034 124.354 291.366 119.276 288.924C102.477 280.822 78.2646 279.159 56.9089 277.687C52.6393 277.39 48.4766 277.101 44.4653 276.774L44.2583 276.074Z" fill="url(#paint13_linear)"/>
<path opacity="0.7" d="M550.661 242.839L549.718 243.071C557.073 232.554 561.88 221.624 565.172 210.506L565.482 211.55C562.232 222.187 557.572 232.723 550.661 242.839Z" fill="url(#paint14_linear)"/>
<path opacity="0.7" d="M41.7633 267.177C47.7612 267.785 54.2086 268.224 60.9625 268.679C81.7473 270.085 105.291 271.672 121.976 279.317C126.91 281.588 131.311 284.924 135.566 288.16C144.431 294.885 152.8 301.233 165.24 298.22C179.663 294.726 190.786 284.905 200.609 276.224L202.817 274.266C204.232 273.005 205.64 271.758 207.046 270.544C217.98 261.065 231.331 251.238 247.435 250.287C248.863 250.206 250.282 250.174 251.669 250.194C265.713 250.402 270.569 256.414 275.272 262.224C278.004 265.61 280.824 269.098 285.462 271.466C289.249 273.395 293.873 273.559 298.778 273.732C305.245 273.962 311.933 274.194 317.145 278.661C321.633 282.488 325.416 287.308 329.071 291.968C331.012 294.445 333.024 297.008 335.082 299.332C335.433 299.734 335.786 300.102 336.131 300.483L335.362 300.673C335.089 300.377 334.819 300.091 334.539 299.773C332.464 297.431 330.449 294.858 328.505 292.37C324.87 287.74 321.118 282.945 316.678 279.163C311.67 274.874 305.11 274.644 298.772 274.416C293.795 274.238 289.089 274.072 285.141 272.069C280.367 269.633 277.492 266.078 274.706 262.626C269.904 256.681 265.364 251.069 251.674 250.876C250.307 250.85 248.903 250.891 247.486 250.969C231.6 251.911 218.363 261.653 207.511 271.055C206.105 272.268 204.708 273.513 203.292 274.774L201.085 276.732C191.206 285.461 180.02 295.343 165.424 298.88C152.634 301.968 144.13 295.517 135.117 288.681C130.892 285.472 126.522 282.162 121.666 279.917C105.115 272.33 81.6276 270.741 60.9172 269.351C54.2593 268.906 47.8938 268.469 41.9563 267.868L41.7524 267.179L41.7633 267.177Z" fill="url(#paint15_linear)"/>
<path opacity="0.7" d="M544.869 244.347L543.69 244.638C551.751 235.232 557.822 224.085 562.089 210.86C562.668 209.092 563.187 207.317 563.67 205.539L564.052 206.823C563.647 208.246 563.228 209.661 562.766 211.086C558.583 224.054 552.671 235.039 544.869 244.347Z" fill="url(#paint16_linear)"/>
<path opacity="0.7" d="M39.2329 258.146C40.5112 258.308 41.7509 258.455 42.9549 258.601C49.659 259.363 57.0348 259.845 64.8346 260.348C85.0188 261.661 107.901 263.148 124.365 270.33C129.085 272.391 133.328 275.389 137.439 278.294C146.042 284.375 154.162 290.12 166.021 287.468C179.947 284.349 190.946 275.496 201.576 266.928L203.92 265.04C205.788 263.543 207.541 262.13 209.347 260.739C220.513 252.14 234.224 243.389 251.031 243.765C252.479 243.793 253.904 243.861 255.267 243.956C268.815 244.854 274.188 249.79 278.925 254.144C281.904 256.875 284.714 259.465 289.234 260.928C292.482 261.977 296.466 261.707 300.689 261.423C307.135 260.999 314.443 260.508 320.272 264.944C325.728 269.097 329.954 274.942 334.027 280.586C335.409 282.507 336.72 284.309 338.076 286.066C341.178 290.074 344.018 292.965 346.988 295.152C347.993 295.881 349.001 296.541 350.015 297.143L349.074 297.376C348.235 296.856 347.401 296.312 346.569 295.699C343.541 293.469 340.663 290.532 337.509 286.468C336.143 284.714 334.836 282.888 333.444 280.97C329.394 275.365 325.208 269.579 319.84 265.483C314.236 261.219 307.382 261.677 300.754 262.112C296.462 262.402 292.407 262.667 289.022 261.583C284.339 260.081 281.467 257.438 278.434 254.641C273.556 250.163 268.516 245.531 255.239 244.645C253.89 244.558 252.475 244.488 251.038 244.457C234.442 244.086 220.881 252.755 209.81 261.284C208.012 262.662 206.258 264.074 204.405 265.579L202.061 267.467C191.365 276.086 180.3 284.99 166.218 288.135C154.025 290.87 145.78 285.02 137.042 278.836C132.962 275.957 128.747 272.975 124.097 270.954C107.756 263.833 84.941 262.34 64.8172 261.034C57.0035 260.524 49.6276 260.042 42.9019 259.285C41.783 259.153 40.6285 259.018 39.4461 258.867L39.2329 258.146Z" fill="url(#paint17_linear)"/>
<path opacity="0.7" d="M536.46 246.531L534.861 246.925C546.86 237.078 555.295 223.811 560.581 206.38C561.173 204.461 561.698 202.547 562.174 200.623L562.569 201.951C562.165 203.498 561.737 205.04 561.266 206.593C556.111 223.61 547.969 236.704 536.46 246.531Z" fill="url(#paint18_linear)"/>
<path opacity="0.7" d="M533.727 242.102C530.356 244.541 527.872 246.435 525.877 247.95C524.909 248.695 524.031 249.35 523.208 249.957L521.401 250.402C522.619 249.529 523.889 248.564 525.424 247.398C527.42 245.883 529.914 243.987 533.293 241.535C545.579 232.637 554.013 219.672 559.08 201.901C559.681 199.808 560.203 197.722 560.654 195.631L561.066 197.015C560.67 198.709 560.249 200.399 559.763 202.104C554.651 220.032 546.134 233.107 533.727 242.102Z" fill="url(#paint19_linear)"/>
<path opacity="0.7" d="M36.6143 248.601C40.8613 249.53 45.2208 249.975 49.1036 250.379C55.2234 251.003 61.8515 251.421 68.882 251.865C88.4351 253.1 110.589 254.487 126.824 261.154C131.319 263.001 135.405 265.665 139.353 268.251C147.717 273.715 155.619 278.873 166.908 276.554C180.419 273.775 190.759 266.123 201.698 258.027C202.678 257.295 203.672 256.571 204.655 255.849L205.189 255.455C207.46 253.787 209.599 252.221 211.784 250.735C222.496 243.401 237.068 235.213 254.783 237.028C256.195 237.168 257.602 237.332 259.02 237.493C271.507 238.987 277.331 242.656 282.016 245.616C285.459 247.791 288.442 249.671 293.173 250.195C295.804 250.488 299.052 249.888 302.499 249.25C309.307 247.996 317.014 246.564 323.608 251.033C330.043 255.392 334.535 262.295 338.89 268.969C339.7 270.214 340.503 271.438 341.294 272.62C343.283 275.577 346.003 279.354 349.448 282.36C353.174 285.615 357.027 287.723 361.242 288.819C367.418 290.42 374.303 289.624 380.816 288.671C383.611 288.263 386.081 287.742 388.271 287.29C389.024 287.126 389.737 286.984 390.406 286.852C391.274 286.683 392.056 286.5 392.809 286.336C394.095 286.052 395.263 285.797 396.437 285.642L382.228 289.163C381.807 289.234 381.397 289.301 380.952 289.366C374.36 290.327 367.396 291.131 361.082 289.496C356.754 288.371 352.804 286.208 348.984 282.874C345.474 279.804 342.717 275.979 340.704 272.982C339.91 271.79 339.107 270.566 338.297 269.321C333.993 262.702 329.531 255.861 323.225 251.583C316.891 247.289 309.336 248.683 302.661 249.916C299.16 250.567 295.865 251.167 293.128 250.866C288.229 250.327 285.176 248.408 281.647 246.174C276.791 243.108 271.294 239.643 258.964 238.167C257.554 237.993 256.139 237.842 254.738 237.7C237.264 235.916 222.831 244.024 212.215 251.289C210.051 252.77 207.902 254.338 205.641 256.003L205.107 256.397C204.114 257.121 203.134 257.854 202.151 258.576C191.631 266.363 180.75 274.422 167.084 277.227C155.489 279.611 147.469 274.369 138.973 268.812C135.056 266.253 130.998 263.604 126.569 261.787C110.45 255.158 88.3542 253.769 68.8646 252.553C61.834 252.109 55.1952 251.693 49.0614 251.061C45.2638 250.67 41.0219 250.23 36.8479 249.352L36.6251 248.598L36.6143 248.601Z" fill="url(#paint20_linear)"/>
<path opacity="0.7" d="M33.5986 237.865C40.0377 241.025 48.0868 241.739 55.2646 242.373C60.593 242.84 66.2798 243.183 72.287 243.55C91.3886 244.689 113.047 245.991 129.232 252.187C133.499 253.815 137.408 256.157 141.186 258.407C149.309 263.255 156.989 267.825 167.706 265.82C180.886 263.352 191.066 256.394 201.845 249.026C203.439 247.937 205.032 246.849 206.64 245.768C209.414 243.92 211.726 242.392 214.106 240.938C230.293 231.128 243.947 227.905 258.386 230.517C259.797 230.771 261.218 231.022 262.625 231.265C272.806 233.021 278.548 235.319 283.167 237.155C288.089 239.11 291.33 240.412 296.918 239.677C298.874 239.42 301.277 238.631 303.82 237.808C310.659 235.568 319.183 232.786 326.737 237.32C334.176 241.78 338.991 250.166 343.244 257.554L344.273 259.346C346.331 262.886 348.649 266.601 351.666 269.733C355.203 273.407 358.788 275.75 362.923 277.127C368.945 279.116 375.845 278.613 382.519 278.132L382.723 278.116C383.804 278.041 384.846 277.954 385.831 277.869C388.371 277.661 390.559 277.483 392.43 277.486L392.847 277.485C397.609 277.489 399.783 277.497 405.142 280.185C405.621 280.431 406.128 280.692 406.659 280.958C407.484 281.391 408.376 281.853 409.349 282.317C409.43 282.354 409.513 282.402 409.583 282.441L408.555 282.696C407.768 282.311 407.027 281.925 406.342 281.572C405.821 281.303 405.314 281.041 404.835 280.796C399.637 278.181 397.663 278.181 392.876 278.172L392.459 278.173C390.61 278.165 388.435 278.35 385.918 278.553C384.929 278.627 383.887 278.715 382.798 278.802L382.594 278.819C375.852 279.305 368.871 279.806 362.718 277.769C358.459 276.367 354.785 273.955 351.151 270.191C348.083 267.003 345.731 263.251 343.657 259.658L342.627 257.865C338.418 250.546 333.645 242.264 326.374 237.899C319.116 233.542 310.773 236.268 304.069 238.452C301.485 239.296 299.05 240.093 297.037 240.352C291.256 241.102 287.94 239.784 282.91 237.776C278.33 235.953 272.629 233.679 262.523 231.939C261.105 231.699 259.694 231.445 258.273 231.194C244.021 228.626 230.518 231.811 214.489 241.526C212.117 242.967 209.805 244.495 207.042 246.34C205.434 247.42 203.84 248.509 202.257 249.595C191.42 257 181.184 264.006 167.849 266.501C156.859 268.563 149.064 263.918 140.805 259.002C137.052 256.757 133.166 254.455 128.959 252.835C112.876 246.67 91.2923 245.384 72.2372 244.244C66.2192 243.881 60.5355 243.548 55.1931 243.073C48.1577 242.45 40.2973 241.746 33.8372 238.75L33.5769 237.87L33.5986 237.865Z" fill="url(#paint21_linear)"/>
<path opacity="0.7" d="M533.312 235.911C524.239 242.029 521.462 242.828 517.239 244.031C515.785 244.447 514.126 244.913 511.988 245.679C510.017 246.382 507.878 247.341 505.613 248.343C504.517 248.829 503.391 249.334 502.219 249.839C499.926 250.825 497.623 251.779 495.364 252.723C489.184 255.304 483.342 257.734 478.625 260.203C477.409 260.832 476.246 261.562 475.105 262.331L473.204 262.801C474.832 261.605 476.502 260.512 478.258 259.591C483.005 257.103 488.857 254.671 495.048 252.087C497.307 251.143 499.599 250.192 501.892 249.206C503.053 248.703 504.179 248.199 505.275 247.712C507.548 246.697 509.698 245.735 511.702 245.025C513.861 244.253 515.531 243.784 516.995 243.366C521.154 242.179 523.902 241.398 532.876 235.338C544.702 227.361 552.984 214.627 557.49 197.487C558.091 195.173 558.602 192.871 559.035 190.577L559.474 192.055C559.101 193.926 558.679 195.788 558.181 197.667C553.654 214.971 545.284 227.84 533.312 235.911Z" fill="url(#paint22_linear)"/>
<path opacity="0.7" d="M29.2489 222.45C31.8913 225.181 34.6566 227.7 38.3985 229.716C38.7441 229.903 39.1005 230.088 39.4676 230.27C45.8423 233.338 53.7919 233.927 61.4863 234.476C65.8153 234.791 70.3327 235.036 75.113 235.308C93.9681 236.356 115.347 237.54 131.69 243.311C135.709 244.736 139.445 246.73 143.044 248.657C150.945 252.881 158.406 256.873 168.554 255.169C181.476 252.994 191.517 246.614 202.146 239.872C204.267 238.529 206.454 237.136 208.646 235.799C211.565 234.02 214.015 232.573 216.459 231.264C232.895 222.461 246.946 220.257 262.007 224.129C263.377 224.483 264.765 224.821 266.246 225.159C272.044 226.473 276.517 227.706 280.119 228.701C289.686 231.343 293.263 232.332 300.668 229.318C301.902 228.82 303.385 228.067 304.94 227.285C311.764 223.836 321.101 219.117 329.866 223.752C338.369 228.248 343.302 238.204 347.27 246.196C349.03 249.747 351.14 253.814 353.898 257.21C357.185 261.258 360.591 263.902 364.624 265.528C370.075 267.712 376.498 267.69 382.71 267.664L384.634 267.654C388.476 267.657 391.864 267.693 394.474 268.24C399.129 269.224 400.707 270.321 404.918 273.255L405.869 273.917C407.052 274.737 408.343 275.611 409.828 276.47L411.636 277.522C413.462 278.592 415.326 279.676 417.246 280.711L416.251 280.958C414.559 280.025 412.904 279.06 411.28 278.121L409.472 277.069C407.959 276.194 406.643 275.316 405.457 274.485L404.506 273.823C400.267 270.873 398.846 269.873 394.342 268.931C391.806 268.4 388.451 268.356 384.655 268.352L382.742 268.36C376.459 268.381 369.968 268.408 364.373 266.169C360.213 264.507 356.703 261.786 353.338 257.632C350.54 254.178 348.404 250.061 346.624 246.481C342.705 238.579 337.821 228.747 329.534 224.357C321.101 219.901 311.956 224.526 305.275 227.906C303.701 228.704 302.207 229.46 300.941 229.966C293.308 233.07 289.392 231.995 279.927 229.384C276.339 228.398 271.876 227.162 266.093 225.856C264.601 225.521 263.213 225.183 261.832 224.831C246.962 221.014 233.069 223.202 216.8 231.907C214.367 233.213 211.928 234.657 209.016 236.423C206.824 237.76 204.637 239.153 202.527 240.493C191.832 247.285 181.74 253.69 168.675 255.889C158.282 257.631 150.702 253.589 142.69 249.301C139.104 247.383 135.407 245.401 131.441 243.997C115.2 238.258 93.8781 237.071 75.0725 236.033C70.2814 235.765 65.7641 235.519 61.4351 235.205C54.033 234.662 45.6488 234.056 39.1486 230.916C38.7706 230.737 38.4003 230.545 38.0408 230.35C34.6831 228.534 32.0363 226.259 29.6365 223.876L29.2165 222.458L29.2489 222.45Z" fill="url(#paint23_linear)"/>
<path opacity="0.7" d="M533.097 229.372C524.17 234.966 521.049 234.763 517.419 234.526C515.585 234.402 513.683 234.282 510.798 234.916C507.705 235.589 504.306 237.109 500.814 238.743C493.081 242.343 484.562 247.044 478.023 251.346C473.114 254.576 468.925 259.102 464.512 263.888C464.039 264.402 463.554 264.918 463.073 265.445L461.798 265.76C462.529 264.979 463.248 264.2 463.968 263.422C468.415 258.594 472.619 254.041 477.608 250.768C484.179 246.458 492.736 241.725 500.49 238.12C504.023 236.465 507.465 234.935 510.622 234.245C513.607 233.598 515.652 233.728 517.45 233.85C520.949 234.074 523.966 234.28 532.696 228.802C544.213 221.581 552.053 209.544 556.002 193.029C556.61 190.465 557.085 187.922 557.463 185.403L557.939 187.008C557.601 189.075 557.195 191.147 556.708 193.218C552.709 209.881 544.768 222.044 533.097 229.372Z" fill="url(#paint24_linear)"/>
<path opacity="0.7" d="M25.506 209.181C26.8537 209.971 28.1631 210.827 29.4264 211.763C30.9424 212.886 32.375 214.041 33.7627 215.162C37.3971 218.11 40.8422 220.889 45.7065 222.976C46.0502 223.118 46.3939 223.26 46.7483 223.4C52.7943 225.717 60.1774 226.127 67.3255 226.527L67.6671 226.544C70.5671 226.701 73.5599 226.857 76.6314 227.006C95.6512 227.931 117.205 228.989 134.125 234.416C137.881 235.621 141.425 237.286 144.836 238.894C152.533 242.516 159.8 245.939 169.384 244.5C182.093 242.605 192.02 236.724 202.542 230.502C205.177 228.943 207.9 227.328 210.659 225.795C213.071 224.461 215.916 222.906 218.818 221.542C235.513 213.681 249.948 212.483 265.64 217.68C267.04 218.139 268.47 218.58 269.888 218.979C290.477 224.769 294.767 225.978 304.458 218.907C304.924 218.564 305.436 218.177 305.98 217.781C312.219 213.118 322.664 205.304 333.033 210.116C341.412 214.001 346.286 223.405 350.298 232.989C352.114 237.317 353.803 241.177 356.154 244.647C359.163 249.088 362.41 252.018 366.352 253.892C371.383 256.267 377.463 256.625 383.351 256.962C384.436 257.022 385.522 257.083 386.577 257.162C390.133 257.418 393.808 257.803 396.545 258.975C399.773 260.356 401.18 261.892 403.122 264.021C404.067 265.058 405.149 266.243 406.633 267.612C407.891 268.765 409.107 269.735 410.367 270.581C414.844 273.593 420.425 276.888 426.441 278.555L425.111 278.884C419.446 277.107 414.221 273.997 409.976 271.143C408.685 270.271 407.431 269.287 406.153 268.106C404.638 266.71 403.556 265.525 402.593 264.47C400.72 262.414 399.365 260.934 396.281 259.608C393.649 258.478 390.055 258.095 386.563 257.858C385.507 257.779 384.436 257.726 383.351 257.665C377.402 257.321 371.244 256.971 366.076 254.527C362.001 252.596 358.672 249.584 355.582 245.026C353.194 241.509 351.482 237.609 349.653 233.239C345.693 223.79 340.908 214.534 332.758 210.751C322.791 206.124 312.553 213.773 306.449 218.346C305.908 218.752 305.393 219.129 304.919 219.485C294.953 226.76 290.602 225.544 269.731 219.664C268.303 219.268 266.859 218.82 265.456 218.35C249.957 213.218 235.69 214.397 219.17 222.181C216.29 223.54 213.452 225.081 211.051 226.413C208.303 227.943 205.58 229.558 202.956 231.115C192.386 237.371 182.4 243.29 169.548 245.208C159.752 246.677 152.377 243.202 144.574 239.537C141.177 237.938 137.661 236.288 133.954 235.094C117.126 229.701 95.6185 228.642 76.6559 227.714C73.5843 227.566 70.5839 227.423 67.6916 227.253L67.3499 227.236C60.1554 226.836 52.7013 226.421 46.55 224.061C46.1847 223.925 45.8271 223.775 45.4803 223.622C40.5108 221.493 37.0346 218.687 33.3553 215.705C31.9815 214.592 30.5489 213.437 29.0469 212.322C28.0084 211.558 26.9391 210.846 25.8329 210.167L25.5384 209.173L25.506 209.181Z" fill="url(#paint25_linear)"/>
<path opacity="0.7" d="M532.886 222.813C523.396 228.341 520.093 226.937 516.607 225.464C514.712 224.663 512.758 223.82 509.613 224.121C506.082 224.45 502.302 226.165 499.408 227.628C492.88 230.907 485.48 235.896 477.409 242.457C473.143 245.935 469.503 250.393 465.642 255.12C462.081 259.489 458.441 263.947 454.154 267.748L452.62 268.127C457.326 264.177 461.255 259.365 465.08 254.669C468.956 249.916 472.611 245.432 476.933 241.906C485.04 235.314 492.478 230.292 499.06 227C502.004 225.514 505.868 223.766 509.51 223.421C512.826 223.112 514.882 223.986 516.858 224.824C520.172 226.226 523.304 227.56 532.486 222.209C546.466 214.075 552.179 199.407 554.496 188.535C555.105 185.665 555.522 182.809 555.816 179.971L556.352 181.776C556.072 184.078 555.7 186.379 555.205 188.7C552.869 199.701 547.084 214.557 532.886 222.813Z" fill="url(#paint26_linear)"/>
<path opacity="0.7" d="M23.8307 202.37C28.433 203.589 32.5583 205.201 36.3758 207.265C37.6483 207.953 38.8775 208.652 40.0787 209.335C44.0875 211.614 47.8759 213.777 52.9457 215.359C53.2775 215.46 53.6124 215.57 53.9658 215.665C59.6179 217.251 66.2897 217.49 72.7509 217.723L75.0198 217.81C94.2283 218.508 118.128 219.388 136.705 224.714C140.194 225.707 143.523 227.06 146.732 228.363C154.268 231.41 161.379 234.276 170.445 233.099C183.025 231.461 192.885 225.968 203.327 220.16C206.453 218.427 209.674 216.623 212.976 214.937C216.333 213.237 219.036 211.962 221.493 210.953C238.498 203.916 253.366 203.729 269.702 210.364C271.129 210.945 272.565 211.479 273.961 211.954C294.917 219.039 299.946 217.495 308.784 207.636C319.151 196.064 328.305 192.115 336.779 195.545C346.206 199.366 351.09 210.747 353.941 218.983L353.996 219.129C355.431 223.279 356.921 227.575 359.046 231.348C361.782 236.202 364.857 239.454 368.74 241.582C373.469 244.173 379.312 244.833 384.967 245.484C386.411 245.65 387.84 245.809 389.222 246.002C392.64 246.477 396.519 247.214 399.331 249.06C402.131 250.909 403.287 252.972 404.625 255.378C405.511 256.961 406.506 258.756 408.141 260.711C409.221 262.006 410.373 263.112 411.665 264.103C421.1 271.413 435.397 276.614 447.242 269.261C455.215 264.305 460.676 256.665 465.952 249.264C469.264 244.621 472.398 240.238 476.079 236.53C481.795 230.777 489.398 223.621 497.505 219.236C501.762 216.925 505.206 215.877 508.319 215.948C511.875 216.024 513.962 217.662 515.974 219.239C519.287 221.839 522.42 224.302 532.263 218.985C546.665 211.202 551.449 195.722 553.027 187.174C553.641 183.862 553.986 180.582 554.119 177.332L554.715 179.352C554.529 181.987 554.231 184.639 553.732 187.318C552.139 195.972 547.271 211.679 532.628 219.59C522.376 225.134 518.896 222.404 515.538 219.77C513.616 218.262 511.636 216.711 508.337 216.64C505.345 216.584 502.028 217.589 497.884 219.85C489.857 224.191 482.302 231.313 476.62 237.023C472.983 240.686 469.868 245.053 466.56 249.672C461.24 257.118 455.741 264.825 447.658 269.842C435.501 277.398 420.875 272.107 411.243 264.641C409.917 263.613 408.72 262.473 407.606 261.141C405.922 259.14 404.904 257.305 404.012 255.701C402.724 253.386 401.608 251.381 398.968 249.641C396.285 247.877 392.516 247.158 389.173 246.699C387.791 246.506 386.371 246.344 384.928 246.178C379.202 245.522 373.284 244.846 368.43 242.184C364.421 239.984 361.238 236.645 358.444 231.669C356.288 227.835 354.789 223.507 353.334 219.328L353.279 219.182C350.469 211.084 345.685 199.883 336.539 196.187C328.392 192.881 319.503 196.786 309.352 208.1C299.895 218.66 293.901 219.417 273.759 212.608C272.339 212.128 270.892 211.597 269.451 211.008C253.311 204.45 238.619 204.639 221.799 211.596C219.364 212.599 216.668 213.861 213.333 215.556C210.042 217.239 206.817 219.032 203.703 220.763C193.202 226.608 183.291 232.125 170.567 233.787C161.3 234.992 154.105 232.077 146.477 228.997C143.282 227.702 139.971 226.367 136.517 225.377C118.028 220.074 94.1784 219.205 75.0132 218.496L72.7443 218.409C66.2475 218.173 59.5292 217.935 53.7888 216.325C53.4354 216.23 53.0896 216.122 52.7547 216.011C47.5966 214.405 43.7802 212.227 39.7295 209.924C38.5283 209.241 37.3131 208.55 36.0406 207.862C32.3876 205.882 28.4313 204.331 24.0567 203.135L23.8307 202.37Z" fill="url(#paint27_linear)"/>
<path opacity="0.7" d="M22.9267 199.242C24.6994 199.498 26.4332 199.741 28.1269 200.006C33.8496 200.924 38.7929 202.117 43.2574 203.656L44.9663 204.247C49.98 205.992 54.3174 207.495 60.0872 208.573C60.4064 208.631 60.7397 208.696 61.0697 208.751C66.1449 209.603 71.9199 209.676 77.4952 209.741L79.8771 209.778C95.9078 210.021 119.477 210.915 139.018 215.764C142.177 216.543 145.233 217.565 148.198 218.552C155.606 221.004 162.604 223.329 171.175 222.4C183.651 221.038 193.444 215.903 203.814 210.477C207.389 208.609 211.081 206.666 214.894 204.898C218.227 203.352 221.124 202.142 223.761 201.191C241.295 194.877 256.096 195.676 273.27 203.886C274.703 204.568 276.143 205.192 277.539 205.747C297.64 213.675 304.192 210.395 312.575 197.177C315.604 192.398 326.527 177.158 339.915 181.834C347.497 184.483 353.229 192.519 356.943 205.724L357.199 206.63C358.347 210.715 359.528 214.952 361.278 218.751C363.722 223.998 366.643 227.552 370.459 229.925C374.93 232.707 380.605 233.66 386.084 234.582C387.77 234.86 389.52 235.156 391.168 235.5C396.104 236.512 399.16 237.807 401.376 239.802C403.986 242.144 404.898 244.838 405.853 247.682C406.584 249.84 407.336 252.072 408.891 254.425C409.819 255.837 410.943 257.122 412.201 258.236C421.047 266.07 436.705 270.206 448.288 262.436C456.632 256.839 461.973 248.279 467.131 240.005C469.884 235.59 472.485 231.408 475.517 227.665C480.914 220.986 488.137 212.735 496.177 208.081C500.354 205.652 504.006 204.678 507.305 205.103C511.037 205.58 513.123 207.96 515.138 210.256C518.467 214.051 521.6 217.655 532.159 212.398C542.266 207.38 549.537 196.264 551.618 182.683C552.232 178.663 552.393 174.72 552.261 170.851L553.027 173.445C553.019 176.527 552.813 179.648 552.33 182.814C550.223 196.619 542.805 207.908 532.498 213.033C521.429 218.53 517.953 214.555 514.587 210.712C512.583 208.414 510.688 206.248 507.233 205.805C504.091 205.398 500.593 206.346 496.556 208.694C488.614 213.29 481.447 221.493 476.081 228.119C473.086 231.829 470.49 235.988 467.744 240.389C462.545 248.72 457.165 257.346 448.707 263.028C436.697 271.086 421.014 266.98 411.726 258.753C410.419 257.594 409.259 256.262 408.29 254.791C406.688 252.358 405.923 250.083 405.17 247.886C404.194 245.013 403.358 242.539 400.89 240.322C398.781 238.415 395.826 237.185 391.036 236.195C389.402 235.859 387.738 235.576 385.977 235.282C380.426 234.355 374.677 233.386 370.077 230.522C366.133 228.067 363.126 224.42 360.616 219.029C358.837 215.169 357.649 210.911 356.492 206.794L356.236 205.888C352.594 192.928 347.027 185.056 339.678 182.487C326.797 177.993 316.141 192.881 313.174 197.554C304.951 210.526 298.152 214.621 277.274 206.384C275.853 205.823 274.41 205.189 272.952 204.501C255.981 196.39 241.345 195.595 224.02 201.834C221.405 202.78 218.526 203.973 215.215 205.514C211.413 207.279 207.729 209.209 204.157 211.088C193.729 216.552 183.874 221.713 171.264 223.097C162.514 224.048 155.128 221.59 147.978 219.223C145.027 218.244 141.985 217.23 138.85 216.456C119.387 211.634 95.875 210.737 79.8799 210.496L77.512 210.467C71.9119 210.397 66.1121 210.318 60.9797 209.47C60.6388 209.417 60.3055 209.352 59.9755 209.297C54.1453 208.211 49.5752 206.629 44.7415 204.942L43.0326 204.351C38.6068 202.825 33.7022 201.646 28.026 200.727C26.4284 200.473 24.8014 200.238 23.1388 200L22.9159 199.245L22.9267 199.242Z" fill="url(#paint28_linear)"/>
<path opacity="0.7" d="M22.1748 196.659C26.4743 197.441 30.9599 197.948 35.3989 198.376C40.4715 198.863 45.4188 199.359 50.1253 200.062C56.1179 200.949 61.2356 201.47 67.2261 201.798L68.1819 201.846C72.1877 202.028 76.5225 201.945 80.7209 201.873C82.4554 201.842 84.1899 201.81 85.906 201.795C105.096 201.632 124.779 203.411 141.315 206.817C144.037 207.374 146.739 208.062 149.342 208.728C156.723 210.617 163.688 212.393 171.893 211.68C184.306 210.607 194.062 205.777 204.385 200.657C208.371 198.686 212.497 196.635 216.817 194.809C220.188 193.39 223.203 192.265 226.026 191.393C243.882 185.841 259.069 187.63 276.826 197.376C278.269 198.171 279.701 198.888 281.109 199.52C301.444 208.706 309.186 202.093 316.368 186.692C321.381 175.951 331.363 164.638 343.036 168.11C353.23 171.138 357.844 183.028 359.929 192.453L360.309 194.173C361.182 198.191 362.081 202.34 363.505 206.141C365.62 211.769 368.372 215.617 372.163 218.26C376.437 221.24 381.981 222.455 387.336 223.625C389.249 224.04 391.236 224.472 393.095 224.98C396.446 225.895 400.651 227.34 403.401 230.515C405.903 233.398 406.539 236.653 407.195 240.097C407.7 242.712 408.222 245.424 409.62 248.113C410.432 249.681 411.478 251.099 412.717 252.344C421.018 260.693 437.708 263.992 449.315 255.586C458.072 249.258 463.256 239.65 468.267 230.358C470.381 226.455 472.558 222.41 474.94 218.783C481.949 208.071 488.646 200.713 494.83 196.894C499.02 194.313 502.762 193.442 506.275 194.236C510.162 195.12 512.224 198.204 514.224 201.2C517.559 206.194 520.7 210.927 532.052 205.792C543.645 200.528 549.032 188.062 550.209 178.148C550.871 172.516 550.581 167.086 549.656 161.825L550.987 166.334C551.376 170.21 551.396 174.177 550.926 178.255C549.735 188.356 544.231 201.056 532.373 206.409C520.457 211.798 516.978 206.589 513.617 201.545C511.616 198.549 509.731 195.707 506.133 194.899C502.819 194.147 499.243 194.989 495.221 197.471C489.114 201.236 482.491 208.53 475.536 219.148C473.173 222.76 471.1 226.607 468.897 230.681C463.848 240.039 458.625 249.714 449.747 256.141C437.838 264.748 420.729 261.37 412.202 252.803C410.911 251.502 409.824 250.026 408.972 248.4C407.524 245.62 406.989 242.865 406.48 240.195C405.83 236.852 405.22 233.682 402.844 230.95C400.8 228.593 397.736 226.956 392.908 225.643C391.063 225.143 389.086 224.709 387.184 224.291C381.754 223.105 376.139 221.884 371.733 218.812C367.824 216.084 364.98 212.121 362.811 206.348C361.371 202.493 360.462 198.313 359.583 194.273L359.206 192.564C357.164 183.323 352.671 171.688 342.831 168.754C331.589 165.404 321.899 176.485 317 186.981C309.636 202.792 301.684 209.56 280.801 200.133C279.38 199.493 277.931 198.757 276.465 197.968C258.904 188.333 243.885 186.56 226.243 192.047C223.431 192.916 220.447 194.033 217.098 195.447C212.8 197.267 208.693 199.303 204.706 201.274C194.322 206.42 184.504 211.277 171.969 212.369C163.649 213.087 156.295 211.214 149.168 209.399C146.579 208.741 143.888 208.051 141.18 207.501C124.683 204.109 105.071 202.334 85.9273 202.498C84.2113 202.513 82.4768 202.544 80.7531 202.572C76.5438 202.647 72.1874 202.735 68.1676 202.546L67.201 202.501C61.1749 202.17 56.0464 201.652 50.0289 200.76C45.3472 200.061 40.414 199.574 35.3413 199.087C30.9984 198.669 26.6088 198.173 22.39 197.428L22.1639 196.662L22.1748 196.659Z" fill="url(#paint29_linear)"/>
<path opacity="0.7" d="M519.028 103.677C520.191 106.711 521.787 109.557 523.441 112.445C525.725 116.399 528.336 120.363 531.099 124.564C540.442 138.729 551.02 154.792 549.528 173.76C548.578 185.743 541.802 195.987 532.248 199.855C519.435 205.045 515.984 198.63 512.649 192.414C510.666 188.728 508.799 185.241 505.056 184.059C501.566 182.95 497.926 183.694 493.913 186.323C485.229 191.995 477.8 204.948 475.007 210.253C473.256 213.576 471.623 217.144 470.036 220.587C465.185 231.129 460.165 242.045 450.815 249.321C439.838 257.858 421.323 256.689 412.708 246.921C411.434 245.479 410.429 243.845 409.694 242.064C408.422 238.977 408.141 235.782 407.857 232.69C407.494 228.705 407.151 224.943 404.83 221.649C402.833 218.822 399.744 216.826 394.812 215.162C392.813 214.494 390.656 213.922 388.574 213.366C383.211 211.935 377.671 210.456 373.423 207.173C369.533 204.154 366.866 199.885 365.029 193.742C363.899 189.913 363.243 185.84 362.622 181.884C362.482 181.017 362.345 180.16 362.209 179.304C361.18 172.984 357.536 157.962 346.006 155.094C334.017 152.088 324.963 164.737 320.852 176.488C316.714 188.304 311.806 194.912 305.386 197.305C299.772 199.395 292.891 198.295 284.365 193.95C282.986 193.253 281.53 192.416 280.024 191.489C261.95 180.278 246.541 177.54 228.512 182.312C225.514 183.103 222.409 184.124 219.025 185.421C214.265 187.254 209.754 189.378 205.385 191.433C195.026 196.312 185.224 200.914 172.713 201.692C164.458 202.2 156.775 200.865 149.344 199.559C147.421 199.226 145.494 198.882 143.555 198.576C130.544 196.52 111.051 193.848 92.0133 194.533C86.4692 194.734 80.7712 195.201 75.3985 195.667L74.4695 195.749C72.5434 195.919 70.6777 196.097 68.8446 196.267C64.8438 196.655 61.066 197.011 57.0661 197.205C52.7905 197.41 47.804 197.609 42.6984 197.484C36.1368 197.309 28.1595 196.356 21.229 193.396L20.9684 192.513C27.904 195.609 36.0333 196.604 42.6879 196.779C47.761 196.912 52.7443 196.702 56.9983 196.502C60.9874 196.311 64.7512 195.947 68.7411 195.562C70.5711 195.382 72.4368 195.204 74.3769 195.042L75.3059 194.96C80.6786 194.493 86.3873 194.023 91.9563 193.828C111.054 193.151 130.605 195.82 143.641 197.881C145.59 198.185 147.517 198.528 149.441 198.861C157.162 200.209 164.458 201.492 172.631 200.981C185.006 200.215 194.746 195.639 205.044 190.788C209.423 188.73 213.945 186.603 218.738 184.762C222.151 183.446 225.28 182.43 228.297 181.624C246.539 176.786 262.122 179.562 280.384 190.897C281.876 191.816 283.315 192.635 284.68 193.324C293.013 197.568 299.695 198.66 305.106 196.632C311.319 194.325 316.101 187.84 320.17 176.224C324.377 164.208 333.696 151.277 346.163 154.404C358.118 157.373 361.862 172.734 362.91 179.198C363.047 180.055 363.183 180.911 363.323 181.779C363.949 185.71 364.588 189.764 365.716 193.548C367.498 199.545 370.084 203.698 373.85 206.61C377.987 209.796 383.453 211.258 388.738 212.663C390.835 213.227 393.002 213.797 395.015 214.473C398.449 215.629 402.728 217.444 405.407 221.243C407.843 224.691 408.193 228.554 408.56 232.63C408.832 235.679 409.118 238.816 410.351 241.809C411.053 243.519 412.026 245.081 413.235 246.459C421.61 255.967 439.631 257.076 450.334 248.756C459.562 241.579 464.546 230.74 469.362 220.274C470.947 216.821 472.601 213.248 474.345 209.904C477.847 203.258 484.983 191.28 493.48 185.722C497.622 183.016 501.585 182.226 505.241 183.385C509.27 184.668 511.303 188.444 513.266 192.101C516.594 198.296 519.737 204.137 531.939 199.201C541.253 195.427 547.873 185.404 548.792 173.668C550.274 154.943 539.752 138.992 530.481 124.911C527.707 120.714 525.092 116.739 522.803 112.764C521.198 109.966 519.526 106.979 518.336 103.895" fill="url(#paint30_linear)"/>
<path opacity="0.7" d="M516.896 114.55C519.238 117.445 521.691 120.279 524.297 123.279C536.355 137.192 548.808 151.576 548.166 170.21C547.784 181.262 541.358 190.868 532.19 194.113C518.482 198.957 515.074 191.409 511.774 184.106C509.821 179.786 507.973 175.701 504.102 174.15C492.088 169.355 479.934 189.473 474.654 202.124C473.487 204.922 472.365 207.834 471.275 210.658C466.697 222.544 461.97 234.83 452.094 243.053C444.944 249 433.397 251.187 424.002 248.379C417.292 246.371 412.566 242.089 410.705 236.316C409.619 232.962 409.577 229.373 409.523 225.9C409.452 221.274 409.399 216.904 407.117 213.04C403.724 207.304 397.19 205.264 390.262 203.106C384.996 201.468 379.551 199.772 375.459 196.299C367.96 189.944 366.915 179.835 365.903 170.07C365.792 169.03 365.684 168.001 365.58 166.982C365.011 161.888 362.164 145.071 349.591 142.504C337.022 139.947 328.567 154.064 325.15 166.934C321.306 181.375 315.726 189.648 308.065 192.224C301.544 194.417 293.484 192.277 284.101 185.867C262.263 170.943 244.747 168.258 221.591 176.303C216.405 178.109 211.525 180.281 206.812 182.389C196.554 186.971 186.863 191.31 174.535 191.805C174.421 191.81 174.296 191.818 174.178 191.813C161.797 192.242 149.675 190.846 137.951 189.5C120.138 187.456 101.722 185.335 82.6465 189.804C79.5527 190.524 76.4317 191.387 73.408 192.226C66.1884 194.217 58.7093 196.271 51.0381 196.659C41.169 197.147 28.2577 194.22 21.8124 184.448C17.3455 177.673 17.1427 169.388 16.947 161.363C16.7364 153.092 16.5372 144.545 11.5405 137.901C9.4191 135.087 6.62612 132.905 3.59313 131.01L3.29541 130.005C6.66139 132.045 9.76879 134.388 12.1094 137.51C17.2413 144.337 17.4534 153.005 17.6597 161.38C17.8596 169.302 18.0559 177.486 22.4155 184.095C28.5917 193.468 40.9186 196.38 50.5593 195.982C50.6984 195.982 50.8344 195.971 50.9704 195.96C58.5736 195.578 65.9955 193.526 73.1858 191.554C76.2127 190.726 79.3445 189.861 82.4459 189.127C101.643 184.64 120.12 186.768 137.994 188.819C149.693 190.161 161.779 191.554 174.117 191.136C174.231 191.13 174.356 191.122 174.474 191.127C186.662 190.633 196.295 186.331 206.488 181.765C211.212 179.654 216.1 177.469 221.318 175.655C244.413 167.637 262.716 170.434 284.483 185.318C293.665 191.597 301.505 193.7 307.795 191.587C315.214 189.093 320.662 180.967 324.437 166.759C327.933 153.607 336.646 139.188 349.697 141.842C362.762 144.503 365.684 161.733 366.277 166.946C366.392 167.962 366.503 169.002 366.603 170.045C367.599 179.677 368.633 189.63 375.903 195.802C379.882 199.167 385.253 200.848 390.442 202.46C397.511 204.663 404.183 206.737 407.719 212.72C410.094 216.743 410.163 221.404 410.225 225.92C410.274 229.337 410.325 232.878 411.369 236.129C413.158 241.659 417.698 245.782 424.164 247.714C433.341 250.451 444.616 248.321 451.588 242.519C461.324 234.411 466.029 222.21 470.572 210.4C471.662 207.576 472.781 204.654 473.958 201.853C475.298 198.66 486.33 173.266 499.78 172.721C501.27 172.659 502.794 172.906 504.335 173.524C508.494 175.187 510.485 179.599 512.408 183.859C515.715 191.182 518.831 198.099 531.909 193.478C540.817 190.332 547.058 180.965 547.436 170.175C548.077 151.814 535.702 137.536 523.743 123.722C521.257 120.851 518.682 117.878 516.325 114.974" fill="url(#paint31_linear)"/>
<path d="M44.158 275.721C48.2792 276.066 52.5596 276.36 56.9576 276.659C78.409 278.141 102.727 279.811 119.729 288.009C124.93 290.512 129.51 294.217 133.952 297.807C142.988 305.11 151.519 312.003 164.344 308.665C179.41 304.737 190.814 293.53 201.852 282.698L204.464 280.137C216.236 268.645 230.594 256.819 247.892 256.119C247.938 256.119 247.985 256.119 248.031 256.118C262.52 255.579 266.927 262.549 271.589 269.911C274.252 274.125 277.017 278.484 281.857 281.771C286.068 284.622 291.44 285.306 296.641 285.964C302.94 286.76 309.448 287.595 314.245 292.191C317.65 295.458 320.748 299.177 323.739 302.774C323.906 302.983 324.08 303.179 324.246 303.388L322.742 303.761C322.705 303.713 322.67 303.676 322.633 303.629C319.675 300.069 316.612 296.387 313.258 293.176C308.818 288.924 302.832 288.165 296.505 287.353C291.134 286.669 285.581 285.961 281.067 282.912C275.967 279.451 273.118 274.964 270.371 270.623C265.749 263.319 261.761 257.02 248.131 257.517C231.217 258.179 217.106 269.818 205.494 281.146L202.882 283.706C191.721 294.672 180.169 306.007 164.749 310.034C151.202 313.562 141.969 306.103 133.04 298.887C128.674 295.358 124.156 291.706 119.106 289.28C102.363 281.211 78.1978 279.548 56.878 278.08C52.6441 277.785 48.5309 277.507 44.5522 277.172L44.1256 275.729L44.158 275.721Z" fill="url(#paint32_linear)"/>
<path d="M551.175 242.72L549.183 243.211C556.768 232.458 561.66 221.272 564.984 209.878L565.67 212.184C562.455 222.555 557.88 232.834 551.175 242.72Z" fill="url(#paint33_linear)"/>
<path d="M516.933 114.676C519.279 117.573 521.737 120.42 524.339 123.436C536.474 137.458 549.008 151.962 548.393 170.774C548.033 181.993 541.544 191.737 532.26 195.013C518.255 199.954 514.586 191.868 511.362 184.733C509.429 180.458 507.604 176.43 503.864 174.924C492.103 170.187 480.153 190.172 474.953 202.731C473.79 205.523 472.676 208.441 471.604 211.268C467.045 223.213 462.327 235.562 452.409 243.837C445.196 249.862 433.514 252.054 424.014 249.187C417.175 247.122 412.369 242.735 410.449 236.828C409.342 233.42 409.282 229.789 409.224 226.283C409.144 221.689 409.071 217.355 406.831 213.566C403.496 207.928 397.026 205.898 390.173 203.746C384.866 202.079 379.391 200.351 375.233 196.817C367.612 190.331 366.534 180.127 365.49 170.268C365.377 169.225 365.266 168.192 365.16 167.17C364.583 162.117 361.746 145.454 349.409 142.909C337.075 140.374 328.796 154.352 325.439 167.106C321.609 181.697 315.968 190.047 308.211 192.651C301.582 194.876 293.41 192.695 283.914 186.181C262.167 171.256 244.737 168.541 221.744 176.503C216.572 178.289 211.714 180.465 207.019 182.566C196.645 187.205 186.854 191.541 174.281 191.982C161.869 192.383 149.739 190.961 138.002 189.578C119.407 187.389 101.838 185.334 82.8459 189.759C79.7551 190.475 76.6483 191.331 73.6278 192.165C66.3945 194.151 58.9127 196.198 51.2024 196.581C41.1809 197.066 28.17 194.049 21.6299 184.107C17.0874 177.217 16.8701 168.851 16.6454 160.772C16.4126 152.16 16.1938 144.022 11.2545 137.435C9.21894 134.723 6.6172 132.641 3.728 130.8L3.13735 128.815C6.66499 130.931 9.94123 133.372 12.4007 136.651C17.622 143.602 17.8463 152.342 18.0781 160.795C18.2923 168.683 18.5067 176.844 22.8199 183.393C29.0166 192.804 41.4918 195.657 51.0667 195.191C58.6196 194.823 66.0258 192.795 73.1836 190.828C76.2179 190.001 79.3464 189.14 82.4556 188.408C101.685 183.925 120.206 186.098 138.113 188.195C149.799 189.567 161.87 190.982 174.167 190.586C186.385 190.198 196.13 185.862 206.372 181.29C211.1 179.181 215.98 176.999 221.213 175.187C244.405 167.153 262.793 170.009 284.714 185.05C293.803 191.288 301.539 193.405 307.702 191.33C314.899 188.909 320.398 180.628 324.057 166.706C327.557 153.381 336.362 138.795 349.661 141.536C362.975 144.285 365.984 161.761 366.587 167.058C366.704 168.077 366.818 169.12 366.92 170.166C367.932 179.76 368.981 189.675 376.164 195.779C380.091 199.119 385.422 200.791 390.577 202.416C397.405 204.562 404.453 206.781 408.072 212.907C410.503 217.025 410.589 221.755 410.66 226.317C410.711 229.722 410.775 233.25 411.811 236.458C413.567 241.893 418.041 245.941 424.382 247.854C433.449 250.589 444.581 248.498 451.452 242.762C461.101 234.713 465.759 222.516 470.263 210.732C471.345 207.902 472.456 204.975 473.623 202.158C474.959 198.935 486.01 173.316 499.684 172.797C501.22 172.738 502.779 172.993 504.374 173.637C508.679 175.368 510.711 179.858 512.68 184.215C515.931 191.401 518.993 198.188 531.729 193.697C540.499 190.604 546.625 181.349 546.96 170.671C547.551 152.401 535.197 138.114 523.25 124.297C520.757 121.413 518.176 118.426 515.81 115.499" fill="url(#paint34_linear)"/>
</g>
<defs>
<linearGradient id="paint0_linear" x1="74.6467" y1="357.61" x2="76.3425" y2="364.471" gradientUnits="userSpaceOnUse">
<stop stop-color="#B98787" stop-opacity="0"/>
<stop offset="1" stop-color="#CDA2A2" stop-opacity="0.5"/>
</linearGradient>
<linearGradient id="paint1_linear" x1="79.9659" y1="352.025" x2="82.6603" y2="362.909" gradientUnits="userSpaceOnUse">
<stop stop-color="#B98787" stop-opacity="0"/>
<stop offset="1" stop-color="#CDA2A2" stop-opacity="0.5"/>
</linearGradient>
<linearGradient id="paint2_linear" x1="85.5695" y1="346.906" x2="89.1409" y2="361.314" gradientUnits="userSpaceOnUse">
<stop stop-color="#B98787" stop-opacity="0"/>
<stop offset="1" stop-color="#CDA2A2" stop-opacity="0.5"/>
</linearGradient>
<linearGradient id="paint3_linear" x1="91.3297" y1="340.253" x2="96.1265" y2="359.603" gradientUnits="userSpaceOnUse">
<stop stop-color="#B98787" stop-opacity="0"/>
<stop offset="1" stop-color="#CDA2A2" stop-opacity="0.5"/>
</linearGradient>
<linearGradient id="paint4_linear" x1="97.821" y1="330.453" x2="104.538" y2="357.569" gradientUnits="userSpaceOnUse">
<stop stop-color="#B98787" stop-opacity="0"/>
<stop offset="1" stop-color="#CDA2A2" stop-opacity="0.5"/>
</linearGradient>
<linearGradient id="paint5_linear" x1="149.102" y1="305.406" x2="158.744" y2="344.048" gradientUnits="userSpaceOnUse">
<stop stop-color="#B98787" stop-opacity="0"/>
<stop offset="1" stop-color="#CDA2A2" stop-opacity="0.5"/>
</linearGradient>
<linearGradient id="paint6_linear" x1="152.644" y1="288.016" x2="166.147" y2="342.318" gradientUnits="userSpaceOnUse">
<stop stop-color="#B98787" stop-opacity="0"/>
<stop offset="1" stop-color="#CDA2A2" stop-opacity="0.5"/>
</linearGradient>
<linearGradient id="paint7_linear" x1="154.381" y1="269.634" x2="172.079" y2="340.991" gradientUnits="userSpaceOnUse">
<stop stop-color="#B98787" stop-opacity="0"/>
<stop offset="1" stop-color="#CDA2A2" stop-opacity="0.5"/>
</linearGradient>
<linearGradient id="paint8_linear" x1="568.084" y1="227.833" x2="570.52" y2="237.68" gradientUnits="userSpaceOnUse">
<stop stop-color="#B98787" stop-opacity="0"/>
<stop offset="1" stop-color="#CDA2A2" stop-opacity="0.5"/>
</linearGradient>
<linearGradient id="paint9_linear" x1="164.484" y1="257.434" x2="184.457" y2="337.975" gradientUnits="userSpaceOnUse">
<stop stop-color="#B98787" stop-opacity="0"/>
<stop offset="1" stop-color="#CDA2A2" stop-opacity="0.5"/>
</linearGradient>
<linearGradient id="paint10_linear" x1="562.976" y1="221.187" x2="567.267" y2="238.569" gradientUnits="userSpaceOnUse">
<stop stop-color="#B98787" stop-opacity="0"/>
<stop offset="1" stop-color="#CDA2A2" stop-opacity="0.5"/>
</linearGradient>
<linearGradient id="paint11_linear" x1="169.601" y1="250.027" x2="191.009" y2="336.369" gradientUnits="userSpaceOnUse">
<stop stop-color="#B98787" stop-opacity="0"/>
<stop offset="1" stop-color="#CDA2A2" stop-opacity="0.5"/>
</linearGradient>
<linearGradient id="paint12_linear" x1="558.222" y1="216.719" x2="563.838" y2="239.501" gradientUnits="userSpaceOnUse">
<stop stop-color="#B98787" stop-opacity="0"/>
<stop offset="1" stop-color="#CDA2A2" stop-opacity="0.5"/>
</linearGradient>
<linearGradient id="paint13_linear" x1="170.751" y1="244.723" x2="193.33" y2="335.825" gradientUnits="userSpaceOnUse">
<stop stop-color="#B98787" stop-opacity="0"/>
<stop offset="1" stop-color="#CDA2A2" stop-opacity="0.5"/>
</linearGradient>
<linearGradient id="paint14_linear" x1="553.461" y1="213.391" x2="560.14" y2="240.503" gradientUnits="userSpaceOnUse">
<stop stop-color="#B98787" stop-opacity="0"/>
<stop offset="1" stop-color="#CDA2A2" stop-opacity="0.5"/>
</linearGradient>
<linearGradient id="paint15_linear" x1="174.302" y1="234.345" x2="199.094" y2="334.429" gradientUnits="userSpaceOnUse">
<stop stop-color="#B98787" stop-opacity="0"/>
<stop offset="1" stop-color="#CDA2A2" stop-opacity="0.5"/>
</linearGradient>
<linearGradient id="paint16_linear" x1="548.945" y1="209.166" x2="556.882" y2="241.388" gradientUnits="userSpaceOnUse">
<stop stop-color="#B98787" stop-opacity="0"/>
<stop offset="1" stop-color="#CDA2A2" stop-opacity="0.5"/>
</linearGradient>
<linearGradient id="paint17_linear" x1="178.638" y1="223.628" x2="205.69" y2="332.88" gradientUnits="userSpaceOnUse">
<stop stop-color="#B98787" stop-opacity="0"/>
<stop offset="1" stop-color="#CDA2A2" stop-opacity="0.5"/>
</linearGradient>
<linearGradient id="paint18_linear" x1="543.034" y1="205.337" x2="552.223" y2="242.649" gradientUnits="userSpaceOnUse">
<stop stop-color="#B98787" stop-opacity="0"/>
<stop offset="1" stop-color="#CDA2A2" stop-opacity="0.5"/>
</linearGradient>
<linearGradient id="paint19_linear" x1="534.78" y1="202.006" x2="545.255" y2="244.526" gradientUnits="userSpaceOnUse">
<stop stop-color="#B98787" stop-opacity="0"/>
<stop offset="1" stop-color="#CDA2A2" stop-opacity="0.5"/>
</linearGradient>
<linearGradient id="paint20_linear" x1="199.138" y1="208.327" x2="228.603" y2="327.232" gradientUnits="userSpaceOnUse">
<stop stop-color="#B98787" stop-opacity="0"/>
<stop offset="1" stop-color="#CDA2A2" stop-opacity="0.5"/>
</linearGradient>
<linearGradient id="paint21_linear" x1="202.6" y1="196.008" x2="234.732" y2="325.746" gradientUnits="userSpaceOnUse">
<stop stop-color="#B98787" stop-opacity="0"/>
<stop offset="1" stop-color="#CDA2A2" stop-opacity="0.5"/>
</linearGradient>
<linearGradient id="paint22_linear" x1="509.073" y1="202.923" x2="520.953" y2="251.001" gradientUnits="userSpaceOnUse">
<stop stop-color="#B98787" stop-opacity="0"/>
<stop offset="1" stop-color="#CDA2A2" stop-opacity="0.5"/>
</linearGradient>
<linearGradient id="paint23_linear" x1="201.948" y1="179.72" x2="237.915" y2="325.083" gradientUnits="userSpaceOnUse">
<stop stop-color="#B98787" stop-opacity="0"/>
<stop offset="1" stop-color="#CDA2A2" stop-opacity="0.5"/>
</linearGradient>
<linearGradient id="paint24_linear" x1="501.796" y1="199.159" x2="515.005" y2="252.612" gradientUnits="userSpaceOnUse">
<stop stop-color="#B98787" stop-opacity="0"/>
<stop offset="1" stop-color="#CDA2A2" stop-opacity="0.5"/>
</linearGradient>
<linearGradient id="paint25_linear" x1="202.71" y1="165.363" x2="241.978" y2="324.167" gradientUnits="userSpaceOnUse">
<stop stop-color="#B98787" stop-opacity="0"/>
<stop offset="1" stop-color="#CDA2A2" stop-opacity="0.5"/>
</linearGradient>
<linearGradient id="paint26_linear" x1="495.562" y1="194.858" x2="510.152" y2="253.912" gradientUnits="userSpaceOnUse">
<stop stop-color="#B98787" stop-opacity="0"/>
<stop offset="1" stop-color="#CDA2A2" stop-opacity="0.5"/>
</linearGradient>
<linearGradient id="paint27_linear" x1="274.315" y1="140.217" x2="314.951" y2="303.987" gradientUnits="userSpaceOnUse">
<stop stop-color="#B98787" stop-opacity="0"/>
<stop offset="1" stop-color="#CDA2A2" stop-opacity="0.5"/>
</linearGradient>
<linearGradient id="paint28_linear" x1="273.422" y1="137.074" x2="313.404" y2="298.174" gradientUnits="userSpaceOnUse">
<stop stop-color="#B98787" stop-opacity="0"/>
<stop offset="1" stop-color="#CDA2A2" stop-opacity="0.5"/>
</linearGradient>
<linearGradient id="paint29_linear" x1="272.691" y1="134.47" x2="311.868" y2="292.286" gradientUnits="userSpaceOnUse">
<stop stop-color="#B98787" stop-opacity="0"/>
<stop offset="1" stop-color="#CDA2A2" stop-opacity="0.5"/>
</linearGradient>
<linearGradient id="paint30_linear" x1="271.311" y1="130.359" x2="310.088" y2="286.543" gradientUnits="userSpaceOnUse">
<stop stop-color="#B98787" stop-opacity="0"/>
<stop offset="1" stop-color="#CDA2A2" stop-opacity="0.5"/>
</linearGradient>
<linearGradient id="paint31_linear" x1="252.588" y1="68.3351" x2="305.459" y2="282.06" gradientUnits="userSpaceOnUse">
<stop stop-color="#B98787" stop-opacity="0"/>
<stop offset="1" stop-color="#CDA2A2" stop-opacity="0.5"/>
</linearGradient>
<linearGradient id="paint32_linear" x1="170.813" y1="244.329" x2="193.483" y2="335.798" gradientUnits="userSpaceOnUse">
<stop stop-color="#B98787" stop-opacity="0"/>
<stop offset="1" stop-color="#CCA1A1"/>
</linearGradient>
<linearGradient id="paint33_linear" x1="553.006" y1="212.829" x2="559.844" y2="240.584" gradientUnits="userSpaceOnUse">
<stop stop-color="#B98787" stop-opacity="0"/>
<stop offset="1" stop-color="#CCA1A1"/>
</linearGradient>
<linearGradient id="paint34_linear" x1="252.358" y1="67.4594" x2="305.376" y2="282.814" gradientUnits="userSpaceOnUse">
<stop stop-color="#B98787" stop-opacity="0"/>
<stop offset="1" stop-color="#CCA1A1"/>
</linearGradient>
</defs>
</svg>
