<svg width="40" height="40" viewBox="0 0 40 40" fill="none" xmlns="http://www.w3.org/2000/svg">
<circle r="19.5" transform="matrix(-1 0 0 1 20 20)" stroke="white"/>
<path d="M16.9782 26.0394C16.8125 25.8849 16.8067 25.6272 16.9653 25.4656L16.9654 25.4655L22.4343 19.9063L16.9654 14.3471L16.9652 14.347C16.8067 14.1853 16.8125 13.9276 16.9782 13.7732C17.0582 13.6986 17.1607 13.6625 17.261 13.6625C17.368 13.6625 17.4754 13.7035 17.5564 13.7854L17.5567 13.7857L23.302 19.6256L23.3021 19.6257C23.4558 19.7822 23.4558 20.0304 23.3021 20.187L23.302 20.1871L17.5567 26.027L17.5567 26.027L17.5562 26.0275C17.4 26.1847 17.1424 26.1927 16.9782 26.0394ZM16.9782 26.0394C16.9782 26.0394 16.9782 26.0394 16.9782 26.0394L17.0805 25.9297L16.9781 26.0393C16.9781 26.0393 16.9781 26.0393 16.9782 26.0394Z" fill="white" stroke="white" stroke-width="0.3"/>
</svg>
