<svg width="40" height="40" viewBox="0 0 40 40" fill="none" xmlns="http://www.w3.org/2000/svg">
<circle cx="20" cy="20" r="19.5" stroke="white"/>
<path d="M23.0218 26.0394C23.1875 25.8849 23.1933 25.6272 23.0347 25.4656L23.0346 25.4655L17.5657 19.9063L23.0346 14.3471L23.0348 14.347C23.1933 14.1853 23.1875 13.9276 23.0218 13.7732C22.9418 13.6986 22.8393 13.6625 22.739 13.6625C22.632 13.6625 22.5246 13.7035 22.4436 13.7854L22.4433 13.7857L16.698 19.6256L16.6979 19.6257C16.5442 19.7822 16.5442 20.0304 16.6979 20.187L16.698 20.1871L22.4433 26.027L22.4433 26.027L22.4438 26.0275C22.6 26.1847 22.8576 26.1927 23.0218 26.0394ZM23.0218 26.0394C23.0218 26.0394 23.0218 26.0394 23.0218 26.0394L22.9195 25.9297L23.0219 26.0393C23.0219 26.0393 23.0219 26.0393 23.0218 26.0394Z" fill="white" stroke="white" stroke-width="0.3"/>
</svg>
