<svg width="68" height="58" viewBox="0 0 68 58" fill="none" xmlns="http://www.w3.org/2000/svg">
<path d="M64.9123 30.0576H52.0059C51.442 30.0576 50.9844 29.5974 50.9844 29.0303C50.9844 28.4633 51.442 28.003 52.0059 28.003H64.9123C65.3032 28.003 65.622 27.6825 65.622 27.2894V24.465C65.622 24.0719 65.3032 23.7514 64.9123 23.7514H2.75264C2.36174 23.7514 2.04302 24.0719 2.04302 24.465V27.2894C2.04302 27.6825 2.36174 28.003 2.75264 28.003H19.2126C19.7765 28.003 20.2341 28.4633 20.2341 29.0303C20.2341 29.5974 19.7765 30.0576 19.2126 30.0576H2.75264C1.23535 30.0576 0 28.8153 0 27.2894V24.465C0 22.9391 1.23535 21.6968 2.75264 21.6968H64.9123C66.4296 21.6968 67.665 22.9391 67.665 24.465V27.2894C67.665 28.8153 66.4296 30.0576 64.9123 30.0576Z" fill="#4A7274"/>
<path d="M44.5285 58.0003H23.1366C19.2535 58.0003 15.4821 56.61 12.5184 54.0856C9.55734 51.5639 7.57288 48.0546 6.93273 44.2057L4.19917 29.2154C4.09702 28.6579 4.46476 28.1223 5.0191 28.0196C5.57344 27.9168 6.10599 28.2867 6.20814 28.8442L8.94307 43.8441C8.94443 43.8496 8.94443 43.855 8.94579 43.8605C9.50558 47.2342 11.2435 50.3092 13.8382 52.5186C16.4328 54.7293 19.7343 55.9457 23.1353 55.9457H44.5285C47.9294 55.9457 51.231 54.728 53.8256 52.5186C56.4202 50.3078 58.1582 47.2342 58.718 43.8605C58.7193 43.855 58.7193 43.8496 58.7207 43.8441L61.4556 28.8442C61.5578 28.2867 62.0903 27.9168 62.6447 28.0196C63.199 28.1223 63.5667 28.6579 63.4646 29.2154L60.7324 44.2071C60.0922 48.056 58.1078 51.5639 55.1468 54.0869C52.183 56.61 48.4129 58.0003 44.5285 58.0003Z" fill="#4A7274"/>
<path d="M7.49919 23.7514C6.93532 23.7514 6.47768 23.2912 6.47768 22.7241V17.2192C6.47768 16.7192 6.07316 16.3124 5.57603 16.3124C5.07889 16.3124 4.67437 16.7192 4.67437 17.2192V22.7241C4.67437 23.2912 4.21673 23.7514 3.65286 23.7514C3.08899 23.7514 2.63135 23.2912 2.63135 22.7241V17.2192C2.63135 15.5865 3.9525 14.2578 5.57603 14.2578C7.19955 14.2578 8.5207 15.5865 8.5207 17.2192V22.7241C8.5207 23.2912 8.06307 23.7514 7.49919 23.7514Z" fill="#4A7274"/>
<path d="M64.4521 23.7514C63.8882 23.7514 63.4306 23.2912 63.4306 22.7241V17.2192C63.4306 16.7192 63.026 16.3124 62.5289 16.3124C62.0318 16.3124 61.6273 16.7192 61.6273 17.2192V22.7241C61.6273 23.2912 61.1696 23.7514 60.6057 23.7514C60.0419 23.7514 59.5842 23.2912 59.5842 22.7241V17.2192C59.5842 15.5865 60.9054 14.2578 62.5289 14.2578C64.1524 14.2578 65.4736 15.5865 65.4736 17.2192V22.7241C65.4736 23.2912 65.016 23.7514 64.4521 23.7514Z" fill="#4A7274"/>
<path d="M37.6922 20.4886C37.5792 20.4886 37.4634 20.4694 37.3517 20.4297L24.3976 15.8164C23.1309 15.3644 21.7294 15.4822 20.554 16.1369L12.9798 20.3598C12.4868 20.6351 11.8643 20.4557 11.5906 19.9599C11.3168 19.464 11.4952 18.8381 11.9883 18.5627L19.5625 14.3399C21.25 13.3988 23.2603 13.2317 25.0786 13.8796L38.0327 18.4929C38.5639 18.6819 38.8432 19.2695 38.6552 19.8037C38.5067 20.2256 38.1117 20.4886 37.6922 20.4886Z" fill="#4A7274"/>
<path d="M47.7317 14.5795C47.5138 14.5795 47.2945 14.5097 47.1079 14.3659L41.2731 9.83752C40.3932 9.15539 39.2968 8.77872 38.1854 8.77872H33.7929C32.6746 8.77872 31.5728 9.1595 30.6902 9.84985L27.3532 12.4592C26.9079 12.8071 26.2664 12.7263 25.9204 12.2784C25.5745 11.8305 25.6548 11.1853 26.1002 10.8374L29.4371 8.22809C30.6766 7.25832 32.2238 6.72412 33.7942 6.72412H38.1867C39.7476 6.72412 41.2867 7.25147 42.5234 8.21028L48.3569 12.74C48.8036 13.0865 48.8867 13.7317 48.5421 14.1809C48.3406 14.4426 48.0368 14.5795 47.7317 14.5795Z" fill="#4A7274"/>
<path d="M56.2784 20.4885C55.9897 20.4885 55.7037 20.3665 55.5021 20.1296L52.7427 16.8874C51.2621 15.4396 49.2341 14.6876 47.1734 14.8205L36.0484 15.5437C35.4886 15.5807 34.9997 15.1506 34.9629 14.5849C34.9261 14.0192 35.3538 13.5302 35.9163 13.4932L47.0413 12.77C49.6972 12.5974 52.3082 13.5754 54.2055 15.4519C54.2259 15.4725 54.2463 15.4944 54.2654 15.5163L57.0534 18.7941C57.4198 19.2256 57.3708 19.8734 56.9417 20.2419C56.7497 20.4076 56.5127 20.4885 56.2784 20.4885Z" fill="#4A7274"/>
<path d="M15.5691 18.7678C15.1142 18.7678 14.7002 18.461 14.5803 17.9966L14.3665 17.1625C13.7427 14.7326 14.4782 12.1492 16.2883 10.4206L17.8301 8.94681C19.3474 7.49763 21.4081 6.82646 23.4824 7.10863L30.1999 8.0195C30.7597 8.09483 31.1506 8.61259 31.0757 9.17418C31.0008 9.73577 30.4859 10.1316 29.9275 10.0549L23.21 9.14405C21.7513 8.94681 20.3049 9.41799 19.2384 10.4357L17.6966 11.9095C16.4245 13.1245 15.9069 14.9394 16.3455 16.6474L16.5593 17.4802C16.701 18.0295 16.3714 18.5897 15.8252 18.7322C15.7394 18.7568 15.6536 18.7678 15.5691 18.7678Z" fill="#4A7274"/>
<path d="M10.3799 17.6464C9.9863 17.6464 9.61039 17.4162 9.44286 17.03C9.21676 16.5095 9.45375 15.9041 9.96996 15.6781L14.7588 13.5769C15.2764 13.3495 15.8784 13.5878 16.1031 14.107C16.3292 14.6275 16.0922 15.2329 15.576 15.4589L10.7872 17.5601C10.6551 17.619 10.5161 17.6464 10.3799 17.6464Z" fill="#4A7274"/>
<path d="M52.8898 12.1372C52.6692 12.1372 52.4458 12.0646 52.2578 11.9167L42.1639 3.92017C40.7924 2.83398 39.1444 2.2217 37.3996 2.15185L35.1618 2.06282C33.5397 1.99844 31.9475 2.4121 30.5582 3.26133L26.6846 5.63097C26.2025 5.92546 25.5746 5.77205 25.2804 5.28716C24.9876 4.80228 25.1401 4.17083 25.6223 3.87497L29.4972 1.50397C31.2297 0.443793 33.2169 -0.0725956 35.2435 0.00821852L37.4813 0.0972511C39.6592 0.184914 41.7158 0.947854 43.4279 2.30389L53.5218 10.3004C53.9644 10.651 54.0407 11.2975 53.692 11.7427C53.4918 12.003 53.1922 12.1372 52.8898 12.1372Z" fill="#4A7274"/>
<path d="M54.6279 35.6454H44.094C43.5301 35.6454 43.0725 35.1852 43.0725 34.6181C43.0725 34.051 43.5301 33.5908 44.094 33.5908H54.6279C55.1917 33.5908 55.6494 34.051 55.6494 34.6181C55.6494 35.1852 55.1917 35.6454 54.6279 35.6454Z" fill="#4A7274"/>
<path d="M40.4275 35.6454H39.6702C39.1063 35.6454 38.6487 35.1852 38.6487 34.6181C38.6487 34.051 39.1063 33.5908 39.6702 33.5908H40.4275C40.9913 33.5908 41.449 34.051 41.449 34.6181C41.449 35.1852 40.9927 35.6454 40.4275 35.6454Z" fill="#4A7274"/>
<path d="M21.9285 41.2348H7.4993C6.93542 41.2348 6.47778 40.7745 6.47778 40.2075C6.47778 39.6404 6.93542 39.1802 7.4993 39.1802H21.9285C22.4924 39.1802 22.95 39.6404 22.95 40.2075C22.95 40.7745 22.4937 41.2348 21.9285 41.2348Z" fill="#4A7274"/>
<path d="M60.016 41.2348H50.2163C49.6525 41.2348 49.1948 40.7745 49.1948 40.2075C49.1948 39.6404 49.6525 39.1802 50.2163 39.1802H60.016C60.5799 39.1802 61.0376 39.6404 61.0376 40.2075C61.0376 40.7745 60.5799 41.2348 60.016 41.2348Z" fill="#4A7274"/>
<path d="M42.7428 46.8231H31.1697C30.6058 46.8231 30.1482 46.3629 30.1482 45.7959C30.1482 45.2288 30.6058 44.7686 31.1697 44.7686H42.7428C43.3066 44.7686 43.7643 45.2288 43.7643 45.7959C43.7643 46.3629 43.308 46.8231 42.7428 46.8231Z" fill="#4A7274"/>
<path d="M46.8207 46.8231H46.3726C45.8087 46.8231 45.3511 46.3629 45.3511 45.7959C45.3511 45.2288 45.8087 44.7686 46.3726 44.7686H46.8207C47.3846 44.7686 47.8422 45.2288 47.8422 45.7959C47.8422 46.3629 47.3859 46.8231 46.8207 46.8231Z" fill="#4A7274"/>
<path d="M27.9759 46.8231H17.2759C16.712 46.8231 16.2544 46.3629 16.2544 45.7959C16.2544 45.2288 16.712 44.7686 17.2759 44.7686H27.9759C28.5398 44.7686 28.9974 45.2288 28.9974 45.7959C28.9974 46.3629 28.5411 46.8231 27.9759 46.8231Z" fill="#4A7274"/>
<path d="M14.1145 46.8231H8.66507C8.10119 46.8231 7.64355 46.3629 7.64355 45.7959C7.64355 45.2288 8.10119 44.7686 8.66507 44.7686H14.1145C14.6784 44.7686 15.136 45.2288 15.136 45.7959C15.136 46.3629 14.6784 46.8231 14.1145 46.8231Z" fill="#4A7274"/>
<path d="M33.6528 52.411H11.5977C11.0338 52.411 10.5762 51.9508 10.5762 51.3837C10.5762 50.8167 11.0338 50.3564 11.5977 50.3564H33.6528C34.2167 50.3564 34.6743 50.8167 34.6743 51.3837C34.6743 51.9508 34.2167 52.411 33.6528 52.411Z" fill="#4A7274"/>
<path d="M17.2759 41.2345C16.712 41.2345 16.2544 40.7743 16.2544 40.2072V32.5039C16.2544 31.9368 16.712 31.4766 17.2759 31.4766C17.8398 31.4766 18.2974 31.9368 18.2974 32.5039V40.2072C18.2974 40.7743 17.8398 41.2345 17.2759 41.2345Z" fill="#4A7274"/>
<path d="M25.7803 37.6116C25.2164 37.6116 24.7588 37.1514 24.7588 36.5843V32.5039C24.7588 31.9368 25.2164 31.4766 25.7803 31.4766C26.3442 31.4766 26.8018 31.9368 26.8018 32.5039V36.5843C26.8018 37.1527 26.3442 37.6116 25.7803 37.6116Z" fill="#4A7274"/>
<path d="M20.1743 46.823C19.6105 46.823 19.1528 46.3627 19.1528 45.7957V43.5356C19.1528 42.9685 19.6105 42.5083 20.1743 42.5083C20.7382 42.5083 21.1959 42.9685 21.1959 43.5356V45.7957C21.1959 46.3627 20.7382 46.823 20.1743 46.823Z" fill="#4A7274"/>
<path d="M12.7744 43.6538C12.2106 43.6538 11.7529 43.1935 11.7529 42.6265V37.8173C11.7529 37.2503 12.2106 36.79 12.7744 36.79C13.3383 36.79 13.796 37.2503 13.796 37.8173V42.6265C13.796 43.1935 13.3383 43.6538 12.7744 43.6538Z" fill="#4A7274"/>
<path d="M29.0464 35.6454H11.189C10.6251 35.6454 10.1675 35.1852 10.1675 34.6181C10.1675 34.051 10.6251 33.5908 11.189 33.5908H29.0478C29.6116 33.5908 30.0693 34.051 30.0693 34.6181C30.0693 35.1852 29.6116 35.6454 29.0464 35.6454Z" fill="#4A7274"/>
<path d="M33.326 46.8227C32.7621 46.8227 32.3044 46.3624 32.3044 45.7954V43.3764C32.3044 42.8094 32.7621 42.3491 33.326 42.3491C33.8898 42.3491 34.3475 42.8094 34.3475 43.3764V45.7954C34.3475 46.3624 33.8898 46.8227 33.326 46.8227Z" fill="#4A7274"/>
<path d="M39.2805 49.1772C38.7167 49.1772 38.259 48.717 38.259 48.1499V43.3764C38.259 42.8094 38.7167 42.3491 39.2805 42.3491C39.8444 42.3491 40.3021 42.8094 40.3021 43.3764V48.1499C40.3021 48.7184 39.8444 49.1772 39.2805 49.1772Z" fill="#4A7274"/>
<path d="M52.5357 43.6537C51.9718 43.6537 51.5142 43.1935 51.5142 42.6264V40.2075C51.5142 39.6404 51.9718 39.1802 52.5357 39.1802C53.0995 39.1802 53.5572 39.6404 53.5572 40.2075V42.6264C53.5572 43.1935 53.0995 43.6537 52.5357 43.6537Z" fill="#4A7274"/>
<path d="M46.5484 38.1802C45.9845 38.1802 45.5269 37.72 45.5269 37.1529V31.6562C45.5269 31.0891 45.9845 30.6289 46.5484 30.6289C47.1122 30.6289 47.5699 31.0891 47.5699 31.6562V37.1529C47.5699 37.72 47.1136 38.1802 46.5484 38.1802Z" fill="#4A7274"/>
<path d="M57.68 32.475C57.1161 32.475 56.6584 32.0148 56.6584 31.4477V29.0288C56.6584 28.4617 57.1161 28.0015 57.68 28.0015C58.2438 28.0015 58.7015 28.4617 58.7015 29.0288V31.4477C58.7015 32.0161 58.2438 32.475 57.68 32.475Z" fill="#4A7274"/>
<path d="M52.5357 37.7687C51.9718 37.7687 51.5142 37.3084 51.5142 36.7414V34.7334C51.5142 34.1663 51.9718 33.7061 52.5357 33.7061C53.0995 33.7061 53.5572 34.1663 53.5572 34.7334V36.7414C53.5572 37.3084 53.0995 37.7687 52.5357 37.7687Z" fill="#4A7274"/>
<path d="M32.1001 55.08C31.5363 55.08 31.0786 54.6198 31.0786 54.0527V51.6337C31.0786 51.0667 31.5363 50.6064 32.1001 50.6064C32.664 50.6064 33.1216 51.0667 33.1216 51.6337V54.0527C33.1216 54.6198 32.664 55.08 32.1001 55.08Z" fill="#4A7274"/>
<path d="M20.1743 54.7807C19.6105 54.7807 19.1528 54.3205 19.1528 53.7534V49.5141C19.1528 48.947 19.6105 48.4868 20.1743 48.4868C20.7382 48.4868 21.1959 48.947 21.1959 49.5141V53.7534C21.1959 54.3205 20.7382 54.7807 20.1743 54.7807Z" fill="#4A7274"/>
<path d="M26.0144 57.9999C25.4506 57.9999 24.9929 57.5396 24.9929 56.9726V43.5341C24.9929 42.9671 25.4506 42.5068 26.0144 42.5068C26.5783 42.5068 27.0359 42.9671 27.0359 43.5341V56.9726C27.0359 57.541 26.5783 57.9999 26.0144 57.9999Z" fill="#4A7274"/>
</svg>
