<svg width="217" height="255" viewBox="0 0 217 255" fill="none" xmlns="http://www.w3.org/2000/svg">
<g clip-path="url(#clip0)">
<path d="M31.4601 193.255C42.9888 182.098 53.6667 170.182 63.36 157.394C64.4498 155.945 62.0026 154.526 60.9223 155.965C51.4776 168.628 41.1247 180.591 29.7967 191.595C28.7261 192.641 30.3799 194.301 31.4601 193.255Z" fill="#4A7274"/>
<path d="M44.4419 187.115C36.7753 195.184 29.9689 204.23 22.7611 212.721C21.8147 213.834 23.4016 215.455 24.3766 214.342C31.6896 205.967 39.6144 197.899 46.4494 189.13C47.5392 187.729 45.742 185.744 44.4419 187.115Z" fill="#4A7274"/>
<path d="M56.1237 183.153C62.758 175.325 70.0136 168.063 77.9671 161.577C79.3915 160.416 77.3362 158.306 75.9309 159.534C68.2069 166.307 61.0469 173.598 54.556 181.58C53.667 182.674 55.1869 184.257 56.1237 183.153Z" fill="#4A7274"/>
<path d="M58.1503 195.203C51.6977 202.628 45.2546 210.361 39.4424 218.295C38.8784 219.072 40.102 219.964 40.7521 219.302C47.568 212.366 54.0875 204.835 60.3012 197.352C61.5439 195.874 59.4504 193.716 58.1503 195.203Z" fill="#4A7274"/>
<path d="M86.3889 183.806C93.0518 175.028 99.8964 166.393 106.512 157.586C107.783 155.888 104.944 154.277 103.682 155.927C97.019 164.666 90.5759 173.598 83.9608 182.376C82.8614 183.825 85.3087 185.235 86.3889 183.806Z" fill="#4A7274"/>
<path d="M76.2941 204.806C67.92 212.02 61.1328 221.403 55.6935 230.977C55.0243 232.157 56.8119 233.213 57.5098 232.042C63.2072 222.429 70.4341 214.62 78.5788 207.089C80.0987 205.669 77.8427 203.472 76.2941 204.806Z" fill="#4A7274"/>
<path d="M63.8381 207.128C67.8244 202.216 71.8585 197.342 75.9691 192.536C77.317 190.962 74.9845 189.12 73.713 190.79C69.9466 195.74 66.0846 200.623 62.1939 205.478C61.2475 206.629 62.8822 208.308 63.8381 207.128Z" fill="#4A7274"/>
<path d="M106.473 170.221C99.4567 180.036 92.7555 190.003 86.5801 200.364C85.6624 201.899 88.0427 203.29 88.9604 201.765C95.0784 191.557 101.732 181.599 109.102 172.265C110.613 170.365 107.898 168.226 106.473 170.221Z" fill="#4A7274"/>
<path d="M48.6004 221.94C42.511 231.237 36.3547 240.485 30.1602 249.704C29.3954 250.836 31.2117 251.873 31.9765 250.769C38.2953 241.607 44.6619 232.484 51.0858 223.399C52.1469 221.883 49.6232 220.377 48.6004 221.94Z" fill="#4A7274"/>
<path d="M73.9233 226.325C67.4707 234.489 60.846 242.49 54.1735 250.472C53.3227 251.489 54.7757 252.956 55.6265 251.93C62.3086 243.996 69.0289 236.1 75.9403 228.349C77.1926 226.958 75.0513 224.905 73.9233 226.325Z" fill="#4A7274"/>
<path d="M102.573 199.645C95.9962 207.329 90.251 215.81 84.9359 224.415C84.1616 225.672 86.1308 226.823 86.9051 225.567C92.1533 217.067 98.1757 209.305 104.561 201.64C105.718 200.259 103.758 198.254 102.573 199.645Z" fill="#4A7274"/>
<path d="M92.5355 231.131C87.2109 236.926 82.4407 243.344 77.422 249.416C76.4183 250.635 78.1294 252.4 79.1714 251.172C84.2953 245.205 89.8015 239.429 94.6099 233.213C95.7379 231.764 93.8547 229.702 92.5355 231.131Z" fill="#4A7274"/>
<path d="M121.185 203.511C117.295 207.291 113.968 212.155 111.119 216.76C110.345 218.016 112.304 219.158 113.088 217.911C116.004 213.277 119.474 209.478 123.164 205.487C124.388 204.173 122.485 202.244 121.185 203.511Z" fill="#4A7274"/>
<path d="M116.291 190.473C119.818 187.01 123.336 183.527 126.978 180.179C128.47 178.807 126.128 176.457 124.761 177.954C121.434 181.609 117.954 185.139 114.503 188.689C113.375 189.85 115.134 191.615 116.291 190.473Z" fill="#4A7274"/>
<path d="M36.5555 172.591C39.4998 167.861 43.0176 163.525 47.0613 159.697C48.5334 158.296 46.1914 155.965 44.8435 157.471C40.9528 161.798 37.4732 166.384 34.395 171.334C33.5442 172.696 35.7047 173.963 36.5555 172.591Z" fill="#4A7274"/>
<path d="M5.90779 191.509C3.45101 193.668 1.46264 196.555 0.124319 199.529C-0.525725 200.969 1.57736 202.244 2.26564 200.786C3.6422 197.879 5.5063 195.625 7.90572 193.514C9.27272 192.305 7.27479 190.31 5.90779 191.509Z" fill="#4A7274"/>
<path d="M32.5023 147.494C36.1827 143.224 39.9395 139.032 43.6391 134.782C44.9869 133.237 42.6927 130.954 41.3926 132.528C37.7982 136.883 34.2612 141.287 30.6382 145.623C29.558 146.918 31.3934 148.789 32.5023 147.494Z" fill="#4A7274"/>
<path d="M146.967 148.683C149.041 144.711 151.651 141.056 155.016 138.092C156.383 136.883 154.261 134.724 153.009 136.077C149.806 139.55 147.005 143.224 144.874 147.465C144.185 148.846 146.241 150.074 146.967 148.683Z" fill="#4A7274"/>
<path d="M158.008 171.113C151.928 175.392 146.346 180.495 141.155 185.81C139.931 187.067 141.843 188.986 143.076 187.739C148.181 182.558 153.716 178.087 159.547 173.761C161.105 172.61 159.643 169.962 158.008 171.113Z" fill="#4A7274"/>
<path d="M138.096 214.745C133.297 219.312 128.728 224.147 123.996 228.781C122.791 229.961 124.636 231.822 125.85 230.642C130.601 226.018 135.544 221.557 140.218 216.875C141.585 215.494 139.492 213.412 138.096 214.745Z" fill="#4A7274"/>
<path d="M111.578 245.944C108.968 248.073 106.521 250.433 104.007 252.678C102.678 253.878 104.619 255.787 105.957 254.635C108.519 252.439 111.177 250.318 113.624 247.997C115.01 246.692 112.993 244.792 111.578 245.944Z" fill="#4A7274"/>
<path d="M116.004 148.674C117.476 146.16 119.092 143.695 120.478 141.143C121.348 139.55 118.958 138.14 118.04 139.713C116.578 142.236 115.325 144.904 113.949 147.465C113.232 148.818 115.23 149.998 116.004 148.674Z" fill="#4A7274"/>
<path d="M88.1384 154.094C89.5818 152.837 91.0157 151.552 92.4879 150.333C93.6446 149.374 91.9335 147.59 90.815 148.654C89.4384 149.978 88.0045 151.254 86.5897 152.54C85.5477 153.509 87.0868 155.015 88.1384 154.094Z" fill="#4A7274"/>
<path d="M163.199 138.236C157.339 146.976 150.122 154.66 142.264 161.587C141.184 162.537 142.761 164.1 143.832 163.16C151.852 156.176 158.917 148.348 165.599 140.088C166.994 138.38 164.442 136.384 163.199 138.236Z" fill="#4A7274"/>
</g>
<g clip-path="url(#clip1)">
<path d="M191.119 47.6592C171.984 23.3809 141.609 11.9341 113.733 18.491C81.4305 26.0908 56.2575 55.2761 53.8698 87.8894C53.7674 89.317 54.859 90.5139 56.4024 90.6592C57.9459 90.8045 59.1824 89.8727 59.3444 88.4451C62.3887 62.1407 80.3902 38.7429 105.222 28.8349C129.568 19.1151 158.126 25.5522 177.97 45.2228C197.711 64.7908 203.774 92.6254 193.797 117.861C183.436 144.08 159.03 162.229 133.073 163.024C133.03 163.024 132.987 163.024 132.945 163.024C106.996 163.768 81.5243 149.363 68.7672 126.948L75.1969 128.043C77.2776 128.393 82.2833 121.93 81.5158 120.058C80.8592 118.451 79.4777 117.442 77.6102 117.211L72.579 116.596C68.5455 116.1 64.5035 115.613 60.4615 115.134C57.8521 114.826 54.9272 116.049 54.3899 118.99L54.3132 119.4C53.2132 125.435 51.8402 132.95 54.6287 138.959C55.038 139.84 55.8823 140.387 56.8885 140.43C58.0141 140.473 59.1142 139.883 59.6343 138.959C60.6917 137.079 61.391 135.018 61.9197 133.027C74.8558 154.296 98.0335 168.982 123.13 171.615C126.259 171.94 129.372 172.06 132.476 171.966C158.425 171.222 182.967 156.202 196.781 131.932C212.267 104.756 210.033 71.6725 191.119 47.6592Z" fill="#E4B3BA"/>
<path d="M175.642 10.5749C154.468 0.0856036 130.139 -2.75257 107.158 2.7528C93.8038 5.95002 81.3111 11.8743 70.3192 20.1067C69.2618 20.8932 70.3192 22.6456 71.4107 21.8677C95.2279 4.99256 125.611 -1.14541 153.922 6.29197C167.447 9.84823 180.281 16.2769 191.128 25.1419C201.898 33.9385 211.875 45.7272 212.617 60.2343C212.762 63.0468 217.145 62.9272 216.983 60.1061C215.721 37.1784 194.701 20.0126 175.642 10.5749Z" fill="white"/>
<path d="M117.513 71.0308H119.919C121.065 71.0308 121.914 70.7443 122.466 70.1714C123.018 69.5985 123.294 68.8381 123.294 67.8901C123.294 66.9735 123.018 66.2599 122.466 65.7495C121.924 65.2391 121.174 64.9839 120.216 64.9839C119.351 64.9839 118.627 65.2235 118.044 65.7026C117.461 66.1714 117.169 66.786 117.169 67.5464H112.653C112.653 66.3589 112.971 65.2964 113.606 64.3589C114.252 63.411 115.148 62.6714 116.294 62.1401C117.45 61.6089 118.721 61.3433 120.106 61.3433C122.513 61.3433 124.398 61.9214 125.763 63.0776C127.127 64.2235 127.81 65.8068 127.81 67.8276C127.81 68.8693 127.492 69.8276 126.856 70.7026C126.221 71.5776 125.388 72.2495 124.356 72.7183C125.638 73.1766 126.591 73.8641 127.216 74.7808C127.851 75.6974 128.169 76.7808 128.169 78.0308C128.169 80.0516 127.429 81.6714 125.95 82.8901C124.481 84.1089 122.534 84.7183 120.106 84.7183C117.836 84.7183 115.976 84.1193 114.528 82.9214C113.091 81.7235 112.372 80.1401 112.372 78.1714H116.888C116.888 79.0256 117.205 79.7235 117.841 80.2651C118.487 80.8068 119.278 81.0776 120.216 81.0776C121.289 81.0776 122.127 80.7964 122.731 80.2339C123.346 79.661 123.653 78.9058 123.653 77.9683C123.653 75.6974 122.403 74.562 119.903 74.562H117.513V71.0308ZM141.856 75.312C140.679 76.4683 139.304 77.0464 137.731 77.0464C135.721 77.0464 134.112 76.3589 132.903 74.9839C131.695 73.5985 131.091 71.7339 131.091 69.3901C131.091 67.9006 131.414 66.536 132.06 65.2964C132.716 64.0464 133.627 63.0776 134.794 62.3901C135.961 61.6922 137.273 61.3433 138.731 61.3433C140.231 61.3433 141.565 61.7183 142.731 62.4683C143.898 63.2183 144.804 64.2964 145.45 65.7026C146.096 67.1089 146.424 68.7183 146.435 70.5308V72.2026C146.435 75.9943 145.492 78.9735 143.606 81.1401C141.721 83.3068 139.049 84.4631 135.591 84.6089L134.481 84.6245V80.8589L135.481 80.8433C139.409 80.6662 141.534 78.8224 141.856 75.312ZM138.841 73.5933C139.57 73.5933 140.195 73.4058 140.716 73.0308C141.247 72.6558 141.648 72.2026 141.919 71.6714V69.812C141.919 68.2808 141.627 67.0933 141.044 66.2495C140.461 65.4058 139.679 64.9839 138.7 64.9839C137.794 64.9839 137.049 65.4006 136.466 66.2339C135.883 67.0568 135.591 68.0933 135.591 69.3433C135.591 70.5828 135.872 71.6037 136.435 72.4058C137.008 73.1974 137.81 73.5933 138.841 73.5933ZM84.3877 102.546L87.2315 97.4995H92.0596L87.2471 105.781L92.2627 114.406H87.419L84.4033 109.093L81.4033 114.406H76.544L81.5596 105.781L76.7627 97.4995H81.6065L84.3877 102.546ZM94.5283 114.406V97.4995H101.591C103.893 97.4995 105.659 97.9058 106.888 98.7183C108.117 99.5308 108.731 100.697 108.731 102.218C108.731 103 108.471 103.703 107.95 104.328C107.44 104.942 106.69 105.416 105.7 105.75C106.909 105.979 107.856 106.432 108.544 107.109C109.242 107.776 109.591 108.598 109.591 109.578C109.591 111.151 108.997 112.348 107.81 113.171C106.633 113.994 104.919 114.406 102.669 114.406H94.5283ZM99.044 107.39V110.796H102.685C104.278 110.796 105.075 110.239 105.075 109.125C105.075 107.989 104.315 107.411 102.794 107.39H99.044ZM99.044 104.359H101.841C103.424 104.338 104.216 103.828 104.216 102.828C104.216 102.213 103.997 101.776 103.56 101.515C103.133 101.255 102.476 101.125 101.591 101.125H99.044V104.359ZM122.544 97.4995H127.06V114.406H122.544V103.968L116.888 114.406H112.356V97.4995H116.888V107.921L122.544 97.4995ZM145.216 97.4995V114.406H140.7V101.156H136.716L136.435 106.375C136.258 109.156 135.711 111.182 134.794 112.453C133.877 113.723 132.513 114.375 130.7 114.406H129.169L129.122 110.734L129.685 110.687C130.497 110.625 131.091 110.145 131.466 109.25C131.841 108.354 132.075 106.828 132.169 104.671L132.481 97.4995H145.216ZM158.888 97.4995H163.403V114.406H158.888V103.968L153.231 114.406H148.7V97.4995H153.231V107.921L158.888 97.4995ZM181.513 114.406H176.981V107.906H171.372V114.406H166.856V97.4995H171.372V104.281H176.981V97.4995H181.513V114.406Z" fill="white"/>
</g>
<defs>
<clipPath id="clip0">
<rect y="132" width="166" height="123" fill="white"/>
</clipPath>
<clipPath id="clip1">
<rect x="53" width="164" height="172" fill="white"/>
</clipPath>
</defs>
</svg>
