<svg width="88" height="26" viewBox="0 0 88 26" fill="none" xmlns="http://www.w3.org/2000/svg">
<rect y="13" width="35" height="2" fill="#A50034"/>
<path d="M61.1238 13.5775C61.1238 14.5225 61.0213 15.345 60.8163 16.045C60.6163 16.74 60.3363 17.315 59.9763 17.77C59.6213 18.225 59.1988 18.565 58.7088 18.79C58.2238 19.01 57.6988 19.12 57.1338 19.12C56.5688 19.12 56.0438 19.01 55.5588 18.79C55.0788 18.565 54.6613 18.225 54.3063 17.77C53.9513 17.315 53.6738 16.74 53.4738 16.045C53.2738 15.345 53.1738 14.5225 53.1738 13.5775C53.1738 12.6275 53.2738 11.805 53.4738 11.11C53.6738 10.415 53.9513 9.84 54.3063 9.385C54.6613 8.93 55.0788 8.5925 55.5588 8.3725C56.0438 8.1475 56.5688 8.035 57.1338 8.035C57.6988 8.035 58.2238 8.1475 58.7088 8.3725C59.1988 8.5925 59.6213 8.93 59.9763 9.385C60.3363 9.84 60.6163 10.415 60.8163 11.11C61.0213 11.805 61.1238 12.6275 61.1238 13.5775ZM59.2113 13.5775C59.2113 12.7925 59.1538 12.1425 59.0388 11.6275C58.9238 11.1125 58.7688 10.7025 58.5738 10.3975C58.3838 10.0925 58.1638 9.88 57.9138 9.76C57.6638 9.635 57.4038 9.5725 57.1338 9.5725C56.8688 9.5725 56.6113 9.635 56.3613 9.76C56.1163 9.88 55.8988 10.0925 55.7088 10.3975C55.5188 10.7025 55.3663 11.1125 55.2513 11.6275C55.1413 12.1425 55.0863 12.7925 55.0863 13.5775C55.0863 14.3625 55.1413 15.0125 55.2513 15.5275C55.3663 16.0425 55.5188 16.4525 55.7088 16.7575C55.8988 17.0625 56.1163 17.2775 56.3613 17.4025C56.6113 17.5225 56.8688 17.5825 57.1338 17.5825C57.4038 17.5825 57.6638 17.5225 57.9138 17.4025C58.1638 17.2775 58.3838 17.0625 58.5738 16.7575C58.7688 16.4525 58.9238 16.0425 59.0388 15.5275C59.1538 15.0125 59.2113 14.3625 59.2113 13.5775ZM68.8575 17.275C69.0575 17.275 69.215 17.3325 69.33 17.4475C69.45 17.5575 69.51 17.705 69.51 17.89V19H62.07V18.385C62.07 18.26 62.095 18.13 62.145 17.995C62.2 17.855 62.285 17.73 62.4 17.62L65.6925 14.32C65.9675 14.04 66.2125 13.7725 66.4275 13.5175C66.6475 13.2625 66.83 13.01 66.975 12.76C67.12 12.51 67.23 12.2575 67.305 12.0025C67.385 11.7425 67.425 11.47 67.425 11.185C67.425 10.925 67.3875 10.6975 67.3125 10.5025C67.2375 10.3025 67.13 10.135 66.99 10C66.855 9.865 66.69 9.765 66.495 9.7C66.305 9.63 66.09 9.595 65.85 9.595C65.63 9.595 65.425 9.6275 65.235 9.6925C65.05 9.7525 64.885 9.84 64.74 9.955C64.595 10.065 64.4725 10.195 64.3725 10.345C64.2725 10.495 64.1975 10.66 64.1475 10.84C64.0625 11.07 63.9525 11.2225 63.8175 11.2975C63.6825 11.3725 63.4875 11.39 63.2325 11.35L62.2575 11.1775C62.3325 10.6575 62.4775 10.2025 62.6925 9.8125C62.9075 9.4175 63.175 9.09 63.495 8.83C63.82 8.565 64.19 8.3675 64.605 8.2375C65.025 8.1025 65.475 8.035 65.955 8.035C66.455 8.035 66.9125 8.11 67.3275 8.26C67.7425 8.405 68.0975 8.6125 68.3925 8.8825C68.6875 9.1525 68.9175 9.4775 69.0825 9.8575C69.2475 10.2375 69.33 10.66 69.33 11.125C69.33 11.525 69.27 11.895 69.15 12.235C69.035 12.575 68.8775 12.9 68.6775 13.21C68.4825 13.52 68.2525 13.82 67.9875 14.11C67.7225 14.4 67.445 14.695 67.155 14.995L64.71 17.4925C64.945 17.4225 65.1775 17.37 65.4075 17.335C65.6425 17.295 65.865 17.275 66.075 17.275H68.8575Z" fill="white"/>
</svg>
