<svg width="523" height="243" viewBox="0 0 523 243" fill="none" xmlns="http://www.w3.org/2000/svg">
<g opacity="0.5">
<path opacity="0.7" d="M522.023 235.603C517.25 236.639 512.273 238.745 506.902 242.536H508.11C513.052 239.156 517.611 237.244 522.011 236.261V235.603H522.023Z" fill="url(#paint0_linear)"/>
<path opacity="0.7" d="M522.022 231.552C513.503 231.779 504.566 234.047 493.802 242.298C493.711 242.374 493.621 242.449 493.52 242.525H494.659C505.142 234.598 513.65 232.416 522.011 232.222V231.552H522.022Z" fill="url(#paint1_linear)"/>
<path opacity="0.7" d="M522.023 228.032C510.818 227.945 499.884 228.529 485.012 238.745C483.229 239.966 481.525 241.24 479.844 242.525H480.995C482.439 241.424 483.917 240.344 485.429 239.296C500.121 229.198 510.942 228.626 522.023 228.712V228.032Z" fill="url(#paint2_linear)"/>
<path opacity="0.7" d="M522.023 223.053C519.269 223.377 516.618 223.615 514 223.831C502.614 224.792 491.85 225.71 476.21 235.181C472.261 237.579 468.571 240.084 464.994 242.525H466.235C469.553 240.268 472.972 237.967 476.605 235.764C492.098 226.379 502.772 225.472 514.079 224.511C516.674 224.295 519.303 224.068 522.034 223.744V223.053H522.023Z" fill="url(#paint3_linear)"/>
<path opacity="0.7" d="M522.023 215.223C515.005 217.351 509.081 218.517 503.36 219.629C492.719 221.703 482.643 223.658 467.421 231.628C464.498 233.162 461.7 234.695 458.992 236.186C454.885 238.443 450.947 240.614 446.975 242.536H448.543C452.109 240.765 455.663 238.821 459.353 236.79C462.061 235.3 464.859 233.766 467.771 232.244C482.891 224.327 492.9 222.383 503.506 220.321C509.193 219.208 515.072 218.063 522.034 215.958V215.223H522.023Z" fill="url(#paint4_linear)"/>
<path opacity="0.7" d="M522.023 203.97C519.586 205.503 517.035 206.842 514.44 207.89L514.056 208.052C513.21 208.398 512.375 208.732 511.563 209.035C504.014 211.864 497.864 213.83 491.918 215.72C482.191 218.83 473.006 221.757 458.63 228.075L457.649 228.507C441.242 235.71 428.288 241.402 409.659 240.495C403.283 240.171 396.694 238.713 389.732 237.179C385.421 236.229 380.964 235.235 376.552 234.544C367.119 233.086 358.205 233.475 349.313 235.743C342.96 237.352 338.165 239.739 334.125 242.547H335.378C339.18 240.019 343.671 237.892 349.494 236.412C358.295 234.177 367.108 233.799 376.439 235.235C380.817 235.926 385.263 236.909 389.562 237.86C396.57 239.404 403.182 240.873 409.614 241.197C428.424 242.115 441.457 236.391 457.942 229.144L458.924 228.712C473.266 222.416 482.439 219.489 492.143 216.39C498.101 214.489 504.251 212.523 511.822 209.694C512.646 209.38 513.481 209.046 514.339 208.7L514.722 208.538C517.216 207.534 519.665 206.259 522.023 204.801V203.97Z" fill="url(#paint5_linear)"/>
<path opacity="0.7" d="M522.023 188.083C516.934 193.57 509.814 198.624 502.446 201.993L501.521 202.415C500.911 202.695 500.313 202.976 499.715 203.235C494.344 205.601 489.819 207.706 485.453 209.737C474.97 214.618 465.909 218.83 449.83 224.5C433.547 230.246 419.736 233.324 401.185 230.894C395.746 230.17 390.161 228.744 384.259 227.243C379.419 226.012 374.42 224.738 369.444 223.863C360.236 222.275 351.627 222.513 343.107 224.587C329.826 227.826 324.173 234.576 318.181 241.715C317.956 241.985 317.73 242.244 317.516 242.514H318.441C318.542 242.395 318.644 242.266 318.746 242.147C324.658 235.095 330.232 228.442 343.288 225.256C351.706 223.204 360.214 222.967 369.308 224.533C374.251 225.397 379.238 226.671 384.056 227.902C389.992 229.414 395.6 230.84 401.072 231.574C419.77 234.026 433.671 230.926 450.055 225.137C466.157 219.446 475.229 215.234 485.735 210.342C490.101 208.311 494.615 206.216 499.986 203.84C500.584 203.581 501.193 203.3 501.803 203.019L502.717 202.598C509.916 199.304 516.867 194.412 521.978 189.077V188.083H522.023Z" fill="url(#paint6_linear)"/>
<path opacity="0.7" d="M522.023 170.76C519.946 172.618 518.197 174.476 516.392 176.42C514.474 178.472 512.499 180.599 509.971 182.867C504.646 187.651 497.706 192.36 490.451 196.118C489.999 196.356 489.559 196.583 489.119 196.81C488.702 197.026 488.295 197.242 487.878 197.458C482.304 200.341 477.734 203.225 473.31 206.022C464.362 211.67 455.922 217.005 441.05 220.947C424.903 225.235 410.911 225.343 392.733 221.325C388.422 220.364 384.044 219.068 379.395 217.686C373.844 216.033 368.1 214.338 362.357 213.214C353.386 211.486 345.07 211.584 336.934 213.474C323.439 216.638 318.621 223.593 313.52 230.969C310.824 234.868 308.025 238.885 303.816 242.525H304.888C308.838 238.972 311.523 235.106 314.118 231.358C319.14 224.101 323.879 217.254 337.104 214.154C345.126 212.275 353.341 212.188 362.21 213.895C367.92 215.007 373.641 216.703 379.181 218.344C383.841 219.727 388.242 221.033 392.575 221.995C410.877 226.034 424.971 225.926 441.242 221.606C456.215 217.632 464.712 212.264 473.705 206.594C478.117 203.808 482.676 200.924 488.216 198.062C488.623 197.846 489.04 197.63 489.458 197.414C489.898 197.188 490.338 196.95 490.778 196.723C498.09 192.943 505.074 188.202 510.445 183.375C512.996 181.085 514.981 178.947 516.911 176.884C518.57 175.102 520.161 173.396 522.011 171.7V170.76H522.023Z" fill="url(#paint7_linear)"/>
<path opacity="0.7" d="M4.64978 242.525C3.02492 239.253 1.53546 235.894 0.0234375 232.395V234.177C1.27594 237.039 2.51715 239.803 3.85992 242.514H4.64978V242.525Z" fill="url(#paint8_linear)"/>
<path opacity="0.7" d="M522.023 161.527C521.132 161.948 520.241 162.38 519.383 162.833C517.375 163.892 515.422 165.037 513.245 166.419C509.623 168.719 506.61 171.052 503.428 173.514C501.645 174.897 499.794 176.333 497.752 177.824C492.641 181.56 486.322 185.621 478.457 190.232C477.814 190.61 477.193 190.988 476.572 191.366L476.053 191.68C470.863 194.822 466.643 198.311 462.569 201.691C454.377 208.473 446.636 214.888 432.283 217.394C415.944 220.256 401.806 217.362 384.293 211.756C381.439 210.838 378.573 209.834 375.537 208.765C368.959 206.454 362.166 204.056 355.283 202.566C346.549 200.687 338.504 200.633 330.774 202.361C317.087 205.428 313.115 212.599 308.918 220.18C306.469 224.597 303.941 229.155 299.36 233.205C298.333 234.112 297.216 234.922 296.031 235.613C291.811 238.097 287.106 239.534 282.559 240.916C280.832 241.445 279.128 241.964 277.492 242.536H279.681C280.697 242.212 281.724 241.899 282.773 241.575C287.366 240.182 292.116 238.734 296.404 236.207C297.623 235.494 298.773 234.652 299.834 233.723C304.517 229.598 307.067 224.986 309.538 220.515C313.657 213.074 317.561 206.043 330.921 203.041C338.594 201.324 346.481 201.389 355.113 203.246C361.951 204.726 368.733 207.113 375.278 209.424C378.313 210.493 381.19 211.508 384.045 212.426C401.67 218.064 415.899 220.979 432.396 218.085C446.964 215.536 454.761 209.067 463.021 202.22C467.071 198.862 471.269 195.384 476.414 192.274L476.933 191.96C477.543 191.582 478.175 191.204 478.807 190.837C486.694 186.215 493.024 182.143 498.17 178.385C500.223 176.884 502.074 175.448 503.857 174.065C507.027 171.603 510.018 169.281 513.617 167.013C515.784 165.641 517.713 164.507 519.71 163.46C520.455 163.071 521.234 162.693 522.001 162.326V161.527H522.023Z" fill="url(#paint9_linear)"/>
<path opacity="0.7" d="M10.7543 242.525C6.98554 237.157 3.80351 231.585 0.598911 225.742C0.407087 225.396 0.215262 225.029 0.0234375 224.684V226.163C3.13777 231.855 6.24081 237.287 9.88548 242.525H10.7543Z" fill="url(#paint10_linear)"/>
<path opacity="0.7" d="M522.023 155.662C517.859 157.142 513.583 158.675 509.521 160.403C507.501 161.257 505.391 162.218 503.055 163.319C496.871 166.257 491.466 169.346 485.542 172.78C479.066 176.549 472.363 180.437 466.462 184.357C465.694 184.865 464.95 185.394 464.216 185.913C459.466 189.282 455.663 193.332 451.984 197.242C444.526 205.19 437.462 212.696 423.504 213.852C406.296 215.277 391.503 208.927 375.841 202.199L373.517 201.194C365.359 197.663 356.93 194.023 348.196 191.917C339.677 189.876 331.981 189.66 324.59 191.248C310.723 194.196 307.619 201.561 304.325 209.359C302.406 213.895 300.432 218.582 296.234 222.751C295.32 223.658 294.282 224.489 293.154 225.224C289.577 227.546 285.368 228.982 281.294 230.375C275.224 232.449 269.491 234.404 265.948 239.026C265.068 240.16 264.245 241.337 263.443 242.525H264.301C265.023 241.477 265.757 240.441 266.535 239.425C269.943 234.965 275.573 233.043 281.543 231.012C285.661 229.608 289.915 228.151 293.571 225.785C294.745 225.029 295.817 224.165 296.764 223.215C301.052 218.949 303.061 214.197 305.002 209.596C308.217 201.972 311.264 194.768 324.76 191.906C332.026 190.351 339.62 190.556 348.027 192.576C356.704 194.66 365.099 198.3 373.235 201.81L375.559 202.814C391.311 209.586 406.183 215.979 423.583 214.532C437.835 213.355 444.966 205.752 452.526 197.706C456.182 193.818 459.962 189.79 464.656 186.474C465.378 185.956 466.123 185.448 466.89 184.941C472.769 181.042 479.461 177.154 485.937 173.396C491.85 169.961 497.244 166.883 503.393 163.957C505.718 162.855 507.817 161.905 509.837 161.051C513.797 159.367 517.972 157.866 522.046 156.418V155.662H522.023Z" fill="url(#paint11_linear)"/>
<path opacity="0.7" d="M16.43 242.525H17.4005C11.7473 236.531 7.42559 230.559 3.78093 225.062C2.49458 223.118 1.24209 221.163 0.0234375 219.187V220.526C1.05026 222.167 2.09965 223.809 3.17161 225.429C6.74857 230.829 10.9574 236.661 16.43 242.525Z" fill="url(#paint12_linear)"/>
<path opacity="0.7" d="M522.023 150.824C518.152 152.098 514.113 153.384 509.971 154.69C489.582 161.127 466.484 168.417 452.379 180.135C448.08 183.709 444.706 188.278 441.434 192.706C434.697 201.831 428.333 210.45 414.725 210.288C398.871 210.104 384.529 202.134 370.65 194.423C369.556 193.818 368.473 193.213 367.378 192.608C352.698 184.509 335.434 176.7 318.542 180.081C318.497 180.091 318.451 180.102 318.406 180.113C304.392 182.964 302.135 190.513 299.754 198.494C298.366 203.16 296.922 207.976 293.108 212.286C289.779 216.044 284.713 217.966 279.816 219.835C273.982 222.049 267.956 224.349 264.684 229.738C262.315 233.626 260.385 237.86 258.523 241.963C258.433 242.147 258.354 242.341 258.264 242.525H259.042C259.087 242.428 259.133 242.331 259.178 242.233C261.039 238.151 262.958 233.928 265.305 230.073C268.464 224.889 274.366 222.643 280.087 220.472C285.063 218.582 290.219 216.616 293.661 212.728C297.576 208.311 299.032 203.419 300.443 198.678C302.869 190.556 304.956 183.547 318.553 180.783C318.598 180.772 318.643 180.761 318.688 180.75C335.343 177.424 352.461 185.178 367.017 193.202C368.1 193.796 369.195 194.412 370.289 195.017C384.247 202.771 398.668 210.784 414.714 210.968C428.694 211.119 435.171 202.371 442.009 193.094C445.248 188.699 448.61 184.152 452.842 180.642C466.833 169.011 489.875 161.743 510.197 155.327C514.259 154.042 518.22 152.79 522.023 151.537V150.824Z" fill="url(#paint13_linear)"/>
<path opacity="0.7" d="M23.7081 242.525H24.7011C14.4103 234.134 6.50034 224.738 0.0234375 214.802V215.882C6.3198 225.364 13.9702 234.414 23.7081 242.525Z" fill="url(#paint14_linear)"/>
<path opacity="0.7" d="M522.023 141.688C516.37 143.675 510.232 145.608 503.8 147.627C484.008 153.848 461.587 160.89 447.573 172.067C443.432 175.383 440.114 179.584 436.91 183.655C430.23 192.123 423.922 200.114 410.968 200.179C395.95 200.255 382.319 193.548 370.279 187.619L367.571 186.28C365.833 185.416 364.107 184.563 362.392 183.742C349.043 177.316 333.245 171.128 317.324 174.011C315.914 174.27 314.526 174.573 313.183 174.918C299.597 178.418 296.607 185.265 293.707 191.885C292.026 195.74 290.288 199.715 286.463 203.052C283.337 205.773 278.891 207.015 274.175 208.333C267.957 210.072 261.526 211.865 257.746 217.329C254.485 222.016 252.194 227.481 249.982 232.762C248.809 235.57 247.59 238.475 246.259 241.164C246.033 241.629 245.796 242.061 245.57 242.504H246.371C246.552 242.158 246.733 241.823 246.913 241.456C248.256 238.745 249.475 235.829 250.648 233.011C252.848 227.762 255.116 222.33 258.344 217.696C261.977 212.448 268.285 210.687 274.378 208.981C279.162 207.642 283.687 206.378 286.948 203.549C290.886 200.114 292.658 196.064 294.373 192.133C297.329 185.362 300.128 178.968 313.375 175.566C314.695 175.221 316.071 174.929 317.471 174.67C333.178 171.83 348.84 177.964 362.087 184.336C363.802 185.157 365.517 186.01 367.255 186.874L369.963 188.213C382.07 194.174 395.78 200.924 410.98 200.849C424.294 200.773 430.704 192.652 437.497 184.044C440.679 180.005 443.973 175.836 448.047 172.564C461.948 161.473 484.313 154.442 504.037 148.254C510.379 146.267 516.438 144.355 522.035 142.389V141.688H522.023Z" fill="url(#paint15_linear)"/>
<path opacity="0.7" d="M29.7901 242.525H31.0313C20.3794 235.376 11.1718 226.077 3.12648 214.348C2.04324 212.782 1.01641 211.195 0.0234375 209.596V210.925C0.835871 212.199 1.65959 213.463 2.52844 214.726C10.4158 226.228 19.4203 235.408 29.7901 242.525Z" fill="url(#paint16_linear)"/>
<path opacity="0.7" d="M522.022 132.421C520.826 132.875 519.664 133.307 518.535 133.728C512.239 136.028 505.209 138.221 497.773 140.532C478.534 146.526 456.723 153.319 442.787 164.011C438.793 167.078 435.532 170.922 432.372 174.648C425.76 182.446 419.52 189.811 407.232 190.081C392.8 190.394 379.564 184.573 366.768 178.936L363.947 177.694C361.702 176.711 359.592 175.782 357.437 174.886C344.11 169.346 328.268 164.259 312.042 168.568C310.643 168.935 309.277 169.335 307.98 169.745C295.071 173.784 291.268 179.735 287.917 184.984C285.807 188.278 283.821 191.399 279.849 193.85C276.994 195.611 273.045 196.291 268.859 197.015C262.472 198.127 255.228 199.38 250.838 204.963C246.731 210.19 244.305 216.735 241.969 223.053C241.18 225.202 240.424 227.222 239.611 229.209C237.749 233.745 235.82 237.157 233.563 239.933C232.796 240.862 232.006 241.726 231.193 242.536H232.175C232.841 241.845 233.495 241.132 234.127 240.354C236.429 237.525 238.381 234.058 240.277 229.457C241.101 227.47 241.845 225.429 242.646 223.28C244.971 217.005 247.374 210.525 251.414 205.374C255.634 200.006 262.427 198.829 268.994 197.684C273.248 196.95 277.265 196.248 280.244 194.423C284.363 191.896 286.394 188.71 288.538 185.34C291.991 179.94 295.556 174.357 308.205 170.393C309.492 169.994 310.846 169.594 312.234 169.227C328.257 164.972 343.93 170.015 357.143 175.512C359.287 176.398 361.397 177.327 363.631 178.32L366.452 179.562C379.327 185.232 392.642 191.086 407.232 190.762C419.87 190.492 426.2 182.997 432.914 175.069C436.051 171.376 439.289 167.553 443.227 164.54C457.061 153.934 478.805 147.152 497.988 141.18C505.435 138.858 512.465 136.665 518.784 134.365C519.833 133.976 520.916 133.577 522.022 133.156V132.421Z" fill="url(#paint17_linear)"/>
<path opacity="0.7" d="M38.5915 242.525H40.2728C25.649 235.894 13.5189 225.126 3.26189 209.607C2.12223 207.901 1.05026 206.184 0.0234375 204.445V205.816C0.869723 207.21 1.73858 208.592 2.65256 209.974C12.6613 225.126 24.4529 235.797 38.5915 242.525Z" fill="url(#paint18_linear)"/>
<path opacity="0.7" d="M39.8548 237.471C43.8606 239.015 46.8395 240.246 49.2317 241.229C50.3939 241.715 51.4433 242.136 52.425 242.525H54.3207C52.8764 241.974 51.353 241.348 49.5138 240.592C47.1216 239.609 44.1314 238.378 40.1144 236.823C25.5131 231.185 13.4959 220.731 3.37429 204.866C2.17821 202.998 1.06111 201.119 0.0117188 199.218V200.643C0.891856 202.177 1.79456 203.7 2.76497 205.222C12.9768 221.228 25.1069 231.768 39.8548 237.471Z" fill="url(#paint19_linear)"/>
<path opacity="0.7" d="M522.022 122.831C518.163 124.71 514.055 126.157 510.399 127.453C504.633 129.484 498.315 131.438 491.612 133.512C472.971 139.279 451.848 145.802 437.991 155.943C434.155 158.751 430.95 162.239 427.858 165.62C421.303 172.769 415.108 179.519 403.474 179.973C389.55 180.513 377.307 175.685 364.353 170.577C363.191 170.113 362.018 169.659 360.855 169.205L360.223 168.957C357.538 167.909 355.01 166.927 352.46 166.03C339.946 161.592 323.438 157.25 306.749 163.136C305.418 163.6 304.098 164.086 302.766 164.572C291.065 168.925 286.461 173.774 282.76 177.683C280.041 180.556 277.682 183.04 273.237 184.649C270.765 185.545 267.437 185.74 263.905 185.945C256.931 186.355 249.033 186.809 243.91 192.598C238.911 198.246 236.53 205.849 234.217 213.204C233.788 214.575 233.36 215.925 232.931 217.232C231.848 220.504 230.29 224.727 227.808 228.388C225.122 232.352 221.986 235.257 218.205 237.287C212.665 240.257 205.748 241.121 199.147 241.748C196.315 242.018 193.765 242.104 191.508 242.19C190.729 242.212 189.996 242.244 189.308 242.277C188.416 242.32 187.604 242.331 186.825 242.352C185.494 242.385 184.286 242.417 183.102 242.547H197.917C198.346 242.514 198.763 242.482 199.215 242.439C205.895 241.802 212.891 240.927 218.555 237.892C222.437 235.808 225.653 232.827 228.406 228.766C230.934 225.029 232.513 220.753 233.608 217.437C234.037 216.12 234.465 214.77 234.894 213.398C237.174 206.108 239.543 198.57 244.44 193.03C249.36 187.468 257.101 187.014 263.939 186.615C267.527 186.409 270.901 186.204 273.474 185.275C278.077 183.612 280.492 181.074 283.279 178.126C287.116 174.076 291.46 169.497 303.014 165.199C304.335 164.702 305.666 164.227 306.986 163.762C323.449 157.963 339.8 162.261 352.201 166.657C354.728 167.553 357.267 168.536 359.941 169.583L360.573 169.832C361.747 170.285 362.909 170.75 364.071 171.203C376.528 176.117 389.415 181.204 403.497 180.653C415.446 180.189 421.731 173.331 428.389 166.063C431.458 162.715 434.64 159.248 438.42 156.483C452.175 146.407 473.242 139.895 491.826 134.16C498.529 132.086 504.859 130.132 510.636 128.091C514.213 126.827 518.208 125.412 522.011 123.598V122.831H522.022Z" fill="url(#paint20_linear)"/>
<path opacity="0.7" d="M522.022 111.793C516.673 116.308 509.057 118.878 502.264 121.168C497.22 122.863 491.792 124.526 486.06 126.287C467.826 131.859 447.154 138.188 433.207 147.876C429.528 150.424 426.403 153.567 423.379 156.591C416.879 163.103 410.73 169.248 399.739 169.864C386.221 170.62 374.328 166.408 361.735 161.948C359.874 161.289 358.012 160.63 356.139 159.982C352.911 158.881 350.226 157.973 347.495 157.153C328.945 151.645 314.75 151.796 301.469 157.671C300.171 158.243 298.862 158.816 297.564 159.377C288.176 163.438 283.257 166.97 279.296 169.799C275.076 172.812 272.3 174.81 266.658 175.426C264.683 175.642 262.122 175.458 259.414 175.275C252.125 174.756 243.041 174.119 237.004 180.199C231.058 186.182 228.79 195.276 226.781 203.289L226.296 205.233C225.314 209.078 224.129 213.15 222.098 216.832C219.717 221.152 216.908 224.219 213.286 226.498C208.005 229.803 201.156 230.948 194.532 232.06L194.329 232.092C193.257 232.276 192.219 232.438 191.237 232.589C188.71 232.989 186.532 233.334 184.715 233.777L184.309 233.874C179.683 234.998 177.572 235.516 173.138 239.328C172.743 239.674 172.326 240.041 171.885 240.419C171.208 241.024 170.475 241.672 169.663 242.341C169.595 242.395 169.527 242.46 169.471 242.514H170.543C171.197 241.963 171.806 241.423 172.371 240.927C172.799 240.549 173.217 240.181 173.612 239.836C177.911 236.131 179.829 235.667 184.478 234.533L184.884 234.436C186.679 233.993 188.845 233.658 191.35 233.259C192.332 233.097 193.37 232.935 194.453 232.762L194.656 232.73C201.347 231.606 208.276 230.44 213.669 227.06C217.404 224.727 220.282 221.573 222.73 217.145C224.795 213.398 226.003 209.283 226.984 205.384L227.469 203.441C229.455 195.503 231.712 186.517 237.523 180.664C243.323 174.821 252.215 175.447 259.357 175.944C262.111 176.139 264.706 176.322 266.737 176.095C272.571 175.447 275.414 173.417 279.725 170.328C283.651 167.52 288.537 164.021 297.858 159.993C299.167 159.431 300.464 158.859 301.773 158.287C314.885 152.498 328.922 152.347 347.292 157.801C350.012 158.611 352.697 159.518 355.913 160.619C357.786 161.267 359.648 161.926 361.498 162.585C374.159 167.067 386.12 171.311 399.796 170.544C411.068 169.918 417.308 163.676 423.92 157.066C426.922 154.053 430.036 150.954 433.658 148.426C447.515 138.793 468.119 132.497 486.309 126.935C492.052 125.174 497.479 123.522 502.535 121.816C509.192 119.569 516.628 117.053 522.044 112.69V111.793H522.022Z" fill="url(#paint21_linear)"/>
<path opacity="0.7" d="M38.1499 231.056C48.7454 234.749 51.6792 234.857 56.1363 235.008C57.6709 235.062 59.4199 235.116 61.7218 235.343C63.8431 235.548 66.2014 235.959 68.6951 236.38C69.9025 236.585 71.1437 236.801 72.4301 237.006C74.9464 237.406 77.4627 237.773 79.9338 238.14C86.6928 239.145 93.0794 240.084 98.3828 241.326C99.7482 241.639 101.091 242.061 102.422 242.525H104.408C102.479 241.769 100.538 241.121 98.5634 240.657C93.2261 239.404 86.8282 238.464 80.0579 237.46C77.5868 237.093 75.0818 236.725 72.5655 236.326C71.2904 236.121 70.0492 235.905 68.8418 235.699C66.3368 235.267 63.9672 234.857 61.812 234.652C59.4876 234.425 57.7273 234.371 56.1814 234.317C51.792 234.166 48.8921 234.069 38.4094 230.408C24.598 225.591 12.8629 215.407 3.53118 200.136C2.27868 198.073 1.11645 195.999 0.0332031 193.915V195.427C0.935907 197.123 1.88375 198.797 2.91057 200.471C12.31 215.893 24.1693 226.185 38.1499 231.056Z" fill="url(#paint22_linear)"/>
<path opacity="0.7" d="M522.023 95.8638C520.24 99.0821 518.276 102.128 515.219 104.925C514.936 105.184 514.643 105.443 514.338 105.702C509.024 110.12 501.464 112.549 494.14 114.882C490.022 116.2 485.7 117.496 481.13 118.878C463.099 124.31 442.652 130.466 428.424 139.797C424.926 142.098 421.868 144.873 418.923 147.552C412.457 153.427 406.352 158.978 395.994 159.745C382.803 160.717 371.203 157.012 358.927 153.103C356.478 152.325 353.95 151.515 351.434 150.759C348.083 149.755 345.285 148.956 342.531 148.286C324.015 143.782 309.718 144.992 296.189 152.217C294.959 152.876 293.706 153.524 292.363 154.193C287.105 156.807 283.111 159.032 279.895 160.825C271.353 165.587 268.16 167.369 260.092 166.246C258.749 166.062 257.09 165.695 255.353 165.317C247.725 163.643 237.287 161.354 230.099 167.823C223.126 174.098 221.197 184.725 219.639 193.256C218.951 197.047 218.071 201.41 216.367 205.287C214.336 209.91 211.786 213.225 208.333 215.72C203.661 219.079 197.41 220.569 191.362 222.005L189.489 222.448C185.754 223.355 182.471 224.187 180.09 225.321C175.847 227.351 174.628 228.766 171.379 232.546L170.645 233.399C169.731 234.458 168.727 235.592 167.531 236.758L166.075 238.184C164.608 239.631 163.108 241.1 161.539 242.536H162.577C163.954 241.251 165.285 239.944 166.594 238.67L168.05 237.244C169.268 236.056 170.295 234.911 171.209 233.842L171.943 232.989C175.215 229.187 176.31 227.902 180.417 225.947C182.73 224.846 185.98 224.014 189.67 223.118L191.531 222.675C197.647 221.217 203.966 219.716 208.762 216.271C212.327 213.711 214.957 210.298 217.033 205.557C218.759 201.615 219.651 197.198 220.35 193.375C221.885 184.941 223.803 174.443 230.596 168.32C237.513 162.099 247.736 164.345 255.206 165.987C256.966 166.376 258.636 166.743 260.013 166.926C268.329 168.082 271.827 166.138 280.279 161.429C283.483 159.647 287.466 157.423 292.713 154.82C294.067 154.15 295.32 153.502 296.561 152.844C309.921 145.716 324.06 144.528 342.385 148.977C345.127 149.647 347.914 150.446 351.254 151.44C353.77 152.196 356.297 153.006 358.735 153.783C371.091 157.725 382.747 161.44 396.084 160.457C406.691 159.669 412.897 154.042 419.453 148.081C422.387 145.413 425.411 142.659 428.864 140.391C443.002 131.114 463.392 124.969 481.378 119.559C485.96 118.176 490.281 116.88 494.4 115.563C501.441 113.305 509.419 110.757 514.835 106.242C515.151 105.983 515.455 105.713 515.749 105.443C518.491 102.927 520.409 100.14 522.057 97.3109V95.8638H522.023Z" fill="url(#paint23_linear)"/>
<path opacity="0.7" d="M36.4348 224.651C46.7369 227.881 49.7158 226.952 53.1799 225.872C54.9289 225.321 56.7456 224.759 59.7358 224.684C62.9404 224.597 66.6866 225.245 70.557 225.98C79.1214 227.589 88.769 230.062 96.3743 232.622C102.084 234.544 107.466 237.87 113.142 241.391C113.751 241.769 114.372 242.147 114.993 242.536H116.324C115.388 241.963 114.462 241.391 113.537 240.819C107.816 237.266 102.411 233.918 96.6113 231.974C88.9722 229.414 79.2794 226.919 70.6924 225.31C66.7769 224.565 62.9856 223.917 59.7133 224.003C56.6215 224.09 54.6694 224.695 52.9543 225.235C49.6142 226.271 46.7369 227.179 36.6604 224.014C23.3681 219.845 12.2648 210.223 3.6553 195.416C2.32382 193.116 1.12773 190.805 0.0332031 188.494V190.135C0.958475 192.025 1.95145 193.904 3.02341 195.762C11.7232 210.698 22.9619 220.418 36.4348 224.651Z" fill="url(#paint24_linear)"/>
<path opacity="0.7" d="M522.023 82.1589C520.939 83.2281 519.913 84.3513 518.954 85.5393C517.803 86.9648 516.742 88.4012 515.715 89.7944C513.03 93.4555 510.479 96.9115 506.35 100.043C506.056 100.259 505.763 100.475 505.458 100.691C500.245 104.32 493.181 106.448 486.343 108.51L486.016 108.608C483.24 109.439 480.374 110.292 477.429 111.156C459.195 116.513 438.534 122.593 423.639 131.741C420.333 133.771 417.365 136.19 414.511 138.523C408.068 143.783 401.986 148.75 392.248 149.636C379.339 150.824 367.988 147.562 355.959 144.117C352.946 143.253 349.832 142.357 346.706 141.547C343.976 140.845 340.76 140.035 337.544 139.419C319.038 135.866 304.652 138.123 290.885 146.763C289.655 147.53 288.392 148.286 287.128 148.999C268.769 159.356 264.944 161.516 253.48 157.066C252.927 156.85 252.317 156.602 251.674 156.353C244.261 153.384 231.849 148.405 223.149 155.425C216.119 161.095 214.088 171.192 212.948 181.258C212.429 185.805 211.899 189.876 210.612 193.732C208.965 198.667 206.652 202.22 203.357 204.931C199.148 208.376 193.337 210.147 187.706 211.854C186.668 212.167 185.63 212.48 184.626 212.804C181.241 213.884 177.777 215.115 175.452 216.876C172.71 218.949 171.785 220.742 170.51 223.226C169.889 224.435 169.178 225.818 168.129 227.47C167.237 228.863 166.335 230.073 165.353 231.174C161.866 235.095 157.387 239.544 152.016 242.547H153.404C158.402 239.523 162.589 235.332 165.895 231.617C166.899 230.483 167.836 229.252 168.738 227.827C169.81 226.142 170.521 224.759 171.153 223.528C172.383 221.131 173.274 219.403 175.892 217.416C178.126 215.72 181.511 214.51 184.84 213.463C185.844 213.139 186.871 212.836 187.909 212.523C193.596 210.795 199.487 209.013 203.808 205.471C207.216 202.674 209.586 199.023 211.278 193.958C212.587 190.049 213.129 185.934 213.648 181.344C214.776 171.419 216.762 161.483 223.6 155.965C231.961 149.215 244.125 154.086 251.381 157.001C252.024 157.261 252.633 157.498 253.197 157.725C264.989 162.304 268.871 160.123 287.478 149.614C288.753 148.902 290.028 148.135 291.258 147.357C304.855 138.825 319.072 136.59 337.386 140.111C340.579 140.726 343.784 141.525 346.503 142.227C349.618 143.037 352.732 143.934 355.733 144.798C367.818 148.264 379.238 151.548 392.293 150.349C402.245 149.442 408.417 144.398 414.951 139.074C417.794 136.752 420.739 134.354 424 132.346C438.816 123.252 459.431 117.183 477.61 111.837C480.555 110.973 483.432 110.13 486.197 109.288L486.524 109.191C493.407 107.117 500.538 104.968 505.842 101.275C506.158 101.059 506.462 100.832 506.756 100.605C510.976 97.4082 513.549 93.9199 516.268 90.2156C517.284 88.8332 518.344 87.3968 519.484 85.9821C520.274 85.0101 521.109 84.0813 521.989 83.1741V82.1589H522.023Z" fill="url(#paint25_linear)"/>
<path opacity="0.7" d="M34.7196 218.236C45.5521 221.271 48.3618 219.154 51.3294 216.93C52.943 215.72 54.6017 214.456 57.7499 214.003C61.2817 213.484 65.4567 214.23 68.6952 214.942C75.9958 216.53 84.6392 219.543 94.3884 223.895C99.5451 226.207 104.375 229.598 109.497 233.194C114.225 236.52 119.055 239.912 124.324 242.525H125.927C120.206 239.868 114.993 236.207 109.915 232.633C104.769 229.015 99.9175 225.602 94.6931 223.258C84.8987 218.884 76.2102 215.85 68.8531 214.262C65.5583 213.538 61.293 212.782 57.6483 213.312C54.3309 213.798 52.5819 215.115 50.9006 216.379C48.0797 218.496 45.4167 220.504 34.934 217.567C18.9787 213.106 9.18437 200.471 3.79071 190.654C2.36895 188.062 1.13902 185.437 0.0332031 182.802V184.649C0.969759 186.777 1.99659 188.883 3.14753 190.978C8.59761 200.914 18.5161 213.711 34.7196 218.236Z" fill="url(#paint26_linear)"/>
<path opacity="0.7" d="M522.023 76.0247C517.904 78.2602 514.361 80.755 511.247 83.6061C510.208 84.5565 509.215 85.5069 508.245 86.4356C505.007 89.5352 501.949 92.4727 497.48 95.1619C497.187 95.3347 496.894 95.5183 496.578 95.6911C491.545 98.5206 485.136 100.313 478.93 102.052L476.752 102.668C458.303 107.841 435.352 114.288 418.844 123.695C415.74 125.455 412.897 127.518 410.155 129.505C403.712 134.16 397.63 138.545 388.49 139.56C375.807 140.964 364.659 138.08 352.856 135.035C349.324 134.127 345.679 133.177 341.99 132.356C338.243 131.536 335.253 130.963 332.579 130.585C314.051 127.918 299.562 131.233 285.604 141.353C284.386 142.238 283.145 143.08 281.926 143.858C263.612 155.489 258.286 155.209 246.878 147.951C233.496 139.43 223.476 137.843 216.232 143.08C208.175 148.912 206.697 160.835 206.291 169.302L206.279 169.454C206.076 173.719 205.862 178.137 204.88 182.208C203.616 187.446 201.563 191.248 198.403 194.174C194.555 197.738 189.071 199.736 183.768 201.68C182.414 202.177 181.071 202.663 179.785 203.17C176.603 204.423 173.048 206.032 170.848 208.441C168.659 210.849 168.129 213.074 167.519 215.666C167.113 217.372 166.662 219.305 165.635 221.541C164.958 223.02 164.157 224.338 163.186 225.58C156.123 234.717 143.733 243 130.125 238.821C120.962 236.002 113.47 230.051 106.226 224.284C101.678 220.666 97.3792 217.253 92.7416 214.607C85.5425 210.504 76.1093 205.514 66.9807 203.268C62.185 202.08 58.5404 201.896 55.5389 202.695C52.1086 203.602 50.5514 205.644 49.0507 207.609C46.5795 210.849 44.2438 213.916 33.1631 211.195C16.9483 207.21 7.86481 193.677 3.88163 185.956C2.33575 182.964 1.06068 179.94 0 176.895V178.947C0.936556 181.398 1.98595 183.839 3.23845 186.258C7.26677 194.077 16.4969 207.804 32.9826 211.853C44.5259 214.694 47.1212 211.292 49.6262 208.009C51.0592 206.13 52.5374 204.196 55.7194 203.354C58.6081 202.598 62.1173 202.771 66.7888 203.937C75.8272 206.162 85.204 211.13 92.3579 215.201C96.9392 217.815 101.216 221.217 105.752 224.813C113.052 230.613 120.601 236.617 129.888 239.469C143.857 243.767 156.54 235.321 163.751 225.99C164.744 224.705 165.579 223.344 166.278 221.822C167.339 219.532 167.801 217.556 168.208 215.828C168.794 213.333 169.302 211.173 171.367 208.905C173.466 206.605 176.919 205.039 180.033 203.818C181.319 203.311 182.651 202.825 184.005 202.328C189.376 200.363 194.928 198.332 198.877 194.671C202.138 191.647 204.271 187.738 205.557 182.37C206.55 178.234 206.764 173.784 206.979 169.486L206.99 169.335C207.396 161.008 208.829 149.28 216.649 143.631C223.611 138.588 233.36 140.197 246.461 148.524C258.67 156.299 264.707 155.608 282.31 144.43C283.551 143.642 284.803 142.8 286.033 141.903C299.822 131.903 314.141 128.63 332.466 131.266C335.118 131.644 338.097 132.205 341.82 133.026C345.499 133.847 349.143 134.786 352.664 135.693C364.535 138.761 375.739 141.655 388.569 140.24C397.912 139.203 404.062 134.754 410.584 130.045C413.314 128.069 416.147 126.028 419.216 124.278C435.645 114.915 458.551 108.489 476.955 103.316L479.133 102.7C485.373 100.951 491.827 99.147 496.939 96.2742C497.255 96.1014 497.559 95.9179 497.853 95.7343C502.4 93.0019 505.481 90.0428 508.753 86.9108C509.723 85.9821 510.705 85.0425 511.743 84.0921C514.722 81.3598 518.118 78.9622 522.023 76.8022V76.0247Z" fill="url(#paint27_linear)"/>
<path opacity="0.7" d="M522.023 72.709C520.376 73.3678 518.762 74.005 517.194 74.653C511.901 76.8669 507.444 79.1565 503.551 81.662L502.062 82.6232C497.695 85.4527 493.915 87.8935 488.623 90.2694C488.33 90.399 488.025 90.5394 487.72 90.669C483.037 92.667 477.452 94.0926 472.058 95.4641L469.756 96.0581C454.264 100.054 431.64 106.437 414.06 115.617C411.216 117.096 408.542 118.781 405.947 120.412C399.458 124.472 393.331 128.317 384.744 129.451C372.242 131.093 361.263 128.533 349.64 125.833C345.635 124.904 341.493 123.932 337.285 123.155C333.606 122.474 330.447 122.01 327.614 121.729C308.782 119.872 294.643 124.105 280.324 135.909C279.128 136.892 277.909 137.821 276.713 138.674C259.471 150.899 252.171 149.334 240.244 138.793C235.933 134.981 220.96 123.122 209.304 130.693C202.703 134.981 199.442 143.934 199.622 157.304L199.633 158.222C199.69 162.358 199.758 166.646 199.148 170.652C198.279 176.193 196.463 180.243 193.439 183.385C189.896 187.068 184.66 189.304 179.605 191.464C178.048 192.122 176.434 192.813 174.933 193.526C170.431 195.643 167.836 197.587 166.256 199.995C164.394 202.825 164.281 205.59 164.168 208.506C164.078 210.72 163.988 213.009 163.153 215.601C162.656 217.156 161.934 218.636 161.032 219.986C154.69 229.479 140.676 237.071 127.203 232.438C117.499 229.101 109.86 222.254 102.48 215.633C98.5419 212.102 94.8182 208.754 90.8012 205.924C83.6473 200.87 74.2704 194.757 65.1305 192.241C60.3801 190.924 56.5549 190.859 53.4744 192.036C49.9877 193.364 48.6449 196.107 47.3473 198.753C45.2033 203.127 43.1948 207.274 31.4371 204.78C20.1872 202.404 9.94147 193.591 4.02875 181.225C2.27976 177.564 0.99341 173.871 0.0117188 170.177V172.812C0.903139 175.728 1.99767 178.633 3.37429 181.517C9.37728 194.088 19.8148 203.03 31.2904 205.46C43.6123 208.063 45.8465 203.484 48.013 199.056C49.2994 196.41 50.518 193.915 53.7452 192.684C56.679 191.561 60.3462 191.636 64.9387 192.911C73.9658 195.395 83.2749 201.475 90.3837 206.486C94.3556 209.294 98.068 212.62 101.995 216.141C109.431 222.804 117.126 229.706 126.966 233.097C140.935 237.903 154.983 230.332 161.641 220.364C162.577 218.96 163.322 217.426 163.841 215.806C164.699 213.128 164.789 210.795 164.891 208.538C165.015 205.59 165.116 203.052 166.877 200.373C168.377 198.073 170.894 196.215 175.26 194.153C176.75 193.451 178.285 192.792 179.909 192.101C185.032 189.919 190.336 187.651 193.98 183.86C197.106 180.61 198.979 176.452 199.87 170.76C200.491 166.689 200.423 162.38 200.367 158.211L200.356 157.293C200.175 144.171 203.323 135.413 209.721 131.255C220.937 123.976 235.55 135.564 239.77 139.29C251.471 149.636 259.246 151.915 277.153 139.214C278.372 138.35 279.59 137.411 280.809 136.417C294.959 124.753 308.94 120.563 327.547 122.399C330.356 122.68 333.493 123.133 337.149 123.814C341.347 124.591 345.477 125.552 349.482 126.492C361.172 129.213 372.219 131.784 384.857 130.131C393.625 128.976 400.09 124.915 406.353 120.995C408.937 119.375 411.6 117.701 414.421 116.232C431.933 107.096 454.501 100.724 469.96 96.7385L472.25 96.1553C477.666 94.773 483.274 93.3366 488.014 91.3278C488.33 91.1982 488.634 91.0578 488.939 90.9282C494.287 88.5307 498.271 85.9603 502.479 83.228L503.969 82.2668C507.828 79.7829 512.251 77.5149 517.498 75.3117C518.976 74.6962 520.488 74.0914 522.034 73.4758V72.709H522.023Z" fill="url(#paint28_linear)"/>
<path opacity="0.7" d="M522.023 69.9551C518.074 71.7046 513.865 73.2382 509.679 74.6854C504.895 76.3378 500.234 77.9685 495.868 79.7397C490.305 81.986 485.487 83.6816 479.766 85.3988L478.852 85.6688C475.015 86.7812 470.784 87.7207 466.688 88.6387C464.995 89.0167 463.303 89.3947 461.633 89.7835C442.958 94.1358 424.362 100.443 409.287 107.549C406.805 108.716 404.379 110.001 402.043 111.243C395.419 114.763 389.168 118.079 380.998 119.332C368.643 121.232 357.788 118.954 346.301 116.535C341.866 115.606 337.274 114.634 332.557 113.921C328.879 113.37 325.629 113.014 322.639 112.852C303.716 111.793 289.487 117.053 275.044 130.445C273.87 131.535 272.685 132.551 271.5 133.479C254.394 146.947 244.984 142.508 233.598 129.624C225.654 120.639 212.723 112.279 202.387 118.306C193.36 123.565 192.288 135.899 192.965 145.305L193.089 147.022C193.394 151.029 193.71 155.165 193.417 159.097C192.976 164.918 191.408 169.205 188.486 172.596C185.191 176.419 180.158 178.871 175.295 181.236C173.557 182.079 171.752 182.953 170.093 183.871C167.103 185.524 163.435 187.878 161.675 191.528C160.073 194.844 160.389 198.073 160.739 201.486C160.998 204.078 161.269 206.767 160.682 209.64C160.344 211.314 159.734 212.901 158.888 214.37C153.224 224.219 137.968 231.261 124.292 226.034C113.979 222.103 106.193 214.23 98.6664 206.616C95.4957 203.419 92.2234 200.103 88.8721 197.231C78.9988 188.742 70.3892 183.353 63.2917 181.193C58.4848 179.735 54.6032 179.789 51.4212 181.366C47.9006 183.115 46.7835 186.517 45.7003 189.822C43.8949 195.33 42.2023 200.546 29.7111 198.354C16.9491 196.097 8.14778 185.567 4.16459 176.463C1.90783 171.29 0.632763 166.084 0.0234375 160.889V165.468C0.756885 169.227 1.87398 172.985 3.49885 176.733C7.54973 186.01 16.5316 196.734 29.5757 199.013C42.6875 201.313 44.5719 195.567 46.3886 190.006C47.4718 186.701 48.4874 183.569 51.7484 181.96C54.7499 180.469 58.4623 180.426 63.0773 181.83C70.0846 183.958 78.6038 189.304 88.3982 197.717C91.7269 200.579 94.8412 203.732 98.1474 207.069C105.73 214.737 113.572 222.664 124.032 226.66C138.058 232.006 153.698 224.792 159.52 214.683C160.4 213.15 161.032 211.497 161.393 209.758C162.002 206.788 161.732 204.056 161.461 201.41C161.134 198.095 160.818 194.952 162.341 191.809C163.65 189.098 166.155 186.83 170.465 184.454C172.113 183.547 173.907 182.673 175.633 181.83C180.564 179.433 185.665 176.959 189.061 173.018C192.074 169.518 193.699 165.101 194.15 159.129C194.443 155.144 194.127 150.975 193.823 146.947L193.699 145.24C193.033 136.017 194.06 123.954 202.771 118.867C212.723 113.057 225.305 121.265 233.068 130.045C244.747 143.275 254.405 147.811 271.974 133.987C273.17 133.047 274.367 132.011 275.563 130.92C289.848 117.679 303.919 112.474 322.616 113.521C325.595 113.683 328.811 114.04 332.467 114.591C337.161 115.303 341.731 116.265 346.165 117.193C357.72 119.623 368.643 121.913 381.123 120.001C389.405 118.727 396.006 115.228 402.404 111.837C404.728 110.605 407.143 109.32 409.614 108.165C424.655 101.08 443.184 94.7946 461.813 90.4531C463.483 90.0643 465.176 89.6863 466.857 89.3083C470.964 88.3903 475.218 87.4507 479.066 86.3276L479.991 86.0576C485.746 84.3296 490.576 82.634 496.161 80.3769C500.505 78.6165 505.154 76.9965 509.938 75.3442C514.034 73.9294 518.153 72.4282 522.035 70.7327V69.9551H522.023Z" fill="url(#paint29_linear)"/>
<path opacity="0.7" d="M13.1447 98.5204C12.8852 101.663 12.1518 104.73 11.3732 107.851C10.2899 112.128 8.89075 116.491 7.41257 121.114C2.40257 136.708 -3.2619 154.388 3.62122 171.981C7.97676 183.094 17.489 191.193 27.8701 192.608C41.7943 194.509 43.3064 187.63 44.762 180.966C45.6308 177.013 46.4433 173.277 49.7381 171.279C52.8073 169.41 56.5535 169.259 61.2025 170.803C71.2563 174.13 82.1791 184.638 86.4105 189.001C89.0622 191.733 91.6687 194.725 94.1963 197.609C101.926 206.443 109.926 215.59 121.086 220.277C134.186 225.774 151.823 220.321 157.386 209.056C158.209 207.393 158.717 205.611 158.92 203.754C159.27 200.535 158.627 197.447 158.018 194.455C157.228 190.599 156.483 186.96 157.792 183.299C158.92 180.156 161.346 177.543 165.657 174.81C167.406 173.709 169.335 172.661 171.197 171.646C175.993 169.032 180.946 166.332 184.128 162.228C187.039 158.459 188.405 153.794 188.427 147.551C188.427 143.664 187.897 139.657 187.367 135.769C187.254 134.916 187.141 134.073 187.028 133.231C186.216 127.01 185.448 111.945 195.818 106.523C206.594 100.864 219.006 110.703 226.364 120.854C233.766 131.06 240.423 136.158 247.34 136.914C253.388 137.572 259.752 134.916 266.782 128.803C267.922 127.82 269.095 126.686 270.291 125.455C284.622 110.605 298.794 104.396 317.661 104.676C320.798 104.72 324.104 104.957 327.76 105.389C332.905 106.005 337.893 106.955 342.722 107.873C354.175 110.055 365.008 112.107 377.375 109.903C385.533 108.445 392.608 105.378 399.446 102.398C401.217 101.631 402.989 100.853 404.783 100.108C416.823 95.1077 434.978 88.0014 453.653 84.1783C459.092 83.0659 464.756 82.1695 470.105 81.3488L471.03 81.2084C472.949 80.9168 474.81 80.6468 476.638 80.3768C480.633 79.8044 484.402 79.2536 488.34 78.4976C492.548 77.6876 497.446 76.7048 502.365 75.3873C508.684 73.6809 516.154 70.9054 522.033 66.4774V65.5811C516.188 70.1386 508.583 72.9897 502.174 74.7177C497.288 76.0353 492.391 77.0072 488.204 77.8172C484.277 78.5732 480.52 79.1132 476.537 79.6856C474.709 79.9448 472.847 80.2148 470.917 80.5172L469.992 80.6576C464.644 81.4784 458.968 82.3747 453.507 83.4979C434.775 87.3426 416.563 94.4597 404.501 99.4708C402.696 100.216 400.924 100.994 399.152 101.76C392.044 104.849 385.33 107.776 377.251 109.212C365.019 111.394 354.254 109.353 342.869 107.182C338.028 106.264 333.029 105.313 327.85 104.698C324.16 104.255 320.832 104.028 317.672 103.974C298.58 103.683 284.249 109.968 269.772 124.98C268.587 126.2 267.425 127.313 266.297 128.285C259.425 134.257 253.253 136.86 247.419 136.212C240.728 135.488 234.228 130.477 226.95 120.444C219.424 110.065 206.673 100.022 195.468 105.907C184.715 111.523 185.482 126.935 186.317 133.296C186.43 134.138 186.543 134.981 186.656 135.834C187.175 139.7 187.716 143.685 187.705 147.53C187.694 153.621 186.374 158.157 183.553 161.796C180.45 165.782 175.564 168.449 170.836 171.019C168.963 172.045 167.022 173.093 165.262 174.205C162.26 176.106 158.627 178.828 157.115 183.05C155.738 186.884 156.505 190.621 157.318 194.563C157.927 197.511 158.548 200.546 158.209 203.667C158.018 205.449 157.521 207.156 156.742 208.743C151.337 219.705 134.164 224.986 121.39 219.629C110.377 215.007 102.433 205.924 94.7605 197.155C92.2329 194.261 89.6038 191.269 86.9521 188.515C81.6487 183.05 71.2902 173.395 61.4507 170.134C56.6551 168.546 52.5816 168.73 49.3658 170.685C45.8226 172.845 44.9312 176.895 44.0737 180.815C42.618 187.457 41.2414 193.721 27.983 191.917C17.8614 190.535 8.56352 182.608 4.30953 171.721C-2.49461 154.355 3.1473 136.795 8.11217 121.297C9.60163 116.675 11.0008 112.301 12.0841 108.003C12.8401 104.979 13.6074 101.76 13.8782 98.5636" fill="url(#paint30_linear)"/>
<path opacity="0.7" d="M18.1097 106.925C16.6653 110.229 15.0969 113.502 13.4269 116.968C5.70875 133.038 -2.25761 149.649 3.73409 167.22C7.28849 177.642 16.3042 185.266 26.155 186.195C40.8804 187.577 42.02 179.596 43.1258 171.875C43.7803 167.306 44.4009 162.986 47.7183 160.6C58.0205 153.213 75.6345 169.488 84.4133 180.277C86.3541 182.664 88.2836 185.169 90.1567 187.599C98.0328 197.826 106.168 208.399 118.141 213.897C126.807 217.871 138.666 217.234 146.993 212.352C152.94 208.864 156.302 203.68 156.449 197.751C156.539 194.306 155.546 190.882 154.599 187.567C153.335 183.15 152.127 178.981 153.233 174.769C154.881 168.516 160.647 165.038 166.762 161.356C171.411 158.558 176.218 155.664 179.197 151.398C184.659 143.59 182.763 133.73 180.935 124.204C180.743 123.189 180.551 122.185 180.359 121.191C179.445 116.212 177.369 99.5483 188.856 94.1484C200.343 88.7593 212.631 100.196 219.661 111.633C227.56 124.463 235.368 131.019 243.56 131.667C250.533 132.218 257.755 128.287 265.033 119.982C281.97 100.65 298.23 93.9756 323.066 96.1788C328.629 96.6756 334 97.5936 339.19 98.4899C350.485 100.434 361.16 102.281 373.29 99.8507C373.403 99.8291 373.527 99.8075 373.64 99.7751C385.804 97.2696 397.189 93.09 408.202 89.0509C424.936 82.9166 442.234 76.5664 462.071 76.3288C465.287 76.2856 468.57 76.372 471.752 76.4584C479.346 76.6527 487.211 76.8471 494.783 75.4108C504.521 73.5532 516.233 67.7321 519.686 56.9215C522.078 49.4265 519.889 41.4994 517.768 33.8208C515.59 25.9045 513.322 17.7291 516.267 10.234C517.519 7.05886 519.607 4.32651 522.01 1.81016V0.78418C519.325 3.51653 516.978 6.47567 515.601 9.99641C512.577 17.6967 514.868 25.9909 517.079 34.0044C519.167 41.5858 521.333 49.4157 518.998 56.7271C515.691 67.0949 504.543 72.7648 495.053 74.6548C494.918 74.6872 494.783 74.7088 494.647 74.7304C487.143 76.156 479.335 75.9508 471.775 75.7672C468.593 75.6916 465.298 75.6052 462.071 75.6376C442.11 75.886 424.755 82.2578 407.965 88.4137C396.975 92.4421 385.623 96.6108 373.504 99.1163C373.391 99.1379 373.267 99.1595 373.155 99.1919C361.16 101.589 350.553 99.7643 339.326 97.8204C334.124 96.924 328.741 95.9952 323.145 95.4984C298.377 93.306 281.383 100.272 264.503 119.55C257.383 127.682 250.364 131.527 243.639 130.997C235.707 130.371 228.067 123.923 220.304 111.299C213.116 99.6131 200.49 87.9493 188.563 93.5436C176.625 99.1487 178.746 116.223 179.671 121.321C179.852 122.314 180.044 123.329 180.247 124.345C182.052 133.74 183.914 143.449 178.622 151.031C175.722 155.167 170.983 158.029 166.401 160.783C160.161 164.541 154.271 168.084 152.556 174.607C151.405 178.992 152.68 183.441 153.922 187.75C154.858 191.012 155.828 194.392 155.749 197.729C155.603 203.41 152.376 208.399 146.643 211.758C138.508 216.521 126.931 217.147 118.479 213.27C106.676 207.849 98.5857 197.351 90.7661 187.189C88.8929 184.759 86.9634 182.242 85.0113 179.856C82.7884 177.134 64.7456 155.578 51.5097 158.224C50.0428 158.515 48.6323 159.109 47.3121 160.06C43.7465 162.619 43.0807 167.285 42.4375 171.788C41.3317 179.532 40.2936 186.843 26.2453 185.525C16.6766 184.629 7.90909 177.188 4.43368 167.015C-1.47903 149.703 6.4422 133.211 14.0926 117.26C15.6836 113.944 17.3311 110.51 18.7867 107.195" fill="url(#paint31_linear)"/>
<path d="M522.024 150.457C518.12 151.753 514.046 153.038 509.86 154.355C489.447 160.803 466.304 168.103 452.143 179.875C447.81 183.471 444.425 188.061 441.142 192.511C434.462 201.561 428.154 210.104 414.737 209.953C398.974 209.769 384.677 201.82 370.843 194.142L367.571 192.327C352.835 184.195 335.491 176.354 318.487 179.756C318.441 179.767 318.396 179.778 318.351 179.789C304.122 182.683 301.843 190.329 299.428 198.408C298.052 203.03 296.619 207.814 292.861 212.069C289.589 215.763 284.567 217.674 279.704 219.521C273.814 221.757 267.732 224.079 264.392 229.565C262.022 233.464 260.082 237.719 258.209 241.834C258.107 242.071 257.994 242.298 257.893 242.536H259.461C259.484 242.482 259.506 242.438 259.529 242.384C261.379 238.313 263.298 234.101 265.633 230.267C268.725 225.191 274.322 223.064 280.235 220.806C285.256 218.895 290.446 216.918 293.956 212.966C297.916 208.484 299.394 203.559 300.816 198.796C303.208 190.783 305.273 183.871 318.656 181.139C335.277 177.791 352.327 185.513 366.86 193.526L370.133 195.34C384.124 203.116 398.602 211.151 414.737 211.346C428.91 211.508 435.737 202.263 442.338 193.321C445.565 188.947 448.905 184.422 453.114 180.934C467.06 169.345 490.057 162.088 510.345 155.684C514.373 154.409 518.289 153.178 522.058 151.925V150.457H522.024Z" fill="url(#paint32_linear)"/>
<path d="M23.1665 242.525H25.2653C14.6811 233.961 6.61318 224.338 0.0234375 214.143V216.53C6.20696 225.764 13.6994 234.587 23.1665 242.525Z" fill="url(#paint33_linear)"/>
<path d="M17.7847 106.793C16.3403 110.087 14.7719 113.359 13.1132 116.826C5.3612 132.95 -2.63902 149.625 3.4091 167.315C7.00863 177.867 16.1485 185.588 26.1347 186.528C41.1986 187.943 42.4285 179.422 43.5004 171.905C44.1436 167.402 44.7529 163.157 47.9576 160.857C58.034 153.621 75.4562 169.778 84.156 180.469C86.0968 182.845 88.0263 185.351 89.8882 187.781C97.7868 198.041 105.956 208.646 118.007 214.176C126.775 218.204 138.781 217.556 147.199 212.62C153.258 209.067 156.666 203.786 156.824 197.738C156.914 194.25 155.921 190.794 154.962 187.457C153.709 183.083 152.525 178.957 153.608 174.843C155.221 168.719 160.931 165.285 166.979 161.645C171.662 158.827 176.491 155.911 179.515 151.591C185.056 143.664 183.149 133.739 181.31 124.148C181.118 123.133 180.926 122.129 180.734 121.135C179.831 116.211 177.766 99.7517 189.039 94.4598C200.311 89.1787 212.419 100.497 219.381 111.804C227.336 124.742 235.246 131.341 243.551 132C250.648 132.561 257.972 128.587 265.329 120.196C282.175 100.972 298.356 94.3302 323.045 96.5118C328.597 96.9978 333.957 97.9266 339.136 98.8229C350.578 100.799 361.365 102.624 373.732 100.108C385.93 97.5918 397.327 93.4123 408.351 89.3623C425.818 82.9473 442.326 76.8994 462.096 76.6618C465.312 76.6186 468.584 76.705 471.766 76.7914C479.382 76.9858 487.259 77.1802 494.875 75.7438C504.771 73.8646 516.563 67.9679 520.049 57.0169C522.475 49.4247 520.264 41.4436 518.142 33.7326C515.874 25.514 513.73 17.7489 516.63 10.3511C517.826 7.30551 519.756 4.72436 522.035 2.30521V0.285645C519.214 3.11519 516.732 6.19313 515.288 9.87586C512.218 17.6841 514.531 26.0215 516.754 34.089C518.831 41.6164 520.986 49.4031 518.684 56.6174C515.378 66.9852 504.06 72.6011 494.604 74.3938C487.146 75.8086 479.349 75.6142 471.811 75.4198C468.618 75.3442 465.323 75.2578 462.084 75.2902C442.067 75.5278 424.667 81.9105 407.843 88.0772C396.864 92.1055 385.524 96.2634 373.439 98.7581C361.433 101.242 350.691 99.4061 339.396 97.4622C334.182 96.5658 328.8 95.637 323.181 95.1402C298.277 92.9371 281.205 99.9353 264.223 119.31C257.182 127.345 250.265 131.158 243.664 130.628C235.957 130.013 228.205 123.446 220.611 111.102C213.344 99.2873 200.548 87.5156 188.396 93.2179C176.232 98.9309 178.364 116.2 179.312 121.362C179.493 122.356 179.685 123.371 179.888 124.386C181.682 133.717 183.532 143.361 178.308 150.824C175.453 154.906 170.748 157.736 166.201 160.479C160.175 164.108 153.958 167.855 152.209 174.508C151.035 178.979 152.321 183.483 153.574 187.824C154.51 191.064 155.47 194.423 155.391 197.706C155.255 203.268 152.073 208.149 146.454 211.443C138.42 216.152 126.978 216.767 118.628 212.934C106.904 207.555 98.8362 197.079 91.0391 186.96C89.166 184.53 87.2365 182.014 85.2844 179.616C83.0502 176.873 64.872 155.165 51.4104 157.865C49.8984 158.168 48.454 158.773 47.0887 159.755C43.3989 162.401 42.7219 167.132 42.0674 171.722C40.9842 179.292 39.9686 186.442 26.2701 185.156C16.8368 184.271 8.19343 176.927 4.77444 166.883C-1.09314 149.701 6.79424 133.274 14.4221 117.388C16.0131 114.072 17.6605 110.638 19.1162 107.312" fill="url(#paint34_linear)"/>
</g>
<defs>
<linearGradient id="paint0_linear" x1="514.462" y1="235.603" x2="514.462" y2="242.536" gradientUnits="userSpaceOnUse">
<stop stop-color="#B98787" stop-opacity="0"/>
<stop offset="1" stop-color="#CDA2A2" stop-opacity="0.5"/>
</linearGradient>
<linearGradient id="paint1_linear" x1="507.771" y1="231.552" x2="507.771" y2="242.525" gradientUnits="userSpaceOnUse">
<stop stop-color="#B98787" stop-opacity="0"/>
<stop offset="1" stop-color="#CDA2A2" stop-opacity="0.5"/>
</linearGradient>
<linearGradient id="paint2_linear" x1="500.933" y1="228.025" x2="500.933" y2="242.525" gradientUnits="userSpaceOnUse">
<stop stop-color="#B98787" stop-opacity="0"/>
<stop offset="1" stop-color="#CDA2A2" stop-opacity="0.5"/>
</linearGradient>
<linearGradient id="paint3_linear" x1="493.514" y1="223.053" x2="493.514" y2="242.525" gradientUnits="userSpaceOnUse">
<stop stop-color="#B98787" stop-opacity="0"/>
<stop offset="1" stop-color="#CDA2A2" stop-opacity="0.5"/>
</linearGradient>
<linearGradient id="paint4_linear" x1="484.505" y1="215.223" x2="484.505" y2="242.536" gradientUnits="userSpaceOnUse">
<stop stop-color="#B98787" stop-opacity="0"/>
<stop offset="1" stop-color="#CDA2A2" stop-opacity="0.5"/>
</linearGradient>
<linearGradient id="paint5_linear" x1="428.074" y1="203.97" x2="428.074" y2="242.547" gradientUnits="userSpaceOnUse">
<stop stop-color="#B98787" stop-opacity="0"/>
<stop offset="1" stop-color="#CDA2A2" stop-opacity="0.5"/>
</linearGradient>
<linearGradient id="paint6_linear" x1="419.769" y1="188.083" x2="419.769" y2="242.514" gradientUnits="userSpaceOnUse">
<stop stop-color="#B98787" stop-opacity="0"/>
<stop offset="1" stop-color="#CDA2A2" stop-opacity="0.5"/>
</linearGradient>
<linearGradient id="paint7_linear" x1="412.919" y1="170.76" x2="412.919" y2="242.525" gradientUnits="userSpaceOnUse">
<stop stop-color="#B98787" stop-opacity="0"/>
<stop offset="1" stop-color="#CDA2A2" stop-opacity="0.5"/>
</linearGradient>
<linearGradient id="paint8_linear" x1="2.33661" y1="232.395" x2="2.33661" y2="242.525" gradientUnits="userSpaceOnUse">
<stop stop-color="#B98787" stop-opacity="0"/>
<stop offset="1" stop-color="#CDA2A2" stop-opacity="0.5"/>
</linearGradient>
<linearGradient id="paint9_linear" x1="399.758" y1="161.527" x2="399.758" y2="242.536" gradientUnits="userSpaceOnUse">
<stop stop-color="#B98787" stop-opacity="0"/>
<stop offset="1" stop-color="#CDA2A2" stop-opacity="0.5"/>
</linearGradient>
<linearGradient id="paint10_linear" x1="5.38889" y1="224.684" x2="5.38889" y2="242.525" gradientUnits="userSpaceOnUse">
<stop stop-color="#B98787" stop-opacity="0"/>
<stop offset="1" stop-color="#CDA2A2" stop-opacity="0.5"/>
</linearGradient>
<linearGradient id="paint11_linear" x1="392.744" y1="155.662" x2="392.744" y2="242.525" gradientUnits="userSpaceOnUse">
<stop stop-color="#B98787" stop-opacity="0"/>
<stop offset="1" stop-color="#CDA2A2" stop-opacity="0.5"/>
</linearGradient>
<linearGradient id="paint12_linear" x1="8.71194" y1="219.187" x2="8.71194" y2="242.525" gradientUnits="userSpaceOnUse">
<stop stop-color="#B98787" stop-opacity="0"/>
<stop offset="1" stop-color="#CDA2A2" stop-opacity="0.5"/>
</linearGradient>
<linearGradient id="paint13_linear" x1="390.143" y1="150.824" x2="390.143" y2="242.525" gradientUnits="userSpaceOnUse">
<stop stop-color="#B98787" stop-opacity="0"/>
<stop offset="1" stop-color="#CDA2A2" stop-opacity="0.5"/>
</linearGradient>
<linearGradient id="paint14_linear" x1="12.3623" y1="214.802" x2="12.3623" y2="242.525" gradientUnits="userSpaceOnUse">
<stop stop-color="#B98787" stop-opacity="0"/>
<stop offset="1" stop-color="#CDA2A2" stop-opacity="0.5"/>
</linearGradient>
<linearGradient id="paint15_linear" x1="383.803" y1="141.688" x2="383.803" y2="242.504" gradientUnits="userSpaceOnUse">
<stop stop-color="#B98787" stop-opacity="0"/>
<stop offset="1" stop-color="#CDA2A2" stop-opacity="0.5"/>
</linearGradient>
<linearGradient id="paint16_linear" x1="15.5274" y1="209.596" x2="15.5274" y2="242.525" gradientUnits="userSpaceOnUse">
<stop stop-color="#B98787" stop-opacity="0"/>
<stop offset="1" stop-color="#CDA2A2" stop-opacity="0.5"/>
</linearGradient>
<linearGradient id="paint17_linear" x1="376.608" y1="132.421" x2="376.608" y2="242.536" gradientUnits="userSpaceOnUse">
<stop stop-color="#B98787" stop-opacity="0"/>
<stop offset="1" stop-color="#CDA2A2" stop-opacity="0.5"/>
</linearGradient>
<linearGradient id="paint18_linear" x1="20.1481" y1="204.445" x2="20.1481" y2="242.525" gradientUnits="userSpaceOnUse">
<stop stop-color="#B98787" stop-opacity="0"/>
<stop offset="1" stop-color="#CDA2A2" stop-opacity="0.5"/>
</linearGradient>
<linearGradient id="paint19_linear" x1="27.1662" y1="199.218" x2="27.1662" y2="242.525" gradientUnits="userSpaceOnUse">
<stop stop-color="#B98787" stop-opacity="0"/>
<stop offset="1" stop-color="#CDA2A2" stop-opacity="0.5"/>
</linearGradient>
<linearGradient id="paint20_linear" x1="352.562" y1="122.831" x2="352.562" y2="242.547" gradientUnits="userSpaceOnUse">
<stop stop-color="#B98787" stop-opacity="0"/>
<stop offset="1" stop-color="#CDA2A2" stop-opacity="0.5"/>
</linearGradient>
<linearGradient id="paint21_linear" x1="345.758" y1="111.793" x2="345.758" y2="242.514" gradientUnits="userSpaceOnUse">
<stop stop-color="#B98787" stop-opacity="0"/>
<stop offset="1" stop-color="#CDA2A2" stop-opacity="0.5"/>
</linearGradient>
<linearGradient id="paint22_linear" x1="52.2208" y1="193.915" x2="52.2208" y2="242.525" gradientUnits="userSpaceOnUse">
<stop stop-color="#B98787" stop-opacity="0"/>
<stop offset="1" stop-color="#CDA2A2" stop-opacity="0.5"/>
</linearGradient>
<linearGradient id="paint23_linear" x1="341.798" y1="95.8638" x2="341.798" y2="242.536" gradientUnits="userSpaceOnUse">
<stop stop-color="#B98787" stop-opacity="0"/>
<stop offset="1" stop-color="#CDA2A2" stop-opacity="0.5"/>
</linearGradient>
<linearGradient id="paint24_linear" x1="58.1786" y1="188.494" x2="58.1786" y2="242.536" gradientUnits="userSpaceOnUse">
<stop stop-color="#B98787" stop-opacity="0"/>
<stop offset="1" stop-color="#CDA2A2" stop-opacity="0.5"/>
</linearGradient>
<linearGradient id="paint25_linear" x1="337.019" y1="82.1589" x2="337.019" y2="242.547" gradientUnits="userSpaceOnUse">
<stop stop-color="#B98787" stop-opacity="0"/>
<stop offset="1" stop-color="#CDA2A2" stop-opacity="0.5"/>
</linearGradient>
<linearGradient id="paint26_linear" x1="62.9799" y1="182.802" x2="62.9799" y2="242.525" gradientUnits="userSpaceOnUse">
<stop stop-color="#B98787" stop-opacity="0"/>
<stop offset="1" stop-color="#CDA2A2" stop-opacity="0.5"/>
</linearGradient>
<linearGradient id="paint27_linear" x1="261.011" y1="76.0247" x2="261.011" y2="240.621" gradientUnits="userSpaceOnUse">
<stop stop-color="#B98787" stop-opacity="0"/>
<stop offset="1" stop-color="#CDA2A2" stop-opacity="0.5"/>
</linearGradient>
<linearGradient id="paint28_linear" x1="261.023" y1="72.709" x2="261.023" y2="234.58" gradientUnits="userSpaceOnUse">
<stop stop-color="#B98787" stop-opacity="0"/>
<stop offset="1" stop-color="#CDA2A2" stop-opacity="0.5"/>
</linearGradient>
<linearGradient id="paint29_linear" x1="261.029" y1="69.9551" x2="261.029" y2="228.474" gradientUnits="userSpaceOnUse">
<stop stop-color="#B98787" stop-opacity="0"/>
<stop offset="1" stop-color="#CDA2A2" stop-opacity="0.5"/>
</linearGradient>
<linearGradient id="paint30_linear" x1="261.232" y1="65.5811" x2="261.232" y2="222.436" gradientUnits="userSpaceOnUse">
<stop stop-color="#B98787" stop-opacity="0"/>
<stop offset="1" stop-color="#CDA2A2" stop-opacity="0.5"/>
</linearGradient>
<linearGradient id="paint31_linear" x1="261.823" y1="0.78418" x2="261.823" y2="216.496" gradientUnits="userSpaceOnUse">
<stop stop-color="#B98787" stop-opacity="0"/>
<stop offset="1" stop-color="#CDA2A2" stop-opacity="0.5"/>
</linearGradient>
<linearGradient id="paint32_linear" x1="389.975" y1="150.457" x2="389.975" y2="242.536" gradientUnits="userSpaceOnUse">
<stop stop-color="#B98787" stop-opacity="0"/>
<stop offset="1" stop-color="#CCA1A1"/>
</linearGradient>
<linearGradient id="paint33_linear" x1="12.6444" y1="214.143" x2="12.6444" y2="242.525" gradientUnits="userSpaceOnUse">
<stop stop-color="#B98787" stop-opacity="0"/>
<stop offset="1" stop-color="#CCA1A1"/>
</linearGradient>
<linearGradient id="paint34_linear" x1="261.659" y1="0.285645" x2="261.659" y2="216.81" gradientUnits="userSpaceOnUse">
<stop stop-color="#B98787" stop-opacity="0"/>
<stop offset="1" stop-color="#CCA1A1"/>
</linearGradient>
</defs>
</svg>
