<svg width="88" height="26" viewBox="0 0 88 26" fill="none" xmlns="http://www.w3.org/2000/svg">
<rect y="13" width="35" height="2" fill="#A50034"/>
<path d="M61.1238 13.5775C61.1238 14.5225 61.0213 15.345 60.8163 16.045C60.6163 16.74 60.3363 17.315 59.9763 17.77C59.6213 18.225 59.1988 18.565 58.7088 18.79C58.2238 19.01 57.6988 19.12 57.1338 19.12C56.5688 19.12 56.0438 19.01 55.5588 18.79C55.0788 18.565 54.6613 18.225 54.3063 17.77C53.9513 17.315 53.6738 16.74 53.4738 16.045C53.2738 15.345 53.1738 14.5225 53.1738 13.5775C53.1738 12.6275 53.2738 11.805 53.4738 11.11C53.6738 10.415 53.9513 9.84 54.3063 9.385C54.6613 8.93 55.0788 8.5925 55.5588 8.3725C56.0438 8.1475 56.5688 8.035 57.1338 8.035C57.6988 8.035 58.2238 8.1475 58.7088 8.3725C59.1988 8.5925 59.6213 8.93 59.9763 9.385C60.3363 9.84 60.6163 10.415 60.8163 11.11C61.0213 11.805 61.1238 12.6275 61.1238 13.5775ZM59.2113 13.5775C59.2113 12.7925 59.1538 12.1425 59.0388 11.6275C58.9238 11.1125 58.7688 10.7025 58.5738 10.3975C58.3838 10.0925 58.1638 9.88 57.9138 9.76C57.6638 9.635 57.4038 9.5725 57.1338 9.5725C56.8688 9.5725 56.6113 9.635 56.3613 9.76C56.1163 9.88 55.8988 10.0925 55.7088 10.3975C55.5188 10.7025 55.3663 11.1125 55.2513 11.6275C55.1413 12.1425 55.0863 12.7925 55.0863 13.5775C55.0863 14.3625 55.1413 15.0125 55.2513 15.5275C55.3663 16.0425 55.5188 16.4525 55.7088 16.7575C55.8988 17.0625 56.1163 17.2775 56.3613 17.4025C56.6113 17.5225 56.8688 17.5825 57.1338 17.5825C57.4038 17.5825 57.6638 17.5225 57.9138 17.4025C58.1638 17.2775 58.3838 17.0625 58.5738 16.7575C58.7688 16.4525 58.9238 16.0425 59.0388 15.5275C59.1538 15.0125 59.2113 14.3625 59.2113 13.5775ZM65.415 12.0925L65.04 12.5575C65.25 12.4525 65.475 12.3725 65.715 12.3175C65.96 12.2575 66.2225 12.2275 66.5025 12.2275C66.9125 12.2275 67.31 12.295 67.695 12.43C68.085 12.565 68.4275 12.77 68.7225 13.045C69.0175 13.315 69.255 13.6525 69.435 14.0575C69.615 14.4625 69.705 14.935 69.705 15.475C69.705 15.98 69.6125 16.455 69.4275 16.9C69.2425 17.34 68.9825 17.725 68.6475 18.055C68.3125 18.385 67.9075 18.645 67.4325 18.835C66.9625 19.025 66.4425 19.12 65.8725 19.12C65.2925 19.12 64.7725 19.0275 64.3125 18.8425C63.8525 18.6575 63.46 18.4 63.135 18.07C62.81 17.735 62.56 17.335 62.385 16.87C62.215 16.4 62.13 15.88 62.13 15.31C62.13 14.8 62.2325 14.2775 62.4375 13.7425C62.6475 13.2025 62.97 12.6425 63.405 12.0625L65.9925 8.59C66.0825 8.47 66.2125 8.3675 66.3825 8.2825C66.5575 8.1975 66.7575 8.155 66.9825 8.155H68.6325L65.415 12.0925ZM65.835 17.605C66.13 17.605 66.4 17.555 66.645 17.455C66.895 17.355 67.1075 17.215 67.2825 17.035C67.4625 16.855 67.6025 16.645 67.7025 16.405C67.8025 16.16 67.8525 15.895 67.8525 15.61C67.8525 15.3 67.805 15.0225 67.71 14.7775C67.615 14.5275 67.48 14.3175 67.305 14.1475C67.13 13.9725 66.92 13.84 66.675 13.75C66.43 13.66 66.16 13.615 65.865 13.615C65.57 13.615 65.3025 13.665 65.0625 13.765C64.8225 13.865 64.6175 14.005 64.4475 14.185C64.2775 14.36 64.145 14.57 64.05 14.815C63.955 15.055 63.9075 15.315 63.9075 15.595C63.9075 15.895 63.9475 16.17 64.0275 16.42C64.1125 16.665 64.235 16.875 64.395 17.05C64.56 17.225 64.7625 17.3625 65.0025 17.4625C65.2425 17.5575 65.52 17.605 65.835 17.605Z" fill="white"/>
</svg>
