<svg width="836" height="308" viewBox="0 0 836 308" fill="none" xmlns="http://www.w3.org/2000/svg">
<g opacity="0.5">
<path opacity="0.7" d="M0.305603 121.403C3.15747 125.486 6.29803 129.35 11.1895 132.898C11.6408 133.227 12.1101 133.556 12.5975 133.885C21.0989 139.489 33.1922 142.571 44.9065 145.531C51.4946 147.202 58.4078 148.847 65.7179 150.6C94.5615 157.492 127.268 165.302 150.028 177.14C155.624 180.058 160.515 183.579 165.226 186.977C175.569 194.431 185.334 201.473 201.903 202.446C223.004 203.679 241.559 198.98 261.197 194.02C265.114 193.033 269.157 192.006 273.182 191.046C278.543 189.772 283.019 188.758 287.423 187.909C317.043 182.195 339.912 183.73 361.554 192.896C363.521 193.732 365.525 194.554 367.672 195.403C376.084 198.719 382.473 201.542 387.617 203.816C401.281 209.858 406.389 212.119 419.295 210.694C421.443 210.461 424.096 209.995 426.876 209.516C439.077 207.392 455.773 204.487 467.271 212.695C478.426 220.655 481.512 234.137 484.003 244.961C485.104 249.77 486.512 255.305 489.238 260.224C492.487 266.088 496.566 270.295 502.089 273.46C509.562 277.721 519.561 279.612 529.236 281.434L532.232 281.996C538.207 283.147 543.459 284.201 547.268 285.64C554.054 288.216 556.004 290.011 561.202 294.806L562.375 295.889C563.837 297.231 565.444 298.67 567.357 300.15L569.685 301.958C572.032 303.794 574.432 305.658 576.941 307.48H575.281C573.079 305.85 570.949 304.192 568.855 302.575L566.527 300.766C564.577 299.259 562.935 297.807 561.473 296.45L560.3 295.368C555.065 290.545 553.314 288.915 546.744 286.435C543.044 285.037 537.846 283.982 531.943 282.845L528.965 282.283C519.182 280.434 509.074 278.529 501.403 274.158C495.699 270.911 491.494 266.582 488.173 260.567C485.411 255.566 483.985 249.962 482.866 245.112C480.411 234.411 477.343 221.093 466.477 213.325C455.412 205.433 439.059 208.283 427.11 210.365C424.295 210.859 421.623 211.324 419.421 211.557C406.118 213.023 400.523 210.557 387.004 204.583C381.878 202.323 375.506 199.5 367.113 196.198C364.947 195.349 362.943 194.527 360.958 193.691C339.587 184.648 316.971 183.141 287.658 188.786C283.272 189.635 278.813 190.649 273.471 191.91C269.446 192.869 265.402 193.896 261.504 194.883C241.739 199.884 223.094 204.597 201.759 203.35C184.792 202.35 174.865 195.212 164.378 187.649C159.685 184.264 154.848 180.77 149.324 177.893C126.708 166.124 94.0921 158.328 65.3208 151.463C57.9926 149.71 51.0795 148.066 44.4914 146.394C33.2283 143.53 20.4672 140.297 11.8033 134.57C11.2979 134.241 10.8105 133.898 10.3412 133.556C5.95514 130.363 2.88666 126.829 0.251404 123.239V121.403H0.305603Z" fill="url(#paint0_linear)"/>
<path opacity="0.7" d="M0.306152 104.016C2.03894 105.372 3.6814 106.797 5.21564 108.304C7.0567 110.113 8.75336 111.935 10.3959 113.702C14.6918 118.347 18.771 122.732 25.3772 126.705C25.8465 126.979 26.3159 127.253 26.8032 127.527C35.1422 132.131 46.4413 134.83 57.3795 137.447L57.9029 137.57C62.3431 138.625 66.9277 139.708 71.6387 140.804C100.807 147.599 133.856 155.313 157.682 166.918C162.971 169.494 167.718 172.563 172.284 175.523C182.591 182.195 192.319 188.498 207.896 189.621C228.545 191.128 246.703 186.991 265.944 182.62C270.764 181.524 275.745 180.387 280.745 179.359C285.113 178.468 290.257 177.441 295.402 176.66C325.003 172.152 348.017 175.016 370.037 185.977C372.005 186.95 374.026 187.909 376.048 188.813C405.415 201.953 411.534 204.693 429.872 199.048C430.757 198.774 431.731 198.459 432.76 198.144C444.619 194.376 464.474 188.059 478.39 196.965C489.635 204.158 492.884 216.969 494.707 229.739C495.537 235.507 496.386 240.672 498.443 245.564C501.079 251.825 504.779 256.333 510.049 259.772C516.782 264.143 526.078 266.39 535.084 268.555C536.745 268.952 538.406 269.349 540.012 269.76C545.427 271.13 550.968 272.692 554.686 274.926C559.073 277.556 560.553 279.831 562.592 282.982C563.585 284.517 564.722 286.27 566.401 288.367C567.827 290.134 569.271 291.669 570.841 293.066C576.418 298.04 583.584 303.685 592.176 307.494H589.956C581.96 303.657 575.263 298.341 569.975 293.628C568.368 292.189 566.87 290.627 565.426 288.819C563.711 286.681 562.574 284.928 561.563 283.366C559.596 280.324 558.17 278.132 553.982 275.611C550.409 273.46 544.994 271.925 539.669 270.596C538.063 270.185 536.42 269.801 534.759 269.404C525.662 267.212 516.24 264.951 509.327 260.457C503.876 256.908 500.086 252.277 497.378 245.852C495.285 240.892 494.418 235.671 493.588 229.848C491.783 217.257 488.606 204.652 477.668 197.65C464.293 189.087 444.836 195.266 433.23 198.966C432.201 199.294 431.226 199.596 430.324 199.884C411.462 205.693 405.252 202.925 375.488 189.594C373.449 188.69 371.409 187.717 369.442 186.73C347.692 175.906 324.949 173.07 295.654 177.537C290.546 178.318 285.42 179.332 281.07 180.222C276.088 181.25 271.107 182.387 266.305 183.483C246.974 187.881 228.708 192.046 207.824 190.526C191.904 189.375 182.031 182.976 171.58 176.221C167.032 173.276 162.321 170.234 157.104 167.686C133.405 156.149 100.428 148.449 71.35 141.667C66.639 140.571 62.0363 139.502 57.6141 138.433L57.0906 138.31C46.0803 135.679 34.6729 132.953 26.1895 128.267C25.6841 127.993 25.1967 127.705 24.7274 127.417C17.9768 123.362 13.8615 118.936 9.51147 114.237C7.88702 112.483 6.19037 110.661 4.36737 108.866C3.10388 107.633 1.76813 106.454 0.360229 105.304V104.016H0.306152Z" fill="url(#paint1_linear)"/>
<path opacity="0.7" d="M0.305725 96.2334C6.89392 99.0696 12.5615 102.235 17.5433 105.852C19.2038 107.057 20.7922 108.263 22.3445 109.441C27.5248 113.374 32.4163 117.1 39.564 120.512C40.0333 120.731 40.5026 120.964 41.0079 121.183C49.0581 124.773 59.3104 127.048 69.2377 129.253L72.7214 130.034C102.233 136.597 138.946 144.777 165.353 156.711C170.316 158.944 174.865 161.561 179.251 164.082C189.557 169.987 199.286 175.55 213.907 176.838C234.195 178.619 252.028 174.961 270.908 171.097C276.557 169.946 282.387 168.741 288.29 167.699C294.282 166.658 299.065 165.932 303.343 165.452C332.981 162.068 356.157 166.274 378.484 179.112C380.434 180.236 382.419 181.305 384.368 182.291C413.663 197.047 422.183 196.691 440.431 187.484C461.838 176.674 477.866 174.66 489.454 181.305C502.342 188.703 504.706 203.83 505.356 214.571L505.374 214.763C505.699 220.175 506.042 225.779 507.612 230.944C509.634 237.589 512.919 242.412 517.973 246.125C524.128 250.647 532.9 253.182 541.383 255.648C543.549 256.278 545.697 256.895 547.755 257.539C552.845 259.128 558.531 261.169 562.05 264.225C565.552 267.28 566.4 270.103 567.375 273.391C568.025 275.556 568.747 278.008 570.389 280.844C571.472 282.721 572.754 284.393 574.306 285.969C585.605 297.56 605.424 308.069 627.192 302.766C641.848 299.19 653.833 291.641 665.421 284.325C672.695 279.735 679.572 275.405 686.991 272.048C698.507 266.842 713.596 260.512 728.198 257.662C735.87 256.155 741.7 255.922 746.501 256.936C751.988 258.087 754.479 260.676 756.879 263.17C760.832 267.28 764.569 271.171 782.294 267.719C808.231 262.663 822.761 245.495 829.133 235.699C831.605 231.903 833.645 228.067 835.342 224.203V226.807C833.844 229.917 832.165 233.013 830.162 236.082C823.718 246.002 808.953 263.416 782.582 268.554C764.117 272.158 759.966 267.842 755.959 263.677C753.667 261.293 751.302 258.84 746.212 257.771C741.591 256.812 735.978 257.032 728.505 258.511C714.047 261.334 699.048 267.636 687.605 272.802C680.276 276.117 673.435 280.433 666.179 284.996C654.501 292.353 642.426 299.971 627.571 303.589C605.225 309.042 584.937 298.327 573.404 286.489C571.815 284.859 570.48 283.133 569.361 281.201C567.664 278.296 566.924 275.789 566.274 273.596C565.335 270.431 564.523 267.691 561.22 264.814C557.863 261.896 552.34 259.909 547.358 258.361C545.3 257.717 543.17 257.1 541.004 256.47C532.413 253.976 523.532 251.4 517.215 246.756C511.998 242.919 508.587 237.959 506.529 231.15C504.941 225.902 504.598 220.257 504.255 214.804L504.237 214.612C503.587 204.049 501.295 189.169 488.786 182.003C477.65 175.605 462.055 177.646 441.099 188.21C421.569 198.075 411.912 197.198 383.755 183.017C381.769 182.017 379.766 180.948 377.798 179.811C355.742 167.124 332.836 162.972 303.524 166.315C299.282 166.795 294.517 167.507 288.56 168.549C282.676 169.59 276.846 170.782 271.215 171.933C252.226 175.824 234.303 179.496 213.78 177.701C198.835 176.386 188.998 170.741 178.565 164.767C174.197 162.26 169.667 159.67 164.757 157.451C138.477 145.572 101.836 137.419 72.3964 130.857L68.9128 130.076C58.9313 127.856 48.6069 125.568 40.4304 121.923C39.9249 121.704 39.4376 121.471 38.9683 121.238C31.6943 117.772 26.7667 114.018 21.5322 110.044C19.9799 108.866 18.4096 107.674 16.749 106.468C11.9839 103.002 6.55096 99.9601 0.305725 97.2199V96.2334Z" fill="url(#paint2_linear)"/>
<path opacity="0.7" d="M0.30603 92.0269C2.94128 92.8626 5.5224 93.671 8.03131 94.4931C16.4966 97.3019 23.6263 100.207 29.8535 103.385L32.236 104.605C39.2213 108.194 45.2679 111.291 53.7333 114.305C54.2026 114.47 54.6899 114.648 55.1773 114.812C62.668 117.347 71.6026 119.155 80.2303 120.896L83.9125 121.649C108.695 126.719 144.885 134.816 173.006 146.462C177.555 148.339 181.833 150.477 185.984 152.546C196.363 157.697 206.164 162.575 219.899 164.014C239.899 166.096 257.461 162.849 276.052 159.424C282.46 158.245 289.084 157.012 295.817 156.026C301.701 155.162 306.755 154.573 311.285 154.217C341.41 151.86 364.027 157.231 386.932 172.207C388.845 173.454 390.795 174.632 392.708 175.714C420.288 191.224 431.966 189.238 451.045 175.865C457.94 171.029 481.892 155.985 500.537 165.589C511.096 171.029 516.313 182.387 516.024 199.349L516.006 200.514C515.916 205.761 515.807 211.201 516.782 216.284C518.172 223.313 521.078 228.451 525.915 232.438C531.583 237.11 539.958 239.946 548.044 242.686C550.535 243.522 553.116 244.399 555.517 245.303C562.719 247.989 566.87 250.455 569.397 253.51C572.375 257.1 572.556 260.608 572.736 264.307C572.881 267.116 573.025 270.021 574.361 273.309C575.155 275.282 576.31 277.159 577.754 278.872C587.898 290.915 610.316 300.547 631.867 294.669C647.39 290.435 659.61 281.749 671.414 273.35C677.714 268.87 683.67 264.622 690.096 261.032C701.539 254.62 716.539 246.865 731.159 243.673C738.758 242.001 744.877 241.919 749.804 243.413C755.382 245.098 757.53 248.578 759.605 251.935C763.035 257.484 766.248 262.745 785.056 259.58C803.051 256.566 819.44 245.386 828.899 229.698C831.696 225.053 833.754 220.367 835.324 215.681V219.024C833.898 222.724 832.147 226.409 829.945 230.068C820.343 246.016 803.647 257.361 785.29 260.443C765.58 263.745 762.006 257.936 758.541 252.318C756.483 248.962 754.533 245.797 749.371 244.235C744.678 242.81 738.812 242.906 731.466 244.522C717.026 247.674 702.135 255.388 690.764 261.745C684.41 265.307 678.472 269.527 672.19 273.994C660.296 282.448 647.986 291.203 632.246 295.505C609.901 301.602 587.429 291.997 576.779 279.351C575.281 277.57 574.09 275.624 573.26 273.569C571.888 270.171 571.743 267.212 571.581 264.348C571.383 260.608 571.22 257.388 568.404 253.99C566.004 251.072 561.979 248.715 554.993 246.098C552.611 245.207 550.156 244.372 547.557 243.495C539.362 240.727 530.879 237.85 525.049 233.041C520.049 228.917 517.053 223.642 515.627 216.421C514.634 211.256 514.742 205.789 514.833 200.5L514.851 199.335C515.139 182.688 510.104 171.577 499.869 166.302C481.928 157.067 458.553 171.768 451.803 176.495C433.085 189.621 420.649 192.512 392.004 176.399C390.055 175.303 388.105 174.111 386.156 172.851C363.521 158.053 341.158 152.737 311.394 155.067C306.899 155.423 301.881 155.998 296.033 156.861C289.319 157.848 282.713 159.067 276.305 160.259C257.605 163.712 239.935 166.973 219.719 164.877C205.694 163.411 195.352 158.259 185.334 153.285C181.201 151.23 176.941 149.106 172.429 147.243C144.415 135.652 108.316 127.568 83.5876 122.512L79.9235 121.772C71.2596 120.019 62.2889 118.196 54.708 115.648C54.2026 115.483 53.7152 115.305 53.2279 115.141C44.6723 112.099 38.3007 108.838 31.5682 105.372L29.1857 104.153C23.0126 101.001 15.9371 98.1239 7.54395 95.3289C5.17944 94.5479 2.76074 93.7806 0.287964 92.9996V92.0269H0.30603Z" fill="url(#paint3_linear)"/>
<path opacity="0.7" d="M0.304626 88.5337C6.62201 90.7533 13.3546 92.6989 20.051 94.5348C27.7041 96.6311 35.1587 98.7 42.1439 100.947C51.0425 103.797 58.7497 105.948 67.9009 108.126L69.363 108.469C75.4999 109.88 82.2686 111.072 88.8206 112.237C91.5281 112.716 94.2355 113.196 96.9069 113.689C126.779 119.211 156.525 127.212 180.64 136.228C184.611 137.708 188.491 139.338 192.228 140.914C202.823 145.38 212.823 149.587 225.891 151.176C245.655 153.587 263.019 150.696 281.394 147.627C288.487 146.449 295.833 145.216 303.378 144.312C309.262 143.613 314.461 143.161 319.244 142.955C349.513 141.612 372.274 148.285 395.378 165.274C397.255 166.658 399.15 167.946 401.045 169.125C428.409 186.21 443.462 180.579 461.675 164.233C474.382 152.834 495.067 142.229 511.6 149.874C526.04 156.547 527.755 172.194 526.672 184.127L526.473 186.306C525.986 191.389 525.48 196.637 525.95 201.624C526.654 209.009 529.163 214.448 533.838 218.75C539.108 223.601 547.158 226.711 554.938 229.712C557.717 230.78 560.605 231.89 563.259 233.055C568.042 235.151 573.908 238.138 576.724 242.769C579.287 246.975 578.781 251.072 578.222 255.401C577.807 258.69 577.374 262.101 578.312 265.746C578.854 267.87 579.828 269.884 581.182 271.747C590.243 284.243 614.646 293.176 636.523 286.544C653.02 281.557 665.474 271.569 677.514 261.909C682.586 257.854 687.82 253.648 693.181 250.003C708.974 239.234 722.746 232.397 734.1 229.657C741.789 227.807 747.998 227.876 753.088 229.876C758.72 232.096 760.506 236.411 762.239 240.604C765.127 247.592 767.835 254.209 787.816 251.428C808.23 248.564 822.309 235.206 828.68 223.656C832.29 217.093 834.33 210.489 835.305 203.898V209.708C834.131 214.476 832.345 219.244 829.745 223.998C823.265 235.767 808.898 249.373 788.032 252.264C767.059 255.182 764.044 247.893 761.138 240.837C759.405 236.644 757.781 232.671 752.565 230.629C747.763 228.739 741.825 228.684 734.443 230.465C723.234 233.164 709.606 239.946 693.939 250.62C688.614 254.25 683.633 258.251 678.344 262.485C666.215 272.213 653.67 282.27 636.938 287.339C614.502 294.121 589.485 284.969 580.171 272.144C578.763 270.199 577.753 268.102 577.175 265.897C576.2 262.129 576.634 258.662 577.067 255.305C577.59 251.099 578.096 247.112 575.659 243.125C573.565 239.686 569.558 236.809 562.663 233.794C560.028 232.644 557.158 231.534 554.396 230.465C546.508 227.423 538.35 224.286 532.917 219.285C528.098 214.846 525.499 209.242 524.777 201.665C524.307 196.609 524.813 191.321 525.3 186.21L525.499 184.045C526.563 172.344 524.921 157.04 510.987 150.587C495.067 143.215 474.941 153.628 462.523 164.768C443.841 181.552 428.391 187.306 400.287 169.768C398.374 168.576 396.461 167.261 394.548 165.877C371.697 149.08 349.188 142.476 319.28 143.805C314.515 144.01 309.371 144.462 303.523 145.161C296.014 146.065 288.704 147.285 281.61 148.463C263.127 151.546 245.655 154.45 225.692 152.025C212.443 150.409 201.884 145.969 191.65 141.667C187.932 140.105 184.069 138.475 180.116 137.009C156.056 128.021 126.418 120.047 96.6181 114.539C93.9468 114.045 91.2393 113.566 88.5499 113.086C81.9797 111.922 75.175 110.73 69.02 109.305L67.54 108.962C58.3346 106.77 50.6093 104.619 41.6746 101.755C34.7255 99.5221 27.289 97.4669 19.6359 95.3706C13.0838 93.5758 6.49567 91.6713 0.28656 89.5202V88.5337H0.304626Z" fill="url(#paint4_linear)"/>
<path opacity="0.7" d="M814.316 124.773C814.731 128.76 815.905 132.652 817.15 136.611C818.883 142.037 821.121 147.572 823.486 153.437C831.5 173.221 840.561 195.65 829.55 217.97C822.583 232.068 807.367 242.344 790.761 244.139C768.488 246.551 766.069 237.823 763.741 229.369C762.351 224.354 761.051 219.614 755.781 217.079C750.871 214.709 744.879 214.517 737.442 216.476C721.36 220.696 703.888 234.028 697.119 239.563C692.877 243.029 688.708 246.825 684.665 250.483C672.301 261.691 659.503 273.296 641.652 279.242C620.696 286.216 592.485 279.297 583.586 265.006C582.268 262.896 581.456 260.636 581.131 258.279C580.572 254.196 581.601 250.277 582.575 246.482C583.839 241.591 585.03 236.973 582.936 232.329C581.131 228.342 577.251 225.026 570.356 221.559C567.558 220.162 564.471 218.833 561.493 217.545C553.822 214.229 545.898 210.804 540.808 205.597C536.151 200.816 533.967 194.897 533.931 186.977C533.931 182.045 534.78 176.962 535.628 172.029C535.808 170.947 535.989 169.878 536.169 168.809C537.469 160.917 538.696 141.804 522.109 134.926C504.871 127.747 485.016 140.228 473.248 153.108C461.407 166.055 450.758 172.522 439.693 173.482C430.019 174.317 419.839 170.947 408.594 163.192C406.771 161.945 404.893 160.506 402.98 158.944C380.057 140.105 357.387 132.227 327.207 132.583C322.189 132.638 316.901 132.939 311.053 133.487C302.822 134.268 294.844 135.474 287.119 136.639C268.798 139.406 251.47 142.01 231.688 139.215C218.638 137.365 207.321 133.474 196.383 129.692C193.549 128.719 190.715 127.733 187.845 126.787C168.586 120.444 139.544 111.428 109.672 106.578C100.972 105.167 91.9106 104.03 83.355 102.988L81.8749 102.81C78.8065 102.44 75.8282 102.098 72.9042 101.755C66.5146 101.029 60.486 100.33 54.1866 99.3711C47.454 98.3435 39.6204 97.0967 31.7507 95.4252C21.6429 93.2604 9.69397 89.7391 0.290039 84.1216V82.9844C9.63977 88.7663 21.8054 92.3835 32.0576 94.5757C39.8732 96.2472 47.7067 97.4804 54.4032 98.508C60.6845 99.4671 66.6951 100.152 73.0667 100.878C75.9907 101.207 78.9689 101.55 82.0554 101.933L83.5355 102.111C92.0911 103.153 101.17 104.29 109.906 105.715C139.869 110.593 169.001 119.622 188.296 125.979C191.184 126.924 194.018 127.911 196.852 128.884C208.223 132.802 218.963 136.515 231.887 138.338C251.452 141.105 268.672 138.516 286.884 135.762C294.628 134.597 302.624 133.391 310.908 132.611C316.811 132.049 322.135 131.761 327.189 131.693C357.729 131.323 380.653 139.297 403.81 158.342C405.706 159.89 407.565 161.301 409.37 162.534C420.362 170.111 430.235 173.413 439.567 172.591C450.271 171.673 460.667 165.316 472.309 152.587C484.349 139.42 504.745 126.678 522.668 134.145C539.87 141.27 538.642 160.822 537.307 168.892C537.126 169.96 536.946 171.029 536.765 172.111C535.935 177.016 535.068 182.072 535.086 186.95C535.104 194.677 537.216 200.432 541.729 205.049C546.692 210.105 554.508 213.489 562.071 216.75C565.067 218.052 568.172 219.381 570.987 220.792C575.789 223.204 581.601 226.656 584.019 232.014C586.221 236.877 584.994 241.618 583.694 246.619C582.72 250.36 581.727 254.21 582.268 258.169C582.575 260.43 583.37 262.595 584.615 264.609C593.261 278.516 620.733 285.216 641.165 278.42C658.781 272.556 671.488 261.033 683.762 249.907C687.805 246.235 692.011 242.44 696.253 238.946C704.736 232.014 721.306 219.765 737.045 215.627C744.716 213.613 751.232 213.846 756.377 216.326C762.044 219.066 763.47 224.204 764.842 229.177C767.17 237.604 769.372 245.55 790.581 243.262C806.771 241.509 821.644 231.452 828.449 217.641C839.333 195.609 830.308 173.331 822.366 153.669C819.984 147.805 817.746 142.256 816.013 136.803C814.804 132.967 813.576 128.884 813.143 124.828" fill="url(#paint5_linear)"/>
<path opacity="0.7" d="M806.373 135.436C808.683 139.629 811.192 143.78 813.864 148.179C826.21 168.566 838.953 189.639 829.368 211.931C823.683 225.152 809.261 234.825 793.504 236.004C769.949 237.758 768.126 227.632 766.357 217.836C765.31 212.04 764.317 206.56 759.01 203.532C742.531 194.16 714.355 214.808 700.313 228.495C697.208 231.523 694.122 234.702 691.125 237.785C678.527 250.76 665.513 264.174 646.362 271.147C632.5 276.19 613.529 275.381 600.209 269.188C590.696 264.763 585.318 258.186 585.083 250.664C584.939 246.293 586.527 241.95 588.043 237.744C590.065 232.14 591.996 226.851 590.227 221.508C587.592 213.575 578.368 209.163 568.585 204.491C561.149 200.942 553.46 197.27 548.695 191.858C539.959 181.952 542.991 169.443 545.915 157.358C546.222 156.071 546.529 154.796 546.836 153.536C548.298 147.219 551.619 126.078 533.244 119.228C514.869 112.391 495.213 126.901 483.968 141.41C471.333 157.687 458.843 166.004 445.739 166.826C434.584 167.525 423.032 162.538 411.39 152.001C384.297 127.476 358.288 119.009 318.56 121.804C309.662 122.434 301.07 123.598 292.767 124.736C274.699 127.202 257.624 129.545 238.221 126.462C238.04 126.435 237.842 126.407 237.661 126.366C218.204 123.187 199.991 117.885 182.375 112.761C155.607 104.978 127.937 96.9221 96.2051 96.6207C91.061 96.5659 85.8085 96.6755 80.7185 96.7851C68.571 97.0317 55.9903 97.2783 43.8789 95.4561C28.3019 93.0995 9.56628 85.7145 4.04309 71.9995C0.216553 62.4908 3.7182 52.4341 7.11157 42.6925C10.5952 32.6494 14.2231 22.2776 9.51215 12.7689C7.50861 8.74071 4.16943 5.27429 0.324829 2.08189V0.780273C4.62067 4.2467 8.375 8.00084 10.5771 12.4675C15.4144 22.2365 11.7503 32.759 8.21259 42.9254C4.87335 52.5437 1.40784 62.4771 5.14417 71.7529C10.4327 84.9061 28.2659 92.0993 43.4457 94.497C43.6624 94.5381 43.8789 94.5655 44.0955 94.5929C56.0986 96.4015 68.5891 96.1411 80.6824 95.9082C85.7725 95.8123 91.0429 95.7027 96.2051 95.7438C128.135 96.0589 155.896 104.143 182.754 111.952C200.334 117.063 218.492 122.352 237.878 125.53C238.058 125.558 238.257 125.585 238.437 125.626C257.624 128.668 274.591 126.352 292.55 123.886C300.871 122.749 309.481 121.571 318.434 120.94C358.053 118.159 385.236 126.996 412.238 151.453C423.628 161.77 434.855 166.648 445.612 165.977C458.301 165.182 470.521 157.002 482.939 140.985C494.437 126.161 514.635 111.363 533.713 118.461C552.81 125.571 549.417 147.233 547.937 153.7C547.648 154.961 547.341 156.249 547.016 157.537C544.128 169.457 541.15 181.774 549.615 191.392C554.254 196.64 561.835 200.271 569.163 203.765C579.145 208.533 588.567 213.027 591.31 221.302C593.151 226.865 591.112 232.51 589.126 237.977C587.628 242.115 586.076 246.403 586.202 250.637C586.437 257.844 591.599 264.174 600.768 268.435C613.782 274.477 632.301 275.272 645.82 270.353C664.7 263.475 677.642 250.157 690.151 237.264C693.147 234.181 696.233 230.989 699.356 227.961C702.912 224.508 731.773 197.161 752.946 200.517C755.292 200.887 757.548 201.641 759.66 202.847C765.364 206.094 766.429 212.013 767.458 217.726C769.227 227.55 770.887 236.826 793.359 235.154C808.665 234.017 822.69 224.577 828.249 211.67C837.707 189.707 825.037 168.785 812.799 148.549C810.254 144.342 807.618 139.985 805.29 135.779" fill="url(#paint6_linear)"/>
<path d="M806.895 135.268C809.205 139.447 811.714 143.598 814.368 147.997C826.768 168.453 839.565 189.607 829.89 212.05C824.133 225.436 809.512 235.233 793.538 236.425C769.442 238.22 767.474 227.409 765.76 217.873C764.731 212.16 763.756 206.775 758.63 203.857C742.512 194.677 714.643 215.174 700.726 228.738C697.622 231.753 694.535 234.931 691.557 238.014C678.922 251.03 665.854 264.485 646.577 271.5C632.552 276.611 613.347 275.788 599.882 269.527C590.19 265.019 584.739 258.319 584.486 250.647C584.341 246.221 585.93 241.837 587.464 237.603C589.468 232.054 591.363 226.82 589.63 221.6C587.049 213.831 577.916 209.474 568.241 204.857C560.75 201.281 553.025 197.582 548.188 192.101C539.325 182.044 542.376 169.453 545.318 157.286C545.625 155.998 545.932 154.724 546.238 153.463C547.682 147.216 550.986 126.335 532.954 119.621C514.922 112.921 495.555 127.28 484.418 141.625C471.693 158.04 459.04 166.411 445.755 167.247C434.402 167.959 422.688 162.917 410.919 152.271C383.971 127.883 358.088 119.457 318.595 122.224C309.714 122.841 301.141 124.019 292.856 125.157C274.553 127.664 257.298 129.979 237.515 126.787C218.004 123.595 199.773 118.292 182.139 113.154C154.198 105.016 127.791 97.3429 96.1677 97.0415C91.0234 96.9867 85.789 97.0963 80.699 97.2059C68.5154 97.4525 55.9167 97.6992 43.7331 95.8769C27.9034 93.4929 9.0415 86.0119 3.46411 72.1188C-0.416626 62.4868 3.12109 52.3616 6.51447 42.5789C10.1425 32.1522 13.572 22.301 8.93317 12.9156C7.0199 9.05183 3.93335 5.77722 0.287354 2.70814V0.145996C4.79974 3.73573 8.77069 7.6406 11.0811 12.3127C15.9906 22.2188 12.2904 32.7962 8.73462 43.031C5.41345 52.5808 1.96594 62.4594 5.64813 71.6119C10.9367 84.7651 29.0406 91.8898 44.1663 94.1642C56.0972 95.9591 68.5696 95.7125 80.6268 95.4658C85.7349 95.3699 91.0054 95.2603 96.1857 95.3014C128.206 95.6028 156.039 103.7 182.951 111.524C200.513 116.634 218.653 121.909 237.985 125.074C257.19 128.226 274.373 125.896 292.441 123.43C300.78 122.293 309.389 121.115 318.378 120.484C358.214 117.689 385.523 126.568 412.688 151.148C423.951 161.342 435.016 166.178 445.575 165.507C457.903 164.726 470.303 156.395 482.451 140.735C494.075 125.746 514.543 110.811 533.983 118.046C553.44 125.294 550.029 147.202 548.513 153.751C548.224 155.012 547.917 156.3 547.592 157.587C544.722 169.425 541.762 181.661 550.119 191.128C554.686 196.307 562.212 199.897 569.487 203.377C579.125 207.981 589.071 212.735 591.868 221.175C593.745 226.847 591.688 232.561 589.684 238.069C588.186 242.179 586.652 246.44 586.778 250.605C586.995 257.662 592.085 263.855 601.074 268.034C613.925 274.007 632.227 274.788 645.584 269.924C664.338 263.101 677.244 249.811 689.716 236.973C692.712 233.89 695.799 230.698 698.921 227.656C702.495 224.176 731.573 196.636 753.107 200.061C755.525 200.445 757.836 201.212 760.02 202.459C765.922 205.816 767.005 211.817 768.052 217.64C769.785 227.245 771.409 236.315 793.322 234.685C808.411 233.561 822.237 224.244 827.706 211.502C837.092 189.703 824.475 168.864 812.274 148.709C809.729 144.503 807.094 140.146 804.765 135.926" fill="url(#paint7_linear)"/>
</g>
<defs>
<linearGradient id="paint0_linear" x1="288.596" y1="121.403" x2="288.596" y2="307.48" gradientUnits="userSpaceOnUse">
<stop stop-color="#B98787" stop-opacity="0"/>
<stop offset="0.84375" stop-color="#CCA1A1" stop-opacity="0.53"/>
</linearGradient>
<linearGradient id="paint1_linear" x1="296.241" y1="104.016" x2="296.241" y2="307.494" gradientUnits="userSpaceOnUse">
<stop stop-color="#B98787" stop-opacity="0"/>
<stop offset="0.84375" stop-color="#CCA1A1" stop-opacity="0.53"/>
</linearGradient>
<linearGradient id="paint2_linear" x1="417.824" y1="96.2334" x2="417.824" y2="305.05" gradientUnits="userSpaceOnUse">
<stop stop-color="#B98787" stop-opacity="0"/>
<stop offset="0.84375" stop-color="#CCA1A1" stop-opacity="0.53"/>
</linearGradient>
<linearGradient id="paint3_linear" x1="417.806" y1="92.0269" x2="417.806" y2="297.386" gradientUnits="userSpaceOnUse">
<stop stop-color="#B98787" stop-opacity="0"/>
<stop offset="0.84375" stop-color="#CCA1A1" stop-opacity="0.53"/>
</linearGradient>
<linearGradient id="paint4_linear" x1="417.796" y1="88.5337" x2="417.796" y2="289.64" gradientUnits="userSpaceOnUse">
<stop stop-color="#B98787" stop-opacity="0"/>
<stop offset="0.84375" stop-color="#CCA1A1" stop-opacity="0.53"/>
</linearGradient>
<linearGradient id="paint5_linear" x1="417.471" y1="82.9844" x2="417.471" y2="281.981" gradientUnits="userSpaceOnUse">
<stop stop-color="#B98787" stop-opacity="0"/>
<stop offset="0.84375" stop-color="#CCA1A1" stop-opacity="0.53"/>
</linearGradient>
<linearGradient id="paint6_linear" x1="416.526" y1="0.780273" x2="416.526" y2="274.445" gradientUnits="userSpaceOnUse">
<stop stop-color="#B98787" stop-opacity="0"/>
<stop offset="0.84375" stop-color="#CCA1A1" stop-opacity="0.53"/>
</linearGradient>
<linearGradient id="paint7_linear" x1="416.789" y1="0.145996" x2="416.789" y2="274.842" gradientUnits="userSpaceOnUse">
<stop stop-color="#B98787" stop-opacity="0"/>
<stop offset="0.84375" stop-color="#CCA1A1" stop-opacity="0.53"/>
</linearGradient>
</defs>
</svg>
