<svg width="751" height="371" viewBox="0 0 751 371" fill="none" xmlns="http://www.w3.org/2000/svg">
<path opacity="0.7" d="M751 359.426C744.142 361.01 736.992 364.227 729.275 370.017H731.01C738.111 364.853 744.661 361.934 750.984 360.433V359.426H751Z" fill="white"/>
<path opacity="0.7" d="M750.999 353.24C738.759 353.587 725.919 357.051 710.452 369.653C710.322 369.769 710.193 369.884 710.047 370H711.684C726.746 357.892 738.97 354.56 750.983 354.263V353.24H750.999Z" fill="white"/>
<path opacity="0.7" d="M751 347.863C734.901 347.731 719.192 348.622 697.824 364.227C695.262 366.091 692.814 368.037 690.398 370H692.052C694.127 368.318 696.251 366.668 698.424 365.068C719.532 349.644 735.08 348.77 751 348.902V347.863Z" fill="white"/>
<path opacity="0.7" d="M751 340.258C747.044 340.753 743.234 341.116 739.473 341.446C723.114 342.914 707.648 344.316 685.178 358.783C679.503 362.445 674.202 366.272 669.062 370H670.846C675.612 366.553 680.525 363.039 685.745 359.674C708.005 345.339 723.341 343.953 739.586 342.485C743.315 342.155 747.093 341.809 751.016 341.314V340.258H751Z" fill="white"/>
<path opacity="0.7" d="M751 328.299C740.916 331.548 732.405 333.33 724.185 335.029C708.897 338.196 694.419 341.182 672.549 353.356C668.35 355.698 664.329 358.041 660.438 360.317C654.537 363.765 648.879 367.08 643.172 370.017H645.425C650.548 367.311 655.655 364.342 660.957 361.241C664.848 358.964 668.868 356.622 673.051 354.296C694.776 342.205 709.156 339.236 724.396 336.085C732.567 334.386 741.014 332.637 751.017 329.421V328.299H751Z" fill="white"/>
<path opacity="0.7" d="M750.999 311.11C747.497 313.453 743.833 315.498 740.105 317.098L739.553 317.346C738.337 317.874 737.138 318.385 735.97 318.847C725.124 323.169 716.289 326.171 707.745 329.058C693.77 333.808 680.573 338.279 659.918 347.929L658.508 348.589C634.935 359.591 616.323 368.285 589.557 366.899C580.397 366.404 570.929 364.177 560.926 361.835C554.733 360.383 548.329 358.866 541.99 357.81C528.436 355.583 515.628 356.177 502.853 359.641C493.726 362.099 486.835 365.744 481.031 370.033H482.831C488.294 366.173 494.747 362.924 503.112 360.664C515.758 357.249 528.42 356.672 541.828 358.866C548.118 359.921 554.506 361.422 560.683 362.874C570.75 365.233 580.251 367.476 589.492 367.971C616.518 369.373 635.243 360.631 658.929 349.562L660.34 348.902C680.946 339.285 694.126 334.815 708.069 330.08C716.629 327.177 725.465 324.175 736.343 319.853C737.527 319.375 738.727 318.863 739.959 318.335L740.51 318.088C744.093 316.554 747.611 314.607 750.999 312.381V311.11Z" fill="white"/>
<path opacity="0.7" d="M751.001 286.845C743.689 295.225 733.459 302.945 722.872 308.091L721.543 308.735C720.667 309.164 719.808 309.592 718.949 309.988C711.232 313.601 704.731 316.818 698.457 319.919C683.395 327.375 670.377 333.808 647.274 342.468C623.88 351.244 604.036 355.946 577.383 352.234C569.568 351.129 561.543 348.951 553.064 346.658C546.109 344.778 538.927 342.831 531.777 341.495C518.548 339.07 506.178 339.433 493.938 342.6C474.856 347.549 466.733 357.859 458.124 368.763C457.8 369.175 457.476 369.571 457.168 369.983H458.497C458.643 369.802 458.789 369.604 458.935 369.423C467.43 358.651 475.439 348.489 494.197 343.623C506.291 340.489 518.516 340.126 531.583 342.518C538.684 343.838 545.85 345.784 552.772 347.665C561.3 349.974 569.358 352.151 577.221 353.273C604.084 357.018 624.058 352.283 647.598 343.442C670.733 334.748 683.768 328.315 698.862 320.843C705.136 317.741 711.621 314.541 719.338 310.912C720.197 310.516 721.073 310.087 721.948 309.658L723.261 309.015C733.605 303.984 743.592 296.511 750.936 288.362V286.845H751.001Z" fill="white"/>
<path opacity="0.7" d="M751.001 260.386C748.018 263.223 745.505 266.06 742.911 269.03C740.155 272.164 737.318 275.413 733.686 278.877C726.034 286.185 716.063 293.377 705.639 299.118C704.99 299.481 704.358 299.827 703.726 300.174C703.126 300.503 702.542 300.833 701.942 301.163C693.933 305.568 687.367 309.972 681.012 314.244C668.156 322.872 656.029 331.021 634.661 337.042C611.461 343.59 591.358 343.755 565.24 337.619C559.047 336.151 552.756 334.171 546.077 332.06C538.1 329.536 529.848 326.946 521.596 325.231C508.707 322.591 496.759 322.74 485.07 325.626C465.68 330.46 458.757 341.083 451.429 352.35C447.554 358.305 443.534 364.441 437.486 370H439.026C444.701 364.573 448.559 358.667 452.288 352.943C459.503 341.858 466.312 331.4 485.313 326.666C496.84 323.795 508.642 323.663 521.385 326.27C529.589 327.969 537.808 330.559 545.769 333.066C552.464 335.178 558.787 337.173 565.013 338.642C591.309 344.811 611.558 344.646 634.937 338.048C656.45 331.977 668.658 323.779 681.58 315.119C687.919 310.863 694.468 306.458 702.429 302.087C703.012 301.757 703.612 301.427 704.212 301.097C704.844 300.751 705.477 300.388 706.109 300.042C716.615 294.268 726.65 287.026 734.367 279.653C738.031 276.156 740.884 272.89 743.657 269.739C746.04 267.017 748.326 264.411 750.985 261.821V260.386H751.001Z" fill="white"/>
<path opacity="0.7" d="M751 246.282C749.719 246.925 748.439 247.585 747.206 248.278C744.321 249.894 741.516 251.643 738.387 253.754C733.183 257.268 728.854 260.831 724.282 264.592C721.721 266.703 719.062 268.897 716.127 271.174C708.783 276.881 699.704 283.084 688.404 290.127C687.48 290.705 686.588 291.282 685.697 291.859L684.951 292.338C677.493 297.138 671.43 302.466 665.577 307.629C653.807 317.989 642.685 327.787 622.063 331.614C598.588 335.986 578.274 331.565 553.112 323.003C549.01 321.601 544.892 320.067 540.531 318.434C531.08 314.904 521.32 311.242 511.43 308.966C498.882 306.095 487.322 306.013 476.217 308.652C456.551 313.337 450.845 324.29 444.814 335.87C441.295 342.617 437.664 349.578 431.082 355.764C429.606 357.15 428.001 358.387 426.299 359.443C420.236 363.237 413.475 365.431 406.941 367.542C404.461 368.35 402.013 369.142 399.662 370.016H402.807C404.266 369.522 405.742 369.043 407.25 368.548C413.848 366.42 420.673 364.21 426.834 360.35C428.585 359.261 430.239 357.974 431.763 356.556C438.491 350.254 442.155 343.211 445.705 336.382C451.623 325.016 457.232 314.277 476.428 309.691C487.452 307.069 498.784 307.168 511.187 310.005C521.012 312.265 530.755 315.91 540.158 319.44C544.52 321.073 548.654 322.624 552.755 324.026C578.079 332.637 598.523 337.091 622.225 332.67C643.156 328.777 654.358 318.896 666.226 308.438C672.046 303.308 678.077 297.996 685.47 293.245L686.216 292.767C687.091 292.189 687.999 291.612 688.907 291.051C700.239 283.991 709.334 277.772 716.727 272.032C719.678 269.739 722.337 267.545 724.898 265.433C729.454 261.672 733.75 258.126 738.922 254.662C742.035 252.567 744.807 250.835 747.677 249.234C748.747 248.641 749.865 248.063 750.968 247.502V246.282H751Z" fill="white"/>
<path opacity="0.7" d="M751.001 237.325C745.019 239.585 738.874 241.927 733.038 244.566C730.136 245.87 727.104 247.338 723.748 249.02C714.864 253.507 707.098 258.225 698.586 263.471C689.281 269.228 679.65 275.166 671.171 281.154C670.069 281.929 668.999 282.738 667.945 283.529C661.12 288.676 655.656 294.862 650.371 300.833C639.655 312.974 629.506 324.439 609.451 326.204C584.727 328.381 563.473 318.682 540.97 308.405L537.63 306.871C525.909 301.477 513.798 295.918 501.25 292.701C489.009 289.583 477.952 289.253 467.333 291.678C447.408 296.182 442.95 307.432 438.216 319.342C435.46 326.27 432.623 333.429 426.592 339.796C425.278 341.182 423.787 342.452 422.166 343.574C417.026 347.121 410.979 349.314 405.126 351.442C396.404 354.61 388.168 357.595 383.078 364.656C381.813 366.388 380.63 368.186 379.479 370H380.711C381.748 368.4 382.802 366.816 383.921 365.266C388.817 358.453 396.907 355.517 405.483 352.416C411.401 350.271 417.513 348.044 422.766 344.432C424.452 343.277 425.992 341.957 427.354 340.506C433.514 333.99 436.4 326.732 439.189 319.705C443.809 308.059 448.187 297.056 467.577 292.684C478.017 290.309 488.928 290.623 501.006 293.707C513.474 296.891 525.536 302.45 537.225 307.811L540.565 309.345C563.197 319.688 584.565 329.454 609.564 327.243C630.041 325.445 640.287 313.832 651.149 301.543C656.402 295.604 661.833 289.451 668.577 284.387C669.615 283.595 670.685 282.82 671.787 282.045C680.234 276.09 689.848 270.151 699.154 264.411C707.649 259.165 715.399 254.464 724.234 249.993C727.574 248.311 730.59 246.859 733.492 245.556C739.182 242.983 745.181 240.69 751.033 238.479V237.325H751.001Z" fill="white"/>
<path opacity="0.7" d="M751.001 229.935C745.44 231.881 739.636 233.844 733.686 235.84C704.391 245.672 671.204 256.806 650.938 274.704C644.761 280.164 639.914 287.142 635.212 293.905C625.534 307.844 616.39 321.008 596.838 320.76C574.059 320.48 553.453 308.306 533.512 296.528C531.94 295.604 530.383 294.68 528.811 293.757C507.718 281.385 482.913 269.458 458.644 274.622C458.579 274.638 458.514 274.655 458.449 274.671C438.313 279.026 435.071 290.556 431.65 302.747C429.656 309.873 427.581 317.23 422.101 323.812C417.318 329.552 410.039 332.489 403.003 335.342C394.621 338.724 385.964 342.238 381.262 350.469C377.857 356.408 375.085 362.874 372.41 369.142C372.28 369.423 372.167 369.72 372.037 370H373.156C373.221 369.852 373.285 369.703 373.35 369.555C376.025 363.319 378.781 356.869 382.154 350.98C386.693 343.063 395.172 339.631 403.392 336.316C410.541 333.429 417.951 330.427 422.895 324.488C428.521 317.742 430.612 310.269 432.639 303.027C436.125 290.622 439.124 279.917 458.66 275.694C458.725 275.677 458.789 275.661 458.854 275.644C482.784 270.564 507.378 282.408 528.292 294.664C529.848 295.571 531.421 296.511 532.993 297.435C553.048 309.279 573.768 321.519 596.822 321.799C616.909 322.03 626.215 308.669 636.039 294.499C640.692 287.785 645.523 280.84 651.603 275.479C671.706 257.713 704.812 246.612 734.01 236.813C739.847 234.85 745.537 232.937 751.001 231.023V229.935Z" fill="white"/>
<path opacity="0.7" d="M751 215.979C742.877 219.014 734.058 221.967 724.817 225.052C696.38 234.553 664.166 245.308 644.031 262.382C638.081 267.446 633.314 273.863 628.71 280.082C619.112 293.014 610.05 305.221 591.438 305.32C569.859 305.436 550.275 295.192 532.976 286.136L529.085 284.09C526.588 282.77 524.108 281.467 521.644 280.214C502.464 270.399 479.767 260.946 456.891 265.351C454.865 265.747 452.871 266.209 450.941 266.736C431.422 272.081 427.125 282.539 422.959 292.651C420.543 298.54 418.046 304.611 412.551 309.708C408.06 313.865 401.672 315.762 394.895 317.774C385.962 320.43 376.721 323.168 371.29 331.515C366.605 338.675 363.314 347.021 360.136 355.088C358.45 359.377 356.699 363.814 354.786 367.921C354.462 368.631 354.121 369.291 353.797 369.967H354.948C355.207 369.439 355.467 368.928 355.726 368.367C357.655 364.226 359.406 359.773 361.092 355.467C364.254 347.45 367.513 339.153 372.149 332.076C377.37 324.059 386.432 321.37 395.187 318.764C402.061 316.719 408.562 314.789 413.248 310.467C418.906 305.221 421.451 299.035 423.915 293.031C428.163 282.688 432.184 272.922 451.217 267.726C453.114 267.198 455.092 266.753 457.102 266.357C479.67 262.019 502.172 271.388 521.206 281.121C523.67 282.374 526.134 283.678 528.631 284.997L532.522 287.043C549.918 296.148 569.616 306.458 591.454 306.343C610.585 306.227 619.793 293.823 629.553 280.675C634.125 274.506 638.859 268.139 644.712 263.14C664.685 246.199 696.818 235.461 725.157 226.008C734.269 222.973 742.975 220.053 751.016 217.051V215.979H751Z" fill="white"/>
<path opacity="0.7" d="M751 201.826C749.281 202.519 747.612 203.178 745.99 203.822C736.944 207.335 726.844 210.684 716.16 214.214C688.518 223.369 657.179 233.745 637.157 250.076C631.418 254.761 626.732 260.633 622.193 266.324C612.692 278.234 603.727 289.484 586.072 289.897C565.336 290.375 546.319 281.484 527.934 272.873L523.881 270.976C520.655 269.475 517.623 268.056 514.526 266.687C495.38 258.225 472.618 250.455 449.304 257.037C447.294 257.598 445.332 258.208 443.468 258.835C424.921 265.004 419.457 274.094 414.642 282.111C411.61 287.142 408.757 291.909 403.05 295.654C398.949 298.342 393.274 299.382 387.259 300.487C378.083 302.186 367.675 304.099 361.368 312.628C355.467 320.612 351.981 330.608 348.625 340.258C347.491 343.541 346.404 346.626 345.237 349.661C342.562 356.589 339.79 361.802 336.547 366.041C335.445 367.46 334.31 368.779 333.143 370.017H334.553C335.51 368.961 336.45 367.872 337.358 366.684C340.665 362.362 343.47 357.067 346.194 350.04C347.377 347.005 348.447 343.887 349.598 340.605C352.938 331.021 356.391 321.123 362.195 313.255C368.259 305.056 378.018 303.258 387.454 301.51C393.566 300.388 399.338 299.316 403.618 296.528C409.535 292.668 412.453 287.802 415.534 282.655C420.495 274.407 425.618 265.879 443.792 259.825C445.64 259.214 447.586 258.604 449.58 258.043C472.601 251.544 495.12 259.247 514.105 267.644C517.185 268.996 520.217 270.415 523.427 271.933L527.48 273.83C545.978 282.49 565.109 291.431 586.072 290.936C604.229 290.523 613.325 279.075 622.971 266.967C627.478 261.326 632.131 255.486 637.789 250.884C657.665 234.685 688.907 224.326 716.468 215.204C727.168 211.657 737.268 208.309 746.347 204.795C747.855 204.201 749.411 203.591 751 202.947V201.826Z" fill="white"/>
<path opacity="0.7" d="M750.999 187.178C745.455 190.048 739.553 192.258 734.301 194.238C726.016 197.339 716.937 200.325 707.307 203.492C680.524 212.301 650.175 222.264 630.266 237.754C624.754 242.043 620.149 247.371 615.707 252.534C606.288 263.454 597.387 273.764 580.672 274.457C560.666 275.282 543.076 267.908 524.464 260.105C522.794 259.396 521.108 258.703 519.438 258.011L518.53 257.631C514.672 256.031 511.04 254.53 507.376 253.161C489.397 246.381 465.678 239.75 441.7 248.74C439.787 249.449 437.89 250.192 435.977 250.934C419.165 257.582 412.55 264.988 407.232 270.96C403.325 275.348 399.937 279.142 393.549 281.599C389.999 282.969 385.216 283.266 380.142 283.579C370.122 284.206 358.774 284.899 351.413 293.74C344.231 302.368 340.81 313.981 337.487 325.214C336.871 327.309 336.255 329.371 335.639 331.367C334.082 336.365 331.845 342.815 328.278 348.407C324.42 354.461 319.913 358.899 314.482 362C306.521 366.536 296.583 367.856 287.099 368.813C283.03 369.225 279.366 369.357 276.123 369.489C275.004 369.522 273.951 369.571 272.962 369.621C271.681 369.687 270.514 369.703 269.395 369.736C267.482 369.786 265.747 369.835 264.045 370.033H285.332C285.948 369.984 286.548 369.934 287.196 369.868C296.794 368.895 306.846 367.559 314.984 362.924C320.561 359.74 325.182 355.187 329.138 348.985C332.769 343.277 335.039 336.745 336.611 331.681C337.228 329.668 337.844 327.606 338.46 325.511C341.735 314.377 345.139 302.863 352.175 294.4C359.244 285.905 370.366 285.212 380.19 284.602C385.346 284.288 390.193 283.975 393.89 282.556C400.504 280.016 403.974 276.139 407.978 271.636C413.49 265.45 419.732 258.456 436.334 251.891C438.23 251.132 440.144 250.406 442.04 249.697C465.694 240.838 489.186 247.404 507.003 254.118C510.635 255.487 514.283 256.988 518.125 258.588L519.033 258.967C520.719 259.66 522.389 260.369 524.059 261.062C541.957 268.568 560.472 276.337 580.705 275.496C597.874 274.787 606.904 264.312 616.469 253.21C620.879 248.097 625.451 242.801 630.882 238.579C650.645 223.188 680.913 213.241 707.615 204.482C717.245 201.315 726.34 198.329 734.641 195.211C739.78 193.281 745.52 191.12 750.983 188.349V187.178H750.999Z" fill="white"/>
<path opacity="0.7" d="M751 170.319C743.315 177.214 732.372 181.14 722.612 184.637C715.365 187.227 707.567 189.767 699.331 192.456C673.132 200.968 643.431 210.635 623.392 225.431C618.107 229.324 613.616 234.124 609.271 238.743C599.933 248.69 591.097 258.076 575.307 259.017C555.884 260.171 538.796 253.738 520.703 246.925C518.028 245.919 515.353 244.913 512.662 243.923C508.025 242.24 504.167 240.855 500.243 239.601C473.59 231.188 453.195 231.419 434.113 240.393C432.249 241.267 430.368 242.141 428.504 242.999C415.015 249.202 407.946 254.596 402.256 258.918C396.192 263.52 392.204 266.572 384.098 267.512C381.261 267.842 377.581 267.561 373.69 267.281C363.216 266.489 350.166 265.516 341.492 274.803C332.948 283.942 329.689 297.831 326.804 310.071L326.106 313.04C324.696 318.913 322.994 325.132 320.075 330.757C316.655 337.355 312.618 342.04 307.414 345.52C299.826 350.568 289.985 352.317 280.469 354.016L280.177 354.065C278.637 354.346 277.145 354.593 275.735 354.824C272.103 355.434 268.974 355.962 266.364 356.639L265.78 356.787C259.133 358.503 256.101 359.294 249.73 365.117C249.163 365.645 248.563 366.206 247.93 366.783C246.958 367.707 245.904 368.697 244.737 369.72C244.639 369.802 244.542 369.901 244.461 369.984H246.001C246.941 369.142 247.817 368.318 248.628 367.559C249.244 366.981 249.843 366.42 250.411 365.893C256.588 360.235 259.344 359.525 266.023 357.793L266.607 357.645C269.185 356.968 272.298 356.457 275.897 355.847C277.307 355.599 278.799 355.352 280.355 355.088L280.647 355.038C290.261 353.323 300.215 351.541 307.965 346.378C313.331 342.815 317.465 337.998 320.983 331.235C323.95 325.511 325.685 319.226 327.095 313.271L327.792 310.302C330.646 298.178 333.888 284.453 342.238 275.512C350.571 266.588 363.346 267.545 373.609 268.304C377.564 268.601 381.293 268.881 384.211 268.535C392.593 267.545 396.679 264.444 402.872 259.726C408.514 255.437 415.534 250.092 428.925 243.939C430.806 243.082 432.67 242.207 434.551 241.333C453.39 232.491 473.558 232.26 499.952 240.591C503.859 241.828 507.717 243.214 512.338 244.896C515.029 245.886 517.704 246.892 520.363 247.898C538.553 254.744 555.738 261.227 575.388 260.056C591.584 259.099 600.549 249.564 610.05 239.469C614.362 234.867 618.837 230.132 624.041 226.272C643.95 211.558 673.553 201.941 699.688 193.446C707.94 190.757 715.738 188.233 723.001 185.627C732.566 182.196 743.25 178.352 751.032 171.688V170.319H751Z" fill="white"/>
<path opacity="0.7" d="M55.781 352.482C71.0044 358.123 75.2196 358.288 81.6235 358.519C83.8284 358.602 86.3413 358.684 89.6486 359.031C92.6965 359.344 96.0849 359.971 99.6678 360.614C101.403 360.928 103.186 361.258 105.034 361.571C108.649 362.181 112.265 362.742 115.815 363.303C125.527 364.837 134.703 366.272 142.323 368.169C144.284 368.648 146.214 369.291 148.127 370H150.98C148.208 368.846 145.419 367.856 142.582 367.147C134.914 365.233 125.721 363.798 115.994 362.264C112.443 361.703 108.844 361.142 105.229 360.532C103.397 360.218 101.613 359.888 99.8786 359.575C96.2795 358.915 92.8749 358.288 89.7783 357.975C86.4386 357.629 83.9094 357.546 81.6883 357.464C75.3817 357.233 71.2151 357.084 56.1539 351.492C36.3099 344.135 19.4491 328.58 6.04146 305.255C4.24188 302.104 2.57201 298.937 1.01562 295.753V298.062C2.31261 300.652 3.67445 303.209 5.14978 305.766C18.6547 329.322 35.6939 345.042 55.781 352.482Z" fill="white"/>
<path opacity="0.7" d="M751.001 145.988C748.439 150.904 745.618 155.555 741.225 159.828C740.819 160.224 740.398 160.62 739.96 161.015C732.324 167.762 721.462 171.474 710.94 175.037C705.023 177.049 698.813 179.029 692.247 181.14C666.34 189.438 636.963 198.84 616.519 213.093C611.493 216.606 607.1 220.846 602.868 224.937C593.579 233.91 584.808 242.389 569.925 243.56C550.973 245.045 534.306 239.387 516.667 233.415C513.149 232.228 509.518 230.991 505.902 229.836C501.087 228.302 497.067 227.081 493.111 226.058C466.506 219.18 445.965 221.027 426.527 232.063C424.759 233.069 422.96 234.059 421.031 235.081C413.476 239.073 407.736 242.472 403.116 245.21C390.843 252.484 386.255 255.206 374.663 253.491C372.734 253.21 370.351 252.649 367.854 252.072C356.894 249.515 341.898 246.018 331.571 255.899C321.552 265.483 318.779 281.715 316.542 294.747C315.553 300.537 314.288 307.201 311.84 313.123C308.922 320.183 305.258 325.247 300.297 329.058C293.585 334.188 284.604 336.464 275.914 338.658L273.222 339.335C267.856 340.72 263.138 341.991 259.718 343.723C253.622 346.824 251.871 348.985 247.202 354.758L246.148 356.061C244.835 357.678 243.392 359.41 241.673 361.192L239.582 363.369C237.474 365.579 235.318 367.823 233.064 370.017H234.556C236.534 368.054 238.447 366.058 240.328 364.111L242.419 361.934C244.17 360.119 245.645 358.371 246.958 356.738L248.012 355.435C252.714 349.628 254.286 347.665 260.188 344.679C263.511 342.997 268.18 341.727 273.482 340.357L276.157 339.681C284.944 337.454 294.023 335.161 300.913 329.899C306.036 325.99 309.814 320.777 312.797 313.535C315.277 307.514 316.558 300.768 317.563 294.928C319.768 282.045 322.524 266.011 332.284 256.658C342.222 247.156 356.911 250.587 367.643 253.095C370.172 253.689 372.572 254.25 374.55 254.53C386.498 256.295 391.524 253.326 403.667 246.134C408.271 243.412 413.994 240.014 421.533 236.038C423.479 235.015 425.278 234.026 427.062 233.019C446.257 222.132 466.571 220.318 492.9 227.114C496.84 228.137 500.844 229.357 505.643 230.875C509.258 232.03 512.89 233.267 516.392 234.455C534.144 240.476 550.892 246.15 570.055 244.649C585.294 243.445 594.211 234.851 603.63 225.745C607.846 221.67 612.191 217.464 617.151 214C637.466 199.83 666.761 190.444 692.604 182.18C699.186 180.068 705.395 178.089 711.313 176.076C721.429 172.628 732.892 168.735 740.673 161.84C741.127 161.444 741.565 161.032 741.987 160.62C745.926 156.776 748.682 152.52 751.049 148.198V145.988H751.001Z" fill="white"/>
<path opacity="0.7" d="M53.3167 342.699C68.1186 347.632 72.3987 346.213 77.3759 344.563C79.8888 343.722 82.499 342.864 86.7952 342.749C91.3996 342.617 96.7821 343.607 102.343 344.728C114.648 347.186 128.51 350.964 139.437 354.873C147.64 357.81 155.374 362.89 163.528 368.268C164.404 368.845 165.296 369.423 166.187 370.016H168.1C166.755 369.142 165.425 368.268 164.096 367.394C155.876 361.966 148.11 356.853 139.777 353.884C128.801 349.974 114.875 346.164 102.537 343.706C96.9118 342.567 91.4644 341.578 86.7628 341.71C82.3206 341.842 79.5159 342.765 77.0516 343.59C72.2528 345.174 68.1186 346.559 53.641 341.726C34.5428 335.359 18.5898 320.661 6.21979 298.045C4.30674 294.532 2.58822 291.002 1.01562 287.472V289.979C2.34504 292.866 3.77173 295.736 5.3119 298.573C17.8116 321.387 33.9592 336.233 53.3167 342.699Z" fill="white"/>
<path opacity="0.7" d="M751 125.055C749.444 126.688 747.969 128.403 746.591 130.218C744.937 132.395 743.413 134.589 741.938 136.717C738.079 142.309 734.415 147.588 728.481 152.372C728.06 152.702 727.638 153.032 727.201 153.361C719.71 158.904 709.562 162.154 699.737 165.304L699.267 165.453C695.278 166.723 691.161 168.026 686.929 169.346C660.73 177.528 631.045 186.815 609.645 200.787C604.895 203.888 600.631 207.583 596.529 211.146C587.272 219.18 578.533 226.768 564.542 228.12C545.995 229.935 529.685 224.953 512.403 219.691C508.074 218.371 503.6 217.002 499.109 215.765C495.186 214.693 490.565 213.456 485.944 212.515C459.356 207.088 438.685 210.536 418.906 223.732C417.139 224.904 415.323 226.058 413.508 227.147C387.13 242.966 381.634 246.266 365.162 239.469C364.368 239.139 363.493 238.76 362.568 238.381C351.917 233.844 334.083 226.24 321.584 236.962C311.483 245.622 308.565 261.046 306.928 276.42C306.182 283.365 305.42 289.583 303.572 295.472C301.205 303.011 297.881 308.438 293.147 312.579C287.1 317.841 278.751 320.546 270.661 323.152C269.169 323.631 267.677 324.109 266.235 324.604C261.371 326.254 256.394 328.134 253.054 330.823C249.114 333.99 247.785 336.728 245.953 340.522C245.061 342.37 244.04 344.481 242.532 347.005C241.251 349.133 239.954 350.981 238.544 352.663C233.534 358.651 227.098 365.448 219.381 370.033H221.375C228.557 365.415 234.572 359.014 239.322 353.34C240.765 351.608 242.111 349.727 243.408 347.55C244.948 344.976 245.969 342.865 246.877 340.984C248.644 337.322 249.925 334.683 253.686 331.648C256.896 329.058 261.76 327.21 266.543 325.61C267.986 325.115 269.461 324.654 270.952 324.175C279.123 321.536 287.586 318.814 293.796 313.403C298.692 309.131 302.096 303.555 304.528 295.819C306.409 289.847 307.187 283.563 307.933 276.552C309.554 261.392 312.407 246.216 322.232 237.787C334.245 227.477 351.722 234.917 362.147 239.37C363.071 239.766 363.946 240.129 364.757 240.476C381.699 247.47 387.276 244.138 414.01 228.087C415.842 226.999 417.674 225.827 419.441 224.64C438.977 211.608 459.405 208.193 485.718 213.571C490.306 214.511 494.91 215.732 498.817 216.804C503.292 218.041 507.766 219.41 512.079 220.73C529.442 226.025 545.849 231.04 564.607 229.209C578.906 227.823 587.774 220.12 597.161 211.987C601.247 208.441 605.478 204.779 610.164 201.711C631.45 187.821 661.07 178.55 687.188 170.385C691.42 169.065 695.554 167.779 699.526 166.492L699.996 166.344C709.886 163.176 720.132 159.894 727.752 154.252C728.206 153.922 728.644 153.576 729.065 153.229C735.128 148.347 738.825 143.019 742.732 137.361C744.191 135.249 745.715 133.055 747.353 130.894C748.487 129.41 749.687 127.991 750.952 126.605V125.055H751Z" fill="white"/>
<path opacity="0.7" d="M50.8524 332.901C66.4163 337.537 70.4532 334.304 74.717 330.905C77.0354 329.058 79.4186 327.128 83.9419 326.435C89.0163 325.643 95.0149 326.781 99.6679 327.87C110.157 330.295 122.576 334.897 136.583 341.545C143.992 345.075 150.931 350.255 158.292 355.748C165.085 360.829 172.024 366.008 179.595 370H181.897C173.677 365.942 166.187 360.35 158.892 354.89C151.499 349.364 144.527 344.152 137.021 340.572C122.949 333.891 110.465 329.256 99.8948 326.831C95.1608 325.726 89.0325 324.571 83.796 325.379C79.0295 326.122 76.5166 328.134 74.101 330.064C70.0479 333.297 66.2217 336.366 51.1605 331.879C28.2362 325.066 14.1639 305.766 6.41434 290.771C4.37158 286.812 2.60444 282.804 1.01562 278.779V281.6C2.36125 284.849 3.83658 288.066 5.49024 291.266C13.3208 306.442 27.5715 325.99 50.8524 332.901Z" fill="white"/>
<path opacity="0.7" d="M750.999 115.685C745.082 119.1 739.991 122.91 735.516 127.265C734.025 128.717 732.598 130.168 731.204 131.587C726.551 136.321 722.157 140.808 715.737 144.916C715.316 145.18 714.894 145.46 714.44 145.724C707.21 150.046 698.001 152.784 689.084 155.44L685.955 156.38C659.448 164.282 626.472 174.13 602.753 188.497C598.295 191.186 594.209 194.337 590.27 197.372C581.013 204.482 572.274 211.179 559.142 212.73C540.919 214.874 524.902 210.47 507.944 205.818C502.869 204.432 497.632 202.981 492.331 201.727C486.949 200.473 482.652 199.599 478.81 199.022C452.189 194.947 431.373 200.011 411.318 215.468C409.567 216.821 407.784 218.107 406.033 219.295C379.72 237.061 372.068 236.632 355.677 225.547C336.449 212.532 322.053 210.107 311.644 218.107C300.069 227.015 297.945 245.226 297.361 258.159L297.345 258.39C297.053 264.906 296.745 271.653 295.335 277.871C293.519 285.872 290.568 291.678 286.029 296.149C280.5 301.592 272.621 304.644 265.001 307.613C263.056 308.372 261.127 309.114 259.278 309.89C254.706 311.803 249.6 314.261 246.438 317.94C243.293 321.618 242.531 325.016 241.656 328.975C241.072 331.582 240.423 334.534 238.948 337.949C237.975 340.209 236.824 342.222 235.43 344.119C225.281 358.074 207.48 370.726 187.928 364.342C174.763 360.037 163.998 350.948 153.59 342.139C147.056 336.613 140.879 331.4 134.216 327.359C123.873 321.09 110.319 313.469 97.2034 310.038C90.3131 308.224 85.0765 307.943 80.764 309.164C75.8355 310.55 73.5982 313.667 71.4419 316.67C67.8914 321.618 64.5355 326.303 48.6149 322.146C25.3178 316.059 12.2668 295.39 6.54385 283.596C4.32276 279.026 2.49076 274.407 0.966797 269.756V272.89C2.31242 276.634 3.82017 280.362 5.61974 284.057C11.4076 296 24.6693 316.966 48.3555 323.152C64.9408 327.491 68.6696 322.295 72.2688 317.28C74.3277 314.41 76.4516 311.457 81.0234 310.17C85.1738 309.016 90.2158 309.279 96.9278 311.061C109.914 314.459 123.386 322.047 133.665 328.266C140.247 332.258 146.392 337.454 152.909 342.947C163.398 351.806 174.244 360.977 187.587 365.332C207.658 371.897 225.881 358.998 236.241 344.745C237.667 342.782 238.867 340.704 239.872 338.378C241.396 334.881 242.061 331.862 242.644 329.223C243.488 325.412 244.217 322.113 247.184 318.649C250.199 315.135 255.16 312.744 259.635 310.88C261.483 310.104 263.396 309.362 265.342 308.603C273.059 305.601 281.035 302.5 286.71 296.908C291.395 292.289 294.459 286.317 296.307 278.119C297.734 271.801 298.042 265.005 298.35 258.439L298.366 258.209C298.95 245.49 301.009 227.576 312.244 218.949C322.247 211.245 336.255 213.703 355.077 226.421C372.619 238.298 381.293 237.242 406.584 220.169C408.367 218.965 410.167 217.678 411.934 216.309C431.745 201.034 452.319 196.036 478.648 200.061C482.458 200.638 486.738 201.496 492.088 202.75C497.373 204.003 502.61 205.439 507.668 206.824C524.723 211.509 540.822 215.93 559.256 213.769C572.679 212.185 581.515 205.389 590.886 198.197C594.809 195.178 598.879 192.06 603.288 189.388C626.894 175.086 659.805 165.271 686.247 157.37L689.376 156.43C698.341 153.757 707.615 151.003 714.959 146.615C715.413 146.351 715.851 146.07 716.272 145.79C722.806 141.616 727.232 137.097 731.934 132.313C733.328 130.894 734.738 129.459 736.23 128.007C740.51 123.834 745.39 120.172 750.999 116.873V115.685Z" fill="white"/>
<path opacity="0.7" d="M750.999 110.621C748.632 111.627 746.313 112.6 744.06 113.59C736.456 116.971 730.052 120.469 724.459 124.296L722.319 125.764C716.045 130.086 710.614 133.814 703.01 137.443C702.589 137.641 702.151 137.855 701.713 138.053C694.985 141.105 686.96 143.282 679.21 145.377L675.903 146.284C653.643 152.388 621.138 162.137 595.879 176.158C591.793 178.418 587.951 180.992 584.222 183.482C574.9 189.685 566.097 195.557 553.759 197.289C535.796 199.797 520.021 195.887 503.322 191.763C497.567 190.345 491.617 188.86 485.57 187.672C480.285 186.633 475.745 185.924 471.676 185.495C444.618 182.658 424.303 189.124 403.73 207.154C402.011 208.655 400.26 210.074 398.542 211.377C373.769 230.05 363.28 227.658 346.144 211.558C339.95 205.735 318.437 187.623 301.689 199.186C292.205 205.735 287.52 219.41 287.779 239.832L287.795 241.234C287.876 247.552 287.974 254.101 287.098 260.221C285.85 268.683 283.24 274.869 278.895 279.669C273.804 285.294 266.281 288.709 259.018 292.008C256.781 293.014 254.463 294.07 252.306 295.159C245.838 298.392 242.109 301.361 239.839 305.04C237.164 309.362 237.002 313.584 236.84 318.038C236.71 321.42 236.58 324.917 235.381 328.876C234.667 331.251 233.63 333.511 232.333 335.573C223.221 350.073 203.086 361.67 183.728 354.593C169.786 349.496 158.81 339.037 148.207 328.926C142.549 323.531 137.199 318.418 131.427 314.096C121.148 306.376 107.676 297.039 94.544 293.196C87.7186 291.183 82.2226 291.084 77.7966 292.882C72.787 294.911 70.8577 299.101 68.9933 303.143C65.9129 309.823 63.0271 316.158 46.1339 312.347C29.9701 308.718 15.2493 295.258 6.75402 276.37C4.24111 270.778 2.3929 265.136 0.982422 259.495V263.52C2.2632 267.974 3.8358 272.411 5.81371 276.815C14.4387 296.016 29.4351 309.675 45.9231 313.387C63.627 317.362 66.837 310.368 69.9498 303.605C71.798 299.563 73.549 295.753 78.1857 293.872C82.4009 292.156 87.6699 292.272 94.2683 294.218C107.238 298.012 120.613 307.3 130.827 314.954C136.534 319.243 141.868 324.323 147.51 329.701C158.194 339.879 169.251 350.42 183.388 355.599C203.459 362.94 223.643 351.376 233.208 336.151C234.554 334.006 235.624 331.664 236.37 329.189C237.602 325.099 237.732 321.535 237.877 318.088C238.056 313.584 238.202 309.708 240.731 305.617C242.887 302.103 246.502 299.266 252.777 296.115C254.917 295.043 257.122 294.037 259.456 292.981C266.816 289.649 274.436 286.185 279.673 280.395C284.164 275.43 286.855 269.079 288.136 260.386C289.027 254.167 288.93 247.585 288.849 241.218L288.833 239.815C288.573 219.773 293.097 206.395 302.289 200.044C318.404 188.926 339.399 206.626 345.463 212.317C362.275 228.12 373.445 231.601 399.174 212.202C400.925 210.882 402.676 209.447 404.427 207.929C424.757 190.114 444.845 183.713 471.579 186.518C475.616 186.947 480.123 187.639 485.375 188.679C491.406 189.866 497.34 191.334 503.096 192.77C519.892 196.926 535.763 200.852 553.921 198.329C566.518 196.564 575.808 190.361 584.806 184.373C588.518 181.899 592.345 179.342 596.398 177.099C621.559 163.143 653.984 153.411 676.195 147.324L679.486 146.433C687.268 144.321 695.326 142.128 702.135 139.059C702.589 138.861 703.026 138.647 703.464 138.449C711.149 134.787 716.872 130.861 722.919 126.687L725.059 125.219C730.604 121.425 736.959 117.961 744.498 114.596C746.621 113.656 748.794 112.732 751.015 111.792V110.621H750.999Z" fill="white"/>
<path opacity="0.7" d="M751 106.415C745.326 109.087 739.279 111.429 733.264 113.64C726.39 116.164 719.694 118.654 713.42 121.36C705.427 124.791 698.504 127.381 690.285 130.003L688.972 130.416C683.459 132.115 677.38 133.55 671.495 134.952C669.063 135.53 666.631 136.107 664.232 136.701C637.4 143.349 610.682 152.982 589.022 163.836C585.456 165.618 581.97 167.581 578.614 169.478C569.097 174.855 560.116 179.92 548.378 181.833C530.625 184.736 515.029 181.256 498.525 177.561C492.154 176.142 485.555 174.658 478.778 173.569C473.493 172.728 468.824 172.183 464.528 171.936C437.34 170.319 416.896 178.353 396.144 198.807C394.458 200.473 392.756 202.024 391.053 203.443C366.475 224.013 352.954 217.233 336.596 197.554C325.182 183.829 306.603 171.061 291.753 180.266C278.783 188.3 277.242 207.138 278.215 221.506L278.394 224.128C278.831 230.248 279.285 236.566 278.864 242.571C278.231 251.462 275.978 258.011 271.779 263.19C267.045 269.03 259.814 272.774 252.827 276.387C250.33 277.674 247.736 279.01 245.353 280.412C241.056 282.936 235.787 286.532 233.258 292.107C230.956 297.172 231.41 302.104 231.913 307.316C232.286 311.275 232.675 315.383 231.832 319.771C231.345 322.328 230.47 324.753 229.254 326.996C221.115 342.04 199.196 352.795 179.547 344.811C164.729 338.807 153.542 326.781 142.728 315.152C138.173 310.269 133.471 305.205 128.656 300.817C114.47 287.851 102.1 279.62 91.9027 276.321C84.9962 274.094 79.4192 274.176 74.8473 276.585C69.7891 279.257 68.184 284.453 66.6276 289.501C64.0337 297.914 61.6018 305.881 43.6547 302.533C25.3185 299.085 12.6729 283.002 6.94994 269.096C3.70746 261.194 1.87547 253.243 1 245.309V252.303C2.0538 258.044 3.65883 263.784 5.99341 269.508C11.8136 283.678 24.7187 300.058 43.4602 303.539C62.2989 307.053 65.0064 298.277 67.6166 289.781C69.173 284.734 70.6321 279.95 75.3175 277.492C79.63 275.216 84.9638 275.15 91.5947 277.294C101.663 280.544 113.903 288.709 127.975 301.559C132.758 305.931 137.232 310.748 141.983 315.845C152.877 327.557 164.145 339.665 179.174 345.768C199.326 353.934 221.796 342.914 230.162 327.474C231.426 325.132 232.334 322.608 232.853 319.952C233.728 315.416 233.339 311.242 232.95 307.201C232.48 302.137 232.026 297.337 234.215 292.536C236.095 288.396 239.695 284.932 245.888 281.303C248.255 279.917 250.833 278.581 253.313 277.294C260.398 273.632 267.726 269.855 272.606 263.834C276.934 258.489 279.269 251.742 279.917 242.62C280.339 236.533 279.885 230.166 279.447 224.013L279.269 221.407C278.312 207.319 279.788 188.893 292.304 181.124C306.603 172.249 324.68 184.786 335.834 198.197C352.614 218.404 366.491 225.333 391.734 204.218C393.453 202.783 395.171 201.199 396.89 199.533C417.415 179.309 437.631 171.358 464.495 172.958C468.775 173.206 473.396 173.75 478.649 174.592C485.393 175.68 491.959 177.148 498.33 178.567C514.932 182.279 530.625 185.776 548.556 182.856C560.456 180.909 569.94 175.565 579.133 170.385C582.473 168.505 585.942 166.542 589.492 164.777C611.104 153.955 637.724 144.355 664.491 137.724C666.89 137.13 669.322 136.552 671.738 135.975C677.639 134.573 683.751 133.138 689.28 131.422L690.609 131.01C698.877 128.37 705.816 125.781 713.841 122.333C720.083 119.644 726.763 117.17 733.637 114.646C739.522 112.485 745.439 110.192 751.016 107.602V106.415H751Z" fill="white"/>
<path opacity="0.7" d="M19.8539 150.045C19.481 154.846 18.4272 159.531 17.3085 164.298C15.7521 170.83 13.7418 177.494 11.618 184.555C4.41968 208.374 -3.71893 235.378 6.17062 262.25C12.4286 279.224 26.0956 291.596 41.011 293.757C61.017 296.66 63.1895 286.152 65.2809 275.974C66.5293 269.937 67.6965 264.229 72.4305 261.177C76.8403 258.324 82.2228 258.093 88.9023 260.452C103.348 265.532 119.041 281.583 125.121 288.247C128.931 292.42 132.676 296.99 136.307 301.394C147.413 314.888 158.907 328.86 174.941 336.019C193.764 344.415 219.104 336.085 227.097 318.88C228.28 316.339 229.01 313.617 229.301 310.78C229.804 305.864 228.88 301.147 228.004 296.577C226.87 290.688 225.8 285.129 227.68 279.537C229.301 274.737 232.787 270.745 238.98 266.572C241.493 264.889 244.265 263.289 246.94 261.738C253.831 257.746 260.948 253.622 265.52 247.354C269.703 241.597 271.664 234.471 271.697 224.936C271.697 218.998 270.935 212.878 270.173 206.939C270.011 205.636 269.849 204.35 269.686 203.063C268.519 193.561 267.417 170.55 282.316 162.269C297.799 153.625 315.632 168.653 326.203 184.159C336.838 199.747 346.403 207.533 356.341 208.688C365.031 209.694 374.175 205.636 384.275 196.3C385.913 194.798 387.599 193.066 389.317 191.186C409.907 168.504 430.27 159.019 457.377 159.448C461.884 159.514 466.634 159.877 471.887 160.537C479.28 161.477 486.446 162.929 493.385 164.331C509.84 167.663 525.404 170.797 543.173 167.432C554.894 165.205 565.059 160.52 574.884 155.967C577.43 154.796 579.975 153.609 582.553 152.47C599.851 144.833 625.937 133.979 652.768 128.139C660.583 126.44 668.721 125.071 676.406 123.817L677.735 123.603C680.492 123.157 683.167 122.745 685.793 122.333C691.532 121.458 696.947 120.617 702.605 119.462C708.652 118.225 715.689 116.724 722.757 114.712C731.836 112.105 742.569 107.866 751.015 101.103V99.7334C742.617 106.695 731.69 111.049 722.482 113.689C715.462 115.701 708.425 117.186 702.411 118.423C696.769 119.578 691.37 120.403 685.647 121.277C683.021 121.673 680.346 122.085 677.573 122.547L676.244 122.761C668.559 124.015 660.404 125.384 652.558 127.1C625.645 132.972 599.478 143.843 582.147 151.497C579.553 152.635 577.008 153.823 574.463 154.994C564.249 159.712 554.602 164.182 542.994 166.376C525.42 169.708 509.954 166.591 493.595 163.275C486.64 161.873 479.458 160.421 472.017 159.481C466.715 158.805 461.933 158.458 457.393 158.376C429.962 157.93 409.372 167.531 388.572 190.46C386.869 192.324 385.199 194.023 383.578 195.508C373.705 204.63 364.837 208.605 356.455 207.616C346.841 206.51 337.503 198.856 327.046 183.532C316.232 167.679 297.912 152.338 281.813 161.329C266.363 169.906 267.465 193.446 268.665 203.162C268.827 204.449 268.989 205.735 269.151 207.038C269.897 212.944 270.675 219.031 270.659 224.903C270.643 234.207 268.746 241.135 264.693 246.694C260.235 252.781 253.215 256.856 246.422 260.782C243.73 262.349 240.942 263.949 238.413 265.648C234.1 268.551 228.88 272.708 226.707 279.158C224.73 285.014 225.832 290.721 226.999 296.742C227.875 301.246 228.766 305.881 228.28 310.648C228.004 313.37 227.291 315.976 226.172 318.401C218.407 335.144 193.731 343.211 175.379 335.029C159.556 327.969 148.142 314.096 137.118 300.701C133.486 296.28 129.709 291.711 125.899 287.505C118.279 279.158 103.396 264.411 89.259 259.429C82.3687 257.004 76.5161 257.284 71.8955 260.27C66.8049 263.569 65.5241 269.755 64.2919 275.743C62.2005 285.888 60.2226 295.456 41.1731 292.701C26.6306 290.589 13.2716 278.482 7.15957 261.854C-2.61649 235.329 5.4897 208.506 12.6231 184.835C14.7632 177.775 16.7735 171.094 18.3299 164.529C19.4161 159.91 20.5186 154.994 20.9077 150.111" fill="white"/>
<path opacity="0.7" d="M26.9872 162.879C24.912 167.927 22.6585 172.925 20.2591 178.22C9.16984 202.766 -2.27609 228.136 6.33267 254.975C11.4396 270.893 24.3932 282.539 38.5466 283.958C59.7038 286.07 61.3412 273.879 62.93 262.085C63.8703 255.107 64.762 248.509 69.5285 244.863C84.3303 233.58 109.638 258.439 122.251 274.918C125.04 278.564 127.812 282.391 130.503 286.103C141.819 301.724 153.508 317.873 170.71 326.27C183.161 332.34 200.2 331.367 212.165 323.911C220.709 318.583 225.54 310.665 225.751 301.609C225.88 296.346 224.454 291.117 223.092 286.053C221.276 279.306 219.541 272.939 221.13 266.506C223.497 256.954 231.782 251.643 240.569 246.018C247.248 241.745 254.155 237.325 258.435 230.809C266.282 218.882 263.558 203.822 260.932 189.272C260.656 187.722 260.38 186.188 260.105 184.67C258.792 177.066 255.809 151.613 272.313 143.365C288.817 135.133 306.472 152.602 316.572 170.071C327.921 189.668 339.14 199.681 350.91 200.671C360.929 201.512 371.305 195.508 381.762 182.823C406.097 153.295 429.459 143.101 465.142 146.466C473.135 147.225 480.852 148.627 488.31 149.996C504.538 152.965 519.875 155.786 537.304 152.074C537.466 152.041 537.644 152.008 537.806 151.959C555.283 148.132 571.641 141.748 587.465 135.579C611.508 126.209 636.361 116.51 664.863 116.147C669.483 116.081 674.201 116.213 678.773 116.345C689.684 116.642 700.984 116.938 711.862 114.745C725.853 111.907 742.682 103.016 747.643 86.5038C751.08 75.0557 747.935 62.9478 744.887 51.2193C741.758 39.1279 738.499 26.6406 742.731 15.1926C744.53 10.3428 747.529 6.1694 750.983 2.32589V0.758789C747.124 4.93222 743.752 9.45206 741.774 14.8297C737.429 26.5912 740.72 39.2599 743.898 51.4998C746.897 63.0798 750.01 75.0392 746.654 86.2069C741.904 102.043 725.886 110.703 712.251 113.59C712.057 113.639 711.862 113.672 711.668 113.705C700.886 115.883 689.667 115.569 678.805 115.289C674.233 115.173 669.499 115.041 664.863 115.091C636.183 115.47 611.248 125.203 587.124 134.605C571.333 140.758 555.024 147.126 537.612 150.953C537.45 150.986 537.271 151.019 537.109 151.068C519.875 154.73 504.636 151.942 488.505 148.973C481.031 147.604 473.297 146.185 465.256 145.427C429.67 142.078 405.254 152.718 381 182.163C370.77 194.584 360.686 200.457 351.024 199.648C339.626 198.691 328.651 188.844 317.497 169.56C307.169 151.712 289.028 133.896 271.891 142.441C254.738 151.002 257.786 177.082 259.116 184.868C259.375 186.386 259.651 187.936 259.943 189.487C262.537 203.838 265.212 218.668 257.608 230.248C253.441 236.566 246.632 240.937 240.05 245.144C231.085 250.884 222.622 256.295 220.158 266.258C218.504 272.955 220.336 279.752 222.119 286.333C223.465 291.315 224.859 296.478 224.746 301.576C224.535 310.252 219.898 317.873 211.662 323.004C199.973 330.278 183.339 331.235 171.196 325.313C154.238 317.032 142.614 300.998 131.379 285.476C128.687 281.764 125.915 277.921 123.11 274.275C119.916 270.118 93.9929 237.193 74.9758 241.234C72.8682 241.679 70.8417 242.587 68.9448 244.038C63.8217 247.948 62.8652 255.074 61.9411 261.953C60.3523 273.78 58.8607 284.948 38.6763 282.935C24.9283 281.566 12.3312 270.201 7.33784 254.662C-1.15744 228.219 10.2236 203.03 21.2156 178.666C23.5016 173.601 25.8686 168.356 27.96 163.292" fill="white"/>
</svg>
