<svg width="522" height="252" viewBox="0 0 522 252" fill="none" xmlns="http://www.w3.org/2000/svg">
<g opacity="0.5">
<path opacity="0.7" d="M522.023 244.018C517.25 245.093 512.273 247.276 506.902 251.207H508.11C513.052 247.702 517.611 245.72 522.011 244.701V244.018H522.023Z" fill="white"/>
<path opacity="0.7" d="M522.022 239.818C513.503 240.053 504.566 242.405 493.802 250.961C493.711 251.039 493.621 251.118 493.52 251.196H494.659C505.142 242.976 513.65 240.714 522.011 240.512V239.818H522.022Z" fill="white"/>
<path opacity="0.7" d="M522.023 236.167C510.818 236.077 499.884 236.682 485.012 247.277C483.229 248.542 481.525 249.864 479.844 251.196H480.995C482.439 250.054 483.917 248.934 485.429 247.848C500.121 237.376 510.942 236.783 522.023 236.873V236.167Z" fill="white"/>
<path opacity="0.7" d="M522.023 231.004C519.269 231.34 516.618 231.587 514 231.81C502.614 232.807 491.85 233.759 476.21 243.581C472.261 246.067 468.571 248.665 464.994 251.196H466.235C469.553 248.856 472.972 246.47 476.605 244.186C492.098 234.453 502.772 233.513 514.079 232.516C516.674 232.292 519.303 232.057 522.034 231.721V231.004H522.023Z" fill="white"/>
<path opacity="0.7" d="M522.023 222.885C515.005 225.091 509.081 226.3 503.36 227.454C492.719 229.604 482.643 231.631 467.421 239.896C464.498 241.487 461.7 243.077 458.992 244.622C454.885 246.963 450.947 249.214 446.975 251.207H448.543C452.109 249.371 455.663 247.355 459.353 245.249C462.061 243.704 464.859 242.114 467.771 240.535C482.891 232.326 492.9 230.31 503.506 228.171C509.193 227.017 515.072 225.83 522.034 223.646V222.885H522.023Z" fill="white"/>
<path opacity="0.7" d="M522.023 211.215C519.586 212.806 517.035 214.194 514.44 215.281L514.056 215.449C513.21 215.807 512.375 216.154 511.563 216.468C504.014 219.402 497.864 221.44 491.918 223.4C482.191 226.625 473.006 229.66 458.63 236.212L457.649 236.66C441.242 244.129 428.288 250.031 409.659 249.091C403.283 248.755 396.694 247.243 389.732 245.653C385.421 244.667 380.964 243.637 376.552 242.92C367.119 241.408 358.205 241.811 349.313 244.163C342.96 245.832 338.165 248.307 334.125 251.219H335.378C339.18 248.598 343.671 246.392 349.494 244.857C358.295 242.539 367.108 242.147 376.439 243.637C380.817 244.353 385.263 245.373 389.562 246.358C396.57 247.96 403.182 249.483 409.614 249.819C428.424 250.771 441.457 244.835 457.942 237.32L458.924 236.872C473.266 230.343 482.439 227.308 492.143 224.094C498.101 222.123 504.251 220.085 511.822 217.151C512.646 216.826 513.481 216.479 514.339 216.121L514.722 215.953C517.216 214.911 519.665 213.59 522.023 212.078V211.215Z" fill="white"/>
<path opacity="0.7" d="M522.023 194.741C516.934 200.431 509.814 205.672 502.446 209.166L501.521 209.603C500.911 209.894 500.313 210.185 499.715 210.454C494.344 212.906 489.819 215.09 485.453 217.196C474.97 222.258 465.909 226.625 449.83 232.505C433.547 238.463 419.736 241.655 401.185 239.135C395.746 238.384 390.161 236.906 384.259 235.349C379.419 234.073 374.42 232.751 369.444 231.844C360.236 230.198 351.627 230.444 343.107 232.594C329.826 235.954 324.173 242.954 318.181 250.356C317.956 250.636 317.73 250.905 317.516 251.185H318.441C318.542 251.062 318.644 250.927 318.746 250.804C324.658 243.491 330.232 236.593 343.288 233.289C351.706 231.161 360.214 230.915 369.308 232.538C374.251 233.434 379.238 234.756 384.056 236.033C389.992 237.6 395.6 239.079 401.072 239.84C419.77 242.382 433.671 239.168 450.055 233.166C466.157 227.264 475.229 222.896 485.735 217.823C490.101 215.717 494.615 213.545 499.986 211.081C500.584 210.812 501.193 210.521 501.803 210.23L502.717 209.793C509.916 206.377 516.867 201.304 521.978 195.772V194.741H522.023Z" fill="white"/>
<path opacity="0.7" d="M522.023 176.778C519.946 178.704 518.197 180.63 516.392 182.646C514.474 184.774 512.499 186.98 509.971 189.332C504.646 194.293 497.706 199.176 490.451 203.074C489.999 203.32 489.559 203.555 489.119 203.79C488.702 204.014 488.295 204.238 487.878 204.462C482.304 207.452 477.734 210.443 473.31 213.343C464.362 219.2 455.922 224.733 441.05 228.82C424.903 233.266 410.911 233.378 392.733 229.212C388.422 228.216 384.044 226.872 379.395 225.438C373.844 223.725 368.1 221.966 362.357 220.802C353.386 219.01 345.07 219.111 336.934 221.07C323.439 224.352 318.621 231.564 313.52 239.213C310.824 243.256 308.025 247.422 303.816 251.196H304.888C308.838 247.512 311.523 243.502 314.118 239.616C319.14 232.09 323.879 224.99 337.104 221.776C345.126 219.827 353.341 219.738 362.21 221.507C367.92 222.661 373.641 224.419 379.181 226.121C383.841 227.555 388.242 228.91 392.575 229.907C410.877 234.095 424.971 233.983 441.242 229.503C456.215 225.382 464.712 219.816 473.705 213.937C478.117 211.047 482.676 208.057 488.216 205.089C488.623 204.865 489.04 204.641 489.458 204.417C489.898 204.182 490.338 203.936 490.778 203.701C498.09 199.781 505.074 194.865 510.445 189.859C512.996 187.484 514.981 185.267 516.911 183.128C518.57 181.28 520.161 179.511 522.011 177.752V176.778H522.023Z" fill="white"/>
<path opacity="0.7" d="M4.64978 251.196C3.02492 247.803 1.53546 244.32 0.0234375 240.691V242.539C1.27594 245.507 2.51715 248.374 3.85992 251.185H4.64978V251.196Z" fill="white"/>
<path opacity="0.7" d="M522.024 167.203C521.132 167.64 520.241 168.088 519.383 168.558C517.375 169.655 515.423 170.843 513.245 172.276C509.623 174.661 506.61 177.08 503.428 179.634C501.645 181.067 499.794 182.557 497.752 184.102C492.641 187.977 486.322 192.188 478.457 196.97C477.814 197.362 477.193 197.754 476.572 198.146L476.053 198.471C470.863 201.73 466.643 205.347 462.569 208.852C454.377 215.885 446.636 222.538 432.283 225.136C415.944 228.104 401.806 225.102 384.293 219.29C381.439 218.338 378.573 217.296 375.537 216.188C368.959 213.791 362.166 211.305 355.283 209.759C346.549 207.811 338.504 207.755 330.774 209.547C317.087 212.727 313.115 220.163 308.918 228.025C306.469 232.606 303.941 237.332 299.36 241.531C298.333 242.472 297.216 243.312 296.031 244.029C291.811 246.604 287.106 248.094 282.559 249.527C280.832 250.076 279.128 250.614 277.492 251.207H279.681C280.697 250.871 281.724 250.547 282.773 250.211C287.366 248.766 292.116 247.265 296.404 244.645C297.623 243.905 298.773 243.032 299.834 242.069C304.517 237.791 307.067 233.009 309.538 228.372C313.657 220.656 317.561 213.366 330.921 210.252C338.594 208.472 346.481 208.539 355.114 210.465C361.951 211.999 368.733 214.474 375.278 216.871C378.313 217.98 381.19 219.032 384.045 219.984C401.67 225.83 415.899 228.854 432.396 225.853C446.964 223.21 454.761 216.501 463.021 209.401C467.071 205.918 471.269 202.312 476.414 199.087L476.933 198.762C477.543 198.37 478.175 197.978 478.807 197.597C486.694 192.804 493.024 188.582 498.17 184.685C500.223 183.128 502.074 181.639 503.857 180.205C507.027 177.652 510.018 175.244 513.617 172.892C515.784 171.47 517.713 170.294 519.71 169.208C520.455 168.804 521.234 168.412 522.001 168.032V167.203H522.024Z" fill="white"/>
<path opacity="0.7" d="M10.7543 251.196C6.98554 245.63 3.80351 239.851 0.598911 233.793C0.407087 233.434 0.215262 233.054 0.0234375 232.695V234.229C3.13777 240.131 6.24081 245.765 9.88548 251.196H10.7543Z" fill="white"/>
<path opacity="0.7" d="M522.023 161.122C517.859 162.656 513.583 164.246 509.521 166.038C507.501 166.923 505.391 167.92 503.055 169.062C496.871 172.108 491.466 175.311 485.542 178.872C479.066 182.781 472.363 186.813 466.462 190.878C465.694 191.404 464.949 191.953 464.216 192.491C459.466 195.985 455.663 200.184 451.984 204.238C444.526 212.481 437.462 220.264 423.504 221.463C406.296 222.941 391.503 216.356 375.841 209.379L373.517 208.337C365.359 204.675 356.93 200.901 348.196 198.717C339.677 196.601 331.981 196.377 324.59 198.023C310.723 201.08 307.619 208.718 304.325 216.804C302.406 221.507 300.432 226.368 296.234 230.691C295.32 231.631 294.282 232.494 293.154 233.255C289.577 235.663 285.368 237.153 281.294 238.597C275.224 240.747 269.491 242.774 265.948 247.568C265.068 248.744 264.245 249.964 263.443 251.196H264.301C265.023 250.11 265.757 249.035 266.535 247.982C269.943 243.357 275.573 241.363 281.543 239.258C285.661 237.802 289.915 236.29 293.571 233.838C294.745 233.054 295.817 232.158 296.764 231.172C301.052 226.749 303.061 221.821 305.002 217.05C308.217 209.144 311.264 201.674 324.76 198.706C332.026 197.093 339.62 197.306 348.027 199.4C356.704 201.562 365.099 205.336 373.235 208.976L375.559 210.017C391.311 217.039 406.183 223.669 423.583 222.168C437.835 220.947 444.966 213.063 452.526 204.72C456.182 200.688 459.962 196.511 464.656 193.073C465.378 192.535 466.123 192.009 466.89 191.483C472.769 187.44 479.46 183.408 485.937 179.511C491.85 175.949 497.244 172.758 503.393 169.723C505.718 168.58 507.817 167.595 509.836 166.71C513.797 164.963 517.972 163.406 522.046 161.906V161.122H522.023Z" fill="white"/>
<path opacity="0.7" d="M16.43 251.196H17.4005C11.7473 244.981 7.42559 238.787 3.78093 233.087C2.49458 231.071 1.24209 229.044 0.0234375 226.995V228.383C1.05026 230.086 2.09965 231.788 3.17161 233.468C6.74857 239.067 10.9574 245.115 16.43 251.196Z" fill="white"/>
<path opacity="0.7" d="M522.023 156.104C518.152 157.426 514.113 158.759 509.971 160.114C489.582 166.788 466.484 174.348 452.379 186.499C448.08 190.206 444.706 194.943 441.434 199.535C434.697 208.998 428.333 217.935 414.725 217.767C398.871 217.576 384.529 209.311 370.65 201.315C369.556 200.688 368.473 200.061 367.378 199.434C352.698 191.034 335.434 182.937 318.542 186.443C318.497 186.454 318.451 186.465 318.406 186.476C304.392 189.433 302.135 197.261 299.754 205.537C298.366 210.375 296.922 215.37 293.108 219.839C289.779 223.736 284.713 225.729 279.816 227.667C273.982 229.963 267.956 232.348 264.684 237.936C262.315 241.968 260.385 246.358 258.523 250.614C258.433 250.804 258.354 251.006 258.264 251.196H259.042C259.087 251.095 259.133 250.995 259.178 250.894C261.039 246.661 262.958 242.282 265.305 238.284C268.464 232.908 274.366 230.579 280.087 228.328C285.063 226.368 290.219 224.329 293.661 220.298C297.576 215.717 299.032 210.644 300.443 205.728C302.869 197.306 304.956 190.038 318.553 187.171C318.598 187.16 318.643 187.148 318.688 187.137C335.343 183.688 352.461 191.729 367.017 200.05C368.1 200.666 369.195 201.304 370.289 201.931C384.247 209.972 398.668 218.282 414.714 218.472C428.694 218.629 435.171 209.558 442.009 199.938C445.248 195.38 448.61 190.665 452.842 187.025C466.833 174.964 489.875 167.427 510.197 160.774C514.259 159.442 518.22 158.143 522.023 156.844V156.104Z" fill="white"/>
<path opacity="0.7" d="M23.7081 251.196H24.7011C14.4103 242.494 6.50034 232.751 0.0234375 222.448V223.568C6.3198 233.401 13.9702 242.786 23.7081 251.196Z" fill="white"/>
<path opacity="0.7" d="M522.023 146.63C516.37 148.691 510.232 150.695 503.8 152.789C484.008 159.24 461.587 166.542 447.573 178.133C443.432 181.571 440.114 185.928 436.91 190.15C430.23 198.93 423.922 207.217 410.968 207.284C395.95 207.363 382.319 200.408 370.279 194.26L367.571 192.871C365.833 191.975 364.107 191.09 362.392 190.239C349.043 183.576 333.245 177.159 317.324 180.149C315.914 180.418 314.526 180.731 313.183 181.09C299.597 184.718 296.607 191.818 293.707 198.683C292.026 202.682 290.288 206.803 286.463 210.263C283.337 213.085 278.891 214.373 274.175 215.74C267.957 217.543 261.526 219.402 257.746 225.069C254.485 229.929 252.194 235.596 249.982 241.072C248.809 243.984 247.59 246.996 246.259 249.785C246.033 250.267 245.796 250.715 245.57 251.174H246.371C246.552 250.815 246.733 250.468 246.913 250.087C248.256 247.276 249.475 244.253 250.648 241.33C252.848 235.887 255.116 230.254 258.344 225.449C261.977 220.007 268.285 218.181 274.378 216.412C279.162 215.023 283.687 213.713 286.948 210.778C290.886 207.217 292.658 203.017 294.373 198.941C297.329 191.919 300.127 185.289 313.375 181.762C314.695 181.403 316.071 181.101 317.471 180.832C333.178 177.887 348.84 184.248 362.087 190.855C363.802 191.706 365.517 192.591 367.255 193.487L369.963 194.876C382.07 201.058 395.78 208.057 410.98 207.979C424.294 207.9 430.704 199.479 437.496 190.553C440.678 186.364 443.973 182.042 448.047 178.648C461.948 167.147 484.313 159.856 504.037 153.439C510.379 151.378 516.438 149.396 522.035 147.358V146.63H522.023Z" fill="white"/>
<path opacity="0.7" d="M29.7901 251.196H31.0313C20.3794 243.782 11.1718 234.14 3.12648 221.978C2.04324 220.354 1.01641 218.708 0.0234375 217.05V218.428C0.835871 219.749 1.65959 221.059 2.52844 222.37C10.4158 234.297 19.4203 243.816 29.7901 251.196Z" fill="white"/>
<path opacity="0.7" d="M522.022 137.021C520.826 137.492 519.664 137.94 518.536 138.376C512.239 140.762 505.209 143.035 497.773 145.432C478.534 151.647 456.723 158.692 442.787 169.779C438.793 172.959 435.532 176.946 432.372 180.81C425.76 188.895 419.52 196.533 407.232 196.813C392.8 197.138 379.564 191.102 366.768 185.256L363.947 183.968C361.702 182.949 359.592 181.986 357.437 181.056C344.11 175.311 328.268 170.036 312.042 174.505C310.643 174.885 309.277 175.3 307.98 175.725C295.071 179.914 291.268 186.085 287.917 191.527C285.807 194.943 283.821 198.18 279.849 200.722C276.994 202.547 273.045 203.253 268.859 204.003C262.472 205.157 255.228 206.456 250.838 212.246C246.731 217.666 244.305 224.453 241.969 231.004C241.18 233.233 240.424 235.327 239.611 237.388C237.749 242.091 235.82 245.63 233.563 248.508C232.796 249.471 232.006 250.367 231.193 251.207H232.175C232.841 250.491 233.495 249.751 234.127 248.945C236.429 246.011 238.381 242.416 240.277 237.645C241.101 235.585 241.845 233.468 242.646 231.239C244.971 224.733 247.374 218.013 251.414 212.671C255.634 207.105 262.427 205.885 268.994 204.697C273.248 203.936 277.265 203.208 280.244 201.315C284.363 198.695 286.394 195.391 288.538 191.897C291.991 186.297 295.556 180.507 308.205 176.397C309.492 175.983 310.846 175.569 312.234 175.188C328.257 170.775 343.93 176.005 357.143 181.706C359.287 182.624 361.397 183.587 363.631 184.617L366.452 185.905C379.327 191.785 392.642 197.855 407.232 197.519C419.87 197.239 426.2 189.467 432.914 181.246C436.051 177.416 439.289 173.452 443.227 170.327C457.061 159.33 478.805 152.297 497.988 146.104C505.435 143.696 512.465 141.422 518.784 139.037C519.833 138.634 520.916 138.22 522.022 137.783V137.021Z" fill="white"/>
<path opacity="0.7" d="M38.5915 251.196H40.2728C25.649 244.32 13.5189 233.154 3.26189 217.061C2.12223 215.292 1.05026 213.511 0.0234375 211.708V213.13C0.869723 214.575 1.73858 216.008 2.65256 217.442C12.6613 233.154 24.4529 244.219 38.5915 251.196Z" fill="white"/>
<path opacity="0.7" d="M39.8548 245.955C43.8606 247.556 46.8395 248.833 49.2317 249.852C50.3939 250.356 51.4433 250.793 52.425 251.196H54.3207C52.8764 250.625 51.353 249.975 49.5138 249.192C47.1216 248.172 44.1314 246.896 40.1144 245.283C25.5131 239.437 13.4959 228.596 3.37429 212.145C2.17821 210.207 1.06111 208.259 0.0117188 206.288V207.766C0.891856 209.356 1.79456 210.935 2.76497 212.514C12.9768 229.112 25.1069 240.042 39.8548 245.955Z" fill="white"/>
<path opacity="0.7" d="M522.022 127.076C518.163 129.025 514.056 130.526 510.4 131.869C504.634 133.975 498.315 136.002 491.612 138.152C472.971 144.132 451.848 150.897 437.991 161.413C434.155 164.324 430.95 167.942 427.859 171.447C421.303 178.861 415.108 185.86 403.474 186.331C389.55 186.891 377.307 181.885 364.353 176.588C363.191 176.106 362.018 175.636 360.855 175.165L360.223 174.908C357.538 173.821 355.01 172.802 352.46 171.873C339.946 167.27 323.438 162.768 306.749 168.871C305.418 169.353 304.098 169.857 302.766 170.361C291.065 174.874 286.461 179.902 282.76 183.957C280.041 186.936 277.682 189.511 273.237 191.18C270.765 192.11 267.437 192.311 263.905 192.524C256.931 192.949 249.033 193.42 243.91 199.423C238.911 205.28 236.53 213.164 234.217 220.79C233.788 222.213 233.36 223.613 232.931 224.968C231.848 228.361 230.29 232.74 227.808 236.536C225.122 240.647 221.986 243.659 218.205 245.765C212.665 248.844 205.748 249.74 199.147 250.39C196.315 250.67 193.765 250.759 191.508 250.849C190.729 250.871 189.996 250.905 189.308 250.939C188.416 250.983 187.604 250.995 186.825 251.017C185.494 251.051 184.286 251.084 183.102 251.219H197.917C198.346 251.185 198.763 251.151 199.215 251.107C205.895 250.446 212.891 249.539 218.555 246.392C222.437 244.23 225.653 241.139 228.406 236.928C230.934 233.054 232.513 228.619 233.608 225.181C234.037 223.814 234.465 222.414 234.894 220.992C237.174 213.433 239.543 205.616 244.44 199.87C249.36 194.103 257.101 193.633 263.939 193.218C267.527 193.005 270.901 192.793 273.474 191.83C278.077 190.105 280.492 187.473 283.279 184.416C287.116 180.216 291.46 175.468 303.015 171.01C304.335 170.495 305.666 170.002 306.986 169.521C323.45 163.507 339.8 167.964 352.201 172.522C354.728 173.452 357.267 174.471 359.941 175.557L360.573 175.815C361.747 176.285 362.909 176.767 364.071 177.237C376.529 182.333 389.415 187.607 403.497 187.036C415.446 186.555 421.731 179.443 428.389 171.906C431.458 168.435 434.64 164.84 438.42 161.973C452.175 151.524 473.242 144.771 491.826 138.824C498.529 136.674 504.859 134.647 510.637 132.53C514.213 131.22 518.208 129.753 522.011 127.871V127.076H522.022Z" fill="white"/>
<path opacity="0.7" d="M522.022 115.631C516.673 120.312 509.057 122.977 502.264 125.352C497.22 127.11 491.793 128.835 486.06 130.66C467.826 136.439 447.154 143.001 433.207 153.047C429.529 155.69 426.403 158.949 423.379 162.085C416.879 168.838 410.73 175.21 399.739 175.849C386.221 176.632 374.328 172.265 361.735 167.64C359.874 166.956 358.012 166.273 356.139 165.601C352.911 164.459 350.226 163.518 347.495 162.667C328.945 156.956 314.75 157.112 301.469 163.205C300.171 163.798 298.862 164.392 297.564 164.974C288.176 169.185 283.257 172.847 279.296 175.781C275.076 178.906 272.3 180.978 266.658 181.616C264.683 181.84 262.122 181.65 259.414 181.459C252.125 180.922 243.041 180.261 237.004 186.566C231.058 192.77 228.79 202.2 226.781 210.51L226.296 212.526C225.314 216.512 224.129 220.735 222.098 224.553C219.717 229.033 216.908 232.214 213.286 234.577C208.005 238.004 201.156 239.191 194.532 240.344L194.329 240.378C193.257 240.568 192.219 240.736 191.237 240.893C188.71 241.307 186.532 241.666 184.715 242.125L184.309 242.226C179.683 243.39 177.572 243.928 173.138 247.881C172.743 248.24 172.326 248.62 171.885 249.012C171.208 249.639 170.475 250.311 169.663 251.006C169.595 251.062 169.527 251.129 169.471 251.185H170.543C171.197 250.614 171.806 250.054 172.371 249.539C172.799 249.147 173.217 248.766 173.612 248.408C177.911 244.566 179.829 244.085 184.478 242.909L184.884 242.808C186.679 242.349 188.845 242.002 191.35 241.587C192.332 241.419 193.37 241.251 194.453 241.072L194.656 241.039C201.347 239.874 208.276 238.664 213.669 235.159C217.404 232.74 220.282 229.47 222.73 224.878C224.795 220.992 226.003 216.725 226.984 212.682L227.469 210.667C229.455 202.435 231.712 193.118 237.523 187.048C243.323 180.989 252.215 181.638 259.357 182.154C262.111 182.355 264.706 182.546 266.737 182.31C272.571 181.638 275.414 179.533 279.725 176.33C283.652 173.418 288.537 169.79 297.858 165.613C299.167 165.03 300.464 164.437 301.773 163.843C314.885 157.84 328.922 157.684 347.292 163.339C350.012 164.179 352.697 165.12 355.913 166.262C357.786 166.934 359.648 167.617 361.498 168.3C374.159 172.948 386.12 177.349 399.796 176.554C411.068 175.904 417.308 169.431 423.92 162.578C426.922 159.453 430.036 156.239 433.658 153.618C447.515 143.629 468.119 137.1 486.309 131.332C492.052 129.507 497.48 127.793 502.535 126.024C509.192 123.694 516.628 121.085 522.044 116.56V115.631H522.022Z" fill="white"/>
<path opacity="0.7" d="M38.1499 239.303C48.7454 243.133 51.6792 243.245 56.1363 243.402C57.6709 243.458 59.4199 243.514 61.7218 243.749C63.8431 243.962 66.2014 244.387 68.6951 244.824C69.9025 245.037 71.1437 245.261 72.4301 245.473C74.9464 245.888 77.4627 246.269 79.9338 246.649C86.6928 247.691 93.0794 248.665 98.3828 249.953C99.7482 250.278 101.091 250.715 102.422 251.196H104.408C102.479 250.412 100.538 249.74 98.5634 249.259C93.2261 247.96 86.8282 246.985 80.0579 245.944C77.5868 245.563 75.0818 245.182 72.5655 244.768C71.2904 244.555 70.0492 244.331 68.8418 244.118C66.3368 243.67 63.9672 243.245 61.812 243.032C59.4876 242.797 57.7273 242.741 56.1814 242.685C51.792 242.528 48.8921 242.427 38.4094 238.631C24.598 233.636 12.8629 223.075 3.53118 207.24C2.27868 205.1 1.11645 202.95 0.0332031 200.789V202.357C0.935907 204.115 1.88375 205.851 2.91057 207.587C12.31 223.579 24.1693 234.252 38.1499 239.303Z" fill="white"/>
<path opacity="0.7" d="M522.023 99.1122C520.24 102.45 518.276 105.608 515.219 108.508C514.936 108.777 514.643 109.046 514.338 109.315C509.024 113.895 501.464 116.415 494.14 118.834C490.022 120.2 485.7 121.544 481.13 122.978C463.099 128.611 442.652 134.994 428.424 144.67C424.926 147.056 421.868 149.934 418.923 152.711C412.457 158.803 406.352 164.56 395.994 165.355C382.803 166.363 371.203 162.522 358.927 158.468C356.478 157.661 353.95 156.821 351.434 156.037C348.083 154.996 345.285 154.167 342.531 153.473C324.015 148.803 309.718 150.057 296.189 157.549C294.959 158.232 293.706 158.904 292.363 159.599C287.105 162.309 283.111 164.616 279.895 166.475C271.353 171.414 268.16 173.262 260.092 172.097C258.749 171.906 257.09 171.526 255.353 171.134C247.725 169.398 237.287 167.024 230.099 173.732C223.126 180.239 221.197 191.259 219.639 200.106C218.951 204.037 218.071 208.561 216.367 212.582C214.336 217.375 211.786 220.813 208.333 223.4C203.661 226.883 197.41 228.428 191.362 229.918L189.489 230.377C185.754 231.318 182.471 232.18 180.09 233.356C175.847 235.461 174.628 236.929 171.379 240.848L170.645 241.733C169.731 242.83 168.727 244.006 167.531 245.216L166.075 246.694C164.608 248.195 163.108 249.718 161.539 251.207H162.577C163.954 249.875 165.285 248.52 166.594 247.198L168.05 245.72C169.268 244.488 170.295 243.301 171.209 242.192L171.943 241.307C175.215 237.365 176.31 236.033 180.417 234.006C182.73 232.863 185.98 232.001 189.67 231.071L191.531 230.612C197.647 229.1 203.966 227.544 208.762 223.971C212.327 221.317 214.957 217.778 217.033 212.862C218.759 208.774 219.651 204.193 220.35 200.229C221.885 191.482 223.803 180.597 230.596 174.247C237.513 167.796 247.736 170.126 255.206 171.828C256.966 172.231 258.636 172.612 260.013 172.802C268.329 174.001 271.827 171.985 280.279 167.102C283.483 165.254 287.466 162.947 292.713 160.248C294.067 159.554 295.32 158.882 296.561 158.199C309.921 150.807 324.06 149.575 342.385 154.189C345.127 154.884 347.914 155.713 351.254 156.743C353.77 157.527 356.297 158.367 358.735 159.173C371.091 163.261 382.747 167.113 396.084 166.094C406.691 165.277 412.897 159.442 419.453 153.26C422.387 150.494 425.411 147.638 428.864 145.286C443.002 135.666 463.392 129.294 481.378 123.683C485.96 122.25 490.281 120.906 494.4 119.539C501.441 117.199 509.419 114.556 514.835 109.875C515.151 109.606 515.455 109.326 515.749 109.046C518.491 106.436 520.409 103.547 522.057 100.613V99.1122H522.023Z" fill="white"/>
<path opacity="0.7" d="M36.4347 232.662C46.7369 236.01 49.7158 235.047 53.1799 233.927C54.9289 233.356 56.7456 232.774 59.7358 232.695C62.9404 232.606 66.6866 233.278 70.5569 234.039C79.1214 235.708 88.769 238.272 96.3743 240.927C102.084 242.92 107.466 246.369 113.142 250.02C113.751 250.412 114.372 250.804 114.993 251.207H116.324C115.387 250.614 114.462 250.02 113.537 249.427C107.816 245.742 102.411 242.27 96.6112 240.255C88.9721 237.6 79.2793 235.013 70.6924 233.345C66.7769 232.572 62.9855 231.9 59.7132 231.99C56.6215 232.079 54.6694 232.706 52.9542 233.266C49.6142 234.341 46.7369 235.282 36.6604 232.001C23.3681 227.678 12.2648 217.7 3.6553 202.346C2.32381 199.96 1.12773 197.564 0.0332031 195.167V196.869C0.958475 198.829 1.95145 200.778 3.02341 202.704C11.7232 218.192 22.9619 228.272 36.4347 232.662Z" fill="white"/>
<path opacity="0.7" d="M522.023 84.9005C520.939 86.0092 519.913 87.1739 518.954 88.4058C517.803 89.8841 516.742 91.3736 515.715 92.8183C513.03 96.6148 510.479 100.199 506.35 103.446C506.056 103.67 505.763 103.894 505.458 104.118C500.245 107.881 493.181 110.087 486.343 112.226L486.016 112.327C483.24 113.189 480.374 114.074 477.429 114.97C459.195 120.525 438.534 126.83 423.639 136.316C420.333 138.421 417.365 140.93 414.511 143.349C408.068 148.803 401.986 153.954 392.248 154.873C379.339 156.104 367.988 152.722 355.959 149.15C352.946 148.254 349.832 147.324 346.706 146.484C343.976 145.757 340.76 144.917 337.544 144.278C319.038 140.594 304.652 142.934 290.885 151.894C289.655 152.689 288.392 153.473 287.128 154.212C268.769 164.952 264.944 167.192 253.48 162.578C252.927 162.354 252.317 162.096 251.674 161.838C244.261 158.759 231.849 153.596 223.149 160.875C216.119 166.755 214.088 177.226 212.948 187.664C212.429 192.378 211.899 196.601 210.612 200.599C208.965 205.717 206.652 209.401 203.357 212.212C199.148 215.785 193.337 217.621 187.706 219.391C186.668 219.715 185.63 220.04 184.626 220.376C181.241 221.496 177.777 222.773 175.452 224.598C172.71 226.749 171.785 228.608 170.51 231.183C169.889 232.438 169.178 233.871 168.129 235.585C167.237 237.029 166.335 238.284 165.353 239.426C161.866 243.491 157.387 248.105 152.016 251.219H153.404C158.402 248.083 162.589 243.738 165.895 239.885C166.899 238.709 167.836 237.432 168.738 235.954C169.81 234.207 170.521 232.774 171.153 231.497C172.383 229.011 173.274 227.219 175.892 225.158C178.126 223.4 181.511 222.146 184.84 221.059C185.844 220.723 186.871 220.41 187.909 220.085C193.596 218.293 199.487 216.445 203.808 212.772C207.216 209.871 209.586 206.086 211.278 200.834C212.587 196.78 213.129 192.513 213.648 187.753C214.776 177.461 216.762 167.158 223.6 161.435C231.961 154.436 244.125 159.487 251.381 162.51C252.024 162.779 252.633 163.026 253.197 163.261C264.989 168.009 268.871 165.747 287.478 154.85C288.753 154.111 290.028 153.316 291.258 152.51C304.855 143.662 319.072 141.344 337.386 144.995C340.579 145.633 343.784 146.462 346.503 147.19C349.618 148.03 352.732 148.959 355.733 149.855C367.818 153.45 379.238 156.855 392.293 155.612C402.245 154.671 408.417 149.441 414.951 143.92C417.794 141.512 420.739 139.026 424 136.943C438.816 127.513 459.431 121.219 477.61 115.676C480.555 114.78 483.432 113.906 486.197 113.033L486.524 112.932C493.407 110.782 500.538 108.553 505.842 104.723C506.158 104.499 506.462 104.264 506.756 104.029C510.976 100.714 513.549 97.0963 516.268 93.2551C517.284 91.8216 518.344 90.3321 519.484 88.865C520.274 87.8571 521.109 86.894 521.989 85.9532V84.9005H522.023Z" fill="white"/>
<path opacity="0.7" d="M34.7196 226.009C45.5521 229.156 48.3617 226.961 51.3294 224.654C52.943 223.4 54.6017 222.09 57.7499 221.619C61.2817 221.082 65.4567 221.854 68.6951 222.594C75.9958 224.24 84.6391 227.364 94.3884 231.878C99.545 234.274 104.375 237.791 109.497 241.52C114.225 244.969 119.055 248.486 124.324 251.196H125.927C120.206 248.441 114.993 244.645 109.915 240.938C104.769 237.186 99.9174 233.647 94.693 231.217C84.8987 226.681 76.2102 223.534 68.8531 221.888C65.5582 221.138 61.293 220.354 57.6483 220.903C54.3309 221.406 52.5819 222.773 50.9006 224.083C48.0796 226.278 45.4167 228.361 34.934 225.315C18.9787 220.69 9.18437 207.587 3.79071 197.407C2.36895 194.719 1.13902 191.998 0.0332031 189.265V191.18C0.969759 193.386 1.99658 195.57 3.14753 197.743C8.59761 208.046 18.5161 221.317 34.7196 226.009Z" fill="white"/>
<path opacity="0.7" d="M522.023 78.5394C517.904 80.8576 514.361 83.4446 511.247 86.4012C510.208 87.3867 509.215 88.3722 508.245 89.3354C505.007 92.5495 501.949 95.5957 497.48 98.3843C497.187 98.5634 496.894 98.7538 496.578 98.933C491.545 101.867 485.136 103.726 478.93 105.529L476.752 106.168C458.303 111.532 435.352 118.218 418.844 127.972C415.74 129.798 412.897 131.937 410.155 133.997C403.712 138.824 397.63 143.371 388.49 144.424C375.807 145.88 364.659 142.89 352.856 139.731C349.324 138.791 345.679 137.805 341.99 136.954C338.243 136.103 335.253 135.509 332.579 135.117C314.051 132.351 299.562 135.789 285.604 146.283C284.386 147.201 283.145 148.075 281.926 148.881C263.612 160.942 258.286 160.651 246.878 153.126C233.496 144.289 223.476 142.643 216.232 148.075C208.175 154.122 206.697 166.486 206.291 175.266L206.279 175.423C206.076 179.847 205.862 184.427 204.88 188.649C203.616 194.081 201.563 198.023 198.403 201.058C194.555 204.753 189.071 206.825 183.768 208.841C182.414 209.356 181.071 209.86 179.785 210.387C176.603 211.686 173.048 213.354 170.848 215.852C168.659 218.349 168.129 220.656 167.519 223.344C167.113 225.113 166.662 227.118 165.635 229.436C164.958 230.971 164.157 232.337 163.186 233.625C156.123 243.099 143.733 251.689 130.125 247.355C120.962 244.432 113.47 238.261 106.226 232.281C101.678 228.529 97.3792 224.99 92.7416 222.246C85.5425 217.991 76.1093 212.817 66.9807 210.487C62.185 209.255 58.5404 209.065 55.5389 209.894C52.1086 210.835 50.5514 212.951 49.0507 214.989C46.5795 218.349 44.2438 221.53 33.1631 218.708C16.9483 214.575 7.86481 200.543 3.88163 192.535C2.33575 189.433 1.06068 186.297 0 183.139V185.267C0.936556 187.809 1.98595 190.34 3.23845 192.849C7.26677 200.957 16.4969 215.191 32.9826 219.391C44.5259 222.336 47.1212 218.808 49.6262 215.404C51.0592 213.455 52.5374 211.45 55.7194 210.577C58.6081 209.793 62.1173 209.972 66.7888 211.182C75.8272 213.489 85.204 218.64 92.3579 222.862C96.9392 225.573 101.216 229.1 105.752 232.83C113.052 238.844 120.601 245.07 129.888 248.027C143.857 252.484 156.54 243.726 163.751 234.05C164.744 232.718 165.579 231.307 166.278 229.727C167.339 227.353 167.801 225.304 168.208 223.512C168.794 220.925 169.302 218.685 171.367 216.333C173.466 213.948 176.919 212.324 180.033 211.059C181.319 210.532 182.651 210.028 184.005 209.513C189.376 207.475 194.928 205.369 198.877 201.573C202.138 198.437 204.271 194.383 205.557 188.817C206.55 184.528 206.764 179.914 206.979 175.457L206.99 175.3C207.396 166.665 208.829 154.503 216.649 148.646C223.611 143.416 233.36 145.085 246.461 153.719C258.67 161.782 264.707 161.066 282.31 149.475C283.551 148.657 284.803 147.784 286.033 146.854C299.822 136.484 314.141 133.09 332.466 135.823C335.118 136.215 338.097 136.797 341.82 137.648C345.499 138.499 349.143 139.474 352.664 140.415C364.535 143.595 375.739 146.596 388.569 145.129C397.912 144.054 404.062 139.44 410.584 134.557C413.314 132.508 416.147 130.391 419.216 128.577C435.645 118.867 458.551 112.204 476.955 106.84L479.133 106.201C485.373 104.387 491.827 102.517 496.939 99.5378C497.255 99.3586 497.559 99.1682 497.853 98.9778C502.4 96.1444 505.481 93.0759 508.753 89.8281C509.723 88.865 510.705 87.8907 511.743 86.9052C514.722 84.0718 518.118 81.5856 522.023 79.3458V78.5394Z" fill="white"/>
<path opacity="0.7" d="M522.023 75.1013C520.376 75.7845 518.762 76.4452 517.194 77.1172C511.901 79.413 507.444 81.7872 503.551 84.3854L502.062 85.3821C497.695 88.3163 493.915 90.8473 488.623 93.3111C488.33 93.4455 488.025 93.5911 487.72 93.7255C483.037 95.7973 477.452 97.2756 472.058 98.6979L469.756 99.3138C454.264 103.457 431.64 110.076 414.06 119.595C411.216 121.13 408.542 122.877 405.947 124.568C399.458 128.779 393.331 132.766 384.744 133.941C372.242 135.644 361.263 132.99 349.64 130.19C345.635 129.227 341.493 128.219 337.285 127.412C333.606 126.707 330.447 126.225 327.614 125.934C308.782 124.008 294.643 128.398 280.324 140.639C279.128 141.658 277.909 142.621 276.713 143.506C259.471 156.183 252.171 154.559 240.244 143.629C235.933 139.675 220.96 127.379 209.304 135.229C202.703 139.675 199.442 148.959 199.622 162.824L199.633 163.776C199.69 168.065 199.758 172.511 199.148 176.666C198.279 182.411 196.463 186.611 193.439 189.87C189.896 193.689 184.66 196.007 179.605 198.247C178.048 198.93 176.434 199.647 174.933 200.386C170.431 202.581 167.836 204.597 166.256 207.094C164.394 210.028 164.281 212.895 164.168 215.919C164.078 218.215 163.988 220.589 163.153 223.277C162.656 224.889 161.934 226.424 161.032 227.824C154.69 237.668 140.676 245.541 127.203 240.736C117.499 237.276 109.86 230.175 102.48 223.31C98.5419 219.648 94.8182 216.177 90.8012 213.242C83.6473 208.001 74.2704 201.663 65.1305 199.053C60.3801 197.687 56.5549 197.62 53.4744 198.84C49.9877 200.218 48.6449 203.062 47.3473 205.806C45.2033 210.342 43.1948 214.642 31.4371 212.055C20.1872 209.591 9.94147 200.453 4.02875 187.63C2.27976 183.834 0.99341 180.003 0.0117188 176.173V178.906C0.903139 181.93 1.99767 184.942 3.37429 187.932C9.37728 200.968 19.8148 210.241 31.2904 212.761C43.6123 215.46 45.8465 210.711 48.013 206.12C49.2994 203.376 50.518 200.789 53.7452 199.512C56.679 198.348 60.3462 198.426 64.9387 199.747C73.9658 202.323 83.2749 208.628 90.3837 213.825C94.3556 216.737 98.068 220.186 101.995 223.837C109.431 230.747 117.126 237.903 126.966 241.419C140.935 246.403 154.983 238.552 161.641 228.216C162.577 226.76 163.322 225.169 163.841 223.49C164.699 220.712 164.789 218.293 164.891 215.953C165.015 212.895 165.116 210.263 166.877 207.486C168.377 205.101 170.894 203.174 175.26 201.035C176.75 200.307 178.285 199.624 179.909 198.908C185.032 196.645 190.336 194.293 193.98 190.363C197.106 186.992 198.979 182.68 199.87 176.778C200.491 172.556 200.423 168.088 200.367 163.765L200.356 162.813C200.175 149.206 203.323 140.123 209.721 135.812C220.937 128.264 235.55 140.28 239.77 144.144C251.471 154.873 259.246 157.236 277.153 144.065C278.372 143.17 279.59 142.195 280.809 141.165C294.959 129.07 308.94 124.725 327.547 126.628C330.356 126.92 333.493 127.39 337.149 128.096C341.347 128.902 345.477 129.899 349.482 130.873C361.172 133.695 372.219 136.36 384.857 134.647C393.625 133.449 400.09 129.238 406.353 125.173C408.937 123.493 411.6 121.757 414.421 120.234C431.933 110.759 454.501 104.152 469.96 100.019L472.25 99.4146C477.666 97.9811 483.274 96.4916 488.014 94.4086C488.33 94.2742 488.634 94.1286 488.939 93.9942C494.287 91.508 498.271 88.8426 502.479 86.0093L503.969 85.0125C507.828 82.4367 512.251 80.0849 517.498 77.8003C518.976 77.162 520.488 76.5348 522.034 75.8965V75.1013H522.023Z" fill="white"/>
<path opacity="0.7" d="M522.023 72.2455C518.074 74.0597 513.865 75.65 509.679 77.1507C504.895 78.8642 500.234 80.5552 495.868 82.3919C490.305 84.7213 485.487 86.4796 479.766 88.2602L478.852 88.5402C475.015 89.6937 470.784 90.668 466.688 91.62C464.995 92.0119 463.303 92.4039 461.633 92.8071C442.958 97.3203 424.362 103.861 409.287 111.23C406.805 112.439 404.379 113.772 402.043 115.06C395.419 118.711 389.168 122.149 380.998 123.448C368.643 125.419 357.788 123.056 346.301 120.547C341.866 119.584 337.274 118.576 332.557 117.837C328.879 117.266 325.629 116.896 322.639 116.728C303.716 115.631 289.487 121.085 275.044 134.972C273.87 136.103 272.685 137.156 271.5 138.119C254.394 152.084 244.984 147.481 233.598 134.121C225.654 124.803 212.723 116.135 202.387 122.384C193.36 127.838 192.288 140.627 192.965 150.382L193.089 152.162C193.394 156.317 193.71 160.607 193.417 164.683C192.976 170.719 191.408 175.165 188.486 178.682C185.191 182.646 180.158 185.189 175.295 187.641C173.557 188.515 171.752 189.422 170.093 190.374C167.103 192.087 163.435 194.529 161.675 198.314C160.073 201.752 160.389 205.101 160.739 208.64C160.998 211.327 161.269 214.116 160.682 217.095C160.344 218.831 159.734 220.477 158.888 222C153.224 232.214 137.968 239.516 124.292 234.095C113.979 230.019 106.193 221.855 98.6664 213.959C95.4957 210.644 92.2234 207.206 88.8721 204.227C78.9988 195.425 70.3892 189.836 63.2917 187.596C58.4848 186.085 54.6032 186.141 51.4212 187.776C47.9006 189.59 46.7835 193.118 45.7003 196.545C43.8949 202.256 42.2023 207.665 29.7111 205.392C16.9491 203.051 8.14778 192.132 4.16459 182.691C1.90783 177.327 0.632763 171.929 0.0234375 166.542V171.291C0.756885 175.188 1.87398 179.085 3.49885 182.971C7.54973 192.591 16.5316 203.712 29.5757 206.075C42.6875 208.46 44.5719 202.503 46.3886 196.735C47.4718 193.308 48.4874 190.06 51.7484 188.392C54.7499 186.846 58.4623 186.801 63.0773 188.257C70.0846 190.463 78.6038 196.007 88.3982 204.731C91.7269 207.699 94.8412 210.969 98.1474 214.43C105.73 222.381 113.572 230.601 124.032 234.745C138.058 240.288 153.698 232.807 159.52 222.325C160.4 220.735 161.032 219.021 161.393 217.218C162.002 214.138 161.732 211.305 161.461 208.561C161.134 205.123 160.818 201.864 162.341 198.605C163.65 195.794 166.155 193.442 170.465 190.979C172.113 190.038 173.907 189.131 175.633 188.257C180.564 185.771 185.665 183.206 189.061 179.119C192.074 175.49 193.699 170.91 194.15 164.717C194.443 160.584 194.127 156.261 193.823 152.084L193.699 150.315C193.033 140.751 194.06 128.241 202.771 122.966C212.723 116.941 225.305 125.453 233.068 134.557C244.747 148.276 254.405 152.98 271.974 138.645C273.17 137.671 274.367 136.596 275.563 135.465C289.848 121.734 303.919 116.336 322.616 117.423C325.595 117.591 328.811 117.96 332.467 118.531C337.161 119.271 341.731 120.267 346.165 121.23C357.72 123.75 368.643 126.124 381.123 124.142C389.405 122.821 396.006 119.192 402.404 115.676C404.728 114.399 407.143 113.066 409.614 111.868C424.655 104.521 443.184 98.0035 461.813 93.5014C463.483 93.0983 465.176 92.7063 466.857 92.3143C470.964 91.3624 475.218 90.3881 479.066 89.2234L479.991 88.9434C485.746 87.1515 490.576 85.3933 496.161 83.0526C500.505 81.2272 505.154 79.5473 509.938 77.8338C514.034 76.3668 518.153 74.8101 522.035 73.0518V72.2455H522.023Z" fill="white"/>
<path opacity="0.7" d="M13.1447 101.867C12.8852 105.126 12.1518 108.307 11.3732 111.543C10.2899 115.978 8.89075 120.503 7.41257 125.296C2.40257 141.467 -3.2619 159.8 3.62122 178.044C7.97676 189.568 17.489 197.967 27.8701 199.434C41.7943 201.405 43.3064 194.271 44.762 187.361C45.6308 183.262 46.4433 179.388 49.7381 177.316C52.8073 175.378 56.5535 175.221 61.2025 176.823C71.2563 180.272 82.1791 191.169 86.4105 195.693C89.0622 198.527 91.6687 201.629 94.1963 204.619C101.926 213.78 109.926 223.266 121.086 228.126C134.186 233.826 151.823 228.171 157.386 216.49C158.209 214.766 158.717 212.918 158.92 210.991C159.27 207.654 158.627 204.451 158.018 201.349C157.228 197.351 156.483 193.577 157.792 189.78C158.92 186.521 161.346 183.811 165.657 180.978C167.406 179.835 169.335 178.749 171.197 177.696C175.993 174.986 180.946 172.186 184.128 167.931C187.039 164.022 188.405 159.184 188.427 152.711C188.427 148.68 187.897 144.525 187.367 140.493C187.254 139.608 187.141 138.735 187.028 137.861C186.216 131.411 185.448 115.788 195.818 110.166C206.594 104.297 219.006 114.5 226.364 125.027C233.766 135.61 240.423 140.896 247.34 141.68C253.388 142.363 259.752 139.608 266.782 133.27C267.922 132.25 269.095 131.075 270.291 129.798C284.622 114.399 298.794 107.96 317.661 108.251C320.798 108.296 324.104 108.542 327.76 108.99C332.905 109.628 337.893 110.614 342.722 111.566C354.175 113.828 365.008 115.956 377.375 113.671C385.533 112.159 392.608 108.979 399.446 105.888C401.217 105.093 402.989 104.286 404.783 103.514C416.823 98.3283 434.978 90.9593 453.653 86.9948C459.092 85.8413 464.756 84.9118 470.105 84.0607L471.03 83.9151C472.949 83.6127 474.81 83.3327 476.638 83.0528C480.633 82.4592 484.402 81.888 488.34 81.1041C492.548 80.2642 497.446 79.245 502.365 77.8788C508.684 76.1093 516.154 73.2311 522.033 68.6395V67.71C516.188 72.436 508.583 75.3926 502.174 77.1844C497.288 78.5507 492.391 79.5586 488.204 80.3986C484.277 81.1825 480.52 81.7424 476.537 82.336C474.709 82.6048 472.847 82.8848 470.917 83.1983L469.992 83.3439C464.644 84.1951 458.968 85.1246 453.507 86.2893C434.775 90.2762 416.563 97.6564 404.501 102.853C402.696 103.626 400.924 104.432 399.152 105.227C392.044 108.43 385.33 111.465 377.251 112.954C365.019 115.217 354.254 113.1 342.869 110.849C338.028 109.897 333.029 108.911 327.85 108.273C324.16 107.814 320.832 107.579 317.672 107.523C298.58 107.22 284.249 113.738 269.772 129.305C268.587 130.571 267.425 131.724 266.297 132.732C259.425 138.925 253.253 141.624 247.419 140.952C240.728 140.202 234.228 135.005 226.95 124.601C219.424 113.839 206.673 103.424 195.468 109.527C184.715 115.351 185.482 131.332 186.317 137.928C186.43 138.802 186.543 139.675 186.656 140.56C187.175 144.569 187.716 148.702 187.705 152.689C187.694 159.005 186.374 163.709 183.553 167.483C180.45 171.615 175.564 174.382 170.836 177.047C168.963 178.111 167.022 179.197 165.262 180.351C162.26 182.322 158.627 185.144 157.115 189.523C155.738 193.498 156.505 197.373 157.318 201.461C157.927 204.518 158.548 207.665 158.209 210.902C158.018 212.75 157.521 214.519 156.742 216.165C151.337 227.533 134.164 233.009 121.39 227.454C110.377 222.661 102.433 213.242 94.7605 204.149C92.2329 201.147 89.6038 198.045 86.9521 195.189C81.6487 189.523 71.2902 179.511 61.4507 176.129C56.6551 174.482 52.5816 174.673 49.3658 176.7C45.8226 178.94 44.9312 183.139 44.0737 187.205C42.618 194.092 41.2414 200.587 27.983 198.717C17.8614 197.284 8.56352 189.064 4.30953 177.775C-2.49461 159.767 3.1473 141.557 8.11217 125.486C9.60163 120.693 11.0008 116.157 12.0841 111.7C12.8401 108.564 13.6074 105.227 13.8782 101.912" fill="white"/>
<path opacity="0.7" d="M18.1097 110.582C16.6653 114.009 15.0969 117.402 13.4269 120.997C5.70875 137.662 -2.25761 154.886 3.73409 173.107C7.28849 183.914 16.3042 191.821 26.155 192.784C40.8804 194.217 42.02 185.941 43.1258 177.934C43.7803 173.196 44.4009 168.717 47.7183 166.242C58.0205 158.582 75.6345 175.459 84.4133 186.647C86.3541 189.122 88.2836 191.72 90.1567 194.24C98.0328 204.845 106.168 215.809 118.141 221.509C126.807 225.631 138.666 224.97 146.993 219.908C152.94 216.291 156.302 210.915 156.449 204.767C156.539 201.194 155.546 197.644 154.599 194.206C153.335 189.626 152.127 185.303 153.233 180.935C154.881 174.451 160.647 170.845 166.762 167.026C171.411 164.125 176.218 161.124 179.197 156.7C184.659 148.603 182.763 138.378 180.935 128.501C180.743 127.448 180.551 126.407 180.359 125.376C179.445 120.213 177.369 102.933 188.856 97.3337C200.343 91.7453 212.631 103.605 219.661 115.465C227.56 128.77 235.368 135.567 243.56 136.239C250.533 136.811 257.755 132.734 265.033 124.122C281.97 104.076 298.23 97.1545 323.066 99.4391C328.629 99.9543 334 100.906 339.19 101.836C350.485 103.852 361.16 105.767 373.29 103.247C373.403 103.224 373.527 103.202 373.64 103.168C385.804 100.57 397.189 96.2362 408.202 92.0477C424.936 85.6866 442.234 79.1015 462.071 78.8551C465.287 78.8103 468.57 78.8999 471.752 78.9895C479.346 79.1911 487.211 79.3927 494.783 77.9032C504.521 75.977 516.233 69.9406 519.686 58.7303C522.078 50.9581 519.889 42.738 517.768 34.7754C515.59 26.5665 513.322 18.0887 516.267 10.3166C517.519 7.02402 519.607 4.19064 522.01 1.58125V0.517334C519.325 3.35071 516.978 6.41927 515.601 10.0702C512.577 18.0551 514.868 26.6561 517.079 34.9658C519.167 42.8276 521.333 50.9469 518.998 58.5287C515.691 69.2799 504.543 75.1594 495.053 77.1193C494.918 77.1529 494.783 77.1753 494.647 77.1977C487.143 78.6759 479.335 78.4632 471.775 78.2728C468.593 78.1944 465.298 78.1048 462.071 78.1384C442.11 78.396 424.755 85.0034 407.965 91.3869C396.975 95.5642 385.623 99.8871 373.504 102.485C373.391 102.508 373.267 102.53 373.155 102.564C361.16 105.05 350.553 103.157 339.326 101.141C334.124 100.212 328.741 99.2487 323.145 98.7336C298.377 96.4601 281.383 103.684 264.503 123.674C257.383 132.107 250.364 136.094 243.639 135.545C235.707 134.895 228.067 128.21 220.304 115.118C213.116 103 200.49 90.9054 188.563 96.7065C176.625 102.519 178.746 120.225 179.671 125.511C179.852 126.541 180.044 127.594 180.247 128.646C182.052 138.39 183.914 148.458 178.622 156.319C175.722 160.609 170.983 163.576 166.401 166.432C160.161 170.329 154.271 174.003 152.556 180.767C151.405 185.314 152.68 189.928 153.922 194.396C154.858 197.779 155.828 201.284 155.749 204.744C155.603 210.635 152.376 215.809 146.643 219.292C138.508 224.231 126.931 224.88 118.479 220.86C106.676 215.238 98.5857 204.352 90.7661 193.814C88.8929 191.294 86.9634 188.685 85.0113 186.21C82.7884 183.388 64.7456 161.034 51.5097 163.778C50.0428 164.08 48.6323 164.696 47.3121 165.682C43.7465 168.336 43.0807 173.174 42.4375 177.844C41.3317 185.874 40.2936 193.456 26.2453 192.089C16.6766 191.16 7.90909 183.444 4.43368 172.894C-1.47903 154.942 6.4422 137.841 14.0926 121.3C15.6836 117.862 17.3311 114.3 18.7867 110.862" fill="white"/>
<path d="M522.024 155.724C518.12 157.068 514.046 158.4 509.86 159.767C489.448 166.453 466.305 174.023 452.143 186.23C447.81 189.959 444.425 194.719 441.142 199.333C434.462 208.718 428.154 217.576 414.738 217.42C398.974 217.229 384.677 208.987 370.844 201.024L367.571 199.143C352.835 190.71 335.491 182.579 318.487 186.107C318.442 186.118 318.396 186.129 318.351 186.141C304.122 189.142 301.843 197.071 299.428 205.448C298.052 210.241 296.619 215.202 292.861 219.615C289.589 223.445 284.568 225.427 279.704 227.342C273.814 229.66 267.732 232.068 264.392 237.757C262.022 241.8 260.082 246.213 258.209 250.479C258.107 250.726 257.994 250.961 257.893 251.207H259.461C259.484 251.151 259.506 251.107 259.529 251.051C261.379 246.829 263.298 242.461 265.633 238.485C268.725 233.222 274.322 231.015 280.235 228.675C285.256 226.693 290.446 224.643 293.956 220.544C297.916 215.897 299.394 210.79 300.816 205.851C303.208 197.541 305.273 190.374 318.656 187.54C335.277 184.069 352.327 192.076 366.86 200.386L370.133 202.267C384.125 210.331 398.602 218.663 414.738 218.864C428.91 219.032 435.737 209.446 442.338 200.173C445.565 195.637 448.905 190.945 453.114 187.328C467.061 175.311 490.057 167.785 510.345 161.144C514.374 159.823 518.289 158.546 522.058 157.247V155.724H522.024Z" fill="white"/>
<path d="M23.1665 251.196H25.2653C14.6811 242.315 6.61318 232.337 0.0234375 221.765V224.24C6.20696 233.815 13.6994 242.965 23.1665 251.196Z" fill="white"/>
<path d="M17.7847 110.446C16.3403 113.861 14.7719 117.255 13.1132 120.85C5.3612 137.57 -2.63902 154.861 3.4091 173.206C7.00863 184.147 16.1485 192.154 26.1347 193.129C41.1986 194.596 42.4285 185.76 43.5004 177.965C44.1436 173.295 44.7529 168.894 47.9576 166.508C58.034 159.005 75.4562 175.759 84.156 186.846C86.0968 189.31 88.0263 191.908 89.8882 194.428C97.7868 205.067 105.956 216.065 118.007 221.798C126.775 225.976 138.781 225.304 147.199 220.186C153.258 216.501 156.666 211.025 156.824 204.753C156.914 201.136 155.921 197.552 154.962 194.092C153.709 189.556 152.525 185.278 153.608 181.011C155.221 174.661 160.931 171.1 166.979 167.326C171.662 164.403 176.491 161.379 179.515 156.9C185.056 148.679 183.149 138.387 181.31 128.443C181.118 127.39 180.926 126.348 180.734 125.318C179.831 120.211 177.766 103.144 189.039 97.6563C200.311 92.1799 212.419 103.917 219.381 115.642C227.336 129.059 235.246 135.901 243.551 136.584C250.648 137.167 257.972 133.045 265.329 124.344C282.175 104.409 298.356 97.5219 323.045 99.7841C328.597 100.288 333.957 101.251 339.136 102.181C350.578 104.23 361.365 106.123 373.732 103.513C385.93 100.904 397.327 96.57 408.351 92.3703C425.818 85.718 442.326 79.4465 462.096 79.2001C465.312 79.1553 468.584 79.2449 471.766 79.3345C479.382 79.5361 487.259 79.7377 494.875 78.2482C504.771 76.2996 516.563 70.1849 520.049 58.829C522.475 50.956 520.264 42.6798 518.142 34.6837C515.874 26.1611 513.73 18.109 516.63 10.4376C517.826 7.27942 519.756 4.60284 522.035 2.09423V0C519.214 2.93417 516.732 6.12592 515.288 9.94481C512.218 18.0418 514.531 26.6875 516.754 35.0532C518.831 42.859 520.986 50.9336 518.684 58.4146C515.378 69.1657 504.06 74.9893 494.604 76.8483C487.146 78.3154 479.349 78.1138 471.811 77.9122C468.618 77.8339 465.323 77.7443 462.084 77.7779C442.067 78.0242 424.667 84.6429 407.843 91.0376C396.864 95.2149 385.524 99.5265 373.439 102.114C361.433 104.689 350.691 102.785 339.396 100.77C334.182 99.8401 328.8 98.877 323.181 98.3618C298.277 96.0772 281.205 103.334 264.223 123.425C257.182 131.758 250.265 135.711 243.664 135.162C235.957 134.524 228.205 127.715 220.611 114.914C213.344 102.662 200.548 90.4553 188.396 96.3684C176.232 102.293 178.364 120.2 179.312 125.553C179.493 126.584 179.685 127.636 179.888 128.689C181.682 138.365 183.532 148.366 178.308 156.104C175.453 160.338 170.748 163.272 166.201 166.116C160.175 169.879 153.958 173.765 152.209 180.664C151.035 185.301 152.321 189.971 153.574 194.473C154.51 197.832 155.47 201.315 155.391 204.72C155.255 210.487 152.073 215.549 146.454 218.965C138.42 223.848 126.978 224.486 118.628 220.511C106.904 214.933 98.8362 204.07 91.0391 193.577C89.166 191.057 87.2365 188.448 85.2844 185.961C83.0502 183.117 64.872 160.607 51.4104 163.406C49.8984 163.72 48.454 164.347 47.0887 165.366C43.3989 168.11 42.7219 173.015 42.0674 177.775C40.9842 185.625 39.9686 193.039 26.2701 191.706C16.8368 190.788 8.19343 183.173 4.77444 172.758C-1.09314 154.94 6.79424 137.906 14.4221 121.432C16.0131 117.994 17.6605 114.433 19.1162 110.983" fill="white"/>
</g>
</svg>
