<svg width="165" height="21" viewBox="0 0 165 21" fill="none" xmlns="http://www.w3.org/2000/svg">
<g clip-path="url(#clip0)">
<path d="M19.4792 5.98876L22.1453 4.58849C22.1453 4.58849 18.5172 -0.635556 10.4913 0.0645736C2.49299 0.791633 0.431555 7.2813 0.431555 7.2813C0.431555 7.2813 -2.15211 15.0097 5.32402 19.1836C5.32402 19.1836 12.9376 23.1689 19.809 18.3218C19.809 18.3218 23.9044 15.4674 23.767 9.94717H15.6587L15.7136 12.5592H20.2488C20.2488 12.5592 18.792 18.0795 11.8931 18.0256C4.99419 17.9718 3.45499 13.0439 3.45499 13.0439C3.45499 13.0439 0.953785 5.88104 8.56734 3.24209C8.56734 3.24209 14.8341 1.08784 19.4792 5.98876Z" fill="white"/>
<path d="M37.3722 20.5299C47.8718 20.6376 47.5145 14.2019 47.5145 14.2019V1.65332H44.8484V13.2593C44.8484 13.2593 45.3431 18.2679 37.3722 18.0525C29.3739 18.2679 29.8961 13.2593 29.8961 13.2593V1.65332H27.23V14.2019C27.23 14.1749 26.8727 20.6376 37.3722 20.5299Z" fill="white"/>
<path d="M51.748 1.92261H68.0746V4.34614H54.4692V9.38168H65.1612V11.886H54.4692V17.6486H68.0746V20.1799H51.748V1.92261Z" fill="white"/>
<path d="M86.3245 12.8823C91.0246 11.9399 90.7497 7.49668 90.7497 7.49668C90.7497 1.70715 85.6099 1.73407 85.6099 1.73407L71.9219 1.761L71.8945 20.2067H74.3682L74.3957 13.0708H83.2461L87.8363 20.2067H90.7222L86.3245 12.8823ZM84.6754 10.4588H74.4232V4.21146L84.9228 4.18453C84.9228 4.18453 88.1386 3.8614 88.1386 7.33512C88.1386 10.8088 84.6754 10.4588 84.6754 10.4588Z" fill="white"/>
<path d="M94.3496 1.73407H97.0432V17.6216H110.951V20.1798H94.3496V1.73407Z" fill="white"/>
<path d="M126.07 1.73407H122.606L113.646 20.1798H116.422L118.401 15.9252L130.219 15.9521L132.199 20.1798H135.03L126.07 1.73407ZM119.721 13.3671L124.31 3.99603L128.901 13.3671H119.721Z" fill="white"/>
<path d="M140.499 1.73407H137.971V20.1798H140.499V1.73407Z" fill="white"/>
<path d="M144.842 1.73407H148.388L162.186 17.2177V1.73407H164.934V20.1798H161.443L147.563 4.64231V20.1798H144.842V1.73407Z" fill="white"/>
</g>
<defs>
<clipPath id="clip0">
<rect width="165" height="20.7246" fill="white"/>
</clipPath>
</defs>
</svg>
