<svg width="88" height="26" viewBox="0 0 88 26" fill="none" xmlns="http://www.w3.org/2000/svg">
<rect y="13" width="35" height="2" fill="#A50034"/>
<path d="M61.1238 13.5775C61.1238 14.5225 61.0213 15.345 60.8163 16.045C60.6163 16.74 60.3363 17.315 59.9763 17.77C59.6213 18.225 59.1988 18.565 58.7088 18.79C58.2238 19.01 57.6988 19.12 57.1338 19.12C56.5688 19.12 56.0438 19.01 55.5588 18.79C55.0788 18.565 54.6613 18.225 54.3063 17.77C53.9513 17.315 53.6738 16.74 53.4738 16.045C53.2738 15.345 53.1738 14.5225 53.1738 13.5775C53.1738 12.6275 53.2738 11.805 53.4738 11.11C53.6738 10.415 53.9513 9.84 54.3063 9.385C54.6613 8.93 55.0788 8.5925 55.5588 8.3725C56.0438 8.1475 56.5688 8.035 57.1338 8.035C57.6988 8.035 58.2238 8.1475 58.7088 8.3725C59.1988 8.5925 59.6213 8.93 59.9763 9.385C60.3363 9.84 60.6163 10.415 60.8163 11.11C61.0213 11.805 61.1238 12.6275 61.1238 13.5775ZM59.2113 13.5775C59.2113 12.7925 59.1538 12.1425 59.0388 11.6275C58.9238 11.1125 58.7688 10.7025 58.5738 10.3975C58.3838 10.0925 58.1638 9.88 57.9138 9.76C57.6638 9.635 57.4038 9.5725 57.1338 9.5725C56.8688 9.5725 56.6113 9.635 56.3613 9.76C56.1163 9.88 55.8988 10.0925 55.7088 10.3975C55.5188 10.7025 55.3663 11.1125 55.2513 11.6275C55.1413 12.1425 55.0863 12.7925 55.0863 13.5775C55.0863 14.3625 55.1413 15.0125 55.2513 15.5275C55.3663 16.0425 55.5188 16.4525 55.7088 16.7575C55.8988 17.0625 56.1163 17.2775 56.3613 17.4025C56.6113 17.5225 56.8688 17.5825 57.1338 17.5825C57.4038 17.5825 57.6638 17.5225 57.9138 17.4025C58.1638 17.2775 58.3838 17.0625 58.5738 16.7575C58.7688 16.4525 58.9238 16.0425 59.0388 15.5275C59.1538 15.0125 59.2113 14.3625 59.2113 13.5775ZM66.84 14.9125V11.365C66.84 11.03 66.8625 10.66 66.9075 10.255L63.54 14.9125H66.84ZM69.8175 14.9125V15.985C69.8175 16.085 69.785 16.1725 69.72 16.2475C69.655 16.3175 69.5625 16.3525 69.4425 16.3525H68.4525V19H66.84V16.3525H62.265C62.14 16.3525 62.03 16.315 61.935 16.24C61.84 16.16 61.78 16.0625 61.755 15.9475L61.56 15.01L66.6975 8.1475H68.4525V14.9125H69.8175Z" fill="white"/>
</svg>
