<svg width="169" height="25" viewBox="0 0 169 25" fill="none" xmlns="http://www.w3.org/2000/svg">
<path d="M168.419 11.8992C162.693 16.3626 156.21 20.1539 148.814 20.714C144.372 21.05 139.671 19.9643 135.882 17.5344C132.559 20.8432 128.013 23.1611 123.725 24.1865C116.855 25.8322 109.381 24.4536 103.544 20.4555C103.156 20.197 102.777 19.9127 102.39 19.6197C97.7493 22.4287 92.0754 23.6781 86.7459 23.6436C81.3217 23.6091 75.8717 22.2219 71.1621 19.5163C69.8534 20.5848 68.4156 21.4981 66.9777 22.2219C57.3261 27.0902 43.955 25.4273 35.5863 18.2755C23.8683 26.3148 6.69162 20.6967 0.079257 8.48705C-0.290966 7.79773 0.733608 7.18598 1.13827 7.86669C6.00283 16.1731 15.1981 21.0156 24.8412 19.7575C27.8891 19.3612 31.1522 18.3703 33.8987 16.6814C33.2788 16.0352 32.6847 15.3545 32.1423 14.6307C30.3084 12.1922 29.258 9.15058 30.3773 6.16925C31.2813 3.76523 33.5199 1.95572 36.1717 2.26592C38.8838 2.58473 41.0363 5.08354 41.5959 7.6599C42.2675 10.7705 40.6316 13.7949 38.4619 15.9232C38.1864 16.1903 37.9023 16.4402 37.6268 16.69C39.1249 17.8016 40.7349 18.7236 42.1556 19.4387C45.8578 21.3085 50.0336 22.3425 54.1835 22.4028C58.2732 22.4631 62.3973 21.5929 66.0048 19.6455C66.8916 19.163 67.8129 18.5771 68.6997 17.9136C68.4586 17.7412 68.2089 17.5603 67.9679 17.3794C63.6113 14.0275 59.2289 6.60867 64.8253 2.11083C69.5435 -1.68046 75.8889 2.48131 76.6552 7.78911C77.189 11.4856 75.7253 14.7686 73.3749 17.4052C75.0452 18.2669 76.793 18.9562 78.4977 19.4646C85.222 21.4809 93.6855 21.1965 100.057 17.6034C96.7506 14.398 94.2279 10.107 95.4935 5.50575C97.0261 -0.0777798 103.415 -1.88724 107.453 2.29179C111.981 6.9792 109.838 13.6053 105.386 17.4483C105.292 17.5345 105.188 17.6034 105.094 17.6896C111.646 22.2219 120.35 22.9801 127.651 19.4387C129.141 18.7149 131.371 17.3018 133.342 15.544C132.783 15.0184 132.249 14.4497 131.767 13.8466C129.072 10.4861 126.799 2.72261 132.955 1.42151C139.18 0.103178 141.694 7.3669 139.705 12.0457C139.257 13.0969 138.68 14.0965 138.009 15.0357C147.351 20.6795 158.345 15.6388 166.051 9.51243C167.722 8.18548 170.115 10.5723 168.419 11.8992ZM37.489 13.6742C39.3487 11.4943 40.2442 8.19411 38.0659 5.86764C35.1385 2.74844 31.9098 6.4191 32.4437 9.6417C32.7967 11.7786 34.1484 13.6656 35.8704 15.2597C36.4558 14.7686 37.0069 14.2429 37.489 13.6742ZM73.6934 8.01315C73.0649 5.11799 69.9137 2.47274 67.0294 4.33392C64.0332 6.27264 65.2386 10.3569 67.1327 12.6317C68.1917 13.8983 69.4832 15.0098 70.8952 15.9749C72.9702 13.7862 74.3478 11.0548 73.6934 8.01315ZM103.957 14.6996C105.558 13.1314 107.057 10.9256 107.014 8.58187C106.97 6.28987 105.231 3.37744 102.795 3.05863C99.566 2.63642 97.8871 6.2123 98.3692 8.98683C98.7825 11.3736 100.341 13.4502 102.011 15.1304C102.244 15.3631 102.485 15.5699 102.726 15.7939C103.148 15.4579 103.561 15.0874 103.957 14.6996ZM136.829 6.1003C136.494 5.56607 135.796 5.07489 135.237 4.82501C133.98 4.2477 133.566 4.51484 132.791 5.54883C131.793 6.8844 132.171 8.22857 132.852 9.68477C133.48 11.029 134.444 12.2267 135.555 13.2434C137.363 10.96 138.293 8.40954 136.829 6.1003Z" fill="#7083BA"/>
</svg>
