<svg width="198" height="44" viewBox="0 0 198 44" fill="none" xmlns="http://www.w3.org/2000/svg">
<g clip-path="url(#clip0)">
<path d="M20.3095 32.1796V25.4396H14.5795V32.1796H10.1995L15.5195 37.4996C16.5895 38.5696 18.3195 38.5696 19.3895 37.4996L24.7095 32.1796H20.3095ZM7.32953 29.3096V14.8096L2.00953 20.1296C0.939531 21.1996 0.939531 22.9296 2.00953 23.9996L7.32953 29.3096ZM14.5795 11.9496V18.6896H20.3095V11.9496H24.6895L19.3695 6.62965C18.2995 5.55965 16.5695 5.55965 15.4995 6.62965L10.1795 11.9496H14.5795ZM32.8695 20.1296L27.5495 14.8096V29.3096L32.8695 23.9996C33.9395 22.9296 33.9395 21.1996 32.8695 20.1296Z" fill="#DA292B"/>
<path d="M50.1085 19.1815C53.1335 19.1815 55.4626 17.2153 55.8559 14.5231H52.952C52.5587 15.7331 51.4093 16.4893 50.0178 16.4893C48.0516 16.4893 46.6904 15.0676 46.6904 12.9502C46.6904 10.8327 48.0516 9.41103 50.0178 9.41103C51.4093 9.41103 52.5587 10.1673 52.952 11.3772H55.8559C55.4626 8.68505 53.1335 6.71886 50.1085 6.71886C46.5391 6.71886 43.8772 9.35053 43.8772 12.9502C43.8772 16.5498 46.5391 19.1815 50.1085 19.1815ZM59.5511 15.2189H66.7201C66.7806 14.9769 66.7806 14.6441 66.7806 14.4626C66.7806 11.71 64.6632 9.74377 61.9105 9.74377C59.1881 9.74377 57.0404 11.7402 57.0404 14.4626C57.0404 17.2153 58.9764 19.1815 61.9408 19.1815C64.1792 19.1815 65.8127 18.0623 66.4177 16.4288H63.6952C63.3927 16.8221 62.818 17.0338 62.0618 17.0338C60.7006 17.0338 59.8234 16.3381 59.5511 15.2189ZM61.9105 11.8915C62.9995 11.8915 63.8767 12.5267 64.2095 13.5854H59.5814C59.9141 12.5569 60.8216 11.8915 61.9105 11.8915ZM68.8622 22.3274H71.4031V18.0925H71.5846C72.1896 18.7278 73.1878 19.1512 74.1255 19.1512C76.6664 19.1512 78.4511 17.1548 78.4511 14.4626C78.4511 11.7705 76.6664 9.77402 74.1255 9.77402C73.1273 9.77402 72.0988 10.1975 71.4636 10.863H71.2821V9.92527H68.8622V22.3274ZM73.581 16.8221C72.3106 16.8221 71.3123 15.8238 71.3123 14.4626C71.3123 13.1014 72.3106 12.1032 73.581 12.1032C74.8817 12.1032 75.88 13.1317 75.88 14.4626C75.88 15.7936 74.8817 16.8221 73.581 16.8221ZM80.5331 19H86.0384C87.9138 19 89.0633 18.032 89.0633 16.4893C89.0633 15.3399 88.3676 14.6744 87.6719 14.4626V14.2811C88.2163 14.0996 88.9121 13.3434 88.9121 12.4359C88.9121 10.8932 87.7626 9.92527 85.8872 9.92527H80.5331V19ZM83.0135 13.6157V11.8612H85.3124C85.9477 11.8612 86.3409 12.194 86.3409 12.7384C86.3409 13.2829 85.9477 13.6157 85.3124 13.6157H83.0135ZM83.0135 17.0641V15.2794H85.4334C86.0686 15.2794 86.4921 15.6423 86.4921 16.1566C86.4921 16.7011 86.0686 17.0641 85.4334 17.0641H83.0135ZM91.2772 8.38256H93.8786V6.02313H91.2772V8.38256ZM91.3075 19H93.8484V9.92527H91.3075V19ZM100.781 19.1815C103.352 19.1815 104.985 17.6993 105.348 15.6726H102.717C102.414 16.3381 101.718 16.8221 100.781 16.8221C99.4497 16.8221 98.5423 15.8238 98.5423 14.4626C98.5423 13.1014 99.4497 12.1032 100.781 12.1032C101.718 12.1032 102.414 12.5872 102.717 13.2527H105.348C104.985 11.226 103.352 9.74377 100.781 9.74377C97.9675 9.74377 95.9711 11.71 95.9711 14.4626C95.9711 17.2153 97.9675 19.1815 100.781 19.1815ZM55.2811 33.3683V23.9004H45.5712L45.5409 26.048C45.5107 29.3149 45.1477 31.8559 44.573 33.3683H43.3327V38.7224H46.0552V36H54.0712V38.7224H56.7936V33.3683H55.2811ZM47.2954 33.3986C47.8399 31.6744 48.1726 29.2544 48.2633 26.5018H52.4982V33.3986H47.2954ZM62.9203 36.1815C65.7334 36.1815 67.8509 34.1548 67.8509 31.4626C67.8509 28.7705 65.7334 26.7438 62.9203 26.7438C60.1071 26.7438 58.0199 28.7705 58.0199 31.4626C58.0199 34.1548 60.1071 36.1815 62.9203 36.1815ZM62.9203 33.7313C61.6196 33.7616 60.5911 32.7633 60.5911 31.4626C60.5911 30.1619 61.6196 29.1637 62.9203 29.1637C64.221 29.1637 65.2495 30.1619 65.2495 31.4626C65.2495 32.7633 64.221 33.7616 62.9203 33.7313ZM79.1975 36L75.2046 31.4626V31.2206L78.9555 26.9253H76.0516L72.4822 31.0089V26.9253H69.9413V36H72.4822V31.9769L75.9911 36H79.1975ZM86.8802 26.9253L84.5207 33.9431H84.309L81.6773 26.9253H78.8944L83.1293 36.7562C83.0083 36.9377 82.8873 36.9982 82.7058 36.9982H79.8321V39.3274H83.1595C84.3695 39.3274 84.9745 38.7527 85.519 37.3915L89.5118 26.9253H86.8802ZM91.1415 36H93.5311V29.073H93.7429L95.4368 36H98.9457L100.64 29.073H100.821V36H103.241V26.9253H99.0365L97.3123 34.0943H97.161L95.4368 26.9253H91.1415V36ZM107.862 32.2189H115.031C115.091 31.9769 115.091 31.6441 115.091 31.4626C115.091 28.71 112.974 26.7438 110.221 26.7438C107.499 26.7438 105.351 28.7402 105.351 31.4626C105.351 34.2153 107.287 36.1815 110.251 36.1815C112.49 36.1815 114.123 35.0623 114.728 33.4288H112.006C111.703 33.8221 111.129 34.0338 110.372 34.0338C109.011 34.0338 108.134 33.3381 107.862 32.2189ZM110.221 28.8915C111.31 28.8915 112.187 29.5267 112.52 30.5854H107.892C108.225 29.5569 109.132 28.8915 110.221 28.8915ZM123.253 26.9253V30.2527H119.714V26.9253H117.173V36H119.714V32.6726H123.253V36H125.794V26.9253H123.253ZM136.654 26.9253H127.64V29.3149H130.877V36H133.418V29.3149H136.654V26.9253ZM142.741 36.1815C145.554 36.1815 147.671 34.1548 147.671 31.4626C147.671 28.7705 145.554 26.7438 142.741 26.7438C139.927 26.7438 137.84 28.7705 137.84 31.4626C137.84 34.1548 139.927 36.1815 142.741 36.1815ZM142.741 33.7313C141.44 33.7616 140.411 32.7633 140.411 31.4626C140.411 30.1619 141.44 29.1637 142.741 29.1637C144.041 29.1637 145.07 30.1619 145.07 31.4626C145.07 32.7633 144.041 33.7616 142.741 33.7313ZM153.631 36.1815C156.444 36.1815 158.562 34.1548 158.562 31.4626C158.562 28.7705 156.444 26.7438 153.631 26.7438C150.818 26.7438 148.731 28.7705 148.731 31.4626C148.731 34.1548 150.818 36.1815 153.631 36.1815ZM153.631 33.7313C152.331 33.7616 151.302 32.7633 151.302 31.4626C151.302 30.1619 152.331 29.1637 153.631 29.1637C154.932 29.1637 155.96 30.1619 155.96 31.4626C155.96 32.7633 154.932 33.7616 153.631 33.7313ZM165.522 27.3488C164.282 27.3488 163.102 27.863 162.346 28.8007V28.0142C162.346 26.653 163.012 25.9573 164.373 25.9573H168.819V23.5979H164.433C161.681 23.5979 160.138 25.3523 160.138 28.4377V31.4929C160.138 34.2758 162.225 36.1815 164.948 36.1815C167.73 36.1815 169.757 34.2456 169.757 31.6441C169.757 28.8915 167.761 27.3488 165.522 27.3488ZM164.857 33.8221C163.586 33.8221 162.588 32.8238 162.588 31.5836C162.588 30.3132 163.586 29.3452 164.857 29.3452C166.188 29.3452 167.156 30.3132 167.156 31.5836C167.156 32.8541 166.188 33.8221 164.857 33.8221ZM171.811 25.3826H174.413V23.0231H171.811V25.3826ZM171.842 36H174.383V26.9253H171.842V36ZM184.279 26.9253H177.171V36H179.712V29.3149H184.279V26.9253ZM192.865 26.9253L190.505 33.9431H190.293L187.662 26.9253H184.879L189.114 36.7562C188.993 36.9377 188.872 36.9982 188.69 36.9982H185.817V39.3274H189.144C190.354 39.3274 190.959 38.7527 191.503 37.3915L195.496 26.9253H192.865Z" fill="#DA292B"/>
</g>
<defs>
<clipPath id="clip0">
<rect width="198" height="44" fill="white"/>
</clipPath>
</defs>
</svg>
