<?xml version="1.0" standalone="no"?>
<!DOCTYPE svg PUBLIC "-//W3C//DTD SVG 1.1//EN" "http://www.w3.org/Graphics/SVG/1.1/DTD/svg11.dtd" >
<svg xmlns="http://www.w3.org/2000/svg" xmlns:xlink="http://www.w3.org/1999/xlink" version="1.1">
<metadata>
Created by FontForge 20170731 at Tue Oct 22 11:31:19 2019
 By Aleksey,,,
(c) Copiright: Marath Salychow, 26. 10. 2019.
</metadata>
<defs>
<font id="EIisabethische" horiz-adv-x="1000" >
  <font-face 
    font-family="EIisabethische"
    font-weight="400"
    font-stretch="normal"
    units-per-em="1000"
    panose-1="0 0 0 0 0 0 0 0 0 0"
    ascent="686"
    descent="-314"
    x-height="438"
    cap-height="700"
    bbox="-473 -337 5440 921"
    underline-thickness="50"
    underline-position="-149"
    unicode-range="U+000D-F53B"
  />
<missing-glyph horiz-adv-x="514" 
d="M83 634v-576q0 -41 43 -41h262q42 0 42 41v576q0 41 -42 41h-262q-43 0 -43 -41zM31 720h451v-747h-451v747zM230 215h-48v131q14 -1 26.5 -1.5t26.5 -0.5q40 0 69 24q22 17 33.5 43t13.5 51t-4.5 49t-21.5 43q-14 18 -34.5 29t-46.5 11q-9 0 -21 -1.5t-20 -5.5
q-12 -6 -12.5 -12.5t4 -13t11.5 -12.5t10 -12q7 -11 7 -24q0 -23 -15 -35t-39 -12q-20 0 -33 11t-20 27q-3 8 -4.5 11t-1.5 11q0 48 41 81q20 17 44.5 24.5t50.5 7.5q35 0 63.5 -13t48.5 -35q23 -24 34.5 -56.5t11.5 -66.5t-7.5 -65.5t-26.5 -57.5q-11 -14 -26 -26.5
t-35 -20.5q-13 -5 -25.5 -8t-26.5 -7q-27 -6 -27 -35v-33zM151 96q0 23 16 37.5t39 14.5t39 -14.5t16 -37.5q0 -22 -16 -37t-39 -15t-39 15t-16 37z" />
    <glyph glyph-name=".notdef" horiz-adv-x="514" 
d="M83 634v-576q0 -41 43 -41h262q42 0 42 41v576q0 41 -42 41h-262q-43 0 -43 -41zM31 720h451v-747h-451v747zM230 215h-48v131q14 -1 26.5 -1.5t26.5 -0.5q40 0 69 24q22 17 33.5 43t13.5 51t-4.5 49t-21.5 43q-14 18 -34.5 29t-46.5 11q-9 0 -21 -1.5t-20 -5.5
q-12 -6 -12.5 -12.5t4 -13t11.5 -12.5t10 -12q7 -11 7 -24q0 -23 -15 -35t-39 -12q-20 0 -33 11t-20 27q-3 8 -4.5 11t-1.5 11q0 48 41 81q20 17 44.5 24.5t50.5 7.5q35 0 63.5 -13t48.5 -35q23 -24 34.5 -56.5t11.5 -66.5t-7.5 -65.5t-26.5 -57.5q-11 -14 -26 -26.5
t-35 -20.5q-13 -5 -25.5 -8t-26.5 -7q-27 -6 -27 -35v-33zM151 96q0 23 16 37.5t39 14.5t39 -14.5t16 -37.5q0 -22 -16 -37t-39 -15t-39 15t-16 37z" />
    <glyph glyph-name=".null" horiz-adv-x="0" 
 />
    <glyph glyph-name="nonmarkingreturn" unicode="&#xd;" horiz-adv-x="0" 
 />
    <glyph glyph-name="NULL" horiz-adv-x="0" 
 />
    <glyph glyph-name="NULL" horiz-adv-x="0" 
 />
    <glyph glyph-name="space" unicode=" " horiz-adv-x="226" 
 />
    <glyph glyph-name="exclam" unicode="!" horiz-adv-x="253" 
d="M178 496q-4 -21 -7.5 -54.5t-7.5 -74t-8 -86.5t-10 -91h-34q-6 46 -11 91.5t-9.5 86t-8.5 73.5t-8 54q-4 20 -7 38t-6 37q-6 37 -6 55q0 35 20 61q21 25 51 25q29 0 50 -25q21 -26 21 -61q0 -23 -6 -60q-2 -15 -5.5 -32t-7.5 -37zM63 48q0 27 18 45t45 18t45 -18t18 -45
t-18 -44.5t-45 -17.5t-45 17.5t-18 44.5z" />
    <glyph glyph-name="quotedbl" unicode="&#x22;" horiz-adv-x="319" 
d="M75 420l-35 214q0 4 -1 9.5t-1 11.5q0 10 2 20.5t7 19.5t14.5 14.5t24.5 5.5t24.5 -5.5t14.5 -14.5t7 -19.5t2 -20.5q0 -11 -2 -21l-35 -214h-22zM221 420l-35 214q0 4 -1 9.5t-1 11.5q0 10 2 20.5t7 19.5t14.5 14.5t24.5 5.5t24.5 -5.5t14.5 -14.5t7 -19.5t2 -20.5
q0 -11 -2 -21l-35 -214h-22z" />
    <glyph glyph-name="numbersign" unicode="#" horiz-adv-x="647" 
d="M326 604l-44 -174h135l44 174h40l-44 -174h175l-10 -40h-175l-34 -136h175l-10 -40h-175l-43 -174h-40l43 174h-135l-43 -174h-40l43 174h-174l9 40h175l34 136h-175l10 40h175l44 174h40zM238 254h135l34 136h-135z" />
    <glyph glyph-name="dollar" unicode="$" horiz-adv-x="684" 
d="M531 508h-19q-20 49 -51 81t-76 56v-231q14 -3 31.5 -8.5t35.5 -13t35.5 -16t30.5 -17.5q38 -28 52 -63t14 -80q0 -37 -11.5 -73t-42.5 -74q-33 -40 -69.5 -58.5t-75.5 -23.5v-113h-23v113q-28 0 -58 9v-122h-22v132q-9 6 -22 12.5t-27 12t-27.5 9.5t-23.5 4
q-20 0 -34 -13t-22 -31h-26q7 23 11.5 45t4.5 52q0 29 -3 58t-13 65h22q19 -58 55 -103q15 -18 31 -33t30.5 -26t26 -18.5t17.5 -10.5v284q-89 26 -127.5 74t-38.5 108q0 26 8 60t27.5 64t51.5 51t79 23v104h22v-103q16 0 30.5 -4.5t27.5 -10.5v118h23v-125q32 -20 46.5 -25
t20.5 -5q14 0 26.5 7t16.5 23h23q-3 -14 -4 -26.5t-1 -29.5q0 -30 6 -59t12 -49zM362 420v237q-29 15 -58 15v-234zM304 306v-285q15 -6 29.5 -10t28.5 -5v285q-14 3 -29 6t-29 9zM385 283v-277q36 3 57.5 19t32.5 28q19 21 28 49.5t9 54.5q0 29 -12.5 51t-31 37t-41 24.5
t-42.5 13.5zM282 446v226q-26 -1 -47 -10.5t-36 -25t-23 -34.5t-8 -39q0 -47 28.5 -75t85.5 -42z" />
    <glyph glyph-name="percent" unicode="%" horiz-adv-x="851" 
d="M100 522q0 29 7.5 60t31.5 61q26 32 54.5 43t51.5 11t51.5 -11t54.5 -43q24 -30 31.5 -61t7.5 -60t-7.5 -60t-31.5 -61q-26 -32 -54.5 -43t-51.5 -11t-51.5 11t-54.5 43q-24 30 -31.5 61t-7.5 60zM173 567v-90q0 -42 8 -61.5t12 -25.5q8 -11 20.5 -20t31.5 -9t31.5 9
t20.5 20q4 6 12 25.5t8 61.5v90q0 42 -8 61.5t-12 25.5q-8 11 -20.5 20t-31.5 9t-31.5 -9t-20.5 -20q-4 -6 -12 -25.5t-8 -61.5zM661 780l23 -12l-494 -927l-22 13zM461 80q0 29 7.5 60t31.5 61q26 32 54.5 43t51.5 11t51.5 -11t54.5 -43q24 -30 31.5 -61t7.5 -60
t-7.5 -59.5t-31.5 -60.5q-26 -32 -54.5 -43t-51.5 -11t-51.5 11t-54.5 43q-24 30 -31.5 60.5t-7.5 59.5zM534 125v-90q0 -41 8 -60.5t12 -25.5q8 -11 20.5 -20t31.5 -9t31.5 9t20.5 20q4 6 12 25.5t8 60.5v90q0 42 -8 61.5t-12 25.5q-8 11 -20.5 20t-31.5 9t-31.5 -9
t-20.5 -20q-4 -6 -12 -25.5t-8 -61.5z" />
    <glyph glyph-name="ampersand" unicode="&#x26;" horiz-adv-x="843" 
d="M782 56l1 -21q-3 -6 -8.5 -14t-15.5 -16t-25.5 -13.5t-38.5 -5.5q-56 0 -97.5 28.5t-78.5 71.5q-32 -35 -60 -54.5t-53.5 -30t-48.5 -13t-44 -2.5q-42 0 -76.5 6.5t-68.5 34.5q-24 20 -46 58t-22 97q0 61 22 101.5t46 62.5q11 10 25.5 20t29 18t28 14.5t22.5 10.5
q-14 21 -25.5 39t-19.5 35.5t-12.5 36t-4.5 41.5q0 42 16.5 71t38.5 46q29 23 59.5 30t54.5 7q41 0 68 -9t43 -23q13 -11 21.5 -29.5t8.5 -41.5q0 -27 -11.5 -53.5t-32 -50t-49 -43.5t-62.5 -34q20 -32 44.5 -67.5t50.5 -70.5t52.5 -68.5t50.5 -60.5q13 14 26 31t25 37
q11 19 18.5 36.5t7.5 35.5q0 24 -14.5 35t-40.5 11h-34v22h206v-22h-10q-18 0 -35 -9.5t-31 -29.5t-21.5 -37.5t-17 -36.5t-24.5 -41.5t-42 -50.5q16 -20 37 -44.5t40 -41.5q16 -14 35 -25.5t45 -11.5q35 0 48 34zM292 390q-32 -32 -46 -68t-14 -92q0 -58 13.5 -96
t33.5 -60.5t44 -32t45 -9.5q19 0 38.5 6.5t37 17t33 23.5t27.5 25q-33 39 -63 77t-62 83q-26 35 -47.5 67t-39.5 59zM358 449q27 12 50.5 30t40.5 39.5t27 46t10 48.5q0 22 -8 37.5t-20 25t-27.5 13.5t-30.5 4q-11 0 -27 -3.5t-31 -15t-25.5 -32.5t-10.5 -56q0 -6 1 -18.5
t6.5 -30.5t16 -40.5t28.5 -47.5z" />
    <glyph glyph-name="quotesingle" unicode="'" horiz-adv-x="203" 
d="M90 425l-35 214q0 4 -1 9.5t-1 11.5q0 10 2 20.5t7 19.5t14.5 14.5t24.5 5.5t24.5 -5.5t14.5 -14.5t7 -19.5t2 -20.5q0 -11 -2 -21l-35 -214h-22z" />
    <glyph glyph-name="parenleft" unicode="(" horiz-adv-x="297" 
d="M249 784l15 -10q-37 -49 -60.5 -102t-37.5 -114q-6 -29 -14.5 -92.5t-8.5 -174.5t8.5 -175t14.5 -92q14 -60 37.5 -113t60.5 -102l-15 -10q-52 44 -88.5 94.5t-65.5 119.5q-5 10 -15 37t-20.5 64.5t-18.5 83t-8 93.5t8 93.5t18.5 83t20.5 64t15 37.5q29 70 65.5 120.5
t88.5 94.5z" />
    <glyph glyph-name="parenright" unicode=")" horiz-adv-x="297" 
d="M48 -201l-15 10q37 49 60.5 102t37.5 113q7 28 15 92t8 175t-8 174.5t-15 92.5q-14 61 -37.5 114t-60.5 102l15 10q52 -44 88.5 -94.5t65.5 -120.5q4 -11 14.5 -37.5t21 -64t18.5 -83t8 -93.5t-8 -93.5t-18.5 -83t-21 -64.5t-14.5 -37q-29 -69 -65.5 -119.5t-88.5 -94.5z
" />
    <glyph glyph-name="asterisk" unicode="*" horiz-adv-x="423" 
d="M212 479q-17 -26 -27.5 -54t-10.5 -59q0 -3 1 -10t1 -13.5t-1.5 -11.5t-7.5 -5q-9 0 -13.5 10t-9.5 11q-8 1 -17 -8t-15 -13t-10 -4q-8 0 -9 7.5t1 16.5t5 18.5t3 14.5t-4.5 6.5t-9.5 2t-9.5 2.5t-4.5 8t6 9t11 5q17 5 31.5 9.5t28.5 15.5q29 21 50 50q-29 8 -54 8.5
t-53 -8.5q-8 -2 -19 -5t-19 -3q-10 0 -10 4.5t3.5 10t8.5 11t5 8.5q0 5 -6 9t-12.5 8.5t-12.5 10t-6 12.5q0 6 8 9t13 3t9.5 -1.5t9.5 -1.5q9 0 12 6t3.5 13t1.5 13t7 6q3 0 7 -5t6 -7q21 -30 43 -54.5t59 -35.5q0 22 -4 41t-11 36.5t-16.5 34.5t-19.5 36q0 8 3.5 9.5t8 0
t10 -4t8.5 -2.5q5 0 7.5 7.5t4.5 16.5t5 16.5t9 7.5q10 0 13 -7.5t4.5 -17t3.5 -17t10 -7.5q7 0 12.5 4t10.5 4q8 -3 6.5 -10.5t-4.5 -12.5q-4 -6 -8.5 -11.5t-8.5 -12.5q-31 -50 -31 -107v-4q31 14 57 34.5t43 50.5q3 5 6.5 10.5t10.5 5.5q5 0 6.5 -4t2.5 -9.5t1.5 -11
t3.5 -8.5q2 -3 10 -2.5t16.5 0.5t15 -2t6.5 -9q0 -8 -5 -12.5t-11.5 -8.5t-11.5 -8.5t-5 -11.5q0 -3 4 -8.5t7 -11.5t1.5 -10t-11.5 -4q-4 0 -17 3.5t-18 5.5q-28 8 -54 9.5t-53 -9.5q17 -26 45 -46.5t58 -29.5q4 -2 12.5 -5t8.5 -9t-4 -8t-9 -3.5t-9 -4.5t-4 -9
q0 -4 2.5 -12.5t4.5 -16.5t1 -14.5t-8 -6.5q-6 0 -11 4t-10.5 8.5t-11 8.5t-11.5 4l-1 -1l-1 -2l-9 -12t-11 -8q-7 0 -8.5 6t-1.5 11q0 38 -5 72.5t-28 65.5z" />
    <glyph glyph-name="plus" unicode="+" horiz-adv-x="711" 
d="M32 307v46h298v298h50v-298h298v-46h-298v-298h-50v298h-298z" />
    <glyph glyph-name="comma" unicode="," horiz-adv-x="235" 
d="M104 -163l-18 16q11 12 24 29.5t21 33.5q7 13 14 31.5t7 33.5q0 2 -1 6t-8 4q-2 0 -4 -1l-4 -2q-9 -4 -22 -4q-11 0 -26.5 3t-26.5 17q-13 16 -13 42q0 17 5.5 28.5t13.5 18.5q18 18 46 18q17 0 31.5 -7t23.5 -18q7 -8 14 -24t7 -42t-7.5 -51t-22.5 -53q-13 -24 -26 -43
t-28 -36z" />
    <glyph glyph-name="hyphen" unicode="-" horiz-adv-x="304" 
d="M32 229v45h240v-45h-240z" />
    <glyph glyph-name="period" unicode="." horiz-adv-x="225" 
d="M49 48q0 27 18 45t45 18t45 -18t18 -45t-18 -44.5t-45 -17.5t-45 17.5t-18 44.5z" />
    <glyph glyph-name="slash" unicode="/" horiz-adv-x="421" 
d="M-9 -138l436 1022l40 -17l-437 -1020z" />
    <glyph glyph-name="zero" unicode="0" horiz-adv-x="580" 
d="M100 105q-17 27 -28.5 58t-19 63.5t-11 64.5t-3.5 59t3.5 59t11 64.5t19 63.5t28.5 58q36 59 87.5 89.5t102.5 30.5t102.5 -30.5t87.5 -89.5q16 -27 28 -58t19.5 -63.5t11 -64.5t3.5 -59t-3.5 -59t-11 -64.5t-19.5 -63.5t-28 -58q-36 -59 -87.5 -89t-102.5 -30t-102.5 30
t-87.5 89zM174 425v-150q0 -46 0.5 -78.5t2 -56.5t5 -40t9.5 -29q13 -27 38.5 -45.5t60.5 -18.5t60.5 18.5t38.5 45.5q6 13 9.5 29t5 40t2 56.5t0.5 78.5v150q0 46 -0.5 78.5t-2 56.5t-5 40t-9.5 29q-13 27 -38.5 45.5t-60.5 18.5t-60.5 -18.5t-38.5 -45.5q-6 -13 -9.5 -29
t-5 -40t-2 -56.5t-0.5 -78.5z" />
    <glyph glyph-name="one" unicode="1" horiz-adv-x="441" 
d="M185 559h-7q-11 -9 -24 -17t-36 -19t-38 -15.5t-29 -7.5v17q48 12 75.5 29.5t51.5 43.5q21 24 34.5 49.5t19.5 60.5h69v-678h90v-22h-296v22h90v537z" />
    <glyph glyph-name="two" unicode="2" horiz-adv-x="580" 
d="M85 0h-27q3 26 15 63t46 84q32 44 68 75t71 61q47 39 72.5 71t37.5 60.5t14 54.5t2 55v13q0 30 -5 58.5t-29 55.5q-18 20 -42.5 31t-50.5 11q-27 0 -51 -10.5t-41.5 -27t-27.5 -36t-10 -37.5q0 -17 8 -22.5t20 -8.5t24.5 -8t23 -12.5t17.5 -20t7 -30.5q0 -32 -20 -48.5
t-43 -16.5q-17 0 -32.5 7.5t-24.5 18.5q-10 12 -16 31t-6 46q0 45 15.5 83t41.5 64q31 30 68 40t77 10q35 0 78 -9t83 -41q39 -32 55.5 -73t16.5 -92q0 -14 -2 -31.5t-9 -37.5t-19.5 -41t-33.5 -41q-20 -19 -43.5 -33t-50 -27.5t-57 -29t-63.5 -37.5q-38 -26 -59 -47.5
t-35 -41.5h6q12 6 26.5 10t32.5 4q27 0 58 -9t61 -23q17 -8 34.5 -16.5t39.5 -8.5q18 0 34.5 5.5t29 18t20.5 31.5t8 46q0 15 -2 25t-7 20h22q5 -12 7 -23.5t2 -25.5q0 -31 -11 -69.5t-31 -66.5q-27 -38 -62.5 -51.5t-67.5 -13.5q-28 0 -49.5 6.5t-37 15.5t-26 19.5
t-16.5 18.5q-20 25 -35.5 46.5t-32.5 21.5q-3 0 -8.5 -1t-12.5 -5.5t-15 -13.5t-15 -26q-3 -6 -7 -24t-8 -44z" />
    <glyph glyph-name="three" unicode="3" horiz-adv-x="563" 
d="M491 106q-18 -28 -44.5 -50.5t-58 -38.5t-66.5 -24.5t-69 -8.5q-29 0 -59.5 8.5t-53.5 16.5q-46 18 -74.5 54.5t-28.5 88.5q0 35 20 56q10 12 31 23t35 11q12 0 24 -5t21 -13t14.5 -18t5.5 -20q0 -34 -35 -50q-8 -3 -16 -6.5t-15 -8.5q-17 -10 -17 -19q0 -43 43 -65
q22 -11 47.5 -16.5t56.5 -5.5q42 0 67 13.5t42 45.5q17 31 25 71.5t8 80.5q0 38 -6.5 70.5t-20.5 61.5q-15 29 -37 45.5t-60 16.5q-14 0 -20.5 -2t-14.5 -6q-19 -29 -39 -43t-37 -14q-15 0 -22.5 7.5t-7.5 19.5q0 22 26 38q13 8 33.5 13t39.5 8l179 206h-196
q-20 0 -40.5 -12.5t-31.5 -28.5q-22 -28 -28 -71h-22l18 179h359l1 -32l-209 -239l1 -2q5 1 5.5 1.5t5.5 0.5q53 0 105.5 -14.5t85.5 -43.5q65 -57 65 -152q0 -72 -35 -127zM155 382q2 -3 7 -5t12 3q11 7 24.5 21t18.5 24q-19 -7 -28.5 -9.5t-23.5 -11.5q-3 -2 -9 -7.5
t-1 -14.5z" />
    <glyph glyph-name="four" unicode="4" horiz-adv-x="580" 
d="M353 700h68v-492h101v-22h-101v-164h90v-22h-296v22h90v164h-257zM298 561l-208 -353h215v353h-7z" />
    <glyph glyph-name="five" unicode="5" horiz-adv-x="580" 
d="M133 593l-10 -192h6q17 20 33.5 32.5t29.5 19.5q20 11 40 16t43 5q54 0 108 -23t89 -65q29 -35 38.5 -74t9.5 -78q0 -19 -2.5 -42.5t-10.5 -48.5t-22 -50t-38 -47q-25 -23 -67.5 -41.5t-107.5 -18.5q-12 0 -30.5 2t-39.5 9.5t-43 21.5t-41 38q-17 21 -27.5 49t-10.5 57
q0 21 6.5 35.5t17 23.5t23 13t24.5 4q23 0 41.5 -17t18.5 -49q0 -18 -6 -30t-13 -19q-9 -8 -18 -16.5t-9 -26.5q0 -14 9 -27.5t23 -24.5q21 -17 39 -19.5t36 -2.5q35 0 57.5 10.5t37.5 49.5q9 23 13 56.5t4 62.5v93q0 32 -4.5 60.5t-24.5 59.5q-35 53 -96 53q-23 0 -45 -9
t-39 -22q-14 -11 -27.5 -26t-24.5 -36h-23l18 344l16 8q10 -8 23.5 -14.5t33.5 -11t49 -7.5t70 -3q44 0 78 7t72 33l11 -14q-27 -38 -56 -61.5t-60 -36.5t-63.5 -17t-68.5 -4q-23 0 -45 3t-45 8z" />
    <glyph glyph-name="six" unicode="6" horiz-adv-x="580" 
d="M201 398h7q31 31 59.5 37.5t45.5 6.5q43 0 80 -15t64 -40q29 -26 46 -65t17 -93q0 -59 -22.5 -104t-53.5 -77q-34 -35 -70 -48.5t-77 -13.5q-82 0 -144 69q-11 12 -26 34t-29 54.5t-23.5 75.5t-9.5 99q0 43 6 87t18.5 85t31 78t43.5 67q29 36 65 58t81 22q29 0 59.5 -9.5
t55 -27.5t40 -43.5t15.5 -57.5q0 -19 -6.5 -32.5t-16.5 -22.5t-21 -13t-21 -4q-25 0 -44.5 16t-19.5 44q0 19 4 25t9.5 10t9.5 12t4 32q0 15 -18.5 32t-50.5 17q-26 0 -44 -9.5t-29.5 -24t-17.5 -33t-9 -36.5q-2 -13 -3.5 -27.5t-2.5 -36.5t-1.5 -52.5t-0.5 -75.5zM201 365
v-188q0 -56 5 -82t11 -38q8 -17 28.5 -33.5t55.5 -16.5q25 0 40 9.5t23 20.5q15 20 17.5 44t2.5 49v167v14q0 20 -2.5 42t-15.5 38q-11 14 -29 21.5t-36 7.5q-56 0 -100 -55z" />
    <glyph glyph-name="seven" unicode="7" horiz-adv-x="580" 
d="M86 715h22l-4 -84h7q6 7 28 26.5t54 35.5q19 10 41.5 16t47.5 6q29 0 53 -8t48 -24q20 -13 37 -25t34 -12q10 0 22 9.5t12 35.5v7.5t-1 8.5l22 2q1 -5 1 -9.5v-9.5q0 -19 -5 -45t-20 -64t-34 -76.5t-31 -66.5q-10 -23 -17.5 -42.5t-12 -39t-6.5 -42t-2 -51.5
q0 -30 2 -52.5t6 -45.5q4 -26 8.5 -52t4.5 -49q0 -6 -1.5 -19t-8 -26t-20.5 -23t-39 -10q-36 0 -58.5 23.5t-22.5 74.5q0 32 7 63.5t16 60.5q18 55 40 100.5t51 95.5q19 32 33.5 56t26 44.5t20.5 40t18 41.5l-1 7q-21 -9 -49 -16t-60 -7q-8 0 -29 1.5t-65 9.5q-38 7 -58 12
t-35 5q-24 0 -44 -13t-22 -38l-6 -92h-22z" />
    <glyph glyph-name="eight" unicode="8" horiz-adv-x="580" 
d="M407 399q18 -9 37 -22.5t34.5 -34t25 -48t9.5 -63.5q0 -52 -21 -100.5t-53 -80.5q-35 -35 -75 -49.5t-82 -14.5q-49 0 -86.5 16t-64.5 40q-37 34 -50 70t-13 65q0 26 9 54.5t29 54.5q12 16 28.5 30t33.5 25q-30 17 -47.5 38t-27 42t-12.5 40.5t-3 34.5q0 110 86 174
q34 26 67.5 35.5t65.5 9.5q42 0 77 -12t61 -33q21 -17 39.5 -46.5t18.5 -75.5q0 -32 -11 -57t-25 -44t-28.5 -31t-21.5 -17zM383 412q26 14 40.5 33.5t22 38.5t9 35.5t1.5 25.5q0 32 -9.5 60t-37.5 51q-18 15 -45 26t-68 11q-35 0 -64 -11t-49 -29q-17 -16 -28.5 -40
t-11.5 -51q0 -30 15 -52t43 -39q15 -9 38 -17.5t48.5 -16.5t51 -14.5t44.5 -10.5zM187 327q-27 -20 -42 -43t-22.5 -44.5t-9 -39t-1.5 -24.5q0 -40 16.5 -71.5t42.5 -53t58.5 -33t64.5 -11.5q33 0 59.5 12.5t45.5 33.5t29.5 47.5t10.5 54.5q0 44 -18.5 70.5t-41.5 40.5
q-13 8 -36.5 17t-51 17t-55 15t-49.5 12z" />
    <glyph glyph-name="nine" unicode="9" horiz-adv-x="580" 
d="M375 302h-7q-25 -24 -50 -34t-57 -10q-50 0 -83.5 18t-52.5 35q-36 34 -48.5 74t-12.5 86q0 37 14.5 85t59.5 94q33 34 70 49.5t77 15.5q28 0 51.5 -6.5t41.5 -16.5t31.5 -22t22.5 -23q12 -14 26 -36.5t25.5 -54.5t19.5 -74.5t8 -97.5q0 -27 -3 -65t-13.5 -80.5t-30 -87
t-52.5 -84.5q-30 -38 -65.5 -59.5t-80.5 -21.5q-33 0 -63.5 10.5t-54 28.5t-38 42.5t-14.5 52.5q0 39 21 57t44 18q24 0 44 -16t20 -44q0 -11 -3.5 -21t-8.5 -20l-10 -18t-5 -19q0 -17 17 -33.5t52 -16.5q27 0 45 9t29.5 23t17.5 32.5t9 38.5q5 27 7 61t2 65q0 20 -0.5 37
t-1.5 29zM375 334v190q0 45 -2.5 73t-12.5 48q-11 21 -30 34.5t-52 13.5q-20 0 -38 -9t-32 -34q-11 -21 -13.5 -44t-2.5 -41v-163q0 -31 3.5 -54.5t14.5 -37.5q10 -13 27.5 -21.5t37.5 -8.5q27 0 53.5 14.5t46.5 39.5z" />
    <glyph glyph-name="colon" unicode=":" horiz-adv-x="225" 
d="M50.5391 47.5488q0 26.7461 17.8311 44.5771t44.5771 17.8311t44.5771 -17.8311t17.8311 -44.5771t-17.8311 -44.082q-17.8311 -17.335 -44.5771 -17.335t-44.5771 17.335q-17.8311 17.3359 -17.8311 44.082zM49.5391 352.549q0 26.7461 17.8311 44.5771t44.5771 17.8311
t44.5771 -17.8311t17.8311 -44.5771t-17.8311 -44.082q-17.8311 -17.335 -44.5771 -17.335t-44.5771 17.335q-17.8311 17.3359 -17.8311 44.082z" />
    <glyph glyph-name="semicolon" unicode=";" horiz-adv-x="235" 
d="M104.194 -158.603l-17.5146 15.5684q10.7031 11.6758 23.3525 28.7041q12.6494 17.0273 20.4336 32.5957q6.81152 12.6494 13.6221 30.6504q6.81152 18.001 6.81152 32.5967q0 1.94629 -0.972656 5.83789q-0.973633 3.89258 -7.78418 3.89258
q-1.94629 0 -3.89258 -0.973633q-1.94629 -0.972656 -3.8916 -1.94531q-8.75781 -3.89258 -21.4072 -3.89258q-10.7031 0 -25.7852 2.91895q-15.0811 2.91895 -25.7852 16.542q-12.6484 15.5684 -12.6484 40.8662q0 16.542 5.35156 27.7314t13.1357 18.001
q17.5146 17.5146 44.7588 17.5146q16.541 0 30.6504 -6.81152q14.1084 -6.81152 22.8662 -17.5146q6.81055 -7.78418 13.6221 -23.3525q6.81055 -15.5684 6.81055 -40.8662q0 -25.2988 -7.29688 -49.625q-7.29785 -24.3252 -21.8936 -51.5703
q-12.6494 -23.3516 -25.2979 -41.8398q-12.6494 -18.4873 -27.2451 -35.0283zM59.5391 352.549q0 26.7461 17.8311 44.5771t44.5771 17.8311t44.5771 -17.8311t17.8311 -44.5771t-17.8311 -44.082q-17.8311 -17.335 -44.5771 -17.335t-44.5771 17.335
q-17.8311 17.3359 -17.8311 44.082z" />
    <glyph glyph-name="less" unicode="&#x3c;" horiz-adv-x="580" 
d="M443 552h83l-381 -221l390 -221h-88l-402 221z" />
    <glyph glyph-name="equal" unicode="=" horiz-adv-x="711" 
d="M32 237v46h646v-46h-646zM32 377v46h646v-46h-646z" />
    <glyph glyph-name="greater" unicode="&#x3e;" horiz-adv-x="580" 
d="M137 552l398 -221l-402 -221h-88l390 221l-381 221h83z" />
    <glyph glyph-name="question" unicode="?" horiz-adv-x="423" 
d="M181 192h-57v160q16 -2 31.5 -2h30.5q24 0 43.5 7.5t35.5 20.5q25 22 38.5 53.5t15.5 61.5q3 30 -5 59.5t-25 52.5q-16 22 -39 35t-54 13q-11 0 -24.5 -1.5t-22.5 -6.5q-14 -8 -14.5 -15.5t4.5 -15.5t13 -15.5t12 -14.5q8 -13 8 -30q0 -26 -17 -41t-45 -15q-23 0 -38 13
t-23 33l-4.5 13.5t-1.5 13.5q0 60 46 98q46 40 110 40q41 0 73 -16t55 -43q26 -30 40 -69t14 -81t-9 -80t-31 -69q-27 -38 -71 -58q-14 -7 -29 -10t-30 -7q-17 -5 -23.5 -15.5t-6.5 -27.5v-41zM89 48q0 27 18 45t45 18t45 -18t18 -45t-18 -44.5t-45 -17.5t-45 17.5t-18 44.5
z" />
    <glyph glyph-name="at" unicode="@" horiz-adv-x="890" 
d="M541 490l19 54h70l-91 -282q-2 -7 -4 -16.5t-2 -20.5q0 -12 4 -23.5t15 -19.5q14 -11 29.5 -12.5t17.5 -1.5q25 0 52 13t43 27q28 25 48 70.5t20 103.5q0 64 -23.5 117.5t-61.5 89.5q-12 11 -31 25t-46.5 26.5t-63.5 21t-82 8.5q-78 0 -138.5 -28.5t-102.5 -75.5
t-63.5 -106.5t-21.5 -121.5q0 -60 24 -124.5t77 -118.5q27 -28 54.5 -45.5t56.5 -27.5t60 -13.5t66 -3.5q22 0 48 4t52.5 12.5t51.5 22t45 33.5l17 -22q-37 -28 -71.5 -43.5t-64.5 -23t-54 -9t-39 -1.5q-36 0 -68.5 4.5t-63 16t-59 31t-57.5 49.5q-57 60 -80 123.5
t-23 132.5q0 78 25 144t71.5 115t113 76.5t148.5 27.5q27 0 57 -3.5t61 -13.5t62 -28t61 -47q44 -42 67.5 -94t23.5 -121q0 -63 -18.5 -110.5t-47.5 -78.5t-65 -46.5t-71 -15.5q-18 0 -38 5t-37.5 15t-30.5 25.5t-17 36.5q-21 -33 -52.5 -54t-60.5 -21q-21 0 -40 8t-34 24
t-23.5 38.5t-8.5 52.5q0 25 6 52t16 52.5t22.5 48.5t25.5 40q15 19 33 36t38 30t40.5 20t40.5 7t33.5 -6.5t21.5 -16.5t12 -21.5t6 -21.5zM520 419q2 12 4 24.5t2 24.5q0 33 -14 51.5t-34 18.5q-29 0 -57 -32t-50.5 -78.5t-36.5 -99t-14 -93.5q0 -20 4.5 -33t11 -20.5
t14.5 -10.5t15 -3q23 0 46.5 22t44.5 57.5t38 80.5t26 91z" />
    <glyph glyph-name="A" unicode="A" horiz-adv-x="629" 
d="M321 721h26l204 -699h84v-22h-291v22h90l-56 193h-211l-35 -103q-3 -9 -5.5 -22t-2.5 -20q0 -28 22 -38t52 -10h22v-22h-239v22l34 1q32 1 53.5 19t31.5 46zM175 237h196l-83 285h-14z" />
    <glyph glyph-name="B" unicode="B" horiz-adv-x="623" 
d="M50 700h270q51 0 100 -13.5t84 -41.5q31 -24 44 -53t13 -64q0 -51 -32 -89t-114 -64v-6q15 -3 41.5 -12.5t52.5 -30t45 -53.5t19 -83q0 -38 -10.5 -65.5t-24.5 -46.5q-26 -33 -71.5 -55.5t-98.5 -22.5h-318v22h90v656h-90v22zM256 678v-297h59q45 0 65 8.5t28 15.5
q20 18 24 43t4 46v70q0 23 -4 46t-24 41q-18 17 -44.5 22t-48.5 5h-59zM256 359v-337h66q8 0 19.5 0.5t24 3.5t25 8.5t23.5 14.5q21 19 25 41t4 41v120q0 18 -4 41t-24 41q-21 19 -49 22.5t-44 3.5h-66z" />
    <glyph glyph-name="C" unicode="C" horiz-adv-x="600" 
d="M507 705h20q-4 -22 -4.5 -39.5t-0.5 -36.5v-26v-28t0.5 -20.5t1 -18.5t1.5 -21h-22q-6 40 -22.5 72.5t-39.5 56t-51.5 36.5t-56.5 13q-29 0 -48.5 -10t-31.5 -24.5t-18 -29.5t-9 -24q-4 -15 -7.5 -36t-6.5 -44.5t-4.5 -46.5t-1.5 -41v-187q0 -39 3.5 -82t15.5 -79
t36.5 -59t66.5 -23q32 0 70 18t69 59q18 24 32 55t21 63h22q-3 -28 -4 -50.5t-1 -57.5q0 -25 1 -44.5t8 -45.5l-13 -7q-11 14 -28.5 25.5t-33.5 11.5q-17 0 -32.5 -8t-27.5 -16q-11 -7 -32 -15.5t-56 -8.5q-44 0 -81.5 18t-72.5 51q-59 57 -81 124.5t-22 136.5
q0 84 17.5 146.5t53.5 118.5q31 47 63.5 74t60.5 40.5t49.5 16.5t30.5 3q26 0 44 -7.5t29 -12.5q14 -8 26.5 -13t25.5 -5q28 0 41 28z" />
    <glyph glyph-name="D" unicode="D" horiz-adv-x="724" 
d="M50 700h306q46 0 84.5 -12t69.5 -33t55 -48.5t41 -57.5q26 -47 39 -100.5t13 -104.5q0 -62 -18 -124t-57 -113q-5 -7 -21 -24.5t-40.5 -36t-58 -32.5t-74.5 -14h-339v22h90v656h-90v22zM256 678v-656h103q12 0 29 2t36 11t37.5 26t32.5 47q7 15 11.5 33t7.5 41.5t4 53.5
t1 70v88q0 79 -4.5 124t-19.5 74q-17 35 -52.5 60.5t-82.5 25.5h-103z" />
    <glyph glyph-name="E" unicode="E" horiz-adv-x="674" 
d="M256 678v-307h50q26 0 50 7.5t45 42.5q11 18 18.5 44.5t11.5 43.5h22v-298h-22q-4 17 -11.5 43.5t-18.5 44.5q-21 35 -45 42.5t-50 7.5h-50v-327h144q20 0 48 5.5t55.5 26.5t50 61.5t32.5 111.5h22v-227h-558v22h90v656h-90v22h554v-202h-22q-1 34 -13 66.5t-36 57.5
t-60.5 40.5t-84.5 15.5h-132z" />
    <glyph glyph-name="F" unicode="F" horiz-adv-x="670" 
d="M453 211h-22q-4 17 -11.5 43.5t-18.5 44.5q-21 35 -45 42.5t-50 7.5h-50v-327h90v-22h-296v22h90v656h-90v22h554v-202h-22q-1 34 -13 66.5t-36 57.5t-60.5 40.5t-84.5 15.5h-132v-307h50q26 0 50 7.5t45 42.5q11 18 18.5 44.5t11.5 43.5h22v-298z" />
    <glyph glyph-name="G" unicode="G" horiz-adv-x="735" 
d="M574 705h20q-4 -26 -4.5 -47t-0.5 -55v-33.5t0.5 -28t1 -27.5t1.5 -32h-22q-10 73 -31.5 115t-48 63.5t-55 27t-52.5 5.5q-20 0 -40.5 -3t-40.5 -12t-38 -26.5t-31 -47.5q-6 -13 -10.5 -33.5t-8.5 -44t-6 -47t-2 -42.5v-187q0 -83 11 -131.5t29.5 -73.5t43.5 -31.5
t54 -6.5q7 0 19 0.5t26.5 4.5t29 11t26.5 21q16 18 22.5 46.5t6.5 56.5v189h-104v22h321v-22h-101v-273q0 -16 9.5 -30t20.5 -24l-19 -16q-17 18 -36.5 32t-45.5 14q-19 0 -35.5 -8t-33.5 -17q-17 -10 -42 -19t-71 -9q-33 0 -77.5 12t-90.5 54q-50 47 -76.5 115t-26.5 149
q0 33 4 68t12.5 69.5t22 67t32.5 60.5q13 20 34.5 43.5t51.5 43.5t69.5 33.5t88.5 13.5q32 0 52 -5t37 -12q19 -8 34 -14.5t29 -6.5q11 0 22.5 6.5t18.5 21.5z" />
    <glyph glyph-name="H" unicode="H" horiz-adv-x="755" 
d="M140 678h-90v22h296v-22h-90v-303h243v303h-90v22h296v-22h-90v-656h90v-22h-296v22h90v331h-243v-331h90v-22h-296v22h90v656z" />
    <glyph glyph-name="I" unicode="I" horiz-adv-x="396" 
d="M140 678h-90v22h296v-22h-90v-656h90v-22h-296v22h90v656z" />
    <glyph glyph-name="J" unicode="J" horiz-adv-x="539" 
d="M399 678v-455v-7q0 -39 -5.5 -78.5t-36.5 -80.5q-28 -38 -62.5 -54.5t-79.5 -16.5q-20 0 -40.5 4.5t-40.5 16.5q-17 11 -30.5 29t-23 39.5t-15 44.5t-5.5 45q0 29 8 47.5t19.5 28.5t24.5 13.5t23 3.5t22 -3t22 -11t16.5 -21t6.5 -33q0 -9 -1.5 -19t-6 -20t-13.5 -19
t-24 -14q-6 -2 -13 -3.5t-12.5 -5t-9.5 -10.5t-4 -19q0 -14 7.5 -27t20 -23t28.5 -16.5t34 -6.5t34 7.5t25 19.5q8 11 12 31t4 53v560h-90v22h296v-22h-90z" />
    <glyph glyph-name="K" unicode="K" horiz-adv-x="706" 
d="M698 700v-22q-10 -1 -23 -3t-32 -10q-32 -13 -64 -35.5t-56 -51.5l-97 -114l212 -442h90v-22h-291v22h82l-168 351l-95 -115v-236h90v-22h-296v22h90v656h-90v22h296v-22h-90v-393l221 266q4 5 11 14.5t14 20.5t12 23t5 21q0 17 -13.5 32.5t-40.5 15.5h-23v22h256z" />
    <glyph glyph-name="L" unicode="L" horiz-adv-x="615" 
d="M140 678h-90v22h296v-22h-90v-656h106q50 0 85.5 19t58 49.5t34 68t13.5 75.5h22v-234h-525v22h90v656z" />
    <glyph glyph-name="M" unicode="M" horiz-adv-x="845" 
d="M138 678h-88v22h228l149 -472h9l140 472h219v-22h-90v-656h90v-22h-296v22h90v624h-7l-192 -646h-18l-204 646h-5v-557q0 -13 1.5 -24t9.5 -22q11 -15 25.5 -18t26.5 -3h27v-22h-203v22h25q12 0 26.5 3t25.5 18q8 11 9.5 22t1.5 24v589z" />
    <glyph glyph-name="N" unicode="N" horiz-adv-x="752" 
d="M589 222v389q0 13 -1.5 24t-9.5 22q-11 15 -25.5 18t-26.5 3h-27v22h203v-22h-25q-12 0 -26.5 -3t-25.5 -18q-8 -11 -9.5 -22t-1.5 -24v-618h-22l-429 611v-515q0 -13 1.5 -24t9.5 -22q11 -15 25.5 -18t26.5 -3h27v-22h-203v22h25q12 0 26.5 3t25.5 18q8 11 9.5 22
t1.5 24v548q-10 20 -29.5 30.5t-38.5 10.5h-20v22h198l335 -478h6z" />
    <glyph glyph-name="O" unicode="O" horiz-adv-x="730" 
d="M206 392v-84q0 -48 2.5 -101.5t17.5 -97.5t47.5 -73t91.5 -29t91.5 29t47.5 73t17.5 97.5t2.5 101.5v84q0 48 -2.5 101.5t-17.5 97.5t-47.5 73t-91.5 29t-91.5 -29t-47.5 -73t-17.5 -97.5t-2.5 -101.5zM365 715q61 0 115.5 -28.5t95.5 -78t64.5 -116t23.5 -142.5
t-23.5 -142.5t-64.5 -115.5t-95.5 -77.5t-115.5 -28.5q-62 0 -116 28.5t-95 77.5t-64.5 115.5t-23.5 142.5t23.5 142.5t64.5 116t95 78t116 28.5z" />
    <glyph glyph-name="P" unicode="P" horiz-adv-x="599" 
d="M256 678v-332h55q23 0 47.5 4.5t44.5 21.5q21 19 25 41t4 41v116q0 18 -4 41t-24 41q-21 19 -49 22.5t-44 3.5h-55zM50 700h271q70 0 116.5 -16.5t74.5 -43t39.5 -58t11.5 -61.5q0 -39 -13 -75t-45 -63t-87 -43t-140 -16h-22v-302h90v-22h-296v22h90v656h-90v22z" />
    <glyph glyph-name="Q" unicode="Q" horiz-adv-x="730" 
d="M206 392v-84q0 -48 2.5 -101.5t17.5 -97.5t47.5 -73t91.5 -29t91.5 29t47.5 73t17.5 97.5t2.5 101.5v84q0 48 -2.5 101.5t-17.5 97.5t-47.5 73t-91.5 29t-91.5 -29t-47.5 -73t-17.5 -97.5t-2.5 -101.5zM313 -14v6q-13 3 -30 8.5t-36.5 15.5t-40.5 25.5t-42 38.5
q-46 50 -72 116.5t-26 153.5q0 76 23.5 142.5t64.5 116t95 78t116 28.5q61 0 115.5 -28.5t95.5 -78t64.5 -116t23.5 -142.5q0 -73 -22 -141.5t-76 -128.5q-23 -25 -45 -41t-42 -26t-38.5 -15t-33.5 -8v-11q19 -9 33.5 -17t26 -17t22 -18.5t23.5 -19.5q41 -35 64 -44.5
t34 -9.5q21 0 45.5 14t38.5 30l21 -16q-37 -37 -90 -60t-107 -23q-28 0 -49 5.5t-37.5 15.5t-31.5 22.5t-31 27.5q-43 39 -66.5 51.5t-36.5 12.5q-11 0 -24 -5t-26.5 -13t-25.5 -18.5t-21 -22.5l-21 10q11 15 26.5 31t36.5 30.5t46.5 25.5t55.5 15z" />
    <glyph glyph-name="R" unicode="R" horiz-adv-x="650" 
d="M256 678v-306h44q23 0 47.5 4.5t44.5 21.5q21 19 25 41t4 41v91q0 22 -4 41t-25 39t-41.5 23.5t-43.5 3.5h-7h-44zM50 700h272q50 0 95.5 -11.5t75.5 -34.5q32 -24 45.5 -55.5t13.5 -66.5q0 -31 -9.5 -58.5t-37.5 -53.5q-20 -19 -51.5 -34t-63.5 -23v-6q21 -3 42.5 -11
t46.5 -25q37 -25 58 -61t21 -103v-53v-14q0 -18 1 -30.5t7 -21t18.5 -12.5t34.5 -4h37v-22h-51q-27 0 -51 1t-44.5 7t-36.5 19t-26 37q-8 17 -9.5 36t-1.5 42v51q0 41 -2 64.5t-10 41.5q-8 17 -19.5 27t-24.5 15.5t-25.5 7t-22.5 1.5h-76v-328h90v-22h-296v22h90v656h-90v22
z" />
    <glyph glyph-name="S" unicode="S" horiz-adv-x="605" 
d="M498 523h-20q-12 31 -27 56.5t-36 45.5q-28 27 -69 47.5t-87 20.5q-31 0 -54 -10t-38 -26.5t-22.5 -37t-7.5 -41.5q0 -36 15 -58.5t42 -37.5t65 -26t83 -24q33 -9 70.5 -23t68.5 -37t51.5 -58t20.5 -87q0 -41 -12.5 -80.5t-41.5 -77.5q-21 -26 -43 -42t-43.5 -25
t-42 -12.5t-38.5 -3.5q-24 0 -51.5 7t-49.5 15q-36 15 -53 25.5t-33 10.5q-11 0 -28 -10.5t-26 -33.5h-20q5 17 6.5 34.5t1.5 46.5q0 39 -2.5 75.5t-6.5 69.5h20q7 -22 19 -49.5t34 -58.5q37 -51 88 -80.5t105 -29.5q38 0 64.5 12t43.5 33q19 22 28 51t9 55q0 32 -12.5 58
t-49.5 48q-19 11 -37.5 17.5t-40 12t-49 13.5t-64.5 22q-18 7 -42.5 19.5t-47 33.5t-38 52t-15.5 75q0 32 9 68t30.5 66.5t57.5 50.5t89 20q26 0 55 -8t56 -24q11 -6 21.5 -12.5t23.5 -6.5q16 0 24.5 7.5t13.5 21.5h20q-5 -22 -5 -45q0 -8 0.5 -22t2.5 -31t5.5 -36t9.5 -36z
" />
    <glyph glyph-name="T" unicode="T" horiz-adv-x="610" 
d="M453 0h-296v22h90v656l-29 -5q-23 -4 -46 -18.5t-37 -29.5q-12 -13 -21.5 -30t-17 -36t-11.5 -38.5t-5 -37.5h-22l8 217h478l8 -217h-22q-4 37 -17 76t-38 66q-14 15 -37 29.5t-46 18.5l-29 5v-656h90v-22z" />
    <glyph glyph-name="U" unicode="U" horiz-adv-x="741" 
d="M256 678v-509q0 -29 5 -60t25 -56q12 -15 40 -30.5t78 -15.5q33 0 67 8.5t59 28.5q40 31 51 77.5t11 98.5v392q0 13 -1.5 24t-9.5 22q-11 14 -23.5 17t-28.5 3h-27v22h205v-22h-27q-16 0 -28.5 -3t-23.5 -17q-8 -11 -9.5 -22t-1.5 -24v-381q0 -30 -4 -68t-15 -65
q-15 -38 -40 -60t-53 -33.5t-56.5 -15t-50.5 -3.5q-75 0 -132 16.5t-92 61.5q-13 16 -20 32t-10 32t-3.5 31.5t-0.5 30.5v488h-90v22h296v-22h-90z" />
    <glyph glyph-name="V" unicode="V" horiz-adv-x="600" 
d="M10 678v22h282v-22h-87l162 -484h6l105 378q6 20 8.5 31.5t2.5 19.5q0 10 -3 19.5t-11 17.5t-22 13t-36 5v22h197v-22h-4q-18 0 -37 -6t-33 -18q-19 -17 -26 -38.5t-12 -36.5l-165 -593h-20l-232 692h-75z" />
    <glyph glyph-name="W" unicode="W" horiz-adv-x="910" 
d="M459 543l-164 -557h-20l-190 692h-75v22h272v-22h-77l129 -467h6l108 372l-26 95h-75v22h273v-22h-78l129 -466h8l105 357q1 4 3 11t3.5 15.5t3 16.5t1.5 14q0 9 -2.5 18t-9 16.5t-19 12.5t-32.5 5h-28v22h220v-22h-22q-24 0 -40.5 -10.5t-27 -26.5t-17 -36t-12.5 -39
l-171 -580h-22z" />
    <glyph glyph-name="X" unicode="X" horiz-adv-x="683" 
d="M384 411l203 -389h96v-22h-315v22h89l-144 277l-129 -194q-5 -8 -9 -17.5t-4 -22.5q0 -20 13 -31.5t30 -11.5h51v-22h-253v22h32q15 0 33.5 7.5t32.5 18.5q17 13 27 27t19 28l147 228l-180 347h-90v22h295v-22h-75l124 -239l91 141q4 6 10.5 18.5t6.5 24.5
q0 20 -16.5 37.5t-46.5 17.5h-20v22h252v-22h-18q-32 0 -70 -21.5t-63 -61.5z" />
    <glyph glyph-name="Y" unicode="Y" horiz-adv-x="598" 
d="M372 324v-302h90v-22h-296v22h90v282l-166 374h-87v22h289v-22h-72l142 -323l99 225q9 20 11.5 31t2.5 19q0 6 -2.5 14t-8.5 15.5t-17 13t-29 5.5h-17v22h207v-22h-10q-23 0 -41 -8.5t-32 -22.5t-24.5 -31.5t-17.5 -35.5z" />
    <glyph glyph-name="Z" unicode="Z" horiz-adv-x="618" 
d="M417 678h-63q-23 0 -43.5 -2t-40.5 -8.5t-40 -19t-41 -33.5q-33 -33 -50 -69.5t-26 -84.5h-22v239h460l-349 -678h142q41 0 76 21.5t61 54.5t40.5 72.5t14.5 76.5v3h22v-250h-490z" />
    <glyph glyph-name="bracketleft" unicode="[" horiz-adv-x="255" 
d="M7 759h211v-22h-117v-890h117v-22h-211v934z" />
    <glyph glyph-name="backslash" unicode="\" horiz-adv-x="421" 
d="M467 -138l-40 -15l-436 1020l39 17z" />
    <glyph glyph-name="bracketright" unicode="]" horiz-adv-x="255" 
d="M248 -175h-211v22h117v890h-117v22h211v-934z" />
    <glyph glyph-name="asciicircum" unicode="^" horiz-adv-x="465" 
d="M430.77 579.192l-15.3057 -31.4609q-27.0791 9.68066 -48.8604 19.3604q-21.7812 9.68066 -40.6191 19.3604q-17.6611 9.68066 -40.6191 22.3857q-22.959 12.7051 -50.0381 30.8555q-27.0801 -18.1504 -50.627 -30.8555q-23.5479 -12.7051 -40.0303 -22.3857
q-20.0156 -9.67969 -41.208 -19.3604q-21.1934 -9.67969 -48.2725 -19.3604l-15.3057 31.4609q56.5137 29.04 98.3105 64.1309q41.7959 35.0908 72.4072 90.752h49.4502q28.2568 -55.6611 69.4648 -90.752t101.253 -64.1309z" />
    <glyph glyph-name="underscore" unicode="_" horiz-adv-x="490" 
d="M1 -113h490v-36h-490v36z" />
    <glyph glyph-name="grave" unicode="`" horiz-adv-x="260" 
d="M203 498l-112 69q-15 9 -30 21t-15 32q0 19 11.5 30t31.5 11q18 0 30.5 -10t23.5 -26l77 -107z" />
    <glyph glyph-name="a" unicode="a" horiz-adv-x="456" 
d="M277 271v80q0 21 -3.5 37.5t-23.5 31.5q-12 9 -25 12t-27 3q-18 0 -29.5 -4t-18 -10t-8.5 -12.5t-2 -12.5q0 -11 4.5 -18t10.5 -13q5 -5 9 -12.5t4 -21.5q0 -22 -13.5 -33t-30.5 -11t-30.5 11.5t-13.5 37.5q0 36 20 62.5t49 40.5q17 8 31.5 11t29.5 3q20 0 44.5 -5
t51.5 -24q23 -16 42 -44.5t19 -79.5v-226q0 -10 1.5 -23.5t10.5 -24.5t20.5 -14.5t23.5 -3.5h7v-17h-21q-27 0 -51 3t-41 14q-11 8 -19 21t-11 26h-6q-17 -34 -39 -51.5t-56 -17.5q-22 0 -46 7.5t-44 24.5q-27 23 -34.5 49t-7.5 47q0 30 10 50.5t25.5 35t35.5 24t40 15.5
q4 1 11.5 3.5t20.5 6.5t32.5 9t47.5 13zM277 105v148q-12 -3 -27 -7.5t-30 -10t-27.5 -12.5t-20.5 -15q-17 -17 -20.5 -39.5t-3.5 -42.5v-47q0 -29 10.5 -48.5t39.5 -19.5q14 0 28 6t28 23q15 19 19 36t4 29z" />
    <glyph glyph-name="b" unicode="b" horiz-adv-x="519" 
d="M34 700h154v-324h5q15 27 30.5 42t30 23t26.5 10t20 2q38 0 75 -24t62 -69q20 -35 26 -68.5t6 -62.5q0 -42 -9 -81.5t-32 -75.5q-15 -25 -32.5 -41.5t-35 -26.5t-34.5 -14t-30 -4q-23 0 -51.5 13t-50.5 51h-6v-50h-154v18h64v664h-64v18zM188 331v-207q0 -22 9 -43.5
t23.5 -39t31.5 -28t33 -10.5q7 0 17.5 4t20.5 13t19 24t15 38q1 7 3 17.5t3.5 27.5t2.5 42t1 60q0 62 -3.5 93.5t-7.5 48.5q-2 6 -5.5 17t-11 21.5t-19.5 18t-30 7.5q-26 0 -52.5 -26.5t-49.5 -77.5z" />
    <glyph glyph-name="c" unicode="c" horiz-adv-x="427" 
d="M379 164h18q-2 -26 -11 -59.5t-31 -63.5q-23 -32 -50 -43.5t-61 -11.5q-44 0 -75.5 14t-52.5 33q-11 10 -22.5 24.5t-21.5 35t-16 47t-6 60.5q0 24 4 50.5t12.5 53t20.5 50t29 41.5q21 23 54.5 40.5t68.5 17.5q24 0 50.5 -10.5t46.5 -30.5q17 -17 26 -37t9 -41
q0 -8 -2 -17.5t-6.5 -17.5t-13.5 -13t-22 -5q-23 0 -35.5 12.5t-12.5 32.5q0 14 4 23t9 15q5 7 11.5 14.5t6.5 15.5q0 7 -6.5 15.5t-17.5 14.5q-10 5 -23 8t-25 3q-24 0 -41 -10t-28 -36q-2 -6 -5 -16t-5.5 -28t-4.5 -44.5t-2 -65.5v-68q0 -32 2.5 -61t14.5 -54
q12 -23 31 -35t49 -12q43 0 66.5 21t35.5 43q11 20 18.5 44t9.5 51z" />
    <glyph glyph-name="d" unicode="d" horiz-adv-x="528" 
d="M340 125v148q0 22 -5.5 50t-18 52.5t-32.5 41.5t-48 17q-19 0 -32.5 -8.5t-22.5 -19.5q-20 -26 -24.5 -63t-4.5 -71v-17v-72v-32q0 -29 4.5 -62t24.5 -57q13 -15 28.5 -22t28.5 -7q17 0 35 11.5t33 29.5t24.5 39.5t9.5 41.5zM430 18h64v-18h-154v54h-4q-23 -37 -48 -52.5
t-62 -15.5q-36 0 -65.5 14t-49.5 34q-20 19 -31.5 41.5t-18.5 46t-9 46.5t-2 43q0 16 1.5 35.5t6 41t13.5 44t24 45.5q31 46 68 61t70 15q39 0 61.5 -21t39.5 -54h6v304h-64v18h154v-682z" />
    <glyph glyph-name="e" unicode="e" horiz-adv-x="471" 
d="M421 227h-269v-9q0 -30 4.5 -66t15.5 -63q17 -43 41.5 -61.5t60.5 -18.5q38 0 64.5 19.5t41.5 48.5q11 20 16 43t6 44h18q0 -11 -2.5 -33t-13.5 -48q-6 -16 -17.5 -33t-29.5 -31.5t-43.5 -23.5t-59.5 -9q-57 0 -94 22.5t-60 49.5q-29 35 -39.5 73t-10.5 72q0 63 18 106.5
t39 69.5q20 25 40.5 39.5t39.5 22t35 10t27 2.5q15 0 35.5 -4t41.5 -15t40.5 -31t33.5 -51q12 -28 16.5 -59t4.5 -57v-9zM152 245h167q-1 60 -5.5 93t-15.5 55q-14 29 -30.5 35.5t-27.5 6.5q-8 0 -18.5 -3.5t-21 -12.5t-20 -25t-15.5 -41q-6 -23 -9 -54t-4 -54z" />
    <glyph glyph-name="f" unicode="f" horiz-adv-x="301" 
d="M104 420h-64v18h64v29q0 66 15 107t30 63q29 43 63.5 60.5t67.5 17.5q45 0 74 -34q14 -16 19.5 -36t5.5 -39q0 -34 -18 -49.5t-39 -15.5q-17 0 -32 12t-15 35q0 19 8.5 28.5t13.5 14.5t14.5 13t9.5 19q0 3 -1.5 9t-6 11.5t-14.5 9.5t-26 4t-35 -8.5t-33 -37.5
q-8 -16 -9.5 -35.5t-1.5 -44.5v-60v-73h76v-18h-76v-402h70v-18h-224v18h64v402z" />
    <glyph glyph-name="g" unicode="g" horiz-adv-x="533" 
d="M192 48h64q26 0 57.5 -5t52.5 -14q38 -17 55 -45.5t17 -68.5q0 -27 -6.5 -47.5t-16.5 -35.5t-20.5 -25t-19.5 -16q-30 -21 -65.5 -27t-69.5 -6q-35 0 -70.5 5.5t-68.5 26.5q-19 12 -30.5 24.5t-17.5 25t-8 24.5t-2 21q0 26 16.5 52t52.5 39q-35 17 -53.5 43t-18.5 68
q0 26 9 44t26 36q11 12 23 21.5t22 17.5q-8 14 -14.5 34t-6.5 49q0 53 21 85t44 49q28 20 51 25t43 5q6 0 19.5 -1t31 -7t36.5 -18.5t37 -35.5q20 23 35 35t39 12q14 0 27.5 -4t24.5 -13q11 -10 16 -23t5 -26q0 -20 -12 -34t-32 -14q-19 0 -28.5 12t-9.5 24q0 7 3 15t7 13
q5 7 10.5 10.5t5.5 7.5q0 5 -6.5 9.5t-14.5 4.5q-17 0 -34 -15.5t-25 -31.5q8 -12 15 -33.5t7 -53.5q0 -29 -9 -54.5t-31 -48.5q-29 -31 -60.5 -40.5t-57.5 -9.5q-23 0 -46 5t-40 16q-13 8 -24 21t-15 18q-19 -12 -30 -23.5t-17 -22t-8 -20.5t-2 -18q0 -14 5 -25.5t22 -22.5
q14 -8 29 -10.5t31 -2.5h30zM331 273v40q0 16 -2.5 40.5t-10.5 41.5q-5 11 -19.5 25.5t-41.5 14.5t-41.5 -14.5t-19.5 -25.5q-8 -17 -10.5 -41.5t-2.5 -40.5v-40q0 -16 2.5 -40.5t10.5 -41.5q5 -11 19.5 -25.5t41.5 -14.5t41.5 14.5t19.5 25.5q8 17 10.5 41.5t2.5 40.5z
M126 -33q-26 -18 -37.5 -41.5t-11.5 -44.5q0 -10 3.5 -27t19.5 -34t48.5 -29.5t90.5 -12.5q26 0 61.5 5.5t67.5 28.5q19 14 31 34.5t12 38.5q0 6 -4 18t-20 25t-47 22.5t-86 9.5h-4q-24 0 -39.5 -0.5t-27.5 -0.5q-14 0 -26.5 1.5t-30.5 6.5z" />
    <glyph glyph-name="h" unicode="h" horiz-adv-x="532" 
d="M94 18v664h-64v18h154v-332h6q21 30 40.5 47t35.5 25.5t28.5 10.5t19.5 2q28 0 51.5 -12t40.5 -32.5t26.5 -47.5t9.5 -58v-285h64v-18h-212v18h58v283q0 41 -1 58.5t-5 27.5q-5 12 -18 23t-36 11q-15 0 -31 -8t-30 -21.5t-26 -30t-21 -33.5v-310h58v-18h-212v18h64z" />
    <glyph glyph-name="i" unicode="i" horiz-adv-x="288" 
d="M82 635q0 26 17.5 43.5t44.5 17.5q32 0 47.5 -20t15.5 -41q0 -26 -18.5 -44.5t-44.5 -18.5q-21 0 -41.5 15.5t-20.5 47.5zM35 18h64v402h-64v18h218v-18h-64v-402h64v-18h-218v18z" />
    <glyph glyph-name="j" unicode="j" horiz-adv-x="295" 
d="M91 635q0 26 17.5 43.5t44.5 17.5q16 0 27.5 -5.5t19.5 -14.5t12 -20t4 -21q0 -26 -18.5 -44.5t-44.5 -18.5q-21 0 -41.5 15.5t-20.5 47.5zM204 438v-491q0 -22 -1 -39.5t-4.5 -34.5t-11.5 -34.5t-22 -38.5q-20 -31 -50 -54.5t-76 -23.5q-29 0 -54 13.5t-42 36.5
q-12 17 -19.5 40.5t-7.5 52.5q0 43 22.5 64t46.5 21q23 0 38.5 -17.5t15.5 -41.5q0 -12 -8 -27.5t-31 -20.5q-4 -1 -10.5 -3t-12.5 -6t-10.5 -11t-4.5 -18q0 -24 22.5 -44.5t57.5 -20.5q21 0 36.5 9t24.5 31q6 15 8.5 37.5t2.5 64.5v538h-76v18h166z" />
    <glyph glyph-name="k" unicode="k" horiz-adv-x="526" 
d="M516 18v-18h-213v18h58l-104 227l-73 -70v-157h64v-18h-218v18h64v664h-64v18h154v-504l158 157q18 18 26 27.5t8 18.5q0 14 -13 17.5t-26 3.5h-11h-21v18h194v-18h-4q-35 0 -64 -16.5t-56 -42.5l-56 -54l133 -289h64z" />
    <glyph glyph-name="l" unicode="l" horiz-adv-x="278" 
d="M94 18v664h-64v18h154v-682h64v-18h-218v18h64z" />
    <glyph glyph-name="m" unicode="m" horiz-adv-x="786" 
d="M602 18v283q0 33 -1 52.5t-6 33.5q-8 20 -22.5 27t-26.5 7q-21 0 -47.5 -18t-55.5 -71v-314h54v-18h-198v18h54v283v26q0 17 -1.5 31.5t-6.5 28.5q-7 16 -18 25t-31 9q-23 0 -48 -19t-54 -70v-314h64v-18h-218v18h64v402h-64v18h154v-70h5q22 35 51 60t69 25q32 0 65 -21
t50 -66h8q8 13 20.5 28t28.5 28t35.5 22t40.5 9q23 0 45.5 -8.5t40 -27t28.5 -47t11 -67.5v-285h64v-18h-212v18h58z" />
    <glyph glyph-name="n" unicode="n" horiz-adv-x="546" 
d="M362 18v283q0 33 -1 52.5t-6 33.5q-8 18 -21.5 26t-30.5 8q-30 0 -56.5 -20.5t-52.5 -68.5v-314h64v-18h-218v18h64v402h-64v18h154v-71q19 30 39 47.5t37.5 26t32.5 10.5t24 2q59 0 92 -42t33 -108v-285h64v-18h-212v18h58z" />
    <glyph glyph-name="o" unicode="o" horiz-adv-x="471" 
d="M236 453q39 0 74.5 -20t63 -53t44 -75.5t16.5 -86.5q0 -14 -4.5 -45t-23.5 -69q-12 -24 -29.5 -45t-39 -37.5t-47 -26t-54.5 -9.5t-55 9.5t-47.5 26t-38.5 37.5t-29 45q-10 19 -15.5 36.5t-8.5 32.5t-3.5 26.5t-0.5 18.5q0 44 16.5 86.5t44 75.5t63 53t74.5 20zM140 256
v-80q0 -29 1 -54t9 -51q3 -10 8.5 -22t15.5 -22t25 -17t37 -7t37 7t25 17t15.5 22t8.5 22q8 26 9 51t1 54v80q0 32 -1 59.5t-9 52.5q-7 21 -17 34.5t-22 20.5t-24.5 9.5t-22.5 2.5q-11 0 -23 -2.5t-24 -9.5t-22.5 -20.5t-16.5 -34.5q-8 -25 -9 -52.5t-1 -59.5z" />
    <glyph glyph-name="p" unicode="p" horiz-adv-x="520" 
d="M188 382h6q26 44 53 57.5t56 13.5q24 0 43.5 -7t35.5 -17.5t28.5 -23.5t20.5 -25q25 -38 32 -79.5t7 -70.5q0 -66 -18 -112.5t-42 -75.5q-26 -31 -54 -43.5t-63 -12.5q-2 0 -13.5 1t-26.5 7t-31 19t-28 37h-6v-301h70v-18h-224v18h64v671h-64v18h154v-56zM189 327v-203
q0 -21 8.5 -42.5t22.5 -39t31 -28.5t34 -11q8 0 18 2.5t20.5 11t19.5 24t15 41.5q3 13 6.5 45t3.5 100q0 33 -1 56.5t-2.5 40t-3 28t-3.5 19.5q-2 7 -5.5 18t-11 21t-19 17.5t-29.5 7.5t-33 -8t-27 -21q-14 -15 -25.5 -35.5t-18.5 -43.5z" />
    <glyph glyph-name="q" unicode="q" horiz-adv-x="520" 
d="M316 382v56h154v-18h-64v-671h64v-18h-224v18h70v301h-6q-14 -24 -29 -37t-29.5 -19t-25.5 -7t-16 -1q-34 0 -62 12t-54 44q-9 10 -19.5 27t-19.5 40t-15 53.5t-6 69.5q0 14 1.5 31.5t5.5 37t11.5 40t20.5 39.5q8 12 20.5 25t28.5 23.5t35.5 17.5t43.5 7q29 0 56 -13.5
t53 -57.5h6zM315 124v203q-7 23 -18.5 43.5t-25.5 35.5q-12 13 -27 21t-33 8t-29.5 -7.5t-19 -17.5t-11 -21t-5.5 -18q-2 -8 -3.5 -19.5t-3 -28t-2.5 -40t-1 -56.5q0 -68 3.5 -100t6.5 -45q11 -46 31.5 -62.5t40.5 -16.5q17 0 34.5 11t31.5 28.5t22.5 39t8.5 42.5z" />
    <glyph glyph-name="r" unicode="r" horiz-adv-x="408" 
d="M104 18v402h-64v18h154v-69h6q11 17 26 35t28 27q12 9 28.5 15.5t32.5 6.5q14 0 29.5 -6t26.5 -15q15 -13 20 -28.5t5 -31.5q0 -34 -16.5 -50t-36.5 -16q-23 0 -37 15t-14 35q0 18 6 27.5t11 14.5q14 14 14 22q0 5 -4.5 10t-16.5 5q-13 0 -25 -6.5t-22.5 -15.5
t-18.5 -19.5t-14 -18.5q-8 -12 -15.5 -24t-12.5 -32v-301h64v-18h-218v18h64z" />
    <glyph glyph-name="s" unicode="s" horiz-adv-x="419" 
d="M317 447h17q-2 -13 -3 -28t-1 -33q0 -26 3 -45.5t10 -39.5h-18q-16 55 -56 92q-24 23 -46.5 32.5t-42.5 9.5q-33 0 -51 -18q-8 -8 -13.5 -21.5t-5.5 -30.5q0 -13 6 -25.5t22 -25.5q20 -17 52.5 -27.5t77.5 -27.5q18 -7 35.5 -15.5t31 -21t22 -30.5t8.5 -44
q0 -38 -12.5 -66.5t-26.5 -46.5q-16 -20 -38 -34.5t-57 -14.5q-18 0 -35.5 4t-31.5 10q-15 8 -27 17t-22 9q-7 0 -15.5 -6.5t-10.5 -29.5h-18q5 14 7 28.5t2 36.5q0 21 -2 48.5t-8 59.5h18q1 -15 5 -31.5t10 -33t13.5 -31t16.5 -23.5q15 -17 41 -29t55 -12q22 0 38 6.5
t30 24.5q8 11 14 26.5t6 29.5q0 15 -8 32t-34 33q-15 10 -38 17.5t-48 15.5t-48.5 19.5t-39.5 28.5q-19 20 -24 40t-5 39q0 36 10 62.5t28 44.5q17 17 36 24t35 7q8 0 27 -4t46 -21q16 -10 24.5 -17.5t16.5 -7.5t15 7.5t7 29.5v7z" />
    <glyph glyph-name="t" unicode="t" horiz-adv-x="346" 
d="M108 442v150q23 2 43.5 14.5t31.5 35.5h15v-200h76v-18h-76v-325v-19q0 -15 1 -27.5t4.5 -22t10.5 -15t20 -5.5q9 0 18.5 5.5t17 19.5t12.5 38t6 62h18q0 -6 -1 -19t-3 -28t-5.5 -31t-9.5 -28q-9 -20 -25 -31.5t-42 -11.5q-19 0 -40 9.5t-41 37.5q-21 31 -26 61t-5 47
v283h-64v18h64z" />
    <glyph glyph-name="u" unicode="u" horiz-adv-x="471" 
d="M314 0v67q-18 -30 -49.5 -55t-75.5 -25q-24 0 -46 8.5t-39 27t-27 46.5t-10 67v281h-51v21h141v-300v-52q1 -19 6 -33q8 -19 20 -25.5t30 -6.5q6 0 17 1.5t25 10t29.5 26.5t29.5 51v307h-51v21h141v-417h51v-21h-141z" />
    <glyph glyph-name="v" unicode="v" horiz-adv-x="497" 
d="M56 420h-65v18h235v-18h-80l129 -310h9l84 228q3 8 7 21.5t4 19.5q0 5 -2 12t-8 13.5t-17.5 11t-31.5 4.5h-13v18h186v-18h-13q-21 0 -36.5 -7t-24.5 -15q-15 -13 -21 -27.5t-11 -28.5l-132 -356h-18z" />
    <glyph glyph-name="w" unicode="w" horiz-adv-x="735" 
d="M348 337l-31 83h-65v18h220v-18h-65l113 -304h7l79 223q8 22 10 28.5t2 9.5q0 6 -2 13.5t-8.5 14t-18 11t-30.5 4.5h-21v18h193v-18h-11q-24 0 -41 -10t-28 -24t-17.5 -28t-9.5 -22l-128 -350h-17l-122 327l-124 -327h-18l-162 434h-62v18h219v-18h-67l115 -309h6z" />
    <glyph glyph-name="x" unicode="x" horiz-adv-x="428" 
d="M193 201l-117 219h-64v18h212v-18h-58l75 -140l92 140h-59v18h141v-18h-64l-101 -156l130 -246h64v-18h-218v18h64l-89 167l-111 -167h62v-18h-144v18h64z" />
    <glyph glyph-name="y" unicode="y" horiz-adv-x="382" 
d="M226 0l-172 420h-69v18h225v-18h-66l115 -280h5l63 280h-60v18h135v-18h-57l-87 -376q-7 -28 -10.5 -46.5t-6.5 -34.5t-6.5 -32.5t-9.5 -40.5q-10 -42 -20 -70t-24 -49q-16 -25 -34 -37t-47 -12q-27 0 -45.5 7t-29.5 15q-22 17 -27.5 35t-5.5 32q0 42 19 62t45 20
t40 -17.5t14 -39.5q0 -13 -6 -25t-17 -19q-9 -5 -17.5 -8.5t-8.5 -17.5q0 -6 7 -16t34 -10q9 0 20.5 3t25.5 17q20 20 33.5 52.5t25.5 83.5q4 16 9 42.5t10 61.5z" />
    <glyph glyph-name="z" unicode="z" horiz-adv-x="470" 
d="M321 420h-55q-29 0 -58.5 -5.5t-56.5 -33.5q-15 -16 -27 -41t-18 -50h-18v148h334l-263 -420h98q7 0 18 1.5t25 7t29 17t29 31.5q11 15 21 37t16 40h18v-152h-355z" />
    <glyph glyph-name="braceleft" unicode="{" horiz-adv-x="428" 
d="M368 759v-20h-9q-15 0 -33 -2t-35 -6.5t-32.5 -12t-24.5 -18.5q-9 -10 -13.5 -23.5t-6.5 -27t-2 -26.5v-23q0 -32 3 -48t7 -33q4 -14 8 -33t4 -46q0 -49 -19 -86.5t-69 -53.5v-11q47 -15 67.5 -50t20.5 -95q0 -26 -4 -45.5t-8 -33.5q-4 -17 -7 -34t-3 -49v-22t2 -24.5
t6.5 -25t13.5 -22.5q9 -11 24.5 -19t32.5 -13t35 -7.5t33 -2.5h9v-20h-15q-42 0 -87 10.5t-76 31.5q-40 28 -52 63t-12 64q0 11 -1 23t1 24q4 25 9 50t5 50q0 16 -2.5 36t-11.5 39q-8 17 -25 34.5t-42 29.5v19q25 12 42 31t25 36q9 19 11.5 39t2.5 36q0 25 -5 50t-9 50
q-2 12 -1 24t1 24q0 29 12 64t52 63q31 21 76 31.5t87 10.5h15z" />
    <glyph glyph-name="bar" unicode="|" horiz-adv-x="208" 
d="M80 0v700h48v-700h-48z" />
    <glyph glyph-name="braceright" unicode="}" horiz-adv-x="428" 
d="M59 -174v20h9q15 0 32.5 2.5t34 7.5t31.5 13t24 19q18 20 21.5 47t3.5 47q0 32 -2.5 49t-7.5 34q-3 14 -7.5 33t-4.5 46q0 49 19 89t69 56v6q-47 15 -67.5 50t-20.5 95q0 26 4.5 45.5t7.5 33.5q5 17 7.5 34.5t2.5 49.5q0 20 -3.5 47t-21.5 47q-9 11 -24 19t-31.5 13
t-34 7.5t-32.5 2.5h-9v20h15q42 0 87 -10.5t76 -31.5q40 -28 52 -63t12 -64q0 -12 -1 -24t-3 -24q-3 -25 -6.5 -50t-3.5 -50q0 -16 3 -36t12 -39q8 -17 24.5 -34.5t41.5 -29.5v-22q-25 -12 -41.5 -29.5t-24.5 -34.5q-9 -19 -12 -39t-3 -36q0 -25 3.5 -50t6.5 -50
q2 -12 3 -24t1 -23q0 -29 -12 -64t-52 -63q-31 -21 -76 -31.5t-87 -10.5h-15z" />
    <glyph glyph-name="asciitilde" unicode="~" horiz-adv-x="509" 
d="M57 363l-5 11q13 13 29 27t33 25q1 1 9.5 6t20 10t25 9.5t25.5 4.5q20 0 45 -11.5t52 -25.5q42 -23 61.5 -31.5t33.5 -8.5q16 0 34 10t30 24l8 -9q-5 -8 -19 -22.5t-34 -28.5q-3 -2 -11 -7t-19 -10t-24.5 -9t-27.5 -4q-23 0 -48.5 11t-53.5 26q-34 18 -53.5 26t-33.5 8
q-17 0 -39.5 -10t-37.5 -21z" />
    <glyph glyph-name="uni00A0" unicode="&#xa0;" horiz-adv-x="233" 
 />
    <glyph glyph-name="sterling" unicode="&#xa3;" horiz-adv-x="714" 
d="M512 381v-22h-175q3 -18 4.5 -38t1.5 -37q0 -35 -8 -78.5t-31 -93.5q57 -20 102.5 -35.5t86.5 -15.5q40 0 68 13t48 36q13 16 23.5 37.5t15.5 35.5h22q-5 -17 -14.5 -45t-22.5 -52q-17 -32 -38 -51.5t-42 -30t-40.5 -13.5t-33.5 -3q-27 0 -56 7.5t-52 16.5
q-22 10 -47 24.5t-47 30.5q-10 -14 -22.5 -27.5t-25.5 -22.5q-22 -14 -48.5 -21.5t-50.5 -7.5q-18 0 -34.5 3.5t-27.5 11.5t-17.5 22t-6.5 31q0 14 7.5 32t30.5 33q21 14 43.5 17t41.5 3q23 0 42.5 -3t40.5 -11q9 24 12 43t3 42q0 44 -4.5 82.5t-9.5 64.5h-122v22h119
q-7 29 -10 61t-3 63q0 14 2 32.5t8.5 38t19.5 39.5t34 38q22 19 51.5 29.5t63.5 10.5q32 0 55.5 -9t38.5 -24q11 -11 21 -29.5t10 -46.5q0 -11 -3 -22.5t-13 -22.5q-17 -21 -47 -21q-23 0 -39 13q-8 7 -13 17.5t-5 21.5q0 12 6.5 24.5t17.5 19.5q8 5 15 8.5t7 14.5
q0 6 -6 14t-12 12t-16.5 6.5t-20.5 2.5q-24 0 -44.5 -11.5t-31.5 -30.5q-11 -18 -14.5 -42.5t-3.5 -44.5q0 -3 3 -40.5t17 -121.5h176zM239 93q-19 12 -42 19.5t-46 7.5q-12 0 -28 -3t-30 -12t-21.5 -22t-7.5 -26q0 -9 4 -19.5t16 -19.5q8 -6 20.5 -10t26.5 -4q17 0 36 7
t37 24q11 11 20 25.5t15 32.5z" />
    <glyph glyph-name="section" unicode="&#xa7;" horiz-adv-x="489" 
d="M369 144q30 -24 44 -49t14 -62q0 -57 -24 -103q-24 -45 -67 -71q-22 -13 -46 -18.5t-51 -6.5q-31 0 -58 8.5t-46.5 24t-31 37t-11.5 47.5q0 16 5.5 30t15.5 24.5t22 16t26 5.5q24 0 43 -17q20 -17 20 -44q0 -24 -17 -44q-17 -19 -39 -19q-7 0 -24 10q-13 8 -17 8
q-2 0 -2 -2q0 -24 34 -42q35 -20 77 -20q60 0 97 28q36 27 36 72q0 41 -24 62q-13 11 -29.5 22t-39.5 20q-15 7 -33.5 13t-40.5 14q-41 16 -77 39q-33 21 -56 57q-22 35 -22 86q0 52 17.5 90.5t58.5 79.5q-34 47 -34 112q0 53 24 98q23 45 63 70t87 27q58 0 97 -29.5
t39 -80.5v-7q0 -35 -20 -56q-19 -22 -44 -22q-28 0 -49 18q-21 16 -21 43q0 30 17 47q16 19 42 19q14 0 22 -7q4 -3 8 -7t8 -10q8 -9 12 -9l1 1q0 1 0.5 2.5t0.5 4.5q0 17 -13 33q-12 16 -36 27q-21 10 -49 10h-15q-52 0 -85 -30q-33 -31 -33 -76q0 -32 19.5 -59t61.5 -44
l85 -34q8 -5 16 -9t18 -8q46 -19 71 -59q26 -42 26 -96q0 -96 -73 -165zM393 290q-11 15 -35 28q-13 8 -33 17t-49 21q-19 8 -37 15t-36 15q-19 8 -33.5 17t-30.5 22q-51 -39 -51 -88q0 -34 27 -58q29 -27 80 -49q26 -12 49 -22.5t44 -19.5q20 -8 34.5 -16t24.5 -16
q26 19 40 45q15 27 15 54q0 21 -9 35z" />
    <glyph glyph-name="copyright" unicode="&#xa9;" horiz-adv-x="1091" 
d="M688 560h16q-5 -17 -7 -32t-2 -37q0 -24 2.5 -43.5t4.5 -33.5h-15q-6 37 -20.5 63t-33.5 42.5t-40.5 24.5t-40.5 8q-33 0 -52.5 -18.5t-29.5 -47.5t-13 -64t-3 -69v-147q0 -39 3.5 -73.5t14 -60.5t30 -41t52.5 -15q26 0 50 13t43.5 34.5t33.5 49t20 56.5h15
q-4 -19 -5.5 -36.5t-1.5 -34.5q0 -25 3 -45.5t7 -37.5l-10 -6q-9 13 -22.5 21t-27.5 8q-13 0 -24 -6.5t-21 -12.5q-9 -5 -25 -12t-43 -7q-38 0 -74 18.5t-64.5 53t-45.5 84t-17 111.5q0 74 20.5 130.5t51 94.5t67.5 57t70 19q20 0 36 -5.5t26 -10.5q12 -6 21.5 -10t18.5 -4
q8 0 17.5 5.5t14.5 16.5zM100 267q0 94 35 176t95 142.5t141 95t174 34.5t174 -34.5t141.5 -95t95.5 -142.5t35 -176q0 -93 -35 -174t-95 -140.5t-141.5 -93.5t-174.5 -34t-174 34t-141.5 93.5t-95 140.5t-34.5 174zM129 267q0 -86 32.5 -161t89 -131t132 -88.5t162.5 -32.5
q85 0 161 32t133 88t90 131.5t33 161.5q0 87 -33 163.5t-89.5 133t-132.5 89.5t-162 33q-87 0 -163 -33t-132 -90t-88.5 -133t-32.5 -163z" />
    <glyph glyph-name="guillemotleft" unicode="&#xab;" horiz-adv-x="391" 
d="M111 219l66 -153h-21l-131 153l131 153h21zM301 219l66 -153h-21l-131 153l131 153h21z" />
    <glyph glyph-name="registered" unicode="&#xae;" horiz-adv-x="1092" 
d="M616 389v60v10q0 14 -2.5 28.5t-16.5 26.5q-14 13 -33.5 16t-36.5 3h-33v-227h33h3h12.5t18.5 1.5t19.5 5t16.5 9.5q14 13 16.5 31.5t2.5 35.5zM341 550h202q10 0 25 -1t32.5 -4.5t36 -10t33.5 -18.5q20 -16 31.5 -38t11.5 -53t-10.5 -51t-23.5 -32q-17 -15 -41.5 -26
t-44.5 -16v-5q14 -2 32 -7t34 -16q21 -14 33 -31t17.5 -34t6.5 -32.5t1 -25.5v-3v-39q0 -36 8 -48t39 -12h27v-17h-45q-46 0 -71.5 8.5t-37.5 23t-14.5 32.5t-2.5 37v12v62q0 10 -2 24.5t-10 28t-23 23.5t-42 10h-49v-245h67v-16h-220v16h67v488h-67v16zM100 267
q0 94 35 176t95.5 142.5t141.5 95t174 34.5t174 -34.5t141.5 -95t95.5 -142.5t35 -176q0 -93 -35 -174t-95 -140.5t-141.5 -93.5t-174.5 -34t-174.5 34t-141.5 93.5t-95 140.5t-35 174zM129 267q0 -86 32.5 -161t89 -131t132.5 -88.5t163 -32.5q85 0 161 32t133 88t90 131.5
t33 161.5q0 87 -33 163.5t-89.5 133t-132.5 89.5t-162 33q-87 0 -163 -33t-132.5 -90t-89 -133t-32.5 -163z" />
    <glyph glyph-name="degree" unicode="&#xb0;" horiz-adv-x="307" 
d="M64 578q0 -38 25.5 -63.5t63.5 -25.5t63.5 25.5t25.5 63.5t-25.5 63.5t-63.5 25.5t-63.5 -25.5t-25.5 -63.5zM36 578q0 24 9 45.5t25 37.5t37.5 25t45.5 9t45.5 -9t37.5 -25t25 -37.5t9 -45.5t-9 -45.5t-25 -37.5t-37.5 -25t-45.5 -9t-45.5 9t-37.5 25t-25 37.5t-9 45.5z
" />
    <glyph glyph-name="plusminus" unicode="&#xb1;" horiz-adv-x="711" 
d="M32 357v46h298v249h50v-249h299v-46h-299v-249h-50v249h-298zM32 0v46h647v-46h-647z" />
    <glyph glyph-name="paragraph" unicode="&#xb6;" horiz-adv-x="682" 
d="M226 -229v22h90v497h-4q-39 0 -72.5 12t-58.5 29q-32 23 -56.5 62t-24.5 101q0 32 7 57.5t18.5 45.5t26.5 35t30 26q42 30 83 36t75 6h242v-22h-90v-885h90v-22h-130v907h-96v-907h-130z" />
    <glyph glyph-name="guillemotright" unicode="&#xbb;" horiz-adv-x="390" 
d="M24 372h21l131 -153l-131 -153h-21l66 153zM214 372h21l131 -153l-131 -153h-21l66 153z" />
    <glyph glyph-name="Aumlaut" unicode="&#xc4;" horiz-adv-x="629" 
d="M321 721h26l204 -699h84v-22h-291v22h90l-56 193h-211l-35 -103q-3 -9 -5.5 -22t-2.5 -20q0 -28 22 -38t52 -10h22v-22h-239v22l34 1q32 1 53.5 19t31.5 46zM175 237h196l-83 285h-14zM391.967 805.131q0 22.5732 15.0488 37.623q15.0498 15.0488 37.623 15.0488
t37.623 -15.0488q15.0488 -15.0498 15.0488 -37.623t-15.0488 -37.2051q-15.0498 -14.6309 -37.623 -14.6309t-37.623 14.6309q-15.0488 14.6318 -15.0488 37.2051zM161.967 805.131q0 22.5732 15.0488 37.623q15.0498 15.0488 37.623 15.0488t37.623 -15.0488
q15.0488 -15.0498 15.0488 -37.623t-15.0488 -37.2051q-15.0498 -14.6309 -37.623 -14.6309t-37.623 14.6309q-15.0488 14.6318 -15.0488 37.2051z" />
    <glyph glyph-name="Iumlaut" unicode="&#xcf;" horiz-adv-x="396" 
d="M140 678h-90v22h296v-22h-90v-656h90v-22h-296v22h90v656zM259.967 805.131q0 22.5732 15.0488 37.623q15.0498 15.0488 37.623 15.0488t37.623 -15.0488q15.0488 -15.0498 15.0488 -37.623t-15.0488 -37.2051q-15.0498 -14.6309 -37.623 -14.6309t-37.623 14.6309
q-15.0488 14.6318 -15.0488 37.2051zM31.9668 805.131q0 22.5732 15.0488 37.623q15.0498 15.0488 37.623 15.0488t37.623 -15.0488q15.0488 -15.0498 15.0488 -37.623t-15.0488 -37.2051q-15.0498 -14.6309 -37.623 -14.6309t-37.623 14.6309
q-15.0488 14.6318 -15.0488 37.2051z" />
    <glyph glyph-name="Oumlaut" unicode="&#xd6;" horiz-adv-x="730" 
d="M206 392v-84q0 -48 2.5 -101.5t17.5 -97.5t47.5 -73t91.5 -29t91.5 29t47.5 73t17.5 97.5t2.5 101.5v84q0 48 -2.5 101.5t-17.5 97.5t-47.5 73t-91.5 29t-91.5 -29t-47.5 -73t-17.5 -97.5t-2.5 -101.5zM365 715q61 0 115.5 -28.5t95.5 -78t64.5 -116t23.5 -142.5
t-23.5 -142.5t-64.5 -115.5t-95.5 -77.5t-115.5 -28.5q-62 0 -116 28.5t-95 77.5t-64.5 115.5t-23.5 142.5t23.5 142.5t64.5 116t95 78t116 28.5zM426.967 805.131q0 22.5732 15.0488 37.623q15.0498 15.0488 37.623 15.0488t37.623 -15.0488
q15.0488 -15.0498 15.0488 -37.623t-15.0488 -37.2051q-15.0498 -14.6309 -37.623 -14.6309t-37.623 14.6309q-15.0488 14.6318 -15.0488 37.2051zM196.967 805.131q0 22.5732 15.0488 37.623q15.0498 15.0488 37.623 15.0488t37.623 -15.0488
q15.0488 -15.0498 15.0488 -37.623t-15.0488 -37.2051q-15.0498 -14.6309 -37.623 -14.6309t-37.623 14.6309q-15.0488 14.6318 -15.0488 37.2051z" />
    <glyph glyph-name="Uumlaut" unicode="&#xdc;" horiz-adv-x="741" 
d="M255 678v-509q0 -29 5 -60t25 -56q12 -15 40 -30.5t78 -15.5q33 0 67 8.5t59 28.5q40 31 51 77.5t11 98.5v392q0 13 -1.5 24t-9.5 22q-11 14 -23.5 17t-28.5 3h-27v22h205v-22h-27q-16 0 -28.5 -3t-23.5 -17q-8 -11 -9.5 -22t-1.5 -24v-381q0 -30 -4 -68t-15 -65
q-15 -38 -40 -60t-53 -33.5t-56.5 -15t-50.5 -3.5q-75 0 -132 16.5t-92 61.5q-13 16 -20 32t-10 32t-3.5 31.5t-0.5 30.5v488h-90v22h296v-22h-90zM454.967 805.131q0 22.5732 15.0488 37.623q15.0498 15.0488 37.623 15.0488t37.623 -15.0488
q15.0488 -15.0498 15.0488 -37.623t-15.0488 -37.2051q-15.0498 -14.6309 -37.623 -14.6309t-37.623 14.6309q-15.0488 14.6318 -15.0488 37.2051zM224.967 805.131q0 22.5732 15.0488 37.623q15.0498 15.0488 37.623 15.0488t37.623 -15.0488
q15.0488 -15.0498 15.0488 -37.623t-15.0488 -37.2051q-15.0498 -14.6309 -37.623 -14.6309t-37.623 14.6309q-15.0488 14.6318 -15.0488 37.2051z" />
    <glyph glyph-name="germaneszet" unicode="&#xdf;" horiz-adv-x="572" 
d="M201 3l-171 -3v20h72v16t-0.5 28t-0.5 28v17q-2 63 -5.5 131.5t-0.5 131.5l7 163q6 7 9 15.5t9 15.5q11 14 25.5 27.5t30.5 21.5q19 10 40 17.5t42 10.5q33 5 71 2.5t71 -16.5t55 -41t22 -70q0 -42 -13.5 -70t-46.5 -48q-14 -9 -29.5 -15.5t-29.5 -14.5q0 -16 15 -22
q3 -2 6.5 -2.5t6.5 -1.5q12 -5 23 -11t22 -13q34 -22 58.5 -48t36 -56.5t9 -65t-21.5 -73.5q-9 -18 -26.5 -36t-36.5 -27t-49.5 -13t-59 1t-49.5 20.5t-21 45.5q0 16 11 28t25 14.5t27.5 -7.5t18.5 -38l3 -21t11 -18q10 -2 13 -2q13 0 20.5 17t10.5 39t3.5 43.5t0.5 30.5
q0 13 -1 30t-4 34t-8 33t-13 28q-8 11 -21.5 21.5t-26.5 21t-22 22t-8 23.5q11 13 24.5 21t24.5 22q19 25 26 61t0 69.5t-29.5 57.5t-62.5 24q-31 0 -54 -14q-11 -8 -19 -20t-12 -24q-5 -13 -6 -33.5t-2 -34.5q-2 -55 -0.5 -109.5t2.5 -109.5q1 -37 0 -73.5t-1 -73.5v-25
t-0.5 -38.5t-0.5 -38.5v-25z" />
    <glyph glyph-name="aumlaut" unicode="&#xe4;" horiz-adv-x="456" 
d="M277 271v80q0 21 -3.5 37.5t-23.5 31.5q-12 9 -25 12t-27 3q-18 0 -29.5 -4t-18 -10t-8.5 -12.5t-2 -12.5q0 -11 4.5 -18t10.5 -13q5 -5 9 -12.5t4 -21.5q0 -22 -13.5 -33t-30.5 -11t-30.5 11.5t-13.5 37.5q0 36 20 62.5t49 40.5q17 8 31.5 11t29.5 3q20 0 44.5 -5
t51.5 -24q23 -16 42 -44.5t19 -79.5v-226q0 -10 1.5 -23.5t10.5 -24.5t20.5 -14.5t23.5 -3.5h7v-17h-21q-27 0 -51 3t-41 14q-11 8 -19 21t-11 26h-6q-17 -34 -39 -51.5t-56 -17.5q-22 0 -46 7.5t-44 24.5q-27 23 -34.5 49t-7.5 47q0 30 10 50.5t25.5 35t35.5 24t40 15.5
q4 1 11.5 3.5t20.5 6.5t32.5 9t47.5 13zM277 105v148q-12 -3 -27 -7.5t-30 -10t-27.5 -12.5t-20.5 -15q-17 -17 -20.5 -39.5t-3.5 -42.5v-47q0 -29 10.5 -48.5t39.5 -19.5q14 0 28 6t28 23q15 19 19 36t4 29zM262.221 628.42q0 21.6113 14.4072 36.0186t36.0186 14.4072
t36.0186 -14.4072t14.4072 -36.0186t-14.4072 -35.6182q-14.4072 -14.0078 -36.0186 -14.0078t-36.0186 14.0078q-14.4072 14.0068 -14.4072 35.6182zM84.2207 629.42q0 21.6113 14.4072 36.0186t36.0186 14.4072t36.0186 -14.4072t14.4072 -36.0186t-14.4072 -35.6182
q-14.4072 -14.0078 -36.0186 -14.0078t-36.0186 14.0078q-14.4072 14.0068 -14.4072 35.6182z" />
    <glyph glyph-name="ccedilla" unicode="&#xe7;" horiz-adv-x="428" 
d="M115 32q-11 10 -23 24.5t-21.5 35.5t-15.5 47.5t-6 60.5q0 23 4 50t12 53.5t20.5 50.5t29.5 42q22 23 55.5 40.5t68.5 17.5q24 0 50.5 -10.5t47.5 -30.5q35 -35 35 -79q0 -8 -2 -17.5t-7 -17.5t-14 -13.5t-22 -5.5q-23 0 -36 13t-13 33q0 14 4 23t9 15l12 15q6 7 6 15
q0 15 -23 29q-10 5 -23 8t-25 3q-24 0 -40 -9.5t-28 -35.5q-3 -6 -6 -16t-5.5 -28t-4 -44.5t-1.5 -65.5v-68q0 -32 2 -61t15 -54q11 -23 30 -34.5t49 -11.5q21 0 37.5 6t28.5 15t20.5 20t14.5 22q11 20 18.5 44t9.5 52h20q-3 -33 -13.5 -65.5t-28.5 -58.5
q-20 -29 -49.5 -39.5t-58.5 -12.5q-3 -5 -3.5 -9t-0.5 -6q0 -5 3.5 -7t14.5 -6q24 -8 41 -25t17 -43q0 -34 -19 -53q-23 -26 -67 -26q-37 0 -62 18q-24 16 -24 48q0 20 10.5 32t27.5 12q12 0 18 -6t6 -15q0 -14 -11 -25q-11 -8 -11 -22q0 -20 36 -20q24 0 38 24q14 26 14 50
q0 25 -35 36q-24 7 -24 21q0 4 2.5 6.5t8.5 13.5q-38 3 -65.5 15t-47.5 30z" />
    <glyph glyph-name="iumlaut" unicode="&#xef;" horiz-adv-x="288" 
d="M3.9668 629.131q0 22.5732 15.0488 37.623q15.0498 15.0488 37.623 15.0488t37.623 -15.0488q15.0488 -15.0498 15.0488 -37.623t-15.0488 -37.2051q-15.0498 -14.6309 -37.623 -14.6309t-37.623 14.6309q-15.0488 14.6318 -15.0488 37.2051zM178.967 629.131
q0 22.5732 15.0488 37.623q15.0498 15.0488 37.623 15.0488t37.623 -15.0488q15.0488 -15.0498 15.0488 -37.623t-15.0488 -37.2051q-15.0498 -14.6309 -37.623 -14.6309t-37.623 14.6309q-15.0488 14.6318 -15.0488 37.2051zM35 18h64v402h-64v18h218v-18h-64v-402h64v-18
h-218v18z" />
    <glyph glyph-name="oumlaut" unicode="&#xf6;" horiz-adv-x="471" 
d="M236 453q39 0 74.5 -20t63 -53t44 -75.5t16.5 -86.5q0 -14 -4.5 -45t-23.5 -69q-12 -24 -29.5 -45t-39 -37.5t-47 -26t-54.5 -9.5t-55 9.5t-47.5 26t-38.5 37.5t-29 45q-10 19 -15.5 36.5t-8.5 32.5t-3.5 26.5t-0.5 18.5q0 44 16.5 86.5t44 75.5t63 53t74.5 20zM140 256
v-80q0 -29 1 -54t9 -51q3 -10 8.5 -22t15.5 -22t25 -17t37 -7t37 7t25 17t15.5 22t8.5 22q8 26 9 51t1 54v80q0 32 -1 59.5t-9 52.5q-7 21 -17 34.5t-22 20.5t-24.5 9.5t-22.5 2.5q-11 0 -23 -2.5t-24 -9.5t-22.5 -20.5t-16.5 -34.5q-8 -25 -9 -52.5t-1 -59.5z
M273.221 628.42q0 21.6113 14.4072 36.0186t36.0186 14.4072t36.0186 -14.4072t14.4072 -36.0186t-14.4072 -35.6182q-14.4072 -14.0078 -36.0186 -14.0078t-36.0186 14.0078q-14.4072 14.0068 -14.4072 35.6182zM95.2207 629.42q0 21.6113 14.4072 36.0186t36.0186 14.4072
t36.0186 -14.4072t14.4072 -36.0186t-14.4072 -35.6182q-14.4072 -14.0078 -36.0186 -14.0078t-36.0186 14.0078q-14.4072 14.0068 -14.4072 35.6182z" />
    <glyph glyph-name="uumlaut" unicode="&#xfc;" horiz-adv-x="471" 
d="M314 0v67q-18 -30 -49.5 -55t-75.5 -25q-24 0 -46 8.5t-39 27t-27 46.5t-10 67v281h-51v21h141v-300v-52q1 -19 6 -33q8 -19 20 -25.5t30 -6.5q6 0 17 1.5t25 10t29.5 26.5t29.5 51v307h-51v21h141v-417h51v-21h-141zM272.221 628.42q0 21.6113 14.4072 36.0186
t36.0186 14.4072t36.0186 -14.4072t14.4072 -36.0186t-14.4072 -35.6182q-14.4072 -14.0078 -36.0186 -14.0078t-36.0186 14.0078q-14.4072 14.0068 -14.4072 35.6182zM94.2207 629.42q0 21.6113 14.4072 36.0186t36.0186 14.4072t36.0186 -14.4072t14.4072 -36.0186
t-14.4072 -35.6182q-14.4072 -14.0078 -36.0186 -14.0078t-36.0186 14.0078q-14.4072 14.0068 -14.4072 35.6182z" />
    <glyph glyph-name="Emacron" unicode="&#x112;" horiz-adv-x="674" 
d="M256 678v-307h50q26 0 50 7.5t45 42.5q11 18 18.5 44.5t11.5 43.5h22v-298h-22q-4 17 -11.5 43.5t-18.5 44.5q-21 35 -45 42.5t-50 7.5h-50v-327h144q20 0 48 5.5t55.5 26.5t50 61.5t32.5 111.5h22v-227h-558v22h90v656h-90v22h554v-202h-22q-1 34 -13 66.5t-36 57.5
t-60.5 40.5t-84.5 15.5h-132zM501 744h-272v43h272v-43z" />
    <glyph glyph-name="emacron" unicode="&#x113;" horiz-adv-x="471" 
d="M421 227h-269v-9q0 -30 4.5 -66t15.5 -63q17 -43 41.5 -61.5t60.5 -18.5q38 0 64.5 19.5t41.5 48.5q11 20 16 43t6 44h18q0 -11 -2.5 -33t-13.5 -48q-6 -16 -17.5 -33t-29.5 -31.5t-43.5 -23.5t-59.5 -9q-57 0 -94 22.5t-60 49.5q-29 35 -39.5 73t-10.5 72q0 63 18 106.5
t39 69.5q20 25 40.5 39.5t39.5 22t35 10t27 2.5q15 0 35.5 -4t41.5 -15t40.5 -31t33.5 -51q12 -28 16.5 -59t4.5 -57v-9zM152 245h167q-1 60 -5.5 93t-15.5 55q-14 29 -30.5 35.5t-27.5 6.5q-8 0 -18.5 -3.5t-21 -12.5t-20 -25t-15.5 -41q-6 -23 -9 -54t-4 -54zM376 584
h-261v43h261v-43z" />
    <glyph glyph-name="Omacron" unicode="&#x14c;" horiz-adv-x="730" 
d="M206 392v-84q0 -48 2.5 -101.5t17.5 -97.5t47.5 -73t91.5 -29t91.5 29t47.5 73t17.5 97.5t2.5 101.5v84q0 48 -2.5 101.5t-17.5 97.5t-47.5 73t-91.5 29t-91.5 -29t-47.5 -73t-17.5 -97.5t-2.5 -101.5zM365 715q61 0 115.5 -28.5t95.5 -78t64.5 -116t23.5 -142.5
t-23.5 -142.5t-64.5 -115.5t-95.5 -77.5t-115.5 -28.5q-62 0 -116 28.5t-95 77.5t-64.5 115.5t-23.5 142.5t23.5 142.5t64.5 116t95 78t116 28.5zM501 744h-272v43h272v-43z" />
    <glyph glyph-name="omacron" unicode="&#x14d;" horiz-adv-x="471" 
d="M236 453q39 0 74.5 -20t63 -53t44 -75.5t16.5 -86.5q0 -14 -4.5 -45t-23.5 -69q-12 -24 -29.5 -45t-39 -37.5t-47 -26t-54.5 -9.5t-55 9.5t-47.5 26t-38.5 37.5t-29 45q-10 19 -15.5 36.5t-8.5 32.5t-3.5 26.5t-0.5 18.5q0 44 16.5 86.5t44 75.5t63 53t74.5 20zM140 256
v-80q0 -29 1 -54t9 -51q3 -10 8.5 -22t15.5 -22t25 -17t37 -7t37 7t25 17t15.5 22t8.5 22q8 26 9 51t1 54v80q0 32 -1 59.5t-9 52.5q-7 21 -17 34.5t-22 20.5t-24.5 9.5t-22.5 2.5q-11 0 -23 -2.5t-24 -9.5t-22.5 -20.5t-16.5 -34.5q-8 -25 -9 -52.5t-1 -59.5zM366 584h-261
v43h261v-43z" />
    <glyph glyph-name="uni029F" unicode="&#x29f;" horiz-adv-x="460" 
d="M42 0v20l64 -1v401h-64v18h218v-18h-64v-402h76q26 0 44.5 6t38.5 26q21 21 32 52t14 60h18v-162h-377z" />
    <glyph glyph-name="circumflex" unicode="&#x2c6;" horiz-adv-x="465" 
d="M399 558l-13 -26q-23 8 -41.5 16t-34.5 16q-15 8 -34.5 18.5t-42.5 25.5q-23 -15 -43 -25.5t-34 -18.5q-17 -8 -35 -16t-41 -16l-13 26q48 24 83.5 53t61.5 75h42q24 -46 59 -75t86 -53z" />
    <glyph glyph-name="gravecomb" unicode="&#x300;" horiz-adv-x="0" 
d="M-246 528l-112 69q-15 9 -30.5 21t-15.5 32q0 19 12 30t32 11q17 0 30 -10t24 -26l77 -107z" />
    <glyph glyph-name="acutecomb" unicode="&#x301;" horiz-adv-x="0" 
d="M-262 528l-17 20l77 107q11 16 24 26t30 10q20 0 32 -11t12 -30q0 -20 -15.5 -32t-30.5 -21z" />
    <glyph glyph-name="circumflexcoimb" unicode="&#x302;" horiz-adv-x="0" 
d="M-75 588l-13 -26q-23 8 -41.5 16t-34.5 16q-15 8 -34.5 18.5t-42.5 25.5q-23 -15 -43 -25.5t-34 -18.5q-17 -8 -35 -16t-41 -16l-13 26q48 24 83.5 53t61.5 75h42q24 -46 59 -75t86 -53z" />
    <glyph glyph-name="afli10023" unicode="&#x401;" horiz-adv-x="674" 
d="M256 678v-307h50q26 0 50 7.5t45 42.5q11 18 18.5 44.5t11.5 43.5h22v-298h-22q-4 17 -11.5 43.5t-18.5 44.5q-21 35 -45 42.5t-50 7.5h-50v-327h144q20 0 48 5.5t55.5 26.5t50 61.5t32.5 111.5h22v-227h-558v22h90v656h-90v22h554v-202h-22q-1 34 -13 66.5t-36 57.5
t-60.5 40.5t-84.5 15.5h-132zM399.967 805.131q0 22.5732 15.0488 37.623q15.0498 15.0488 37.623 15.0488t37.623 -15.0488q15.0488 -15.0498 15.0488 -37.623t-15.0488 -37.2051q-15.0498 -14.6309 -37.623 -14.6309t-37.623 14.6309q-15.0488 14.6318 -15.0488 37.2051z
M169.967 805.131q0 22.5732 15.0488 37.623q15.0498 15.0488 37.623 15.0488t37.623 -15.0488q15.0488 -15.0498 15.0488 -37.623t-15.0488 -37.2051q-15.0498 -14.6309 -37.623 -14.6309t-37.623 14.6309q-15.0488 14.6318 -15.0488 37.2051z" />
    <glyph glyph-name="afli10055" unicode="&#x406;" horiz-adv-x="396" 
d="M140 678h-90v22h296v-22h-90v-656h90v-22h-296v22h90v656z" />
    <glyph glyph-name="afii10017" unicode="&#x410;" horiz-adv-x="629" 
d="M328 721h26l204 -699h84v-22h-291v22h90l-56 193h-211l-35 -103q-3 -9 -5.5 -22t-2.5 -20q0 -28 22 -38t52 -10h22v-22h-239v22l34 1q32 1 53.5 19t31.5 46zM182 237h196l-83 285h-14z" />
    <glyph glyph-name="afii10018" unicode="&#x411;" horiz-adv-x="680" 
d="M629 241q0 -50 -19.5 -94t-54 -76.5t-81.5 -51t-101 -18.5h-322v21h90v656h-90v22h522l8 -209h-22q-5 48 -26.5 88t-67.5 67q-36 21 -70.5 27t-69.5 5l-68 -1v-326q20 15 42.5 29t45.5 24.5t46 17t44 6.5q89 0 142 -51q52 -49 52 -136zM519 245q0 153 -106 153
q-83 0 -156 -76v-300h102q81 0 120.5 58.5t39.5 164.5z" />
    <glyph glyph-name="afii10019" unicode="&#x412;" horiz-adv-x="623" 
d="M50 700h270q51 0 100 -13.5t84 -41.5q31 -24 44 -53t13 -64q0 -51 -32 -89t-114 -64v-6q15 -3 41.5 -12.5t52.5 -30t45 -53.5t19 -83q0 -38 -10.5 -65.5t-24.5 -46.5q-26 -33 -71.5 -55.5t-98.5 -22.5h-318v22h90v656h-90v22zM256 678v-297h59q45 0 65 8.5t28 15.5
q20 18 24 43t4 46v70q0 23 -4 46t-24 41q-18 17 -44.5 22t-48.5 5h-59zM256 359v-337h66q8 0 19.5 0.5t24 3.5t25 8.5t23.5 14.5q21 19 25 41t4 41v120q0 18 -4 41t-24 41q-21 19 -49 22.5t-44 3.5h-66z" />
    <glyph glyph-name="afii10020" unicode="&#x413;" horiz-adv-x="600" 
d="M580 491h-22q-5 48 -26.5 88t-67.5 67q-36 21 -70.5 26.5t-69.5 5.5h-68v-656h90v-22h-296v22h90v656h-90v22h522z" />
    <glyph glyph-name="afii10021" unicode="&#x414;" horiz-adv-x="609" 
d="M93 22l229 656h-88v22h325v-22h-90v-656h120l-61 -206h-22l-37 184h-360l-55 -184h-22l-41 206h102zM353 22v655h-6l-232 -655h238z" />
    <glyph glyph-name="afii10022" unicode="&#x415;" horiz-adv-x="674" 
d="M256 678v-307h50q26 0 50 7.5t45 42.5q11 18 18.5 44.5t11.5 43.5h22v-298h-22q-4 17 -11.5 43.5t-18.5 44.5q-21 35 -45 42.5t-50 7.5h-50v-327h144q20 0 48 5.5t55.5 26.5t50 61.5t32.5 111.5h22v-227h-558v22h90v656h-90v22h554v-202h-22q-1 34 -13 66.5t-36 57.5
t-60.5 40.5t-84.5 15.5h-132z" />
    <glyph glyph-name="afii10024" unicode="&#x416;" horiz-adv-x="914" 
d="M309 700h296v-22h-90v-302h46q14 0 31.5 3.5t32.5 16.5t25.5 39t10.5 71v53q0 54 9.5 84t30.5 48q16 14 34 19t37 5q40 0 69 -21.5t29 -63.5q0 -38 -21.5 -56.5t-47.5 -18.5q-17 0 -29 6.5t-20.5 16.5t-12.5 22t-4 24q0 11 4 23t9 20q5 9 10 12t5 6q0 2 -4 5t-11 3
q-8 0 -20 -5.5t-23 -22.5q-16 -24 -19 -48.5t-3 -47.5v-8v-48q0 -24 -2 -46t-8.5 -41t-20 -33t-35.5 -23v-6q42 -2 72.5 -10.5t52 -22.5t35 -31.5t21.5 -36.5q10 -24 13 -53.5t5 -68.5q1 -19 1.5 -36.5t2.5 -32.5t7.5 -27t16.5 -19q10 -6 24 -8t25 -2h11v-21
q-7 -1 -16.5 -1.5t-20.5 -0.5q-19 0 -39.5 2t-39.5 7.5t-35.5 14t-26.5 21.5q-28 34 -34 130q-2 24 -2.5 42t-1.5 32.5t-3.5 26.5t-6.5 23q-9 22 -22 34.5t-26.5 18.5t-25 7.5t-18.5 1.5h-71v-332h90v-22h-296v22h90v332h-71q-7 0 -18.5 -1.5t-25 -7.5t-26.5 -18.5
t-22 -34.5q-5 -11 -7 -23t-3 -26.5t-2 -32.5t-2 -42q-3 -48 -11 -80t-23 -50q-11 -13 -27 -21.5t-35 -14t-39.5 -7.5t-39.5 -2q-11 0 -20.5 0.5t-16.5 1.5v21h11q11 0 25 2t24 8q11 7 16.5 19t7.5 27t2.5 32.5t1.5 36.5q2 39 5 68.5t13 53.5q8 19 21.5 36.5t35 31.5t52 22.5
t72.5 10.5v6q-23 9 -36 23t-19.5 33t-8.5 41t-2 46v48v8q0 23 -3 47.5t-19 48.5q-11 17 -23 22.5t-20 5.5q-7 0 -11 -3t-4 -5q0 -3 5 -6t10 -12q5 -8 9 -20t4 -23q0 -12 -4 -24t-12.5 -22t-21 -16.5t-28.5 -6.5q-26 0 -47.5 18.5t-21.5 56.5q0 42 29 63.5t69 21.5
q19 0 37 -5t34 -19q21 -18 30.5 -48t9.5 -84v-53q0 -45 10.5 -71t25.5 -39t32.5 -16.5t31.5 -3.5h46v302h-90v22z" />
    <glyph glyph-name="afii10025" unicode="&#x417;" horiz-adv-x="632" 
d="M352 370q-20 8 -42.5 16t-39.5 12q-11 3 -20 4t-17 1q-23 0 -33 -9.5t-10 -23.5t10 -23.5t33 -9.5q8 0 17 1t20 4q17 4 39.5 12t42.5 16zM430 133v90q0 23 -2 46t-11 44q-8 21 -20 28.5t-26 7.5q-10 0 -20 -3t-19 -6q-21 -8 -47 -16.5t-52 -8.5q-2 0 -12.5 1t-22 6
t-21 16.5t-9.5 31.5q0 27 18 41t46 14q24 0 48.5 -7t51.5 -15q6 -2 14 -4t17 -2q11 0 22 4.5t20 16.5t14.5 33.5t5.5 56.5q0 38 -4.5 74t-21.5 63q-10 15 -30 31.5t-56 16.5q-42 0 -80 -27t-66 -69q-7 -11 -19.5 -34t-28.5 -65h-20q4 21 7 37t5 29.5t2.5 26.5t0.5 28
q0 24 -1 41t-4 36h20q5 -16 16.5 -23t22.5 -7t24.5 7.5t37.5 19.5q23 11 42.5 16.5t49.5 5.5q55 0 98.5 -16.5t72.5 -42.5q29 -27 43 -62t14 -67q0 -31 -12 -55t-28 -41q-19 -20 -44.5 -34t-46.5 -21v-8q32 -12 63 -31.5t51 -42.5q17 -19 30 -48.5t13 -71.5q0 -48 -20 -79.5
t-43 -50.5q-35 -29 -85 -43.5t-94 -14.5q-33 0 -51.5 4.5t-38.5 13.5q-25 13 -43 23t-38 10q-6 0 -17.5 -2t-23 -10.5t-20 -25.5t-8.5 -46q0 -26 6.5 -51t12.5 -42l-22 -9q-26 46 -43.5 91t-17.5 89q0 49 24 72.5t51 23.5q18 0 34 -7.5t30.5 -18.5t27 -23.5t23.5 -22.5
q22 -20 45 -34t61 -14q25 0 44 8t36 33q16 23 20 43t4 42z" />
    <glyph glyph-name="afii10026" unicode="&#x418;" horiz-adv-x="763" 
d="M507 678h-90v22h296v-22h-90v-656h90v-22h-296v22h90v551l-251 -492v-59h90v-22h-296v22h90v656h-90v22h296v-22h-90v-554l251 493v61z" />
    <glyph glyph-name="afii10027" unicode="&#x419;" horiz-adv-x="764" 
d="M472 921q14 0 28.5 -7.5t24.5 -26.5q7 -16 7 -29q0 -22 -17 -48q-20 -31 -58 -47q-5 -2 -24.5 -8t-50.5 -6t-50.5 6t-24.5 8q-38 16 -58 47q-17 26 -17 48q0 13 7 29q10 19 24.5 26.5t28.5 7.5q21 0 32.5 -13t11.5 -27t-11 -25.5t-28 -11.5q-10 0 -20 5q-7 3 -9.5 5.5
t-5.5 2.5q-5 0 -6 -3.5t-1 -5.5q0 -8 3.5 -15t6.5 -12q9 -14 20.5 -23t25.5 -15q16 -7 35 -10.5t36 -3.5t36 3.5t35 10.5q14 6 25.5 15t20.5 23q3 5 6.5 12t3.5 15q0 2 -1 5.5t-6 3.5q-3 0 -5.5 -2.5t-9.5 -5.5q-10 -5 -20 -5q-17 0 -28 11.5t-11 25.5t11.5 27t32.5 13z
M508 678h-90v22h296v-22h-90v-656h90v-22h-296v22h90v551l-251 -492v-59h90v-22h-297v22h90v656h-90v22h297v-22h-90v-554l251 493v61z" />
    <glyph glyph-name="afii10028" unicode="&#x41a;" horiz-adv-x="670" 
d="M140 678h-90v22h296v-22h-90v-303h62h2q6 0 16.5 1t22 5t23 13t20.5 26t12.5 46t3.5 49v44q0 15 1 33t5 36t12 34.5t22 28.5q10 9 27.5 16.5t43.5 7.5q18 0 35.5 -4.5t31 -14.5t22 -25t8.5 -36q0 -41 -21.5 -59.5t-46.5 -18.5q-24 0 -44.5 17t-20.5 50q0 11 3 23t9 20
q5 9 10 12t5 6q0 2 -4 5t-11 3q-8 0 -20 -5.5t-23 -22.5q-16 -24 -19 -48.5t-3 -47.5v-8v-38q0 -66 -15 -103t-51 -50v-6q42 -2 72.5 -10.5t52 -22.5t35 -31.5t21.5 -36.5q10 -24 13 -53.5t5 -68.5q2 -46 5 -65t8 -30q11 -21 25 -25.5t31 -4.5h19v-21q-7 -1 -17 -1.5
t-21 -0.5q-18 0 -38.5 2t-39.5 7.5t-35.5 14t-26.5 21.5q-28 34 -34 129q-2 24 -2.5 42t-1.5 32.5t-3.5 26.5t-6.5 23q-9 22 -22 34.5t-26.5 18.5t-25 7.5t-18.5 1.5h-87v-331h90v-22h-296v22h90v656z" />
    <glyph glyph-name="afii10029" unicode="&#x41b;" horiz-adv-x="640" 
d="M500 678v-656h90v-22h-296v22h90v656h-8q-36 -154 -60.5 -254.5t-41 -162t-25.5 -92.5t-14 -46q-14 -42 -28.5 -68t-30 -40.5t-32 -19.5t-33.5 -5q-45 0 -73 26t-28 77q0 34 16.5 56t49.5 22q17 0 29.5 -6t20 -15.5t11 -20.5t3.5 -21q0 -15 -5 -26.5t-10 -19.5
q-8 -11 -12.5 -19.5t-4.5 -17.5q0 -14 15 -14q14 0 36.5 18.5t42.5 68.5q5 13 12 34.5t14.5 45.5t14 48t11.5 42l41 167q8 32 16.5 66.5t16 66.5t14.5 60.5t12 49.5h-87v22h323v-22h-90z" />
    <glyph glyph-name="afii10030" unicode="&#x41c;" horiz-adv-x="855" 
d="M148 678h-88v22h228l149 -472h9l140 472h219v-22h-90v-656h90v-22h-296v22h90v624h-7l-192 -646h-18l-204 646h-5v-557q0 -13 1.5 -24t9.5 -22q11 -15 25.5 -18t26.5 -3h27v-22h-203v22h25q12 0 26.5 3t25.5 18q8 11 9.5 22t1.5 24v589z" />
    <glyph glyph-name="afii10031" unicode="&#x41d;" horiz-adv-x="755" 
d="M140 678h-90v22h296v-22h-90v-303h243v303h-90v22h296v-22h-90v-656h90v-22h-296v22h90v331h-243v-331h90v-22h-296v22h90v656z" />
    <glyph glyph-name="afii10032" unicode="&#x41e;" horiz-adv-x="730" 
d="M206 392v-84q0 -48 2.5 -101.5t17.5 -97.5t47.5 -73t91.5 -29t91.5 29t47.5 73t17.5 97.5t2.5 101.5v84q0 48 -2.5 101.5t-17.5 97.5t-47.5 73t-91.5 29t-91.5 -29t-47.5 -73t-17.5 -97.5t-2.5 -101.5zM365 715q61 0 115.5 -28.5t95.5 -78t64.5 -116t23.5 -142.5
t-23.5 -142.5t-64.5 -115.5t-95.5 -77.5t-115.5 -28.5q-62 0 -116 28.5t-95 77.5t-64.5 115.5t-23.5 142.5t23.5 142.5t64.5 116t95 78t116 28.5z" />
    <glyph glyph-name="afii10033" unicode="&#x41f;" horiz-adv-x="755" 
d="M499 678h-243v-656h90v-22h-296v22h90v656h-90v22h655v-22h-90v-656h90v-22h-296v22h90v656z" />
    <glyph glyph-name="afii10034" unicode="&#x420;" horiz-adv-x="599" 
d="M256 678v-332h55q23 0 47.5 4.5t44.5 21.5q21 19 25 41t4 41v116q0 18 -4 41t-24 41q-21 19 -49 22.5t-44 3.5h-55zM50 700h271q70 0 116.5 -16.5t74.5 -43t39.5 -58t11.5 -61.5q0 -39 -13 -75t-45 -63t-87 -43t-140 -16h-22v-302h90v-22h-296v22h90v656h-90v22z" />
    <glyph glyph-name="afii10035" unicode="&#x421;" horiz-adv-x="600" 
d="M507 705h20q-4 -22 -4.5 -39.5t-0.5 -36.5v-26v-28t0.5 -20.5t1 -18.5t1.5 -21h-22q-6 40 -22.5 72.5t-39.5 56t-51.5 36.5t-56.5 13q-29 0 -48.5 -10t-31.5 -24.5t-18 -29.5t-9 -24q-4 -15 -7.5 -36t-6.5 -44.5t-4.5 -46.5t-1.5 -41v-187q0 -39 3.5 -82t15.5 -79
t36.5 -59t66.5 -23q32 0 70 18t69 59q18 24 32 55t21 63h22q-3 -28 -4 -50.5t-1 -57.5q0 -25 1 -44.5t8 -45.5l-13 -7q-11 14 -28.5 25.5t-33.5 11.5q-17 0 -32.5 -8t-27.5 -16q-11 -7 -32 -15.5t-56 -8.5q-44 0 -81.5 18t-72.5 51q-59 57 -81 124.5t-22 136.5
q0 84 17.5 146.5t53.5 118.5q31 47 63.5 74t60.5 40.5t49.5 16.5t30.5 3q26 0 44 -7.5t29 -12.5q14 -8 26.5 -13t25.5 -5q28 0 41 28z" />
    <glyph glyph-name="afii10036" unicode="&#x422;" horiz-adv-x="610" 
d="M453 0h-296v22h90v656l-29 -5q-23 -4 -46 -18.5t-37 -29.5q-12 -13 -21.5 -30t-17 -36t-11.5 -38.5t-5 -37.5h-22l8 217h478l8 -217h-22q-4 37 -17 76t-38 66q-14 15 -37 29.5t-46 18.5l-29 5v-656h90v-22z" />
    <glyph glyph-name="afii10037" unicode="&#x423;" horiz-adv-x="593" 
d="M106 678h-90v22h304v-22h-84l150 -385h6l92 272q2 8 6 26t4 26q0 13 -4 24t-13.5 19t-25.5 13t-41 5h-14v22h222l1 -22h-15q-21 0 -34.5 -5.5t-23.5 -17t-18 -29.5t-16 -43l-156 -465q-9 -27 -19 -53t-32 -49q-19 -18 -37.5 -24t-39.5 -6q-23 0 -45.5 8t-39.5 23
q-12 11 -21.5 30.5t-9.5 45.5q0 35 19.5 52t42.5 17q21 0 39.5 -16t18.5 -43q0 -18 -7.5 -27.5t-13.5 -14.5q-4 -5 -9.5 -11t-5.5 -15q0 -7 6.5 -17.5t27.5 -10.5q10 0 23 3t27 13t27 29.5t22 52.5z" />
    <glyph glyph-name="afii10038" unicode="&#x424;" horiz-adv-x="880" 
d="M588 0h-296v22h90v159h-60q-44 0 -76 4.5t-55 11.5t-37 13.5t-21 11.5q-34 21 -58.5 59.5t-24.5 89.5q0 42 16.5 75.5t41.5 54.5q22 19 53.5 30.5t65 18.5t66.5 9.5t57 2.5h32v116h-90v22h296v-22h-90v-116h32q24 0 56.5 -2.5t66.5 -9.5t65.5 -18.5t53.5 -30.5
q25 -21 41.5 -54.5t16.5 -75.5q0 -51 -24.5 -89.5t-58.5 -59.5q-7 -5 -21 -11.5t-37 -13.5t-55.5 -11.5t-75.5 -4.5h-60v-159h90v-22zM498 540v-337h73q10 0 24.5 1t30 6t30 14.5t25.5 26.5q14 21 16.5 46t2.5 45v59q0 8 -0.5 20.5t-3.5 27t-9.5 29t-17.5 26.5
q-12 13 -28.5 20t-34.5 10.5t-35.5 4.5t-32.5 1h-17h-23zM382 540h-23h-17q-15 0 -32.5 -1t-35.5 -4.5t-34.5 -10.5t-28.5 -20q-11 -12 -17.5 -26.5t-9.5 -29t-3.5 -27t-0.5 -20.5v-59q0 -20 2.5 -45t16.5 -46q11 -17 25.5 -26.5t30 -14.5t29.5 -6t25 -1h73v337z" />
    <glyph glyph-name="afii10039" unicode="&#x425;" horiz-adv-x="683" 
d="M384 411l203 -389h96v-22h-315v22h89l-144 277l-129 -194q-5 -8 -9 -17.5t-4 -22.5q0 -20 13 -31.5t30 -11.5h51v-22h-253v22h32q15 0 33.5 7.5t32.5 18.5q17 13 27 27t19 28l147 228l-180 347h-90v22h295v-22h-75l124 -239l91 141q4 6 10.5 18.5t6.5 24.5
q0 20 -16.5 37.5t-46.5 17.5h-20v22h252v-22h-18q-32 0 -70 -21.5t-63 -61.5z" />
    <glyph glyph-name="afii10040" unicode="&#x426;" horiz-adv-x="720" 
d="M28 -3v25h90v656h-90v22h296v-22h-90v-656h244v656h-90v22h296v-22h-90v-656l45 -12q19 -5 37 -18t32 -30t22.5 -37.5t8.5 -40.5q0 -29 -13 -57t-34 -48q-14 -13 -34 -21.5t-42.5 -13t-44.5 -6t-41 -1.5q-47 0 -92.5 13t-91 29t-92 29t-96.5 13q-23 0 -26 -13.5t16 -25.5
q11 -6 19 -13.5t8 -21.5q0 -21 -14.5 -29.5t-33.5 -8.5q-28 0 -43 12.5t-18 30.5t5.5 38t27.5 35q32 27 76.5 40.5t86.5 13.5q19 0 40 -3.5t42 -9.5t41.5 -12.5t38.5 -12.5q43 -15 91.5 -27.5t95.5 -12.5q78 0 78 78q0 34 -18 61.5t-47 44.5q-3 1 -12.5 5.5t-11.5 4.5z" />
    <glyph glyph-name="afii10041" unicode="&#x427;" horiz-adv-x="722" 
d="M466 678h-90v22h296v-22h-90v-656h90v-22h-296v22h90v299h-127q-34 0 -65.5 2t-59 8.5t-50.5 18.5t-39 33q-9 11 -14 25t-7.5 29t-3 29t-0.5 26v186h-90v22h296v-22h-90v-231q0 -24 4 -45.5t26 -38.5q19 -14 44.5 -17t60.5 -3h115v335z" />
    <glyph glyph-name="afii10042" unicode="&#x428;" horiz-adv-x="1086" 
d="M976 677v-655h90v-22h-1016v22h90v655h-90v23h296v-23h-90v-655h244v655h-90v23h296v-23h-90v-655h244v655h-90v23h296v-23h-90z" />
    <glyph glyph-name="afii10043" unicode="&#x429;" horiz-adv-x="1056" 
d="M20 -9v31h90v655h-90v23h296v-23h-90v-655h244v655h-90v23h296v-23h-90v-655h244v655h-90v23h296v-23h-90v-635l40 -10q30 -5 50 -20.5t33 -35.5t18.5 -42.5t5.5 -42.5q0 -15 -5 -34t-15 -38.5t-23.5 -36t-29.5 -26.5q-23 -13 -53 -23t-63 -17t-66 -10.5t-62 -3.5
q-83 0 -161 17t-157 37q-63 16 -128.5 27.5t-135.5 11.5q-36 0 -41.5 -12t23.5 -24q17 -6 29 -15.5t12 -23.5q0 -11 -6 -21t-16.5 -18t-24 -13t-28.5 -5q-20 0 -36 6t-27 15.5t-18.5 20t-10.5 19.5q-8 20 5.5 43.5t44.5 40.5q51 27 120 40.5t134 13.5q30 0 63.5 -4.5t67 -11
t66 -14t60.5 -13.5q33 -8 71 -16.5t77 -16t78 -12.5t75 -5q30 0 54.5 12t42 31t26.5 40.5t9 41.5q0 34 -14 57t-60 40h-950z" />
    <glyph glyph-name="afii10044" unicode="&#x42a;" horiz-adv-x="850" 
d="M678 245q0 153 -105 153q-84 0 -156 -76v-300h102q81 0 120 58.5t39 164.5zM417 683v-332q19 15 41.5 29t46 24.5t46.5 17t44 6.5q88 0 141 -51q26 -25 38.5 -59t13.5 -77q1 -50 -18.5 -94t-54 -76.5t-81.5 -51t-101 -18.5h-322v21h90v661h-75q-23 0 -45.5 -11t-42 -33.5
t-34 -58t-20.5 -84.5h-22l8 209h437v-22h-90z" />
    <glyph glyph-name="afii10045" unicode="&#x42b;" horiz-adv-x="1020" 
d="M540 245q0 153 -106 153q-83 0 -156 -76v-300h102q81 0 120.5 58.5t39.5 164.5zM650 241q0 -50 -19.5 -94t-54 -76.5t-81.5 -51t-101 -18.5h-322v21h90v656h-90v22l301 -1v-21h-95v-327q40 31 88 54t90 23q89 0 142 -51q52 -50 52 -136zM743 678h-90v22h296v-22h-90v-656
h90v-22h-296v22h90v656z" />
    <glyph glyph-name="afii10046" unicode="&#x42c;" horiz-adv-x="680" 
d="M519 245q0 153 -106 153q-83 0 -156 -76v-300h102q81 0 120.5 58.5t39.5 164.5zM629 241q0 -50 -19.5 -94t-54 -76.5t-81.5 -51t-101 -18.5h-322v21h90v656h-90v22l301 -1v-21h-95v-327q40 31 88 54t90 23q89 0 142 -51q52 -50 52 -136z" />
    <glyph glyph-name="afii10047" unicode="&#x42d;" horiz-adv-x="708" 
d="M501 197v134q-12 13 -30.5 22.5t-35.5 9.5q-12 0 -23.5 -5.5t-22.5 -13.5t-22 -17t-21 -17q-18 -14 -44 -27t-61 -13q-27 0 -51 10.5t-44 27.5t-30.5 35t-15.5 31h22q12 -26 30.5 -40t33.5 -14q17 0 37 15t47 35q22 16 45.5 28.5t54.5 12.5q32 0 68 -16.5t62 -38.5v26
q0 28 -1 60.5t-3 63.5t-5.5 58t-9.5 44q-15 45 -43 65t-77 20q-12 0 -29 -2.5t-37 -12t-42.5 -29t-44.5 -52.5q-17 -25 -28.5 -50.5t-19.5 -48.5h-20q4 14 9.5 45.5t5.5 86.5q0 20 -1.5 35t-3.5 31h20q4 -13 13.5 -21.5t21.5 -8.5q13 0 28 8t38 19q21 11 42 16.5t45 5.5
q19 0 44.5 -4.5t54 -18t58 -37t56.5 -62.5q40 -59 55.5 -122.5t15.5 -134.5q0 -34 -7.5 -79t-34.5 -99q-16 -32 -39.5 -63t-53 -55t-64 -39t-71.5 -15q-32 0 -52.5 8t-31.5 14q-20 11 -38.5 21.5t-38.5 10.5q-9 0 -21.5 -3t-23 -13t-18 -27.5t-7.5 -46.5q0 -35 8 -57.5
t12 -29.5l-20 -12q-8 13 -18 33.5t-20 44.5t-16.5 50t-6.5 51t7 43.5t17.5 30.5t24 17.5t26.5 5.5q16 0 31.5 -6.5t29.5 -17t27.5 -23.5t26.5 -25q19 -18 44 -33t63 -15q40 0 63 18.5t34 37.5q7 13 12.5 30t8.5 35t4.5 36t1.5 33z" />
    <glyph glyph-name="afii10048" unicode="&#x42e;" horiz-adv-x="1071" 
d="M547 392v-84q0 -48 2.5 -101.5t17.5 -97.5t47.5 -73t91.5 -29t91.5 29t47.5 73t17.5 97.5t2.5 101.5v84q0 48 -2.5 101.5t-17.5 97.5t-47.5 73t-91.5 29t-91.5 -29t-47.5 -73t-17.5 -97.5t-2.5 -101.5zM256 372h152q1 80 29.5 143.5t71.5 108t95 68t102 23.5
q61 0 115.5 -28.5t95.5 -78t64.5 -116t23.5 -142.5t-23.5 -142.5t-64.5 -115.5t-95.5 -77.5t-115.5 -28.5q-59 0 -113.5 28t-95.5 76t-65.5 113t-24.5 139v8h-151v-328h90v-22h-296v22h90v656h-90v22h296v-22h-90v-306z" />
    <glyph glyph-name="afii10049" unicode="&#x42f;" horiz-adv-x="706" 
d="M450 359h-62q-9 0 -29.5 -3t-41.5 -16.5t-37 -41.5t-16 -78v-61q0 -10 -1 -26t-5 -33t-13 -34.5t-25 -30.5q-12 -9 -30.5 -16t-39.5 -11t-42 -6t-37 -2h-41v22h25q20 0 43 4t35 24q7 11 8 29.5t1 41.5v56q0 29 7 58t25 53.5t48.5 43.5t77.5 29v6q-41 5 -66.5 19.5
t-33.5 21.5q-31 25 -45 56t-14 63q0 22 6 41t15 33t18.5 24.5t16.5 16.5q25 22 53.5 33.5t60 17t65.5 6.5t69 1h211v-22h-90v-656h90v-22h-296v22h90v337zM450 678h-62q-22 0 -45 -3.5t-42 -20.5q-20 -18 -24.5 -42t-4.5 -44v-77q0 -20 3.5 -40t15.5 -35.5t35 -25t62 -9.5
h62v297z" />
    <glyph glyph-name="afii10065" unicode="&#x430;" horiz-adv-x="456" 
d="M277 271v80q0 21 -3.5 37.5t-23.5 31.5q-12 9 -25 12t-27 3q-18 0 -29.5 -4t-18 -10t-8.5 -12.5t-2 -12.5q0 -11 4.5 -18t10.5 -13q5 -5 9 -12.5t4 -21.5q0 -22 -13.5 -33t-30.5 -11t-30.5 11.5t-13.5 37.5q0 36 20 62.5t49 40.5q17 8 31.5 11t29.5 3q20 0 44.5 -5
t51.5 -24q23 -16 42 -44.5t19 -79.5v-226q0 -10 1.5 -23.5t10.5 -24.5t20.5 -14.5t23.5 -3.5h7v-17h-21q-27 0 -51 3t-41 14q-11 8 -19 21t-11 26h-6q-17 -34 -39 -51.5t-56 -17.5q-22 0 -46 7.5t-44 24.5q-27 23 -34.5 49t-7.5 47q0 30 10 50.5t25.5 35t35.5 24t40 15.5
q4 1 11.5 3.5t20.5 6.5t32.5 9t47.5 13zM277 105v148q-12 -3 -27 -7.5t-30 -10t-27.5 -12.5t-20.5 -15q-17 -17 -20.5 -39.5t-3.5 -42.5v-47q0 -29 10.5 -48.5t39.5 -19.5q14 0 28 6t28 23q15 19 19 36t4 29z" />
    <glyph glyph-name="afii10066" unicode="&#x431;" horiz-adv-x="497" 
d="M169 385h6q23 39 50.5 53.5t53.5 14.5q29 0 61 -17t59 -47.5t44.5 -74t17.5 -96.5q0 -30 -7.5 -59.5t-20.5 -54.5q-12 -23 -29 -44.5t-39 -38t-47.5 -26t-54.5 -9.5q-20 0 -42.5 5t-45 18.5t-44 36.5t-37.5 59q-17 38 -23.5 74t-6.5 78q0 82 18.5 155.5t47.5 130.5
q24 46 50.5 76t52 48t48.5 25.5t39 7.5q13 0 28 -5t35 -16q9 -5 19 -10.5t21 -5.5q28 0 36 37h18q-3 -11 -9 -28t-17 -35q-10 -17 -24.5 -29.5t-40.5 -12.5q-24 0 -37.5 11.5t-30.5 26.5q-11 10 -26.5 21.5t-25.5 11.5q-12 0 -25 -13t-24.5 -34.5t-21 -49.5t-14.5 -57
q-1 -2 -5.5 -35.5t-6.5 -91.5zM166 256v-100q0 -20 2 -40.5t10 -44.5q3 -10 8.5 -22t15 -22t24.5 -17t37 -7t37 7t24.5 17t15 22t8.5 22q8 24 9.5 44.5t1.5 40.5v100q0 31 -1 60t-9 52q-4 11 -10.5 23t-16 21.5t-21.5 16t-27 6.5q-18 0 -32.5 -7.5t-26 -19t-19.5 -25
t-13 -25.5q-11 -26 -14 -54t-3 -48z" />
    <glyph glyph-name="afii10067" unicode="&#x432;" horiz-adv-x="460" 
d="M40 438h234q23 0 49 -4.5t47 -25.5q8 -8 17 -24.5t9 -42.5q0 -42 -34 -69q-14 -11 -32.5 -18.5t-35.5 -10.5v-6q20 -2 41.5 -9t38.5 -19q44 -32 44 -91q0 -15 -6.5 -37t-30.5 -43q-20 -18 -49.5 -28t-64.5 -10h-227v18h64v402h-64v18zM194 229v-211h46q17 0 35 3.5
t32 18.5q12 14 14.5 30t2.5 33v47q0 14 -2.5 29t-13.5 28q-14 15 -32.5 18.5t-35.5 3.5h-46zM194 420v-173h48q22 0 35 7t19 15q9 11 11 28t2 42q0 15 -2.5 32t-15.5 31q-11 11 -24 14.5t-25 3.5h-48z" />
    <glyph glyph-name="afii10068" unicode="&#x433;" horiz-adv-x="448" 
d="M104 18v402h-64v18h373l5 -135h-18q-5 33 -24 59t-42 40t-48 16t-48 2h-44v-402h64v-18h-218v18h64z" />
    <glyph glyph-name="afii10069" unicode="&#x434;" horiz-adv-x="496" 
d="M258 420h-70v18h239v-18h-64v-402h121l-49 -145h-12l-42 127h-263l-38 -123h-12l-48 141h85zM120 18h153v406z" />
    <glyph glyph-name="afii10070" unicode="&#x435;" horiz-adv-x="471" 
d="M421 227h-269v-9q0 -30 4.5 -66t15.5 -63q17 -43 41.5 -61.5t60.5 -18.5q38 0 64.5 19.5t41.5 48.5q11 20 16 43t6 44h18q0 -11 -2.5 -33t-13.5 -48q-6 -16 -17.5 -33t-29.5 -31.5t-43.5 -23.5t-59.5 -9q-57 0 -94 22.5t-60 49.5q-29 35 -39.5 73t-10.5 72q0 63 18 106.5
t39 69.5q20 25 40.5 39.5t39.5 22t35 10t27 2.5q15 0 35.5 -4t41.5 -15t40.5 -31t33.5 -51q12 -28 16.5 -59t4.5 -57v-9zM152 245h167q-1 60 -5.5 93t-15.5 55q-14 29 -30.5 35.5t-27.5 6.5q-8 0 -18.5 -3.5t-21 -12.5t-20 -25t-15.5 -41q-6 -23 -9 -54t-4 -54z" />
    <glyph glyph-name="afii10072" unicode="&#x436;" horiz-adv-x="634" 
d="M420 0h-206v18h58v206h-33q-11 0 -22.5 -3t-22.5 -16q-13 -14 -14 -29t-2 -29l-2 -64q-1 -23 -6 -38.5t-12.5 -25.5t-16.5 -15t-17 -8q-10 -3 -23 -5t-26.5 -3t-25 -1.5t-17.5 -0.5h-12v17q26 0 38.5 11t16.5 19q8 15 7.5 33t0.5 33l2 34q2 31 14.5 50t26.5 30
q14 10 31.5 15t33.5 5v4q-18 6 -29 25q-7 12 -8.5 26.5t-1.5 40.5v31v21q0 20 -5 34q-8 20 -23 20q-5 0 -6.5 -3t-1.5 -5q0 -9 1.5 -11.5t3.5 -4t3.5 -5t1.5 -13.5q0 -22 -12 -33t-31 -11t-30 12.5t-11 32.5q0 23 15 40q11 13 25 16t26 3q8 0 21.5 -2.5t24.5 -14.5
q12 -14 14 -32t2 -35v-39q0 -23 2 -40t14 -31q11 -12 23 -14.5t23 -2.5h40v178h-58v18h206v-18h-58v-178h40q11 0 23 2.5t23 14.5q12 14 14 31t2 40v39q0 17 2 35t14 32q11 12 25 14.5t22 2.5q12 0 25.5 -3.5t24.5 -15.5q15 -17 15 -40q0 -20 -11 -32.5t-30 -12.5t-31 11
t-12 33q0 10 1.5 13.5t3.5 5t3.5 4t1.5 11.5q0 2 -1.5 5t-6.5 3q-15 0 -23 -20q-5 -14 -5 -34v-21v-31q0 -26 -1.5 -40.5t-8.5 -26.5q-11 -19 -29 -25v-4q16 0 33.5 -5t31.5 -15q14 -11 26.5 -30t14.5 -50l2 -34q1 -15 0.5 -33t7.5 -33q4 -8 16.5 -19t38.5 -11v-17h-12
q-6 0 -17.5 0.5t-25 1.5t-26.5 3t-23 5q-8 3 -17 8t-16.5 15t-12.5 25.5t-6 38.5l-2 64q-1 14 -2 29t-14 29q-11 13 -22.5 16t-22.5 3h-33v-206h58v-18z" />
    <glyph glyph-name="afii10073" unicode="&#x437;" horiz-adv-x="425" 
d="M93 293h-18q5 24 7 44.5t2 47.5q0 21 -0.5 35.5t-1.5 27.5h15l35 -36h6q25 28 52.5 34.5t49.5 6.5q31 0 54 -9t38.5 -23.5t23.5 -34t8 -40.5q0 -14 -4.5 -29t-17.5 -31q-2 -2 -17.5 -16.5t-45.5 -27.5v-6q26 -5 45 -16.5t31 -25.5q17 -19 22.5 -39t5.5 -42
q0 -20 -6.5 -42.5t-29.5 -45.5q-24 -23 -52 -31t-60 -8q-17 0 -34.5 3.5t-37.5 14.5q-10 5 -21.5 11.5t-23.5 6.5q-14 0 -25 -9.5t-11 -35.5q0 -17 5.5 -39t19.5 -39l-14 -12q-20 25 -32.5 48t-19.5 43t-9 36.5t-2 28.5q0 19 5 31t12.5 19t16 9.5t15.5 2.5q10 0 19.5 -5
t18 -12t14.5 -15.5t11 -14.5q6 -8 13.5 -17.5t18.5 -18t25 -14t33 -5.5q30 0 43.5 23.5t13.5 79.5t-10 82t-23 39q-23 -11 -51.5 -20.5t-48.5 -9.5q-39 0 -39 35q0 18 12.5 27.5t31.5 9.5t41.5 -5.5t51.5 -15.5q4 4 8.5 10.5t8.5 18t6 28.5t2 43q0 6 -1.5 25.5t-10.5 33.5
q-8 12 -20 19.5t-28 7.5q-21 0 -45 -15t-46 -47q-17 -25 -25 -48t-10 -31zM135 232q0 -5 5 -11t16 -6q18 0 44 7t40 15q-14 3 -23.5 5.5t-17.5 4.5t-16.5 3t-20.5 1q-5 0 -16 -2.5t-11 -16.5z" />
    <glyph glyph-name="afii10074" unicode="&#x438;" horiz-adv-x="558" 
d="M40 420v18h212v-18h-58v-310l170 269v41h-58v18h212v-18h-64v-402h64v-18h-212v18h58v332l-170 -268v-64h58v-18h-212v18h64v402h-64z" />
    <glyph glyph-name="afii10075" unicode="&#x439;" horiz-adv-x="558" 
d="M40 420v18h212v-18h-58v-310l170 269v41h-58v18h212v-18h-64v-402h64v-18h-212v18h58v332l-170 -268v-64h58v-18h-212v18h64v402h-64zM279 499q14 0 35.5 2.5t36.5 8.5q21 8 32 24t11 30q0 9 -4.5 12.5t-9.5 3.5t-10.5 -2t-8.5 -3q-8 -3 -16 -3q-14 0 -23.5 9t-9.5 24
q0 10 7 22t29 12q17 0 28 -8t16 -13q7 -8 13 -19t6 -32q0 -24 -12.5 -41t-27.5 -26q-12 -7 -27 -11t-28.5 -5.5t-23.5 -2t-13 -0.5q-2 0 -12.5 0.5t-24 2t-28.5 5.5t-27 11q-16 10 -28 27t-12 40q0 21 6 32.5t13 18.5q5 5 16 13t28 8q22 0 29 -12t7 -22q0 -14 -10 -23.5
t-24 -9.5q-8 0 -15 3q-3 1 -8.5 3t-10.5 2t-9.5 -3.5t-4.5 -13.5q0 -14 12 -29.5t31 -23.5q14 -6 36 -8.5t36 -2.5z" />
    <glyph glyph-name="afii10076" unicode="&#x43a;" horiz-adv-x="480" 
d="M272 237v-4q38 0 67.5 -14.5t42.5 -39.5q7 -13 10 -32t4 -31l4 -53q2 -15 5.5 -28.5t19.5 -23.5q8 -5 17.5 -6.5t17.5 -1.5v-17h-12q-15 0 -31.5 0.5t-33 4t-31.5 10.5t-26 20q-13 15 -16.5 32t-4.5 29q-1 13 -1.5 22t-1 16.5l-1 15t-1.5 18.5q-2 13 -5.5 28.5
t-13.5 25.5q-9 9 -24.5 13t-27.5 4h-33v-207h64v-18h-220v18h64v402h-64v18h213v-18h-57v-177h43q12 0 26.5 3t24.5 20q5 8 7 22.5t2 41.5v39q0 16 2.5 35t13.5 32q11 12 24 14.5t25 2.5q13 0 31.5 -4.5t32.5 -21.5q13 -16 13 -35q0 -20 -14 -35t-35 -15q-17 0 -30 11
t-13 37q0 9 1.5 14.5t3.5 9.5t3.5 6.5t1.5 6.5q0 2 -3 5t-9 3q-10 0 -16 -6t-9 -16.5t-4 -24t-1 -28.5v-31q0 -51 -11 -70t-34 -22z" />
    <glyph glyph-name="afii10077" unicode="&#x43b;" horiz-adv-x="449" 
d="M255 18v381q-20 -94 -36.5 -158.5t-27.5 -104.5q-8 -32 -15.5 -57.5t-18.5 -47.5q-13 -23 -28.5 -34t-44.5 -11q-35 0 -57.5 18t-22.5 50q0 13 3.5 24t12.5 21q11 11 21.5 13.5t18.5 2.5q26 0 37.5 -14.5t11.5 -30.5q0 -13 -4 -21t-7 -12q-5 -6 -9.5 -11t-4.5 -10
q0 -2 2.5 -6.5t11.5 -4.5q20 0 31 13t18 29q2 4 6 14.5t11 35.5t18.5 68.5t28.5 113.5q2 10 6.5 28t9.5 38.5t9.5 40.5t7.5 34h-66v18h231v-18h-64v-402h64v-18h-212v18h58z" />
    <glyph glyph-name="afii10078" unicode="&#x43c;" horiz-adv-x="598" 
d="M558 420h-64v-402h64v-18h-218v18h64v359h-5l-122 -377h-18l-124 378h-6v-360h64v-18h-147v18h64v402h-64v18h159l94 -288h8l94 288h157v-18z" />
    <glyph glyph-name="afii10079" unicode="&#x43d;" horiz-adv-x="554" 
d="M514 420h-64v-402h64v-18h-212v18h58v202h-166v-202h58v-18h-212v18h64v402h-64v18h212v-18h-58v-182h166v182h-58v18h212v-18z" />
    <glyph glyph-name="afii10080" unicode="&#x43e;" horiz-adv-x="471" 
d="M236 453q39 0 74.5 -20t63 -53t44 -75.5t16.5 -86.5q0 -14 -4.5 -45t-23.5 -69q-12 -24 -29.5 -45t-39 -37.5t-47 -26t-54.5 -9.5t-55 9.5t-47.5 26t-38.5 37.5t-29 45q-10 19 -15.5 36.5t-8.5 32.5t-3.5 26.5t-0.5 18.5q0 44 16.5 86.5t44 75.5t63 53t74.5 20zM140 256
v-80q0 -29 1 -54t9 -51q3 -10 8.5 -22t15.5 -22t25 -17t37 -7t37 7t25 17t15.5 22t8.5 22q8 26 9 51t1 54v80q0 32 -1 59.5t-9 52.5q-7 21 -17 34.5t-22 20.5t-24.5 9.5t-22.5 2.5q-11 0 -23 -2.5t-24 -9.5t-22.5 -20.5t-16.5 -34.5q-8 -25 -9 -52.5t-1 -59.5z" />
    <glyph glyph-name="afii10081" unicode="&#x43f;" horiz-adv-x="554" 
d="M194 420v-402h58v-18h-212v18h64v402h-64v18h474v-18h-64v-402h64v-18h-212v18h58v402h-166z" />
    <glyph glyph-name="afii10082" unicode="&#x440;" horiz-adv-x="520" 
d="M188 382h6q26 44 53 57.5t56 13.5q24 0 43.5 -7t35.5 -17.5t28.5 -23.5t20.5 -25q25 -38 32 -79.5t7 -70.5q0 -66 -18 -112.5t-42 -75.5q-26 -31 -54 -43.5t-63 -12.5q-2 0 -13.5 1t-26.5 7t-31 19t-28 37h-6v-301h70v-18h-224v18h64v671h-64v18h154v-56zM189 327v-203
q0 -21 8.5 -42.5t22.5 -39t31 -28.5t34 -11q8 0 18 2.5t20.5 11t19.5 24t15 41.5q3 13 6.5 45t3.5 100q0 33 -1 56.5t-2.5 40t-3 28t-3.5 19.5q-2 7 -5.5 18t-11 21t-19 17.5t-29.5 7.5t-33 -8t-27 -21q-14 -15 -25.5 -35.5t-18.5 -43.5z" />
    <glyph glyph-name="afii10083" unicode="&#x441;" horiz-adv-x="428" 
d="M379 164h18q-2 -26 -11 -59.5t-31 -63.5q-23 -32 -50 -43.5t-61 -11.5q-44 0 -75.5 14t-52.5 33q-11 10 -22.5 24.5t-21.5 35t-16 47t-6 60.5q0 24 4 50.5t12.5 53t20.5 50t29 41.5q21 23 54.5 40.5t68.5 17.5q24 0 50.5 -10.5t46.5 -30.5q17 -17 26 -37t9 -41
q0 -8 -2 -17.5t-6.5 -17.5t-13.5 -13t-22 -5q-23 0 -35.5 12.5t-12.5 32.5q0 14 4 23t9 15q5 7 11.5 14.5t6.5 15.5q0 7 -6.5 15.5t-17.5 14.5q-10 5 -23 8t-25 3q-24 0 -41 -10t-28 -36q-2 -6 -5 -16t-5.5 -28t-4.5 -44.5t-2 -65.5v-68q0 -32 2.5 -61t14.5 -54
q12 -23 31 -35t49 -12q43 0 66.5 21t35.5 43q11 20 18.5 44t9.5 51z" />
    <glyph glyph-name="afii10084" unicode="&#x442;" horiz-adv-x="456" 
d="M40 438h376v-137h-18q-11 32 -19.5 53.5t-22.5 36.5q-17 18 -35 23.5t-36 5.5h-12v-402h64v-18h-218v18h64v402h-12q-18 0 -36 -5.5t-35 -23.5q-14 -15 -22.5 -36.5t-19.5 -53.5h-18v137z" />
    <glyph glyph-name="afii10085" unicode="&#x443;" horiz-adv-x="465" 
d="M296 0l-172 420h-69v18h225v-18h-66l115 -280h5l63 280h-60v18h135v-18h-57l-87 -376q-7 -28 -10.5 -46.5t-6.5 -34.5t-6.5 -32.5t-9.5 -40.5q-10 -42 -20 -70t-24 -49q-16 -25 -34 -37t-47 -12q-27 0 -45.5 7t-29.5 15q-22 17 -27.5 35t-5.5 32q0 42 19 62t45 20
t40 -17.5t14 -39.5q0 -13 -6 -25t-17 -19q-9 -5 -17.5 -8.5t-8.5 -17.5q0 -6 7 -16t34 -10q9 0 20.5 3t25.5 17q20 20 33.5 52.5t25.5 83.5q4 16 9 42.5t10 61.5z" />
    <glyph glyph-name="afii10086" unicode="&#x444;" horiz-adv-x="710" 
d="M670 235q0 -119 -67 -192q-46 -49 -110 -49q-73 0 -98 59v-138q0 -64 29 -102q20 -26 61 -42l-7 -17q-41 11 -65 26q-33 20 -58 53q-25 -33 -58 -53q-24 -15 -65 -26l-7 17q41 16 61 42q29 38 29 102v138q-25 -59 -98 -59q-64 0 -110 49q-67 73 -67 192q0 112 67 179
q20 20 45.5 35.5t56.5 15.5q39 0 65.5 -20.5t40.5 -52.5v150q0 64 -29 102q-20 26 -61 42l7 17q41 -11 65 -26q33 -20 58 -53q25 33 58 53q24 15 65 26l7 -17q-41 -16 -61 -42q-29 -38 -29 -102l-1 -149q14 32 41 52t66 20q31 0 56.5 -15.5t45.5 -35.5q67 -67 67 -179z
M582 239q0 49 -4 85t-13 60q-21 58 -75 58q-55 0 -77 -61q-20 -55 -20 -157q0 -101 16 -145q26 -71 79 -71q52 0 76 65q18 46 18 166zM317 224q0 102 -20 157q-22 61 -77 61q-54 0 -75 -58q-9 -24 -13 -60t-4 -85q0 -120 18 -166q24 -65 76 -65q53 0 79 71q16 44 16 145z
" />
    <glyph glyph-name="afii10087" unicode="&#x445;" horiz-adv-x="428" 
d="M193 201l-117 219h-64v18h212v-18h-58l75 -140l92 140h-59v18h141v-18h-64l-101 -156l130 -246h64v-18h-218v18h64l-89 167l-111 -167h62v-18h-144v18h64z" />
    <glyph glyph-name="afii10088" unicode="&#x446;" horiz-adv-x="537" 
d="M29 -9v27h64v402h-64v18h212v-18h-58v-402h166v402h-58v18h212v-18h-64v-396l22 -6q17 -7 35 -19.5t32.5 -29t24 -35t9.5 -36.5q0 -23 -9 -54.5t-28 -52.5t-56.5 -34.5t-79.5 -13.5q-27 0 -60.5 10.5t-84.5 32.5q-23 11 -49 21t-41 15q-16 5 -25 6.5t-26 1.5
q-21 0 -21 -16q0 -13 13 -20q21 -14 21 -34q0 -16 -9 -26.5t-29 -10.5q-22 0 -36 14t-14 38q0 33 27 60q26 27 62 39t68 12q45 0 129 -36q89 -38 148 -38q35 0 48.5 25t13.5 56q0 36 -19.5 60t-54.5 39z" />
    <glyph glyph-name="afii10089" unicode="&#x447;" horiz-adv-x="508" 
d="M404 420v-402h64v-18h-218v18h64v160h-102q-40 0 -74.5 4.5t-51.5 27.5q-8 11 -10 24t-2 25v161h-64v18h207v-18h-53v-161q0 -11 1.5 -22.5t6.5 -19.5q11 -15 29 -18t35 -3h78v224h-53v18h207v-18h-64z" />
    <glyph glyph-name="afii10090" unicode="&#x448;" horiz-adv-x="778" 
d="M584 18v402h-58v18h212v-18h-64v-402h64v-18h-698v18h64v402h-64v18h212v-18h-58v-402h150v402h-50v18h190v-18h-50v-402h150z" />
    <glyph glyph-name="afii10091" unicode="&#x449;" horiz-adv-x="778" 
d="M698 14q21 -6 41 -20t36 -33t25.5 -42t9.5 -47q0 -15 -5.5 -32t-14.5 -32.5t-20.5 -29t-22.5 -22.5q-17 -13 -43 -19t-54.5 -8t-56.5 -1.5t-47 0.5q-49 0 -98 10t-96 24q-29 9 -52.5 17t-46 14.5t-47 10t-56.5 3.5q-5 0 -13 -2.5t-15.5 -7t-12.5 -10t-5 -12.5
q0 -6 9.5 -6t11.5 1q6 0 11.5 1.5t11.5 -0.5q9 -3 18.5 -11.5t9.5 -19.5q0 -23 -12 -33t-30 -10q-12 0 -24 5.5t-22 15t-16 22t-6 26.5q0 38 28 57q19 14 42.5 22t48.5 12.5t50 6t48 1.5q54 0 108.5 -14t111.5 -31q45 -12 85 -21.5t87 -9.5q41 0 64 16t23 62
q0 49 -30.5 80.5t-73.5 43.5h-618v27h64v402h-64v18h212v-18h-58v-402h150v402h-50v18h190v-18h-50v-402h150v402h-58v18h212v-18h-64v-392z" />
    <glyph glyph-name="afii10092" unicode="&#x44a;" horiz-adv-x="630" 
d="M496 149q0 40 -16.5 64.5t-54.5 24.5q-48 0 -100 -39v-181h65q54 0 80 35t26 96zM582 151q0 -65 -52 -108t-129 -43h-76h-154v18h64l-1 402h-39q-19 0 -39.5 -4.5t-43.5 -27.5t-33.5 -54t-12.5 -58h-18v162h340v-18h-64l1 -196q18 11 36.5 19.5t29.5 12.5q26 10 66 10
q57 0 92 -32q33 -32 33 -83z" />
    <glyph glyph-name="afii10093" unicode="&#x44b;" horiz-adv-x="760" 
d="M482 18h64v402h-64v18h218v-18h-64v-402h64v-18h-218v18zM386 149q0 40 -16.5 64.5t-54.5 24.5q-48 0 -100 -39v-181h65q54 0 80 35t26 96zM473 151q0 -65 -52 -108t-129 -43h-77h-154v18h64v402h-64v18h218v-18l-65 -1l1 -195q18 11 36.5 19.5t29.5 12.5q27 10 67 10
q56 0 91 -32q34 -31 34 -83z" />
    <glyph glyph-name="afii10094" unicode="&#x44c;" horiz-adv-x="490" 
d="M364 149q0 40 -16.5 64.5t-54.5 24.5q-48 0 -100 -39v-181h65q54 0 80 35t26 96zM451 151q0 -65 -52 -108t-129 -43h-77h-154v18h64v402h-64v18h218v-18l-65 -1l1 -195q18 11 36.5 19.5t29.5 12.5q27 10 67 10q56 0 91 -32q34 -31 34 -83z" />
    <glyph glyph-name="afii10095" unicode="&#x44d;" horiz-adv-x="471" 
d="M109 278h-18q4 23 6 51.5t2 43.5q0 10 -1 24.5t-3 40.5h18l26 -36h6q30 20 51.5 28t50.5 8q9 0 23 -1.5t30.5 -7.5t34.5 -18t36 -32q30 -36 40 -80t10 -87q0 -29 -8.5 -71.5t-37.5 -82.5q-9 -12 -21.5 -25t-29 -23.5t-37 -17t-45.5 -6.5q-18 0 -33 3t-26 8
q-15 5 -26.5 11t-22.5 6q-15 0 -27 -11.5t-12 -34.5q0 -19 8 -41.5t16 -39.5l-18 -9q-15 28 -24.5 49t-15 36.5t-8 27t-2.5 21.5q0 16 5 27t12 18t15.5 9.5t15.5 2.5q20 0 36 -12.5t30 -23.5q15 -12 33.5 -21t44.5 -9q23 0 37 10t21.5 24t10.5 28.5t4 23.5q2 17 3 41t1 48
v23t-1 20q-10 7 -20 7q-12 0 -25.5 -11t-34.5 -34q-17 -17 -36 -27.5t-48 -10.5q-28 0 -51 13t-36 39h18q4 -6 11 -11.5t21 -5.5q15 0 28 8.5t25 17.5q17 14 42 30.5t57 16.5q10 0 22.5 -3t26.5 -11l1 18q0 4 0.5 8.5t0.5 9.5q0 24 -3.5 53t-8.5 44q-12 32 -31.5 40t-32.5 8
q-20 0 -47 -10.5t-52 -47.5q-14 -21 -23 -45t-14 -39z" />
    <glyph glyph-name="afii10096" unicode="&#x44e;" horiz-adv-x="743" 
d="M194 240h104q4 40 21.5 78t44 68t60 48.5t71.5 18.5q39 0 74.5 -20t63 -53t44 -75.5t16.5 -86.5q0 -14 -4.5 -45t-23.5 -69q-12 -24 -29 -45t-38.5 -37.5t-47.5 -26t-55 -9.5q-30 0 -55.5 9.5t-47 26t-38.5 37.5t-29 45q-12 25 -20 54.5t-8 63.5h-103v-204h64v-18h-218
v18h64v402h-64v18h218v-18h-64v-180zM399 256v-90q0 -23 1.5 -47.5t8.5 -47.5q3 -10 8.5 -22t15.5 -22t25 -17t37 -7t37 7t25 17t15.5 22t8.5 22q7 23 8.5 47.5t1.5 47.5v90q0 32 -1 59.5t-9 52.5q-7 21 -17 34.5t-22 20.5t-24.5 9.5t-22.5 2.5q-11 0 -23 -2.5t-24 -9.5
t-22 -20.5t-17 -34.5q-8 -25 -9 -52.5t-1 -59.5z" />
    <glyph glyph-name="afii10097" unicode="&#x44f;" horiz-adv-x="493" 
d="M299 224h-31h-8q-11 0 -23.5 -2.5t-23.5 -15.5q-10 -11 -13.5 -29.5t-4.5 -39t-1.5 -40.5t-4.5 -34q-8 -28 -23.5 -41t-42.5 -18q-2 0 -20 -2t-61 -2h-22v18h15q14 0 30 4t27 24q6 11 6.5 26.5t1.5 47.5q1 20 4 38.5t19 35.5q14 14 33 22.5t37 11.5l-1 6q-23 1 -39.5 9
t-27.5 17q-16 14 -24.5 31.5t-8.5 41.5q0 53 46 80q17 11 47.5 18t85.5 7h182v-18h-64v-402h64v-18h-218v18h64v206zM299 420h-23q-13 0 -33.5 -2.5t-35.5 -15.5q-16 -14 -19 -32.5t-3 -34.5q0 -17 2.5 -38t16.5 -35t31 -17t35 -3h29v178z" />
    <glyph glyph-name="afli10071" unicode="&#x451;" horiz-adv-x="471" 
d="M272.221 628.42q0 21.6113 14.4072 36.0186t36.0186 14.4072t36.0186 -14.4072t14.4072 -36.0186t-14.4072 -35.6182q-14.4072 -14.0078 -36.0186 -14.0078t-36.0186 14.0078q-14.4072 14.0068 -14.4072 35.6182zM94.2207 629.42q0 21.6113 14.4072 36.0186
t36.0186 14.4072t36.0186 -14.4072t14.4072 -36.0186t-14.4072 -35.6182q-14.4072 -14.0078 -36.0186 -14.0078t-36.0186 14.0078q-14.4072 14.0068 -14.4072 35.6182zM421 227h-269v-9q0 -30 4.5 -66t15.5 -63q17 -43 41.5 -61.5t60.5 -18.5q38 0 64.5 19.5t41.5 48.5
q11 20 16 43t6 44h18q0 -11 -2.5 -33t-13.5 -48q-6 -16 -17.5 -33t-29.5 -31.5t-43.5 -23.5t-59.5 -9q-57 0 -94 22.5t-60 49.5q-29 35 -39.5 73t-10.5 72q0 63 18 106.5t39 69.5q20 25 40.5 39.5t39.5 22t35 10t27 2.5q15 0 35.5 -4t41.5 -15t40.5 -31t33.5 -51
q12 -28 16.5 -59t4.5 -57v-9zM152 245h167q-1 60 -5.5 93t-15.5 55q-14 29 -30.5 35.5t-27.5 6.5q-8 0 -18.5 -3.5t-21 -12.5t-20 -25t-15.5 -41q-6 -23 -9 -54t-4 -54z" />
    <glyph glyph-name="afli10103" unicode="&#x456;" horiz-adv-x="288" 
d="M82 635q0 26 17.5 43.5t44.5 17.5q32 0 47.5 -20t15.5 -41q0 -26 -18.5 -44.5t-44.5 -18.5q-21 0 -41.5 15.5t-20.5 47.5zM35 18h64v402h-64v18h218v-18h-64v-402h64v-18h-218v18z" />
    <glyph glyph-name="afli10146" unicode="&#x462;" horiz-adv-x="807" 
d="M628 194q0 92 -36 127q-17 17 -37 23t-47 6q-64 0 -135 -28v-301h110q69 0 107 44t38 129zM738 196q0 -88 -68 -142q-67 -54 -178 -54h-326l1 22h90v571h-28q-24 0 -46.5 -14t-36.5 -28q-24 -23 -39.5 -58t-17.5 -66h-20l8 193h180v126h-90v22h296v-22h-90v-126h182
l9 -172h-19q-4 32 -19 56t-40 47q-14 14 -37 28t-46 14h-30v-251q38 12 80.5 22.5t73.5 10.5q32 0 60 -4.5t57 -16.5q25 -10 48 -31q20 -20 33 -52t13 -75z" />
    <glyph glyph-name="afli10194" unicode="&#x463;" horiz-adv-x="591" 
d="M552 228q0 -42 -9.5 -80.5t-31.5 -74.5q-15 -24 -35 -38.5t-40 -22t-38.5 -9.5t-31.5 -2l-249 1v17h64v596h-11q-18 0 -36 -5.5t-35 -22.5q-15 -15 -22.5 -36t-18.5 -53h-18v135h139l1 36q1 32 -3 57t-19 43q-23 25 -63 42l7 16q41 -10 68 -25q34 -20 61 -53q28 34 61 53
q25 15 68 25l7 -16q-43 -16 -64 -42q-28 -34 -30 -100l-1 -36h143v-135h-18q-11 32 -19.5 53t-22.5 36q-17 17 -35 22.5t-36 5.5h-13l-1 -236q15 27 31 40.5t31.5 19.5t28.5 6.5t21 0.5q38 0 75 -22t63 -67q20 -35 26 -67.5t6 -61.5zM450 228q0 61 -3 92t-8 48l-5.5 16.5
t-10.5 20t-19 17t-30 7.5q-26 0 -53 -18.5t-50 -69.5v-321l96 1q7 0 17 4t20.5 13.5t20 24.5t15.5 38q1 7 3 14.5t3.5 21t2.5 35t1 56.5z" />
    <glyph glyph-name="afli10147" unicode="&#x472;" horiz-adv-x="730" 
d="M524 308v35q-13 8 -29.5 15.5t-29.5 7.5q-12 0 -28 -7t-44 -21q-23 -13 -43.5 -22t-40.5 -9q-12 0 -23.5 3t-20.5 7.5t-15.5 8.5t-8.5 6q-11 8 -19.5 15.5t-15.5 15.5v-55q0 -48 2.5 -101.5t17.5 -97.5t47.5 -73t91.5 -29t91.5 29t47.5 73t17.5 97.5t2.5 101.5zM524 359
v33q0 48 -2.5 101.5t-17.5 97.5t-47.5 73t-91.5 29t-91.5 -29t-47.5 -73t-17.5 -97.5t-2.5 -101.5v-12q11 -11 25 -18.5t26 -7.5q11 0 27 7.5t51 25.5q23 12 43 21.5t37 9.5q10 0 21.5 -3.5t21 -8t16 -8.5t8.5 -5q11 -8 21.5 -16.5t20.5 -17.5zM664 350q0 -76 -23.5 -142.5
t-64.5 -115.5t-95.5 -77t-115.5 -28q-62 0 -116 28t-95 77t-64.5 115.5t-23.5 142.5t23.5 142.5t64.5 116t95 78t116 28.5q61 0 115.5 -28.5t95.5 -78t64.5 -116t23.5 -142.5z" />
    <glyph glyph-name="afli10196" unicode="&#x473;" horiz-adv-x="496" 
d="M344 166v35q-5 3 -15.5 7.5t-15.5 4.5q-8 0 -20 -6.5t-26 -13.5q-11 -5 -22.5 -9t-24.5 -4q-19 0 -36.5 9t-31.5 23v-46q0 -23 1.5 -47.5t8.5 -47.5q3 -10 8.5 -22t15.5 -22t25 -17t37 -7t37 7t25 17t15.5 22t8.5 22q7 23 8.5 47.5t1.5 47.5zM344 223v33q0 32 -1 59.5
t-9 52.5q-7 21 -17.5 34.5t-22 20.5t-23.5 9.5t-23 2.5t-23 -2.5t-23.5 -9.5t-22 -20.5t-17.5 -34.5q-8 -25 -9 -52.5t-1 -59.5v-20q6 -7 16.5 -13t20.5 -6t21.5 4t25.5 10q12 5 24.5 8.5t26.5 3.5t29 -6t28 -14zM446 218q0 -14 -4.5 -45t-23.5 -69q-12 -24 -29 -45
t-38.5 -36.5t-47.5 -25t-55 -9.5q-30 0 -55.5 9.5t-47 25.5t-38.5 37t-29 44q-20 38 -24 69t-4 45q0 44 16.5 86.5t44 75.5t63 53t74.5 20t74.5 -20t63 -53t44 -75.5t16.5 -86.5z" />
    <glyph glyph-name="uni0474" unicode="&#x474;" horiz-adv-x="715" 
d="M507 566l-167 -579h-20l-232 691h-75v22h275v-22h-80l162 -484h6l102 359q8 30 18 56.5t21 46.5q19 33 41 41t40 8q28 0 48 -7.5t32 -20.5t17.5 -29t5.5 -32q0 -12 -3.5 -25t-12 -23.5t-21.5 -17t-31 -6.5q-30 0 -47.5 19.5t-17.5 48.5q0 11 3 23.5t9 21.5q5 8 10 11t5 6
q0 2 -3.5 5t-10.5 3q-22 0 -33.5 -15t-18.5 -31q-8 -20 -12 -35t-10 -35z" />
    <glyph glyph-name="uni0475" unicode="&#x475;" horiz-adv-x="526" 
d="M529 373q0 -24 -14 -47q-14 -20 -40 -20q-16 0 -27.5 9.5t-11.5 26.5q0 24 26 39q16 7 16 19t-18 12q-33 0 -49 -30q-6 -10 -12 -27t-15 -42l-122 -326h-18l-181 423h-65v18h224v-18h-69l124 -315q3 8 12 31.5t21 54t25 64t24.5 63t20 51t11.5 26.5q24 51 74 51
q29 0 46.5 -17t17.5 -46z" />
    <glyph glyph-name="uni1D05" unicode="&#x1d05;" horiz-adv-x="530" 
d="M405 219q0 74 -22 118q-41 83 -139 83q-8 0 -21.5 -0.5t-23.5 -0.5l-2 -400h47q95 0 136 77q25 49 25 123zM497 222q0 -39 -13 -75t-32 -62q-9 -19 -28 -34.5t-43.5 -27t-51.5 -17.5t-51 -6h-244l-1 19h73v401h-72l1 19h240q38 0 63.5 -5.5t44.5 -15t34.5 -23.5t32.5 -30
q27 -26 37 -60t10 -83z" />
    <glyph glyph-name="emacronacute" unicode="&#x1e17;" horiz-adv-x="471" 
d="M406 835q0 -20 -15 -32.5t-31 -20.5l-112 -54l-17 20l77 92q11 13 23.5 24.5t30.5 11.5q19 0 31.5 -10.5t12.5 -30.5zM115 627h261v-43h-261v43zM421 236v-9h-269v-9q0 -30 4.5 -66t15.5 -63q17 -43 41.5 -61.5t60.5 -18.5q38 0 64 19.5t42 48.5q11 20 16 43t6 44h18
q0 -11 -2.5 -33t-13.5 -48q-6 -17 -17.5 -33.5t-29.5 -29.5t-43.5 -21.5t-59.5 -8.5q-57 0 -94 20.5t-60 47.5q-29 35 -39.5 73t-10.5 72q0 63 18 106.5t39 69.5q20 25 40.5 39.5t39.5 22t35 10t27 2.5q15 0 35.5 -4t41.5 -15t40.5 -31t33.5 -51q12 -28 16.5 -59t4.5 -57z
M152 245h167q-1 60 -5.5 93t-15.5 55q-14 29 -30.5 35.5t-27.5 6.5q-8 0 -18.5 -3.5t-21 -12.5t-20 -25t-15.5 -41q-6 -23 -9 -54t-4 -54z" />
    <glyph glyph-name="idiaresiisacute" unicode="&#x1e2f;" horiz-adv-x="288" 
d="M296 741q0 -19 -14.5 -30.5t-29.5 -19.5l-107 -52l-16 20l73 87q11 13 23 24t29 11q18 0 30 -10t12 -30zM35 0v18h64v402h-64v18h218v-18h-64v-402h64v-18h-218zM209 570q0 23 15 38t38 15t38 -15t15 -38t-15 -38t-38 -15t-38 15t-15 38zM-26 570q0 23 15 38t37 15
q23 0 38 -15t15 -38t-15 -38t-38 -15q-22 0 -37 15t-15 38z" />
    <glyph glyph-name="omacronacute" unicode="&#x1e53;" horiz-adv-x="471" 
d="M345 782l-112 -54l-17 20l77 92q12 15 24.5 25.5t29.5 10.5q20 0 32 -11t12 -30q0 -20 -15 -32.5t-31 -20.5zM105 584h261v43h-261v-43zM140 176v80q0 32 1 59.5t9 52.5q6 21 16.5 34.5t22.5 20.5t24 9.5t23 2.5t23 -2.5t23.5 -9.5t22 -20.5t17.5 -34.5q8 -25 9 -52.5
t1 -59.5v-80q0 -29 -1 -54t-9 -51q-3 -10 -9 -22t-15.5 -22t-24.5 -17t-37 -7t-37 7t-25 17t-15.5 22t-8.5 22q-8 26 -9 51t-1 54zM236 453q-39 0 -74.5 -20t-63 -53t-44 -75.5t-16.5 -86.5q0 -14 4 -45t24 -69q12 -23 29 -44t38.5 -37t47 -25.5t55.5 -9.5q28 0 53.5 9.5
t47.5 25t39.5 36.5t29.5 45q19 38 23.5 69t4.5 45q0 44 -16.5 86.5t-44 75.5t-63 53t-74.5 20z" />
    <glyph glyph-name="endash" unicode="&#x2013;" horiz-adv-x="571" 
d="M46 263h479v-46h-479v46z" />
    <glyph glyph-name="emdash" unicode="&#x2014;" horiz-adv-x="773" 
d="M29 263h715v-46h-715v46z" />
    <glyph glyph-name="quoteright" unicode="&#x2019;" horiz-adv-x="235" 
d="M104.194 440.397l-17.5146 15.5684q10.7031 11.6758 23.3525 28.7041q12.6494 17.0273 20.4336 32.5957q6.81152 12.6494 13.6221 30.6504q6.81152 18.001 6.81152 32.5967q0 1.94629 -0.972656 5.83789q-0.973633 3.89258 -7.78418 3.89258
q-1.94629 0 -3.89258 -0.973633q-1.94629 -0.972656 -3.8916 -1.94531q-8.75781 -3.89258 -21.4072 -3.89258q-10.7031 0 -25.7852 2.91895q-15.0811 2.91895 -25.7852 16.542q-12.6484 15.5684 -12.6484 40.8662q0 16.542 5.35156 27.7314t13.1357 18.001
q17.5146 17.5146 44.7588 17.5146q16.541 0 30.6504 -6.81152q14.1084 -6.81152 22.8662 -17.5146q6.81055 -7.78418 13.6221 -23.3525q6.81055 -15.5684 6.81055 -40.8662q0 -25.2988 -7.29688 -49.625q-7.29785 -24.3252 -21.8936 -51.5703
q-12.6494 -23.3516 -25.2979 -41.8398q-12.6494 -18.4873 -27.2451 -35.0283z" />
    <glyph glyph-name="quotedblleft" unicode="&#x201c;" horiz-adv-x="406" 
d="M320 706l18 -16q-11 -12 -24 -29.5t-21 -33.5q-7 -13 -14 -31.5t-7 -33.5q0 -2 1 -6t8 -4q2 0 4 1l4 2q9 4 22 4q11 0 26.5 -3.5t26.5 -17.5q13 -16 13 -42q0 -17 -5.5 -28.5t-13.5 -18.5q-20 -18 -46 -18q-17 0 -31.5 7t-23.5 18q-7 8 -14 24t-7 42q0 27 7.5 52t22.5 53
q13 24 26 43t28 36zM113 706l18 -16q-11 -12 -24 -29.5t-21 -33.5q-7 -13 -14 -31.5t-7 -33.5q0 -2 1 -6t8 -4q2 0 4 1l4 2q9 4 22 4q11 0 26.5 -3.5t26.5 -17.5q13 -16 13 -42q0 -17 -5.5 -28.5t-13.5 -18.5q-20 -18 -46 -18q-17 0 -31.5 7t-23.5 18q-7 8 -14 24t-7 42
q0 27 7.5 52t22.5 53q13 24 26 43t28 36z" />
    <glyph glyph-name="quotedblright" unicode="&#x201d;" horiz-adv-x="406" 
d="M86 431l-18 16q11 12 24 29.5t21 33.5q7 13 14 31.5t7 33.5q0 2 -1 6t-8 4q-2 0 -4 -1l-4 -2q-9 -4 -22 -4q-11 0 -26.5 3.5t-26.5 17.5q-13 16 -13 42q0 17 5.5 28.5t13.5 18.5q18 18 46 18q17 0 31.5 -7t23.5 -18q7 -8 14 -24t7 -42q0 -27 -7.5 -52t-22.5 -53
q-13 -24 -26 -43t-28 -36zM293 431l-18 16q11 12 24 29.5t21 33.5q7 13 14 31.5t7 33.5q0 2 -1 6t-8 4q-2 0 -4 -1l-4 -2q-9 -4 -22 -4q-11 0 -26.5 3.5t-26.5 17.5q-13 16 -13 42q0 17 5.5 28.5t13.5 18.5q18 18 46 18q17 0 31.5 -7t23.5 -18q7 -8 14 -24t7 -42
q0 -27 -7.5 -52t-22.5 -53q-13 -24 -26 -43t-28 -36z" />
    <glyph glyph-name="quotedblbase" unicode="&#x201e;" horiz-adv-x="406" 
d="M86 -163l-18 16q11 12 24 29.5t21 33.5q7 13 14 31.5t7 33.5q0 2 -1 6t-8 4q-2 0 -4 -1l-4 -2q-9 -4 -22 -4q-11 0 -26.5 3t-26.5 17q-13 16 -13 42q0 17 5.5 28.5t13.5 18.5q18 18 46 18q17 0 31.5 -7t23.5 -18q7 -8 14 -24t7 -42t-7.5 -51t-22.5 -53q-13 -24 -26 -43
t-28 -36zM293 -163l-18 16q11 12 24 29.5t21 33.5q7 13 14 31.5t7 33.5q0 2 -1 6t-8 4q-2 0 -4 -1l-4 -2q-9 -4 -22 -4q-11 0 -26.5 3t-26.5 17q-13 16 -13 42q0 17 5.5 28.5t13.5 18.5q18 18 46 18q17 0 31.5 -7t23.5 -18q7 -8 14 -24t7 -42t-7.5 -51t-22.5 -53
q-13 -24 -26 -43t-28 -36z" />
    <glyph glyph-name="dagger" unicode="&#x2020;" horiz-adv-x="539" 
d="M281 -164h-22q-5 116 -12 193t-14.5 127t-15.5 78.5t-16 46.5q27 48 39 91.5t17 80.5q-15 -8 -26 -12.5t-20 -7.5l-16.5 -5.5t-15.5 -5.5q-21 -8 -36.5 -15t-31.5 -7q-10 0 -21 4t-20 11.5t-15 19.5t-6 28t6 28t15 19.5t20 11.5t21 4q4 0 11.5 -1.5t23 -7t42.5 -15.5
t69 -28q-5 38 -12.5 62t-16.5 49q-11 29 -16 42.5t-5 24.5q0 21 15.5 42t47.5 21t47.5 -21t15.5 -42q0 -11 -5 -24.5t-16 -42.5q-10 -25 -17.5 -49.5t-13.5 -61.5q41 16 67 26t41.5 16t24.5 8t15 2q10 0 21 -4t20 -11.5t15 -19.5t6 -28t-6 -28t-15 -19.5t-20 -11.5t-21 -4
q-16 0 -32 7t-36 15q-8 3 -15.5 5.5l-16.5 5.5t-20.5 7.5t-27.5 12.5q7 -47 21 -87.5t37 -84.5q-6 -13 -14 -38.5t-16 -75.5t-15.5 -130t-12.5 -201z" />
    <glyph glyph-name="ellipsis" unicode="&#x2026;" horiz-adv-x="647" 
d="M38.5391 47.5488q0 26.7461 17.8311 44.5771t44.5771 17.8311t44.5771 -17.8311t17.8311 -44.5771t-17.8311 -44.082q-17.8311 -17.335 -44.5771 -17.335t-44.5771 17.335q-17.8311 17.3359 -17.8311 44.082zM260.539 47.5488q0 26.7461 17.8311 44.5771t44.5771 17.8311
t44.5771 -17.8311t17.8311 -44.5771t-17.8311 -44.082q-17.8311 -17.335 -44.5771 -17.335t-44.5771 17.335q-17.8311 17.3359 -17.8311 44.082zM485.539 47.5488q0 26.7461 17.8311 44.5771t44.5771 17.8311t44.5771 -17.8311t17.8311 -44.5771t-17.8311 -44.082
q-17.8311 -17.335 -44.5771 -17.335t-44.5771 17.335q-17.8311 17.3359 -17.8311 44.082z" />
    <glyph glyph-name="asterism" unicode="&#x2042;" horiz-adv-x="2766" 
d="M1383.39 254.126q-25.4512 -38.9258 -41.1709 -80.8447q-15.7197 -41.9199 -15.7197 -88.3311q0 -4.49121 1.49707 -14.9717q1.49707 -10.4795 1.49707 -20.2109t-2.24609 -17.2168q-2.24512 -7.48633 -11.2285 -7.48633q-13.4736 0 -20.2109 14.9717t-14.2227 16.4688
q-11.9775 1.49707 -25.4512 -11.9775q-13.4746 -13.4736 -22.457 -19.4629q-8.98242 -5.98828 -14.9717 -5.98828q-11.9766 0 -13.4736 11.2285t1.49707 24.7031q2.99414 13.4736 7.48535 27.6963t4.49121 21.709q0 7.48535 -6.73633 9.73145
q-6.7373 2.24512 -14.2227 2.99414q-7.48633 0.748047 -14.2236 3.74219q-6.73633 2.99414 -6.73633 11.9775q0 8.98242 8.98242 13.4736q8.98242 4.49219 16.4688 7.48633q25.4512 7.48535 47.1592 14.2227q21.709 6.7373 42.668 23.2051q43.417 31.4404 74.8574 74.8564
q-43.417 11.9775 -80.8457 12.7256q-37.4277 0.749023 -79.3477 -12.7256q-11.9775 -2.99414 -28.4453 -7.48535q-16.4688 -4.49121 -28.4453 -4.49121q-14.9717 0 -14.9717 6.7373q0 6.73633 5.24023 14.9707q5.23926 8.23438 12.7256 16.4688
q7.48535 8.23438 7.48535 12.7256q0 7.48535 -8.98242 13.4746q-8.9834 5.98828 -18.7148 12.7256q-9.73145 6.73633 -18.7139 14.9707t-8.98242 18.7148q0 8.98242 11.9766 13.4736q11.9775 4.49121 19.4629 4.49121t14.2227 -2.24512q6.7373 -2.24609 14.2227 -2.24609
q13.4746 0 17.9658 8.9834q4.49121 8.98242 5.24023 19.4619q0.748047 10.4805 2.24512 19.4629q1.49707 8.9834 10.4805 8.9834q4.49121 0 10.4795 -7.48633q5.98828 -7.48535 8.98242 -10.4795q31.4404 -44.9141 64.377 -81.5938t88.3311 -53.1484
q0 32.9365 -5.98828 61.3828q-5.98926 28.4453 -16.4688 54.6445q-10.4805 26.2002 -24.7031 51.6514t-29.1934 53.8965q0 11.9775 5.23926 14.2227q5.24023 2.24609 11.9775 0q6.7373 -2.24512 14.9707 -5.98828q8.23438 -3.74219 12.7266 -3.74219
q7.48535 0 11.2275 11.2285q3.74316 11.2285 6.7373 24.7021q2.99414 13.4746 7.48633 24.7031q4.49121 11.2285 13.4736 11.2285q14.9717 0 19.4629 -11.2285t6.7373 -25.4512q2.24512 -14.2236 5.23926 -25.4521q2.99512 -11.2285 14.9717 -11.2285
q10.4805 0 18.7139 5.98926q8.23438 5.98828 15.7197 5.98828q11.9775 -4.49121 9.73145 -15.7197q-2.24512 -11.2285 -6.73633 -18.7139q-5.98926 -8.9834 -12.7256 -17.2178q-6.7373 -8.23438 -12.7256 -18.7139q-46.4111 -74.8564 -46.4111 -160.193v-5.98828
q46.4111 20.96 85.3359 51.6514q38.9258 30.6914 64.377 75.6045q4.49121 7.48633 9.73145 15.7207q5.23926 8.2334 15.7197 8.2334q7.48535 0 9.73145 -5.98828q2.24512 -5.98828 3.74316 -14.2227q1.49707 -8.23438 2.24512 -16.4688q0.749023 -8.2334 5.24023 -12.7256
q2.99414 -4.49121 14.9707 -3.74219q11.9775 0.748047 24.7031 0.748047t22.457 -2.99414t9.73145 -13.4736q0 -11.9775 -7.48633 -18.7148q-7.48535 -6.73633 -17.2168 -12.7256q-9.73145 -5.98828 -17.2168 -12.7256t-7.48535 -17.2168q0 -4.49121 5.98828 -12.7256
t10.4795 -17.2168q4.49219 -8.9834 2.24609 -14.9717t-17.2168 -5.98828q-5.98828 0 -25.4512 5.24023q-19.4629 5.23926 -26.9482 8.2334q-41.9199 11.9775 -80.8457 14.2236q-38.9248 2.24512 -79.3477 -14.2236q25.4512 -38.9248 67.3711 -69.6162
q41.9189 -30.6914 86.833 -44.165q5.98926 -2.99414 18.7148 -7.48633q12.7256 -4.49121 12.7256 -13.4736q0 -8.9834 -5.98926 -11.9775q-5.98828 -2.99414 -13.4736 -5.23926q-7.48535 -2.24609 -13.4746 -6.7373q-5.98828 -4.49121 -5.98828 -13.4746
q0 -5.98828 3.74316 -18.7139q3.74219 -12.7256 6.73633 -24.7031q2.99512 -11.9766 1.49805 -21.708q-1.49805 -9.73145 -11.9775 -9.73145q-8.98242 0 -16.4688 5.98828q-7.48535 5.98926 -15.7197 12.7256q-8.23438 6.7373 -16.4678 12.7256
q-8.23438 5.98926 -17.2178 5.98926l-1.49707 -1.49707l-1.49707 -2.99414q-4.49121 -5.98926 -13.4736 -17.9658q-8.9834 -11.9775 -16.4688 -11.9775q-10.4795 0 -12.7256 8.9834q-2.24609 8.98242 -2.24609 16.4678q0 56.8916 -7.48535 108.542
q-7.48535 51.6514 -41.9199 98.0625zM314.392 254.126q-25.4512 -38.9258 -41.1709 -80.8447q-15.7197 -41.9199 -15.7197 -88.3311q0 -4.49121 1.49707 -14.9717q1.49707 -10.4795 1.49707 -20.2109t-2.24609 -17.2168q-2.24512 -7.48633 -11.2285 -7.48633
q-13.4736 0 -20.2109 14.9717t-14.2227 16.4688q-11.9775 1.49707 -25.4512 -11.9775q-13.4746 -13.4736 -22.457 -19.4629q-8.98242 -5.98828 -14.9717 -5.98828q-11.9766 0 -13.4736 11.2285t1.49707 24.7031q2.99414 13.4736 7.48535 27.6963t4.49121 21.709
q0 7.48535 -6.73633 9.73145q-6.7373 2.24512 -14.2227 2.99414q-7.48633 0.748047 -14.2236 3.74219q-6.73633 2.99414 -6.73633 11.9775q0 8.98242 8.98242 13.4736q8.98242 4.49219 16.4688 7.48633q25.4512 7.48535 47.1592 14.2227q21.709 6.7373 42.668 23.2051
q43.417 31.4404 74.8574 74.8564q-43.417 11.9775 -80.8457 12.7256q-37.4277 0.749023 -79.3477 -12.7256q-11.9775 -2.99414 -28.4453 -7.48535q-16.4688 -4.49121 -28.4453 -4.49121q-14.9717 0 -14.9717 6.7373q0 6.73633 5.24023 14.9707
q5.23926 8.23438 12.7256 16.4688q7.48535 8.23438 7.48535 12.7256q0 7.48535 -8.98242 13.4746q-8.9834 5.98828 -18.7148 12.7256q-9.73145 6.73633 -18.7139 14.9707t-8.98242 18.7148q0 8.98242 11.9766 13.4736q11.9775 4.49121 19.4629 4.49121t14.2227 -2.24512
q6.7373 -2.24609 14.2227 -2.24609q13.4746 0 17.9658 8.9834q4.49121 8.98242 5.24023 19.4619q0.748047 10.4805 2.24512 19.4629q1.49707 8.9834 10.4805 8.9834q4.49121 0 10.4795 -7.48633q5.98828 -7.48535 8.98242 -10.4795q31.4404 -44.9141 64.377 -81.5938
t88.3311 -53.1484q0 32.9365 -5.98828 61.3828q-5.98926 28.4453 -16.4688 54.6445q-10.4805 26.2002 -24.7031 51.6514t-29.1934 53.8965q0 11.9775 5.23926 14.2227q5.24023 2.24609 11.9775 0q6.7373 -2.24512 14.9707 -5.98828q8.23438 -3.74219 12.7266 -3.74219
q7.48535 0 11.2275 11.2285q3.74316 11.2285 6.7373 24.7021q2.99414 13.4746 7.48633 24.7031q4.49121 11.2285 13.4736 11.2285q14.9717 0 19.4629 -11.2285t6.7373 -25.4512q2.24512 -14.2236 5.23926 -25.4521q2.99512 -11.2285 14.9717 -11.2285
q10.4805 0 18.7139 5.98926q8.23438 5.98828 15.7197 5.98828q11.9775 -4.49121 9.73145 -15.7197q-2.24512 -11.2285 -6.73633 -18.7139q-5.98926 -8.9834 -12.7256 -17.2178q-6.7373 -8.23438 -12.7256 -18.7139q-46.4111 -74.8564 -46.4111 -160.193v-5.98828
q46.4111 20.96 85.3359 51.6514q38.9258 30.6914 64.377 75.6045q4.49121 7.48633 9.73145 15.7207q5.23926 8.2334 15.7197 8.2334q7.48535 0 9.73145 -5.98828q2.24512 -5.98828 3.74316 -14.2227q1.49707 -8.23438 2.24512 -16.4688q0.749023 -8.2334 5.24023 -12.7256
q2.99414 -4.49121 14.9707 -3.74219q11.9775 0.748047 24.7031 0.748047t22.457 -2.99414t9.73145 -13.4736q0 -11.9775 -7.48633 -18.7148q-7.48535 -6.73633 -17.2168 -12.7256q-9.73145 -5.98828 -17.2168 -12.7256t-7.48535 -17.2168q0 -4.49121 5.98828 -12.7256
t10.4795 -17.2168q4.49219 -8.9834 2.24609 -14.9717t-17.2168 -5.98828q-5.98828 0 -25.4512 5.24023q-19.4629 5.23926 -26.9482 8.2334q-41.9199 11.9775 -80.8457 14.2236q-38.9248 2.24512 -79.3477 -14.2236q25.4512 -38.9248 67.3711 -69.6162
q41.9189 -30.6914 86.833 -44.165q5.98926 -2.99414 18.7148 -7.48633q12.7256 -4.49121 12.7256 -13.4736q0 -8.9834 -5.98926 -11.9775q-5.98828 -2.99414 -13.4736 -5.23926q-7.48535 -2.24609 -13.4746 -6.7373q-5.98828 -4.49121 -5.98828 -13.4746
q0 -5.98828 3.74316 -18.7139q3.74219 -12.7256 6.73633 -24.7031q2.99512 -11.9766 1.49805 -21.708q-1.49805 -9.73145 -11.9775 -9.73145q-8.98242 0 -16.4688 5.98828q-7.48535 5.98926 -15.7197 12.7256q-8.23438 6.7373 -16.4678 12.7256
q-8.23438 5.98926 -17.2178 5.98926l-1.49707 -1.49707l-1.49707 -2.99414q-4.49121 -5.98926 -13.4736 -17.9658q-8.9834 -11.9775 -16.4688 -11.9775q-10.4795 0 -12.7256 8.9834q-2.24609 8.98242 -2.24609 16.4678q0 56.8916 -7.48535 108.542
q-7.48535 51.6514 -41.9199 98.0625zM2455.39 253.126q-25.4512 -38.9258 -41.1709 -80.8447q-15.7197 -41.9199 -15.7197 -88.3311q0 -4.49121 1.49707 -14.9717q1.49707 -10.4795 1.49707 -20.2109t-2.24609 -17.2168q-2.24512 -7.48633 -11.2285 -7.48633
q-13.4736 0 -20.2109 14.9717t-14.2227 16.4688q-11.9775 1.49707 -25.4512 -11.9775q-13.4746 -13.4736 -22.457 -19.4629q-8.98242 -5.98828 -14.9717 -5.98828q-11.9766 0 -13.4736 11.2285t1.49707 24.7031q2.99414 13.4736 7.48535 27.6963t4.49121 21.709
q0 7.48535 -6.73633 9.73145q-6.7373 2.24512 -14.2227 2.99414q-7.48633 0.748047 -14.2236 3.74219q-6.73633 2.99414 -6.73633 11.9775q0 8.98242 8.98242 13.4736q8.98242 4.49219 16.4688 7.48633q25.4512 7.48535 47.1592 14.2227q21.709 6.7373 42.668 23.2051
q43.417 31.4404 74.8574 74.8564q-43.417 11.9775 -80.8457 12.7256q-37.4277 0.749023 -79.3477 -12.7256q-11.9775 -2.99414 -28.4453 -7.48535q-16.4688 -4.49121 -28.4453 -4.49121q-14.9717 0 -14.9717 6.7373q0 6.73633 5.24023 14.9707
q5.23926 8.23438 12.7256 16.4688q7.48535 8.23438 7.48535 12.7256q0 7.48535 -8.98242 13.4746q-8.9834 5.98828 -18.7148 12.7256q-9.73145 6.73633 -18.7139 14.9707t-8.98242 18.7148q0 8.98242 11.9766 13.4736q11.9775 4.49121 19.4629 4.49121t14.2227 -2.24512
q6.7373 -2.24609 14.2227 -2.24609q13.4746 0 17.9658 8.9834q4.49121 8.98242 5.24023 19.4619q0.748047 10.4805 2.24512 19.4629q1.49707 8.9834 10.4805 8.9834q4.49121 0 10.4795 -7.48633q5.98828 -7.48535 8.98242 -10.4795q31.4404 -44.9141 64.377 -81.5938
t88.3311 -53.1484q0 32.9365 -5.98828 61.3828q-5.98926 28.4453 -16.4688 54.6445q-10.4805 26.2002 -24.7031 51.6514t-29.1934 53.8965q0 11.9775 5.23926 14.2227q5.24023 2.24609 11.9775 0q6.7373 -2.24512 14.9707 -5.98828q8.23438 -3.74219 12.7266 -3.74219
q7.48535 0 11.2275 11.2285q3.74316 11.2285 6.7373 24.7021q2.99414 13.4746 7.48633 24.7031q4.49121 11.2285 13.4736 11.2285q14.9717 0 19.4629 -11.2285t6.7373 -25.4512q2.24512 -14.2236 5.23926 -25.4521q2.99512 -11.2285 14.9717 -11.2285
q10.4805 0 18.7139 5.98926q8.23438 5.98828 15.7197 5.98828q11.9775 -4.49121 9.73145 -15.7197q-2.24512 -11.2285 -6.73633 -18.7139q-5.98926 -8.9834 -12.7256 -17.2178q-6.7373 -8.23438 -12.7256 -18.7139q-46.4111 -74.8564 -46.4111 -160.193v-5.98828
q46.4111 20.96 85.3359 51.6514q38.9258 30.6914 64.377 75.6045q4.49121 7.48633 9.73145 15.7207q5.23926 8.2334 15.7197 8.2334q7.48535 0 9.73145 -5.98828q2.24512 -5.98828 3.74316 -14.2227q1.49707 -8.23438 2.24512 -16.4688q0.749023 -8.2334 5.24023 -12.7256
q2.99414 -4.49121 14.9707 -3.74219q11.9775 0.748047 24.7031 0.748047t22.457 -2.99414t9.73145 -13.4736q0 -11.9775 -7.48633 -18.7148q-7.48535 -6.73633 -17.2168 -12.7256q-9.73145 -5.98828 -17.2168 -12.7256t-7.48535 -17.2168q0 -4.49121 5.98828 -12.7256
t10.4795 -17.2168q4.49219 -8.9834 2.24609 -14.9717t-17.2168 -5.98828q-5.98828 0 -25.4512 5.24023q-19.4629 5.23926 -26.9482 8.2334q-41.9199 11.9775 -80.8457 14.2236q-38.9248 2.24512 -79.3477 -14.2236q25.4512 -38.9248 67.3711 -69.6162
q41.9189 -30.6914 86.833 -44.165q5.98926 -2.99414 18.7148 -7.48633q12.7256 -4.49121 12.7256 -13.4736q0 -8.9834 -5.98926 -11.9775q-5.98828 -2.99414 -13.4736 -5.23926q-7.48535 -2.24609 -13.4746 -6.7373q-5.98828 -4.49121 -5.98828 -13.4746
q0 -5.98828 3.74316 -18.7139q3.74219 -12.7256 6.73633 -24.7031q2.99512 -11.9766 1.49805 -21.708q-1.49805 -9.73145 -11.9775 -9.73145q-8.98242 0 -16.4688 5.98828q-7.48535 5.98926 -15.7197 12.7256q-8.23438 6.7373 -16.4678 12.7256
q-8.23438 5.98926 -17.2178 5.98926l-1.49707 -1.49707l-1.49707 -2.99414q-4.49121 -5.98926 -13.4736 -17.9658q-8.9834 -11.9775 -16.4688 -11.9775q-10.4795 0 -12.7256 8.9834q-2.24609 8.98242 -2.24609 16.4678q0 56.8916 -7.48535 108.542
q-7.48535 51.6514 -41.9199 98.0625z" />
    <glyph glyph-name="Euro" unicode="&#x20ac;" horiz-adv-x="699" 
d="M669 12q-2 11 -6 26t-11 28t-18 21t-26 6q-46 -37 -92.5 -62t-95 -34.5t-99.5 -1.5t-106 37q-15 8 -31.5 22.5t-32 32t-28.5 35.5t-20 32q-11 23 -18.5 48.5t-18.5 48.5l-55 1v23l51 1q-1 12 1 23.5t2 23.5q0 11 1 22.5t2 22.5h-56v23l60 1q10 45 22.5 90.5t37.5 84.5
q13 19 29 37t36 30q46 28 85 37.5t76 3.5t73 -26.5t75 -51.5q13 8 20.5 25.5t12.5 31.5h15l9 -226l-22 -3q-10 43 -27 87t-51 74q-26 22 -65 33.5t-73 4.5q-23 -5 -45.5 -22.5t-35.5 -36.5q-9 -13 -17 -31t-15 -38t-12.5 -40.5t-9.5 -38.5q-2 -7 -3 -13t-3 -12h301v-25h-301
q-2 -23 -2.5 -46t2.5 -46h300v-25h-297q1 -7 1.5 -13.5t1.5 -12.5q2 -33 12 -71t26 -67q18 -35 52 -52t72 -16q23 0 43.5 4t39.5 19q18 15 33 42t32 51t38.5 38t52.5 4q19 -6 35.5 -24.5t29 -42t21 -48t11.5 -42.5z" />
    <glyph glyph-name="rublsign" unicode="&#x20bd;" horiz-adv-x="552" 
d="M458 327q-37 -27 -79.5 -33.5t-81.5 -6.5h-53v-64h178v-14h-178v-195h103v-14h-318v14h94v195h-94v14h94v64h-94v14h94v347h-94v14h280q38 0 77.5 -8.5t76.5 -41.5q7 -6 17.5 -18t20 -30t16.5 -42t7 -55q0 -51 -18.5 -84.5t-47.5 -55.5zM381 609q-20 27 -42.5 33t-46.5 6
h-48v-347h53q21 0 45.5 7.5t44.5 33.5q16 22 20.5 54.5t4.5 67.5q0 37 -5 77t-26 68z" />
    <glyph glyph-name="afli1352" unicode="&#x2116;" horiz-adv-x="1116" 
d="M794 114h222v-52h-222v52zM654 0l-307 644h-7v-501q0 -25 -5 -55.5t-23 -55.5q-16 -22 -40.5 -34t-52.5 -12q-23 0 -46 9t-41 26q-22 23 -27 45t-5 39q0 25 7 41t17 25.5t22 13t21 3.5q10 0 21 -3.5t20 -11.5t15 -20.5t6 -29.5q0 -26 -13.5 -43.5t-55.5 -26.5v-6
q12 -24 30.5 -32t34.5 -8q9 0 20.5 2.5t23 9.5t21.5 19t17 31q7 20 9 42.5t2 51.5v515h-90v22h232l225 -491h7v329q0 21 1 42.5t5.5 41t13.5 36.5t25 30q14 12 36 19.5t51 7.5q64 0 97.5 -35.5t33.5 -88.5q0 -41 -21 -62t-48 -21q-11 0 -22.5 3.5t-21.5 10.5t-16 18.5
t-6 28.5q0 29 16 42.5t28 13.5q5 0 8.5 -1t8.5 -1q22 0 22 22q0 4 -2 12.5t-9 16t-21.5 13.5t-38.5 6q-16 0 -38 -3.5t-40 -17.5q-14 -11 -22 -27.5t-12 -35.5t-5 -38.5t-1 -37.5v-533h-60zM905 416q18 0 36 -7t32 -21t22.5 -35.5t8.5 -50.5t-8.5 -50.5t-22.5 -35.5t-32 -21
t-36 -7t-36 7t-32 21t-22.5 35.5t-8.5 50.5t8.5 50.5t22.5 35.5t32 21t36 7zM953 272v60q0 22 -5 35.5t-12.5 21t-15.5 10.5t-15 3t-15 -3t-15.5 -10.5t-12.5 -21t-5 -35.5v-60q0 -22 5 -35.5t12.5 -21t15.5 -10.5t15 -3t15 3t15.5 10.5t12.5 21t5 35.5z" />
    <glyph glyph-name="trademark" unicode="&#x2122;" horiz-adv-x="811" 
d="M35 700h300v-111h-14q-4 16 -12.5 38t-20.5 36q-14 14 -28.5 18.5t-28.5 4.5h-10v-322h51v-14h-174v14h51v322h-10q-14 0 -29 -4.5t-28 -18.5t-21 -36t-12 -38h-14v111zM777 686h-51v-322h51v-14h-174v14h51v288h-5l-101 -302h-8l-101 302h-5v-288h51v-14h-114v14h47v322
h-47v14h125l72 -219h8l72 219h129v-14z" />
    <glyph glyph-name="Hammer_and_sickle" unicode="&#x262d;" horiz-adv-x="1131" 
d="M563 -295q-73 0 -142 20t-129.5 56t-111 86.5t-86.5 111t-56 129t-20 140.5q0 74 19.5 144t55.5 131t86 112t110.5 87.5t130 56.5t143.5 20q73 0 142 -20.5t129.5 -57t111 -87.5t87 -112t56.5 -130t20 -142q0 -110 -43.5 -209t-118.5 -173.5t-174 -118.5t-210 -44z
M563 680q-86 0 -164 -35t-136.5 -94t-93 -137t-34.5 -164q0 -89 33.5 -166.5t91.5 -135t136 -90.5t167 -33q88 0 165.5 33t134.5 91t90 135t33 166q0 88 -33 166t-90 136.5t-134.5 93t-165.5 34.5zM418 71l-50 53q-8 -11 -20.5 -26t-27 -29t-30.5 -23.5t-30 -9.5q-5 0 -11 5
t-11.5 12t-9.5 14t-4 12q0 12 13 25.5t31 25.5t36 22t29 16l-46 50l16 13l47 -51q18 11 33.5 25t28.5 31q30 -31 67.5 -53t82.5 -22q38 0 77 17l-209 206l-68 -57q-18 18 -35.5 36t-37.5 35q39 32 73 68.5t74 67.5q35 0 68.5 -4.5t67.5 -10.5l-86 -84l221 -212
q18 26 29 55.5t11 61.5q0 37 -20.5 76t-50 75.5t-62.5 69t-58 56.5q26 -4 52.5 -10.5t50.5 -19.5q34 -18 64.5 -43t53.5 -56t37 -67.5t14 -76.5q0 -56 -15.5 -98t-47.5 -87q7 -8 23.5 -22.5t33.5 -30.5t30.5 -30.5t13.5 -22.5q0 -7 -4.5 -15t-11.5 -15t-15 -11.5t-15 -4.5
q-11 0 -28.5 11.5t-35.5 27.5t-34 31.5t-23 24.5q-55 -28 -116 -28q-32 0 -56 5t-45 16t-39.5 27t-39.5 39l-21 -21l52 -55z" />
    <glyph glyph-name="asteriskcenter" unicode="&#xe000;" horiz-adv-x="5562" 
d="M3837 411l-4 -93h783l3 93h-782zM902 408l-3 -94h782l4 94h-783zM2856 337q0 -38 -27 -68q-29 -29 -64 -29t-62 29q-27 30 -27 68t27 67q26 28 62 29q18 0 34.5 -8t29.5 -21t20 -30.5t7 -36.5zM5440 419l-3 -95q-75 -8 -145.5 -15.5t-144.5 -15.5q-195 -18 -388 -36
t-388 -38q-62 -7 -154 -16t-201.5 -21t-231 -26.5t-244 -31t-240 -35.5t-219 -40t-181 -44t-125.5 -48q-42 22 -119 43t-177 41t-216.5 38.5t-238 35t-242 31t-227.5 26.5t-195 21t-145 15l-781 80q-79 8 -156.5 14.5t-155.5 15.5l1 98q80 6 159 12t160 12q185 14 368 27
t368 27q63 5 154.5 12t201 16t231 21t244 26t240 30.5t219 36t181 41t126.5 46.5q42 -23 119 -43t177.5 -38.5t217.5 -34.5t238.5 -30t242 -25.5t227.5 -20.5t194.5 -16t143.5 -11l780 -60q83 -6 163.5 -11.5t161.5 -13.5zM2514 339q0 -101 75 -173q74 -71 181 -71
q106 0 180 71q75 72 75 173q0 102 -75 173q-75 72 -180 72q-106 0 -181 -72q-75 -71 -75 -173zM3758 346q-275 197 -430 197q-222 0 -222 -192q0 -194 237 -194q36 0 69.5 6t78.5 26t108.5 57t158.5 100zM2426 345q0 191 -239 191q-42 0 -85.5 -10.5t-92.5 -33t-106.5 -57.5
t-128.5 -83q79 -61 143.5 -99t116 -59.5t92.5 -29t73 -7.5q227 0 227 188zM3433 350q-2 -40 -28 -68q-26 -29 -64 -29q-35 0 -61 29q-27 30 -27 68t27 67q25 28 61 28q18 0 35 -7.5t29.5 -21t20 -30.5t7.5 -36zM2274 352q0 -37 -28 -67q-26 -29 -64 -29q-35 0 -61 29
q-27 28 -27 67t27 68q25 28 61 28q18 0 35 -7.5t29.5 -21t20 -31t7.5 -36.5z" />
    <glyph glyph-name="Geavecomb" unicode="&#xf399;" horiz-adv-x="0" 
d="M-315 749l-112 54q-16 8 -31 20.5t-15 32.5q0 19 12 30t32 11q18 0 30 -10.5t24 -25.5l77 -92z" />
    <glyph glyph-name="Acutecomb" unicode="&#xf401;" horiz-adv-x="0" 
d="M-310 769l77 92q13 15 25 25.5t29 10.5q20 0 32 -11t12 -30q0 -20 -15 -32.5t-31 -20.5l-112 -54z" />
    <glyph glyph-name="dotaccent" unicode="&#xf408;" horiz-adv-x="288" 
d="M82 620q0 26 17.5 43.5t44.5 17.5q32 0 47.5 -20t15.5 -41q0 -26 -18.5 -44.5t-44.5 -18.5q-21 0 -41.5 15.5t-20.5 47.5z" />
    <glyph glyph-name="afli10037" unicode="&#xf464;" horiz-adv-x="516" 
d="M476 228q0 -42 -9 -80.5t-32 -74.5q-16 -24 -35.5 -38.5t-40 -22t-38.5 -9.5t-31 -2l-249 1v17l64 1v600h-64v18h216v-18h-63v-241q15 27 31 40.5t31.5 19.5t28.5 6.5t21 0.5q38 0 75 -22t63 -67q20 -35 26 -67.5t6 -61.5zM374 228q0 61 -3 92t-8 48l-5.5 16.5t-10.5 20
t-19 17t-30 7.5q-26 0 -53 -18.5t-50 -69.5v-321l96 1q7 0 17 4t20.5 13.5t20 24.5t15.5 38q1 7 3 14.5t3.5 21t2.5 35t1 56.5z" />
    <glyph glyph-name="afli10047" unicode="&#xf466;" horiz-adv-x="740" 
d="M483 18h64v402h-64v18h218v-18h-64v-402h64v-18h-218v18zM476 228q0 -42 -9 -80.5t-32 -74.5q-16 -24 -35.5 -38.5t-40 -22t-38.5 -9.5t-31 -2l-249 1v17l64 1v600h-64v18h216v-18h-63v-241q15 27 31 40.5t31.5 19.5t28.5 6.5t21 0.5q38 0 75 -22t63 -67q20 -35 26 -67.5
t6 -61.5zM374 228q0 61 -3 92t-8 48l-5.5 16.5t-10.5 20t-19 17t-30 7.5q-26 0 -53 -18.5t-50 -69.5v-321l96 1q7 0 17 4t20.5 13.5t20 24.5t15.5 38q1 7 3 14.5t3.5 21t2.5 35t1 56.5z" />
    <glyph glyph-name="afli10085" unicode="&#xf46e;" horiz-adv-x="600" 
d="M558 228q0 -42 -9 -80.5t-32 -74.5q-16 -24 -36 -38.5t-39.5 -22t-38 -9.5t-31.5 -2l-249 1v17l64 1v605h-13q-18 0 -36 -5.5t-35 -23.5q-15 -15 -23 -36.5t-19 -53.5h-18v137h297v-19h-64v-245q15 27 31 40.5t31.5 19.5t28.5 6.5t21 0.5q38 0 75 -22t63 -67
q20 -35 26 -67.5t6 -61.5zM456 228q0 61 -3 92t-8 48l-5.5 16.5t-10.5 20t-19 17t-30 7.5q-26 0 -53 -18.5t-50 -69.5v-321l96 1q7 0 17 4t20.5 13.5t20 24.5t15.5 38q1 7 3 14.5t3.5 21t2.5 35t1 56.5z" />
    <glyph glyph-name="dotlessi_cyr" unicode="&#xf53b;" horiz-adv-x="308" 
d="M30 18h64v402h-64v18h218v-18h-64v-402h64v-18h-218v18z" />
    <glyph glyph-name="_0" 
 />
    <glyph glyph-name="_1" 
 />
    <glyph glyph-name="_2" 
 />
    <glyph glyph-name="_3" 
 />
    <glyph glyph-name="_4" 
 />
    <glyph glyph-name="_5" 
 />
    <glyph glyph-name="_6" 
 />
    <glyph glyph-name="_7" 
 />
    <glyph glyph-name="_8" 
 />
    <glyph glyph-name="_9" 
 />
    <glyph glyph-name="_10" 
 />
    <glyph glyph-name="_11" 
 />
    <glyph glyph-name="_12" 
 />
    <glyph glyph-name="_13" 
 />
    <glyph glyph-name="_14" 
 />
    <glyph glyph-name="_15" 
 />
    <glyph glyph-name="_16" 
 />
    <glyph glyph-name="_17" 
 />
    <glyph glyph-name="_18" 
 />
    <glyph glyph-name="_19" 
 />
    <glyph glyph-name="_20" 
 />
    <glyph glyph-name="_21" 
 />
    <glyph glyph-name="_22" 
 />
    <glyph glyph-name="_23" 
 />
    <glyph glyph-name="_24" 
 />
    <glyph glyph-name="_25" 
 />
    <glyph glyph-name="_26" 
 />
    <glyph glyph-name="_27" 
 />
    <glyph glyph-name="_28" 
 />
    <glyph glyph-name="_29" 
 />
    <glyph glyph-name="_127" 
 />
    <glyph glyph-name="_129" 
 />
    <glyph glyph-name="_130" 
 />
    <glyph glyph-name="_131" 
 />
    <glyph glyph-name="_135" 
 />
    <glyph glyph-name="_137" 
 />
    <glyph glyph-name="_138" 
 />
    <glyph glyph-name="_139" 
 />
    <glyph glyph-name="_140" 
 />
    <glyph glyph-name="_141" 
 />
    <glyph glyph-name="_142" 
 />
    <glyph glyph-name="_143" 
 />
    <glyph glyph-name="_144" 
 />
    <glyph glyph-name="_145" 
 />
    <glyph glyph-name="_152" 
 />
    <glyph glyph-name="_154" 
 />
    <glyph glyph-name="_155" 
 />
    <glyph glyph-name="_156" 
 />
    <glyph glyph-name="_157" 
 />
    <glyph glyph-name="_158" 
 />
    <glyph glyph-name="_159" 
 />
    <glyph glyph-name="_161" 
 />
    <glyph glyph-name="_162" 
 />
    <glyph glyph-name="_164" 
 />
    <glyph glyph-name="_165" 
 />
    <glyph glyph-name="_166" 
 />
    <glyph glyph-name="_168" horiz-adv-x="423" 
 />
    <glyph glyph-name="_170" 
 />
    <glyph glyph-name="_173" 
 />
    <glyph glyph-name="_175" 
 />
    <glyph glyph-name="_178" 
 />
    <glyph glyph-name="_179" 
 />
    <glyph glyph-name="_180" 
 />
    <glyph glyph-name="_181" 
 />
    <glyph glyph-name="_183" 
 />
    <glyph glyph-name="_184" 
 />
    <glyph glyph-name="_185" 
 />
    <glyph glyph-name="_186" 
 />
    <glyph glyph-name="_188" 
 />
    <glyph glyph-name="_189" 
 />
    <glyph glyph-name="_190" 
 />
    <glyph glyph-name="_191" 
 />
    <glyph glyph-name="_192" 
 />
    <glyph glyph-name="_193" 
 />
    <glyph glyph-name="_194" 
 />
    <glyph glyph-name="_195" 
 />
    <glyph glyph-name="_196" 
 />
    <glyph glyph-name="_197" 
 />
    <glyph glyph-name="_198" 
 />
    <glyph glyph-name="_199" 
 />
    <glyph glyph-name="_200" 
 />
    <glyph glyph-name="_201" 
 />
    <glyph glyph-name="_202" 
 />
    <glyph glyph-name="_203" 
 />
    <glyph glyph-name="_204" 
 />
    <glyph glyph-name="_205" 
 />
    <glyph glyph-name="_206" 
 />
    <glyph glyph-name="_207" 
 />
    <glyph glyph-name="_208" 
 />
    <glyph glyph-name="_209" 
 />
    <glyph glyph-name="_210" 
 />
    <glyph glyph-name="_211" 
 />
    <glyph glyph-name="_212" 
 />
    <glyph glyph-name="_213" 
 />
    <glyph glyph-name="_214" 
 />
    <glyph glyph-name="_215" 
 />
    <glyph glyph-name="_216" 
 />
    <glyph glyph-name="_217" 
 />
    <glyph glyph-name="_218" 
 />
    <glyph glyph-name="_219" 
 />
    <glyph glyph-name="_220" 
 />
    <glyph glyph-name="_221" 
 />
    <glyph glyph-name="_222" 
 />
    <glyph glyph-name="_223" 
 />
    <glyph glyph-name="_224" 
 />
    <glyph glyph-name="_225" 
 />
    <glyph glyph-name="_226" 
 />
    <glyph glyph-name="_227" 
 />
    <glyph glyph-name="_228" 
 />
    <glyph glyph-name="_229" 
 />
    <glyph glyph-name="_230" 
 />
    <glyph glyph-name="_239" 
 />
    <glyph glyph-name="_240" 
 />
    <glyph glyph-name="_241" 
 />
    <glyph glyph-name="_242" 
 />
    <glyph glyph-name="_243" 
 />
    <glyph glyph-name="_244" 
 />
    <glyph glyph-name="_245" 
 />
    <glyph glyph-name="_246" 
 />
    <glyph glyph-name="_260" 
 />
    <glyph glyph-name="_261" 
 />
    <glyph glyph-name="_262" 
 />
    <glyph glyph-name="_263" 
 />
    <glyph glyph-name="_264" 
 />
    <glyph glyph-name="_265" 
 />
    <glyph glyph-name="_266" 
 />
    <glyph glyph-name="_267" 
 />
    <glyph glyph-name="_268" 
 />
    <glyph glyph-name="_269" 
 />
    <glyph glyph-name="_270" 
 />
    <glyph glyph-name="_271" 
 />
    <glyph glyph-name="_272" 
 />
    <glyph glyph-name="_273" 
 />
    <glyph glyph-name="_274" 
 />
    <glyph glyph-name="_275" 
 />
    <glyph glyph-name="_276" 
 />
    <glyph glyph-name="_277" 
 />
    <glyph glyph-name="_278" 
 />
    <glyph glyph-name="_279" 
 />
    <glyph glyph-name="_280" 
 />
    <glyph glyph-name="_281" 
 />
    <glyph glyph-name="_282" 
 />
    <glyph glyph-name="nonbreakingspace" horiz-adv-x="230" 
 />
    </font>
</defs>
</svg>
