<svg xmlns="http://www.w3.org/2000/svg">
<defs>
<font id="SuperMario3DWorld" horiz-adv-x="0" >
  <font-face 
    font-family="Super Mario 3D World"
    font-weight="400"
    font-stretch="normal"
    units-per-em="1000"
    panose-1="2 0 0 0 0 0 0 0 0 0"
    ascent="800"
    descent="-200"
    x-height="486"
    cap-height="710"
    bbox="-35 -210 1500 1059"
    underline-thickness="50"
    underline-position="-150"
    unicode-range="U+001D-FB02"
  />
<missing-glyph horiz-adv-x="1161" 
d="M300 62l150 -59h4q2 0 3 0.5t2 5.5l65 162l3 5q3 0 16 -3t16 -3h21q16 0 30 1.5t29 1.5h4l75 -164l-5 2l-71 160h-1q-16 0 -30 -1t-28 -1q-15 0 -28.5 1t-26.5 1h-1q-1 0 -2 -1t-1 -4l-65 -159q-1 -1 -1 -2t-0.5 -2t-0.5 -2l-3 -1l-158 62h4zM722 9l144 68h1l1 3
q-1 2 -1 3v3l-62 151v6q14 10 24 18t22 19q1 1 7 9t8 11q2 2 2.5 3t3.5 1h1l178 -54h2q6 0 6 1l50 170v2q0 8 -3 12q2 0 3 -2.5t2 -3.5v-1q0 -2 -0.5 -3.5t-0.5 -2.5v-2l-50 -170q-1 -3 -2.5 -2t-4.5 1h-3l-175 52h-2q-5 0 -7 -6q-14 -15 -27.5 -27.5t-30.5 -25.5v-5
l60 -150q4 -2 4 -4t-2 -4t-3 -4l-148 -71h-1v5h4zM301 71v1q0 1 0.5 1t0.5 1l75 168v2q-16 12 -30 25t-29 24h-4l-181 -66l-2 1l-69 155v3q0 1 -0.5 2t1.5 2l172 71q0 2 0.5 2.5t0.5 1.5v1q0 17 -3 33.5t-3 34.5q0 11 0.5 21t0.5 20v2l-5 3l-154 56v2l61 158q0 3 2 3h2
l156 -62l4 4.5t9 11.5t10.5 13.5t8.5 9.5q12 13 25.5 24t26.5 22h1v1q-1 1 -1 2v3l-61 148q-1 3 -1 6q0 1 -1 1v1l140 66l77 -164h1q14 0 28 1.5t28 1.5h12q2 0 11.5 -1t13.5 -1q3 -1 15 -3.5t14 -2.5h2q2 0 2 0.5t1 5.5l59 144q1 3 2 3h3l137 -52q2 0 4 -2t2 -4l-62 -162
v-1v-1q0 -1 0.5 -1t0.5 -1q18 -13 30 -24.5t25 -28.5q0 -1 2.5 -2.5t3.5 -1.5l160 60h4q3 0 3 -1l58 -142l-3 -3q-1 -1 -2 -1l-142 -60l-8 -5v-1q0 -15 2 -30t2 -32v-6v-11t-0.5 -15t-1 -15t-0.5 -10l1 -1l161 -56l-48 -165l-1 -2h-1l-182 54h-2q-1 0 -3 -1q-8 -11 -15 -19
t-18 -16q0 -1 -4.5 -4.5t-9.5 -8t-10 -8.5t-6 -4q-2 -4 -2.5 -4.5t-0.5 -2.5v-4t1 -2l62 -152v-2h-1l-131 -61q-4 -2 -9 -2h-1l-74 160l-2 1q-15 0 -29.5 -1.5t-28.5 -1.5q-15 0 -29.5 2t-28.5 2q-1 0 -2 -0.5t-2 -0.5h-2l-1 -1l-68 -167l-2 -2l-147 58l-1 1v1zM312 77

<glyph glyph-name=".notdef" horiz-adv-x="1161" 
d="M300 62l150 -59h4q2 0 3 0.5t2 5.5l65 162l3 5q3 0 16 -3t16 -3h21q16 0 30 1.5t29 1.5h4l75 -164l-5 2l-71 160h-1q-16 0 -30 -1t-28 -1q-15 0 -28.5 1t-26.5 1h-1q-1 0 -2 -1t-1 -4l-65 -159q-1 -1 -1 -2t-0.5 -2t-0.5 -2l-3 -1l-158 62h4zM722 9l144 68h1l1 3
q-1 2 -1 3v3l-62 151v6q14 10 24 18t22 19q1 1 7 9t8 11q2 2 2.5 3t3.5 1h1l178 -54h2q6 0 6 1l50 170v2q0 8 -3 12q2 0 3 -2.5t2 -3.5v-1q0 -2 -0.5 -3.5t-0.5 -2.5v-2l-50 -170q-1 -3 -2.5 -2t-4.5 1h-3l-175 52h-2q-5 0 -7 -6q-14 -15 -27.5 -27.5t-30.5 -25.5v-5
l60 -150q4 -2 4 -4t-2 -4t-3 -4l-148 -71h-1v5h4zM301 71v1q0 1 0.5 1t0.5 1l75 168v2q-16 12 -30 25t-29 24h-4l-181 -66l-2 1l-69 155v3q0 1 -0.5 2t1.5 2l172 71q0 2 0.5 2.5t0.5 1.5v1q0 17 -3 33.5t-3 34.5q0 11 0.5 21t0.5 20v2l-5 3l-154 56v2l61 158q0 3 2 3h2
l156 -62l4 4.5t9 11.5t10.5 13.5t8.5 9.5q12 13 25.5 24t26.5 22h1v1q-1 1 -1 2v3l-61 148q-1 3 -1 6q0 1 -1 1v1l140 66l77 -164h1q14 0 28 1.5t28 1.5h12q2 0 11.5 -1t13.5 -1q3 -1 15 -3.5t14 -2.5h2q2 0 2 0.5t1 5.5l59 144q1 3 2 3h3l137 -52q2 0 4 -2t2 -4l-62 -162
v-1v-1q0 -1 0.5 -1t0.5 -1q18 -13 30 -24.5t25 -28.5q0 -1 2.5 -2.5t3.5 -1.5l160 60h4q3 0 3 -1l58 -142l-3 -3q-1 -1 -2 -1l-142 -60l-8 -5v-1q0 -15 2 -30t2 -32v-6v-11t-0.5 -15t-1 -15t-0.5 -10l1 -1l161 -56l-48 -165l-1 -2h-1l-182 54h-2q-1 0 -3 -1q-8 -11 -15 -19
t-18 -16q0 -1 -4.5 -4.5t-9.5 -8t-10 -8.5t-6 -4q-2 -4 -2.5 -4.5t-0.5 -2.5v-4t1 -2l62 -152v-2h-1l-131 -61q-4 -2 -9 -2h-1l-74 160l-2 1q-15 0 -29.5 -1.5t-28.5 -1.5q-15 0 -29.5 2t-28.5 2q-1 0 -2 -0.5t-2 -0.5h-2l-1 -1l-68 -167l-2 -2l-147 58l-1 1v1zM312 77
q2 0 2.5 -1t1.5 -1l133 -50l62 166q4 2 3 2q2 0 8.5 -1.5t14 -2.5t14 -2t8.5 -1q1 0 10 -0.5t14 -0.5t15 0.5t12 0.5q3 0 15 2.5t16 2.5h3h2q1 0 1.5 -0.5t1.5 -0.5l74 -156l1 -1h2q1 0 1 0.5t1 0.5l120 60l-66 152q0 1 1 2l2 2q23 18 39 33.5t36 37.5v2l175 -50h5l43 149
l-153 54h-1q-1 0 -1 1v1q0 1 0.5 9t1.5 17t1.5 17t0.5 11v2q0 20 -2.5 36.5t-4.5 35.5l-1 2h1h1l149 62v1v1l-55 129h-4l-150 -63h-1h-1l-4 4q0 1 -2.5 5t-5.5 8t-6 7.5t-3 4.5q-3 2 -13 11.5t-12 13.5q-2 1 -11 8t-10 8q-2 0 -2.5 0.5t-1.5 0.5t-1 1l1 4l61 156l-132 48
l-57 -142q-1 -1 -2 -2.5t-3 -1.5q-12 0 -27.5 3t-29.5 4h-16q-14 0 -29 -2.5t-27 -2.5q-3 0 -3 1l-74 159l-124 -59q-2 -1 -2 -3v-1l64 -148v-1q0 -2 -3 -6q-1 -1 -6 -4.5t-11 -8t-11.5 -8.5t-6.5 -5q-15 -15 -29.5 -31.5t-25.5 -33.5h-4l-147 59h-6q-1 0 -3 -2l-54 -141
l-1 -1q0 -2 4 -2l153 -57l1 -1v-1q0 -1 -0.5 -6t-1.5 -11t-1.5 -12t-0.5 -8v-4q0 -22 3 -42l6 -40l-4 -3l-159 -64l-2 -2v-1v-3l63 -146l174 72h3l6.5 -6.5t9 -10t9 -9.5t6.5 -5q9 -11 21.5 -19.5t20.5 -13.5v-1zM293 67q0 4 1 7l73 163l-2 5h2l3 -5v-1l-76 -166v-1
q0 -5 2 -6h-1q-2 0 -2 4zM358 122q0 23 16 38.5t37 15.5q23 0 39 -16.5t16 -38.5t-16 -38t-39 -16q-22 0 -37.5 17t-15.5 38zM700 130q0 23 14.5 38.5t37.5 15.5t38 -15.5t15 -37.5q0 -23 -15 -38.5t-38 -15.5t-37.5 15t-14.5 38zM383 122q0 -11 8.5 -19.5t19.5 -8.5
q8 0 18 5.5t10 16.5v16q0 10 -10 15t-18 5q-11 0 -19.5 -8.5t-8.5 -21.5zM724 129q0 -13 7.5 -21t20.5 -8t21.5 7t8.5 20t-8 21.5t-19 8.5q-15 0 -23 -8t-8 -20zM316 287l24 -26h-1l-24 24l-182 -70h-4l6 4zM51 383q-1 4 -1 9v1l9 3l167 71q0 17 -3 31.5t-3 29.5q0 9 0.5 18
t0.5 19q0 4 -1 4l-153 58q-5 1 -5 9v2l67 172h6l152 -64h2q18 28 45 52q1 1 5.5 5t9.5 8.5t9.5 8.5t5.5 5l2 1q1 1 1 2v3l-60 144q-2 2 -2 5v5t4 3l141 70q4 1 8 1q1 0 2 -3l37 -82v-3l-38 84v1q0 1 -0.5 1t-0.5 1h-1q-1 -1 -2 -1h-4l-144 -71l-2 -1v-1q0 -1 1 -1l1 -1
l60 -150q3 -2 3 -4t-0.5 -2.5t-4.5 -2.5q-20 -19 -39 -37t-36 -41h-3l-148 62q-2 0 -3 1h-2q-1 0 -1 1q-2 0 -4 -2l-66 -170v-1v-1q2 -7 6 -7l153 -58v-66q1 -5 2.5 -16.5t1.5 -14.5q0 -2 1 -3.5t1 -2.5l-2 -1l-168 -72l-7 -2q0 -1 0.5 -2t0.5 -2v-2l73 -166q0 -1 1 -1l1 -1
v-2l-3 3zM354 250q3 0 6 -3l4 -4v-1q-2 0 -5 3.5t-5 4.5zM342 260q3 0 9 -8q0 -1 1 -1q1 -1 2 -1h-1q-2 0 -6.5 4.5l-5.5 5.5h1zM129 348q0 25 17.5 43t43.5 18q25 0 43 -18t18 -43q0 -28 -18 -44.5t-43 -16.5q-26 0 -43.5 17t-17.5 44zM918 367q0 26 18.5 44t41.5 18
q26 0 44 -17t18 -43t-17.5 -43t-43.5 -17q-24 0 -42.5 17t-18.5 41zM156 348q0 -16 9.5 -24.5t23.5 -8.5t22.5 9.5t8.5 23.5q0 13 -8.5 22.5t-22.5 9.5t-23.5 -9.5t-9.5 -22.5zM948 367q0 -14 9 -23t23 -9q15 0 24.5 8.5t9.5 21.5q0 16 -9.5 24.5t-24.5 8.5q-14 0 -23 -8.5
t-9 -22.5zM947 489q0 2 0.5 9t0.5 15t-0.5 15t-0.5 10v9.5t-0.5 18.5t-1 18.5t-1.5 10.5v3q0 1 3 2l152 63q1 1 2.5 1.5t3.5 3.5l1 -2q-2 -3 -6 -4l-153 -63v-5v-10v-27t1 -31q0 -18 1 -37l1 -1l156 -53h-3l-154 50zM134 687q0 19 11.5 34t31.5 19h10q21 0 38 -15.5
t17 -38.5q0 -21 -17 -35.5t-38 -14.5q-23 0 -38 14.5t-15 36.5zM923 706q0 23 16 38.5t38 15.5q23 0 39.5 -15.5t16.5 -38.5q0 -24 -16.5 -39.5t-39.5 -15.5t-38.5 16t-15.5 39zM158 688q0 -12 8.5 -19t20.5 -7q28 0 28 25q0 13 -6.5 21.5t-19.5 8.5q-14 0 -22.5 -6.5
t-8.5 -22.5zM1026 822l-154 -57l-38 33h2l36 -31l154 56h10l68 -155q-2 0 -4 2q-1 1 -1 3l-64 149h-9zM949 702q0 -11 9 -18.5t20 -7.5q13 0 22 8t9 22q0 12 -8 21t-22 9t-22 -10t-8 -24zM834 798q-2 0 -2 1.5t2 1.5v-3zM822 810l9 -9l-10 9h1zM816 822l59 154v2
q0 4 -3.5 4.5t-4.5 1.5l-143 57h-4q-2 0 -2.5 -0.5t-4.5 -3.5l-57 -140q-2 -2 -2.5 -4.5t-3.5 -2.5q-14 0 -27.5 3.5t-28.5 3.5q-14 0 -27.5 -1.5t-27.5 -1.5h-6l-29 60v1l29 -60h5q14 0 28 1t28 1h25q1 0 5 -0.5t9 -1l10 -1t7 -0.5h1q1 0 2 1q0 1 1 2l58 141q1 1 3 2
q3 3 3 4q2 0 4 -1t4 -1l142 -57q7 -1 7 -7v-2l-58 -157l3 -7h-1q-3 3 -3 7v3zM707 926q0 22 15.5 39t37.5 17q23 0 39 -17t16 -39t-16 -37.5t-39 -15.5q-22 0 -37.5 15.5t-15.5 37.5zM367 934q0 23 17 38t39 15q21 0 35.5 -15t14.5 -38q0 -22 -13.5 -37.5t-36.5 -15.5
t-39.5 15.5t-16.5 37.5zM731 927q0 -12 8.5 -19.5t20.5 -7.5t20 7.5t8 20.5q0 11 -8.5 20.5t-19.5 9.5q-12 0 -20.5 -10t-8.5 -21zM394 939q0 -14 8 -22t21 -8q11 0 19 8t8 19q0 14 -8 21.5t-19 7.5q-12 0 -20.5 -7.5t-8.5 -18.5zM500 970q2 -1 2.5 -4.5t0.5 -5.5v-2
q-1 2 -2 5t-1 6v1zM431 229v3q0 1 0.5 2l0.5 1q0 2 1 5.5t1 4.5t2 6t3 6q0 4 1.5 10.5t2.5 7.5q0 2 0.5 4t0.5 3v5q0 1 1 3v2v3v1v1v2q0 1 -0.5 5.5t-0.5 5.5v5v6v4v5q0 1 0.5 6.5t2.5 7.5q0 1 1 5t2 5q0 1 0.5 3.5t1.5 6.5t2.5 6t1.5 5q0 1 0.5 2t0.5 2q0 2 1 5t1 4v6v11.5
v11.5v6v6t1 8q0 2 1 8.5t1 8.5t2 12t3 13q0 4 1.5 8.5t3 10t2.5 10t1 5.5t2 8.5t2 8.5v1v0.5v0.5q0 2 1 4q2 1 3 4t1 4q0 2 2 10t3 11q2 0 2 1v1q1 3 1 4v2l0.5 3t0.5 4l0.5 3l0.5 3q0 3 1 4.5t1 2.5l0.5 2t0.5 3v1v1q-1 0 -4.5 1.5t-4.5 1.5t-3.5 1.5t-4.5 1.5q-1 0 -3 1.5
t-3 2.5q-1 0 -2.5 0.5t-2.5 0.5q-3 3 -7.5 6.5t-5.5 5.5q-2 1 -5 3.5t-4 3.5q-2 2 -3 4q-1 1 -1.5 2t-1.5 2t-4.5 7t-4.5 7q0 1 -3 5t-3 5l-5 5l-5 5q-2 0 -2 1l-2 1q-1 0 -3 1.5t-3 2.5l-1 0.5t-2 0.5l-5 0.5t-7 0.5h-2l-1 1v1v2q0 4 3 6l2.5 2.5l3.5 3.5t3.5 2.5t3.5 1.5
q1 3 7.5 6t10.5 4h2t2 2l4 1t5 1t5.5 1t6.5 1t5.5 1t4.5 1t6 1.5t6 3.5q1 0 5.5 1t5.5 2q2 0 5.5 1t5.5 3l6 2l1 2q2 1 2.5 3t1.5 3l1 3l1 2q0 1 1 3.5t1 3.5q0 2 0.5 10.5t2.5 9.5v4.5t0.5 6t0.5 6.5v4v1q0 1 0.5 1.5l0.5 0.5v1h1q1 1 5.5 5t6.5 5l3 3l3 1l3 1.5t5.5 4
t5.5 4.5t4 3q2 0 5.5 3t4.5 3q2 1 9.5 5.5t9.5 5.5h4h4q1 -1 3.5 -1.5t3.5 -0.5q0 -1 2 -1h2h5h6q-2 0 -3 1t-1 2v1v1q-1 0 -1.5 2l-0.5 2v1q2 0 4.5 -2t2.5 -3q1 0 2.5 -1t2.5 -1q0 -1 7 -2.5t8 -3.5l3 -1t4 -1t4 -1t4 -2h1h1q0 1 1.5 1.5t2.5 0.5h3h3h1t1.5 -0.5l0.5 -0.5
q2 0 4.5 -1.5t3.5 -3.5l2 -0.5l2 -0.5q1 -1 2.5 -3t2.5 -3q1 0 2 -2t2 -3l0.5 -1.5t1.5 -2.5v-1.5t1 -1.5q0 -1 1 -1v-4v-5q-1 0 -1 -1l-1 -1q-1 -1 -2 -3.5t-1 -3.5v-1q0 -1 2.5 -2.5t5.5 -4t5 -4t3 -2.5q3 -2 5 -4t2 -3v-1q-2 -2 -7.5 -8.5t-8.5 -7.5q0 -1 -3 -5.5
t-4 -5.5q-2 0 -2 -1t-1 -2t-1 -2v-24q0 -1 2 -2.5t3 -1.5q0 -1 4 -1t6 -1q1 0 5 -0.5t5 -0.5q0 -2 1 -2l1 -1l1 -1l1 -2l2 -1h2q1 0 1 0.5t1 0.5h4.5h4.5l10 10h3h2q1 0 4 -1l3 -1q1 0 6 -2t6 -3v0l1 -1v-2v-1q-1 -2 -2 -6t-2 -6q-2 -1 -5 -6.5t-6 -7.5l-1 -2h-1t-2 -2
l-2 -1q-1 0 -5.5 0.5t-6.5 -0.5h-4.5t-4.5 -1t-2 -1h-2h-1l-4 2q-1 0 -1 0.5t-1 0.5h-1h-15l-2.5 2l-2.5 2q-1 0 -3.5 0.5l-2.5 0.5h-3h-5q-1 -2 -6 -9.5t-7 -9.5l-3.5 -4t-5.5 -5q0 -1 -1.5 -2.5l-1.5 -1.5q-1 -1 -2.5 -3t-2.5 -2v-1v-1q0 -2 1 -3t2 -1q1 -1 7.5 -2.5
t8.5 -1.5q1 0 8.5 -3t8.5 -4q1 0 3 -1t4 -1q1 -1 8 -4.5t8 -4.5h3h2q1 0 5 1t5 2q1 0 4.5 0.5t4.5 1.5l5 2.5t8 2.5l2.5 1t3.5 1h1l1 0.5l1 0.5h2q1 1 3 4.5t4 4.5q0 1 1 1h1l0.5 0.5t1.5 0.5h9q2 2 7 7.5t8 6.5l3.5 3.5t4.5 3.5q0 1 1.5 3t1.5 3l1 1l1 1q1 0 2 1l2 1l3 -1
t7 -1q1 0 4 -1t4 -1t5.5 -0.5t5.5 -0.5t5.5 -1t5.5 -2v0h1q1 -1 3 -1l1 -1l1 -1l1 -3q0 -1 0.5 -2l0.5 -1q0 -1 1 -3.5l1 -2.5v-2l1 -2h2l0.5 -0.5t1.5 -0.5l1 -1l1 -3v-2v-1q0 -1 -0.5 -4t-0.5 -4q-1 -1 -3 -6.5t-2 -7.5q0 -1 -0.5 -6t-0.5 -6t-0.5 -1h-0.5l-1 -1
q0 -1 -1 -1h-1h-4h-2q-1 0 -3 0.5t-2 1.5q0 -1 -1 -2t-1 -3q-1 0 -1.5 -1.5t-0.5 -2.5l-1 -2q-1 -1 -2 -3v-2.5t-1 -2.5q0 -1 -1 -4q-2 -1 -4 -3t-3 -2q0 -1 -1 -1q0 -1 -1 -1q-3 0 -5 -1.5l-2 -1.5q-2 -1 -4 -1h-2.5h-2.5t-5 -0.5l-4 -0.5q-1 0 -3.5 -3t-3.5 -4l-1 -2
t-4 -3l-0.5 -2t-1.5 -2h-1h-2q-2 0 -8.5 2t-7.5 2h-3.5h-3.5v-1q1 -4 3 -6t3 -4.5t2 -3.5q0 -1 0.5 -3l0.5 -2q0 -1 2.5 -3t3.5 -3l0.5 -0.5t1.5 -2.5l1 -2q1 -4 4 -4v-5v-4l-2.5 -2.5t-1.5 -2.5q-3 0 -4 -2l-9 -4.5l-9 -4.5h-1q-1 -1 -3 -1h-1h-3h-2h-1q-3 0 -5 0.5t-4 0.5
t-5 1t-5 1q-1 0 -7 2.5t-8 3.5l-2.5 1t-3.5 2q-1 0 -5 2t-5 3l-1 -1v-3l1.5 -2t1.5 -3l1 -1l1 -2v-1q2 -1 3 -1q0 -1 1 -1h1v-1h1v0l1 -1h0.5t0.5 -1v-1v-4v-4v-1q0 -2 -0.5 -2.5l-0.5 -0.5q0 -1 -1 -2l-1 -1l-3.5 -3.5l-3.5 -3.5q0 -1 -1 -1h-1.5h-0.5q-1 0 -3.5 -0.5
l-2.5 -0.5h-8h-9q-1 0 -2.5 0.5t-2.5 1.5l-5.5 5.5t-6.5 5.5q0 2 -1 2.5t-1 2.5l-4 9q-1 1 -1 6.5v8.5h-4t-3 1h-1q-2 1 -2 2l-1.5 2t-1.5 5q-3 1 -3 4q0 1 -2 4t-2 5l-0.5 0.5t-0.5 1.5v2v4v4q1 1 1 2q1 1 3 2q0 1 0.5 1t0.5 1h-1q-2 0 -4 -0.5t-4 -1.5q-1 0 -4 -1t-7 -3
t-7.5 -3t-5.5 -1q0 -1 -2 -1.5t-4 -1.5q-1 -1 -4 -2.5t-5 -1.5q-1 -1 -5 -2.5t-5 -2.5h-1q0 -1 -0.5 -3l-0.5 -2q-1 -2 -2 -7t-1 -6q-1 -1 -2.5 -6.5t-1.5 -6.5t-0.5 -3t-1.5 -3q0 -3 -1 -3q-1 -1 -4 -5.5t-3 -5.5q-1 -1 -4.5 -5t-3.5 -5q-1 -2 -5 -8t-6 -7q0 -2 -1.5 -5
t-1.5 -4q-2 -2 -4.5 -7.5t-3.5 -6.5v-3l-1 -1q-2 -2 -2.5 -6t-0.5 -5q-1 -1 -2 -6t-1 -6l-1 -5q-1 -1 -1.5 -4.5t-2.5 -3.5q0 -1 -0.5 -2.5l-0.5 -1.5q0 -3 -0.5 -4t-0.5 -2t-0.5 -5t-1 -8.5t-0.5 -8.5v-4q0 -1 -0.5 -3.5t-0.5 -3.5q-1 -1 -1 -3q-1 -2 -3.5 -6.5t-5.5 -10.5
t-5 -11t-3 -7q-1 -1 -2.5 -5t-2.5 -6q0 -1 -0.5 -3t-0.5 -3v-1v-2q-1 -1 -1 -3q0 -1 -0.5 -5t-0.5 -5v-3v-5q0 -1 0.5 -6.5t0.5 -6.5q0 -2 -1 -11.5t-2 -13.5q0 -1 -1.5 -2.5t-1.5 -4.5q-1 0 -3 -3t-3 -4v-2l-2 -1l-1 -1q-1 0 -2 -0.5t-2 -0.5h-4h-2q-1 1 -2.5 3t-1.5 3
q-1 0 -3 2t-2 4t-1 3.5t-1 2.5t-0.5 3l-0.5 2v2v4zM432 223l1 -2t1 -3t1 -2t1 -4l1.5 -1l1.5 -1q0 -1 1 -2v-2q1 0 2.5 -1.5l1.5 -1.5h1h4q2 0 3 2l2 1q2 2 4 5.5t3 3.5q1 1 1.5 3.5t0.5 4.5v3q0 2 1 7.5t1 8.5v2v2v5.5t-2 5.5v2t-1 0q0 1 0.5 4t0.5 5q2 1 3 7t1 7t0.5 3
t0.5 3q1 1 1.5 4t0.5 4t1.5 3t2.5 2q0 2 1 4.5t2 3.5t4.5 8t4.5 8q1 5 2 6t2 3l1 2q0 1 0.5 3.5t0.5 3.5v11v13l-6 -13v1q0 2 0.5 4.5t1.5 3.5q0 2 0.5 3.5l0.5 1.5q2 0 3.5 4.5t3.5 5.5v1l1 1q-1 0 -1 1q-2 0 -3 2h-1h-1q-2 0 -4.5 0.5t-3.5 1.5h-4h-1l-1 -2l-1.5 -3.5
l-1.5 -3.5q-1 0 -2.5 -2.5t-2.5 -2.5l-1 -2q0 -1 -0.5 -3.5t-0.5 -3.5l-0.5 -1t-1.5 -2v6.5t-2 6.5q0 2 -0.5 4.5t-1.5 3.5q-1 0 -1 -1q-1 -1 -2 -5t-1 -5t-2 -5.5t-2 -5.5q-1 -1 -1.5 -4.5t-0.5 -4.5l-0.5 -2.5t-0.5 -3.5t-0.5 -4t-0.5 -4v-2q1 -1 3 -4t4 -4q0 -1 1 -1v-1
v-8v-9v-2q-1 -1 -1 -4q0 -1 -1.5 -4.5t-1.5 -4.5t-1 -4.5t-2.5 -6.5t-3 -6.5l-1.5 -3.5q0 -1 -0.5 -4.5t-0.5 -4.5v3q-3 0 -3 -2q0 -1 -1.5 -7.5t-3.5 -9.5q0 -1 -1 -4.5t-1 -5.5q0 -1 -1 -3t-1 -3v-4v-2zM451 306l-1 -3q0 -2 -0.5 -7t-0.5 -7v-2v-1q1 1 2 7t2 7q0 1 0.5 3
t0.5 3v10v7l-5 7l-2 -2v-4v-6q0 -1 2 -3.5t2 -4.5v-1v-3zM449 310q-2 2 -2 0t2 -2q1 1 0 2zM447 314q-2 0 -2 -2t2 -2q1 0 1 2t-1 2zM493 370q-1 0 -1 -1t1 -1t1 1t-1 1zM463 381q0 -1 1.5 -3t2.5 -3h1q1 0 2 1t3 2l0.5 3t1.5 4l1 0.5t1 1.5h3h5q0 -1 3.5 -1h4.5l1 -1h2h1
q1 0 1 1v1v2q0 1 -1 1t-3.5 1t-4.5 1l-2.5 0.5t-3.5 1.5q-1 0 -2.5 0.5l-1.5 0.5q0 1 -0.5 2t-0.5 2v4v3q0 1 0.5 5.5t0.5 7.5l0.5 2.5t0.5 3.5q2 1 2.5 3.5t0.5 3.5t0.5 4.5t1.5 8t1.5 8t1.5 4.5q1 4 4.5 16t7 25.5t7 25.5t4.5 16v3h-2l-3 1q-1 1 -6 3t-6 2t-2 1.5t-3 1.5
q-1 0 -1 -2q-1 0 -1 -1v-1v-1v-1q0 -2 1 -2t5 -1.5t5 -2.5l3 -1l1 -1l-0.5 -3l-0.5 -3q-1 -3 -3 -10t-3.5 -13.5t-2.5 -12.5t-3 -9q0 -1 -1 -3.5t-2 -6t-1.5 -7l-0.5 -3.5q-1 -2 -3.5 -10t-4.5 -17t-4 -17t-3 -11q0 -1 -1 -6t-1 -7q0 -1 -0.5 -5.5t-1.5 -5.5q0 -1 -2 -2v-3
v-2zM460 404q0 -1 0.5 -6l0.5 -5l1 -5h1q0 2 1 9t1 9q0 1 1.5 7.5t2.5 9.5t3 10t3.5 15t3 13.5t1.5 6.5t1.5 4t2.5 7t2 6.5t1 4.5q0 1 1 5.5t3 10t3 10t2 6.5q0 1 1 6.5l1 5.5v3v1h-1q-2 1 -5.5 2t-4.5 3h-1q-1 -2 -1 -3v-1t-1 -4t-2.5 -6t-2.5 -6.5t-1 -4.5q0 -3 -1 -6
t-1 -6q0 -1 -1 -5t-2.5 -8.5t-2.5 -8t-1 -5.5q0 -1 -1 -6t-1 -6q-1 -3 -2.5 -11.5t-1.5 -9.5t-0.5 -4.5t-0.5 -4.5q0 -4 -0.5 -9t-0.5 -6t-0.5 -8t-0.5 -10zM480 401q0 -2 1.5 -2.5l1.5 -0.5v-1q0 -1 1 -1t3 -1t4 -1q1 -1 5 -1h5q0 2 2 10t3 10q0 1 0.5 4t2.5 3q0 2 1.5 5.5
l1.5 3.5v1v2q-1 0 -3.5 3t-2.5 4v3v3v2t1 2q0 1 1.5 4t1.5 4t1 4.5t2 4.5t4.5 8.5t3.5 8.5l3 3q1 2 1 3.5t2 2.5q1 1 2.5 3t1.5 4l1.5 2.5t3.5 3.5q1 1 4 6.5t5 6.5l-5 6q-1 0 -0.5 1t1.5 1l5 1l1.5 0.5t2.5 1.5q1 0 5.5 1.5t6.5 3.5q1 0 6 2t6 2q0 1 1 1h2q1 1 3 1v3v1v2
q0 -1 -5.5 -3t-6.5 -3t-5.5 -1.5t-5.5 -1.5q-1 0 -2.5 -0.5t-3.5 -0.5h-1h-3l-2 1h-3q-1 1 -3.5 1.5t-4.5 1.5q-1 0 -2 1.5t-2 2.5q-2 1 -5.5 3.5t-7 6t-6 6.5t-4.5 4q-1 1 -5 4t-5 4h-3q0 -1 -1 -4t-1 -4v-3t-1 -3v-1v-1v-1v-1l1 -1l20 -9q0 -1 1 -1q-1 -3 -1.5 -8
t-2.5 -10.5t-3 -10.5t-2 -8l-1 -3.5l-1 -3.5q-1 -6 -4 -16t-5 -19.5t-4.5 -17.5t-2.5 -9l-1 -5.5t-1 -7.5q0 -1 -0.5 -4l-0.5 -3q0 -2 -1.5 -7t-1.5 -6v-2v-1zM507 439h2l5 -5q2 3 5.5 9t4.5 7q0 1 1 1q2 1 2 3q1 1 3 4t2 5q1 1 3 2.5t2 2.5q1 2 3.5 5t2.5 4q2 0 2.5 2
t0.5 3t1 3.5t1 4.5q1 2 2 6t2 8.5t2 7l1 2.5v1h-5h1v0q2 0 4.5 2.5t3.5 2.5q1 1 7.5 4t8.5 5q3 1 12 4.5t13 4.5q-1 0 -1.5 0.5l-0.5 0.5h-2v1v3q0 1 1.5 5l1.5 4v2l-1 -1h-2v-1l-1 -3l-1 -3l-1 -1v-1h-1t-1 -1h-1h-1q-2 0 -2 1l-1 1q-1 1 -1 2h-1v-3.5t-1 -3.5q0 -1 -3 -2
h-2q0 -1 -1 -1t-3.5 -1.5t-6 -3t-7 -2.5l-3.5 -1q-1 -1 -6 -3.5t-6 -2.5q0 -1 1 -2.5t1 -2.5t-1 -3.5t-3 -3.5t-6 -6.5t-5 -8.5l-1 -2t-1 -3q-2 -1 -2 -3t-1 -3q-2 -1 -3 -3q-1 -1 -3.5 -8.5t-4.5 -8.5q-1 -1 -2.5 -4.5t-1.5 -4.5q0 -2 -1 -4.5l-1 -2.5q0 -2 -0.5 -4
l-0.5 -2l-2 -2v-2zM635 500q0 -3 0.5 -9t1.5 -7v-1v-1t1 -3t2 -3q0 -1 2 -2q0 -1 1 -2l6.5 -6.5l5.5 -5.5l2 -1h9h8l2.5 0.5t3.5 0.5h1q1 0 2 1q0 2 3 4.5t4 3.5v0.5v2.5l1 1l0.5 1.5t0.5 2.5h-1v1v1l-3 4q-1 1 -2 1t-2 1l-1 1q-1 0 -3 0.5l-2 0.5h-4h-2q-2 0 -6 -1
q-1 0 -3 -0.5l-2 -0.5v0l1 1q1 0 2.5 2t2.5 2v1v1q-1 1 -1.5 5t-0.5 5v2v1q0 1 1 1q1 3 4 3q1 -1 4.5 -3t6.5 -4t6.5 -3.5t4.5 -2.5q1 0 3 -0.5t3 -0.5q1 -1 5.5 -2.5t5.5 -1.5q2 -1 6 -2t5 -2h2h2q0 4 -2 4l-2 2v2q-1 0 -2.5 2t-2.5 3q-1 0 -4 2l-3 2q0 1 -1.5 1.5
t-3.5 0.5q0 2 -2.5 2.5t-3.5 0.5q0 1 -4.5 2t-4.5 2q-1 0 -3.5 1t-3.5 1q-1 2 -4.5 3t-4.5 1v0h-1l-1 1q-1 0 -5.5 3.5t-6.5 5.5h-1l-1 1h-19q-1 0 -2 1h-0.5t-0.5 1h-1v2q-2 0 -4.5 3.5t-2.5 5.5h-1h-2q-2 0 -2 -3l-2.5 -2.5t-2.5 -3.5l-2 -2h-1v-2v-3l1 -1l2 -3
q1 -1 2 -4.5t2 -4.5q0 -1 1.5 -3.5t1.5 -4.5l1.5 -1t1.5 -2v-1h1l3 -0.5t4 -0.5v-1h1zM728 502q0 -1 2 -4l2 -3q1 -2 1.5 -5.5t1.5 -4.5h1h1l2 0.5l2 0.5q1 0 2.5 2t2.5 2l1 1q0 1 2 2.5t3 1.5q0 1 1 3t1 3q-1 1 -1 2v1q-1 1 -2 4.5t-2 4.5q-2 -1 -3.5 -2t-2.5 -2
q-1 0 -3 -3l-2.5 -0.5t-2.5 -1.5q-1 0 -3.5 -1t-3.5 -1zM662 530q1 -1 1.5 -2t1.5 -1q0 -1 1 -2t3 -1q1 -1 3 -2.5t3 -1.5t4.5 -1t4.5 -1q1 -1 3.5 -2.5t3.5 -1.5q1 -1 5 -2.5t5 -1.5t5 -2t5 -3l2 -1l4 -2l5 -6q0 -1 2 -3q0 -1 1.5 -3.5t1.5 -3.5h4v4v1v2q-3 1 -3.5 2.5
t-0.5 3.5l-0.5 1.5t-1.5 1.5l1 1v0q1 1 3.5 1.5l2.5 0.5q1 1 3 2t2 2h3q0 1 0.5 1h0.5l3 3t3 2h2h2q0 -1 1.5 -5t1.5 -5q1 0 1 -1.5v-1.5v-1v-1q0 -1 -0.5 -3.5t-0.5 -3.5l1 2q1 0 4 2t5 3v1v3v2q0 3 -2 5q-1 1 -5.5 8t-4.5 8q-1 2 -4.5 7.5t-4.5 8.5h-1l-1 -3t-3 -4v-2
q2 -2 3 -3.5l1 -1.5q0 -1 2 -3q0 -2 1 -2v-1q0 -3 -2 -3l-2 -2l-3 -3l-1.5 -1l-1.5 -1l-2 -2l-2 -1q-3 0 -3.5 -0.5t-1.5 -0.5h-3.5h-2.5h-2h-1l-8 1q-1 0 -4.5 1.5t-3.5 2.5q-1 0 -4 1.5t-3 2.5q-1 0 -6.5 1t-6.5 3q-1 0 -4.5 1t-4.5 3q-1 0 -4 1.5t-3 2.5h-1h-2zM667 503
v-2.5t2 -1.5q0 -2 1 -4.5t1 -3.5h1h1q1 0 3 0.5t3 0.5v1q0 1 -1.5 2.5t-2.5 4.5q0 2 -1 2q0 1 -2 2l-1 1h-1v0h-1l-2 -1v-1zM680 492q-1 0 -1 -1t1 -1t1 1t-1 1zM679 502q-1 0 -1 -1t1 -1t1 1t-1 1zM643 526q0 -2 1 -4.5t1 -3.5v-1l1 -2l3.5 -1t4.5 -1l1 -1q0 -1 1 -1l1 -1
h-1h-1q-1 0 -4 0.5l-3 0.5q-1 0 -2 2q-1 0 -2 1l-1 1v11zM672 529q1 -1 3.5 -2t3.5 -1q1 -2 5 -3t5 -1l3 -2q1 -1 5 -2t8 -3t7.5 -3t5.5 -2h1h3l2.5 1t3.5 2l2 1t3 1t2.5 1.5l1.5 1.5q1 1 3 2.5t2 2.5v1l-1 2.5t-3 3.5h-1l-2 -1h-63zM720 540q0 -1 1 -1t1 -1q1 0 3 -2t3 -2
q0 -2 1 -2h2v-2h2q0 1 1 4t2 3q0 1 2 4.5t2 4.5h-2h-1q-1 -1 -5 -1.5l-4 -0.5q-1 0 -3.5 -0.5l-2.5 -0.5q-2 0 -2 -3v0zM638 534q2 0 6.5 -1t10.5 -1h11h6h9h9q-2 2 -5.5 5t-4.5 6q-1 0 -2.5 1.5l-2.5 2.5t-2 4t-2 3v2l-1 1v1v4v2v2q1 1 1 4l2 4q0 1 1.5 3.5l3 5t2.5 5
t1 3.5q1 1 2 4.5l1 3.5v1h-15q-2 0 -4 1l-4 2l-1 1h1l2.5 -0.5t3.5 -0.5h3h1q-1 0 -3 2.5t-3 3.5q-1 0 -1.5 0.5t-1.5 0.5h-4h-3q-1 0 -5 -2t-5 -4q-1 0 -3.5 -1.5t-3.5 -2.5l-0.5 -0.5l-0.5 -0.5h-2l-4.5 -4.5l-4.5 -4.5q0 -1 -2 -3t-2 -3q-1 -1 -2 -4t-2 -4v-2
q-1 -1 -1 -2v-4q0 -1 -1 -2v-3v-2l1 -2l1 -2q0 -1 1.5 -2.5l2.5 -2.5q1 -2 3 -5t3 -4l2.5 -3t3.5 -4v-1q1 0 1 -1h2h1zM672 559v-1q0 -1 0.5 -2.5t1.5 -2.5t4 -5t5 -5l2.5 -2.5l3.5 -3.5l3 -3t5 -2h28q-1 2 -6 6.5t-7 5.5q-1 2 -4 5.5l-3 3.5q-2 1 -3 3.5t-1 4.5v3v2
q0 1 1 5t3 5q1 3 3 7.5t4.5 9.5t4.5 9.5t3 6.5h-1h-1q0 -1 -5.5 -3t-6.5 -2t-6.5 -1t-6.5 -2q-1 0 -2.5 -0.5l-1.5 -0.5l-1 -1v0q-3 -4 -5 -9t-4.5 -9.5t-4 -8.5t-1.5 -5l-0.5 -0.5l-0.5 -0.5v-1v-1.5v-2.5v-2zM496 576q0 -1 2 -2.5t3 -1.5l1 -1q1 -1 1 -3q1 -1 4.5 -2.5
t4.5 -2.5q0 -1 3 -3.5t4 -2.5q0 -1 2.5 -3t3.5 -4q2 0 2.5 -0.5l2.5 -2.5q1 -1 2 -1q0 -1 3.5 -3t4.5 -3q0 -1 1 -1h1t2.5 -0.5t2.5 -0.5h3h1q2 1 7 2t7 3l5 1.5t7 2.5q1 0 4.5 1.5l3.5 1.5q2 2 9.5 5t8.5 4q1 0 2 2l1 0.5t2 1.5v1h1l-1 1l-1 1q-2 0 -3 -1h-1
q-3 -1 -10 -4.5l-9 -4.5l-2 -1l-4 -2q-1 0 -5 -2t-5 -2h-1q1 0 4 2t4 2q1 1 6.5 3t7.5 3h1l1 2q1 2 6.5 4t6.5 2q0 1 -1 3t-2 3l-1.5 2t-4 4.5l-4 4l-1.5 1.5q0 1 -3 4l-4 4q0 1 -1.5 2.5t-1.5 2.5q-4 0 -11 -0.5t-15.5 -0.5t-16 0.5t-10.5 0.5h-6.5t-7.5 1h-4h-3
q-1 0 -2 0.5l-1 0.5q-1 0 -1 -0.5t-1 -0.5l-3 -1q0 -1 -0.5 -5t-0.5 -7l-0.5 -3.5t-0.5 -5.5v-1zM609 559l-1 -1v0q-1 -1 -2.5 -1.5t-2.5 -0.5v-2q-2 0 -2 -2q-1 -2 -1.5 -4.5t-0.5 -3.5v-3q1 0 5 1t5 1t4 0.5t4 0.5t2.5 1t2.5 2q-1 0 -2 2.5t-2 2.5l-3 3t-2 3h-1v1h-1h-2z
M703 563v-2l2 -3t2 -4l3.5 -3.5l4.5 -4.5l3 -3q1 0 1 1h1h2q1 1 5 1.5t4 1.5h3.5t3.5 1h4h3q0 -1 3.5 -1h4.5q1 -1 7.5 -2.5t8.5 -1.5h1h1l1 1.5t1 2.5q1 0 2.5 2.5t2.5 2.5v1t1 1h-2h-4l-3 -0.5t-5 -0.5h-5.5t-5.5 -1v1q-1 1 -1.5 2t-0.5 2q-1 1 -3 4t-2 4h-1v1v1
q0 3 -0.5 6t-0.5 4v5v3q0 1 0.5 4.5t0.5 5.5q0 3 1 5q2 2 2.5 4t1.5 3q0 3 1 4l0.5 3t1.5 3q0 1 2 5t3 5v1h-4q0 -1 -2 -1h-1q-1 0 -1.5 -1t-1.5 -1q-2 -1 -2.5 -2.5t-0.5 -2.5l-1 -1.5t-2.5 -4.5t-3 -5l-1.5 -2l-1 -1v1q0 1 2 4.5t2 4.5h-1h-3l-1.5 -0.5t-2.5 -0.5
q-1 -1 -4 -2.5t-4 -1.5q0 -1 -1 -1.5t-2 -0.5q0 -1 -1.5 -4.5t-2.5 -4.5q0 -1 -1.5 -4.5t-3.5 -7t-3.5 -6l-1.5 -2.5q-1 -3 -3 -8t-2 -6v-1v-1v-1zM593 552l-0.5 -1l-0.5 -1h-1v0l-1 -1l-0.5 -2t-0.5 -3q1 0 2 0.5t1 1.5l0.5 1t0.5 2v1v0v2zM562 548q1 0 1 -1t-1 -1
q-2 0 -2 1t2 1zM565 549q1 0 1 -1t-1 -1t-1 1t1 1zM755 552q1 0 1 -1.5t-1 -1.5t-1 1.5t1 1.5zM749 568q0 -1 1 -3t2 -2q0 -1 0.5 -3.5t1.5 -2.5v-1h7h7l5 1t6 1l4 0.5t8 0.5t7.5 1t4.5 1l1 1q2 0 2 1q1 0 3.5 0.5t2.5 1.5q1 0 3 3t3 4v1v3q-1 0 -1 1q0 2 -2 3.5t-2 2.5
q-1 1 -4.5 4t-4.5 4l-2 1q-3 1 -3 3q-1 0 -5 2.5t-5 2.5h1h1v0h1l3 -1t4 -1q0 -1 3 -3.5t4 -2.5q1 -1 4 -3.5t4 -3.5l2 -2l2 -2l2 -1h1v1q1 1 2.5 5t2.5 5v6v3q0 1 -1 1q-1 1 -2.5 2t-2.5 3q-2 1 -4.5 2.5t-2.5 2.5q-1 0 -7 2.5t-7 3.5q0 2 3 2l1 -1l2 -1q1 -1 6.5 -4
t6.5 -3q2 -1 4.5 -3.5t3.5 -2.5h1l1 2.5t1 3.5v4v3q0 1 -2 2q-1 1 -1.5 3l-0.5 2q-1 1 -2.5 3t-2.5 2q-2 1 -5.5 5.5t-6.5 6.5v1v1l1 1h1t1 1q0 -1 0.5 -2t1.5 -2q0 -2 4.5 -5.5t4.5 -5.5l2 -2l3 -3q0 -2 4 -5h1l9 10v3v2v3.5t-1 4.5q0 2 -1 3h-1v1q0 3 -3 3l-1 0.5l-1 0.5
q-1 1 -5.5 1.5t-5.5 0.5q-4 1 -10.5 2.5t-7.5 1.5h-6h-6l-2 -1q0 -1 -2.5 -5l-2.5 -4q-2 -1 -4 -2.5l-2 -1.5q-1 -2 -7.5 -7.5t-7.5 -6.5l-0.5 -1t-1.5 -2t-2 -1q0 -1 -2.5 -5t-3.5 -5v-2.5v-1.5q-1 -2 -1.5 -5t-1.5 -6q-1 -2 -2 -7q0 -1 -1 -5t-1 -6t1 -6.5t1 -7.5z
M521 571h2l3.5 -0.5t7 -2t5.5 -2t3 -0.5h7.5h7.5q2 -1 5 -1q-2 0 -4 -0.5t-3 -0.5t-4.5 0.5l-3.5 0.5h-2h-3.5t-1.5 1h-4h-4q0 1 -4 1.5t-5 0.5t-1.5 1.5t-1.5 1.5h1zM596 583q2 -1 4.5 -4t2.5 -5l4.5 -4.5t4.5 -3.5q0 1 2.5 7t2.5 8q1 0 1 1v1q1 1 3 4t2 4l2.5 3t4.5 4
q1 0 3.5 1.5t3.5 1.5q0 1 4.5 4t5.5 4v0q1 0 1 1v1q-1 0 -2.5 3.5t-2.5 3.5q-1 1 -2.5 3.5t-2.5 2.5l-1 0.5t-2 0.5h-1q-1 0 -4.5 -0.5l-3.5 -0.5q-1 0 -5 -2.5t-5 -3.5q-2 0 -3 -1q-2 -2 -4 -3q0 -3 -1 -3q0 -1 -2.5 -4l-2.5 -3q0 -1 -2 -4t-2 -5l-2 -4t-1 -5v-1v-2z
M660 599l-7.5 -7.5t-6.5 -7.5q-1 -1 -4.5 -5.5t-4.5 -5.5q0 -1 -1 -1.5l-1 -0.5l1 2t1 3q1 0 3 3t2 4l5 5l5 5l2.5 2.5l2.5 2.5h1.5t1.5 1zM519 572q0 -1 -0.5 -1t-0.5 1h0.5h0.5zM580 576l-3 -1t-4 -1t-4 -0.5t-4 -0.5q-2 0 -6.5 -0.5l-4.5 -0.5h-5h-4h1l1 1q1 0 7 0.5
t8 0.5t8 1t7 1h3zM543 573q0 -1 -1.5 -1t-1.5 1q-1 0 2 0t1 0zM591 591v-1v-1q0 -1 1 -3q0 -1 1 -1q0 1 1.5 4.5t1.5 5.5l1 2t2 3v2l1 1l0.5 1.5t1.5 2.5l1 3q2 1 6 5t4 5q1 1 5.5 3t6.5 3q1 0 5 0.5t5 1.5q0 1 -2 3t-3 2q0 1 -2.5 0.5t-5.5 -1.5q-1 0 -2 -1t-2 -1
q-1 -1 -5 -2.5t-5 -1.5q0 -1 -4.5 -5t-5.5 -6q-2 -1 -3 -2.5l-1 -1.5q0 -1 -1 -4t-1 -4t-0.5 -2l-0.5 -1v-1v-2.5v-2.5v-3zM831 595q0 -1 0.5 -2t1.5 -1q0 -1 2 -1h3h2l1 1v1.5v1.5q0 2 1 3v2l1 3.5t1.5 7t1.5 6.5l1 3q0 3 0.5 4.5t1.5 2.5v1v1q-2 0 -2 1h-2q0 -1 -2.5 -3
t-3.5 -2q-1 -1 -1 -2l-2.5 -2.5t-0.5 -1.5q-1 0 -1.5 -1.5l-0.5 -1.5q-1 -2 -1.5 -7t-0.5 -6v-4v-4zM577 604l4 -4t4 -5q0 -2 2 -2v4.5t2 2.5q0 1 1 5.5t2 5.5q0 1 1 2.5t1 2.5q2 1 6 5.5t7 5.5l1 1l1 1q1 0 3 1l1 2q1 1 4 1.5t4 0.5l2.5 0.5t3.5 0.5q0 1 -2 4t-3 4h-4h-5
l-2 -2h-2h-1l-0.5 -1l-0.5 -1h-3q-1 -1 -3 -2t-3 -2q-4 0 -5 -2q-1 0 -3.5 -3l-2.5 -3l-2 -2l-2 -2q-1 -3 -2 -7t-3 -5v-2t-0.5 -1.5t-0.5 -1.5v-2zM443 643q0 -2 1 -4.5t3 -3.5q0 -1 1.5 -3t2.5 -2q1 -1 4 -3.5t4 -2.5l3.5 -3.5t5.5 -4.5q1 -1 4 -3t4 -2l2 -1q1 -1 3.5 -2
t3.5 -1l4 -1.5t5 -1.5t3.5 -0.5t3.5 -0.5q3 -1 8.5 -2t6.5 -1h8.5t7.5 -1h11h11q2 1 10 1h11q-1 0 -2 0.5t-2 0.5q-2 0 -5 1l-7.5 2.5t-8 3t-4.5 1.5t-5 1t-7 1q-1 0 -3 1.5t-3 2.5q-1 0 -2.5 1t-2.5 1t-1 0.5t-1 0.5l-1 1q-1 1 -2.5 3l-1.5 2h2l2 -2l3 -3q1 0 4 -1.5
t4 -1.5q1 -1 6.5 -3t8.5 -2q1 -1 6 -2t8 -2q2 0 4 -0.5t3 -0.5h1h1l-19 11l-3 2v14v20q0 1 0.5 4.5t0.5 4.5q1 1 3 5t3 5l1 1.5t2 3.5q1 0 1 1h1l1 1q3 1 5 1.5t3 0.5q0 1 3 1.5t4 0.5q2 0 5.5 0.5l3.5 0.5q2 0 9 1t10 1q-2 1 -5.5 3.5t-4.5 4.5q-3 3 -8 7.5t-5 5.5v2
q1 -2 5 -5.5t5 -4.5q1 -2 4 -3q2 -2 4 -2h1v1q-1 2 -4 9.5t-4 9.5l-4 11q-1 0 -2 4.5l-1 4.5q0 2 -1 3q0 2 -1.5 4t-1.5 3q-2 1 -4 5.5t-2 7.5q-1 1 -1 3v1v1l1 1q0 1 1 1l1 2h1q1 0 2 0.5t2 0.5h-1v2.5t-2 1.5q-1 1 -1 3l-2 2h-2h-4q-2 -2 -3 -2q-1 -2 -5 -6l-5 -5l-1.5 -2
t-3.5 -2q0 -1 -1 -3.5t-2 -3.5q-1 -2 -3.5 -6t-2.5 -5q-1 -1 -2.5 -5t-2.5 -6q-1 -4 -4 -10.5t-3 -7.5q-2 -4 -4.5 -12t-5 -15.5t-5.5 -15.5t-4 -12l-1 -1v1q0 2 0.5 4t0.5 3v1.5v2.5l-1 -2q-3 0 -3 -1q-1 0 -4 -1t-5 -1l-3 -1t-7 -2l-8 -2l-4 -1q-2 -1 -5.5 -2l-3.5 -1
q-4 -1 -9 -2.5t-6 -1.5t-2 -1.5l-1 -1.5zM664 611h1h1q1 -1 4.5 -4t4.5 -4h4h2q1 0 4.5 0.5t4.5 0.5l-1 2q-2 1 -8.5 3.5t-7.5 4.5q-1 0 -2.5 1t-3.5 1q-4 2 -13 5l-9 3h-3l9 -13h13zM573 606q-1 0 -1 -1.5t1 -1.5t1 1.5t-1 1.5zM550 620l1 -2q5 -1 8 -3q4 -1 6.5 -3t5.5 -3
q2 -2 3 -2h1v3q0 1 1 1q1 3 3 8t3 6l2 2l3 3q0 2 2 3l2 1q1 1 4 2.5t4 2.5l2 1.5t3 2.5q1 0 4 0.5t4 1.5h2.5t2.5 1l-2 2t-2 3v1h1q0 1 -0.5 3l-0.5 2v3v2v1q0 1 -1 4.5t-1 4.5l-0.5 1.5t-1.5 3.5l-0.5 1.5t-0.5 2.5h-1q-3 0 -7 0.5t-6 0.5q-1 0 -5 -0.5t-5 -0.5h-4h-5
q-1 0 -2.5 -0.5t-3.5 -0.5q-1 -1 -5 -3t-5 -3l-2 -2l-1 -1q-1 -1 -3 -5.5t-3 -4.5v-5.5v-8.5v-15v-12zM799 623q1 0 1 -2t-1 -2v2v2zM514 626q1 0 1 -1t-1 -1t-1 1t1 1zM513 627q1 0 1 -1t-1 -1t-1 1t1 1zM564 646v0l1 1q1 0 5 3t5 4q0 1 1.5 1.5t1.5 1.5q2 0 7 3t6 4t2 1.5
t3 0.5q2 2 4 2h2h1q-1 0 -7 -3t-7 -4q-2 -1 -6.5 -4t-5.5 -4q-1 0 -4.5 -3t-5.5 -4q0 -1 -1 -1v0q0 -1 -0.5 -1.5l-0.5 -0.5q0 -1 -0.5 -3l-0.5 -2q-1 -1 -3 -5t-2 -5t-0.5 -1h-0.5v-1v1v1v1.5v0.5q0 3 2.5 8.5t3.5 7.5zM512 628q1 0 1 -1t-1 -1t-1 1t1 1zM511 629q1 0 1 -1
t-1 -1t-1 1t1 1zM510 630q1 0 1 -1t-1 -1t-1 1t1 1zM509 632q1 0 1 -1t-1 -1q-2 0 -2 1.5t2 0.5zM507 634q2 0 2 -1t-2 -1q-1 0 -1 1t1 1zM631 637l2 -2h1q1 2 5.5 6.5l5.5 5.5l1.5 2.5t2.5 3.5q2 1 3 2.5t2 1.5q0 2 3 6q1 1 1 2q2 1 2.5 7t-0.5 7q1 0 2.5 1t2.5 1q0 1 1 3
t3 2v1h-2q-1 0 -2.5 -0.5t-2.5 -2.5l-1 2v10q0 -1 -2 -3l-2 -2q0 -1 -2 -2v-1q-1 0 -2.5 -0.5t-3.5 -0.5q-1 0 -5 -0.5t-6 -0.5h-1h-1q-1 0 -1.5 0.5l-0.5 0.5l-3 1h-1q0 -1 1.5 -7.5t1.5 -7.5v-12v-14q0 -1 -1 -5l-1 -4v-1zM501 639v-0.5v-0.5q-1 0 -1 0.5t1 0.5zM498 643
q2 0 2 -2t-2 -2v2v2zM609 681h1v0q0 -1 1 -1q0 -1 1 -5.5t1 -6.5q1 -2 2.5 -5.5t1.5 -5.5l0.5 -3t0.5 -4q1 -3 4.5 -6t4.5 -3h1l1 2.5t1 3.5v12v11q0 1 -1 4.5t-1 5.5q-1 1 -1 2v1.5v0.5q0 4 -1 4h-1q-2 0 -4 -0.5t-3 -0.5t-3 -0.5l-2 -0.5q-1 0 -2 -1t-2 -1v-1v-2zM498 643
q-1 0 -1 0.5t1 0.5v-1zM391 681h6.5h5.5t2 -0.5l1 -0.5q1 0 4 -1.5t4 -1.5q0 -2 1 -2.5l1 -0.5l1 -1q3 -1 7.5 -5.5l5.5 -5.5q0 -1 2 -3.5t3 -5.5q1 0 3 -3.5l2 -3.5q0 -1 1 -1l1.5 1t2.5 1q0 1 2 2.5t3 1.5l0.5 0.5t1.5 0.5q0 1 3 1.5t4 0.5t1 1l2 1q1 0 6.5 2t11.5 3.5
t11.5 2.5t6.5 1q0 1 3.5 2t4.5 1l1 1v0.5t2 0.5q1 0 2 0.5t1 1.5v0l1 1q0 2 2.5 8t4.5 12t3.5 11.5t3.5 8.5q1 1 3.5 7.5t3.5 10.5q0 1 2.5 5t3.5 7l0.5 1.5t1.5 1.5q1 3 4 8t4 6q0 1 1.5 2t2.5 2q1 3 5.5 7t5.5 5q0 1 2 2t4 1q0 1 -2 2.5t-2 2.5q-1 0 -2 1l-1 1l-2 1
q0 1 1 2q1 3 1 4v1q0 1 0.5 1.5l0.5 0.5l2 7q0 1 3 4.5t4 4.5l-14 -6h-1v1l1 1q3 2 7 6.5t6 5.5l1 1l2 2q1 0 3.5 1t3.5 2q1 0 4 1.5l3 1.5l1 1h1q-1 0 -2 1l-1 1q-2 1 -3 1t-1 1l-0.5 2t-1.5 3h-3h-2q-2 -1 -10.5 -6t-10.5 -7q-1 -1 -5 -3.5t-8 -5.5t-8 -5t-5 -4
q-1 -1 -5 -3t-5 -4t-4.5 -3.5t-3.5 -2.5q-1 -1 -1 -2v-1v-2t-0.5 -10.5t-0.5 -9.5q0 -2 -1 -10t-1 -10q-2 -1 -2 -4v-1q-1 -1 -2 -3.5t-1 -4.5v-1h1q1 1 2 1q0 2 2.5 2.5t3.5 1.5l1.5 1t3.5 2l0.5 0.5t1.5 0.5q0 1 1 1q2 2 6 5t5 6v-3q-1 -1 -2.5 -3t-2.5 -3q-2 -2 -3 -2
q-1 -1 -2 -1.5l-1 -0.5q-1 -1 -3 -2.5l-2 -1.5q-2 -3 -4 -3q-3 -1 -11 -5.5t-9 -4.5q0 -1 -6 -2t-8 -2q-1 -2 -4 -3t-4 -1q-1 -1 -5.5 -2t-5.5 -1t-5 -1t-5 -1q-2 0 -9 -2t-8 -2q-1 -1 -2 -1h-3q-1 0 -2 -1t-2 -1q0 -1 -1 -1h-2l-3 -1q-1 0 -5.5 -2.5t-5.5 -3.5
q-1 0 -4 -1.5t-3 -2.5q-1 -1 -2 -3t-3 -3l-3 -3v-5zM612 654q1 0 1 -1t-1 -1t-1 1t1 1zM697 671l10 -6v1h1q0 2 0.5 4.5t0.5 3.5t1 3t1 3t1.5 6.5t2.5 7.5v1h-4q-1 -1 -3.5 -1h-4.5l-1 -2q-1 -1 -1.5 -3.5t-1.5 -4.5q0 -1 -0.5 -2t-0.5 -2t-0.5 -4l-0.5 -3v-1v-1zM718 694
q0 -2 -0.5 -3l-0.5 -1q-2 -3 -3.5 -8l-1.5 -5q0 -3 -0.5 -5t-0.5 -4h21v2l-2 0.5t-3 1.5h-1h-2l-4 -1h-2v1l7 7q1 0 1.5 1.5t0.5 2.5t2 4.5t2 4.5v1v2l2 -1q0 -2 -0.5 -4t-0.5 -3t1 -2t2 -1l7 13v1q0 1 -1 1l-2.5 2.5t-3.5 2.5l-4 2zM667 674q2 -1 5.5 -1.5t5.5 -0.5l3 -1
l3 -1h5h4h1v1l1.5 4t1.5 5t1.5 6.5t2.5 8.5q-1 0 -1 1v0v1q-1 0 -1 1v0v1h-1q-1 0 -4.5 0.5t-4.5 0.5t-3 1.5t-3 1.5l-3.5 1t-4.5 1h-1q-1 -1 -1 -2v-2.5v-0.5v-1l-0.5 -4l-0.5 -4v-3q0 -1 -1 -2l-2 -4.5l-2 -4.5v-2v-1zM666 680l-2 -1l-1 -1h-1v-4v-2zM727 677l1 -3l1 -1h2
q1 0 2 -0.5t2 -0.5h1h1q1 0 2 1.5t1 3.5l-3 2q-2 0 -2 1q-1 0 -2 0.5t-2 0.5q-3 0 -3.5 -1.5l-0.5 -1.5v-1zM733 681q1 0 4 -0.5l3 -0.5h1h1l1.5 1.5l2.5 2.5q0 2 0.5 2t0.5 1q-1 0 -3 0.5t-3 0.5h-1q0 -1 -1.5 -1.5t-1.5 -2.5v-1h-1t-2 -0.5t-1 -1.5zM731 684v-1.5v-1.5
q1 0 1 1.5t-1 1.5zM587 732q0 -5 3 -7q1 -3 1.5 -6t1.5 -5q0 -1 0.5 -3.5t2.5 -3.5t3 -5.5t2 -5.5t2 -4t1 -4t1.5 -1.5t2.5 -0.5t5 1.5t5 2.5h4q3 0 4 1v1q-1 0 -3 2l-1 1q-2 1 -6 4.5t-5 4.5l-4.5 4.5t-5.5 4.5l-1 1l-1 1l-2 2t-1 2l-1 2.5t-1 3.5l-0.5 3.5t-0.5 4.5v1h-6
v-2zM594 737q0 -1 2 -6t2 -6v-1.5v-1.5t1 -3q0 -1 0.5 -2t1.5 -1l2 -2q4 -4 10 -9t7 -6l5 -3q2 -1 4 -3t4 -2l2 -2l2 -1h1h2q2 0 5 1t4 1h3t2 1l2 3q1 2 4 10.5t4 11.5l0.5 4t1.5 5q0 1 1.5 5l1.5 4q0 2 0.5 5.5t1 6.5t1 5t0.5 3v8v9l-1 -1h-1q-1 -1 -3 -2.5t-2 -3.5l2 -1
l-1 -1v-3v-2l3 1q0 -1 -1 -1t-1 -2v-1q0 -1 -1 -1h-1q-1 -1 -2.5 -1h-1.5h-1h-3h1v1l2 1l-2 3q0 -3 -1 -3h-1h-1q-1 0 -1 2v3q-1 0 -1 1v1v2l1 1h1l1 2q1 1 4.5 3.5t4.5 2.5q1 2 3.5 3t3.5 2v10q-1 0 -1 1l-2 1t-2 3q-1 0 -3 1.5t-3 1.5q0 -1 -1 -1h-2q-1 -1 -3 -2.5
t-3 -1.5l-1 -2h-2h-2h-1q-1 0 -4.5 1t-4.5 3h-2q-4 0 -4 1h-1q-2 -1 -5.5 -3.5l-3.5 -2.5q-2 -1 -6.5 -2.5t-5.5 -3.5q-1 0 -4.5 -0.5t-4.5 -1.5v-3q0 -1 -1 -3t-1 -3t-1 -2.5t-1 -3.5q2 2 5 3.5t6 2.5h3h3q1 0 7 -1.5t6 -2.5q1 0 3 -1t4 -1q1 0 6.5 -0.5t6.5 -0.5l-1 -1v-1
q-1 -1 -4.5 -5t-5.5 -5h-2h-2q-1 0 -2.5 0.5l-1.5 0.5h-1l-3 -1h-3h-2l-0.5 0.5l-1.5 1.5l-1.5 2t-1.5 3h-1h-1q-1 0 -1 -0.5t-1 -0.5h-1v1l4 3q-1 0 -2.5 0.5l-1.5 0.5h-5h-4q-1 0 -2 -0.5l-1 -0.5l-2 -1v-1q0 -1 -0.5 -7t-0.5 -7h-1l-9 18h-3h-3l-2 -2l-1 -1q0 -1 1 -1
q1 -2 3.5 -8t3.5 -7q0 -1 1 -2.5l1 -1.5l2 -1q0 -2 1 -2h7zM671 706l-4 -4t-3 -4q-1 -1 -2 -5t-1 -5h4l1 1t3 2l1 1l0.5 2.5t0.5 3.5v5v3zM746 699q-1 0 -1 -1v-1q-1 -1 -2 -3.5t-2 -2.5h3h3v0q2 0 2 1l1 2l1 2v1v1h-0.5t-0.5 1h-1h-2h-1zM623 706l1.5 3.5t2.5 4.5l1 2h2
q0 2 3 2q1 0 2.5 0.5t2.5 0.5h9h9l1 -1v-1v-1l-0.5 -3l-0.5 -3v-6q-1 -4 -4 -5h-2t-2 -1q-1 0 -4.5 -0.5t-4.5 -0.5h-3h-3h-2q-1 0 -1 1q-2 1 -3 3t-2 2l-2 2v1zM626 705q2 0 2 -2t1 -2t2 -1l2 -1h4h6q1 0 2.5 0.5t2.5 0.5h1q2 0 2 0.5v0.5q1 0 1 2v1l-1 -1h-3h-8h-6
q-1 0 -4 1l-3 1h-1zM672 731q-1 0 -1 -1v-3h-1q-1 -1 -1 -3q-2 -2 -3.5 -9t-1.5 -8q-1 -1 -2 -4t-1 -4q2 1 5.5 5.5t4.5 5.5l1 2v0v1v18zM634 705q1 0 2 -0.5t2 -0.5h2h5h2q1 0 2 1v1h-2q-1 0 -6.5 -0.5t-6.5 -0.5zM631 707q-1 0 -1 -1t1 -1q2 0 2 1t-2 1zM637 716h-2h-2h5
h5h3.5h4.5h-7h-7zM655 732q-1 1 -2.5 4t-1.5 4v1v2l2 -4t2 -3q0 -2 1 -3.5l1 -1.5l-1 -3l-2 -2q-1 -1 -2 -1h-3l6 6v1zM637 728q1 0 1 2v1l1 -1v-2q0 -1 1 -1l2 -1q0 -1 -2 -1h-1l-1 1q-1 0 -1 1v1zM674 785v-5v-8.5v-8.5v-5t-0.5 -4.5t-0.5 -5.5l-0.5 -3t-0.5 -4v-2v-2
q0 2 1 2t1 1q1 1 5 6t5 6q3 1 7.5 6.5t5.5 7.5v1q0 1 -2 2.5t-3 2.5q0 2 -2.5 3.5t-4.5 1.5l-3 3t-3 4l-1.5 0.5t-2.5 0.5h-1zM580 759v-6l-1 0.5t-1 3.5v3h4l1 -1v-7q0 -1 2 -2.5t4 -3.5v-1v-1l-4 2q0 2 -1.5 3t-1.5 2q-1 1 -1.5 4t-0.5 4zM610 751h1v-1h1h1q1 0 4.5 -0.5
t4.5 -1.5l1 -2h-3h-4q-2 2 -3 2.5t-2 1.5h-1v0.5t-1 0.5h1zM617 755v-1l1 -1v0q1 -1 3 -1h1t1 1v1v0q0 1 -1 3q-1 0 -2 0.5t-2 0.5h-1v-3zM591 753q0 1 1 6t1 7q1 1 1 4q0 1 2 3t2 3v2v1q0 1 -2 1.5l-2 0.5h-1l-9 -14zM660 759q0 -1 0.5 -1.5l0.5 -0.5h1q2 0 2 2v2h-2
q-1 0 -1 -0.5v-0.5zM577 762q1 0 1 -1t-1 -1t-1 1t1 1zM577 777q1 -1 2.5 -3.5t2.5 -3.5l10 15q-1 1 -1 2q-1 1 -1.5 1t-0.5 2q-2 0 -3 1t-1 2q0 -1 -0.5 -2.5t-1.5 -2.5t-3 -5t-3 -5v-1zM565 788l1 -1l1.5 -1l1.5 -1q2 -1 3.5 -2.5l2.5 -2.5h1l1 2t1 3t1.5 2t2.5 3q1 3 2 5
v11q1 0 1 1v1q1 2 4.5 5t4.5 4l2 1.5t3 1.5l2 0.5t2 2.5q1 0 4 0.5t4 1.5q1 0 2 0.5t3 0.5h7h8q0 -1 3 -1l1 -1h2h2l1 1v0q0 1 2 1q0 3 -2 3q-1 1 -2 1.5l-1 0.5q-2 0 -5.5 1t-7.5 3t-7.5 2.5t-3.5 1.5q-1 0 -3.5 1.5t-2.5 2.5h-2h-1l8 -10h-21h0.5t0.5 -1q1 0 3.5 -0.5
t3.5 -1.5v-1q-1 0 -5 -1.5t-5 -1.5q-2 -1 -6.5 -3t-6.5 -3q-1 0 -2 -0.5t-1 -2.5q-1 -1 -4 -3t-3 -3q1 0 4.5 1.5t4.5 1.5q0 1 1.5 1.5l1.5 0.5v-1v-1l-0.5 -0.5t-0.5 -1.5l-2 -2q-1 -2 -2.5 -4t-3.5 -3q-1 -2 -1 -4q-1 -1 -2 -5l-1 -4v-1v-1zM585 801l1 -2t1 -3v-1t2 -1
q0 -1 0.5 -1.5t1.5 -2.5l1 -2q0 -1 2 -2t4 -1q0 -1 1 -1h1h3h1q1 0 4 0.5t4 1.5q1 0 5 2t5 4q1 0 3 1.5t3 1.5q1 1 4 3.5l3 2.5q0 1 1 2t1 2v3v4q0 1 -1 4t-2 4t-1 2q-2 1 -2 2h-8h-7q-2 -1 -3 -1h-2t-2 -2h-1q-1 0 -1 -0.5t-2 -0.5h-1h1h2l3.5 1.5t5.5 1.5h2h2l3 -2h3
q0 -1 1 -1t1 -1v-3v-2l-1 -1v-1.5v-0.5q0 -3 -1 -3l-5 -5l-5 -5q-2 0 -3 -0.5t-2 -1.5q-1 0 -4 -1t-4 -1h-1q-1 -1 -2 -1t-1 1h-1h-3q-1 0 -1.5 0.5l-0.5 0.5q-1 0 -1 0.5v0.5h-1q-1 1 -1 2v1v3v2v1l2 3q1 2 5 5.5t6 5.5q-1 0 -2 -1l-1 -1q-1 -1 -2.5 -1.5t-1.5 -1.5
q-2 -1 -4 -3.5t-3 -3.5q-2 -1 -2.5 -2t-1.5 -2v-1v-1zM634 795q1 -1 6 -2t6 -1v-2h1h1l1 2h2q1 0 1 1q1 0 2 1t2 1l1 1l1 1v0q0 1 -0.5 1h-0.5l-1 1q-1 2 -3 4.5t-4 3.5h-4h-6v-1q0 -1 -1 -1q-1 -1 -1 -4l-1 -2.5t-2 -3.5zM643 825q0 -1 1 -2.5l1 -1.5q0 -1 1.5 -4.5
t2.5 -4.5q2 -1 3.5 -4t2.5 -3q0 -1 3 -3.5t3 -3.5q2 -1 6 -3.5t5 -2.5q0 -2 1 -2q2 0 2 2q1 0 2.5 1.5l2.5 2.5v1q-1 0 -4 2t-4 2q-1 1 -2 1.5t-1 1.5q-2 1 -5 4l-4 4l-2 2t-2 3l-1.5 3t-0.5 3v0v1v0.5t1 0.5q0 -1 1 -1h2q0 -1 2 -1h1q0 -2 1.5 -2.5t2.5 -0.5l2.5 -2t3.5 -4
h1v-1l0.5 -0.5l1.5 -1.5q0 -1 1 -3q1 -1 2.5 -3t2.5 -4v3v2q0 2 -1 4l-3 3t-2 3q-1 1 -4 4.5t-4 4.5q-1 0 -3.5 1.5t-4.5 2.5q-1 1 -3.5 1.5t-3.5 0.5q-3 0 -3 -1q-1 0 -2.5 -2.5t-2.5 -2.5zM591 803v-2v-2l0.5 -0.5l0.5 -0.5v-1h1l1.5 -0.5t3.5 -0.5h2h3q1 1 4 1t4 1h1l1 1
v2h1q2 1 3 2t3.5 2.5t2.5 2.5q0 2 1.5 3t1.5 2v1v0v1v1v1q0 2 -1 2l-2 1h-1h-3h-3h-3t-1.5 -0.5l-0.5 -0.5q-1 0 -2 -2h-1q-1 -1 -4.5 -2t-3.5 -2q-1 -1 -4 -3.5t-4 -3.5q0 -1 -0.5 -1.5l-0.5 -0.5v-1zM678 803q-2 0 -2 -2t2 -2q1 0 1 2t-1 2zM656 821q0 -1 1 -1.5t1 -2.5
q2 -1 3 -3l1 -2q1 -1 2 -2.5t2 -1.5q0 -1 1 -2q3 0 3.5 -0.5l0.5 -0.5l2 -1l1 -1h2l-1 1q0 1 -1 2.5l-1 1.5q-1 2 -2.5 4t-3.5 2q-1 1 -3.5 3t-3.5 3h-2h-1v1h-1zM637 820q0 -1 0.5 -4t0.5 -4q0 -2 1 -2h8v1q-1 1 -2.5 5t-2.5 5h-2v2h-1h-2v-2v-1zM652 829q1 0 1 -1.5
t-1 -1.5t-1 1.5t1 1.5z" />
    <glyph glyph-name=".null" 
 />
    <glyph glyph-name=".null" 
 />
    <glyph glyph-name="nonmarkingreturn" horiz-adv-x="500" 
 />
    <glyph glyph-name="space" unicode=" " horiz-adv-x="248" 
 />
    <glyph glyph-name="space" unicode="&#xa0;" horiz-adv-x="248" 
 />
    <glyph glyph-name="exclam" unicode="!" horiz-adv-x="395" 
d="M50 702q7 -315 7 -436l-36 -222l301 -29v179q0 68 72 443h-8zM129 623q185 -31 185 -57q-42 -279 -64 -279h-85q-38 0 -43 22q-8 186 -8 293v7q3 14 15 14zM136 223q121 0 121 -29v-86q0 -10 -21 -21q-118 7 -143 21q11 115 43 115z" />
    <glyph glyph-name="quotedbl" unicode="&#x22;" horiz-adv-x="617" 
d="M151 616q98 -29 114 -29v-7q0 -41 -107 -186h-7q-53 0 -57 22q29 126 57 200zM407 616q98 -29 114 -29v-7q0 -41 -106 -186h-8q-53 0 -57 22q29 126 57 200zM271 358q97 -21 187 -28q157 266 157 293q-241 65 -258 65v-8l-14 -53q-226 61 -242 61v-8l-86 -322
q96 -21 186 -28q79 133 118 206z" />
    <glyph glyph-name="numbersign" unicode="#" horiz-adv-x="725" 
d="M211 715l192 -30q3 20 20 20h30q212 0 212 -121q0 -30 40 -71v-20q0 -66 -71 -181q-21 -171 -121 -171q-26 0 -80 -131l-20 -10h-20q-51 0 -121 20q0 -20 -21 -20h-9q-181 10 -181 61v70q-45 0 -61 40v10q0 160 30 192q0 231 71 231h50q0 111 60 111zM222 644
q-15 -110 -41 -110h-40l-20 9q-20 -54 -20 -140h60l20 -10q-13 -61 -30 -61h-70q0 -71 -20 -141q70 0 80 -10q-10 -17 -20 -90l110 -30q28 140 51 140h10q20 -3 20 -20l-30 -90q21 0 100 -30q43 140 91 140q68 0 90 81q0 10 11 30q-81 0 -81 20q0 50 91 50q14 0 60 111
q-81 0 -81 30q31 45 31 91l-151 30q-23 -131 -50 -131h-20q-20 0 -20 30q9 32 9 81zM322 403h51v-21q0 -53 -41 -70h-40v61q0 14 30 30z" />
    <glyph glyph-name="dollar" unicode="$" horiz-adv-x="711" 
d="M395 702l46 6q231 -116 234 -127q-85 -160 -85 -177q0 -7 113 -71q-111 -231 -149 -276q-28 -7 -99 -15l15 -157l-168 -31l-13 170q-16 -1 -32 -3q-130 66 -255 163q99 152 99 170q-85 38 -85 50q124 269 170 269l50 7l-13 153l158 15zM328 224q-134 81 -170 81
q-57 -84 -57 -107q149 -100 149 -106q49 4 89 8l17 -172h64l-15 177q121 13 121 22q0 13 85 178q-134 66 -235 121l-8 90q1 1 2 1q135 -78 156 -78q41 72 50 121l-156 78q-33 -4 -62 -8l-17 188l-69 -19l17 -180q-110 -21 -110 -52q-71 -118 -71 -142q97 -40 209 -98z" />
    <glyph glyph-name="percent" unicode="%" horiz-adv-x="786" 
d="M217 708h9q11 0 143 -142q48 79 98 116h35q49 0 152 -116v-53q-41 -57 -133 -161v-9q160 -53 160 -98q0 -232 -107 -232q-91 -9 -143 -9h-9q-66 57 -89 116h-9l-124 -133h-36q-54 0 -134 89v53l160 214q-169 0 -169 134q-16 0 -18 89v36q0 43 214 106zM200 655
q0 -18 -143 -71q28 -169 53 -169l152 -19q45 123 45 152q-6 0 -107 107zM83 103q39 -25 81 -63q29 19 437 499v9q-15 0 -107 80q-19 -10 -411 -525zM208 557l18 -27v-27q-4 -18 -44 -35q-36 51 -36 71q45 18 62 18zM458 308q-89 -113 -89 -134q71 -104 71 -116q152 0 152 36
q17 28 17 142q-76 43 -151 72zM485 218h17q44 -23 45 -35v-9q-21 -45 -45 -45q-40 17 -44 36q27 41 27 53z" />
    <glyph glyph-name="ampersand" unicode="&#x26;" horiz-adv-x="771" 
d="M340 708h26q158 -56 232 -133v-27q0 -45 -9 -133q125 -31 125 -63v-53l-36 -54q36 -39 36 -44v-36q-23 -105 -80 -152h-54l-36 27q-46 -44 -62 -44q-410 19 -410 53q-62 169 -62 205v36q47 62 80 62q-36 24 -36 250q47 44 286 106zM117 566q0 -187 53 -187l18 -27
q0 -7 -125 -89q65 -187 89 -187q50 0 321 -27q34 68 63 80q5 -20 71 -53l54 107q-22 0 -72 53q13 1 72 98q-63 27 -170 27q-13 -36 -27 -36h-8q-13 0 -27 27q107 55 107 107q8 61 8 98q-178 98 -204 98q-151 -47 -223 -89zM286 539q116 -15 116 -36v-17q-42 -54 -89 -54
q-54 34 -54 45zM295 281h9q83 -63 98 -63v-27q0 -17 -18 -17h-89q-36 12 -36 80z" />
    <glyph glyph-name="quotesingle" unicode="'" horiz-adv-x="326" 
d="M101 680l-86 -322q96 -21 186 -28q157 266 157 293q-241 65 -257 65v-8zM151 616q98 -29 114 -29v-7q0 -41 -107 -186h-7q-53 0 -57 22q29 126 57 200z" />
    <glyph glyph-name="parenleft" unicode="(" horiz-adv-x="509" 
d="M467 54l2 -4q-155 -43 -166 -43q-239 126 -239 168q-14 131 -21 330q40 60 231 218q19 -4 37 -8l1 -7l20 2l44 -208l-29 -97l5 -40l-6 38l-9 4q-7 -56 -13 -70l5 -52l53 -27l119 -176zM286 646h-4l-169 -162q5 -301 35 -301q78 -57 162 -106q21 5 40 10q34 9 61 17
l-148 137l12 28q-22 29 -22 40q6 140 30 169z" />
    <glyph glyph-name="parenright" unicode=")" horiz-adv-x="509" 
d="M43 82l119 176l53 27l6 52q-7 14 -13 70l-10 -4l-5 -38l5 40l-30 97l45 208l19 -2l1 7q18 4 37 8q191 -158 231 -218q-6 -199 -21 -330q0 -42 -238 -168q-12 0 -167 43l2 4zM262 478q23 -29 29 -169q0 -11 -22 -40l12 -28l-148 -137q28 -8 62 -17q19 -5 40 -10
q83 49 161 106q31 0 35 301l-168 162h-4z" />
    <glyph glyph-name="asterisk" unicode="*" horiz-adv-x="500" 
d="M188 721h9q195 0 195 -68q89 0 110 -169v-17q-34 -27 -43 -111q-116 -85 -144 -85q-23 0 -50 18q0 -13 -26 -26h-42q-66 45 -136 128v16l8 43q-25 0 -42 34v8q47 178 85 178h42q0 38 34 51zM205 670v-8l8 -77h-8q-20 0 -68 35h-8q-43 -107 -43 -119q85 -22 85 -43
q-12 0 -51 -51v-8q11 0 102 -76q0 40 51 76q34 -51 34 -68h8l102 76q-12 0 -51 51v9q76 8 76 25q-8 49 -33 111q-7 0 -76 -34q0 8 -9 8l9 60v16q-97 17 -128 17z" />
    <glyph glyph-name="plus" unicode="+" horiz-adv-x="566" 
d="M156 655h7q144 0 275 -22q-14 -93 -14 -123h102q14 -2 14 -14q-7 -232 -29 -232h-101l7 -73v-43l-7 -15q-85 8 -123 8h-131q-14 0 -14 14q0 33 14 116l-36 -7h-73q-14 0 -14 14q0 37 7 232l15 29l108 -14l-7 36v94zM221 590q8 -101 8 -131q-8 0 -8 -7l-109 15
q-14 -102 -14 -138l51 7h65l15 -7q-15 -93 -15 -123h130v130h8q36 0 108 -7l8 51v65h-36q-80 0 -80 22v109q-15 5 -131 14z" />
    <glyph glyph-name="comma" unicode="," horiz-adv-x="308" 
d="M62 235l-86 -322q96 -21 186 -28q157 266 157 293q-241 64 -257 64v-7zM112 170q97 -28 114 -28v-7q0 -42 -107 -186h-7q-53 0 -57 21q28 127 57 200z" />
    <glyph glyph-name="hyphen" unicode="-" horiz-adv-x="497" 
d="M31 401v-7q0 -243 29 -243l386 15q12 39 21 221l-28 7q-281 7 -408 7zM103 344q96 -7 143 -7h157v-57q0 -31 -14 -57q-143 -8 -215 -8h-57q-10 0 -21 22v93z" />
    <glyph glyph-name="hyphen" unicode="&#xad;" horiz-adv-x="497" 
d="M31 401v-7q0 -243 29 -243l386 15q12 39 21 221l-28 7q-281 7 -408 7zM103 344q96 -7 143 -7h157v-57q0 -31 -14 -57q-143 -8 -215 -8h-57q-10 0 -21 22v93z" />
    <glyph glyph-name="period" unicode="." horiz-adv-x="276" 
d="M21 241q14 -163 14 -243h7q214 0 214 36q15 63 15 172v6l7 15q-39 7 -257 14zM99 177h100l14 -8q0 -106 -57 -106h-50q-16 0 -21 106z" />
    <glyph glyph-name="slash" unicode="/" horiz-adv-x="498" 
d="M275 743l-293 -708q179 -64 207 -64h8q322 597 322 651q-219 121 -244 121zM318 657q110 -54 122 -78q-215 -439 -286 -537q-51 11 -86 36q228 568 250 579z" />
    <glyph glyph-name="zero" unicode="0" horiz-adv-x="672" 
d="M274 723q295 -66 295 -91l92 -225q-97 -337 -119 -337q-226 -63 -239 -63q-239 126 -239 168q-14 131 -21 330q40 60 231 218zM282 646l-169 -162q5 -301 35 -301q78 -57 162 -106q203 47 203 91q56 180 77 232q-72 197 -105 197q-159 49 -203 49zM295 484q120 0 120 -49
q7 -122 7 -154q-80 -71 -84 -71h-14q-71 80 -71 99q8 175 42 175zM338 414q-7 -62 -14 -77q9 -35 21 -35l7 14v49l-7 49h-7z" />
    <glyph glyph-name="one" unicode="1" horiz-adv-x="672" 
d="M356 723q232 -29 232 -58q-33 -669 -58 -669h-7q-291 19 -291 37v7q0 43 37 254q-218 210 -218 254q285 175 305 175zM349 650q-195 -122 -197 -130q104 -117 117 -117q11 0 87 73q0 -7 7 -7q-29 -239 -58 -386q79 0 167 -14q15 77 44 552q-107 29 -167 29z" />
    <glyph glyph-name="two" unicode="2" horiz-adv-x="672" 
d="M254 723q295 -49 295 -70q113 -251 113 -267q-92 -60 -92 -70h14l36 7l6 -14q-30 -281 -49 -281q-244 0 -498 14q-35 137 -35 204q140 105 140 112q-182 139 -182 147q239 218 252 218zM261 646l-147 -134v-7q57 -52 134 -98q50 75 84 98h7q9 0 56 -56v-14
q0 -8 -281 -225q14 -105 28 -105q241 -7 309 -7l49 -7q49 11 49 148l-224 -29v8q43 45 252 196q-70 197 -112 197q-143 35 -204 35z" />
    <glyph glyph-name="three" unicode="3" horiz-adv-x="673" 
d="M251 730q294 -52 294 -77q120 -215 120 -232q-91 -77 -91 -84q11 0 63 -85v-13q-101 -160 -161 -218q-324 0 -324 70q-39 31 -140 155l155 126l-162 133q196 189 246 225zM258 653q-141 -135 -141 -141v-13q24 -12 134 -92q1 18 98 113q37 -26 70 -78v-7q-70 -77 -91 -77
l84 -98q-23 -40 -98 -64q-72 125 -85 127q-89 -53 -119 -92q119 -126 127 -126q117 -7 182 -7v-7q49 0 105 105q6 0 36 50l-71 105v7q8 17 92 77q-80 183 -120 183q-154 35 -203 35z" />
    <glyph glyph-name="four" unicode="4" horiz-adv-x="672" 
d="M304 737q156 -91 245 -161v-8l-42 -48v-15h50q9 0 21 -21v-56l-8 -14h8q62 7 77 7l7 -14q0 -253 -42 -253q-78 0 -78 -35q0 -98 -21 -98q-273 19 -273 42q14 60 14 70q-14 0 -14 7l-84 -7h-85q-18 0 -70 204q228 333 295 400zM86 330q23 -120 42 -120h197q14 -2 14 -14
q0 -39 -14 -84l14 -7h14q39 0 98 -7q30 0 35 112l14 8h78q0 37 13 126h-13l-71 -7l-7 14v7l7 84q-31 0 -112 14q-28 -127 -49 -133h-105v14q135 146 203 231l-119 78h-7q-20 -20 -232 -316z" />
    <glyph glyph-name="five" unicode="5" horiz-adv-x="672" 
d="M159 723q484 -40 484 -63q0 -15 -57 -253q38 -8 64 -63q-59 -274 -77 -274q-223 -63 -246 -63h-7q-35 0 -302 140v7q0 27 106 176l-57 56q72 337 92 337zM201 639q-29 -98 -56 -232l119 -105q81 35 105 35q63 -70 63 -77q0 -21 -105 -71q-112 99 -147 99
q-64 -81 -64 -113l197 -105q217 52 217 77q43 140 43 190l-141 112q-33 0 -147 -21q0 7 -7 7q0 6 49 91q196 -49 203 -49q29 101 29 134q-142 28 -358 28z" />
    <glyph glyph-name="six" unicode="6" horiz-adv-x="672" 
d="M348 732l274 -161v-14q-47 -57 -71 -57q51 -88 127 -252q-82 -197 -134 -197q-128 -42 -224 -56q-260 102 -260 133q-21 180 -21 253q220 269 309 351zM355 648q-36 -49 -253 -288q19 -217 49 -217l183 -78q210 52 210 70q0 17 57 113q-50 95 -85 182q-125 -14 -161 -14
v7q154 126 154 134q-149 91 -154 91zM348 332h35q56 -55 56 -77q-52 -83 -70 -91q-105 64 -105 84q34 84 84 84z" />
    <glyph glyph-name="seven" unicode="7" horiz-adv-x="672" 
d="M120 697q507 -29 507 -51q44 -165 44 -195q-152 -166 -152 -203q-27 -261 -44 -261q-108 7 -355 51v7q0 21 167 348h-268q68 263 101 304zM164 625q-44 -125 -44 -153v-7q228 7 276 7q0 -7 7 -7q-181 -357 -181 -370q41 -14 202 -29q19 283 73 283q25 47 101 123
q-15 123 -65 123z" />
    <glyph glyph-name="eight" unicode="8" horiz-adv-x="672" 
d="M232 719q326 -40 326 -73q123 -229 123 -246q-84 -67 -101 -94v-8q43 -57 43 -72q-48 -196 -94 -196q-162 -51 -239 -65q-247 96 -247 130q-22 89 -36 181l80 73q-87 158 -87 181q211 189 232 189zM87 501q45 -79 87 -174q-87 -63 -87 -87q13 -145 80 -145
q128 -53 130 -57q217 52 217 87q29 70 29 101q-65 81 -65 101q43 28 116 94q-85 189 -123 189q-205 29 -225 36q-159 -125 -159 -145zM355 523h29q26 0 36 -94l-80 -66h-14q-63 61 -73 95q29 65 102 65zM326 291q7 0 72 -80q-36 -65 -79 -65h-7q-56 0 -80 87z" />
    <glyph glyph-name="nine" unicode="9" horiz-adv-x="672" 
d="M192 711q285 0 348 -79q3 0 130 -116q-61 -312 -87 -312q-205 -246 -224 -246q-226 111 -232 130l80 101v8h-8l-72 -8q-130 269 -130 290q150 206 195 232zM214 639q0 -4 -138 -167l87 -210q98 8 145 8h36q15 -3 15 -15q-130 -148 -130 -152q92 -51 130 -51
q195 216 195 261q0 20 37 174q-127 138 -189 138zM330 516q36 0 87 -44q-5 -109 -29 -109h-65q-66 0 -66 95q24 33 73 58z" />
    <glyph glyph-name="colon" unicode=":" horiz-adv-x="311" 
d="M62 472q218 0 218 -35q0 -182 -35 -182q-95 -7 -162 -7h-14q-18 0 -28 217q14 7 21 7zM104 409v-21l7 -70h91l7 70v14l-35 7h-70zM62 212h105q113 0 113 -21q0 -189 -43 -189q-78 -7 -140 -7h-28q-14 0 -14 14q-7 118 -7 182v8q2 13 14 13zM111 156v-91h91l7 84h-14z" />
    <glyph glyph-name="semicolon" unicode=";" horiz-adv-x="345" 
d="M74 235l-86 -322q96 -21 186 -28q157 266 157 293q-241 64 -257 64v-7zM124 170q97 -28 114 -28v-7q0 -42 -107 -186h-7q-53 0 -58 21q29 127 58 200zM64 500q14 -164 14 -243h7q215 0 215 35q14 64 14 172v7l7 14q-39 8 -257 15zM143 436h100l14 -8q0 -107 -57 -107h-50
q-17 0 -22 107z" />
    <glyph glyph-name="semicolon" unicode="&#x37e;" horiz-adv-x="345" 
d="M74 235l-86 -322q96 -21 186 -28q157 266 157 293q-241 64 -257 64v-7zM124 170q97 -28 114 -28v-7q0 -42 -107 -186h-7q-53 0 -58 21q29 127 58 200zM64 500q14 -164 14 -243h7q215 0 215 35q14 64 14 172v7l7 14q-39 8 -257 15zM143 436h100l14 -8q0 -107 -57 -107h-50
q-17 0 -22 107z" />
    <glyph glyph-name="less" unicode="&#x3c;" horiz-adv-x="495" 
d="M397 674q-368 -145 -368 -213q-9 -74 -9 -164q0 -41 387 -223h29q48 0 48 223v19q-27 49 -58 49v19q43 0 58 39v213q0 15 -38 38h-49zM87 461l339 155v-174q-133 -48 -155 -48v-29q117 -35 155 -78q-9 -121 -9 -145h-10q-305 161 -329 193q9 67 9 107v19z" />
    <glyph glyph-name="equal" unicode="=" horiz-adv-x="491" 
d="M103 331q96 -3 143 -3h157v-28q0 -15 -14 -27q-143 -4 -215 -4h-57q-10 0 -21 11v44zM31 378v-5q0 -152 29 -152l386 9q12 25 21 139l-28 4q-281 5 -408 5zM103 498q96 -3 143 -3h157v-29q0 -16 -14 -30q-143 -4 -215 -4h-57q-10 0 -21 12v47zM31 542v-4q0 -153 29 -153
l386 10q12 24 21 138l-28 5q-281 4 -408 4z" />
    <glyph glyph-name="greater" unicode="&#x3e;" horiz-adv-x="495" 
d="M59 674h48q368 -145 368 -213q9 -74 9 -164q0 -41 -386 -223h-30q-48 0 -48 223v19q28 49 58 49v19q-42 0 -58 39v213q0 15 39 38zM78 616v-174q133 -48 155 -48v-29q-117 -35 -155 -78q10 -121 10 -145h10q304 161 329 193q-10 67 -10 107v19z" />
    <glyph glyph-name="question" unicode="?" horiz-adv-x="713" 
d="M181 711q413 -40 413 -65q101 -256 101 -304q-17 -15 -217 -72v-138q0 -30 7 -80q-10 -51 -22 -51q-290 22 -290 37q29 157 36 232q0 51 -86 86q-131 82 -131 102q44 80 181 253h8zM202 639l-123 -174q16 -5 130 -72q50 97 73 115h44q115 0 115 -29l8 -36
q-122 -50 -167 -50v-123q117 -8 131 -8v36q0 35 195 80q-50 217 -94 217q-204 37 -312 44zM275 204q-15 -85 -15 -109l145 -21l8 29q0 4 -8 94l-36 7h-94z" />
    <glyph glyph-name="at" unicode="@" horiz-adv-x="545" 
d="M345 764q83 -53 98 -53q51 0 61 -31q0 -15 -23 -15v-7q54 0 54 -23v-23q0 -319 -183 -319v-15h68l16 -8q-84 -144 -167 -144l-8 -15h15v-16q-7 -22 -46 -22h-52q0 -31 -76 -38q-63 -105 -107 -130h-15q-15 0 -15 16q53 43 106 121v16q0 22 -23 60l15 8q-15 28 -15 61v15
l15 23q-15 96 -15 121q0 30 46 30l-8 54v23q0 78 92 159q30 -16 30 -38h7l-7 53v38q17 37 61 68h7l38 -45q-15 57 -15 61q25 15 46 15zM330 543q-102 -212 -115 -212h-7q0 11 -38 84h-15v-8q45 -76 45 -99q-60 -167 -60 -175q10 0 136 243q45 39 175 54q0 15 -23 15
q-32 0 -144 -46v8q0 26 53 129v7h-7zM170 536v-8q53 -88 53 -113h7v23q-35 94 -60 98zM345 491v-8h7q68 15 129 23v7h-38q-16 0 -98 -22z" />
    <glyph glyph-name="A" unicode="A" horiz-adv-x="669" 
d="M163 639q355 -34 355 -73q159 -495 159 -528q0 -19 -304 -44q-15 27 -36 116h-7q-12 -3 -51 -116h-8q-282 48 -282 72q87 310 174 573zM213 559q-43 -118 -137 -449q47 -15 152 -36q0 108 138 108h29l36 -116q16 8 159 22q-113 403 -145 442zM322 421h15q24 0 43 -130
l-14 -7h-44q-20 0 -43 14q21 123 43 123z" />
    <glyph glyph-name="B" unicode="B" horiz-adv-x="690" 
d="M429 695q189 -138 238 -191q-50 -134 -61 -143q68 -87 68 -109q-111 -225 -150 -225l-422 -27q-20 84 -88 613q110 27 415 82zM88 552l69 -477q361 10 361 41q59 93 75 136l-62 96q55 139 55 142q-161 123 -184 123q-80 0 -314 -61zM286 490q136 -21 136 -47
q0 -89 -129 -89q-21 24 -21 82v41q2 13 14 13zM422 293l7 -14v-68q0 -23 -122 -34q-21 27 -21 95q0 14 136 21z" />
    <glyph glyph-name="C" unicode="C" horiz-adv-x="691" 
d="M392 707q242 -81 269 -113q0 -18 -93 -212q107 -173 128 -226q-200 -121 -290 -156q-305 86 -318 106l-85 339q149 205 177 205q186 57 212 57zM81 424q58 -282 92 -282q223 -64 226 -71q201 99 205 113q-62 117 -78 120l-106 -78q-141 24 -141 64q-8 60 -8 99
q12 34 114 99q94 -57 127 -57q56 109 56 134q-95 43 -183 71q-226 -48 -226 -106q-9 0 -78 -106zM342 339v-6q0 -20 71 -29l57 56v8q-72 35 -85 35q-43 -25 -43 -64z" />
    <glyph glyph-name="D" unicode="D" horiz-adv-x="691" 
d="M367 707q315 -174 319 -184q-22 -339 -64 -339q-123 -135 -149 -135q-316 -28 -368 -28q-14 41 -91 601q118 43 353 85zM91 573q50 -372 78 -481q198 21 283 21q149 110 149 247q6 69 6 135l-254 141q-136 -28 -262 -63zM296 474q163 -46 163 -64q0 -184 -106 -184
q0 -14 -42 -14q-15 53 -29 255zM367 382l-7 -14v-43q2 -14 15 -14q14 53 14 57z" />
    <glyph glyph-name="E" unicode="E" horiz-adv-x="688" 
d="M113 700q500 -56 560 -80q-51 -296 -72 -296l-40 8l-8 -16q56 -30 56 -48q0 -64 32 -264q-16 -8 -24 -8q-101 0 -520 24q-88 231 -88 272q76 408 104 408zM161 604q-40 -139 -72 -304q41 -200 88 -200q33 -8 376 -24q-16 90 -16 144h-8q-77 -16 -216 -16l-16 24v40
q2 16 16 16q134 -16 152 -16q0 29 24 112l-40 8h-128q-16 0 -16 16q9 64 40 64q151 -40 208 -40q24 88 24 136h-8q-263 40 -408 40z" />
    <glyph glyph-name="F" unicode="F" horiz-adv-x="603" 
d="M586 721l8 -14v-184q0 -92 -22 -92h-35v-56q0 -163 -21 -163h-21q-37 0 -120 7v-21q0 -46 6 -141q-75 -15 -268 -29q-21 0 -99 622q455 71 572 71zM92 587q28 -240 70 -481q124 7 149 7v7q-7 78 -7 134v29l7 14l148 -14l7 14v113q-129 -14 -162 -14q-14 27 -14 78v7
q2 14 14 14h219v155q-409 -49 -431 -56v-7z" />
    <glyph glyph-name="G" unicode="G" horiz-adv-x="723" 
d="M399 721q253 -83 255 -99l-50 -141h7l43 7h14q14 -2 14 -14q14 -315 14 -347q-281 -106 -332 -120q-275 92 -283 113q-78 282 -78 318q128 227 177 227q120 35 219 56zM81 403q48 -261 106 -261q155 -57 184 -57l254 85q-7 141 -7 212q0 28 -14 28q-22 0 -233 -14l-7 -36
v-49l7 -35l106 35q14 -28 14 -49q-66 -36 -106 -36q-106 31 -106 57v134q72 85 92 85l134 -49h7q50 119 50 134v7q-16 0 -170 56q-233 -52 -233 -91q-78 -122 -78 -156z" />
    <glyph glyph-name="H" unicode="H" horiz-adv-x="753" 
d="M331 705q14 -9 35 -205l14 -7h7v7q0 107 -14 169q0 29 331 29q7 -14 7 -22q0 -89 -7 -627q-57 -21 -232 -21h-21q-20 0 -29 183h-21q0 -19 15 -162q-184 -49 -261 -49q-22 0 -92 409q-12 0 -49 239q20 7 317 57zM458 613q7 -116 7 -176q-23 -14 -155 -21q-15 39 -36 204
q-169 -24 -169 -35q85 -507 106 -507q14 6 127 21l-14 148q32 31 148 63q14 -10 35 -211h7q96 6 120 6v522z" />
    <glyph glyph-name="I" unicode="I" horiz-adv-x="443" 
d="M93 710q295 -48 360 -80q-107 -608 -128 -608q-192 -24 -280 -24q0 8 -8 8l8 40q18 664 48 664zM149 614q-24 -479 -32 -536q160 0 160 48q80 395 80 456h-8q-152 32 -200 32z" />
    <glyph glyph-name="J" unicode="J" horiz-adv-x="678" 
d="M277 705q361 0 361 -41v-476q-209 -188 -246 -188q-303 46 -303 106q-98 183 -98 206v7l286 148q36 -148 50 -148h8q-8 82 -74 377zM351 623v-9q66 -312 66 -336q-104 -57 -156 -57q-16 33 -25 139q-36 0 -155 -82q77 -163 114 -163q165 -33 181 -41q62 29 196 155
q-8 282 -8 385l-16 9h-197z" />
    <glyph glyph-name="K" unicode="K" horiz-adv-x="750" 
d="M441 750q217 -126 274 -186q-161 -175 -161 -193q175 -116 201 -153v-9q-60 -70 -234 -201h-23l-89 89h-8l8 -56q0 -20 -299 -41q-24 102 -96 677q49 16 330 32l8 -16v-48h8q66 105 81 105zM449 645l-137 -202h-16q-9 186 -41 186q-103 0 -161 -16q16 -143 73 -524h32
q41 0 121 8v8q-8 141 -8 169h8q14 -1 194 -177l129 121q-146 105 -194 153v16l153 169v8q-135 81 -153 81z" />
    <glyph glyph-name="L" unicode="L" horiz-adv-x="630" 
d="M346 686l7 -14q7 -220 7 -290q0 -35 15 -35l219 63l7 -14v-134q0 -61 -7 -191q0 -12 -489 -43q-16 0 -91 616q60 21 332 42zM91 587q29 -268 71 -488q303 21 361 35q7 12 7 29v141q0 14 -14 14q-52 -21 -212 -64q-14 31 -14 114v233l-8 14z" />
    <glyph glyph-name="M" unicode="M" horiz-adv-x="795" 
d="M219 701q220 0 220 -56q9 -50 21 -50q0 23 43 71q212 -20 212 -57q64 -461 71 -567q0 -21 -319 -35l-7 14v177l-57 -49h-7l-49 57q-54 -178 -71 -185q-283 123 -283 149q177 458 226 531zM255 624q-170 -390 -170 -433q30 -21 156 -78q77 235 77 248h22q54 -102 71 -106
q11 0 106 92l7 -14v-255q179 10 184 21q-42 421 -71 475q-39 14 -113 14q-78 -130 -92 -135q-21 41 -50 163q-98 8 -127 8z" />
    <glyph glyph-name="N" unicode="N" horiz-adv-x="743" 
d="M693 708l8 -14v-581q0 -24 -234 -85q-66 91 -85 99v-6l7 -71q-30 -19 -269 -36q-29 77 -106 581q233 92 283 92q78 -120 85 -120v14q0 4 -7 92q43 14 318 35zM453 609q0 -89 14 -262l-14 -7q-21 49 -192 269q-150 -49 -162 -49q0 -83 70 -468h7q74 0 142 14l-28 220h7
q190 -213 205 -213l135 36v481q-184 -6 -184 -21z" />
    <glyph glyph-name="O" unicode="O" horiz-adv-x="693" 
d="M214 652q305 -25 305 -57q148 -155 148 -177q-25 -312 -56 -312q-239 -106 -262 -106q-284 88 -284 127q-56 271 -56 298zM250 581q-15 -10 -170 -185q47 -247 64 -247l205 -78q219 82 219 113q29 164 29 234q-133 135 -156 135zM391 432q66 -95 71 -127l-99 -93
q-106 24 -106 71q-7 45 -7 99q48 34 141 50zM320 333v-21q0 -6 22 -21q35 11 35 42l-21 14h-22q-14 -2 -14 -14z" />
    <glyph glyph-name="P" unicode="P" horiz-adv-x="634" 
d="M403 715q171 -107 241 -170v-6q-34 -270 -92 -270q-26 -35 -113 -92q-61 7 -92 7v-120q0 -24 -277 -36q-11 0 -56 631q37 14 389 56zM92 602q7 -213 35 -496h99q57 0 57 43v99q2 14 14 14l120 -14q135 75 135 170l21 99l-184 128q-76 -7 -297 -43zM283 524
q120 -34 120 -49q0 -121 -70 -121l-50 -7l-7 14v149z" />
    <glyph glyph-name="Q" unicode="Q" horiz-adv-x="796" 
d="M213 703h31q319 0 319 -54q64 -48 164 -148v-70q0 -170 -16 -249q67 -23 93 -62q-232 -203 -264 -203q0 16 -78 94l-39 -23q-335 89 -335 124q-54 168 -85 319q93 140 210 272zM236 633q-155 -199 -155 -225q54 -280 116 -280l210 -55h8l47 31h16q7 0 77 -85
q75 44 125 101q-95 47 -101 70q39 47 62 47q7 105 7 155v78q-64 75 -170 155q-189 8 -242 8zM415 485q26 -12 94 -124v-23q-86 -109 -109 -109q-132 16 -132 101v93q0 17 147 62zM337 354q0 -15 39 -47q32 10 47 39q0 26 -23 54q-63 -17 -63 -46z" />
    <glyph glyph-name="R" unicode="R" horiz-adv-x="705" 
d="M420 715q241 -155 241 -184q-37 -240 -92 -240v-8q138 -107 149 -127v-7q-252 -142 -298 -142q-17 0 -49 78h-7q0 -43 -72 -43q-148 -14 -205 -14q-17 0 -56 624q47 28 389 63zM108 595q0 -127 36 -489h134q14 0 14 15v155h8l141 -184q38 0 163 78q-141 115 -141 121
q99 67 99 113q21 75 21 113l-177 128q-259 -29 -298 -50zM314 517q106 -26 106 -50q0 -106 -42 -106q-15 -7 -78 -14l-8 14v142q0 14 22 14z" />
    <glyph glyph-name="S" unicode="S" horiz-adv-x="711" 
d="M441 708q231 -116 234 -127q-85 -160 -85 -177q0 -7 113 -71q-111 -231 -149 -276q-59 -15 -297 -36q-130 66 -255 163q99 152 99 170q-85 38 -85 50q124 269 170 269zM108 425q125 -51 276 -134q-37 -70 -49 -71q-140 85 -177 85q-57 -84 -57 -107q149 -100 149 -106
q276 21 276 35q0 13 85 178q-168 83 -283 148q19 48 42 64q135 -78 156 -78q41 72 50 121l-156 78q-241 -26 -241 -71q-71 -118 -71 -142z" />
    <glyph glyph-name="T" unicode="T" horiz-adv-x="701" 
d="M661 694q23 -13 28 -269q-47 -14 -170 -35l57 -333q-35 -15 -333 -36l-7 15v311q-151 -21 -185 -21q-11 0 -28 326q0 14 638 42zM101 595q0 -7 -7 -7q9 -122 21 -184q149 21 177 21l7 -14v-71q0 -163 14 -241q178 7 178 22l-50 325q17 14 177 29v6q-7 96 -7 143h-7z" />
    <glyph glyph-name="U" unicode="U" horiz-adv-x="756" 
d="M61 685q342 -25 342 -46l-38 -311h23q25 0 30 273q15 8 23 8q304 -47 304 -76q-48 -380 -84 -380q-106 -122 -114 -122h-349q-59 41 -167 160q15 494 30 494zM122 601v-7q0 -36 -16 -388q11 -2 115 -99h296q129 105 129 289q15 0 15 91q-35 15 -167 38q-15 -266 -46 -266
q-132 -15 -159 -15l-8 15q31 253 31 327h-8q-115 15 -182 15z" />
    <glyph glyph-name="V" unicode="V" horiz-adv-x="759" 
d="M341 746q20 -30 69 -205h7q0 70 31 144q342 -48 342 -76q-171 -540 -198 -570l-304 -23q-252 461 -288 547q311 183 341 183zM98 525q228 -424 228 -433q228 11 228 38q137 405 137 441q-84 15 -198 15q-45 -289 -68 -289q-110 310 -129 342q-198 -89 -198 -114z" />
    <glyph glyph-name="W" unicode="W" horiz-adv-x="890" 
d="M383 746l7 -16v-144l8 -91l68 68q6 0 69 -84q24 183 38 183q298 -70 326 -106v-8q-156 -509 -182 -509q-58 -15 -251 -31q-17 21 -30 76h-8q0 -30 -38 -53q-273 15 -273 61l-122 585q38 23 388 69zM86 624q91 -501 114 -501q54 0 168 -16q57 122 75 122l77 -137
q159 5 159 15q129 394 129 418q-153 38 -190 38q0 -20 -53 -266h-15q-63 120 -92 144q0 -3 -113 -128h-8l-23 349z" />
    <glyph glyph-name="X" unicode="X" horiz-adv-x="766" 
d="M477 715q269 -149 269 -185q0 -14 -135 -152q160 -119 160 -126q-91 -111 -210 -218q-31 0 -143 92q-12 0 -118 -126q-51 0 -260 185v8l117 143l-159 135v17q103 113 227 210h25q97 -109 126 -109q89 126 101 126zM376 496h-8l-127 127h-16q-29 0 -143 -144
q140 -117 159 -117q0 -27 -117 -169v-8q120 -109 168 -109q99 134 109 134h9l134 -109q52 28 135 143q0 13 -152 126v8l135 143q-90 99 -160 110h-17z" />
    <glyph glyph-name="Y" unicode="Y" horiz-adv-x="792" 
d="M358 723q19 0 62 -192q6 0 107 161l293 -153v-16q-77 -91 -277 -300q15 -191 15 -215q-15 -8 -23 -8q-338 5 -338 31q0 22 38 215q-8 1 -246 362q327 115 369 115zM104 569l208 -315l-31 -170h8l185 -15q0 8 7 8l-7 92v77q74 88 238 262v8q-56 21 -162 84
q-126 -198 -138 -200h-16q-76 234 -76 239q-126 -31 -216 -70z" />
    <glyph glyph-name="Z" unicode="Z" horiz-adv-x="690" 
d="M576 705q39 -77 87 -262q-92 -64 -119 -103h8q81 32 103 32l8 -16v-301q0 -26 -578 -55q-18 0 -40 214q11 0 151 150h-16l-159 -31l-7 15v317q0 24 562 40zM489 625q-162 0 -412 -16v-190q253 48 277 48l8 -16l-245 -269l15 -103q51 0 451 32v158q0 16 -15 16l-237 -56
l-9 17l254 229q-32 118 -64 158q-15 -8 -23 -8z" />
    <glyph glyph-name="bracketleft" unicode="[" horiz-adv-x="827" 
d="M133 517l8 -48v-27q0 -95 -59 -176q0 -39 77 -91q74 107 232 107q231 -31 231 -111q42 0 75 90q-50 109 -50 190v18l8 56q-104 145 -248 145h-25q-157 0 -249 -153zM200 162v-21q0 -116 198 -116q182 0 182 125v4q-67 78 -190 78q-114 0 -190 -70zM382 695h25
q156 0 274 -164q48 -43 43 -269q-43 -116 -127 -116q0 84 -208 112q-143 0 -223 -116q-108 71 -108 132q-12 157 50 248q103 173 274 173zM365 669h59q107 0 156 -165v-21q-41 -165 -148 -165h-76q-100 0 -147 167q40 184 156 184zM390 257q134 0 214 -94v-13
q0 -150 -206 -150q-222 0 -222 141v31q90 85 214 85zM352 184v-53l-11 -53h-46l-10 71v10q0 26 25 67q42 -22 42 -42zM503 159v-28l-10 -53h-45l-11 53v57l23 36q43 -12 43 -65z" />
    <glyph glyph-name="backslash" unicode="\" horiz-adv-x="498" 
d="M-18 622q0 -54 322 -651h8q28 0 207 64l-293 708q-25 0 -244 -121zM433 78q-35 -25 -86 -36q-71 98 -286 537q12 24 122 78q22 -11 250 -579z" />
    <glyph glyph-name="bracketright" unicode="]" horiz-adv-x="725" 
d="M321 642q-205 -48 -205 -191v-23q52 -184 260 -184h17q245 35 245 207v9q0 25 -7 36q-78 154 -254 154zM165 468v-33q0 -126 212 -149q181 0 219 150v15q0 127 -220 157h-23q-188 -43 -188 -140zM190 451q0 -119 186 -148q187 29 187 140v15q-25 125 -193 125
q-180 -32 -180 -132zM240 450v-6q22 -99 128 -99h25q95 0 128 106q-35 98 -128 98h-33q-99 0 -120 -99zM331 518v4h17v-105q0 -28 -29 -28h-36l-10 71l6 30h8q-10 -2 -22 -32q0 -87 111 -87q85 0 112 65q-6 54 -20 54h6l6 -30l-10 -71h-30q-34 18 -34 37v71l16 25v-4l-30 5
h-31zM91 164v-30q52 -92 195 -92h4v-10q-107 94 -174 94v42h45q54 0 129 -56v-2q-48 84 -110 84zM463 103v8q82 57 145 57h29v-39q-110 -27 -174 -96v9h5q173 0 201 116q-37 20 -95 36q-67 0 -111 -91zM372 180v-151q0 -5 4 -5q5 0 5 5v152q0 4 -6 5q-2 0 -3 -6zM376 675
q192 0 276 -167q10 -17 10 -48v-9q0 -193 -268 -231h-18q-227 0 -285 204v27q0 162 225 215zM351 632h26q244 -33 244 -181v-18q-44 -171 -245 -171q-235 25 -235 173v33q0 117 210 164zM367 607q191 0 221 -146v-18q0 -131 -212 -165q-210 33 -210 173q0 120 201 156z
M360 573h33q110 0 154 -121q-41 -131 -154 -131h-25q-125 0 -153 120v12q26 120 145 120zM359 548h36l52 -11v-22l-17 -25v-64q0 -5 16 -13h3l7 46l-11 55h23q35 0 46 -81q-36 -87 -138 -87q-136 0 -136 116q20 47 44 52h25l-11 -55l7 -46h14q4 0 4 4v81h-16v39zM176 219
q80 0 138 -102v-53q-107 80 -153 80h-20v7q51 0 173 -108v-26h-28q-157 0 -220 110v55zM577 219q65 -18 120 -49q-37 -153 -229 -153h-29v25q75 82 174 106v-4h-5q-55 0 -169 -79v43q52 111 138 111zM377 210q28 -4 28 -29v-152q0 -29 -29 -29q-28 0 -28 29v153q4 28 29 28z
" />
    <glyph glyph-name="asciicircum" unicode="^" horiz-adv-x="752" 
d="M323 726q284 0 327 -137q76 -115 76 -281q0 -263 -205 -380q-98 -15 -182 -15h-16q-233 0 -303 342v106q0 224 235 357zM88 331v-30q42 -320 228 -320q194 0 243 327v15q0 226 -198 327l-45 8q-228 -73 -228 -327zM430 650q152 -129 152 -319v-30q0 -174 -144 -312h22
q126 0 183 259q7 41 7 60q0 276 -182 342h-38zM301 604h30q175 -52 175 -273v-30q-34 -266 -183 -266h-30q-120 0 -167 258v30q35 281 175 281zM171 301q0 -191 160 -236q119 0 152 251q0 212 -152 258h-15q-104 0 -137 -220q-8 -10 -8 -53zM293 513h83q16 -2 16 -15v-365
q0 -15 -16 -15h-83q-15 0 -15 15v365q2 15 15 15zM331 491v-251q0 -99 23 -99h7l8 76v274h-38z" />
    <glyph glyph-name="underscore" unicode="_" horiz-adv-x="500" 
d="M71 47l27 -108h303l40 75zM152 128l357 -61l-88 -189l-377 -6l-27 236z" />
    <glyph glyph-name="grave" unicode="`" horiz-adv-x="723" 
d="M154 775q149 125 239 157q173 -229 173 -264q-16 -2 -16 -16q3 -10 -118 -85zM286 775q0 -11 124 -107q52 22 57 41q-92 115 -99 116h-16q-66 -39 -66 -50z" />
    <glyph glyph-name="a" unicode="a" horiz-adv-x="646" 
d="M146 566q357 -22 357 -68q115 -96 129 -122q-53 -154 -53 -189l76 -152q-185 -61 -274 -61h-7q-23 30 -39 30q-30 0 -197 -38q-129 264 -129 312q25 0 114 281q15 7 23 7zM176 491l-38 -137h8q113 15 235 15v-31q0 -39 -23 -45l-113 23q-138 -63 -138 -91q0 -13 69 -175
q156 38 198 38h15q23 0 23 -30q58 0 129 22q0 21 -46 107l53 174q-94 114 -258 114q0 12 -114 16zM282 232h23q56 0 61 -23q0 -47 -53 -76h-16q-18 0 -30 84q3 15 15 15z" />
    <glyph glyph-name="b" unicode="b" horiz-adv-x="685" 
d="M326 696q12 -33 28 -166h8q87 29 109 29h7q23 -15 203 -218q-125 -318 -138 -319h-7q-296 -22 -443 -22q-18 0 -79 639q190 57 312 57zM93 588q46 -515 66 -515h7q78 0 174 29q51 0 160 -8l94 225q-18 40 -138 153h-7l-159 -44h-8v8q-7 181 -22 181zM413 341q0 -7 7 -7
l-22 -138h-14q-88 0 -88 87v22q0 22 117 36z" />
    <glyph glyph-name="c" unicode="c" horiz-adv-x="658" 
d="M261 589q334 -71 334 -91q-61 -152 -61 -167v-8l145 -190q-65 -63 -266 -175q-319 65 -319 100q-84 262 -84 296q242 235 251 235zM86 331q71 -243 91 -243q193 -38 220 -53q129 72 175 113q-69 103 -91 115l-106 -99h-8q-91 77 -91 99q38 85 61 91h7q87 -31 99 -31
q54 113 54 137q-204 40 -206 46q-12 0 -205 -175z" />
    <glyph glyph-name="d" unicode="d" horiz-adv-x="651" 
d="M252 695h8q313 -26 313 -46q15 -61 69 -596q-12 -15 -283 -53q-9 38 -23 38q-107 -30 -152 -30q-184 232 -184 259q127 240 146 245h129q-23 99 -23 183zM329 611q23 -124 23 -176l-16 -7q-46 0 -160 15q-92 -166 -92 -191q127 -168 145 -168l168 46q5 -46 31 -46
q41 0 137 23l-7 15q-32 481 -61 481q-35 0 -168 8zM268 321h91q23 -8 23 -46v-31q-7 -19 -76 -61q-23 28 -54 130z" />
    <glyph glyph-name="e" unicode="e" horiz-adv-x="633" 
d="M336 521q84 -35 293 -146q-46 -238 -76 -238h-8v-7q0 -13 42 -111q0 -17 -320 -56q-115 52 -251 161q34 306 70 306q210 91 250 91zM93 145l181 -112q190 28 216 28v7q0 7 -42 104q-28 0 -118 -55q-84 69 -84 76v14h265q14 0 42 140q-89 34 -223 104q-209 -65 -209 -97
q-28 -167 -28 -209zM315 354q84 -21 84 -56q-7 -42 -21 -42q-118 14 -118 35q0 17 55 63z" />
    <glyph glyph-name="f" unicode="f" horiz-adv-x="529" 
d="M257 700q256 -42 256 -62q-13 -99 -13 -139q0 -136 13 -256q-22 -14 -41 -14h-56q28 -155 28 -194q-218 -49 -277 -49q-12 23 -35 201q-11 -8 -69 -14q-23 0 -49 270q26 15 56 15h27v13q-14 102 -14 111q116 93 174 118zM257 631l-97 -84q21 -97 21 -138q0 -10 -21 -21
h-63v-34q0 -45 14 -98q14 0 83 14q14 -60 28 -201q139 0 139 35q-7 97 -28 180q23 14 42 14h55v76l-7 49q-62 -14 -90 -14l-7 14v69l7 14l76 -35q21 56 21 104v21z" />
    <glyph glyph-name="g" unicode="g" horiz-adv-x="605" 
d="M264 527q291 -5 291 -28q34 -360 34 -492l7 -28l-221 -152h-7q-278 89 -278 111v6q39 69 49 70q-27 54 -139 242q125 217 160 250l97 -21q0 31 7 42zM340 451v-42q0 -14 -14 -14q-119 28 -138 28q-49 -70 -105 -167q88 -159 105 -166q152 28 187 28q16 0 21 -35
q-21 -76 -42 -76l-111 56q-49 -84 -49 -105q146 -48 167 -48q35 14 159 104q-14 269 -35 429q-68 8 -104 8h-41zM250 298h55q63 0 63 -48v-21q0 -25 -97 -56q-35 67 -35 118z" />
    <glyph glyph-name="h" unicode="h" horiz-adv-x="651" 
d="M314 693q12 -41 35 -208h6q12 0 111 28q26 -12 160 -118q-40 -374 -63 -374q-202 -21 -235 -21q0 11 -28 28q-168 -28 -180 -28q-24 0 -77 381q-6 17 -48 250q87 27 319 62zM85 575q21 -199 83 -499q132 15 132 42q0 64 -14 180l14 7h76l14 -7l-14 -222h7q139 0 139 35
q0 37 28 249q-89 77 -97 77q-118 -42 -174 -42q0 26 -20 215q-95 -9 -174 -35z" />
    <glyph glyph-name="i" unicode="i" horiz-adv-x="392" 
d="M95 646q285 -46 285 -70q-26 -109 -48 -369q-38 -216 -49 -216h-35q-70 0 -209 7q0 7 -7 7q15 474 49 474v7q0 56 -7 132q10 28 21 28zM144 563v-7q0 -112 41 -112h91q21 63 21 83v15zM123 381l-21 -320h111l14 -7q21 57 56 306q-84 21 -154 21h-6z" />
    <glyph glyph-name="j" unicode="j" horiz-adv-x="416" 
d="M284 636h42q14 -2 14 -14v-112q0 -30 28 -70q21 -218 21 -413v-7q-44 -51 -266 -161q-122 182 -133 245q126 35 126 49v7q0 17 -70 280q28 14 42 14q-35 130 -35 147v14l7 14q150 7 224 7zM130 566v-7q14 -91 28 -91q112 9 112 28v77q-46 0 -140 -7zM130 377
q0 -15 63 -273q-110 -39 -112 -49l56 -105q19 0 189 98q-7 31 -21 343h-105q-70 -2 -70 -14z" />
    <glyph glyph-name="k" unicode="k" horiz-adv-x="638" 
d="M320 700q16 -18 24 -158l71 79q61 -42 196 -188v-16q-94 -85 -94 -95v-8q35 -3 118 -70v-16q-104 -139 -181 -205q-26 48 -71 48q0 -16 -259 -71q-40 98 -110 621q31 16 306 79zM92 574q50 -402 87 -480l126 24l-8 79v31q2 16 16 16q88 -79 133 -110q60 49 87 94v8
q-71 30 -118 78v8l94 102q0 21 -94 95l-118 -126q-16 0 -40 212q-25 0 -165 -31z" />
    <glyph glyph-name="l" unicode="l" horiz-adv-x="393" 
d="M7 710q323 -20 323 -43q21 -293 36 -617q-95 -29 -273 -50q-21 76 -100 696q14 0 14 14zM79 624q59 -538 79 -538q33 0 129 21q-15 448 -29 510q-84 7 -122 7h-57z" />
    <glyph glyph-name="m" unicode="m" horiz-adv-x="783" 
d="M514 531q263 -103 263 -135q-21 -354 -45 -354q-110 -22 -248 -37q0 15 -15 15q-115 -22 -136 -30l-29 15q-150 -45 -173 -45q-98 331 -128 489q232 67 301 67q11 -30 22 -30q0 10 38 38h7l75 -53zM454 374q-73 60 -90 60q-57 -76 -98 -76l-8 76q-165 -22 -165 -38
q0 -34 83 -346h7q30 0 136 38l-30 165q27 23 52 23q15 -15 38 -196q120 10 120 30q-7 98 -7 158q0 12 52 30l8 -15v-195h7q121 0 121 37q22 128 22 233q7 0 7 8q-103 56 -172 75h-8z" />
    <glyph glyph-name="n" unicode="n" horiz-adv-x="628" 
d="M403 472q191 -105 196 -118q-8 -349 -42 -349q-199 -21 -230 -21q-7 14 -7 21q-192 -56 -209 -56q-35 72 -105 453q18 14 293 63q16 -42 21 -42q74 49 83 49zM271 305q-21 0 -21 76h-7q-153 -13 -153 -42q53 -306 70 -306h7q8 0 118 35q-14 82 -14 160q14 14 91 35
q13 -25 21 -209q132 0 132 49q7 33 14 223q-14 0 -126 69z" />
    <glyph glyph-name="o" unicode="o" horiz-adv-x="598" 
d="M246 514q241 -69 265 -133l90 -118q-61 -265 -98 -265q-239 -56 -257 -56q-216 123 -216 147q-14 153 -14 258q195 146 230 167zM246 437q0 -5 -161 -125q0 -216 36 -216q126 -77 146 -77q216 30 216 63q0 14 41 167q-99 153 -160 153zM253 284q125 -27 125 -49
q-35 -98 -55 -98q-84 9 -84 29v104q2 14 14 14z" />
    <glyph glyph-name="p" unicode="p" horiz-adv-x="652" 
d="M318 513l22 -53q115 31 144 31q173 -223 173 -241q-136 -243 -151 -250h-7q-40 0 -128 8v-8q7 -132 7 -158q-14 -7 -23 -7q-68 0 -248 7q-68 333 -98 596q279 75 309 75zM84 377q30 -210 76 -467h135v83l-7 90q14 8 23 8q12 0 158 -15q98 153 98 189q-116 151 -121 151
q-99 -23 -166 -46q-22 35 -22 61q-174 -35 -174 -54zM416 302l7 -15q-28 -128 -52 -128q-91 0 -99 68v30q23 45 144 45z" />
    <glyph glyph-name="q" unicode="q" horiz-adv-x="670" 
d="M307 506q294 -7 294 -46q60 -532 60 -580q-30 -15 -271 -53q-35 189 -53 189l-151 -38q-181 221 -188 256q116 213 143 249q104 -15 135 -15q8 38 31 38zM359 423q0 -23 -15 -23h-60q-38 0 -113 8q-90 -149 -90 -174q55 -95 127 -173l189 45q14 0 38 -189q143 0 143 31
q0 36 -45 475h-174zM330 302h37q15 -2 15 -15v-68q-50 -60 -90 -60q-53 62 -53 128v8z" />
    <glyph glyph-name="r" unicode="r" horiz-adv-x="564" 
d="M358 527h7q165 -89 196 -132q-94 -207 -133 -265q-69 63 -76 63h-7q-8 -36 -8 -42q8 -122 8 -146q-180 -42 -258 -42q-28 105 -84 467q29 20 314 49q11 31 41 48zM373 444q0 -4 -105 -118q-14 25 -14 55v21q-167 -15 -167 -27q41 -335 62 -335q126 11 126 28
q-7 105 -7 146l69 84h8q32 -29 62 -49q63 91 63 132q0 9 -97 63z" />
    <glyph glyph-name="s" unicode="s" horiz-adv-x="570" 
d="M382 503q177 -99 184 -113l-42 -128v-7l35 -14v-14q-72 -206 -113 -206q-118 -21 -248 -21q-46 0 -205 142v7q42 95 42 99q-17 0 -21 28q93 213 149 213q163 14 219 14zM170 425q-30 -40 -71 -128q159 -61 205 -99q-24 -49 -35 -49q-135 85 -163 85l-35 -71l120 -99
q160 14 234 14q0 8 56 128q-187 92 -191 113q14 32 28 35l135 -78q0 6 35 85q-120 72 -120 78q-118 -14 -198 -14z" />
    <glyph glyph-name="t" unicode="t" horiz-adv-x="528" 
d="M136 604q293 -41 293 -62l-14 -91l35 -7h49q13 -2 13 -14q-11 -258 -41 -258l-84 14v-49q0 -160 -21 -160q-265 14 -265 42v21q0 59 7 174h-97q7 192 7 265l14 7q28 0 90 -14v118q3 14 14 14zM199 521l-7 -14v-98q0 -14 -14 -14q-88 14 -97 14v-132h97v-21
q0 -115 -14 -195q60 0 146 -14l7 35v90q0 91 21 91q28 0 91 -14v7q0 37 14 125h-91q-14 0 -14 14q0 17 14 98q-16 14 -153 28z" />
    <glyph glyph-name="u" unicode="u" horiz-adv-x="648" 
d="M346 486h20q14 -3 14 -14v-28l-6 -14q271 -33 271 -49q-21 -156 -70 -383l-243 -35l-15 35q-68 -14 -118 -14q-167 124 -167 133q23 362 42 362q171 7 272 7zM102 137l125 -83q119 21 153 21q6 -28 14 -28q132 0 132 35l42 251q-85 14 -167 21l-14 -21v-147
q0 -14 -118 -41q0 6 -7 6l42 258l-49 7h-56q-76 0 -76 -35q0 -34 -21 -244z" />
    <glyph glyph-name="v" unicode="v" horiz-adv-x="600" 
d="M254 522q15 -14 49 -130h7q8 89 27 89q268 -29 268 -55q-135 -393 -151 -399q-184 -27 -234 -27q-220 341 -220 378zM90 343q77 -142 172 -274q164 14 164 48l90 268q-13 7 -138 20q-21 -50 -48 -172h-20l-83 193q-88 -40 -137 -83z" />
    <glyph glyph-name="w" unicode="w" horiz-adv-x="711" 
d="M298 550q29 -77 29 -150h14q0 21 29 36q22 -24 22 -36h14q7 92 14 107q286 -11 286 -35q-78 -429 -101 -429q-104 -29 -185 -29q-14 0 -14 36q-6 0 -36 -50h-136q-86 0 -129 179q-11 9 -106 264q79 52 299 107zM99 393q109 -314 135 -314q28 -8 58 -8h42q35 122 50 122
q72 -107 79 -107q100 9 100 42q14 46 57 287l-15 6h-128l-21 -164h-7l-79 64q-57 -78 -64 -78q-53 205 -65 214q-142 -34 -142 -64z" />
    <glyph glyph-name="x" unicode="x" horiz-adv-x="609" 
d="M361 552q181 -98 222 -145q-90 -106 -90 -125q89 -65 111 -76q0 -36 -181 -214h-6q-76 69 -84 69h-7q-39 -90 -62 -90q-174 112 -236 173v7l91 97v14q-86 49 -104 76v41l159 166h7l104 -83h7q44 90 69 90zM375 469q-74 -104 -83 -104q-95 91 -118 91q-83 -83 -83 -104h7
q88 -58 117 -98l-96 -103q84 -62 131 -90q60 97 69 97h7l91 -76q11 1 96 104l-111 89v14l91 111z" />
    <glyph glyph-name="y" unicode="y" horiz-adv-x="617" 
d="M349 517q15 -3 15 -16v-37q250 -48 250 -68q-90 -409 -121 -409q-175 -113 -220 -113q-264 50 -264 76l83 166q-30 0 -68 45q33 348 53 348q169 8 272 8zM122 441q-15 -88 -15 -257q16 0 136 -60q64 22 83 22l8 -15q-43 -83 -61 -90q-14 0 -121 52v-7q-45 -69 -45 -99
q133 -37 174 -37q189 81 189 196q23 41 53 204q-77 30 -136 30q-35 -158 -53 -158l-91 -8q0 8 -8 8l38 227h-23q-39 0 -128 -8z" />
    <glyph glyph-name="z" unicode="z" horiz-adv-x="531" 
d="M420 507q83 -172 83 -193l-12 -32q6 -30 31 -231q-17 -12 -423 -51q-38 67 -96 481v7l13 6q100 0 404 13zM74 423l25 -153h6q113 38 129 38v-6q-101 -129 -109 -148l13 -83l314 32v6q-19 118 -26 135l-109 -39l-6 13l122 109q-26 49 -52 116q-185 -8 -307 -20z" />
    <glyph glyph-name="braceleft" unicode="{" horiz-adv-x="750" 
d="M335 569v-7q11 -21 20 -21h16q-80 -202 -103 -297h-25q0 28 -125 147l8 61v7q-2 15 -37 30q-29 0 -44 -31v-22q12 -30 49 -30q56 -338 71 -338h422q16 0 61 274q0 49 59 95v22q-4 15 -38 30q-32 0 -44 -38l9 -52l-136 -155h-14q-59 200 -102 285q35 22 35 32v8
q0 44 -38 55q-44 0 -44 -55zM383 648q58 -17 58 -79v-8q0 -24 -27 -41q34 -66 92 -267h-32l133 154l-7 46q19 60 74 60q51 -22 57 -51v-37q-58 -46 -58 -85q-50 -297 -86 -297h-422q-36 0 -92 338q-32 0 -52 50v33q24 49 73 49q51 -22 57 -52v-11l-7 -50q123 -117 123 -147
h-22q22 94 95 278v0q-8 -15 -29 25v13q0 79 72 79z" />
    <glyph glyph-name="bar" unicode="|" horiz-adv-x="400" 
d="M254 680l-7 -653h-57q-31 0 -57 14l-8 625q0 10 22 21h93zM311 752h-7q-243 0 -243 -29l15 -739q39 -12 221 -21l7 28q7 634 7 761z" />
    <glyph glyph-name="braceright" unicode="}" horiz-adv-x="927" 
d="M454 501v-50q0 -24 -19 -24h-21q-17 0 -19 24v50h59zM542 501v-50q0 -24 -19 -24h-21q-16 0 -19 24v50h59zM467 340q71 0 92 -90v-128q0 -24 -24 -24h-148v186q11 34 80 56zM265 281v-91h-61v91h61zM311 281h41v-91h-41q-17 0 -20 24v43q0 20 20 24zM625 281q20 0 20 -24
v-42q0 -25 -20 -25h-40v91h40zM732 281v-91h-61v91h61zM302 645v-73l50 -59v-64q-17 -19 -17 -55h-36l-33 42h-11l-9 -4l6 -13q0 -25 -24 -25h-40q0 42 -10 42h-8q-8 0 -9 -11v-58q0 -18 33 -18v-65h-48v24q-10 0 -10 -24h-24q-27 0 -30 24q-10 9 -12 -1v-81q27 -38 41 -38
q0 -28 -7 -41q7 -13 7 -33v-24q-41 -6 -41 -19v-17q0 -9 9 -9h779q9 0 9 9v17q0 13 -41 19v24q0 20 7 33l-7 16q0 19 41 63v90l-10 -8q0 -24 -32 -24q-18 0 -27 24q-7 0 -7 -24h-48v65q33 0 33 18v59q0 8 -10 10h-8q-9 0 -9 -42h-41q-20 0 -24 24l7 14l-9 4h-12l-32 -42h-36
q0 36 -17 55v61q0 8 50 62v74q0 7 -10 9h-16q-8 0 -9 -10v-49h-48v50q0 7 -10 9h-32q-8 0 -10 -10v-49h-64v50q0 7 -10 9h-32q-8 0 -9 -10v-49h-48v50q0 7 -10 9h-16q-7 0 -9 -10zM762 320q11 -6 12 -1q0 2 1 4q3 6 13 10q9 4 23 4l9 -24q15 -10 15 24h24q30 -5 30 -29v-89
q-41 -44 -41 -52l9 -20q-9 -17 -9 -33v-7q41 -6 41 -36v-17q0 -29 -31 -29h-779q-31 0 -31 29v17q0 30 41 36v7q0 16 -9 33v22q6 0 4 1q-7 10 -36 50v88q4 29 31 29h22q3 -24 6 -31l3 -3l4 10v-4q1 25 30 12q22 -9 24 -13v5h4v17q-33 0 -33 37v59q4 29 31 29h8q31 0 31 -42
q18 -2 11 23l-2 4l13 6l18 9h28l29 -38l7 6q0 1 2 8q4 11 15 24v52l-50 59v80q4 29 31 29h18q30 -5 30 -29v-30h9v31q-5 28 26 28h34q30 -5 30 -29v-30h21v30q4 29 31 29h34q30 -5 30 -29v-30h9v31q-8 28 26 28h18q30 -5 30 -29v-80q-64 -71 -51 -124l10 3q8 -9 8 -22h10
l25 32h29l30 -16l-4 -8l1 -8l12 -10q0 42 31 42h10q30 -5 30 -29v-59q0 -36 -27 -37h-6z" />
    <glyph glyph-name="asciitilde" unicode="~" horiz-adv-x="1249" 
d="M189 463h783q81 0 122 -68q16 -30 16 -63q0 -66 -57 -107q-37 -23 -82 -23h-781q-83 0 -125 70q-14 29 -14 61q0 53 40 93q40 37 98 37zM84 332q0 -59 55 -88q23 -10 46 -10h790q56 0 88 46q14 24 14 53q0 58 -55 88q-25 10 -48 10h-787q-59 0 -91 -50q-12 -23 -12 -49z
M1015 403q18 0 24 -19v-4v-1q0 -21 -24 -25q-18 0 -24 20l-1 5q0 17 18 23q3 1 7 1zM995 378q0 -17 21 -19q16 0 19 20q-3 20 -19 20h-2q-15 0 -19 -18v-3zM157 394h37l53 -85v84l1 1h36q1 0 1 -1v-121q0 -1 -1 -1h-36q-3 2 -46 73l-8 13v-85q0 -1 -1 -1h-36q-1 0 -1 1v121
q0 1 1 1zM307 394h35q1 0 1 -1v-23q0 -1 -1 -1h-35q-1 0 -1 1v23q0 1 1 1zM852 394h34q1 0 1 -1v-121q0 -1 -1 -1h-34q-1 0 -1 1v4h-1q-12 -7 -23 -7q-28 0 -42 29q-2 8 -2 15v1q0 23 25 38q9 5 19 5t24 -8v44q0 1 1 1zM1007 393h8q11 0 11 -8v-1q-2 -7 -7 -7v0l7 -11v-1h-4
q-1 1 -7 12h-5v-11q0 -1 -1 -1h-2q-1 0 -1 1v26q0 1 1 1zM1010 389v-8h8q3 0 3 2v4q0 2 -6 2h-5zM493 381h34q2 0 2 -1v-15h19q1 0 1 -1v-10q0 -1 -1 -1h-19v-81q0 -1 -2 -1h-34q-2 0 -2 1v81h-19q-1 0 -1 1v10l1 1h19v15q1 1 2 1zM954 359q34 0 50 -31q3 -7 3 -14v-2
q0 -30 -37 -43q-8 -2 -17 -2q-33 0 -50 29q-3 6 -4 17q0 29 36 43q11 3 19 3zM599 358q31 0 49 -27q4 -9 4 -19h-1h-68v-19q2 -16 16 -16q15 0 15 22l1 1h34l1 -1q-6 -17 -23 -26q-13 -6 -26 -6h-6q-27 0 -45 23q-7 12 -7 22q0 28 34 42q10 4 22 4zM428 357h5q19 0 33 -19
q5 -9 5 -22v-44q0 -1 -1 -1h-34q-1 0 -1 1v49q0 14 -11 18q-1 0 -6 1q-18 -3 -18 -14v-54q0 -1 -1 -1h-35q-1 0 -1 1v80l1 1h35q1 0 1 -1v-7q15 12 28 12zM728 357h5q20 0 34 -21q5 -9 5 -23v-41q0 -1 -2 -1h-34q-2 0 -2 1v54q0 11 -16 14q-12 0 -17 -13q-1 -3 -1 -6
q0 -14 1 -49l-1 -1h-35q-1 0 -1 1v80q0 1 1 1h35q1 0 1 -1v-7q14 12 27 12zM307 353h35q1 0 1 -1v-80q0 -1 -1 -1h-35q-1 0 -1 1v80q0 1 1 1zM938 324v-25q0 -18 10 -21l4 -1h1q11 0 14 12q1 2 1 5v37q-2 18 -15 18q-15 0 -15 -25zM583 331v-6h31v2q0 21 -16 21
q-10 0 -14 -12q-1 -3 -1 -5zM822 328v-31q0 -10 8 -13q3 -1 7 -2q12 0 14 15v32q-2 14 -13 14h-3q-13 -2 -13 -15z" />
    <glyph glyph-name="exclamdown" unicode="&#xa1;" horiz-adv-x="328" 
d="M91 444q228 0 228 -33l-27 -216q7 -90 7 -154v-155q0 -13 -13 -13q-241 43 -276 67q61 289 61 416v75q0 13 20 13zM125 384v-7q6 -84 6 -87l34 -7h67q16 0 27 87q-84 14 -134 14zM125 215q-34 -123 -34 -241l148 -34v175q0 33 -7 100h-107z" />
    <glyph glyph-name="currency" unicode="&#xa4;" horiz-adv-x="770" 
d="M650 404l44 -56l-58 -270l-249 -111l-301 128l-31 295l63 49l-56 21l-26 147l128 125l118 -43l127 83l149 -103l136 4l64 -185zM444 329l-13 -100l-98 -14l-39 69l58 62zM140 134l246 -104l198 88l46 220l-100 126l-217 56l-198 -151zM97 593l16 -89l94 -34l85 65l-10 99
l-104 37zM310 558l88 -47l88 19l35 100l-113 78l-101 -65zM540 617l-32 -112l89 -67l93 73l-38 110z" />
    <glyph glyph-name="dieresis" unicode="&#xa8;" horiz-adv-x="528" 
d="M330 763q5 -107 22 -107h50q57 0 57 107l-15 8h-100zM67 804q5 -107 22 -107h49q57 0 57 107l-14 7h-100zM3 875q218 -7 257 -14l-7 -14v-7q0 -109 -15 -172q0 -8 -17 -34l-197 22q-11 97 -21 219zM266 835q218 -7 257 -15l-7 -14v-7q0 -108 -14 -172q0 -25 -113 -32
l-109 -9q-2 111 -14 249z" />
    <glyph glyph-name="copyright" unicode="&#xa9;" horiz-adv-x="1550" 
d="M1349 244q-1 0 -3 -1.5t-2 -3.5q-13 -20 -24 -32.5t-37 -12.5h-17.5t-16.5 5q3 0 9.5 0.5t13.5 1.5t13.5 2t8.5 2q22 5 29.5 20.5t15.5 34.5l-2 2l-2 2q-2 1 -7 3t-11 5t-11 5t-6 3q-3 1 -12.5 5t-13.5 10q1 0 3.5 0.5t4.5 0.5q1 0 1.5 -0.5t2.5 -0.5h3q3 0 15.5 -5
t15.5 -5h1h4q-2 0 -3 2t-2 3q-2 1 -8 5.5t-12.5 9.5t-13 9t-7.5 5l-6.5 6.5t-12.5 12t-14.5 13t-11.5 9.5q-2 2 -7 6t-5 10h7q2 -2 7 -6.5t10.5 -9.5t10.5 -9.5t7 -5.5q1 -1 8 -6t16 -11.5l18 -13t14 -9.5q2 -2 8 -6t7 -4q2 0 7.5 4t6.5 6q0 4 0.5 15.5t0.5 14.5q0 24 -5 44
t-16 41q0 1 -2.5 5.5t-5 9.5t-4.5 9.5t-3 5.5v6q9 0 13.5 -10t7.5 -15q1 -3 4 -10t6.5 -14.5t6 -13.5t3.5 -8q8 -20 8.5 -38.5t1.5 -41.5l4 -5q1 4 4.5 13t6.5 19.5t6 19.5t4 13q0 1 0.5 5.5t1.5 9.5t1.5 9.5t0.5 5.5q1 2 3 3t2 2v-10q0 -28 -9 -51t-9 -48q12 0 26 3t26 10
t21 17t11 24q0 -1 0.5 -5t0.5 -5q0 -15 -7.5 -24t-18 -14.5t-23.5 -9t-23 -7.5q0 -1 -2 -2.5t-2 -2.5q17 -10 36.5 -20t33.5 -25q14 -16 27 -29t13 -34v-7q-4 11 -12.5 23t-19 23.5t-22.5 21.5t-22 16l-2 1l-2 -1q0 -5 -1.5 -13t-5 -15t-8.5 -12t-13 -5t-18 7t-15 14v-5
q0 -36 12 -69t33 -61l-1 -2q-2 0 -3 1q-1 0 -1 1q-15 10 -25.5 30t-16.5 43.5t-8 47t0 38.5zM309 295q-7 8 -12 18t-6 22q4 1 8 3q8 4 8 7v110l-30 35v5q2 0 9.5 0.5t10.5 0.5q2 0 8.5 0.5t14 1.5t14 1.5t8.5 0.5q4 0 15.5 0.5t24 1t24 0.5h16.5q0 -6 -2 -19t-5.5 -26
t-7.5 -22.5t-8 -9.5h-2q-2 5 -7.5 15.5t-13.5 14.5q0 1 -3.5 -1t-5.5 -2v-107q3 -1 14.5 -3t15.5 -2q3 -1 8 -2.5t7 -2.5v-2v-3q-11 -17 -19 -23.5t-28 -11.5v-193q-17 0 -23 12q-4 6 -9.5 17t-11 21.5t-9 18t-3.5 8.5v116zM999 120q3 3 10 9.5t15 14.5t15 15.5t9 10.5
q3 3 7 8t8.5 11t7.5 12t3 11t-3 7.5t-3 8.5t6.5 11t14.5 11t14.5 13.5t6.5 16.5q0 5 -5.5 13t-10.5 12q-3 3 -9.5 8t-14 10.5t-13.5 10t-9 6.5q-1 0 -4 2t-5 3q-2 0 -8 2t-8 3l-12.5 12.5t-11.5 13.5q-1 0 -1.5 3t-0.5 4q0 2 0.5 4.5t1.5 2.5q2 2 9.5 4.5t10.5 0.5l80 80
q8 9 21.5 9t23.5 6q0 1 4.5 5.5t5.5 4.5q2 1 8 2t8 1q0 -20 -7 -40t-14 -38h-3q-6 0 -11.5 10.5t-10.5 14.5l-56 -60q8 -9 18.5 -16.5t21 -14.5t20.5 -15t16 -19q0 -2 2 -7.5t3 -7.5q1 -3 5 -12.5t6 -12.5l-86 -125q-2 -2 -9 -10t-11 -10q-1 -1 -5 -3t-5 -3
q-13 -11 -20.5 -18.5t-24.5 -7.5v12zM642 445q-4 10 -4.5 16t-0.5 14v11q5 -5 9 -5.5t10 -0.5q5 0 7 2.5t3.5 5.5t3 5.5t5.5 2.5h3l10 -10l45 -146q2 -10 10 -15q2 1 5.5 4.5t4.5 5.5v2v3q-6 26 -8 47t-2 48v51q5 -5 10 -5.5t11 -0.5q7 0 11.5 3t8.5 7t8.5 7t12.5 3
q0 -11 -1.5 -21.5t-8.5 -18.5v-332q-8 0 -12 2.5t-6 6.5t-3.5 10t-5.5 13q-6 11 -16.5 26t-18.5 23q-2 5 -6.5 18t-9 27.5t-9 27.5t-6.5 18q-2 8 -6 18.5t-11 16.5v-212q-8 0 -12 6q-7 11 -12.5 24.5t-13.5 25.5q-1 1 -1.5 2.5t-1.5 3.5l-2 4v256zM886 431q-11 6 -13 9.5
t-10 14.5q-2 2 -6.5 7.5l-9 11t-9 10t-5.5 6.5v6h146v-16q0 -2 -10 -11t-15 -14q-2 -1 -9 -3t-10 -2v-328q-9 0 -13.5 5t-6.5 11.5t-3 14t-4 12.5q-2 4 -10.5 15t-11.5 15v236zM572 498q1 0 8.5 -12.5t11.5 -19.5l3 -6t3 -5v-1v-4q0 -11 -1 -39.5t-2 -60.5t-2 -60.5
t-1 -39.5l-11 -11t-16.5 -17t-16.5 -16.5t-11 -10.5q-1 -1 -5 -4l-8 -6t-7.5 -6t-3.5 -4l-10.5 -10.5l-10.5 -10.5h-4q-6 0 -10.5 4.5t-7.5 10.5t-5 12t-3 8q0 1 -2 3t-2 3q-2 2 -4 5.5t-2 4.5v255q0 10 4 14.5t9.5 7.5t11.5 6t9 10h86zM507 218q7 0 14 6.5t12.5 16t9 19
t4.5 15.5q0 9 1 31t2 46.5t1.5 47t0.5 31.5v10q0 14 -9 17t-20 3q-2 0 -8 -0.5t-8 -0.5v-242zM1259 300q0 -3 -2 -3t-3 3q0 2 2.5 2t2.5 -2zM1219 385q4 0 4 -4.5t-4 -4.5q-3 0 -3 4.5t3 4.5zM1204 475h30q0 -2 -2 -4.5t-3 -4.5q0 -3 -1 -11t-2 -17t-1.5 -16.5t-0.5 -10.5
q-3 2 -6 6t-3 8q-1 2 -2 8.5t-1.5 14t-1.5 14t-1 8.5zM1242 477q11 0 14.5 -3.5t7.5 -13.5q2 7 7 13t13 6v-68h-5q-2 8 -8 16.5t-14 13.5v-30q-5 1 -8.5 5.5t-3.5 8.5q-1 3 -1.5 10t-1 15.5t-0.5 16v10.5zM853 496q4 0 4 -5t-4 -5t-4 5t4 5zM665 702q-5 4 -8.5 11.5
t-3.5 15.5v3q1 0 4.5 1.5t5.5 2.5v100l-30 36h115l5 -5v-1q0 -1 0.5 -1.5t0.5 -1.5l-1 -1q-6 -8 -15 -16.5t-20 -9.5v-100q5 0 18 -2t17 -2q1 -2 2.5 -3.5t1.5 -2.5q-9 -14 -15 -21t-24 -9v-123h37v-3q0 -3 -2 -5q-6 -11 -10.5 -10t-14.5 -4q-2 -1 -7.5 -5.5t-7.5 -4.5
q-2 -1 -8 -0.5t-7 0.5q-2 -1 -10.5 -7.5t-9.5 -8.5h-3h-2q-2 2 -5 5.5t-3 4.5v167zM55 541q3 4 10.5 14.5t15.5 22.5l15 22.5t10 15.5q3 4 4 7t1.5 6t1.5 7t3 10t6 11.5t8.5 10.5t8 10.5t3.5 12.5q0 5 -6.5 12t-14.5 13.5t-17 12t-13 7.5q-2 1 -7.5 2.5t-7.5 2.5
q-4 2 -13.5 12t-11.5 13q-1 1 -1 2v3q0 7 8 15.5t13 4.5l55 61l15 6t10 14h55q-1 -3 -3 -11t-4 -17t-4 -17t-3 -11q-2 -2 -3 -5t-2 -5h-3h-3q-2 2 -5.5 7.5t-4.5 7.5q-1 0 -1 1t-0.5 1t-0.5 1l-2 2q-3 -2 -8.5 -7.5t-12 -11.5t-12.5 -12l-8 -8q-1 -2 -3 -5.5t-2 -5.5v-2v-3
q12 -10 25 -18.5t23 -18t16.5 -21.5t6.5 -29v-9q-4 -5 -13 -18.5t-19.5 -28.5t-20 -28.5t-13.5 -18.5q-2 -2 -11 -12t-14 -14q-1 0 -5 -2t-5 -2q-10 -8 -16 -14.5t-20 -6.5v11zM1300 541q3 4 10 14.5t14.5 22.5t14.5 22.5t10 15.5q6 9 6 13t4 17q2 6 6.5 11.5t9 10.5
t7.5 10.5t3 12.5q0 5 -6 12t-14 13.5t-16.5 12t-13.5 7.5q-2 1 -8 2.5t-7 2.5q-2 1 -5.5 4.5t-8 7.5t-8 7.5t-4.5 5.5v5q0 7 7.5 15.5t12.5 4.5l55 61l15 6t10 14h56q-1 -3 -3.5 -11t-4.5 -17t-4 -17t-3 -11q0 -2 -2 -5t-3 -5h-3h-3q0 2 -4.5 7.5t-5.5 7.5q0 1 -1.5 3
t-2.5 2q-3 -2 -8.5 -7.5t-12 -11.5t-12.5 -12l-8 -8q0 -2 -2 -5.5t-2 -5.5v-2v-3q12 -10 24.5 -18.5t22.5 -18t16.5 -21.5t6.5 -29v-9q-3 -5 -12.5 -18.5t-20 -28.5t-20 -28.5t-13.5 -18.5q-2 -2 -11.5 -12t-13.5 -14l-9 -4q-11 -8 -16.5 -14.5t-18.5 -6.5v11zM788 842
q-2 0 -7.5 1.5t-7.5 2.5l-1 2v2q0 1 1 2l2 2l2 2q2 1 13 0.5t13 -0.5q2 1 12.5 3t12.5 3q2 0 8.5 1t14 2t14 1.5t8.5 0.5q1 0 3 2t2 3h2q7 0 13 -4.5t10.5 -11.5t7 -14t2.5 -13q0 -12 -4.5 -23t-10.5 -21.5t-10.5 -21t-4.5 -22.5v-9l61 -177h-11q-2 5 -9.5 16.5t-10.5 14.5
q-1 1 -9.5 7t-10.5 8l-5.5 5.5t-4.5 3.5q-14 29 -23 59.5t-29 56.5v-191h-8q-4 23 -14.5 40t-15.5 35v31q0 11 -0.5 39.5t-1.5 61t-2 61t-1 39.5zM495 842q-2 2 -6.5 7t-6.5 7q-1 0 -1 1v2q0 5 3 6.5t6.5 1.5t7 0.5t4.5 4.5h90l20 -30v-206l-3.5 -6t-8 -14t-10 -16t-8.5 -14
q-2 -4 -5.5 -9.5t-4.5 -5.5q-2 -2 -12.5 -3.5t-12.5 -2.5q-2 0 -10 -9t-10 -10h-3h-1q-3 10 -4 23.5t-3 26.5t-6.5 24t-14.5 16v206zM964 732l9 9q1 1 3 11t4 23.5t4.5 27.5t3.5 23v9q0 10 -2 17.5t-7 19.5h99q2 0 3.5 -2t2.5 -3q0 -2 2.5 -9.5t2.5 -11.5q1 -3 3 -16.5
t4.5 -28.5t5 -28t2.5 -16q1 -9 4 -12l5 -5l4 -4t2 -9q0 -11 -2.5 -18t-2.5 -18q0 -36 8 -71t8 -71q-12 0 -13 4t-8 12q-2 2 -10 10.5t-10 10.5q0 1 -2 6.5t-3 8.5t-3 13.5t-5 23.5t-5 23.5t-3 13.5q0 5 -2 13l-2 8h-45q-6 0 -9.5 -21.5t-7 -48t-7.5 -49.5t-12 -26
q-2 1 -4.5 11.5t-5 24t-5 26t-4.5 18.5v101zM243 836q-1 0 -5.5 2t-5.5 4q-2 2 -4 9.5t-2 10.5q4 -2 12.5 -1.5t8.5 8.5h105l24 -27v-85l-24 -25h-16l-5 -3.5t-11 -8t-12.5 -10t-10.5 -8.5q-2 -2 -5.5 -6t-4.5 -5q0 -3 -1 -11t-2 -16.5t-2 -16.5t-1 -11q0 -6 -3 -17.5
t-8 -23t-12 -19.5t-15 -8v268zM1204 616q-3 66 -18 122.5t-37 117.5v3h20q2 3 5 8t7 5q10 0 13.5 -15t6 -33t6 -33t12.5 -15q8 0 10 5v40q1 3 3 12.5t2 12.5q2 6 10 7t10 3q2 1 8 7.5t8 8.5q1 1 7.5 2t8.5 1q0 -17 -12 -33q-2 -9 -7.5 -31t-11 -47t-10.5 -47t-6 -31
q-1 -6 -2 -22.5t-1.5 -35t-1 -35t-0.5 -22.5l-2 -1h-2q-1 0 -1 1q-1 0 -3 1.5t-2 3.5q-3 5 -10.5 20t-9.5 20zM417 626q0 9 -1 32t-1.5 48.5t-1.5 48.5t-1 32q0 3 -0.5 10t-1.5 14.5t-2 14.5t-1 10q0 2 -2 8t-2 8q-1 1 -1 3q-1 1 -1 4q0 1 1 3.5t1 4.5q0 -2 3.5 -3.5
t5.5 -1.5l2 -1h2q1 0 1 1l3 3t2 4h30v-295q-6 0 -9.5 3.5t-5.5 9t-3 11t-3 8.5q0 3 -6 10.5t-8 9.5zM537 610q7 0 13 6t11 14t9 16.5t8 14.5v136q-5 10 -7.5 22.5t-2.5 22.5h-31v-232zM1019 741q3 -2 14.5 -5.5t14.5 -3.5q2 0 5.5 1t5.5 3v2q0 10 -4.5 24.5t-6.5 24.5
q0 3 -1.5 12.5t-3 20t-3 19.5t-1.5 13l-5 -6q-1 0 -3 -11.5t-4 -27.5t-4.5 -33t-3.5 -28v-3v-2zM287 743q5 0 13 3t16 8t14 10.5t6 11.5v60h-49v-93zM828 764q0 -7 2.5 -10t10.5 -3q4 0 11 9t14 21t12.5 23t5.5 15l-1 2l-5 5q0 2 -1 8t-1 8h-43q0 -4 -1 -13.5t-1.5 -19.5
t-1.5 -19.5t-1 -13.5v-12zM663 872q3 0 3 -5t-3 -5q-4 0 -4 5t4 5zM999 872q4 0 4 -5t-4 -5q-5 0 -5 5t5 5zM482 876q3 0 3 -4.5t-3 -4.5q-4 0 -4 4.5t4 4.5z" />
    <glyph glyph-name="registered" unicode="&#xae;" horiz-adv-x="1099" 
d="M326 276v-276h-276v276h276zM406 34v-34h-36v34h36zM487 38v40h40v79h-40v-76h-37v34h-42v-34h-38v36h38v42h39v80h-79v80h-160v39h-41v42h-117v37h115v42h-37v41h-39v42h119v77h39v-40h79v-37h-37v-42h-40v-39h40v39h79v121h40v80h39v37h-39v-34h-38v78h38v39h42v42h36
v35h-36v-33h-80v37h80v40h37v37h81v-37h-39v-79h-42v-42h-35v-37h35v37h42v42h41v39h79v77h80v-77h-80v-39h-37v-42h-81v-37h81v34h35v-117h-35v-37h-39v37h35v37h-38v-37h-41v-40h-39v-40h39v-76h41v34h79v80h80v-38h-38v-79h-39v-39h39v39h39v79h80v38h39v-80h-78v-79h-37
v-39h37v37h78v-81h-36v-77h39v40h39v37h80v42h41v39h37v-116h-37v34h-41v-36h-78v-120h40v39h38v37h38v-37h-38v-41h-38v-39h-40v-42h40v-38h35v-42h-77v-79h-81v-38h-36v38h36v40h39v79h-78v-79h-41v-78h-157v38h35v37h-38v-37h-83v-38h-35v38h35zM930 34v-34h-37v34h37z
M1049 34v-34h-34v34h34zM89 40h198v198h-198v-198zM649 40h42v38h38v39h-38v42h-39v80h39v161h78v36h-78v-34h-42v75h-37v-77h-42v-42h-83v-39h-35v-41h75v-39h-37v-39h80v38h38v-79h-35v-42h76v-77zM245 196v-115h-114v115h114zM1049 115v-34h-76v34h76zM734 200h115v116
h-115v-116zM1012 239v77h37v-116h-76v39h39zM807 276v-34h-33v34h33zM647 356v-37h-35v-39h-39v76h74zM125 356v-36h-75v36h75zM249 360h238v40h40v79h-40v39h-119v-39h-77v-42h35v-37h-77v-40zM211 402h34v34h-34v-34zM447 436v-34h-37v34h37zM573 481h35v78h-35v-78z
M854 562v37h37v42h42v38h35v-38h-33v-39h36v39h41v38h37v-114h-37v32h-41v-35h-38v-39h-42v39h-37zM410 565h76v34h-36v40h-40v-74zM88 679v-35h40v35h37v-77h-115v77h38zM366 679v-35h-75v35h75zM326 999v-275h-276v275h276zM490 724h37v34h-37v-34zM729 758v-34h-36v34h36
zM1049 999v-275h-275v275h275zM89 763h198v197h-198v-197zM813 763h196v197h-196v-197zM245 918v-114h-114v114h114zM729 880v-76h-36v76h36zM968 918v-114h-114v114h114zM447 999v-34h-77v34h77z" />
    <glyph glyph-name="questiondown" unicode="&#xbf;" horiz-adv-x="713" 
d="M507 -210q-413 40 -413 65q-102 256 -102 304q17 15 218 72v138q0 30 -7 80q9 51 21 51q290 -22 290 -37q-29 -157 -36 -232q0 -51 87 -86q130 -82 130 -102q-44 -80 -181 -253h-7zM485 -138l123 174q-16 5 -130 72q-50 -97 -73 -115h-43q-116 0 -116 28l-7 37
q121 50 166 50v123q-117 8 -130 8v-36q0 -35 -195 -80q50 -217 93 -217q205 -37 312 -44zM413 297q14 85 14 109l-145 21l-7 -29q0 -4 7 -94l36 -7h95z" />
    <glyph glyph-name="Agrave" unicode="&#xc0;" horiz-adv-x="723" 
d="M393 932q173 -229 173 -264q-16 -2 -16 -16q181 -548 181 -611q-175 -33 -330 -33q-27 116 -41 116h-16q-17 -85 -42 -124q-261 49 -313 74q157 561 198 627l49 -8h9q0 8 -91 82q149 125 239 157zM286 775q0 -11 124 -107q52 22 57 41q-92 115 -99 116h-16
q-66 -39 -66 -50zM236 619q-115 -339 -148 -495h8l157 -33q0 115 123 115h50q28 -115 50 -115q68 0 165 16q-91 309 -149 471zM352 470q58 -16 58 -148l-17 -9h-17q-65 0 -65 34q10 123 41 123z" />
    <glyph glyph-name="Aacute" unicode="&#xc1;" horiz-adv-x="726" 
d="M452 958q182 -167 191 -200v-18q-128 -58 -128 -73q85 0 100 -136q127 -407 145 -490q0 -15 -344 -45q-31 127 -46 127q-21 0 -45 -127h-18q-318 57 -318 81q182 635 218 635q121 153 245 246zM443 849q-118 -109 -118 -119q45 -29 45 -36q145 68 145 82v9q-20 34 -72 64
zM234 622l-145 -499h9q88 -28 145 -28h28q0 100 63 100q47 9 109 9q27 -36 27 -127h9l182 27q-119 404 -155 490q-213 28 -272 28zM361 477h18q31 0 46 -155l-19 -9q-66 7 -90 27q21 137 45 137z" />
    <glyph glyph-name="Adieresis" unicode="&#xc4;" horiz-adv-x="669" 
d="M213 559q-43 -118 -137 -449q47 -15 152 -36q0 108 138 108h29l36 -116q16 8 159 22q-113 403 -145 442zM322 421h15q24 0 43 -130l-14 -7h-44q-20 0 -43 14q21 123 43 123zM168 708q5 -93 20 -93h46q53 0 53 93l-13 6h-93zM399 693q5 -93 20 -93h46q54 0 54 93l-14 6
h-92zM333 620q9 -1 18 -3q-3 54 -10 130l-1 -1v-6q0 -72 -7 -120zM522 554q155 -484 155 -516q0 -19 -304 -44q-15 27 -36 116h-7q-12 -3 -51 -116h-8q-282 48 -282 72q74 264 148 493h-15q0 69 -14 212q203 -7 239 -13l-2 -3q197 -6 233 -13l-7 -12v-6q0 -94 -13 -149
q0 -13 -36 -21z" />
    <glyph glyph-name="AE" unicode="&#xc6;" horiz-adv-x="1230" 
d="M686 604q-40 -139 -72 -304q41 -200 88 -200q34 -8 376 -24q-16 90 -16 144h-8q-77 -16 -216 -16l-16 24v40q2 16 16 16q134 -16 152 -16q0 29 24 112l-40 8h-128q-16 0 -16 16q9 64 40 64q151 -40 208 -40q24 88 24 136h-8q-263 40 -408 40zM322 421h15q24 0 43 -130
l-14 -7h-44q-20 0 -43 14q21 123 43 123zM536 276q-67 225 -91 254l-232 29q-43 -118 -137 -449q47 -15 152 -36q0 108 138 108h29l36 -116q16 8 159 22q-13 47 -25 90q-23 67 -29 98zM622 21q-75 -13 -249 -27q-15 27 -36 116h-7q-12 -3 -51 -116h-8q-282 48 -282 72
q87 310 174 573q355 -34 355 -73q23 -72 43 -134q54 268 77 268q500 -56 560 -80q-51 -296 -72 -296l-40 8l-8 -16q56 -30 56 -48q0 -64 32 -264q-15 -8 -24 -8q-101 0 -520 24v1z" />
    <glyph glyph-name="Eacute" unicode="&#xc9;" horiz-adv-x="652" 
d="M421 932q22 0 198 -189q-4 -18 -132 -83v-8q174 -25 174 -42q-50 -280 -67 -280h-49v-25q58 0 58 -57l24 -231q-16 -9 -24 -9q-512 13 -512 41q-8 14 -82 248q86 404 107 404l99 -16l-25 33q88 88 231 214zM306 718q41 -37 41 -42l149 75v8q0 11 -75 74q-12 -1 -115 -115
zM157 602l-66 -305q43 -190 91 -190l363 -24q-17 95 -17 140h-8l-206 -17q-20 27 -25 74l17 9q33 0 148 -17q25 79 25 116h-157q-16 0 -16 25q11 57 33 57q107 -33 206 -33q25 75 25 124q-279 41 -413 41z" />
    <glyph glyph-name="Igrave" unicode="&#xcc;" horiz-adv-x="529" 
d="M216 614q-24 -479 -32 -536q160 0 160 48q80 395 80 456h-8q-152 32 -200 32zM161 794q0 -11 124 -106q53 21 57 41q-91 114 -99 115h-16q-66 -39 -66 -50zM418 661q73 -17 102 -31q-107 -608 -128 -608q-192 -24 -280 -24q0 8 -8 8l8 40q17 588 41 655l-124 93
q149 125 239 157q174 -229 174 -263q-17 -3 -17 -17q1 -3 -7 -10z" />
    <glyph glyph-name="Eth" unicode="&#xd0;" horiz-adv-x="691" 
d="M337 487q163 -46 163 -63q0 -184 -106 -184q0 -14 -43 -14q-14 52 -28 254zM408 396l-7 -15v-42q2 -14 14 -14q14 53 14 56zM76 481q-10 72 -22 155q119 42 354 85q315 -174 318 -184q-22 -340 -64 -340q-122 -134 -148 -134q-317 -28 -368 -28q-8 22 -35 202l-70 -1
l-27 236zM67 412l27 -108h78q22 -139 38 -199q198 22 283 22q148 110 148 247q7 68 7 135l-254 141q-137 -28 -262 -64q14 -101 25 -183z" />
    <glyph glyph-name="Odieresis" unicode="&#xd6;" horiz-adv-x="693" 
d="M320 333v-21q0 -6 22 -21q35 11 35 42l-21 14h-22q-14 -2 -14 -14zM391 432q66 -95 71 -127l-99 -93q-106 24 -106 71q-7 45 -7 99q48 34 141 50zM250 581q-15 -10 -170 -185q47 -247 64 -247l205 -78q219 82 219 113q29 164 29 234q-133 135 -156 135zM142 787
q5 -107 22 -107h49q57 0 57 107l-14 7h-100zM405 746q5 -107 22 -107h50q57 0 57 107l-15 8h-100zM193 629l-94 10q-11 97 -21 219q218 -7 257 -14l-7 -14v-7q0 -109 -15 -172q0 -3 -2 -8q22 -2 42 -5q-4 84 -12 180q218 -7 257 -15l-7 -14v-7q0 -108 -14 -172
q0 -16 -48 -25q138 -146 138 -167q-25 -312 -56 -312q-239 -106 -262 -106q-284 88 -284 127q-56 271 -56 298z" />
    <glyph glyph-name="multiply" unicode="&#xd7;" horiz-adv-x="599" 
d="M341 552q181 -98 222 -145q-90 -106 -90 -125q89 -65 110 -76q0 -36 -180 -214h-7q-75 69 -83 69h-7q-39 -90 -62 -90q-174 112 -236 173v7l91 97v14q-86 49 -104 76v41l159 166h7l104 -83h6q45 90 70 90zM355 469q-74 -104 -84 -104q-94 91 -117 91q-83 -83 -83 -104h7
q88 -58 117 -98l-96 -103q84 -62 131 -90q60 97 69 97h7l90 -76q12 1 97 104l-111 89v14l91 111z" />
    <glyph glyph-name="Udieresis" unicode="&#xdc;" horiz-adv-x="756" 
d="M122 601v-7q0 -36 -16 -388q11 -2 115 -99h296q129 105 129 289q15 0 15 91q-35 15 -167 38q-15 -266 -46 -266q-132 -15 -159 -15l-8 15q31 253 31 327h-8q-115 15 -182 15zM469 763q5 -107 22 -107h50q57 0 57 107l-15 8h-100zM206 804q5 -107 22 -107h49q57 0 57 107
l-14 7h-100zM155 677q-3 76 -13 198q218 -7 257 -14l-7 -14v-7q0 -109 -15 -172q0 -8 -11 -15q37 -7 37 -14l-38 -311h23q25 0 30 273q0 1 1 1q-1 79 -14 233q218 -7 257 -15l-7 -14v-7q0 -108 -14 -172q0 -25 -113 -32q217 -38 217 -62q-48 -380 -84 -380
q-106 -122 -114 -122h-349q-59 41 -167 160q15 494 30 494q51 -4 94 -8z" />
    <glyph glyph-name="germandbls" unicode="&#xdf;" horiz-adv-x="757" 
d="M286 760l353 -131l3 -7q-67 -205 -71 -222q67 -33 168 -101q-116 -268 -134 -296q-254 37 -269 37q-29 -3 -239 -40q-16 63 -97 642h3q263 111 283 118zM61 605l80 -534q135 23 155 30q0 19 -51 464h4q126 -46 141 -61q-3 -23 -34 -148q152 -68 152 -80
q-55 -107 -64 -111q-68 40 -78 40v-3q4 -23 4 -37v-68h3q15 0 195 -26l91 208q-162 91 -162 101l64 212l-279 104q-214 -91 -221 -91zM346 292q0 -4 81 -47l3 7v3q-77 37 -84 37z" />
    <glyph glyph-name="adieresis" unicode="&#xe4;" horiz-adv-x="646" 
d="M282 232h23q56 0 61 -23q0 -47 -53 -76h-16q-18 0 -30 84q3 15 15 15zM176 491l-38 -137h8q113 15 235 15v-31q0 -39 -23 -45l-113 23q-138 -63 -138 -91q0 -13 69 -175q156 38 198 38h15q23 0 23 -30q58 0 129 22q0 21 -46 107l53 174q-94 114 -258 114q0 12 -114 16z
M136 693q5 -107 22 -107h49q57 0 57 107l-14 7h-100zM399 652q5 -107 22 -107h50q57 0 57 107l-15 8h-100zM118 542l-25 3q-11 97 -21 219q218 -7 257 -14l-7 -14v-7q0 -109 -15 -172q0 -2 -1 -4q22 -2 41 -5q-4 82 -12 176q218 -7 257 -15l-7 -14v-7q0 -108 -14 -172
q0 -18 -58 -27q106 -88 119 -113q-53 -154 -53 -189l76 -152q-185 -61 -274 -61h-7q-23 30 -39 30q-30 0 -197 -38q-129 264 -129 312q24 0 109 264z" />
    <glyph glyph-name="ae" unicode="&#xe6;" horiz-adv-x="1057" 
d="M146 566q357 -22 357 -68q115 -96 129 -122q-53 -154 -53 -189l76 -152q-185 -61 -274 -61h-7q-23 30 -39 30q-30 0 -197 -38q-129 264 -129 312q25 0 114 281q15 7 23 7zM176 491l-38 -137h8q113 15 235 15v-31q0 -39 -23 -45l-113 23q-138 -63 -138 -91q0 -13 69 -175
q156 38 198 38h15q23 0 23 -30q58 0 129 22q0 21 -46 107l53 174q-94 114 -258 114q0 12 -114 16zM282 232h23q56 0 61 -23q0 -47 -53 -76h-16q-18 0 -30 84q3 15 15 15zM760 521q84 -35 293 -146q-46 -238 -76 -238h-8v-7q0 -13 42 -111q0 -17 -320 -56q-115 52 -251 161
q34 306 70 306q210 91 250 91zM517 145l181 -112q190 28 216 28v7q0 7 -42 104q-28 0 -118 -55q-84 69 -84 76v14h265q14 0 42 140q-89 34 -223 104q-209 -65 -209 -97q-28 -167 -28 -209zM739 354q84 -21 84 -56q-7 -42 -21 -42q-118 14 -118 35q0 17 55 63z" />
    <glyph glyph-name="eacute" unicode="&#xe9;" horiz-adv-x="706" 
d="M378 841q198 -176 198 -189q-70 -58 -99 -58v-8q25 -28 214 -124l9 -17q-41 -263 -91 -263v-9q25 -49 50 -115q0 -23 -372 -58q-264 146 -264 182q28 346 82 346q81 33 91 33v8l-49 58q187 183 231 214zM263 627q0 -13 32 -33h9q45 0 140 74v8q0 11 -66 67
q-12 -2 -115 -116zM105 198q195 -124 207 -124l231 33v9q-39 123 -58 123q0 -16 -115 -66q-22 0 -99 91v8h8q96 0 305 -8q25 125 25 157l-248 123l-222 -90q-34 -170 -34 -256zM361 429q42 0 83 -41v-50q0 -16 -17 -16q-117 25 -140 25v16q51 66 74 66z" />
    <glyph glyph-name="odieresis" unicode="&#xf6;" horiz-adv-x="598" 
d="M253 284q125 -27 125 -49q-35 -98 -55 -98q-84 9 -84 29v104q2 14 14 14zM246 437q0 -5 -161 -125q0 -216 36 -216q126 -77 146 -77q216 30 216 63q0 14 41 167q-99 153 -160 153zM112 649q5 -107 22 -107h49q57 0 57 107l-14 7h-100zM375 608q5 -107 22 -107h50
q57 0 57 107l-15 8h-100zM205 486l-136 15q-11 97 -21 219q218 -7 257 -14l-7 -14v-7q0 -109 -15 -172q0 -3 -3 -9q23 -7 43 -14q-3 88 -12 190q218 -7 257 -15l-7 -14v-7q0 -108 -14 -172q0 -24 -103 -31q56 -31 67 -60l90 -118q-61 -265 -98 -265q-239 -56 -257 -56
q-216 123 -216 147q-14 153 -14 258q130 97 189 139z" />
    <glyph glyph-name="uacute" unicode="&#xfa;" horiz-adv-x="702" 
d="M438 815q181 -174 181 -181v-18q-155 -71 -216 -120q275 -26 293 -43q-58 -432 -94 -432q-208 -25 -250 -25l-18 34q-49 -17 -112 -17q-46 22 -199 129q21 414 52 414h173l-43 43v9q194 207 233 207zM317 590q28 -17 52 -17q137 64 137 78q-10 0 -68 69
q-121 -82 -121 -130zM127 487l-26 -302l129 -95l173 26q7 -34 17 -34q147 0 147 43l43 267q-19 9 -181 26l-17 -26v-155q0 -17 -130 -52q0 9 -8 9q43 260 43 293h-190z" />
    <glyph glyph-name="udieresis" unicode="&#xfc;" horiz-adv-x="648" 
d="M102 137l125 -83q119 21 153 21q6 -28 14 -28q132 0 132 35l42 251q-85 14 -167 21l-14 -21v-147q0 -14 -118 -41q0 6 -7 6l42 258l-49 7h-56q-76 0 -76 -35q0 -34 -21 -244zM142 617q5 -107 22 -107h49q57 0 57 107l-14 7h-100zM405 576q5 -107 22 -107h50q57 0 57 107
l-15 8h-100zM98 480q-11 93 -20 208q218 -7 257 -14l-7 -14v-7q0 -105 -14 -167h38q-3 76 -11 162q218 -7 257 -15l-7 -14v-7q0 -108 -14 -172q0 -19 -67 -28q135 -20 135 -31q-21 -156 -70 -383l-243 -35l-15 35q-68 -14 -118 -14q-167 124 -167 133q23 362 42 362
q12 0 24 1z" />
    <glyph glyph-name="OE" unicode="&#x152;" horiz-adv-x="1258" 
d="M320 333v-21q0 -6 22 -21q35 11 35 42l-21 14h-22q-14 -2 -14 -14zM729 604q-40 -139 -72 -304q41 -200 88 -200q33 -8 376 -24q-16 90 -16 144h-8q-77 -16 -216 -16l-16 24v40q2 16 16 16q134 -16 152 -16q0 29 24 112l-40 8h-128q-16 0 -16 16q9 64 40 64
q151 -40 208 -40q24 88 24 136h-8q-263 40 -408 40zM391 432q66 -95 71 -127l-99 -93q-106 24 -106 71q-7 45 -7 99q48 34 141 50zM596 392q1 14 1 26q-133 135 -156 135l-191 28q-15 -10 -170 -185q47 -247 64 -247l205 -78q219 82 219 113q8 43 13 80q-4 18 -4 27
q10 54 19 101zM626 125q-7 -19 -15 -19q-239 -106 -262 -106q-284 88 -284 127q-56 271 -56 298l205 227q305 -25 305 -57q61 -64 97 -106q45 211 65 211q500 -56 560 -80q-51 -296 -72 -296l-40 8l-8 -16q56 -30 56 -48q0 -64 32 -264q-16 -8 -24 -8q-101 0 -520 24
q-22 59 -39 105z" />
    <glyph glyph-name="oe" unicode="&#x153;" horiz-adv-x="1096" 
d="M246 514q241 -69 265 -133l90 -118q-61 -265 -98 -265q-239 -56 -257 -56q-216 123 -216 147q-14 153 -14 258q195 146 230 167zM246 437q0 -5 -161 -125q0 -216 36 -216q126 -77 146 -77q216 30 216 63q0 14 41 167q-99 153 -160 153zM253 284q125 -27 125 -49
q-35 -98 -55 -98q-84 9 -84 29v104q2 14 14 14zM798 521q84 -35 293 -146q-46 -238 -76 -238h-8v-7q0 -13 42 -111q0 -17 -320 -56q-115 52 -251 161q34 306 70 306q210 91 250 91zM555 145l181 -112q190 28 216 28v7q0 7 -42 104q-28 0 -118 -55q-84 69 -84 76v14h265
q14 0 42 140q-89 34 -223 104q-209 -65 -209 -97q-28 -167 -28 -209zM777 354q84 -21 84 -56q-7 -42 -21 -42q-118 14 -118 35q0 17 55 63z" />
    <glyph glyph-name="uni02B0" unicode="&#x2b0;" horiz-adv-x="393" 
d="M199 774q7 -23 20 -119h4q7 0 63 16q15 -6 91 -67q-23 -213 -36 -213q-115 -12 -134 -12q0 6 -16 16q-95 -16 -102 -16q-14 0 -44 217q-4 10 -27 143q49 15 181 35zM69 707q12 -114 47 -285q75 9 75 24q0 37 -8 103l8 4h44l8 -4l-8 -127h4q79 0 79 20q0 21 16 142
q-51 44 -55 44q-68 -24 -100 -24q0 15 -11 123q-54 -5 -99 -20z" />
    <glyph glyph-name="uni02B3" unicode="&#x2b3;" horiz-adv-x="400" 
d="M229 681q111 -57 112 -71q-67 -154 -83 -154l-23 18v-59q0 -24 -154 -24q-41 174 -41 249q115 0 189 41zM223 622q0 -18 -41 -47h-6q0 19 -6 29q-77 -4 -77 -18l24 -148h6l59 6v54q0 35 35 59l35 -24q24 38 24 65q-31 24 -53 24z" />
    <glyph glyph-name="uni02E2" unicode="&#x2e2;" horiz-adv-x="359" 
d="M121 631q-16 -22 -40 -71q90 -35 116 -56q-14 -28 -20 -28q-76 48 -92 48l-19 -40l67 -55q90 8 132 8q0 4 31 71q-105 52 -107 64q8 18 16 20l75 -44q0 3 20 48q-67 40 -67 43q-67 -8 -112 -8zM240 675q99 -55 103 -63l-23 -72v-4l19 -8v-8q-40 -115 -63 -115
q-66 -12 -139 -12q-26 0 -115 79v4q24 54 24 56q-10 0 -12 16q52 119 83 119q92 8 123 8z" />
    <glyph glyph-name="uni0401" unicode="&#x401;" horiz-adv-x="688" 
d="M161 604q-40 -139 -72 -304q41 -200 88 -200q33 -8 376 -24q-16 90 -16 144h-8q-77 -16 -216 -16l-16 24v40q2 16 16 16q134 -16 152 -16q0 29 24 112l-40 8h-128q-16 0 -16 16q9 64 40 64q151 -40 208 -40q24 88 24 136h-8q-263 40 -408 40zM145 812q5 -107 22 -107h49
q57 0 57 107l-14 7h-100zM408 771q5 -107 22 -107h50q57 0 57 107l-15 8h-100zM100 684q-10 89 -19 199q218 -7 257 -14l-7 -14v-7q0 -109 -15 -172q20 -2 39 -4q-3 79 -11 171q218 -7 257 -15l-7 -14v-7q0 -104 -13 -167q72 -12 92 -20q-51 -296 -72 -296l-40 8l-8 -16
q56 -30 56 -48q0 -64 32 -264q-16 -8 -24 -8q-101 0 -520 24q-88 231 -88 272q61 326 91 392z" />
    <glyph glyph-name="uni0410" unicode="&#x410;" horiz-adv-x="669" 
d="M163 639q355 -34 355 -73q159 -495 159 -528q0 -19 -304 -44q-15 27 -36 116h-7q-12 -3 -51 -116h-8q-282 48 -282 72q87 310 174 573zM213 559q-43 -118 -137 -449q47 -15 152 -36q0 108 138 108h29l36 -116q16 8 159 22q-113 403 -145 442zM322 421h15q24 0 43 -130
l-14 -7h-44q-20 0 -43 14q21 123 43 123z" />
    <glyph glyph-name="uni0411" unicode="&#x411;" horiz-adv-x="704" 
d="M422 293l7 -14v-68q0 -23 -122 -34q-21 27 -21 95q0 14 136 21zM576 279q-144 109 -166 109q-19 0 -47 -4l-64 -10q-7 -2 -5 70v7q2 14 14 14h102q13 2 27 5q3 -3 7 -5h83v155q-218 -26 -327 -40q-47 -11 -104 -26q12 -103 27 -208h-5l39 -271q361 10 361 41q34 54 54 91
q14 35 19 49zM530 401q28 -22 51 -40l26 1l-1 -1q24 -31 40 -54q18 -16 29 -28q-2 -7 -5 -13q4 -9 4 -14q-21 -43 -40 -78q-13 -31 -19 -37h-1q-63 -110 -90 -110l-422 -27q-20 84 -88 613q2 1 5 1q-1 3 -1 6q46 7 89 14q48 10 110 22l5 -5q280 40 368 40l8 -14v-184
q0 -92 -22 -92h-46z" />
    <glyph glyph-name="uni0412" unicode="&#x412;" horiz-adv-x="690" 
d="M429 695q189 -138 238 -191q-50 -134 -61 -143q68 -87 68 -109q-111 -225 -150 -225l-422 -27q-20 84 -88 613q110 27 415 82zM88 552l69 -477q361 10 361 41q59 93 75 136l-62 96q55 139 55 142q-161 123 -184 123q-80 0 -314 -61zM286 490q136 -21 136 -47
q0 -89 -129 -89q-21 24 -21 82v41q2 13 14 13zM422 293l7 -14v-68q0 -23 -122 -34q-21 27 -21 95q0 14 136 21z" />
    <glyph glyph-name="uni0413" unicode="&#x413;" horiz-adv-x="619" 
d="M92 587q28 -240 70 -481q124 7 149 7v7q-7 78 -7 134l-14 220v7q2 14 14 14h219v155q-409 -49 -431 -56v-7zM586 721l8 -14v-184q0 -92 -22 -92h-35l-179 -1l17 -232q0 -46 6 -141q-75 -15 -268 -29q-21 0 -99 622q455 71 572 71z" />
    <glyph glyph-name="uni0414" unicode="&#x414;" horiz-adv-x="963" 
d="M835 287q90 -20 122 -36q-107 -419 -128 -419l-264 -18l-10 203l-237 2l31 -188q-267 -12 -326 -5q-53 429 -37 433q43 6 89 12l163 58q-11 89 -73 367l16 9q67 0 122 -1v3l8 14q117 0 572 -71q-28 -221 -48 -363zM805 587v7q-22 7 -431 56v-27h-119v-9q66 -312 66 -336
q-17 -9 -32 -17l-59 -26l-106 -29q-33 -2 -68 -5l30 -303l193 11q-59 136 -52 169q24 0 46 -1q4 -1 6 -2h4q2 1 3 2q301 -7 358 -13l-23 -176q160 0 159 -7l81 322h-8q-56 12 -99 19q30 183 51 365zM469 495h124q12 0 14 -14v-7l-14 -220v-15q-43 -2 -166 -4q44 158 42 260z
" />
    <glyph glyph-name="uni0415" unicode="&#x415;" horiz-adv-x="688" 
d="M113 700q500 -56 560 -80q-51 -296 -72 -296l-40 8l-8 -16q56 -30 56 -48q0 -64 32 -264q-16 -8 -24 -8q-101 0 -520 24q-88 231 -88 272q76 408 104 408zM161 604q-40 -139 -72 -304q41 -200 88 -200q33 -8 376 -24q-16 90 -16 144h-8q-77 -16 -216 -16l-16 24v40
q2 16 16 16q134 -16 152 -16q0 29 24 112l-40 8h-128q-16 0 -16 16q9 64 40 64q151 -40 208 -40q24 88 24 136h-8q-263 40 -408 40z" />
    <glyph glyph-name="uni0416" unicode="&#x416;" horiz-adv-x="1099" 
d="M426 30q-24 5 -25 11l-1 56h-8l-74 -89h-23q-197 131 -268 201l-2 9q20 37 175 153q-3 18 -194 193q47 60 243 186q14 0 90 -93q-2 10 -3 20q6 2 14 4l-2 12l5 16q90 -5 157 -10q66 5 156 10l8 -16v-12q8 -2 14 -4q0 -11 1 -21q60 94 74 94q217 -126 274 -186
q-161 -175 -161 -193q175 -116 201 -153v-9q-60 -70 -234 -201h-23l-89 89h-8l8 -56q0 -6 -23 -11q0 -18 -1 -30q-80 6 -139 11q-57 -5 -136 -11q-3 12 -6 30zM489 89h32q17 0 41 1q24 -1 41 -1h32v7q3 1 7 1v8q-8 141 -8 169h8q14 -1 194 -177l129 121q-146 105 -194 153
v16l153 169v8q-135 81 -153 81l-137 -202h-8q-4 108 -7 170q-13 3 -29 6q-6 10 -13 10q-33 0 -61 -2q-28 2 -61 2q-7 0 -12 -10q-14 -3 -27 -6q7 -62 22 -170h-8l-171 202q-18 0 -140 -81l2 -8l181 -169l3 -16q-40 -48 -168 -153l150 -121q150 176 164 177h8q4 -28 20 -169
l2 -8q4 0 7 -1q0 -3 1 -7z" />
    <glyph glyph-name="uni0417" unicode="&#x417;" horiz-adv-x="688" 
d="M258 653q-172 -59 -172 -65v-13q24 -12 134 -164q1 18 129 109q37 -26 70 -78v-7q-70 -77 -91 -77l84 -98q-23 -40 -98 -64q-72 125 -85 127q-89 -53 -119 -92q119 -126 127 -126q117 -7 182 -7v-7q49 0 105 105q6 0 36 50l-71 105v7q8 17 92 77q-80 183 -120 183
q-154 35 -203 35zM251 730q294 -52 294 -77q120 -215 120 -232q-91 -77 -91 -84q11 0 63 -85v-13q-101 -160 -161 -218q-324 0 -324 70q-39 31 -140 155l155 126l-193 209q227 113 277 149z" />
    <glyph glyph-name="uni0418" unicode="&#x418;" horiz-adv-x="744" 
d="M90 589l75 -475l139 -15q15 3 170 243l7 1l6 -222q70 -3 143 9l7 1q9 391 -4 473q-12 -2 -168 23q-134 -244 -148 -296l-14 5q-14 173 -28 261q-2 15 -185 -8zM343 672q6 -88 7 -92l2 -13q7 1 65 131q50 8 294 -46q3 -510 -14 -591q-239 -20 -271 -6l-4 71l-1 6
q-18 -11 -69 -111q-240 24 -244 47l-91 574l6 15q275 23 320 15z" />
    <glyph glyph-name="uni0419" unicode="&#x419;" horiz-adv-x="755" 
d="M90 589l75 -475l139 -15q15 3 170 243l7 1l6 -222q70 -3 143 9l7 1q9 391 -4 473q-12 -2 -168 23q-134 -244 -148 -296l-14 5q-14 173 -28 261q-2 15 -185 -8zM350 871v-5q25 -56 25 -70q-63 -35 -94 -35q-10 20 -15 84q-22 0 -94 -49q47 -99 69 -99q100 -19 109 -24
q38 17 119 93l10 100l-10 5h-119zM196 670q-19 10 -19 22q-59 111 -59 124v5l173 89q21 -89 30 -89h5q-5 49 -30 95l10 5q218 0 218 -25l-15 -154q-28 -25 -50 -44q74 -7 252 -46q3 -510 -14 -591q-239 -20 -271 -6l-4 71l-1 6q-18 -11 -69 -111q-240 24 -244 47l-91 574
l6 15q102 9 173 13zM346 630q3 -47 4 -50l2 -13q5 1 41 78q-24 -17 -33 -17z" />
    <glyph glyph-name="uni041A" unicode="&#x41a;" horiz-adv-x="750" 
d="M441 750q217 -126 274 -186q-161 -175 -161 -193q175 -116 201 -153v-9q-60 -70 -234 -201h-23l-89 89h-8l8 -56q0 -20 -299 -41q-24 102 -96 677q49 16 330 32l8 -16v-48h8q66 105 81 105zM449 645l-137 -202h-16q-9 186 -41 186q-103 0 -161 -16q16 -143 73 -524h32
q41 0 121 8v8q-8 141 -8 169h8q14 -1 194 -177l129 121q-146 105 -194 153v16l153 169v8q-135 81 -153 81z" />
    <glyph glyph-name="uni041B" unicode="&#x41b;" horiz-adv-x="910" 
d="M522 170q-73 -65 -123 -105l7 -11q-34 -18 -63 -31q-34 -23 -47 -23l-10 2q-53 -16 -68 3q-21 8 -40 16q-4 1 -9 2v2q-146 59 -159 74l-4 6l124 297q74 -55 108 -73q-11 89 -73 367l16 9q67 0 122 -1v3l8 14q117 0 572 -71q-78 -622 -99 -622q-193 14 -268 29q4 69 6 113
zM593 495q12 0 14 -14v-7l-14 -220q0 -56 -7 -134v-7q25 0 149 -7q42 241 70 481v7q-22 7 -431 56v-27h-119v-9q66 -312 66 -336q-17 -9 -32 -17l-59 -26l-19 16q-20 18 -44 43q-27 -24 -66 -163q46 -21 82 -34v1q82 -17 96 -23h4q62 31 193 154q-5 163 -7 266h124z" />
    <glyph glyph-name="uni041C" unicode="&#x41c;" horiz-adv-x="795" 
d="M219 701q220 0 220 -56q9 -50 21 -50q0 23 43 71q212 -20 212 -57q64 -461 71 -567q0 -21 -319 -35l-7 14v177l-57 -49h-7l-49 57q-54 -178 -71 -185q-283 123 -283 149q177 458 226 531zM255 624q-170 -390 -170 -433q30 -21 156 -78q77 235 77 248h22q54 -102 71 -106
q11 0 106 92l7 -14v-255q179 10 184 21q-42 421 -71 475q-39 14 -113 14q-78 -130 -92 -135q-21 41 -50 163q-98 8 -127 8z" />
    <glyph glyph-name="uni041D" unicode="&#x41d;" horiz-adv-x="753" 
d="M331 705q14 -9 35 -205l14 -7h7v7q0 107 -14 169q0 29 331 29q7 -14 7 -22q0 -89 -7 -627q-57 -21 -232 -21h-21q-20 0 -29 183h-21q0 -19 15 -162q-184 -49 -261 -49q-22 0 -92 409q-12 0 -49 239q20 7 317 57zM458 613q7 -116 7 -176q-23 -14 -155 -21q-15 39 -36 204
q-169 -24 -169 -35q85 -507 106 -507q14 6 127 21l-14 148q32 31 148 63q14 -10 35 -211h7q96 6 120 6v522z" />
    <glyph glyph-name="uni041E" unicode="&#x41e;" horiz-adv-x="693" 
d="M214 652q305 -25 305 -57q148 -155 148 -177q-25 -312 -56 -312q-239 -106 -262 -106q-284 88 -284 127q-56 271 -56 298zM250 581q-15 -10 -170 -185q47 -247 64 -247l205 -78q219 82 219 113q29 164 29 234q-133 135 -156 135zM391 432q66 -95 71 -127l-99 -93
q-106 24 -106 71q-7 45 -7 99q48 34 141 50zM320 333v-21q0 -6 22 -21q35 11 35 42l-21 14h-22q-14 -2 -14 -14z" />
    <glyph glyph-name="uni041F" unicode="&#x41f;" horiz-adv-x="801" 
d="M375 38q-237 -29 -296 -22q-53 618 -37 622q250 36 372 50q5 22 11 22q43 -7 81 -14q23 2 24 -1q0 -2 1 -3q202 -36 254 -62q-107 -608 -128 -608q-192 -24 -280 -24q0 8 -8 8zM389 380l-17 1q-15 -3 -8 -38q7 -33 19 -100q3 74 6 137zM449 78q160 0 160 48
q80 395 80 456h-8q-152 32 -200 32v-7q-4 7 -8 12q-60 2 -361 -39q4 -224 30 -492l193 11l5 16l-47 228q-17 81 -10 114q127 -7 189 -14q-17 -319 -23 -365z" />
    <glyph glyph-name="uni0420" unicode="&#x420;" horiz-adv-x="634" 
d="M403 715q171 -107 241 -170v-6q-34 -270 -92 -270q-26 -35 -113 -92q-61 7 -92 7v-120q0 -24 -277 -36q-11 0 -56 631q37 14 389 56zM92 602q7 -213 35 -496h99q57 0 57 43v99q2 14 14 14l120 -14q135 75 135 170l21 99l-184 128q-76 -7 -297 -43zM283 524
q120 -34 120 -49q0 -121 -70 -121l-50 -7l-7 14v149z" />
    <glyph glyph-name="uni0421" unicode="&#x421;" horiz-adv-x="691" 
d="M392 707q242 -81 269 -113q0 -18 -93 -212q107 -173 128 -226q-200 -121 -290 -156q-305 86 -318 106l-85 339q149 205 177 205q186 57 212 57zM81 424q58 -282 92 -282q223 -64 226 -71q201 99 205 113q-62 117 -78 120l-106 -78q-141 24 -141 64q-8 60 -8 99
q12 34 114 99q94 -57 127 -57q56 109 56 134q-95 43 -183 71q-226 -48 -226 -106q-9 0 -78 -106zM342 339v-6q0 -20 71 -29l57 56v8q-72 35 -85 35q-43 -25 -43 -64z" />
    <glyph glyph-name="uni0422" unicode="&#x422;" horiz-adv-x="701" 
d="M661 694q23 -13 28 -269q-47 -14 -170 -35l57 -333q-35 -15 -333 -36l-7 15v311q-151 -21 -185 -21q-11 0 -28 326q0 14 638 42zM101 595q0 -7 -7 -7q9 -122 21 -184q149 21 177 21l7 -14v-71q0 -163 14 -241q178 7 178 22l-50 325q17 14 177 29v6q-7 96 -7 143h-7z" />
    <glyph glyph-name="uni0423" unicode="&#x423;" horiz-adv-x="699" 
d="M136 637q-17 -99 -17 -288q18 0 152 -68q72 25 93 25l9 -17q-48 -93 -68 -101q-16 0 -136 59v-8q-50 -78 -50 -111q149 -42 195 -42q212 91 212 220q26 46 59 229q-86 33 -152 33q-39 -177 -60 -177l-102 -9q0 9 -9 9l43 255h-26q-43 0 -143 -9zM390 722q17 -3 17 -18
v-41q280 -54 280 -77q-101 -458 -135 -458q-197 -127 -247 -127q-296 56 -296 85l93 186q-34 0 -76 51q37 390 59 390q190 9 305 9z" />
    <glyph glyph-name="uni0424" unicode="&#x424;" horiz-adv-x="949" 
d="M382 510v-149l-7 -14l-50 7q-70 0 -70 121q0 15 120 49zM570 524q120 -34 120 -49q0 -121 -70 -121l-50 -7l-7 14v149zM352 47q-41 8 -41 17v120q-31 0 -92 -7q-87 57 -113 92q-58 0 -92 270v6q70 63 241 170q130 -16 218 -27q87 11 217 27q171 -107 241 -170v-6
q-34 -270 -92 -270q-26 -35 -113 -92q-61 7 -92 7v-120q0 -9 -41 -17q-3 -19 -5 -19q-66 3 -116 6q-50 -3 -115 -6q-2 0 -5 19zM414 106h117v1q39 6 39 42v99q2 14 14 14l120 -14q135 75 135 170l21 99l-184 128q-59 -5 -204 -28q-144 23 -203 28l-184 -128l21 -99
q0 -95 135 -170l120 14q12 0 14 -14v-99q0 -36 39 -42v-1z" />
    <glyph glyph-name="uni0425" unicode="&#x425;" horiz-adv-x="766" 
d="M477 715q269 -149 269 -185q0 -14 -135 -152q160 -119 160 -126q-91 -111 -210 -218q-31 0 -143 92q-12 0 -118 -126q-51 0 -260 185v8l117 143l-159 135v17q103 113 227 210h25q97 -109 126 -109q89 126 101 126zM376 496h-8l-127 127h-16q-29 0 -143 -144
q140 -117 159 -117q0 -27 -117 -169v-8q120 -109 168 -109q99 134 109 134h9l134 -109q52 28 135 143q0 13 -152 126v8l135 143q-90 99 -160 110h-17z" />
    <glyph glyph-name="uni0426" unicode="&#x426;" horiz-adv-x="860" 
d="M738 293q48 -13 112 -30q0 -27 -192 -353q-90 7 -303 49l2 6l35 81v2q-112 -9 -287 -20q-16 0 -91 616q60 21 332 42l7 -14q7 -220 7 -290q0 -35 15 -35l28 8q15 355 37 355q295 -48 360 -80q-36 -202 -62 -337zM496 114q-40 -78 -44 -98q4 -22 156 -42h7
q142 205 142 246v7q-15 0 -107 27q54 278 54 328h-8q-152 32 -200 32q-9 -187 -16 -309q-60 -20 -176 -51q-14 31 -14 114v233l-8 14l-191 -28q29 -268 71 -488q215 15 306 26z" />
    <glyph glyph-name="uni0427" unicode="&#x427;" horiz-adv-x="812" 
d="M395 442q14 284 34 284q295 -48 360 -80q-107 -608 -128 -608q-192 -24 -280 -24q0 8 -8 8l8 40q2 91 5 170h-188q-59 28 -167 111q15 342 30 342q342 -17 342 -32l-38 -215h23q4 0 7 4zM448 390q-132 -10 -159 -10l-8 10q31 175 31 226h-8q-115 11 -182 11v-5
q0 -25 -16 -269q11 -1 115 -68h246q-10 -160 -14 -191q160 0 160 48q80 395 80 456h-8q-152 32 -200 32q-5 -108 -10 -194q-11 -46 -27 -46z" />
    <glyph glyph-name="uni0428" unicode="&#x428;" horiz-adv-x="1231" 
d="M818 359q15 351 37 351q295 -48 360 -80q-107 -608 -128 -608q-192 -24 -280 -24q0 8 -8 8l8 40v2q-115 -8 -300 -20q-3 0 -10 29q-120 -12 -392 -29q-16 0 -91 616q60 21 332 42l7 -14q7 -220 7 -290q0 -35 15 -35l76 22q-16 117 -35 275q60 21 332 42l7 -14
q7 -220 7 -290q0 -35 15 -35zM706 254q-14 31 -14 114v233l-8 14l-191 -28q16 -144 35 -274q-3 5 -12 5q-52 -21 -212 -64q-14 31 -14 114v233l-8 14l-191 -28q29 -268 71 -488q303 21 361 35l41 -35q231 16 320 28q-3 -36 -5 -49q160 0 160 48q80 395 80 456h-8
q-152 32 -200 32q-9 -183 -16 -305q-59 -20 -189 -55z" />
    <glyph glyph-name="uni0429" unicode="&#x429;" horiz-adv-x="1226" 
d="M399 354q-17 122 -37 290q60 21 332 42l7 -14q7 -220 7 -290q0 -35 15 -35l28 8q15 355 37 355q295 -48 360 -80q-36 -202 -62 -337q48 -13 112 -30q0 -27 -192 -353q-90 7 -303 49l2 6l35 81v2q-112 -9 -287 -20q-3 0 -9 24q-120 -10 -339 -24q-16 0 -91 616
q60 21 332 42l7 -14q7 -220 7 -290q0 -35 15 -35zM304 254q-14 31 -14 114v233l-8 14l-191 -28q29 -268 71 -488q264 18 342 31q3 -15 6 -31q215 15 306 26l28 -11q-40 -78 -44 -98q4 -22 156 -42h7q142 205 142 246v7q-15 0 -107 27q54 278 54 328h-8q-152 32 -200 32
q-9 -187 -16 -309q-60 -20 -176 -51q-14 31 -14 114v233l-8 14l-191 -28q16 -149 36 -283q-59 -20 -171 -50z" />
    <glyph glyph-name="uni042A" unicode="&#x42a;" horiz-adv-x="806" 
d="M418 233v149l7 14l50 -7q70 0 70 -121q0 -15 -120 -49zM479 688q10 -4 10 -9v-120q31 0 92 7q87 -57 113 -92q58 0 92 -270v-6q-70 -63 -241 -170q-352 42 -389 56q16 229 28 374l-112 -4q-29 0 -29 243v7q63 0 165 -2q2 13 4 13q159 -7 226 -18h13l28 -7v-2zM415 640
h-157q-47 0 -143 7l-7 -14v-93q11 -22 21 -22h57q30 0 72 1q-18 -210 -24 -378q221 -36 297 -43l184 128l-21 99q0 95 -135 170l-120 -14q-12 0 -14 14v99q0 18 -10 28v18z" />
    <glyph glyph-name="uni042B" unicode="&#x42b;" horiz-adv-x="995" 
d="M671 614q-24 -479 -32 -536q160 0 160 48q80 395 80 456h-8q-152 32 -200 32zM276 233v149l7 14l50 -7q70 0 70 -121q0 -15 -120 -49zM570 139q-66 -48 -167 -111q-352 42 -389 56q45 631 56 631q277 -12 277 -36v-120q31 0 92 7q87 -57 113 -92q16 0 30 -21
q14 257 33 257q295 -48 360 -80q-107 -608 -128 -608q-192 -24 -280 -24q0 8 -8 8l8 40q1 48 3 93zM573 226v2l-21 97q0 95 -135 170l-120 -14q-12 0 -14 14v99q0 43 -57 43h-99q-28 -283 -35 -496q221 -36 297 -43z" />
    <glyph glyph-name="uni042C" unicode="&#x42c;" horiz-adv-x="690" 
d="M276 233v149l7 14l50 -7q70 0 70 -121q0 -15 -120 -49zM389 98l184 128l-21 99q0 95 -135 170l-120 -14q-12 0 -14 14v99q0 43 -57 43h-99q-28 -283 -35 -496q221 -36 297 -43zM14 84q45 631 56 631q277 -12 277 -36v-120q31 0 92 7q87 -57 113 -92q58 0 92 -270v-6
q-70 -63 -241 -170q-352 42 -389 56z" />
    <glyph glyph-name="uni042D" unicode="&#x42d;" horiz-adv-x="712" 
d="M519 650q28 0 177 -205l-85 -339q-13 -20 -318 -106q-90 35 -290 156q21 53 128 226q-93 194 -93 212q27 32 269 113q26 0 212 -57zM421 298q0 -4 -1 -8q0 -40 -141 -64l-106 78q-16 -3 -78 -120q4 -14 205 -113q3 7 226 71q34 0 92 282q-69 106 -78 106q0 58 -226 106
q-88 -28 -183 -71q0 -25 56 -134q33 0 127 57q62 -40 91 -68h-180v-57q0 -31 14 -57q113 -6 182 -8z" />
    <glyph glyph-name="uni042E" unicode="&#x42e;" horiz-adv-x="1023" 
d="M705 432q66 -95 71 -127l-99 -93q-106 24 -106 71q-7 45 -7 99q48 34 141 50zM634 333v-21q0 -6 22 -21q35 11 35 42l-21 14h-22q-14 -2 -14 -14zM368 178q-32 -156 -43 -156q-192 -24 -280 -24q0 8 -8 8l8 40q18 664 48 664q295 -48 360 -80q-7 -39 -13 -76l88 98
q305 -25 305 -57q148 -155 148 -177q-25 -312 -56 -312q-239 -106 -262 -106q-284 88 -284 127q-6 27 -11 51zM417 284q28 -135 41 -135l205 -78q219 82 219 113q29 164 29 234q-133 135 -156 135l-191 28q-15 -10 -165 -179h-68q26 145 26 180h-8q-152 32 -200 32
q-24 -479 -32 -536q160 0 160 48q17 85 31 154q44 1 109 4z" />
    <glyph glyph-name="uni042F" unicode="&#x42f;" horiz-adv-x="738" 
d="M457 503v-142l-8 -14q-63 7 -78 14q-42 0 -42 106q0 24 106 50q22 0 22 -14zM343 645l-177 -128q0 -38 21 -113q0 -46 99 -113q0 -6 -141 -121q125 -78 163 -78l141 184h8v-155q0 -15 14 -15h134q36 362 36 489q-39 21 -298 50zM718 652q-39 -624 -56 -624q-57 0 -205 14
q-72 0 -72 43h-7q-32 -78 -49 -78q-46 0 -298 142v7q11 20 149 127v8q-55 0 -92 240q0 29 241 184q342 -35 389 -63z" />
    <glyph glyph-name="uni0430" unicode="&#x430;" horiz-adv-x="646" 
d="M146 566q357 -22 357 -68q115 -96 129 -122q-53 -154 -53 -189l76 -152q-185 -61 -274 -61h-7q-23 30 -39 30q-30 0 -197 -38q-129 264 -129 312q25 0 114 281q15 7 23 7zM176 491l-38 -137h8q113 15 235 15v-31q0 -39 -23 -45l-113 23q-138 -63 -138 -91q0 -13 69 -175
q156 38 198 38h15q23 0 23 -30q58 0 129 22q0 21 -46 107l53 174q-94 114 -258 114q0 12 -114 16zM282 232h23q56 0 61 -23q0 -47 -53 -76h-16q-18 0 -30 84q3 15 15 15z" />
    <glyph glyph-name="uni0431" unicode="&#x431;" horiz-adv-x="608" 
d="M307 332h31q48 -55 48 -77q-45 -83 -60 -91q-92 64 -92 84q30 84 73 84zM313 648q-31 -49 -219 -288q16 -217 42 -217l159 -78q183 52 183 70q0 17 49 113q-43 95 -74 182q-108 -14 -140 -14v7q134 126 134 134q-129 91 -134 91zM307 732l238 -161v-14q-40 -57 -61 -57
q44 -88 110 -252q-71 -197 -116 -197q-112 -42 -195 -56q-226 102 -226 133q-18 180 -18 253q191 269 268 351z" />
    <glyph glyph-name="uni0432" unicode="&#x432;" horiz-adv-x="594" 
d="M365 527q161 -107 202 -148q-42 -104 -51 -111q57 -67 57 -84q-94 -174 -127 -174l-358 -21q-17 65 -75 474q93 21 352 64zM76 416l58 -369q307 8 307 32q50 72 64 105l-53 74q47 108 47 110q-137 95 -157 95q-67 0 -266 -47zM244 368q115 -16 115 -36q0 -69 -109 -69
q-18 19 -18 63v32q2 10 12 10zM359 216l6 -11v-53q0 -18 -103 -26q-18 21 -18 73q0 11 115 17z" />
    <glyph glyph-name="uni0433" unicode="&#x433;" horiz-adv-x="507" 
d="M80 406q23 -175 56 -350q99 5 119 5v5q-6 57 -6 97l-11 160v5q2 11 11 11h175v112q-326 -35 -344 -40v-5zM474 503l7 -10v-134q0 -67 -18 -67h-28l-143 -1l14 -168q0 -34 5 -103q-60 -11 -214 -21q-17 0 -79 452q363 52 456 52z" />
    <glyph glyph-name="uni0434" unicode="&#x434;" horiz-adv-x="811" 
d="M703 214q73 -16 100 -29q-88 -336 -105 -336l-216 -14l-8 163l-193 1l25 -150q-218 -10 -266 -4q-44 343 -31 347q35 4 73 9l133 47q-9 71 -59 294l13 7q54 0 99 -1v3l7 11q95 0 467 -57q-23 -177 -39 -291zM678 455v5q-18 6 -352 45v-22h-97v-7q54 -250 54 -269
q-14 -7 -26 -14l-48 -21l-87 -23q-27 -1 -55 -4l24 -243l158 9q-49 109 -43 136q20 0 38 -1q3 -1 5 -2h3q2 1 2 2q246 -6 293 -11l-19 -141q131 0 130 -5l66 258h-6q-46 9 -81 15q24 147 41 293zM404 381h101q10 0 12 -11v-6l-12 -176v-12q-35 -2 -135 -4q36 127 34 209z
" />
    <glyph glyph-name="uni0435" unicode="&#x435;" horiz-adv-x="633" 
d="M336 521q84 -35 293 -146q-46 -238 -76 -238h-8v-7q0 -13 42 -111q0 -17 -320 -56q-115 52 -251 161q34 306 70 306q210 91 250 91zM93 145l181 -112q190 28 216 28v7q0 7 -42 104q-28 0 -118 -55q-84 69 -84 76v14h265q14 0 42 140q-89 34 -223 104q-209 -65 -209 -97
q-28 -167 -28 -209zM315 354q84 -21 84 -56q-7 -42 -21 -42q-118 14 -118 35q0 17 55 63z" />
    <glyph glyph-name="uni0436" unicode="&#x436;" horiz-adv-x="845" 
d="M335 -18q-18 4 -19 9l-1 43h-6l-57 -69h-18q-151 101 -206 155l-1 7q15 28 134 117q-2 14 -149 149q36 46 187 143q11 0 69 -72l-2 16q4 1 11 3l-2 9l4 12q70 -3 121 -7q51 4 120 7l6 -12v-9q6 -2 11 -3v-16q46 72 57 72q167 -97 211 -143q-124 -135 -124 -149
q135 -89 155 -117v-7q-46 -54 -180 -155h-18l-68 69h-6l6 -43q0 -5 -18 -9q0 -14 -1 -23q-61 4 -106 8q-45 -4 -105 -8q-2 9 -5 23zM384 27h24q13 0 32 2q18 -2 31 -2h25v6q3 0 5 1v6q-6 108 -6 130h6q11 -1 150 -136l99 93q-113 80 -149 117v13l117 130v6q-104 62 -117 62
l-106 -155h-6q-3 83 -5 131l-22 4q-5 8 -11 8q-25 0 -47 -1q-21 1 -47 1q-5 0 -9 -8q-11 -2 -21 -4q6 -48 17 -131h-6l-131 155q-14 0 -108 -62l1 -6l140 -130l2 -13q-31 -37 -129 -117l115 -93q116 135 126 136h7q3 -22 15 -130l1 -6q3 -1 6 -1q0 -3 1 -6z" />
    <glyph glyph-name="uni0437" unicode="&#x437;" horiz-adv-x="584" 
d="M232 488q-145 -50 -145 -55v-11q20 -10 113 -139q1 16 109 93q31 -22 59 -66v-6q-59 -65 -77 -65l71 -83q-19 -34 -83 -54q-61 105 -72 107q-75 -45 -100 -78q100 -106 107 -106q99 -6 154 -6v-6q41 0 89 89q5 0 30 42l-60 89v6q7 14 78 65q-68 154 -102 154
q-130 30 -171 30zM226 553q248 -44 248 -65q102 -182 102 -196q-77 -65 -77 -71q9 0 53 -72v-11q-85 -135 -136 -184q-274 0 -274 59q-33 26 -118 131l131 107l-163 176q192 96 234 126z" />
    <glyph glyph-name="uni0438" unicode="&#x438;" horiz-adv-x="672" 
d="M80 442l69 -392l127 -13q14 3 156 201l7 1l5 -184q65 -2 132 8l7 1q8 322 -5 390q-10 -1 -154 19q-123 -201 -135 -244l-13 4q-14 143 -26 215q-2 13 -170 -6zM650 494q3 -421 -13 -488q-219 -16 -249 -4l-3 58l-1 5q-17 -10 -64 -92q-219 20 -224 39l-83 473l5 13
q94 6 159 11q-3 1 -6 3l123 11l16 -126l75 136q102 -6 265 -39z" />
    <glyph glyph-name="uni0439" unicode="&#x439;" horiz-adv-x="680" 
d="M79 442l70 -394l127 -12q14 2 157 201l6 1l5 -184q65 -2 133 7l6 1q9 323 -4 391q-11 -1 -155 19q-123 -201 -135 -245l-13 5q-14 143 -27 216q-2 13 -170 -6zM318 675v-5q24 -46 24 -58q-59 -28 -87 -28q-9 16 -14 69q-20 0 -86 -41q44 -81 64 -81q92 -16 99 -21
q35 15 110 78l9 82l-9 5h-110zM176 508q-17 9 -17 18q-54 93 -54 103v4l159 73q19 -73 28 -73h5q-5 41 -29 79l10 4q201 0 201 -21l-13 -127q-26 -20 -47 -36q69 -6 232 -39q3 -421 -13 -489q-220 -16 -250 -4l-3 58l-1 5q-17 -9 -64 -92q-220 20 -224 39l-84 475l5 13
q95 6 159 10zM315 475q3 -39 3 -41l2 -12q6 2 39 66q-23 -15 -31 -15q-7 1 -13 2z" />
    <glyph glyph-name="uni043A" unicode="&#x43a;" horiz-adv-x="678" 
d="M390 607q188 -104 237 -154q-139 -145 -139 -160q151 -97 174 -127v-8q-52 -58 -203 -166h-20l-77 73h-6l6 -46q0 -17 -258 -34q-21 85 -83 561q42 14 285 27l7 -13v-40h7q57 87 70 87zM397 520l-118 -168h-14q-8 155 -36 155q-89 0 -139 -14q14 -118 63 -434h28
q35 0 105 6v7q-7 117 -7 140h7q12 -1 167 -147l112 101q-126 87 -168 127v13l132 140v7q-116 67 -132 67z" />
    <glyph glyph-name="uni043B" unicode="&#x43b;" horiz-adv-x="732" 
d="M421 99q-59 -50 -100 -81l6 -8q-28 -14 -51 -24q-28 -18 -38 -18q-4 1 -8 1q-43 -12 -55 3q-17 6 -33 12q-3 1 -7 2v1q-118 46 -129 57l-3 5l100 230q60 -43 88 -57q-9 69 -59 285l13 7q54 0 98 -1v2l7 11q95 0 463 -55q-63 -482 -80 -482q-156 11 -217 23q3 53 5 87z
M478 351q10 0 11 -11v-5l-11 -171q0 -43 -6 -103v-6q21 0 121 -5q34 186 57 372v6q-18 5 -349 43v-21h-96v-7q53 -241 53 -260l-26 -13l-48 -20l-15 12q-16 14 -36 33q-22 -18 -53 -126q37 -16 66 -26v1q67 -13 78 -18h3q50 24 156 119q-4 126 -5 206h100z" />
    <glyph glyph-name="uni043C" unicode="&#x43c;" horiz-adv-x="681" 
d="M201 523q178 0 178 -45q7 -41 17 -41q0 19 35 58q171 -16 171 -46q51 -372 57 -458q0 -17 -258 -28l-5 11v143l-46 -39h-6l-39 46q-44 -144 -58 -150q-228 100 -228 121q143 369 182 428zM230 461q-137 -315 -137 -350q24 -16 126 -62q62 189 62 200h18q44 -83 57 -86
q9 0 86 74l5 -11v-206q145 8 149 17q-34 340 -57 384q-32 11 -92 11q-62 -105 -74 -109q-17 33 -40 131q-79 7 -103 7z" />
    <glyph glyph-name="uni043D" unicode="&#x43d;" horiz-adv-x="644" 
d="M298 562q12 -7 29 -171l12 -6h6v6q0 89 -12 141q0 24 276 24q5 -11 5 -18q0 -74 -5 -522q-48 -18 -194 -18h-17q-17 0 -24 153h-18q0 -16 13 -135q-153 -41 -218 -41q-18 0 -76 341q-10 0 -41 199q17 5 264 47zM404 485q6 -96 6 -146q-20 -12 -130 -18q-12 33 -30 170
q-140 -20 -140 -29q71 -422 88 -422q12 5 106 17l-12 124q27 25 123 52q12 -8 29 -176h6q80 5 100 5v435z" />
    <glyph glyph-name="uni043E" unicode="&#x43e;" horiz-adv-x="598" 
d="M246 514q241 -69 265 -133l90 -118q-61 -265 -98 -265q-239 -56 -257 -56q-216 123 -216 147q-14 153 -14 258q195 146 230 167zM246 437q0 -5 -161 -125q0 -216 36 -216q126 -77 146 -77q216 30 216 63q0 14 41 167q-99 153 -160 153zM253 284q125 -27 125 -49
q-35 -98 -55 -98q-84 9 -84 29v104q2 14 14 14z" />
    <glyph glyph-name="uni043F" unicode="&#x43f;" horiz-adv-x="657" 
d="M309 29q-191 -23 -238 -17q-43 473 -30 476q201 27 299 38q4 17 9 17q34 -5 65 -11q18 2 19 0q0 -2 1 -3q162 -27 204 -47q-86 -466 -103 -466q-154 -18 -225 -18q0 6 -6 6zM320 290l-14 1q-12 -2 -6 -29q5 -25 15 -76q2 56 5 104zM368 59q129 0 129 37q64 302 64 349h-7
q-122 25 -160 25v-6q-3 6 -7 9q-48 2 -290 -30q4 -171 25 -376l155 8l4 13l-38 174q-14 62 -8 87q102 -5 152 -10q-14 -245 -19 -280z" />
    <glyph glyph-name="uni0440" unicode="&#x440;" horiz-adv-x="652" 
d="M318 513l22 -53q115 31 144 31q173 -223 173 -241q-136 -243 -151 -250h-7q-40 0 -128 8v-8q7 -132 7 -158q-14 -7 -23 -7q-68 0 -248 7q-68 333 -98 596q279 75 309 75zM84 377q30 -210 76 -467h135v83l-7 90q14 8 23 8q12 0 158 -15q98 153 98 189q-116 151 -121 151
q-99 -23 -166 -46q-22 35 -22 61q-174 -35 -174 -54zM416 302l7 -15q-28 -128 -52 -128q-91 0 -99 68v30q23 45 144 45z" />
    <glyph glyph-name="uni0441" unicode="&#x441;" horiz-adv-x="658" 
d="M261 589q334 -71 334 -91q-61 -152 -61 -167v-8l145 -190q-65 -63 -266 -175q-319 65 -319 100q-84 262 -84 296q242 235 251 235zM86 331q71 -243 91 -243q193 -38 220 -53q129 72 175 113q-69 103 -91 115l-106 -99h-8q-91 77 -91 99q38 85 61 91h7q87 -31 99 -31
q54 113 54 137q-204 40 -206 46q-12 0 -205 -175z" />
    <glyph glyph-name="uni0442" unicode="&#x442;" horiz-adv-x="636" 
d="M595 568q20 -11 25 -229q-42 -12 -152 -30l51 -284q-32 -13 -298 -31l-6 13v265q-136 -18 -166 -18q-10 0 -25 279q0 12 571 35zM94 484q0 -6 -6 -6q8 -104 18 -157q134 18 159 18l6 -12v-61q0 -139 12 -205q160 6 160 18l-45 278q15 12 158 25v5q-6 82 -6 122h-6z" />
    <glyph glyph-name="uni0443" unicode="&#x443;" horiz-adv-x="617" 
d="M349 517q15 -3 15 -16v-37q250 -48 250 -68q-90 -409 -121 -409q-175 -113 -220 -113q-264 50 -264 76l83 166q-30 0 -68 45q33 348 53 348q169 8 272 8zM122 441q-15 -88 -15 -257q16 0 136 -60q64 22 83 22l8 -15q-43 -83 -61 -90q-14 0 -121 52v-7q-45 -69 -45 -99
q133 -37 174 -37q189 81 189 196q23 41 53 204q-77 30 -136 30q-35 -158 -53 -158l-91 -8q0 8 -8 8l38 227h-23q-39 0 -128 -8z" />
    <glyph glyph-name="uni0444" unicode="&#x444;" horiz-adv-x="961" 
d="M268 321h91q23 -8 23 -46v-31q-7 -19 -76 -61q-23 28 -54 130zM698 302l7 -15q-28 -128 -52 -128q-91 0 -99 68v30q23 45 144 45zM356 11q-8 27 -20 27q-107 -30 -152 -30q-184 232 -184 259q127 240 146 245h129q-23 99 -23 183h8q313 -26 313 -46q6 -26 20 -136h7
l22 -53q115 31 144 31q173 -223 173 -241q-136 -243 -151 -250h-7q-40 0 -128 8v-8q7 -132 7 -158q-14 -7 -23 -7q-68 0 -248 7q-18 87 -33 169zM442 -90h135v83l-7 90q14 8 23 8q12 0 158 -15q98 153 98 189q-116 151 -121 151q-99 -23 -166 -46q-22 35 -22 61q-4 -1 -7 -1
q-19 173 -36 173q-35 0 -168 8q23 -124 23 -176l-16 -7q-46 0 -160 15q-92 -166 -92 -191q127 -168 145 -168l168 46q3 -28 14 -39q14 -87 31 -181z" />
    <glyph glyph-name="uni0445" unicode="&#x445;" horiz-adv-x="609" 
d="M361 552q181 -98 222 -145q-90 -106 -90 -125q89 -65 111 -76q0 -36 -181 -214h-6q-76 69 -84 69h-7q-39 -90 -62 -90q-174 112 -236 173v7l91 97v14q-86 49 -104 76v41l159 166h7l104 -83h7q44 90 69 90zM375 469q-74 -104 -83 -104q-95 91 -118 91q-83 -83 -83 -104h7
q88 -58 117 -98l-96 -103q84 -62 131 -90q60 97 69 97h7l91 -76q11 1 96 104l-111 89v14l91 111z" />
    <glyph glyph-name="uni0446" unicode="&#x446;" horiz-adv-x="745" 
d="M397 -28l-65 -9l-15 35q-68 -14 -118 -14q-167 124 -167 133q23 362 42 362q171 7 272 7h20q14 -3 14 -14v-28l-6 -14q271 -33 271 -49q-10 -77 -27 -170q46 -13 107 -29q0 -27 -157 -293q-90 7 -186 28zM461 -25q4 -22 57 -22h7q107 145 107 186v7q-14 0 -92 22l28 165
q-85 14 -167 21l-14 -21v-147q0 -14 -118 -41q0 6 -7 6l42 258l-49 7h-56q-76 0 -76 -35q0 -34 -21 -244l125 -83q119 21 153 21q6 -28 14 -28q54 0 86 6q-9 -36 -19 -78z" />
    <glyph glyph-name="uni0447" unicode="&#x447;" horiz-adv-x="695" 
d="M384 288q-112 -8 -135 -8l-7 8q26 149 26 192h-7q-98 10 -155 10v-5q0 -21 -13 -228q9 -1 98 -58h209q-8 -137 -12 -163q136 0 136 41q68 336 68 388h-6q-130 27 -171 27q-4 -92 -8 -165q-9 -39 -23 -39zM339 332q12 242 29 242q251 -41 306 -68q-91 -518 -109 -518
q-163 -20 -238 -20q0 7 -7 7l7 34q2 77 4 145h-160q-50 23 -142 94q13 291 26 291q291 -14 291 -27l-33 -183h20q3 0 6 3z" />
    <glyph glyph-name="uni0448" unicode="&#x448;" horiz-adv-x="798" 
d="M326 117q73 -60 90 -60q57 76 98 76l8 -76q165 22 165 38q0 34 -83 346h-7q-30 0 -136 -38l30 -165q-27 -23 -52 -23q-15 15 -38 196q-120 -10 -120 -30q7 -98 7 -158q0 -12 -52 -30l-8 15v195h-7q-121 0 -121 -37q-22 -128 -22 -233q-7 0 -7 -8q103 -56 172 -75h8z
M266 -40q-263 103 -263 135q21 354 45 354q110 22 248 37q0 -15 15 -15q115 22 136 30l29 -15q150 45 173 45q98 -331 128 -489q-232 -67 -301 -67q-11 30 -22 30q0 -10 -38 -38h-7l-75 53z" />
    <glyph glyph-name="uni0449" unicode="&#x449;" horiz-adv-x="914" 
d="M568 -12q-62 -13 -92 -13q-11 30 -22 30q0 -10 -38 -38h-7l-75 53l-68 -60q-263 103 -263 135q21 354 45 354q110 22 248 37q0 -15 15 -15q115 22 136 30l29 -15q150 45 173 45q58 -197 93 -333q57 -15 144 -38q0 -27 -157 -293q-90 7 -186 28zM622 -47q4 -22 57 -22h7
q107 145 107 186v7q-16 0 -114 29q-1 -2 -1 -4q-19 85 -74 292h-7q-30 0 -136 -38l30 -165q-27 -23 -52 -23q-15 15 -38 196q-120 -10 -120 -30q7 -98 7 -158q0 -12 -52 -30l-8 15v195h-7q-121 0 -121 -37q-22 -128 -22 -233q-7 0 -7 -8q103 -56 172 -75h8l75 67
q73 -60 90 -60q57 76 98 76l8 -76q92 12 133 23q-16 -55 -33 -127z" />
    <glyph glyph-name="uni044A" unicode="&#x44a;" horiz-adv-x="660" 
d="M340 167v123l6 11l41 -6q58 0 58 -99q0 -13 -99 -41zM337 502h-129q-39 0 -118 6l-5 -12v-76q9 -18 17 -18h47q25 0 59 1q-15 -173 -20 -312q182 -30 245 -35l152 105l-18 82q0 78 -111 140l-99 -12q-10 0 -11 12v81q0 15 -9 23v15zM390 542q8 -4 8 -8v-99q26 0 76 6
q72 -47 93 -76q48 0 76 -222v-5q-58 -52 -198 -140q-290 35 -321 46q13 189 23 308l-92 -3q-24 0 -24 200v6q52 0 136 -2q2 11 3 11q131 -6 186 -15h11l23 -6v-1z" />
    <glyph glyph-name="uni044B" unicode="&#x44b;" horiz-adv-x="774" 
d="M221 167v118l5 11l40 -5q55 0 55 -96q0 -12 -95 -39zM533 468q-19 -378 -26 -423q127 0 127 38q63 312 63 360h-7q-120 25 -157 25zM455 162v2l-16 76q0 75 -107 134l-95 -11q-9 0 -11 11v78q0 34 -45 34h-78q-22 -223 -27 -391q174 -29 234 -34zM453 93
q-52 -38 -132 -87q-278 33 -307 44q36 498 44 498q219 -10 219 -29v-94q24 0 72 5q69 -45 90 -72q12 0 23 -17q11 203 26 203q233 -38 284 -63q-84 -480 -101 -480q-151 -19 -221 -19q0 6 -6 6l6 32q1 38 3 73z" />
    <glyph glyph-name="uni044C" unicode="&#x44c;" horiz-adv-x="612" 
d="M251 140v126l7 12l45 -6q64 0 64 -102q0 -13 -109 -41zM354 27l167 108l-19 83q0 80 -123 143l-108 -12q-11 0 -13 12v83q0 36 -52 36h-90q-25 -238 -31 -417q200 -30 269 -36zM14 15q41 531 51 531q251 -10 251 -30v-101q28 0 83 6q79 -48 103 -78q52 0 83 -227v-5
q-63 -53 -218 -143q-319 35 -353 47z" />
    <glyph glyph-name="uni044D" unicode="&#x44d;" horiz-adv-x="602" 
d="M438 548q24 0 149 -173l-71 -286q-11 -17 -269 -89q-75 30 -244 132q18 44 108 190q-78 164 -78 179q22 27 226 95q22 0 179 -48zM355 252v-8q0 -33 -119 -53l-90 65q-13 -2 -65 -101q3 -12 172 -95q3 6 191 60q29 0 77 237q-58 90 -65 90q0 49 -191 89q-74 -23 -154 -60
q0 -21 47 -113q28 0 107 48q53 -33 77 -57h-152v-48q0 -26 12 -48q96 -5 153 -6z" />
    <glyph glyph-name="uni044E" unicode="&#x44e;" horiz-adv-x="809" 
d="M516 245v-17q0 -5 17 -17q28 9 28 34l-16 11h-18q-11 -2 -11 -11zM573 324q53 -76 57 -102l-80 -74q-85 19 -85 57q-5 36 -5 79q38 27 113 40zM342 205q22 -108 33 -108l164 -62q176 65 176 90q23 132 23 188q-107 108 -125 108l-153 23q-12 -8 -133 -144h-54
q21 116 21 144h-7q-122 26 -160 26q-19 -384 -26 -430q128 0 128 39q14 68 25 123q36 1 88 3zM302 120q-25 -125 -34 -125q-154 -19 -225 -19q0 7 -6 7l6 32q15 532 39 532q236 -38 289 -64q-6 -31 -11 -61l71 78q244 -20 244 -45q119 -124 119 -142q-20 -250 -45 -250
q-192 -85 -210 -85q-228 70 -228 102q-5 21 -9 40z" />
    <glyph glyph-name="uni044F" unicode="&#x44f;" horiz-adv-x="646" 
d="M400 375v-119l-7 -12q-54 6 -67 12q-37 0 -37 89q0 20 92 42q19 0 19 -12zM302 494l-154 -107q0 -32 18 -95q0 -39 86 -95q0 -5 -122 -102q108 -66 141 -66l122 155h7v-130q0 -13 13 -13h116q31 304 31 411q-34 18 -258 42zM627 500q-34 -524 -49 -524q-49 0 -178 11
q-62 0 -62 37h-6q-28 -66 -43 -66q-39 0 -258 119v6q10 17 129 107v7q-47 0 -80 201q0 25 209 155q297 -29 338 -53z" />
    <glyph glyph-name="uni0451" unicode="&#x451;" horiz-adv-x="633" 
d="M315 354q84 -21 84 -56q-7 -42 -21 -42q-118 14 -118 35q0 17 55 63zM93 145l181 -112q190 28 216 28v7q0 7 -42 104q-28 0 -118 -55q-84 69 -84 76v14h265q14 0 42 140q-89 34 -223 104q-209 -65 -209 -97q-28 -167 -28 -209zM127 671q5 -107 22 -107h49q57 0 57 107
l-14 7h-100zM390 630q5 -107 22 -107h50q57 0 57 107l-15 8h-100zM266 503l-182 20q-11 97 -21 219q218 -7 257 -14l-7 -14v-7q0 -109 -15 -172q0 -7 -12 -25q36 11 50 11q1 0 2 -1q-4 84 -12 182q218 -7 257 -15l-7 -14v-7q0 -108 -14 -172q0 -24 -102 -31q71 -36 169 -88
q-46 -238 -76 -238h-8v-7q0 -13 42 -111q0 -17 -320 -56q-115 52 -251 161q34 306 70 306q116 50 180 73z" />
    <glyph glyph-name="uni1D48" unicode="&#x1d48;" horiz-adv-x="400" 
d="M168 542h52q13 -4 13 -26v-18q-4 -11 -43 -35q-13 16 -31 75zM203 708q13 -71 13 -101l-9 -4q-26 0 -91 9q-53 -95 -53 -109q73 -96 83 -96l96 26q3 -26 18 -26q23 0 78 13l-4 8q-18 275 -35 275q-20 0 -96 5zM159 756h5q179 -15 179 -26q8 -35 39 -341q-7 -9 -162 -30
q-5 21 -13 21q-61 -17 -87 -17q-105 133 -105 148q73 138 83 140h74q-13 57 -13 105z" />
    <glyph glyph-name="uni1D49" unicode="&#x1d49;" horiz-adv-x="400" 
d="M214 676q167 -74 167 -102q-26 -105 -26 -135v-6l13 -45q0 -15 -212 -32q-121 81 -121 96q0 162 51 180q9 0 128 44zM92 478v-7q6 -14 90 -64q109 11 109 26q-19 45 -25 45q-45 -26 -65 -26l-25 32v7l45 6h90q6 25 6 70l-103 52q-115 -26 -115 -71q-7 -44 -7 -70z
M208 567q38 -6 38 -19v-12q0 -14 -13 -14h-6q-47 0 -51 20q13 25 32 25z" />
    <glyph glyph-name="uni1D57" unicode="&#x1d57;" horiz-adv-x="400" 
d="M175 718l-5 -10v-65q0 -9 -8 -9q-56 9 -62 9v-88h62v-14q0 -77 -9 -130q38 0 92 -9l5 23v60q0 61 13 61q18 0 57 -10v5q0 25 9 83h-57q-9 0 -9 10q0 11 9 65q-10 9 -97 19zM135 773q185 -27 185 -41l-8 -61l22 -5h31q8 -1 8 -9q-7 -172 -26 -172l-53 9v-32
q0 -107 -13 -107q-168 9 -168 28v14q0 39 4 116h-61q4 128 4 177l9 4q18 0 57 -9v79q2 9 9 9z" />
    <glyph glyph-name="trademark" unicode="&#x2122;" horiz-adv-x="689" 
d="M310.458 770.617q10.3506 -5.2002 12.6006 -107.606q-21.1504 -5.60059 -76.502 -14.001l25.6504 -133.208q-15.75 -6.00098 -149.854 -14.4014l-3.14941 6v124.408q-67.9521 -8.40039 -83.2529 -8.40039q-4.9502 0 -12.5996 130.408q0 5.59961 287.107 16.8008z
M58.4512 731.015q0 -2.7998 -3.15039 -2.7998q4.05078 -48.8037 9.4502 -73.6055q67.0518 8.40137 79.6523 8.40137l3.15039 -5.60059v-28.4023q0 -65.2031 6.2998 -96.4053q80.1025 2.7998 80.1025 8.80078l-22.501 130.008q7.65039 5.60059 79.6523 11.6006v2.40039
q-3.15039 38.4023 -3.15039 57.2031h-3.14941zM424.553 779.417q99.0029 0 99.0029 -22.4014q4.0498 -20.001 9.4502 -20.001q0 9.2002 19.3506 28.4014q95.4023 -8 95.4023 -22.8008q28.8008 -184.412 31.9512 -226.814q0 -8.40039 -143.555 -14.001l-3.14941 5.60059
v70.8047l-25.6514 -19.6016h-3.14941l-22.0508 22.8018q-24.3008 -71.2041 -31.9512 -74.0049q-127.354 49.2031 -127.354 59.6035q79.6523 183.211 101.703 212.413zM440.753 748.615q-76.502 -156.01 -76.502 -173.211q13.5 -8.40039 70.2021 -31.2012
q34.6504 94.0059 34.6504 99.2061h9.90039q24.3008 -40.8027 31.9512 -42.4033q4.9502 0 47.7012 36.8027l3.15039 -5.60059v-102.006q80.5518 4 82.8018 8.40039q-18.9004 168.41 -31.9502 190.012q-17.5508 5.60059 -50.8516 5.60059q-35.1016 -52.0039 -41.4014 -54.0039
q-9.4502 16.4014 -22.501 65.2041q-44.1006 3.2002 -57.1514 3.2002z" />
    <glyph glyph-name="uniFB01" unicode="&#xfb01;" horiz-adv-x="920" 
d="M257 700q256 -42 256 -62q-13 -99 -13 -139q0 -136 13 -256q-22 -14 -41 -14h-56q28 -155 28 -194q-218 -49 -277 -49q-12 23 -35 201q-11 -8 -69 -14q-23 0 -49 270q26 15 56 15h27v13q-14 102 -14 111q116 93 174 118zM257 631l-97 -84q21 -97 21 -138q0 -10 -21 -21
h-63v-34q0 -45 14 -98q14 0 83 14q14 -60 28 -201q139 0 139 35q-7 97 -28 180q23 14 42 14h55v76l-7 49q-62 -14 -90 -14l-7 14v69l7 14l76 -35q21 56 21 104v21zM624 646q285 -46 285 -70q-26 -109 -48 -369q-38 -216 -49 -216h-35q-70 0 -209 7q0 7 -7 7q15 474 49 474v7
q0 56 -7 132q10 28 21 28zM673 563v-7q0 -112 41 -112h91q21 63 21 83v15zM652 381l-21 -320h111l14 -7q21 57 56 306q-84 21 -154 21h-6z" />
    <glyph glyph-name="uniFB02" unicode="&#xfb02;" horiz-adv-x="922" 
d="M257 700q256 -42 256 -62q-13 -99 -13 -139q0 -136 13 -256q-22 -14 -41 -14h-56q28 -155 28 -194q-218 -49 -277 -49q-12 23 -35 201q-11 -8 -69 -14q-23 0 -49 270q26 15 56 15h27v13q-14 102 -14 111q116 93 174 118zM257 631l-97 -84q21 -97 21 -138q0 -10 -21 -21
h-63v-34q0 -45 14 -98q14 0 83 14q14 -60 28 -201q139 0 139 35q-7 97 -28 180q23 14 42 14h55v76l-7 49q-62 -14 -90 -14l-7 14v69l7 14l76 -35q21 56 21 104v21zM536 710q323 -20 323 -43q21 -293 36 -617q-95 -29 -273 -50q-21 76 -100 696q14 0 14 14zM608 624
q59 -538 79 -538q33 0 129 21q-15 448 -29 510q-84 7 -122 7h-57z" />
    <glyph glyph-name="glyph3" horiz-adv-x="500" 
 />
    <glyph glyph-name="_132" 
 />
    <glyph glyph-name="_133" 
 />
    <glyph glyph-name="_134" 
 />
    <glyph glyph-name="_135" 
 />
    <glyph glyph-name="_136" 
 />
    <glyph glyph-name="_137" 
 />
    <glyph glyph-name="_138" 
 />
    <glyph glyph-name="_139" 
 />
    <glyph glyph-name="_140" 
 />
    <glyph glyph-name="_141" 
 />
    <glyph glyph-name="_142" 
 />
    <glyph glyph-name="_143" 
 />
    <glyph glyph-name="_144" 
 />
    <glyph glyph-name="_145" 
 />
    <glyph glyph-name="_146" 
 />
    <glyph glyph-name="_147" 
 />
    <glyph glyph-name="_148" 
 />
    <glyph glyph-name="_149" 
 />
    <glyph glyph-name="_150" 
 />
    <glyph glyph-name="_151" 
 />
    <glyph glyph-name="_152" 
 />
    <glyph glyph-name="_153" 
 />
    <glyph glyph-name="_154" 
 />
    <glyph glyph-name="_155" 
 />
    <glyph glyph-name="_156" 
 />
    <glyph glyph-name="_157" 
 />
    <glyph glyph-name="_158" 
 />
    <glyph glyph-name="_159" 
 />
    <glyph glyph-name="_160" 
 />
    <glyph glyph-name="_161" 
 />
    <glyph glyph-name="_162" 
 />
    <glyph glyph-name="_163" 
 />
    <glyph glyph-name="_164" 
 />
    <glyph glyph-name="_165" 
 />
    <glyph glyph-name="_166" 
 />
    <glyph glyph-name="_167" 
 />
    <glyph glyph-name="_168" 
 />
    <glyph glyph-name="_169" 
 />
    <glyph glyph-name="_170" 
 />
    <glyph glyph-name="_171" 
 />
    <glyph glyph-name="_172" 
 />
    <glyph glyph-name="_173" 
 />
    <glyph glyph-name="_174" 
 />
    <glyph glyph-name="_175" 
 />
    <glyph glyph-name="_176" 
 />
    <glyph glyph-name="_177" 
 />
    <glyph glyph-name="_178" 
 />
    <glyph glyph-name="_179" 
 />
    <glyph glyph-name="_180" 
 />
    <glyph glyph-name="_181" 
 />
    <glyph glyph-name="_182" 
 />
    <glyph glyph-name="_183" 
 />
    <glyph glyph-name="_184" 
 />
    <glyph glyph-name="_185" 
 />
    <glyph glyph-name="_186" 
 />
    <glyph glyph-name="_187" 
 />
    <glyph glyph-name="_188" 
 />
    <glyph glyph-name="_189" 
 />
    <glyph glyph-name="_190" 
 />
    <glyph glyph-name="_191" 
 />
    <glyph glyph-name="_192" 
 />
    <glyph glyph-name="_193" 
 />
    <glyph glyph-name="_194" 
 />
    <glyph glyph-name="_195" 
 />
    <glyph glyph-name="_196" 
 />
    <glyph glyph-name="_197" 
 />
    <glyph glyph-name="_198" 
 />
    <glyph glyph-name="_199" 
 />
    <glyph glyph-name="_200" 
 />
    <glyph glyph-name="_201" 
 />
    <glyph glyph-name="_202" 
 />
    <glyph glyph-name="_203" 
 />
    <glyph glyph-name="_204" 
 />
    <glyph glyph-name="_205" 
 />
    <glyph glyph-name="_206" 
 />
    <glyph glyph-name="_207" 
 />
    <glyph glyph-name="_208" 
 />
    <glyph glyph-name="_209" 
 />
    <glyph glyph-name="_210" 
 />
    <glyph glyph-name="_211" 
 />
    <glyph glyph-name="_212" 
 />
    <glyph glyph-name="_213" 
 />
    <glyph glyph-name="_214" 
 />
    <glyph glyph-name="_215" 
 />
    <glyph glyph-name="_216" 
 />
    <glyph glyph-name="_217" 
 />
    <glyph glyph-name="_218" 
 />
    <glyph glyph-name="_219" 
 />
    <glyph glyph-name="_220" 
 />
    <glyph glyph-name="_221" 
 />
    <glyph glyph-name="_222" 
 />
    <glyph glyph-name="_223" 
 />
    <glyph glyph-name="_224" 
 />
    <glyph glyph-name="_225" 
 />
    <glyph glyph-name="_226" 
 />
    <glyph glyph-name="_227" 
 />
    <glyph glyph-name="_228" 
 />
    <glyph glyph-name="_229" 
 />
    <glyph glyph-name="_230" 
 />
    <glyph glyph-name="_231" 
 />
    <glyph glyph-name="_232" 
 />
    <glyph glyph-name="_233" 
 />
    <glyph glyph-name="_234" 
 />
    <glyph glyph-name="_235" 
 />
    <glyph glyph-name="_236" 
 />
    <glyph glyph-name="_237" 
 />
    <glyph glyph-name="_238" 
 />
    <glyph glyph-name="_239" 
 />
    <glyph glyph-name="_240" 
 />
    <glyph glyph-name="_241" 
 />
    <glyph glyph-name="_242" 
 />
    <glyph glyph-name="_243" 
 />
    <glyph glyph-name="_244" 
 />
    <glyph glyph-name="_245" 
 />
    <glyph glyph-name="_246" 
 />
    <glyph glyph-name="_247" 
 />
    <glyph glyph-name="_248" 
 />
    <glyph glyph-name="_249" 
 />
    <glyph glyph-name="_250" 
 />
    <glyph glyph-name="_251" 
 />
    <glyph glyph-name="_252" 
 />
    <glyph glyph-name="_253" 
 />
    <glyph glyph-name="_254" 
 />
    <glyph glyph-name="_255" 
 />
    <glyph glyph-name="_256" 
 />
    <glyph glyph-name="_257" 
 />
    <glyph glyph-name="_258" 
 />
    <glyph glyph-name="_259" 
 />
    <glyph glyph-name="_260" 
 />
    <glyph glyph-name="_261" 
 />
    <glyph glyph-name="_262" 
 />
    <glyph glyph-name="_263" 
 />
    <glyph glyph-name="_264" 
 />
    <glyph glyph-name="_265" 
 />
    <glyph glyph-name="_266" 
 />
    <glyph glyph-name="_267" 
 />
    <glyph glyph-name="_268" 
 />
    <glyph glyph-name="_269" 
 />
    <glyph glyph-name="_270" 
 />
    <glyph glyph-name="_271" 
 />
    <glyph glyph-name="_272" 
 />
    <glyph glyph-name="_273" 
 />
    <glyph glyph-name="_274" 
 />
    <glyph glyph-name="_275" 
 />
    <glyph glyph-name="_276" 
 />
    <glyph glyph-name="_277" 
 />
    <glyph glyph-name="_278" 
 />
    <glyph glyph-name="_279" 
 />
    <glyph glyph-name="_280" 
 />
    <glyph glyph-name="_281" 
 />
    <glyph glyph-name="_282" 
 />
    <glyph glyph-name="_283" 
 />
    <glyph glyph-name="_284" 
 />
    <glyph glyph-name="_285" 
 />
    <glyph glyph-name="_286" 
 />
    <glyph glyph-name="_287" 
 />
    <glyph glyph-name="_288" 
 />
    <glyph glyph-name="_289" 
 />
    <glyph glyph-name="_290" 
 />
    <glyph glyph-name="_291" 
 />
    <glyph glyph-name="_292" 
 />
    <glyph glyph-name="_293" 
 />
    <glyph glyph-name="_294" 
 />
    <glyph glyph-name="_295" 
 />
    <glyph glyph-name="_296" 
 />
    <glyph glyph-name="_297" 
 />
    <glyph glyph-name="_298" 
 />
    <glyph glyph-name="_299" 
 />
    <glyph glyph-name="_300" 
 />
    <glyph glyph-name="_301" 
 />
    <glyph glyph-name="_302" 
 />
    <glyph glyph-name="_303" 
 />
    <glyph glyph-name="_304" 
 />
    <glyph glyph-name="_305" 
 />
    <glyph glyph-name="_306" 
 />
    <glyph glyph-name="_307" 
 />
    <glyph glyph-name="_308" 
 />
    <glyph glyph-name="_309" 
 />
    <glyph glyph-name="_310" 
 />
    <glyph glyph-name="_311" 
 />
    <glyph glyph-name="_312" 
 />
    <glyph glyph-name="_313" 
 />
    <glyph glyph-name="_314" 
 />
    <glyph glyph-name="_315" 
 />
    <glyph glyph-name="_316" 
 />
    <glyph glyph-name="_317" 
 />
    <glyph glyph-name="_318" 
 />
    <glyph glyph-name="_319" 
 />
    <glyph glyph-name="_320" 
 />
    <glyph glyph-name="_321" 
 />
    <glyph glyph-name="_322" 
 />
    <glyph glyph-name="_323" 
 />
    <glyph glyph-name="_324" 
 />
    <glyph glyph-name="_325" 
 />
    <glyph glyph-name="_326" 
 />
    <glyph glyph-name="_327" 
 />
    <glyph glyph-name="_328" 
 />
    <glyph glyph-name="_329" 
 />
    <glyph glyph-name="_330" 
 />
    <glyph glyph-name="_331" 
 />
    <glyph glyph-name="_332" 
 />
    <glyph glyph-name="_333" 
 />
    <glyph glyph-name="_334" 
 />
    <glyph glyph-name="_335" 
 />
    <glyph glyph-name="_336" 
 />
    <glyph glyph-name="_337" 
 />
    <glyph glyph-name="_338" 
 />
    <glyph glyph-name="_339" 
 />
    <glyph glyph-name="_340" 
 />
    <glyph glyph-name="_341" 
 />
    <glyph glyph-name="_342" 
 />
    <glyph glyph-name="_343" 
 />
    <glyph glyph-name="_344" 
 />
    <glyph glyph-name="_345" 
 />
    <glyph glyph-name="_346" 
 />
    <glyph glyph-name="_347" 
 />
    <glyph glyph-name="_348" 
 />
    <glyph glyph-name="_349" 
 />
    <glyph glyph-name="_350" 
 />
    <glyph glyph-name="_351" 
 />
    <glyph glyph-name="_352" 
 />
    <glyph glyph-name="_353" 
 />
    <glyph glyph-name="_354" 
 />
    <glyph glyph-name="_355" 
 />
    <glyph glyph-name="_356" 
 />
    <glyph glyph-name="_357" 
 />
    <glyph glyph-name="_358" 
 />
    <glyph glyph-name="_359" 
 />
    <glyph glyph-name="_360" 
 />
    <glyph glyph-name="_361" 
 />
    <glyph glyph-name="_362" 
 />
    <glyph glyph-name="_363" 
 />
    <glyph glyph-name="_364" 
 />
    <glyph glyph-name="_365" 
 />
    <glyph glyph-name="_366" 
 />
    <glyph glyph-name="_367" 
 />
    <glyph glyph-name="_368" 
 />
    <glyph glyph-name="_369" 
 />
    <glyph glyph-name="_370" 
 />
    <glyph glyph-name="_371" 
 />
    <glyph glyph-name="_372" 
 />
    <glyph glyph-name="_373" 
 />
    <glyph glyph-name="_374" 
 />
    <glyph glyph-name="_375" 
 />
    <glyph glyph-name="_376" 
 />
    <glyph glyph-name="_377" 
 />
    <glyph glyph-name="_378" 
 />
    <glyph glyph-name="_379" 
 />
    <glyph glyph-name="_380" 
 />
    <glyph glyph-name="_381" 
 />
    <glyph glyph-name="_382" 
 />
    <glyph glyph-name="_383" 
 />
    <glyph glyph-name="_384" 
 />
    <glyph glyph-name="_385" 
 />
    <glyph glyph-name="_386" 
 />
    <glyph glyph-name="_387" 
 />
    <glyph glyph-name="_388" 
 />
    <glyph glyph-name="_389" 
 />
    <glyph glyph-name="_390" 
 />
    <glyph glyph-name="_391" 
 />
    <glyph glyph-name="_392" 
 />
    <glyph glyph-name="_393" 
 />
    <glyph glyph-name="_394" 
 />
    <glyph glyph-name="_395" 
 />
    <glyph glyph-name="_396" 
 />
    <glyph glyph-name="_397" 
 />
    <glyph glyph-name="_398" 
 />
    <glyph glyph-name="_399" 
 />
    <glyph glyph-name="_400" 
 />
    <glyph glyph-name="_401" 
 />
    <glyph glyph-name="_402" 
 />
    <glyph glyph-name="_403" 
 />
    <glyph glyph-name="_404" 
 />
    <glyph glyph-name="_405" 
 />
    <glyph glyph-name="_406" 
 />
    <glyph glyph-name="_407" 
 />
    <glyph glyph-name="_408" 
 />
    <glyph glyph-name="_409" 
 />
    <glyph glyph-name="_410" 
 />
    <glyph glyph-name="_411" 
 />
    <glyph glyph-name="_412" 
 />
    <glyph glyph-name="_413" 
 />
    <glyph glyph-name="_414" 
 />
    <glyph glyph-name="_415" 
 />
    <glyph glyph-name="_416" 
 />
    <glyph glyph-name="_417" 
 />
    <glyph glyph-name="_418" 
 />
    <glyph glyph-name="_419" 
 />
    <glyph glyph-name="_420" 
 />
    <glyph glyph-name="_421" 
 />
    <glyph glyph-name="_422" 
 />
    <glyph glyph-name="_423" 
 />
    <glyph glyph-name="_424" 
 />
    <glyph glyph-name="_425" 
 />
    <glyph glyph-name="_426" 
 />
    <glyph glyph-name="_427" 
 />
    <glyph glyph-name="_428" 
 />
    <glyph glyph-name="_429" 
 />
    <glyph glyph-name="_430" 
 />
    <glyph glyph-name="_431" 
 />
    <glyph glyph-name="_432" 
 />
    <glyph glyph-name="_433" 
 />
    <glyph glyph-name="_434" 
 />
    <glyph glyph-name="_435" 
 />
    <glyph glyph-name="_436" 
 />
    <glyph glyph-name="_437" 
 />
    <glyph glyph-name="_438" 
 />
    <glyph glyph-name="_439" 
 />
    <glyph glyph-name="_440" 
 />
    <glyph glyph-name="_441" 
 />
    <glyph glyph-name="_442" 
 />
    <glyph glyph-name="_443" 
 />
    <glyph glyph-name="_444" 
 />
    <glyph glyph-name="_445" 
 />
    <glyph glyph-name="_446" 
 />
    <glyph glyph-name="_447" 
 />
    <glyph glyph-name="_448" 
 />
    <glyph glyph-name="_449" 
 />
    <glyph glyph-name="_450" 
 />
    <glyph glyph-name="_451" 
 />
    <glyph glyph-name="_452" 
 />
    <glyph glyph-name="_453" 
 />
    <glyph glyph-name="_454" 
 />
    <glyph glyph-name="_455" 
 />
    <glyph glyph-name="_456" 
 />
    <glyph glyph-name="_457" 
 />
    <glyph glyph-name="_458" 
 />
    <glyph glyph-name="_459" 
 />
    <glyph glyph-name="_460" 
 />
    <glyph glyph-name="_461" 
 />
    <glyph glyph-name="_462" 
 />
    <glyph glyph-name="_463" 
 />
    <glyph glyph-name="_464" 
 />
    <glyph glyph-name="_465" 
 />
    <glyph glyph-name="_466" 
 />
    <glyph glyph-name="_467" 
 />
    <glyph glyph-name="_468" 
 />
    <glyph glyph-name="_469" 
 />
    <glyph glyph-name="_470" 
 />
    <glyph glyph-name="_471" 
 />
    <glyph glyph-name="_472" 
 />
    <glyph glyph-name="_473" 
 />
    <glyph glyph-name="_474" 
 />
    <glyph glyph-name="_475" 
 />
    <glyph glyph-name="_476" 
 />
    <glyph glyph-name="_477" 
 />
    <glyph glyph-name="_478" 
 />
    <glyph glyph-name="_479" 
 />
    <glyph glyph-name="_480" 
 />
    <glyph glyph-name="_481" 
 />
    <glyph glyph-name="_482" 
 />
    <glyph glyph-name="_483" 
 />
    <glyph glyph-name="_484" 
 />
    <glyph glyph-name="_485" 
 />
    <glyph glyph-name="_486" 
 />
    <glyph glyph-name="_487" 
 />
    <glyph glyph-name="_488" 
 />
    <glyph glyph-name="_489" 
 />
    <glyph glyph-name="_490" 
 />
    <glyph glyph-name="_491" 
 />
    <glyph glyph-name="_492" 
 />
    <glyph glyph-name="_493" 
 />
    <glyph glyph-name="_494" 
 />
    <glyph glyph-name="_495" 
 />
    <glyph glyph-name="_496" 
 />
    <glyph glyph-name="_497" 
 />
    <glyph glyph-name="_498" 
 />
    <glyph glyph-name="_499" 
 />
    <glyph glyph-name="_500" 
 />
    <glyph glyph-name="_501" 
 />
    <glyph glyph-name="_502" 
 />
    <glyph glyph-name="_503" 
 />
    <glyph glyph-name="_504" 
 />
    <glyph glyph-name="_505" 
 />
    <glyph glyph-name="_506" 
 />
    <glyph glyph-name="_507" 
 />
    <glyph glyph-name="_508" 
 />
    <glyph glyph-name="_509" 
 />
    <glyph glyph-name="_510" 
 />
    <glyph glyph-name="_511" 
 />
    <glyph glyph-name="_512" 
 />
    <glyph glyph-name="_513" 
 />
    <glyph glyph-name="_514" 
 />
    <glyph glyph-name="_515" 
 />
    <glyph glyph-name="_516" 
 />
    <glyph glyph-name="_517" 
 />
    <glyph glyph-name="_518" 
 />
    <glyph glyph-name="_519" 
 />
    <glyph glyph-name="_520" 
 />
    <glyph glyph-name="_521" 
 />
    <glyph glyph-name="_522" 
 />
    <glyph glyph-name="_523" 
 />
    <glyph glyph-name="_524" 
 />
    <glyph glyph-name="_525" 
 />
    <glyph glyph-name="_526" 
 />
    <glyph glyph-name="_527" 
 />
    <glyph glyph-name="_528" 
 />
    <glyph glyph-name="_529" 
 />
    <glyph glyph-name="_530" 
 />
    <glyph glyph-name="_531" 
 />
    <glyph glyph-name="_532" 
 />
    <glyph glyph-name="_533" 
 />
    <glyph glyph-name="_534" 
 />
    <glyph glyph-name="_535" 
 />
    <glyph glyph-name="_536" 
 />
    <glyph glyph-name="_537" 
 />
    <glyph glyph-name="_538" 
 />
    <glyph glyph-name="_539" 
 />
    <glyph glyph-name="_540" 
 />
    <glyph glyph-name="_541" 
 />
    <glyph glyph-name="_542" 
 />
    <glyph glyph-name="_543" 
 />
    <glyph glyph-name="_544" 
 />
    <glyph glyph-name="_545" 
 />
    <glyph glyph-name="_546" 
 />
    <glyph glyph-name="_547" 
 />
    <glyph glyph-name="_548" 
 />
    <glyph glyph-name="_549" 
 />
    <glyph glyph-name="_550" 
 />
    <glyph glyph-name="_551" 
 />
    <glyph glyph-name="_552" 
 />
    <glyph glyph-name="_553" 
 />
    <glyph glyph-name="_554" 
 />
    <glyph glyph-name="_555" 
 />
    <glyph glyph-name="_556" 
 />
    <glyph glyph-name="_557" 
 />
    <glyph glyph-name="_558" 
 />
    <glyph glyph-name="_559" 
 />
    <glyph glyph-name="_560" 
 />
    <glyph glyph-name="_561" 
 />
    <glyph glyph-name="_562" 
 />
    <glyph glyph-name="_563" 
 />
    <glyph glyph-name="_564" 
 />
    <glyph glyph-name="_565" 
 />
    <glyph glyph-name="_566" 
 />
    <glyph glyph-name="_567" 
 />
    <glyph glyph-name="_568" 
 />
    <glyph glyph-name="_569" 
 />
    <glyph glyph-name="_570" 
 />
    <glyph glyph-name="_571" 
 />
    <glyph glyph-name="_572" 
 />
    <glyph glyph-name="_573" 
 />
    <glyph glyph-name="_574" 
 />
    <glyph glyph-name="_575" 
 />
    <glyph glyph-name="_576" 
 />
    <glyph glyph-name="_577" 
 />
    <glyph glyph-name="_578" 
 />
    <glyph glyph-name="_579" 
 />
    <glyph glyph-name="_580" 
 />
    <glyph glyph-name="_581" 
 />
    <glyph glyph-name="_582" 
 />
  </font>
</defs>
</svg>
